M48
;DRILL file {KiCad (5.0.0-rc2-dev-70-g2da7199a3)} date 03/19/18 21:37:28
;FORMAT={-:-/ absolute / metric / decimal}
FMAT,2
METRIC,TZ
T1C0.400
T2C0.500
T3C0.800
T4C1.000
%
G90
G05
M71
T1
X4.9Y-14.8
X4.964Y-7.875
X7.9Y-13.8
X8.9Y-17.3
X10.Y-13.8
X10.6Y-17.2
X15.6Y-35.9
X15.617Y-41.122
X18.85Y-13.9
X19.427Y-1.773
X21.1Y-41.8
X22.549Y-29.349
X22.9Y-15.2
X23.1Y-29.924
X25.5Y-11.3
X26.272Y-10.408
X27.325Y-28.8
X27.325Y-29.791
X28.6Y-33.4
X28.603Y-37.362
X28.9Y-15.2
X28.9Y-20.6
X28.909Y-38.36
X29.573Y-21.431
X29.6Y-14.7
X35.Y-36.8
X35.135Y-35.549
X35.2Y-32.
X35.5Y-21.1
X35.9Y-30.9
X35.954Y-9.068
X37.2Y-20.4
X38.386Y-41.08
X38.977Y-7.43
X39.285Y-41.717
X39.3Y-29.8
X41.207Y-22.071
X43.293Y-29.225
X43.3Y-28.3
X43.3Y-30.8
X43.3Y-32.1
X43.3Y-33.3
X43.312Y-34.45
X43.4Y-35.5
X43.4Y-36.3
X44.4Y-29.1
X46.226Y-39.614
X46.3Y-37.
X46.533Y-41.266
X50.7Y-35.6
X50.7Y-37.7
X51.1Y-24.6
X51.596Y-36.022
X51.6Y-23.3
X51.616Y-34.152
X51.9Y-21.2
X52.1Y-12.3
X53.2Y-22.
X53.3Y-24.6
X54.8Y-24.3
X55.375Y-31.6
X55.455Y-34.575
X55.7Y-36.125
X56.137Y-9.974
X58.669Y-37.356
X59.9Y-39.4
T2
X2.4Y-24.1
X3.165Y-39.007
X3.2Y-28.5
X5.8Y-9.6
X7.77Y-12.535
X9.122Y-8.165
X15.912Y-37.514
X15.914Y-48.673
X15.933Y-30.079
X16.3Y-47.6
X18.4Y-17.3
X18.5Y-11.9
X18.584Y-43.121
X18.911Y-12.756
X19.2Y-4.
X19.6Y-31.1
X19.7Y-8.3
X19.8Y-10.4
X19.8Y-37.4
X20.6Y-1.425
X21.606Y-37.392
X22.9Y-13.2
X23.6Y-8.705
X24.05Y-4.75
X25.48Y-39.52
X27.76Y-11.369
X28.073Y-9.25
X28.164Y-7.567
X29.431Y-9.023
X31.6Y-1.6
X32.095Y-42.4
X36.2Y-5.
X36.44Y-3.107
X39.227Y-1.598
X39.263Y-6.03
X39.346Y-5.216
X40.036Y-38.225
X40.346Y-5.964
X41.576Y-8.072
X42.573Y-15.973
X43.2Y-11.8
X43.235Y-26.965
X44.76Y-25.873
X45.7Y-10.9
X45.758Y-7.834
X47.579Y-3.644
X48.Y-8.8
X49.2Y-6.
X49.418Y-9.942
X50.565Y-28.226
X53.4Y-38.4
X53.5Y-42.7
X56.2Y-29.6
X56.7Y-11.8
X56.9Y-13.4
X60.281Y-37.46
X61.024Y-38.924
X62.3Y-21.75
X62.3Y-29.6
X62.4Y-35.2
X63.721Y-40.037
X63.81Y-37.883
X64.5Y-33.4
T3
X62.5Y-12.2
X65.6Y-10.5
X65.7Y-13.9
X67.7Y-9.7
X68.7Y-12.5
X69.5Y-8.2
X59.8Y-14.4
X59.8Y-16.9
X71.7Y-8.3
X71.7Y-10.8
T4
X46.7Y-18.7
X46.7Y-20.7
X42.6Y-18.7
X42.6Y-20.7
T0
M30
