G04 #@! TF.GenerationSoftware,KiCad,Pcbnew,(5.0.0-rc2-dev-70-g2da7199a3)*
G04 #@! TF.CreationDate,2018-03-19T21:37:12-04:00*
G04 #@! TF.ProjectId,processor,70726F636573736F722E6B696361645F,rev?*
G04 #@! TF.SameCoordinates,Original*
G04 #@! TF.FileFunction,Copper,L3,Inr,Signal*
G04 #@! TF.FilePolarity,Positive*
%FSLAX46Y46*%
G04 Gerber Fmt 4.6, Leading zero omitted, Abs format (unit mm)*
G04 Created by KiCad (PCBNEW (5.0.0-rc2-dev-70-g2da7199a3)) date 03/19/18 21:37:12*
%MOMM*%
%LPD*%
G01*
G04 APERTURE LIST*
%ADD10C,1.700000*%
%ADD11R,1.600000X1.600000*%
%ADD12C,1.600000*%
%ADD13C,1.100000*%
%ADD14C,0.800000*%
%ADD15C,0.600000*%
%ADD16C,0.200000*%
G04 APERTURE END LIST*
D10*
X42600000Y-20700000D03*
X42600000Y-18700000D03*
X46700000Y-20700000D03*
X46700000Y-18700000D03*
D11*
X59800000Y-14400000D03*
D12*
X59800000Y-16900000D03*
D11*
X71700000Y-8300000D03*
D12*
X71700000Y-10800000D03*
D13*
X69500000Y-8200000D03*
X67700000Y-9700000D03*
D14*
X50564576Y-28226230D03*
X53400000Y-38400000D03*
X18500000Y-11900000D03*
X18400000Y-17300000D03*
X48000000Y-8800000D03*
X49417688Y-9942413D03*
X43200000Y-11800000D03*
D13*
X65700000Y-13899998D03*
D14*
X56700000Y-11800000D03*
X56900000Y-13400000D03*
D13*
X68700000Y-12500000D03*
X65600000Y-10500000D03*
X62500000Y-12200000D03*
D14*
X53500000Y-42700000D03*
X18911096Y-12756449D03*
X19800000Y-10400000D03*
X19700000Y-8300000D03*
D15*
X37200000Y-20400000D03*
X35500000Y-21100000D03*
X51900000Y-21200000D03*
X51600000Y-23300000D03*
X21100000Y-41800000D03*
X50700000Y-37700000D03*
X53200000Y-21999998D03*
X59900000Y-39400000D03*
D14*
X25479804Y-39520196D03*
X15913622Y-48673497D03*
X62400000Y-35200000D03*
X61023542Y-38923542D03*
X64500000Y-33400000D03*
X19200000Y-4000000D03*
X36440492Y-3106882D03*
X63809741Y-37882922D03*
X16300000Y-47600000D03*
X7770405Y-12535014D03*
X44759712Y-25872905D03*
X21605916Y-37392445D03*
X15912418Y-37514122D03*
X15933149Y-30078779D03*
X60280626Y-37460314D03*
X9122182Y-8164543D03*
D15*
X58669363Y-37356175D03*
X46300000Y-37000000D03*
X28900000Y-15200000D03*
X28900002Y-20600000D03*
X51100000Y-24600002D03*
X53300000Y-24600000D03*
X55455013Y-34574968D03*
X55700000Y-36124979D03*
X29600000Y-14700000D03*
X29572784Y-21431481D03*
X56137135Y-9973541D03*
X52100000Y-12300000D03*
X18849964Y-13900000D03*
X22900000Y-15200000D03*
X26272308Y-10408117D03*
X25500000Y-11300000D03*
D14*
X45758495Y-7833591D03*
X45700000Y-10900000D03*
X42572695Y-15972695D03*
X41576070Y-8071787D03*
X23599996Y-8704745D03*
X22900000Y-13200000D03*
X28072813Y-9250000D03*
D15*
X55375010Y-31599992D03*
D14*
X39263103Y-6029842D03*
X39346116Y-5216308D03*
X2400000Y-24100000D03*
X5800000Y-9600000D03*
X28164020Y-7567133D03*
X27759599Y-11369260D03*
X49200000Y-6000000D03*
X62300000Y-29600000D03*
X56200000Y-29600000D03*
X36200000Y-5000000D03*
X19800000Y-37400000D03*
X19600000Y-31100000D03*
X62300000Y-21750000D03*
X29431213Y-9023098D03*
X20600000Y-1424990D03*
X40036138Y-38224990D03*
X63720617Y-40036753D03*
X32095000Y-42400000D03*
X43235000Y-26965000D03*
X18584356Y-43120569D03*
X3200000Y-28500000D03*
X3164876Y-39007222D03*
X31600000Y-1600000D03*
X24050000Y-4750000D03*
X47579479Y-3643584D03*
D15*
X51595828Y-36022221D03*
X51615929Y-34151638D03*
D14*
X39227153Y-1598476D03*
D15*
X43300000Y-28300002D03*
X39284562Y-41717258D03*
X46532623Y-41265565D03*
X19427304Y-1772694D03*
X41206592Y-22070708D03*
X38976722Y-7430461D03*
X35954422Y-9068420D03*
X54800000Y-24300000D03*
X35000000Y-36800000D03*
X35135453Y-35549342D03*
X35200000Y-32000000D03*
X46226001Y-39613953D03*
X35900000Y-30900000D03*
X28600000Y-33400000D03*
X28908506Y-38360318D03*
X27324990Y-28800000D03*
X22549388Y-29349388D03*
X27324990Y-29790914D03*
X23100000Y-29924388D03*
X28603481Y-37362053D03*
X8900000Y-17300000D03*
X10600000Y-17200000D03*
X15617244Y-41121668D03*
X38386402Y-41080135D03*
X15600000Y-35900000D03*
X4964302Y-7874573D03*
X4900000Y-14800000D03*
X50700000Y-35600000D03*
X43300000Y-32100000D03*
X43400000Y-35500000D03*
X43300000Y-33300000D03*
X43311577Y-34450078D03*
D14*
X40346321Y-5963711D03*
D15*
X43300000Y-30800000D03*
X43293406Y-29224990D03*
X7900000Y-13800000D03*
X10000004Y-13800000D03*
X43400002Y-36300000D03*
X39300000Y-29800000D03*
X44400000Y-29100000D03*
D16*
G36*
X67575001Y-1958138D02*
X67566674Y-2000000D01*
X67599659Y-2165826D01*
X67618105Y-2193432D01*
X67693593Y-2306408D01*
X67729079Y-2330119D01*
X71669881Y-6270922D01*
X71693592Y-6306408D01*
X71729077Y-6330118D01*
X71834173Y-6400341D01*
X71999999Y-6433326D01*
X72041857Y-6425000D01*
X74575000Y-6425000D01*
X74575001Y-12575000D01*
X72041857Y-12575000D01*
X72000000Y-12566674D01*
X71958142Y-12575000D01*
X71834173Y-12599659D01*
X71693592Y-12693592D01*
X71599659Y-12834173D01*
X71566674Y-13000000D01*
X71575000Y-13041858D01*
X71575001Y-18075000D01*
X65041857Y-18075000D01*
X65000000Y-18066674D01*
X64958142Y-18075000D01*
X64834173Y-18099659D01*
X64693592Y-18193592D01*
X64599659Y-18334173D01*
X64566674Y-18500000D01*
X64575000Y-18541858D01*
X64575001Y-31458137D01*
X64566674Y-31500000D01*
X64599659Y-31665827D01*
X64693592Y-31806408D01*
X64834173Y-31900341D01*
X64958142Y-31925000D01*
X64958143Y-31925000D01*
X65000000Y-31933326D01*
X65041858Y-31925000D01*
X71575000Y-31925000D01*
X71575001Y-36958137D01*
X71566674Y-37000000D01*
X71599659Y-37165827D01*
X71693592Y-37306408D01*
X71834173Y-37400341D01*
X71958142Y-37425000D01*
X71958143Y-37425000D01*
X72000000Y-37433326D01*
X72041858Y-37425000D01*
X74575001Y-37425000D01*
X74575000Y-43575000D01*
X72041857Y-43575000D01*
X71999999Y-43566674D01*
X71958142Y-43575000D01*
X71834173Y-43599659D01*
X71693592Y-43693592D01*
X71669881Y-43729078D01*
X67729079Y-47669881D01*
X67693593Y-47693592D01*
X67669883Y-47729077D01*
X67669882Y-47729078D01*
X67599659Y-47834174D01*
X67566674Y-48000000D01*
X67575001Y-48041862D01*
X67575000Y-49575000D01*
X58925000Y-49575000D01*
X58925000Y-44641958D01*
X60700000Y-44641958D01*
X60700000Y-45358042D01*
X60974034Y-46019618D01*
X61480382Y-46525966D01*
X62141958Y-46800000D01*
X62858042Y-46800000D01*
X63519618Y-46525966D01*
X64025966Y-46019618D01*
X64300000Y-45358042D01*
X64300000Y-44641958D01*
X64025966Y-43980382D01*
X63519618Y-43474034D01*
X62858042Y-43200000D01*
X62141958Y-43200000D01*
X61480382Y-43474034D01*
X60974034Y-43980382D01*
X60700000Y-44641958D01*
X58925000Y-44641958D01*
X58925000Y-44041857D01*
X58933326Y-44000000D01*
X58900341Y-43834173D01*
X58806408Y-43693592D01*
X58665827Y-43599659D01*
X58541858Y-43575000D01*
X58541857Y-43575000D01*
X58500000Y-43566674D01*
X58458142Y-43575000D01*
X21541858Y-43575000D01*
X21500000Y-43566674D01*
X21458143Y-43575000D01*
X21458142Y-43575000D01*
X21334173Y-43599659D01*
X21193592Y-43693592D01*
X21099659Y-43834173D01*
X21066674Y-44000000D01*
X21075001Y-44041863D01*
X21075000Y-49575000D01*
X7427000Y-49575000D01*
X7427000Y-48031802D01*
X7433326Y-47999999D01*
X7427000Y-47968196D01*
X7427000Y-47957946D01*
X7402225Y-47833393D01*
X7307850Y-47692150D01*
X7263674Y-47662633D01*
X4242999Y-44641958D01*
X10700000Y-44641958D01*
X10700000Y-45358042D01*
X10974034Y-46019618D01*
X11480382Y-46525966D01*
X12141958Y-46800000D01*
X12858042Y-46800000D01*
X13519618Y-46525966D01*
X14025966Y-46019618D01*
X14300000Y-45358042D01*
X14300000Y-44641958D01*
X14025966Y-43980382D01*
X13519618Y-43474034D01*
X12858042Y-43200000D01*
X12141958Y-43200000D01*
X11480382Y-43474034D01*
X10974034Y-43980382D01*
X10700000Y-44641958D01*
X4242999Y-44641958D01*
X3337370Y-43736330D01*
X3307850Y-43692150D01*
X3166607Y-43597775D01*
X3042054Y-43573000D01*
X3031803Y-43573000D01*
X3000000Y-43566674D01*
X2968197Y-43573000D01*
X427000Y-43573000D01*
X427000Y-42981330D01*
X17884356Y-42981330D01*
X17884356Y-43259808D01*
X17990924Y-43517087D01*
X18187838Y-43714001D01*
X18445117Y-43820569D01*
X18723595Y-43820569D01*
X18980874Y-43714001D01*
X19177788Y-43517087D01*
X19284356Y-43259808D01*
X19284356Y-42981330D01*
X19177788Y-42724051D01*
X18980874Y-42527137D01*
X18723595Y-42420569D01*
X18445117Y-42420569D01*
X18187838Y-42527137D01*
X17990924Y-42724051D01*
X17884356Y-42981330D01*
X427000Y-42981330D01*
X427000Y-41002321D01*
X15017244Y-41002321D01*
X15017244Y-41241015D01*
X15108588Y-41461541D01*
X15277371Y-41630324D01*
X15497897Y-41721668D01*
X15736591Y-41721668D01*
X15835610Y-41680653D01*
X20500000Y-41680653D01*
X20500000Y-41919347D01*
X20591344Y-42139873D01*
X20760127Y-42308656D01*
X20980653Y-42400000D01*
X21219347Y-42400000D01*
X21439873Y-42308656D01*
X21487768Y-42260761D01*
X31395000Y-42260761D01*
X31395000Y-42539239D01*
X31501568Y-42796518D01*
X31698482Y-42993432D01*
X31955761Y-43100000D01*
X32234239Y-43100000D01*
X32491518Y-42993432D01*
X32688432Y-42796518D01*
X32786085Y-42560761D01*
X52800000Y-42560761D01*
X52800000Y-42839239D01*
X52906568Y-43096518D01*
X53103482Y-43293432D01*
X53360761Y-43400000D01*
X53639239Y-43400000D01*
X53896518Y-43293432D01*
X54093432Y-43096518D01*
X54200000Y-42839239D01*
X54200000Y-42560761D01*
X54093432Y-42303482D01*
X53896518Y-42106568D01*
X53639239Y-42000000D01*
X53360761Y-42000000D01*
X53103482Y-42106568D01*
X52906568Y-42303482D01*
X52800000Y-42560761D01*
X32786085Y-42560761D01*
X32795000Y-42539239D01*
X32795000Y-42260761D01*
X32688432Y-42003482D01*
X32491518Y-41806568D01*
X32234239Y-41700000D01*
X31955761Y-41700000D01*
X31698482Y-41806568D01*
X31501568Y-42003482D01*
X31395000Y-42260761D01*
X21487768Y-42260761D01*
X21608656Y-42139873D01*
X21700000Y-41919347D01*
X21700000Y-41680653D01*
X21608656Y-41460127D01*
X21439873Y-41291344D01*
X21219347Y-41200000D01*
X20980653Y-41200000D01*
X20760127Y-41291344D01*
X20591344Y-41460127D01*
X20500000Y-41680653D01*
X15835610Y-41680653D01*
X15957117Y-41630324D01*
X16125900Y-41461541D01*
X16217244Y-41241015D01*
X16217244Y-41002321D01*
X16200041Y-40960788D01*
X37786402Y-40960788D01*
X37786402Y-41199482D01*
X37877746Y-41420008D01*
X38046529Y-41588791D01*
X38267055Y-41680135D01*
X38505749Y-41680135D01*
X38684562Y-41606069D01*
X38684562Y-41836605D01*
X38775906Y-42057131D01*
X38944689Y-42225914D01*
X39165215Y-42317258D01*
X39403909Y-42317258D01*
X39624435Y-42225914D01*
X39793218Y-42057131D01*
X39884562Y-41836605D01*
X39884562Y-41597911D01*
X39793218Y-41377385D01*
X39624435Y-41208602D01*
X39473826Y-41146218D01*
X45932623Y-41146218D01*
X45932623Y-41384912D01*
X46023967Y-41605438D01*
X46192750Y-41774221D01*
X46413276Y-41865565D01*
X46651970Y-41865565D01*
X46872496Y-41774221D01*
X47041279Y-41605438D01*
X47132623Y-41384912D01*
X47132623Y-41146218D01*
X47041279Y-40925692D01*
X46872496Y-40756909D01*
X46651970Y-40665565D01*
X46413276Y-40665565D01*
X46192750Y-40756909D01*
X46023967Y-40925692D01*
X45932623Y-41146218D01*
X39473826Y-41146218D01*
X39403909Y-41117258D01*
X39165215Y-41117258D01*
X38986402Y-41191324D01*
X38986402Y-40960788D01*
X38895058Y-40740262D01*
X38726275Y-40571479D01*
X38505749Y-40480135D01*
X38267055Y-40480135D01*
X38046529Y-40571479D01*
X37877746Y-40740262D01*
X37786402Y-40960788D01*
X16200041Y-40960788D01*
X16125900Y-40781795D01*
X15957117Y-40613012D01*
X15736591Y-40521668D01*
X15497897Y-40521668D01*
X15277371Y-40613012D01*
X15108588Y-40781795D01*
X15017244Y-41002321D01*
X427000Y-41002321D01*
X427000Y-38867983D01*
X2464876Y-38867983D01*
X2464876Y-39146461D01*
X2571444Y-39403740D01*
X2768358Y-39600654D01*
X3025637Y-39707222D01*
X3304115Y-39707222D01*
X3561394Y-39600654D01*
X3667442Y-39494606D01*
X45626001Y-39494606D01*
X45626001Y-39733300D01*
X45717345Y-39953826D01*
X45886128Y-40122609D01*
X46106654Y-40213953D01*
X46345348Y-40213953D01*
X46565874Y-40122609D01*
X46734657Y-39953826D01*
X46826001Y-39733300D01*
X46826001Y-39494606D01*
X46737380Y-39280653D01*
X59300000Y-39280653D01*
X59300000Y-39519347D01*
X59391344Y-39739873D01*
X59560127Y-39908656D01*
X59780653Y-40000000D01*
X60019347Y-40000000D01*
X60239873Y-39908656D01*
X60251015Y-39897514D01*
X63020617Y-39897514D01*
X63020617Y-40175992D01*
X63127185Y-40433271D01*
X63324099Y-40630185D01*
X63581378Y-40736753D01*
X63859856Y-40736753D01*
X64117135Y-40630185D01*
X64314049Y-40433271D01*
X64420617Y-40175992D01*
X64420617Y-39897514D01*
X64314049Y-39640235D01*
X64117135Y-39443321D01*
X63859856Y-39336753D01*
X63581378Y-39336753D01*
X63324099Y-39443321D01*
X63127185Y-39640235D01*
X63020617Y-39897514D01*
X60251015Y-39897514D01*
X60408656Y-39739873D01*
X60500000Y-39519347D01*
X60500000Y-39280653D01*
X60408656Y-39060127D01*
X60239873Y-38891344D01*
X60019347Y-38800000D01*
X59780653Y-38800000D01*
X59560127Y-38891344D01*
X59391344Y-39060127D01*
X59300000Y-39280653D01*
X46737380Y-39280653D01*
X46734657Y-39274080D01*
X46565874Y-39105297D01*
X46345348Y-39013953D01*
X46106654Y-39013953D01*
X45886128Y-39105297D01*
X45717345Y-39274080D01*
X45626001Y-39494606D01*
X3667442Y-39494606D01*
X3758308Y-39403740D01*
X3864876Y-39146461D01*
X3864876Y-38867983D01*
X3758308Y-38610704D01*
X3561394Y-38413790D01*
X3304115Y-38307222D01*
X3025637Y-38307222D01*
X2768358Y-38413790D01*
X2571444Y-38610704D01*
X2464876Y-38867983D01*
X427000Y-38867983D01*
X427000Y-37374883D01*
X15212418Y-37374883D01*
X15212418Y-37653361D01*
X15318986Y-37910640D01*
X15515900Y-38107554D01*
X15773179Y-38214122D01*
X16051657Y-38214122D01*
X16308936Y-38107554D01*
X16505850Y-37910640D01*
X16612418Y-37653361D01*
X16612418Y-37374883D01*
X16565148Y-37260761D01*
X19100000Y-37260761D01*
X19100000Y-37539239D01*
X19206568Y-37796518D01*
X19403482Y-37993432D01*
X19660761Y-38100000D01*
X19939239Y-38100000D01*
X20196518Y-37993432D01*
X20393432Y-37796518D01*
X20500000Y-37539239D01*
X20500000Y-37260761D01*
X20496871Y-37253206D01*
X20905916Y-37253206D01*
X20905916Y-37531684D01*
X21012484Y-37788963D01*
X21209398Y-37985877D01*
X21466677Y-38092445D01*
X21745155Y-38092445D01*
X22002434Y-37985877D01*
X22199348Y-37788963D01*
X22305916Y-37531684D01*
X22305916Y-37253206D01*
X22301567Y-37242706D01*
X28003481Y-37242706D01*
X28003481Y-37481400D01*
X28094825Y-37701926D01*
X28263608Y-37870709D01*
X28465826Y-37954469D01*
X28399850Y-38020445D01*
X28308506Y-38240971D01*
X28308506Y-38479665D01*
X28399850Y-38700191D01*
X28568633Y-38868974D01*
X28789159Y-38960318D01*
X29027853Y-38960318D01*
X29248379Y-38868974D01*
X29417162Y-38700191D01*
X29508506Y-38479665D01*
X29508506Y-38240971D01*
X29444213Y-38085751D01*
X39336138Y-38085751D01*
X39336138Y-38364229D01*
X39442706Y-38621508D01*
X39639620Y-38818422D01*
X39896899Y-38924990D01*
X40175377Y-38924990D01*
X40432656Y-38818422D01*
X40629570Y-38621508D01*
X40736138Y-38364229D01*
X40736138Y-38085751D01*
X40629570Y-37828472D01*
X40432656Y-37631558D01*
X40175377Y-37524990D01*
X39896899Y-37524990D01*
X39639620Y-37631558D01*
X39442706Y-37828472D01*
X39336138Y-38085751D01*
X29444213Y-38085751D01*
X29417162Y-38020445D01*
X29248379Y-37851662D01*
X29046161Y-37767902D01*
X29112137Y-37701926D01*
X29203481Y-37481400D01*
X29203481Y-37242706D01*
X29112137Y-37022180D01*
X28943354Y-36853397D01*
X28722828Y-36762053D01*
X28484134Y-36762053D01*
X28263608Y-36853397D01*
X28094825Y-37022180D01*
X28003481Y-37242706D01*
X22301567Y-37242706D01*
X22199348Y-36995927D01*
X22002434Y-36799013D01*
X21745155Y-36692445D01*
X21466677Y-36692445D01*
X21209398Y-36799013D01*
X21012484Y-36995927D01*
X20905916Y-37253206D01*
X20496871Y-37253206D01*
X20393432Y-37003482D01*
X20196518Y-36806568D01*
X19939239Y-36700000D01*
X19660761Y-36700000D01*
X19403482Y-36806568D01*
X19206568Y-37003482D01*
X19100000Y-37260761D01*
X16565148Y-37260761D01*
X16505850Y-37117604D01*
X16308936Y-36920690D01*
X16051657Y-36814122D01*
X15773179Y-36814122D01*
X15515900Y-36920690D01*
X15318986Y-37117604D01*
X15212418Y-37374883D01*
X427000Y-37374883D01*
X427000Y-36680653D01*
X34400000Y-36680653D01*
X34400000Y-36919347D01*
X34491344Y-37139873D01*
X34660127Y-37308656D01*
X34880653Y-37400000D01*
X35119347Y-37400000D01*
X35339873Y-37308656D01*
X35508656Y-37139873D01*
X35600000Y-36919347D01*
X35600000Y-36680653D01*
X35508656Y-36460127D01*
X35339873Y-36291344D01*
X35119347Y-36200000D01*
X34880653Y-36200000D01*
X34660127Y-36291344D01*
X34491344Y-36460127D01*
X34400000Y-36680653D01*
X427000Y-36680653D01*
X427000Y-35780653D01*
X15000000Y-35780653D01*
X15000000Y-36019347D01*
X15091344Y-36239873D01*
X15260127Y-36408656D01*
X15480653Y-36500000D01*
X15719347Y-36500000D01*
X15939873Y-36408656D01*
X16108656Y-36239873D01*
X16200000Y-36019347D01*
X16200000Y-35780653D01*
X16108656Y-35560127D01*
X15978524Y-35429995D01*
X34535453Y-35429995D01*
X34535453Y-35668689D01*
X34626797Y-35889215D01*
X34795580Y-36057998D01*
X35016106Y-36149342D01*
X35254800Y-36149342D01*
X35475326Y-36057998D01*
X35644109Y-35889215D01*
X35735453Y-35668689D01*
X35735453Y-35429995D01*
X35644109Y-35209469D01*
X35475326Y-35040686D01*
X35254800Y-34949342D01*
X35016106Y-34949342D01*
X34795580Y-35040686D01*
X34626797Y-35209469D01*
X34535453Y-35429995D01*
X15978524Y-35429995D01*
X15939873Y-35391344D01*
X15719347Y-35300000D01*
X15480653Y-35300000D01*
X15260127Y-35391344D01*
X15091344Y-35560127D01*
X15000000Y-35780653D01*
X427000Y-35780653D01*
X427000Y-33280653D01*
X28000000Y-33280653D01*
X28000000Y-33519347D01*
X28091344Y-33739873D01*
X28260127Y-33908656D01*
X28480653Y-34000000D01*
X28719347Y-34000000D01*
X28939873Y-33908656D01*
X29108656Y-33739873D01*
X29200000Y-33519347D01*
X29200000Y-33280653D01*
X29108656Y-33060127D01*
X28939873Y-32891344D01*
X28719347Y-32800000D01*
X28480653Y-32800000D01*
X28260127Y-32891344D01*
X28091344Y-33060127D01*
X28000000Y-33280653D01*
X427000Y-33280653D01*
X427000Y-31880653D01*
X34600000Y-31880653D01*
X34600000Y-32119347D01*
X34691344Y-32339873D01*
X34860127Y-32508656D01*
X35080653Y-32600000D01*
X35319347Y-32600000D01*
X35539873Y-32508656D01*
X35708656Y-32339873D01*
X35800000Y-32119347D01*
X35800000Y-31980653D01*
X42700000Y-31980653D01*
X42700000Y-32219347D01*
X42791344Y-32439873D01*
X42960127Y-32608656D01*
X43180653Y-32700000D01*
X42960127Y-32791344D01*
X42791344Y-32960127D01*
X42700000Y-33180653D01*
X42700000Y-33419347D01*
X42791344Y-33639873D01*
X42960127Y-33808656D01*
X43126180Y-33877437D01*
X42971704Y-33941422D01*
X42802921Y-34110205D01*
X42711577Y-34330731D01*
X42711577Y-34569425D01*
X42802921Y-34789951D01*
X42971704Y-34958734D01*
X43057287Y-34994184D01*
X42891344Y-35160127D01*
X42800000Y-35380653D01*
X42800000Y-35619347D01*
X42891344Y-35839873D01*
X42951472Y-35900001D01*
X42891346Y-35960127D01*
X42800002Y-36180653D01*
X42800002Y-36419347D01*
X42891346Y-36639873D01*
X43060129Y-36808656D01*
X43280655Y-36900000D01*
X43519349Y-36900000D01*
X43566057Y-36880653D01*
X45700000Y-36880653D01*
X45700000Y-37119347D01*
X45791344Y-37339873D01*
X45960127Y-37508656D01*
X46180653Y-37600000D01*
X46419347Y-37600000D01*
X46466055Y-37580653D01*
X50100000Y-37580653D01*
X50100000Y-37819347D01*
X50191344Y-38039873D01*
X50360127Y-38208656D01*
X50580653Y-38300000D01*
X50819347Y-38300000D01*
X51039873Y-38208656D01*
X51208656Y-38039873D01*
X51300000Y-37819347D01*
X51300000Y-37580653D01*
X51208656Y-37360127D01*
X51085357Y-37236828D01*
X58069363Y-37236828D01*
X58069363Y-37475522D01*
X58160707Y-37696048D01*
X58329490Y-37864831D01*
X58550016Y-37956175D01*
X58788710Y-37956175D01*
X59009236Y-37864831D01*
X59178019Y-37696048D01*
X59269363Y-37475522D01*
X59269363Y-37321075D01*
X59580626Y-37321075D01*
X59580626Y-37599553D01*
X59687194Y-37856832D01*
X59884108Y-38053746D01*
X60141387Y-38160314D01*
X60419865Y-38160314D01*
X60677144Y-38053746D01*
X60874058Y-37856832D01*
X60980626Y-37599553D01*
X60980626Y-37321075D01*
X60874058Y-37063796D01*
X60677144Y-36866882D01*
X60419865Y-36760314D01*
X60141387Y-36760314D01*
X59884108Y-36866882D01*
X59687194Y-37063796D01*
X59580626Y-37321075D01*
X59269363Y-37321075D01*
X59269363Y-37236828D01*
X59178019Y-37016302D01*
X59009236Y-36847519D01*
X58788710Y-36756175D01*
X58550016Y-36756175D01*
X58329490Y-36847519D01*
X58160707Y-37016302D01*
X58069363Y-37236828D01*
X51085357Y-37236828D01*
X51039873Y-37191344D01*
X50819347Y-37100000D01*
X50580653Y-37100000D01*
X50360127Y-37191344D01*
X50191344Y-37360127D01*
X50100000Y-37580653D01*
X46466055Y-37580653D01*
X46639873Y-37508656D01*
X46808656Y-37339873D01*
X46900000Y-37119347D01*
X46900000Y-36880653D01*
X46808656Y-36660127D01*
X46639873Y-36491344D01*
X46419347Y-36400000D01*
X46180653Y-36400000D01*
X45960127Y-36491344D01*
X45791344Y-36660127D01*
X45700000Y-36880653D01*
X43566057Y-36880653D01*
X43739875Y-36808656D01*
X43908658Y-36639873D01*
X44000002Y-36419347D01*
X44000002Y-36180653D01*
X43908658Y-35960127D01*
X43848530Y-35899999D01*
X43908656Y-35839873D01*
X44000000Y-35619347D01*
X44000000Y-35480653D01*
X50100000Y-35480653D01*
X50100000Y-35719347D01*
X50191344Y-35939873D01*
X50360127Y-36108656D01*
X50580653Y-36200000D01*
X50819347Y-36200000D01*
X50995828Y-36126900D01*
X50995828Y-36141568D01*
X51087172Y-36362094D01*
X51255955Y-36530877D01*
X51476481Y-36622221D01*
X51715175Y-36622221D01*
X51935701Y-36530877D01*
X52104484Y-36362094D01*
X52195828Y-36141568D01*
X52195828Y-36005632D01*
X55100000Y-36005632D01*
X55100000Y-36244326D01*
X55191344Y-36464852D01*
X55360127Y-36633635D01*
X55580653Y-36724979D01*
X55819347Y-36724979D01*
X56039873Y-36633635D01*
X56208656Y-36464852D01*
X56300000Y-36244326D01*
X56300000Y-36005632D01*
X56208656Y-35785106D01*
X56039873Y-35616323D01*
X55819347Y-35524979D01*
X55580653Y-35524979D01*
X55360127Y-35616323D01*
X55191344Y-35785106D01*
X55100000Y-36005632D01*
X52195828Y-36005632D01*
X52195828Y-35902874D01*
X52104484Y-35682348D01*
X51935701Y-35513565D01*
X51715175Y-35422221D01*
X51476481Y-35422221D01*
X51300000Y-35495321D01*
X51300000Y-35480653D01*
X51208656Y-35260127D01*
X51039873Y-35091344D01*
X50819347Y-35000000D01*
X50580653Y-35000000D01*
X50360127Y-35091344D01*
X50191344Y-35260127D01*
X50100000Y-35480653D01*
X44000000Y-35480653D01*
X44000000Y-35380653D01*
X43908656Y-35160127D01*
X43739873Y-34991344D01*
X43654290Y-34955894D01*
X43820233Y-34789951D01*
X43911577Y-34569425D01*
X43911577Y-34330731D01*
X43820233Y-34110205D01*
X43742319Y-34032291D01*
X51015929Y-34032291D01*
X51015929Y-34270985D01*
X51107273Y-34491511D01*
X51276056Y-34660294D01*
X51496582Y-34751638D01*
X51735276Y-34751638D01*
X51955802Y-34660294D01*
X52124585Y-34491511D01*
X52139450Y-34455621D01*
X54855013Y-34455621D01*
X54855013Y-34694315D01*
X54946357Y-34914841D01*
X55115140Y-35083624D01*
X55335666Y-35174968D01*
X55574360Y-35174968D01*
X55794886Y-35083624D01*
X55963669Y-34914841D01*
X56055013Y-34694315D01*
X56055013Y-34455621D01*
X55963669Y-34235095D01*
X55794886Y-34066312D01*
X55574360Y-33974968D01*
X55335666Y-33974968D01*
X55115140Y-34066312D01*
X54946357Y-34235095D01*
X54855013Y-34455621D01*
X52139450Y-34455621D01*
X52215929Y-34270985D01*
X52215929Y-34032291D01*
X52124585Y-33811765D01*
X51955802Y-33642982D01*
X51735276Y-33551638D01*
X51496582Y-33551638D01*
X51276056Y-33642982D01*
X51107273Y-33811765D01*
X51015929Y-34032291D01*
X43742319Y-34032291D01*
X43651450Y-33941422D01*
X43485397Y-33872641D01*
X43639873Y-33808656D01*
X43808656Y-33639873D01*
X43900000Y-33419347D01*
X43900000Y-33180653D01*
X43808656Y-32960127D01*
X43639873Y-32791344D01*
X43419347Y-32700000D01*
X43639873Y-32608656D01*
X43808656Y-32439873D01*
X43900000Y-32219347D01*
X43900000Y-31980653D01*
X43808656Y-31760127D01*
X43639873Y-31591344D01*
X43419347Y-31500000D01*
X43180653Y-31500000D01*
X42960127Y-31591344D01*
X42791344Y-31760127D01*
X42700000Y-31980653D01*
X35800000Y-31980653D01*
X35800000Y-31880653D01*
X35708656Y-31660127D01*
X35539873Y-31491344D01*
X35319347Y-31400000D01*
X35080653Y-31400000D01*
X34860127Y-31491344D01*
X34691344Y-31660127D01*
X34600000Y-31880653D01*
X427000Y-31880653D01*
X427000Y-30960761D01*
X18900000Y-30960761D01*
X18900000Y-31239239D01*
X19006568Y-31496518D01*
X19203482Y-31693432D01*
X19460761Y-31800000D01*
X19739239Y-31800000D01*
X19996518Y-31693432D01*
X20193432Y-31496518D01*
X20300000Y-31239239D01*
X20300000Y-30960761D01*
X20225398Y-30780653D01*
X35300000Y-30780653D01*
X35300000Y-31019347D01*
X35391344Y-31239873D01*
X35560127Y-31408656D01*
X35780653Y-31500000D01*
X36019347Y-31500000D01*
X36066074Y-31480645D01*
X54775010Y-31480645D01*
X54775010Y-31719339D01*
X54866354Y-31939865D01*
X55035137Y-32108648D01*
X55255663Y-32199992D01*
X55494357Y-32199992D01*
X55714883Y-32108648D01*
X55883666Y-31939865D01*
X55975010Y-31719339D01*
X55975010Y-31480645D01*
X55883666Y-31260119D01*
X55714883Y-31091336D01*
X55494357Y-30999992D01*
X55255663Y-30999992D01*
X55035137Y-31091336D01*
X54866354Y-31260119D01*
X54775010Y-31480645D01*
X36066074Y-31480645D01*
X36239873Y-31408656D01*
X36408656Y-31239873D01*
X36500000Y-31019347D01*
X36500000Y-30780653D01*
X36458580Y-30680653D01*
X42700000Y-30680653D01*
X42700000Y-30919347D01*
X42791344Y-31139873D01*
X42960127Y-31308656D01*
X43180653Y-31400000D01*
X43419347Y-31400000D01*
X43639873Y-31308656D01*
X43808656Y-31139873D01*
X43900000Y-30919347D01*
X43900000Y-30680653D01*
X43808656Y-30460127D01*
X43639873Y-30291344D01*
X43419347Y-30200000D01*
X43180653Y-30200000D01*
X42960127Y-30291344D01*
X42791344Y-30460127D01*
X42700000Y-30680653D01*
X36458580Y-30680653D01*
X36408656Y-30560127D01*
X36239873Y-30391344D01*
X36019347Y-30300000D01*
X35780653Y-30300000D01*
X35560127Y-30391344D01*
X35391344Y-30560127D01*
X35300000Y-30780653D01*
X20225398Y-30780653D01*
X20193432Y-30703482D01*
X19996518Y-30506568D01*
X19739239Y-30400000D01*
X19460761Y-30400000D01*
X19203482Y-30506568D01*
X19006568Y-30703482D01*
X18900000Y-30960761D01*
X427000Y-30960761D01*
X427000Y-29939540D01*
X15233149Y-29939540D01*
X15233149Y-30218018D01*
X15339717Y-30475297D01*
X15536631Y-30672211D01*
X15793910Y-30778779D01*
X16072388Y-30778779D01*
X16329667Y-30672211D01*
X16526581Y-30475297D01*
X16633149Y-30218018D01*
X16633149Y-29939540D01*
X16526581Y-29682261D01*
X16329667Y-29485347D01*
X16072388Y-29378779D01*
X15793910Y-29378779D01*
X15536631Y-29485347D01*
X15339717Y-29682261D01*
X15233149Y-29939540D01*
X427000Y-29939540D01*
X427000Y-29230041D01*
X21949388Y-29230041D01*
X21949388Y-29468735D01*
X22040732Y-29689261D01*
X22209515Y-29858044D01*
X22430041Y-29949388D01*
X22500000Y-29949388D01*
X22500000Y-30043735D01*
X22591344Y-30264261D01*
X22760127Y-30433044D01*
X22980653Y-30524388D01*
X23219347Y-30524388D01*
X23439873Y-30433044D01*
X23608656Y-30264261D01*
X23700000Y-30043735D01*
X23700000Y-29805041D01*
X23608656Y-29584515D01*
X23439873Y-29415732D01*
X23219347Y-29324388D01*
X23149388Y-29324388D01*
X23149388Y-29230041D01*
X23058044Y-29009515D01*
X22889261Y-28840732D01*
X22668735Y-28749388D01*
X22430041Y-28749388D01*
X22209515Y-28840732D01*
X22040732Y-29009515D01*
X21949388Y-29230041D01*
X427000Y-29230041D01*
X427000Y-28360761D01*
X2500000Y-28360761D01*
X2500000Y-28639239D01*
X2606568Y-28896518D01*
X2803482Y-29093432D01*
X3060761Y-29200000D01*
X3339239Y-29200000D01*
X3596518Y-29093432D01*
X3793432Y-28896518D01*
X3882845Y-28680653D01*
X26724990Y-28680653D01*
X26724990Y-28919347D01*
X26816334Y-29139873D01*
X26971918Y-29295457D01*
X26816334Y-29451041D01*
X26724990Y-29671567D01*
X26724990Y-29910261D01*
X26816334Y-30130787D01*
X26985117Y-30299570D01*
X27205643Y-30390914D01*
X27444337Y-30390914D01*
X27664863Y-30299570D01*
X27833646Y-30130787D01*
X27924990Y-29910261D01*
X27924990Y-29680653D01*
X38700000Y-29680653D01*
X38700000Y-29919347D01*
X38791344Y-30139873D01*
X38960127Y-30308656D01*
X39180653Y-30400000D01*
X39419347Y-30400000D01*
X39639873Y-30308656D01*
X39808656Y-30139873D01*
X39900000Y-29919347D01*
X39900000Y-29680653D01*
X39808656Y-29460127D01*
X39639873Y-29291344D01*
X39419347Y-29200000D01*
X39180653Y-29200000D01*
X38960127Y-29291344D01*
X38791344Y-29460127D01*
X38700000Y-29680653D01*
X27924990Y-29680653D01*
X27924990Y-29671567D01*
X27833646Y-29451041D01*
X27678062Y-29295457D01*
X27833646Y-29139873D01*
X27847824Y-29105643D01*
X42693406Y-29105643D01*
X42693406Y-29344337D01*
X42784750Y-29564863D01*
X42953533Y-29733646D01*
X43174059Y-29824990D01*
X43412753Y-29824990D01*
X43633279Y-29733646D01*
X43802062Y-29564863D01*
X43872589Y-29394594D01*
X43891344Y-29439873D01*
X44060127Y-29608656D01*
X44280653Y-29700000D01*
X44519347Y-29700000D01*
X44739873Y-29608656D01*
X44887768Y-29460761D01*
X55500000Y-29460761D01*
X55500000Y-29739239D01*
X55606568Y-29996518D01*
X55803482Y-30193432D01*
X56060761Y-30300000D01*
X56339239Y-30300000D01*
X56596518Y-30193432D01*
X56793432Y-29996518D01*
X56900000Y-29739239D01*
X56900000Y-29460761D01*
X61600000Y-29460761D01*
X61600000Y-29739239D01*
X61706568Y-29996518D01*
X61903482Y-30193432D01*
X62160761Y-30300000D01*
X62439239Y-30300000D01*
X62696518Y-30193432D01*
X62893432Y-29996518D01*
X63000000Y-29739239D01*
X63000000Y-29460761D01*
X62893432Y-29203482D01*
X62696518Y-29006568D01*
X62439239Y-28900000D01*
X62160761Y-28900000D01*
X61903482Y-29006568D01*
X61706568Y-29203482D01*
X61600000Y-29460761D01*
X56900000Y-29460761D01*
X56793432Y-29203482D01*
X56596518Y-29006568D01*
X56339239Y-28900000D01*
X56060761Y-28900000D01*
X55803482Y-29006568D01*
X55606568Y-29203482D01*
X55500000Y-29460761D01*
X44887768Y-29460761D01*
X44908656Y-29439873D01*
X45000000Y-29219347D01*
X45000000Y-28980653D01*
X44908656Y-28760127D01*
X44739873Y-28591344D01*
X44519347Y-28500000D01*
X44280653Y-28500000D01*
X44060127Y-28591344D01*
X43891344Y-28760127D01*
X43820817Y-28930396D01*
X43802062Y-28885117D01*
X43682738Y-28765793D01*
X43808656Y-28639875D01*
X43900000Y-28419349D01*
X43900000Y-28180655D01*
X43808656Y-27960129D01*
X43639873Y-27791346D01*
X43419347Y-27700002D01*
X43180653Y-27700002D01*
X42960127Y-27791346D01*
X42791344Y-27960129D01*
X42700000Y-28180655D01*
X42700000Y-28419349D01*
X42791344Y-28639875D01*
X42910668Y-28759199D01*
X42784750Y-28885117D01*
X42693406Y-29105643D01*
X27847824Y-29105643D01*
X27924990Y-28919347D01*
X27924990Y-28680653D01*
X27833646Y-28460127D01*
X27664863Y-28291344D01*
X27444337Y-28200000D01*
X27205643Y-28200000D01*
X26985117Y-28291344D01*
X26816334Y-28460127D01*
X26724990Y-28680653D01*
X3882845Y-28680653D01*
X3900000Y-28639239D01*
X3900000Y-28360761D01*
X3793432Y-28103482D01*
X3596518Y-27906568D01*
X3339239Y-27800000D01*
X3060761Y-27800000D01*
X2803482Y-27906568D01*
X2606568Y-28103482D01*
X2500000Y-28360761D01*
X427000Y-28360761D01*
X427000Y-26825761D01*
X42535000Y-26825761D01*
X42535000Y-27104239D01*
X42641568Y-27361518D01*
X42838482Y-27558432D01*
X43095761Y-27665000D01*
X43374239Y-27665000D01*
X43631518Y-27558432D01*
X43828432Y-27361518D01*
X43935000Y-27104239D01*
X43935000Y-26825761D01*
X43828432Y-26568482D01*
X43631518Y-26371568D01*
X43374239Y-26265000D01*
X43095761Y-26265000D01*
X42838482Y-26371568D01*
X42641568Y-26568482D01*
X42535000Y-26825761D01*
X427000Y-26825761D01*
X427000Y-25733666D01*
X44059712Y-25733666D01*
X44059712Y-26012144D01*
X44166280Y-26269423D01*
X44363194Y-26466337D01*
X44620473Y-26572905D01*
X44898951Y-26572905D01*
X45156230Y-26466337D01*
X45353144Y-26269423D01*
X45459712Y-26012144D01*
X45459712Y-25733666D01*
X45353144Y-25476387D01*
X45156230Y-25279473D01*
X44898951Y-25172905D01*
X44620473Y-25172905D01*
X44363194Y-25279473D01*
X44166280Y-25476387D01*
X44059712Y-25733666D01*
X427000Y-25733666D01*
X427000Y-23960761D01*
X1700000Y-23960761D01*
X1700000Y-24239239D01*
X1806568Y-24496518D01*
X2003482Y-24693432D01*
X2260761Y-24800000D01*
X2539239Y-24800000D01*
X2796518Y-24693432D01*
X2993432Y-24496518D01*
X3000002Y-24480655D01*
X50500000Y-24480655D01*
X50500000Y-24719349D01*
X50591344Y-24939875D01*
X50760127Y-25108658D01*
X50980653Y-25200002D01*
X51219347Y-25200002D01*
X51439873Y-25108658D01*
X51608656Y-24939875D01*
X51700000Y-24719349D01*
X51700000Y-24480655D01*
X51700000Y-24480653D01*
X52700000Y-24480653D01*
X52700000Y-24719347D01*
X52791344Y-24939873D01*
X52960127Y-25108656D01*
X53180653Y-25200000D01*
X53419347Y-25200000D01*
X53639873Y-25108656D01*
X53808656Y-24939873D01*
X53900000Y-24719347D01*
X53900000Y-24480653D01*
X53808656Y-24260127D01*
X53729182Y-24180653D01*
X54200000Y-24180653D01*
X54200000Y-24419347D01*
X54291344Y-24639873D01*
X54460127Y-24808656D01*
X54680653Y-24900000D01*
X54919347Y-24900000D01*
X55139873Y-24808656D01*
X55308656Y-24639873D01*
X55400000Y-24419347D01*
X55400000Y-24180653D01*
X55308656Y-23960127D01*
X55139873Y-23791344D01*
X54919347Y-23700000D01*
X54680653Y-23700000D01*
X54460127Y-23791344D01*
X54291344Y-23960127D01*
X54200000Y-24180653D01*
X53729182Y-24180653D01*
X53639873Y-24091344D01*
X53419347Y-24000000D01*
X53180653Y-24000000D01*
X52960127Y-24091344D01*
X52791344Y-24260127D01*
X52700000Y-24480653D01*
X51700000Y-24480653D01*
X51608656Y-24260129D01*
X51439873Y-24091346D01*
X51219347Y-24000002D01*
X50980653Y-24000002D01*
X50760127Y-24091346D01*
X50591344Y-24260129D01*
X50500000Y-24480655D01*
X3000002Y-24480655D01*
X3100000Y-24239239D01*
X3100000Y-23960761D01*
X2993432Y-23703482D01*
X2796518Y-23506568D01*
X2539239Y-23400000D01*
X2260761Y-23400000D01*
X2003482Y-23506568D01*
X1806568Y-23703482D01*
X1700000Y-23960761D01*
X427000Y-23960761D01*
X427000Y-23180653D01*
X51000000Y-23180653D01*
X51000000Y-23419347D01*
X51091344Y-23639873D01*
X51260127Y-23808656D01*
X51480653Y-23900000D01*
X51719347Y-23900000D01*
X51939873Y-23808656D01*
X52108656Y-23639873D01*
X52200000Y-23419347D01*
X52200000Y-23180653D01*
X52108656Y-22960127D01*
X51939873Y-22791344D01*
X51719347Y-22700000D01*
X51480653Y-22700000D01*
X51260127Y-22791344D01*
X51091344Y-22960127D01*
X51000000Y-23180653D01*
X427000Y-23180653D01*
X427000Y-20480653D01*
X28300002Y-20480653D01*
X28300002Y-20719347D01*
X28391346Y-20939873D01*
X28560129Y-21108656D01*
X28780655Y-21200000D01*
X29019231Y-21200000D01*
X28972784Y-21312134D01*
X28972784Y-21550828D01*
X29064128Y-21771354D01*
X29232911Y-21940137D01*
X29453437Y-22031481D01*
X29692131Y-22031481D01*
X29885559Y-21951361D01*
X40606592Y-21951361D01*
X40606592Y-22190055D01*
X40697936Y-22410581D01*
X40866719Y-22579364D01*
X41087245Y-22670708D01*
X41325939Y-22670708D01*
X41546465Y-22579364D01*
X41715248Y-22410581D01*
X41806592Y-22190055D01*
X41806592Y-21951361D01*
X41777304Y-21880651D01*
X52600000Y-21880651D01*
X52600000Y-22119345D01*
X52691344Y-22339871D01*
X52860127Y-22508654D01*
X53080653Y-22599998D01*
X53319347Y-22599998D01*
X53539873Y-22508654D01*
X53708656Y-22339871D01*
X53800000Y-22119345D01*
X53800000Y-21880651D01*
X53708656Y-21660125D01*
X53659292Y-21610761D01*
X61600000Y-21610761D01*
X61600000Y-21889239D01*
X61706568Y-22146518D01*
X61903482Y-22343432D01*
X62160761Y-22450000D01*
X62439239Y-22450000D01*
X62696518Y-22343432D01*
X62893432Y-22146518D01*
X63000000Y-21889239D01*
X63000000Y-21610761D01*
X62893432Y-21353482D01*
X62696518Y-21156568D01*
X62439239Y-21050000D01*
X62160761Y-21050000D01*
X61903482Y-21156568D01*
X61706568Y-21353482D01*
X61600000Y-21610761D01*
X53659292Y-21610761D01*
X53539873Y-21491342D01*
X53319347Y-21399998D01*
X53080653Y-21399998D01*
X52860127Y-21491342D01*
X52691344Y-21660125D01*
X52600000Y-21880651D01*
X41777304Y-21880651D01*
X41715248Y-21730835D01*
X41546465Y-21562052D01*
X41325939Y-21470708D01*
X41087245Y-21470708D01*
X40866719Y-21562052D01*
X40697936Y-21730835D01*
X40606592Y-21951361D01*
X29885559Y-21951361D01*
X29912657Y-21940137D01*
X30081440Y-21771354D01*
X30172784Y-21550828D01*
X30172784Y-21312134D01*
X30081440Y-21091608D01*
X29970485Y-20980653D01*
X34900000Y-20980653D01*
X34900000Y-21219347D01*
X34991344Y-21439873D01*
X35160127Y-21608656D01*
X35380653Y-21700000D01*
X35619347Y-21700000D01*
X35839873Y-21608656D01*
X36008656Y-21439873D01*
X36100000Y-21219347D01*
X36100000Y-20980653D01*
X36008656Y-20760127D01*
X35839873Y-20591344D01*
X35619347Y-20500000D01*
X35380653Y-20500000D01*
X35160127Y-20591344D01*
X34991344Y-20760127D01*
X34900000Y-20980653D01*
X29970485Y-20980653D01*
X29912657Y-20922825D01*
X29692131Y-20831481D01*
X29453555Y-20831481D01*
X29500002Y-20719347D01*
X29500002Y-20480653D01*
X29417161Y-20280653D01*
X36600000Y-20280653D01*
X36600000Y-20519347D01*
X36691344Y-20739873D01*
X36860127Y-20908656D01*
X37080653Y-21000000D01*
X37319347Y-21000000D01*
X37539873Y-20908656D01*
X37708656Y-20739873D01*
X37800000Y-20519347D01*
X37800000Y-20280653D01*
X37708656Y-20060127D01*
X37539873Y-19891344D01*
X37319347Y-19800000D01*
X37080653Y-19800000D01*
X36860127Y-19891344D01*
X36691344Y-20060127D01*
X36600000Y-20280653D01*
X29417161Y-20280653D01*
X29408658Y-20260127D01*
X29239875Y-20091344D01*
X29019349Y-20000000D01*
X28780655Y-20000000D01*
X28560129Y-20091344D01*
X28391346Y-20260127D01*
X28300002Y-20480653D01*
X427000Y-20480653D01*
X427000Y-18471251D01*
X41450000Y-18471251D01*
X41450000Y-18928749D01*
X41625077Y-19351423D01*
X41948577Y-19674923D01*
X42009118Y-19700000D01*
X41948577Y-19725077D01*
X41625077Y-20048577D01*
X41450000Y-20471251D01*
X41450000Y-20928749D01*
X41625077Y-21351423D01*
X41948577Y-21674923D01*
X42371251Y-21850000D01*
X42828749Y-21850000D01*
X43251423Y-21674923D01*
X43574923Y-21351423D01*
X43750000Y-20928749D01*
X43750000Y-20471251D01*
X43574923Y-20048577D01*
X43251423Y-19725077D01*
X43190882Y-19700000D01*
X43251423Y-19674923D01*
X43574923Y-19351423D01*
X43750000Y-18928749D01*
X43750000Y-18471251D01*
X45550000Y-18471251D01*
X45550000Y-18928749D01*
X45725077Y-19351423D01*
X46048577Y-19674923D01*
X46109118Y-19700000D01*
X46048577Y-19725077D01*
X45725077Y-20048577D01*
X45550000Y-20471251D01*
X45550000Y-20928749D01*
X45725077Y-21351423D01*
X46048577Y-21674923D01*
X46471251Y-21850000D01*
X46928749Y-21850000D01*
X47351423Y-21674923D01*
X47674923Y-21351423D01*
X47787079Y-21080653D01*
X51300000Y-21080653D01*
X51300000Y-21319347D01*
X51391344Y-21539873D01*
X51560127Y-21708656D01*
X51780653Y-21800000D01*
X52019347Y-21800000D01*
X52239873Y-21708656D01*
X52408656Y-21539873D01*
X52500000Y-21319347D01*
X52500000Y-21080653D01*
X52408656Y-20860127D01*
X52239873Y-20691344D01*
X52019347Y-20600000D01*
X51780653Y-20600000D01*
X51560127Y-20691344D01*
X51391344Y-20860127D01*
X51300000Y-21080653D01*
X47787079Y-21080653D01*
X47850000Y-20928749D01*
X47850000Y-20471251D01*
X47674923Y-20048577D01*
X47351423Y-19725077D01*
X47290882Y-19700000D01*
X47351423Y-19674923D01*
X47674923Y-19351423D01*
X47850000Y-18928749D01*
X47850000Y-18471251D01*
X47674923Y-18048577D01*
X47351423Y-17725077D01*
X46928749Y-17550000D01*
X46471251Y-17550000D01*
X46048577Y-17725077D01*
X45725077Y-18048577D01*
X45550000Y-18471251D01*
X43750000Y-18471251D01*
X43574923Y-18048577D01*
X43251423Y-17725077D01*
X42828749Y-17550000D01*
X42371251Y-17550000D01*
X41948577Y-17725077D01*
X41625077Y-18048577D01*
X41450000Y-18471251D01*
X427000Y-18471251D01*
X427000Y-17180653D01*
X8300000Y-17180653D01*
X8300000Y-17419347D01*
X8391344Y-17639873D01*
X8560127Y-17808656D01*
X8780653Y-17900000D01*
X9019347Y-17900000D01*
X9239873Y-17808656D01*
X9408656Y-17639873D01*
X9500000Y-17419347D01*
X9500000Y-17180653D01*
X9458580Y-17080653D01*
X10000000Y-17080653D01*
X10000000Y-17319347D01*
X10091344Y-17539873D01*
X10260127Y-17708656D01*
X10480653Y-17800000D01*
X10719347Y-17800000D01*
X10939873Y-17708656D01*
X11108656Y-17539873D01*
X11200000Y-17319347D01*
X11200000Y-17080653D01*
X11108656Y-16860127D01*
X10939873Y-16691344D01*
X10915374Y-16681196D01*
X58700000Y-16681196D01*
X58700000Y-17118804D01*
X58867465Y-17523100D01*
X59176900Y-17832535D01*
X59581196Y-18000000D01*
X60018804Y-18000000D01*
X60423100Y-17832535D01*
X60732535Y-17523100D01*
X60900000Y-17118804D01*
X60900000Y-16681196D01*
X60732535Y-16276900D01*
X60423100Y-15967465D01*
X60018804Y-15800000D01*
X59581196Y-15800000D01*
X59176900Y-15967465D01*
X58867465Y-16276900D01*
X58700000Y-16681196D01*
X10915374Y-16681196D01*
X10719347Y-16600000D01*
X10480653Y-16600000D01*
X10260127Y-16691344D01*
X10091344Y-16860127D01*
X10000000Y-17080653D01*
X9458580Y-17080653D01*
X9408656Y-16960127D01*
X9239873Y-16791344D01*
X9019347Y-16700000D01*
X8780653Y-16700000D01*
X8560127Y-16791344D01*
X8391344Y-16960127D01*
X8300000Y-17180653D01*
X427000Y-17180653D01*
X427000Y-15833456D01*
X41872695Y-15833456D01*
X41872695Y-16111934D01*
X41979263Y-16369213D01*
X42176177Y-16566127D01*
X42433456Y-16672695D01*
X42711934Y-16672695D01*
X42969213Y-16566127D01*
X43166127Y-16369213D01*
X43272695Y-16111934D01*
X43272695Y-15833456D01*
X43166127Y-15576177D01*
X42969213Y-15379263D01*
X42711934Y-15272695D01*
X42433456Y-15272695D01*
X42176177Y-15379263D01*
X41979263Y-15576177D01*
X41872695Y-15833456D01*
X427000Y-15833456D01*
X427000Y-14680653D01*
X4300000Y-14680653D01*
X4300000Y-14919347D01*
X4391344Y-15139873D01*
X4560127Y-15308656D01*
X4780653Y-15400000D01*
X5019347Y-15400000D01*
X5239873Y-15308656D01*
X5408656Y-15139873D01*
X5433185Y-15080653D01*
X22300000Y-15080653D01*
X22300000Y-15319347D01*
X22391344Y-15539873D01*
X22560127Y-15708656D01*
X22780653Y-15800000D01*
X23019347Y-15800000D01*
X23239873Y-15708656D01*
X23408656Y-15539873D01*
X23500000Y-15319347D01*
X23500000Y-15080653D01*
X28300000Y-15080653D01*
X28300000Y-15319347D01*
X28391344Y-15539873D01*
X28560127Y-15708656D01*
X28780653Y-15800000D01*
X29019347Y-15800000D01*
X29239873Y-15708656D01*
X29408656Y-15539873D01*
X29500000Y-15319347D01*
X29500000Y-15300000D01*
X29719347Y-15300000D01*
X29939873Y-15208656D01*
X30108656Y-15039873D01*
X30200000Y-14819347D01*
X30200000Y-14580653D01*
X30108656Y-14360127D01*
X29939873Y-14191344D01*
X29719347Y-14100000D01*
X29480653Y-14100000D01*
X29260127Y-14191344D01*
X29091344Y-14360127D01*
X29000000Y-14580653D01*
X29000000Y-14600000D01*
X28780653Y-14600000D01*
X28560127Y-14691344D01*
X28391344Y-14860127D01*
X28300000Y-15080653D01*
X23500000Y-15080653D01*
X23408656Y-14860127D01*
X23239873Y-14691344D01*
X23019347Y-14600000D01*
X22780653Y-14600000D01*
X22560127Y-14691344D01*
X22391344Y-14860127D01*
X22300000Y-15080653D01*
X5433185Y-15080653D01*
X5500000Y-14919347D01*
X5500000Y-14680653D01*
X5408656Y-14460127D01*
X5239873Y-14291344D01*
X5019347Y-14200000D01*
X4780653Y-14200000D01*
X4560127Y-14291344D01*
X4391344Y-14460127D01*
X4300000Y-14680653D01*
X427000Y-14680653D01*
X427000Y-12395775D01*
X7070405Y-12395775D01*
X7070405Y-12674253D01*
X7176973Y-12931532D01*
X7373887Y-13128446D01*
X7631166Y-13235014D01*
X7696121Y-13235014D01*
X7560127Y-13291344D01*
X7391344Y-13460127D01*
X7300000Y-13680653D01*
X7300000Y-13919347D01*
X7391344Y-14139873D01*
X7560127Y-14308656D01*
X7780653Y-14400000D01*
X8019347Y-14400000D01*
X8239873Y-14308656D01*
X8408656Y-14139873D01*
X8500000Y-13919347D01*
X8500000Y-13680653D01*
X9400004Y-13680653D01*
X9400004Y-13919347D01*
X9491348Y-14139873D01*
X9660131Y-14308656D01*
X9880657Y-14400000D01*
X10119351Y-14400000D01*
X10339877Y-14308656D01*
X10508660Y-14139873D01*
X10600004Y-13919347D01*
X10600004Y-13680653D01*
X10508660Y-13460127D01*
X10339877Y-13291344D01*
X10119351Y-13200000D01*
X9880657Y-13200000D01*
X9660131Y-13291344D01*
X9491348Y-13460127D01*
X9400004Y-13680653D01*
X8500000Y-13680653D01*
X8408656Y-13460127D01*
X8239873Y-13291344D01*
X8019347Y-13200000D01*
X7994176Y-13200000D01*
X8166923Y-13128446D01*
X8363837Y-12931532D01*
X8470405Y-12674253D01*
X8470405Y-12617210D01*
X18211096Y-12617210D01*
X18211096Y-12895688D01*
X18317664Y-13152967D01*
X18514578Y-13349881D01*
X18562385Y-13369683D01*
X18510091Y-13391344D01*
X18341308Y-13560127D01*
X18249964Y-13780653D01*
X18249964Y-14019347D01*
X18341308Y-14239873D01*
X18510091Y-14408656D01*
X18730617Y-14500000D01*
X18969311Y-14500000D01*
X19189837Y-14408656D01*
X19358620Y-14239873D01*
X19449964Y-14019347D01*
X19449964Y-13780653D01*
X19358620Y-13560127D01*
X19195014Y-13396521D01*
X19307614Y-13349881D01*
X19504528Y-13152967D01*
X19542720Y-13060761D01*
X22200000Y-13060761D01*
X22200000Y-13339239D01*
X22306568Y-13596518D01*
X22503482Y-13793432D01*
X22760761Y-13900000D01*
X23039239Y-13900000D01*
X23296518Y-13793432D01*
X23493432Y-13596518D01*
X23600000Y-13339239D01*
X23600000Y-13260761D01*
X56200000Y-13260761D01*
X56200000Y-13539239D01*
X56306568Y-13796518D01*
X56503482Y-13993432D01*
X56760761Y-14100000D01*
X57039239Y-14100000D01*
X57296518Y-13993432D01*
X57493432Y-13796518D01*
X57574832Y-13600000D01*
X58694123Y-13600000D01*
X58694123Y-15200000D01*
X58717407Y-15317054D01*
X58783712Y-15416288D01*
X58882946Y-15482593D01*
X59000000Y-15505877D01*
X60600000Y-15505877D01*
X60717054Y-15482593D01*
X60816288Y-15416288D01*
X60882593Y-15317054D01*
X60905877Y-15200000D01*
X60905877Y-13730923D01*
X64850000Y-13730923D01*
X64850000Y-14069073D01*
X64979405Y-14381484D01*
X65218514Y-14620593D01*
X65530925Y-14749998D01*
X65869075Y-14749998D01*
X66181486Y-14620593D01*
X66420595Y-14381484D01*
X66550000Y-14069073D01*
X66550000Y-13730923D01*
X66420595Y-13418512D01*
X66181486Y-13179403D01*
X65869075Y-13049998D01*
X65530925Y-13049998D01*
X65218514Y-13179403D01*
X64979405Y-13418512D01*
X64850000Y-13730923D01*
X60905877Y-13730923D01*
X60905877Y-13600000D01*
X60882593Y-13482946D01*
X60816288Y-13383712D01*
X60717054Y-13317407D01*
X60600000Y-13294123D01*
X59000000Y-13294123D01*
X58882946Y-13317407D01*
X58783712Y-13383712D01*
X58717407Y-13482946D01*
X58694123Y-13600000D01*
X57574832Y-13600000D01*
X57600000Y-13539239D01*
X57600000Y-13260761D01*
X57493432Y-13003482D01*
X57296518Y-12806568D01*
X57039239Y-12700000D01*
X56760761Y-12700000D01*
X56503482Y-12806568D01*
X56306568Y-13003482D01*
X56200000Y-13260761D01*
X23600000Y-13260761D01*
X23600000Y-13060761D01*
X23493432Y-12803482D01*
X23296518Y-12606568D01*
X23039239Y-12500000D01*
X22760761Y-12500000D01*
X22503482Y-12606568D01*
X22306568Y-12803482D01*
X22200000Y-13060761D01*
X19542720Y-13060761D01*
X19611096Y-12895688D01*
X19611096Y-12617210D01*
X19504528Y-12359931D01*
X19307614Y-12163017D01*
X19050335Y-12056449D01*
X18771857Y-12056449D01*
X18514578Y-12163017D01*
X18317664Y-12359931D01*
X18211096Y-12617210D01*
X8470405Y-12617210D01*
X8470405Y-12395775D01*
X8363837Y-12138496D01*
X8166923Y-11941582D01*
X7909644Y-11835014D01*
X7631166Y-11835014D01*
X7373887Y-11941582D01*
X7176973Y-12138496D01*
X7070405Y-12395775D01*
X427000Y-12395775D01*
X427000Y-11180653D01*
X24900000Y-11180653D01*
X24900000Y-11419347D01*
X24991344Y-11639873D01*
X25160127Y-11808656D01*
X25380653Y-11900000D01*
X25619347Y-11900000D01*
X25839873Y-11808656D01*
X26008656Y-11639873D01*
X26100000Y-11419347D01*
X26100000Y-11230021D01*
X27059599Y-11230021D01*
X27059599Y-11508499D01*
X27166167Y-11765778D01*
X27363081Y-11962692D01*
X27620360Y-12069260D01*
X27898838Y-12069260D01*
X28156117Y-11962692D01*
X28353031Y-11765778D01*
X28396530Y-11660761D01*
X42500000Y-11660761D01*
X42500000Y-11939239D01*
X42606568Y-12196518D01*
X42803482Y-12393432D01*
X43060761Y-12500000D01*
X43339239Y-12500000D01*
X43596518Y-12393432D01*
X43793432Y-12196518D01*
X43800003Y-12180653D01*
X51500000Y-12180653D01*
X51500000Y-12419347D01*
X51591344Y-12639873D01*
X51760127Y-12808656D01*
X51980653Y-12900000D01*
X52219347Y-12900000D01*
X52439873Y-12808656D01*
X52608656Y-12639873D01*
X52700000Y-12419347D01*
X52700000Y-12180653D01*
X52608656Y-11960127D01*
X52439873Y-11791344D01*
X52219347Y-11700000D01*
X51980653Y-11700000D01*
X51760127Y-11791344D01*
X51591344Y-11960127D01*
X51500000Y-12180653D01*
X43800003Y-12180653D01*
X43900000Y-11939239D01*
X43900000Y-11660761D01*
X56000000Y-11660761D01*
X56000000Y-11939239D01*
X56106568Y-12196518D01*
X56303482Y-12393432D01*
X56560761Y-12500000D01*
X56839239Y-12500000D01*
X57096518Y-12393432D01*
X57293432Y-12196518D01*
X57362022Y-12030925D01*
X61650000Y-12030925D01*
X61650000Y-12369075D01*
X61779405Y-12681486D01*
X62018514Y-12920595D01*
X62330925Y-13050000D01*
X62669075Y-13050000D01*
X62981486Y-12920595D01*
X63220595Y-12681486D01*
X63350000Y-12369075D01*
X63350000Y-12330925D01*
X67850000Y-12330925D01*
X67850000Y-12669075D01*
X67979405Y-12981486D01*
X68218514Y-13220595D01*
X68530925Y-13350000D01*
X68869075Y-13350000D01*
X69181486Y-13220595D01*
X69420595Y-12981486D01*
X69550000Y-12669075D01*
X69550000Y-12330925D01*
X69420595Y-12018514D01*
X69181486Y-11779405D01*
X68869075Y-11650000D01*
X68530925Y-11650000D01*
X68218514Y-11779405D01*
X67979405Y-12018514D01*
X67850000Y-12330925D01*
X63350000Y-12330925D01*
X63350000Y-12030925D01*
X63220595Y-11718514D01*
X62981486Y-11479405D01*
X62669075Y-11350000D01*
X62330925Y-11350000D01*
X62018514Y-11479405D01*
X61779405Y-11718514D01*
X61650000Y-12030925D01*
X57362022Y-12030925D01*
X57400000Y-11939239D01*
X57400000Y-11660761D01*
X57293432Y-11403482D01*
X57096518Y-11206568D01*
X56839239Y-11100000D01*
X56560761Y-11100000D01*
X56303482Y-11206568D01*
X56106568Y-11403482D01*
X56000000Y-11660761D01*
X43900000Y-11660761D01*
X43793432Y-11403482D01*
X43596518Y-11206568D01*
X43339239Y-11100000D01*
X43060761Y-11100000D01*
X42803482Y-11206568D01*
X42606568Y-11403482D01*
X42500000Y-11660761D01*
X28396530Y-11660761D01*
X28459599Y-11508499D01*
X28459599Y-11230021D01*
X28353031Y-10972742D01*
X28156117Y-10775828D01*
X28119742Y-10760761D01*
X45000000Y-10760761D01*
X45000000Y-11039239D01*
X45106568Y-11296518D01*
X45303482Y-11493432D01*
X45560761Y-11600000D01*
X45839239Y-11600000D01*
X46096518Y-11493432D01*
X46293432Y-11296518D01*
X46400000Y-11039239D01*
X46400000Y-10760761D01*
X46293432Y-10503482D01*
X46096518Y-10306568D01*
X45839239Y-10200000D01*
X45560761Y-10200000D01*
X45303482Y-10306568D01*
X45106568Y-10503482D01*
X45000000Y-10760761D01*
X28119742Y-10760761D01*
X27898838Y-10669260D01*
X27620360Y-10669260D01*
X27363081Y-10775828D01*
X27166167Y-10972742D01*
X27059599Y-11230021D01*
X26100000Y-11230021D01*
X26100000Y-11180653D01*
X26008656Y-10960127D01*
X25988542Y-10940013D01*
X26152961Y-11008117D01*
X26391655Y-11008117D01*
X26612181Y-10916773D01*
X26780964Y-10747990D01*
X26872308Y-10527464D01*
X26872308Y-10288770D01*
X26780964Y-10068244D01*
X26612181Y-9899461D01*
X26391655Y-9808117D01*
X26152961Y-9808117D01*
X25932435Y-9899461D01*
X25763652Y-10068244D01*
X25672308Y-10288770D01*
X25672308Y-10527464D01*
X25763652Y-10747990D01*
X25783766Y-10768104D01*
X25619347Y-10700000D01*
X25380653Y-10700000D01*
X25160127Y-10791344D01*
X24991344Y-10960127D01*
X24900000Y-11180653D01*
X427000Y-11180653D01*
X427000Y-9460761D01*
X5100000Y-9460761D01*
X5100000Y-9739239D01*
X5206568Y-9996518D01*
X5403482Y-10193432D01*
X5660761Y-10300000D01*
X5939239Y-10300000D01*
X6033970Y-10260761D01*
X19100000Y-10260761D01*
X19100000Y-10539239D01*
X19206568Y-10796518D01*
X19403482Y-10993432D01*
X19660761Y-11100000D01*
X19939239Y-11100000D01*
X20196518Y-10993432D01*
X20393432Y-10796518D01*
X20500000Y-10539239D01*
X20500000Y-10260761D01*
X20393432Y-10003482D01*
X20196518Y-9806568D01*
X19939239Y-9700000D01*
X19660761Y-9700000D01*
X19403482Y-9806568D01*
X19206568Y-10003482D01*
X19100000Y-10260761D01*
X6033970Y-10260761D01*
X6196518Y-10193432D01*
X6393432Y-9996518D01*
X6500000Y-9739239D01*
X6500000Y-9460761D01*
X6393432Y-9203482D01*
X6196518Y-9006568D01*
X5939239Y-8900000D01*
X5660761Y-8900000D01*
X5403482Y-9006568D01*
X5206568Y-9203482D01*
X5100000Y-9460761D01*
X427000Y-9460761D01*
X427000Y-7755226D01*
X4364302Y-7755226D01*
X4364302Y-7993920D01*
X4455646Y-8214446D01*
X4624429Y-8383229D01*
X4844955Y-8474573D01*
X5083649Y-8474573D01*
X5304175Y-8383229D01*
X5472958Y-8214446D01*
X5551302Y-8025304D01*
X8422182Y-8025304D01*
X8422182Y-8303782D01*
X8528750Y-8561061D01*
X8725664Y-8757975D01*
X8982943Y-8864543D01*
X9261421Y-8864543D01*
X9518700Y-8757975D01*
X9715614Y-8561061D01*
X9822182Y-8303782D01*
X9822182Y-8160761D01*
X19000000Y-8160761D01*
X19000000Y-8439239D01*
X19106568Y-8696518D01*
X19303482Y-8893432D01*
X19560761Y-9000000D01*
X19839239Y-9000000D01*
X20096518Y-8893432D01*
X20293432Y-8696518D01*
X20347698Y-8565506D01*
X22899996Y-8565506D01*
X22899996Y-8843984D01*
X23006564Y-9101263D01*
X23203478Y-9298177D01*
X23460757Y-9404745D01*
X23739235Y-9404745D01*
X23996514Y-9298177D01*
X24183930Y-9110761D01*
X27372813Y-9110761D01*
X27372813Y-9389239D01*
X27479381Y-9646518D01*
X27676295Y-9843432D01*
X27933574Y-9950000D01*
X28212052Y-9950000D01*
X28469331Y-9843432D01*
X28509589Y-9803174D01*
X48717688Y-9803174D01*
X48717688Y-10081652D01*
X48824256Y-10338931D01*
X49021170Y-10535845D01*
X49278449Y-10642413D01*
X49556927Y-10642413D01*
X49814206Y-10535845D01*
X50011120Y-10338931D01*
X50117688Y-10081652D01*
X50117688Y-9854194D01*
X55537135Y-9854194D01*
X55537135Y-10092888D01*
X55628479Y-10313414D01*
X55797262Y-10482197D01*
X56017788Y-10573541D01*
X56256482Y-10573541D01*
X56477008Y-10482197D01*
X56628280Y-10330925D01*
X64750000Y-10330925D01*
X64750000Y-10669075D01*
X64879405Y-10981486D01*
X65118514Y-11220595D01*
X65430925Y-11350000D01*
X65769075Y-11350000D01*
X66081486Y-11220595D01*
X66320595Y-10981486D01*
X66450000Y-10669075D01*
X66450000Y-10330925D01*
X66320595Y-10018514D01*
X66081486Y-9779405D01*
X65769075Y-9650000D01*
X65430925Y-9650000D01*
X65118514Y-9779405D01*
X64879405Y-10018514D01*
X64750000Y-10330925D01*
X56628280Y-10330925D01*
X56645791Y-10313414D01*
X56737135Y-10092888D01*
X56737135Y-9854194D01*
X56645791Y-9633668D01*
X56477008Y-9464885D01*
X56256482Y-9373541D01*
X56017788Y-9373541D01*
X55797262Y-9464885D01*
X55628479Y-9633668D01*
X55537135Y-9854194D01*
X50117688Y-9854194D01*
X50117688Y-9803174D01*
X50011120Y-9545895D01*
X49814206Y-9348981D01*
X49556927Y-9242413D01*
X49278449Y-9242413D01*
X49021170Y-9348981D01*
X48824256Y-9545895D01*
X48717688Y-9803174D01*
X28509589Y-9803174D01*
X28666245Y-9646518D01*
X28772813Y-9389239D01*
X28772813Y-9262769D01*
X28837781Y-9419616D01*
X29034695Y-9616530D01*
X29291974Y-9723098D01*
X29570452Y-9723098D01*
X29827731Y-9616530D01*
X30024645Y-9419616D01*
X30131213Y-9162337D01*
X30131213Y-8949073D01*
X35354422Y-8949073D01*
X35354422Y-9187767D01*
X35445766Y-9408293D01*
X35614549Y-9577076D01*
X35835075Y-9668420D01*
X36073769Y-9668420D01*
X36294295Y-9577076D01*
X36463078Y-9408293D01*
X36554422Y-9187767D01*
X36554422Y-8949073D01*
X36463078Y-8728547D01*
X36294295Y-8559764D01*
X36073769Y-8468420D01*
X35835075Y-8468420D01*
X35614549Y-8559764D01*
X35445766Y-8728547D01*
X35354422Y-8949073D01*
X30131213Y-8949073D01*
X30131213Y-8883859D01*
X30024645Y-8626580D01*
X29827731Y-8429666D01*
X29570452Y-8323098D01*
X29291974Y-8323098D01*
X29034695Y-8429666D01*
X28837781Y-8626580D01*
X28731213Y-8883859D01*
X28731213Y-9010329D01*
X28666245Y-8853482D01*
X28469331Y-8656568D01*
X28212052Y-8550000D01*
X27933574Y-8550000D01*
X27676295Y-8656568D01*
X27479381Y-8853482D01*
X27372813Y-9110761D01*
X24183930Y-9110761D01*
X24193428Y-9101263D01*
X24299996Y-8843984D01*
X24299996Y-8565506D01*
X24193428Y-8308227D01*
X23996514Y-8111313D01*
X23739235Y-8004745D01*
X23460757Y-8004745D01*
X23203478Y-8111313D01*
X23006564Y-8308227D01*
X22899996Y-8565506D01*
X20347698Y-8565506D01*
X20400000Y-8439239D01*
X20400000Y-8160761D01*
X20293432Y-7903482D01*
X20096518Y-7706568D01*
X19839239Y-7600000D01*
X19560761Y-7600000D01*
X19303482Y-7706568D01*
X19106568Y-7903482D01*
X19000000Y-8160761D01*
X9822182Y-8160761D01*
X9822182Y-8025304D01*
X9715614Y-7768025D01*
X9518700Y-7571111D01*
X9261421Y-7464543D01*
X8982943Y-7464543D01*
X8725664Y-7571111D01*
X8528750Y-7768025D01*
X8422182Y-8025304D01*
X5551302Y-8025304D01*
X5564302Y-7993920D01*
X5564302Y-7755226D01*
X5472958Y-7534700D01*
X5366152Y-7427894D01*
X27464020Y-7427894D01*
X27464020Y-7706372D01*
X27570588Y-7963651D01*
X27767502Y-8160565D01*
X28024781Y-8267133D01*
X28303259Y-8267133D01*
X28560538Y-8160565D01*
X28757452Y-7963651D01*
X28864020Y-7706372D01*
X28864020Y-7427894D01*
X28815649Y-7311114D01*
X38376722Y-7311114D01*
X38376722Y-7549808D01*
X38468066Y-7770334D01*
X38636849Y-7939117D01*
X38857375Y-8030461D01*
X39096069Y-8030461D01*
X39316595Y-7939117D01*
X39323164Y-7932548D01*
X40876070Y-7932548D01*
X40876070Y-8211026D01*
X40982638Y-8468305D01*
X41179552Y-8665219D01*
X41436831Y-8771787D01*
X41715309Y-8771787D01*
X41972588Y-8665219D01*
X41977046Y-8660761D01*
X47300000Y-8660761D01*
X47300000Y-8939239D01*
X47406568Y-9196518D01*
X47603482Y-9393432D01*
X47860761Y-9500000D01*
X48139239Y-9500000D01*
X48396518Y-9393432D01*
X48593432Y-9196518D01*
X48700000Y-8939239D01*
X48700000Y-8660761D01*
X48677318Y-8606000D01*
X70292000Y-8606000D01*
X70292000Y-9220939D01*
X70384563Y-9444405D01*
X70555596Y-9615438D01*
X70779062Y-9708000D01*
X71394000Y-9708000D01*
X71545998Y-9556002D01*
X71545998Y-9700000D01*
X71481196Y-9700000D01*
X71076900Y-9867465D01*
X70767465Y-10176900D01*
X70600000Y-10581196D01*
X70600000Y-11018804D01*
X70767465Y-11423100D01*
X71076900Y-11732535D01*
X71481196Y-11900000D01*
X71918804Y-11900000D01*
X72323100Y-11732535D01*
X72632535Y-11423100D01*
X72800000Y-11018804D01*
X72800000Y-10581196D01*
X72632535Y-10176900D01*
X72323100Y-9867465D01*
X71918804Y-9700000D01*
X71854002Y-9700000D01*
X71854002Y-9556002D01*
X72006000Y-9708000D01*
X72620938Y-9708000D01*
X72844404Y-9615438D01*
X73015437Y-9444405D01*
X73108000Y-9220939D01*
X73108000Y-8606000D01*
X72956000Y-8454000D01*
X71854000Y-8454000D01*
X71854000Y-8474000D01*
X71546000Y-8474000D01*
X71546000Y-8454000D01*
X70444000Y-8454000D01*
X70292000Y-8606000D01*
X48677318Y-8606000D01*
X48593432Y-8403482D01*
X48396518Y-8206568D01*
X48139239Y-8100000D01*
X47860761Y-8100000D01*
X47603482Y-8206568D01*
X47406568Y-8403482D01*
X47300000Y-8660761D01*
X41977046Y-8660761D01*
X42169502Y-8468305D01*
X42276070Y-8211026D01*
X42276070Y-7932548D01*
X42177407Y-7694352D01*
X45058495Y-7694352D01*
X45058495Y-7972830D01*
X45165063Y-8230109D01*
X45361977Y-8427023D01*
X45619256Y-8533591D01*
X45897734Y-8533591D01*
X46155013Y-8427023D01*
X46351927Y-8230109D01*
X46458495Y-7972830D01*
X46458495Y-7694352D01*
X46351927Y-7437073D01*
X46293915Y-7379061D01*
X70292000Y-7379061D01*
X70292000Y-7994000D01*
X70444000Y-8146000D01*
X71546000Y-8146000D01*
X71546000Y-7044000D01*
X71854000Y-7044000D01*
X71854000Y-8146000D01*
X72956000Y-8146000D01*
X73108000Y-7994000D01*
X73108000Y-7379061D01*
X73015437Y-7155595D01*
X72844404Y-6984562D01*
X72620938Y-6892000D01*
X72006000Y-6892000D01*
X71854000Y-7044000D01*
X71546000Y-7044000D01*
X71394000Y-6892000D01*
X70779062Y-6892000D01*
X70555596Y-6984562D01*
X70384563Y-7155595D01*
X70292000Y-7379061D01*
X46293915Y-7379061D01*
X46155013Y-7240159D01*
X45897734Y-7133591D01*
X45619256Y-7133591D01*
X45361977Y-7240159D01*
X45165063Y-7437073D01*
X45058495Y-7694352D01*
X42177407Y-7694352D01*
X42169502Y-7675269D01*
X41972588Y-7478355D01*
X41715309Y-7371787D01*
X41436831Y-7371787D01*
X41179552Y-7478355D01*
X40982638Y-7675269D01*
X40876070Y-7932548D01*
X39323164Y-7932548D01*
X39485378Y-7770334D01*
X39576722Y-7549808D01*
X39576722Y-7311114D01*
X39485378Y-7090588D01*
X39316595Y-6921805D01*
X39096069Y-6830461D01*
X38857375Y-6830461D01*
X38636849Y-6921805D01*
X38468066Y-7090588D01*
X38376722Y-7311114D01*
X28815649Y-7311114D01*
X28757452Y-7170615D01*
X28560538Y-6973701D01*
X28303259Y-6867133D01*
X28024781Y-6867133D01*
X27767502Y-6973701D01*
X27570588Y-7170615D01*
X27464020Y-7427894D01*
X5366152Y-7427894D01*
X5304175Y-7365917D01*
X5083649Y-7274573D01*
X4844955Y-7274573D01*
X4624429Y-7365917D01*
X4455646Y-7534700D01*
X4364302Y-7755226D01*
X427000Y-7755226D01*
X427000Y-6427000D01*
X2968197Y-6427000D01*
X3000000Y-6433326D01*
X3031803Y-6427000D01*
X3042054Y-6427000D01*
X3166607Y-6402225D01*
X3307850Y-6307850D01*
X3337370Y-6263670D01*
X4959082Y-4641958D01*
X10700000Y-4641958D01*
X10700000Y-5358042D01*
X10974034Y-6019618D01*
X11480382Y-6525966D01*
X12141958Y-6800000D01*
X12858042Y-6800000D01*
X13519618Y-6525966D01*
X14025966Y-6019618D01*
X14079405Y-5890603D01*
X38563103Y-5890603D01*
X38563103Y-6169081D01*
X38669671Y-6426360D01*
X38866585Y-6623274D01*
X39123864Y-6729842D01*
X39402342Y-6729842D01*
X39659621Y-6623274D01*
X39837778Y-6445118D01*
X39949803Y-6557143D01*
X40207082Y-6663711D01*
X40485560Y-6663711D01*
X40742839Y-6557143D01*
X40939753Y-6360229D01*
X41046321Y-6102950D01*
X41046321Y-5860761D01*
X48500000Y-5860761D01*
X48500000Y-6139239D01*
X48606568Y-6396518D01*
X48803482Y-6593432D01*
X49060761Y-6700000D01*
X49339239Y-6700000D01*
X49596518Y-6593432D01*
X49793432Y-6396518D01*
X49900000Y-6139239D01*
X49900000Y-5860761D01*
X49793432Y-5603482D01*
X49596518Y-5406568D01*
X49339239Y-5300000D01*
X49060761Y-5300000D01*
X48803482Y-5406568D01*
X48606568Y-5603482D01*
X48500000Y-5860761D01*
X41046321Y-5860761D01*
X41046321Y-5824472D01*
X40939753Y-5567193D01*
X40742839Y-5370279D01*
X40485560Y-5263711D01*
X40207082Y-5263711D01*
X40046116Y-5330385D01*
X40046116Y-5077069D01*
X39939548Y-4819790D01*
X39761716Y-4641958D01*
X60700000Y-4641958D01*
X60700000Y-5358042D01*
X60974034Y-6019618D01*
X61480382Y-6525966D01*
X62141958Y-6800000D01*
X62858042Y-6800000D01*
X63519618Y-6525966D01*
X64025966Y-6019618D01*
X64300000Y-5358042D01*
X64300000Y-4641958D01*
X64025966Y-3980382D01*
X63519618Y-3474034D01*
X62858042Y-3200000D01*
X62141958Y-3200000D01*
X61480382Y-3474034D01*
X60974034Y-3980382D01*
X60700000Y-4641958D01*
X39761716Y-4641958D01*
X39742634Y-4622876D01*
X39485355Y-4516308D01*
X39206877Y-4516308D01*
X38949598Y-4622876D01*
X38752684Y-4819790D01*
X38646116Y-5077069D01*
X38646116Y-5355547D01*
X38734374Y-5568621D01*
X38669671Y-5633324D01*
X38563103Y-5890603D01*
X14079405Y-5890603D01*
X14300000Y-5358042D01*
X14300000Y-4641958D01*
X14287078Y-4610761D01*
X23350000Y-4610761D01*
X23350000Y-4889239D01*
X23456568Y-5146518D01*
X23653482Y-5343432D01*
X23910761Y-5450000D01*
X24189239Y-5450000D01*
X24446518Y-5343432D01*
X24643432Y-5146518D01*
X24750000Y-4889239D01*
X24750000Y-4860761D01*
X35500000Y-4860761D01*
X35500000Y-5139239D01*
X35606568Y-5396518D01*
X35803482Y-5593432D01*
X36060761Y-5700000D01*
X36339239Y-5700000D01*
X36596518Y-5593432D01*
X36793432Y-5396518D01*
X36900000Y-5139239D01*
X36900000Y-4860761D01*
X36793432Y-4603482D01*
X36596518Y-4406568D01*
X36339239Y-4300000D01*
X36060761Y-4300000D01*
X35803482Y-4406568D01*
X35606568Y-4603482D01*
X35500000Y-4860761D01*
X24750000Y-4860761D01*
X24750000Y-4610761D01*
X24643432Y-4353482D01*
X24446518Y-4156568D01*
X24189239Y-4050000D01*
X23910761Y-4050000D01*
X23653482Y-4156568D01*
X23456568Y-4353482D01*
X23350000Y-4610761D01*
X14287078Y-4610761D01*
X14025966Y-3980382D01*
X13549929Y-3504345D01*
X46879479Y-3504345D01*
X46879479Y-3782823D01*
X46986047Y-4040102D01*
X47182961Y-4237016D01*
X47440240Y-4343584D01*
X47718718Y-4343584D01*
X47975997Y-4237016D01*
X48172911Y-4040102D01*
X48279479Y-3782823D01*
X48279479Y-3504345D01*
X48172911Y-3247066D01*
X47975997Y-3050152D01*
X47718718Y-2943584D01*
X47440240Y-2943584D01*
X47182961Y-3050152D01*
X46986047Y-3247066D01*
X46879479Y-3504345D01*
X13549929Y-3504345D01*
X13519618Y-3474034D01*
X12858042Y-3200000D01*
X12141958Y-3200000D01*
X11480382Y-3474034D01*
X10974034Y-3980382D01*
X10700000Y-4641958D01*
X4959082Y-4641958D01*
X7263674Y-2337367D01*
X7307850Y-2307850D01*
X7402225Y-2166607D01*
X7427000Y-2042054D01*
X7427000Y-2031804D01*
X7433326Y-2000001D01*
X7427000Y-1968198D01*
X7427000Y-1653347D01*
X18827304Y-1653347D01*
X18827304Y-1892041D01*
X18918648Y-2112567D01*
X19087431Y-2281350D01*
X19307957Y-2372694D01*
X19546651Y-2372694D01*
X19767177Y-2281350D01*
X19935960Y-2112567D01*
X20027304Y-1892041D01*
X20027304Y-1842244D01*
X20203482Y-2018422D01*
X20460761Y-2124990D01*
X20739239Y-2124990D01*
X20996518Y-2018422D01*
X21193432Y-1821508D01*
X21300000Y-1564229D01*
X21300000Y-1460761D01*
X30900000Y-1460761D01*
X30900000Y-1739239D01*
X31006568Y-1996518D01*
X31203482Y-2193432D01*
X31460761Y-2300000D01*
X31739239Y-2300000D01*
X31996518Y-2193432D01*
X32193432Y-1996518D01*
X32300000Y-1739239D01*
X32300000Y-1460761D01*
X32299369Y-1459237D01*
X38527153Y-1459237D01*
X38527153Y-1737715D01*
X38633721Y-1994994D01*
X38830635Y-2191908D01*
X39087914Y-2298476D01*
X39366392Y-2298476D01*
X39623671Y-2191908D01*
X39820585Y-1994994D01*
X39927153Y-1737715D01*
X39927153Y-1459237D01*
X39820585Y-1201958D01*
X39623671Y-1005044D01*
X39366392Y-898476D01*
X39087914Y-898476D01*
X38830635Y-1005044D01*
X38633721Y-1201958D01*
X38527153Y-1459237D01*
X32299369Y-1459237D01*
X32193432Y-1203482D01*
X31996518Y-1006568D01*
X31739239Y-900000D01*
X31460761Y-900000D01*
X31203482Y-1006568D01*
X31006568Y-1203482D01*
X30900000Y-1460761D01*
X21300000Y-1460761D01*
X21300000Y-1285751D01*
X21193432Y-1028472D01*
X20996518Y-831558D01*
X20739239Y-724990D01*
X20460761Y-724990D01*
X20203482Y-831558D01*
X20006568Y-1028472D01*
X19900000Y-1285751D01*
X19900000Y-1396861D01*
X19767177Y-1264038D01*
X19546651Y-1172694D01*
X19307957Y-1172694D01*
X19087431Y-1264038D01*
X18918648Y-1432821D01*
X18827304Y-1653347D01*
X7427000Y-1653347D01*
X7427000Y-427000D01*
X67575000Y-427000D01*
X67575001Y-1958138D01*
X67575001Y-1958138D01*
G37*
X67575001Y-1958138D02*
X67566674Y-2000000D01*
X67599659Y-2165826D01*
X67618105Y-2193432D01*
X67693593Y-2306408D01*
X67729079Y-2330119D01*
X71669881Y-6270922D01*
X71693592Y-6306408D01*
X71729077Y-6330118D01*
X71834173Y-6400341D01*
X71999999Y-6433326D01*
X72041857Y-6425000D01*
X74575000Y-6425000D01*
X74575001Y-12575000D01*
X72041857Y-12575000D01*
X72000000Y-12566674D01*
X71958142Y-12575000D01*
X71834173Y-12599659D01*
X71693592Y-12693592D01*
X71599659Y-12834173D01*
X71566674Y-13000000D01*
X71575000Y-13041858D01*
X71575001Y-18075000D01*
X65041857Y-18075000D01*
X65000000Y-18066674D01*
X64958142Y-18075000D01*
X64834173Y-18099659D01*
X64693592Y-18193592D01*
X64599659Y-18334173D01*
X64566674Y-18500000D01*
X64575000Y-18541858D01*
X64575001Y-31458137D01*
X64566674Y-31500000D01*
X64599659Y-31665827D01*
X64693592Y-31806408D01*
X64834173Y-31900341D01*
X64958142Y-31925000D01*
X64958143Y-31925000D01*
X65000000Y-31933326D01*
X65041858Y-31925000D01*
X71575000Y-31925000D01*
X71575001Y-36958137D01*
X71566674Y-37000000D01*
X71599659Y-37165827D01*
X71693592Y-37306408D01*
X71834173Y-37400341D01*
X71958142Y-37425000D01*
X71958143Y-37425000D01*
X72000000Y-37433326D01*
X72041858Y-37425000D01*
X74575001Y-37425000D01*
X74575000Y-43575000D01*
X72041857Y-43575000D01*
X71999999Y-43566674D01*
X71958142Y-43575000D01*
X71834173Y-43599659D01*
X71693592Y-43693592D01*
X71669881Y-43729078D01*
X67729079Y-47669881D01*
X67693593Y-47693592D01*
X67669883Y-47729077D01*
X67669882Y-47729078D01*
X67599659Y-47834174D01*
X67566674Y-48000000D01*
X67575001Y-48041862D01*
X67575000Y-49575000D01*
X58925000Y-49575000D01*
X58925000Y-44641958D01*
X60700000Y-44641958D01*
X60700000Y-45358042D01*
X60974034Y-46019618D01*
X61480382Y-46525966D01*
X62141958Y-46800000D01*
X62858042Y-46800000D01*
X63519618Y-46525966D01*
X64025966Y-46019618D01*
X64300000Y-45358042D01*
X64300000Y-44641958D01*
X64025966Y-43980382D01*
X63519618Y-43474034D01*
X62858042Y-43200000D01*
X62141958Y-43200000D01*
X61480382Y-43474034D01*
X60974034Y-43980382D01*
X60700000Y-44641958D01*
X58925000Y-44641958D01*
X58925000Y-44041857D01*
X58933326Y-44000000D01*
X58900341Y-43834173D01*
X58806408Y-43693592D01*
X58665827Y-43599659D01*
X58541858Y-43575000D01*
X58541857Y-43575000D01*
X58500000Y-43566674D01*
X58458142Y-43575000D01*
X21541858Y-43575000D01*
X21500000Y-43566674D01*
X21458143Y-43575000D01*
X21458142Y-43575000D01*
X21334173Y-43599659D01*
X21193592Y-43693592D01*
X21099659Y-43834173D01*
X21066674Y-44000000D01*
X21075001Y-44041863D01*
X21075000Y-49575000D01*
X7427000Y-49575000D01*
X7427000Y-48031802D01*
X7433326Y-47999999D01*
X7427000Y-47968196D01*
X7427000Y-47957946D01*
X7402225Y-47833393D01*
X7307850Y-47692150D01*
X7263674Y-47662633D01*
X4242999Y-44641958D01*
X10700000Y-44641958D01*
X10700000Y-45358042D01*
X10974034Y-46019618D01*
X11480382Y-46525966D01*
X12141958Y-46800000D01*
X12858042Y-46800000D01*
X13519618Y-46525966D01*
X14025966Y-46019618D01*
X14300000Y-45358042D01*
X14300000Y-44641958D01*
X14025966Y-43980382D01*
X13519618Y-43474034D01*
X12858042Y-43200000D01*
X12141958Y-43200000D01*
X11480382Y-43474034D01*
X10974034Y-43980382D01*
X10700000Y-44641958D01*
X4242999Y-44641958D01*
X3337370Y-43736330D01*
X3307850Y-43692150D01*
X3166607Y-43597775D01*
X3042054Y-43573000D01*
X3031803Y-43573000D01*
X3000000Y-43566674D01*
X2968197Y-43573000D01*
X427000Y-43573000D01*
X427000Y-42981330D01*
X17884356Y-42981330D01*
X17884356Y-43259808D01*
X17990924Y-43517087D01*
X18187838Y-43714001D01*
X18445117Y-43820569D01*
X18723595Y-43820569D01*
X18980874Y-43714001D01*
X19177788Y-43517087D01*
X19284356Y-43259808D01*
X19284356Y-42981330D01*
X19177788Y-42724051D01*
X18980874Y-42527137D01*
X18723595Y-42420569D01*
X18445117Y-42420569D01*
X18187838Y-42527137D01*
X17990924Y-42724051D01*
X17884356Y-42981330D01*
X427000Y-42981330D01*
X427000Y-41002321D01*
X15017244Y-41002321D01*
X15017244Y-41241015D01*
X15108588Y-41461541D01*
X15277371Y-41630324D01*
X15497897Y-41721668D01*
X15736591Y-41721668D01*
X15835610Y-41680653D01*
X20500000Y-41680653D01*
X20500000Y-41919347D01*
X20591344Y-42139873D01*
X20760127Y-42308656D01*
X20980653Y-42400000D01*
X21219347Y-42400000D01*
X21439873Y-42308656D01*
X21487768Y-42260761D01*
X31395000Y-42260761D01*
X31395000Y-42539239D01*
X31501568Y-42796518D01*
X31698482Y-42993432D01*
X31955761Y-43100000D01*
X32234239Y-43100000D01*
X32491518Y-42993432D01*
X32688432Y-42796518D01*
X32786085Y-42560761D01*
X52800000Y-42560761D01*
X52800000Y-42839239D01*
X52906568Y-43096518D01*
X53103482Y-43293432D01*
X53360761Y-43400000D01*
X53639239Y-43400000D01*
X53896518Y-43293432D01*
X54093432Y-43096518D01*
X54200000Y-42839239D01*
X54200000Y-42560761D01*
X54093432Y-42303482D01*
X53896518Y-42106568D01*
X53639239Y-42000000D01*
X53360761Y-42000000D01*
X53103482Y-42106568D01*
X52906568Y-42303482D01*
X52800000Y-42560761D01*
X32786085Y-42560761D01*
X32795000Y-42539239D01*
X32795000Y-42260761D01*
X32688432Y-42003482D01*
X32491518Y-41806568D01*
X32234239Y-41700000D01*
X31955761Y-41700000D01*
X31698482Y-41806568D01*
X31501568Y-42003482D01*
X31395000Y-42260761D01*
X21487768Y-42260761D01*
X21608656Y-42139873D01*
X21700000Y-41919347D01*
X21700000Y-41680653D01*
X21608656Y-41460127D01*
X21439873Y-41291344D01*
X21219347Y-41200000D01*
X20980653Y-41200000D01*
X20760127Y-41291344D01*
X20591344Y-41460127D01*
X20500000Y-41680653D01*
X15835610Y-41680653D01*
X15957117Y-41630324D01*
X16125900Y-41461541D01*
X16217244Y-41241015D01*
X16217244Y-41002321D01*
X16200041Y-40960788D01*
X37786402Y-40960788D01*
X37786402Y-41199482D01*
X37877746Y-41420008D01*
X38046529Y-41588791D01*
X38267055Y-41680135D01*
X38505749Y-41680135D01*
X38684562Y-41606069D01*
X38684562Y-41836605D01*
X38775906Y-42057131D01*
X38944689Y-42225914D01*
X39165215Y-42317258D01*
X39403909Y-42317258D01*
X39624435Y-42225914D01*
X39793218Y-42057131D01*
X39884562Y-41836605D01*
X39884562Y-41597911D01*
X39793218Y-41377385D01*
X39624435Y-41208602D01*
X39473826Y-41146218D01*
X45932623Y-41146218D01*
X45932623Y-41384912D01*
X46023967Y-41605438D01*
X46192750Y-41774221D01*
X46413276Y-41865565D01*
X46651970Y-41865565D01*
X46872496Y-41774221D01*
X47041279Y-41605438D01*
X47132623Y-41384912D01*
X47132623Y-41146218D01*
X47041279Y-40925692D01*
X46872496Y-40756909D01*
X46651970Y-40665565D01*
X46413276Y-40665565D01*
X46192750Y-40756909D01*
X46023967Y-40925692D01*
X45932623Y-41146218D01*
X39473826Y-41146218D01*
X39403909Y-41117258D01*
X39165215Y-41117258D01*
X38986402Y-41191324D01*
X38986402Y-40960788D01*
X38895058Y-40740262D01*
X38726275Y-40571479D01*
X38505749Y-40480135D01*
X38267055Y-40480135D01*
X38046529Y-40571479D01*
X37877746Y-40740262D01*
X37786402Y-40960788D01*
X16200041Y-40960788D01*
X16125900Y-40781795D01*
X15957117Y-40613012D01*
X15736591Y-40521668D01*
X15497897Y-40521668D01*
X15277371Y-40613012D01*
X15108588Y-40781795D01*
X15017244Y-41002321D01*
X427000Y-41002321D01*
X427000Y-38867983D01*
X2464876Y-38867983D01*
X2464876Y-39146461D01*
X2571444Y-39403740D01*
X2768358Y-39600654D01*
X3025637Y-39707222D01*
X3304115Y-39707222D01*
X3561394Y-39600654D01*
X3667442Y-39494606D01*
X45626001Y-39494606D01*
X45626001Y-39733300D01*
X45717345Y-39953826D01*
X45886128Y-40122609D01*
X46106654Y-40213953D01*
X46345348Y-40213953D01*
X46565874Y-40122609D01*
X46734657Y-39953826D01*
X46826001Y-39733300D01*
X46826001Y-39494606D01*
X46737380Y-39280653D01*
X59300000Y-39280653D01*
X59300000Y-39519347D01*
X59391344Y-39739873D01*
X59560127Y-39908656D01*
X59780653Y-40000000D01*
X60019347Y-40000000D01*
X60239873Y-39908656D01*
X60251015Y-39897514D01*
X63020617Y-39897514D01*
X63020617Y-40175992D01*
X63127185Y-40433271D01*
X63324099Y-40630185D01*
X63581378Y-40736753D01*
X63859856Y-40736753D01*
X64117135Y-40630185D01*
X64314049Y-40433271D01*
X64420617Y-40175992D01*
X64420617Y-39897514D01*
X64314049Y-39640235D01*
X64117135Y-39443321D01*
X63859856Y-39336753D01*
X63581378Y-39336753D01*
X63324099Y-39443321D01*
X63127185Y-39640235D01*
X63020617Y-39897514D01*
X60251015Y-39897514D01*
X60408656Y-39739873D01*
X60500000Y-39519347D01*
X60500000Y-39280653D01*
X60408656Y-39060127D01*
X60239873Y-38891344D01*
X60019347Y-38800000D01*
X59780653Y-38800000D01*
X59560127Y-38891344D01*
X59391344Y-39060127D01*
X59300000Y-39280653D01*
X46737380Y-39280653D01*
X46734657Y-39274080D01*
X46565874Y-39105297D01*
X46345348Y-39013953D01*
X46106654Y-39013953D01*
X45886128Y-39105297D01*
X45717345Y-39274080D01*
X45626001Y-39494606D01*
X3667442Y-39494606D01*
X3758308Y-39403740D01*
X3864876Y-39146461D01*
X3864876Y-38867983D01*
X3758308Y-38610704D01*
X3561394Y-38413790D01*
X3304115Y-38307222D01*
X3025637Y-38307222D01*
X2768358Y-38413790D01*
X2571444Y-38610704D01*
X2464876Y-38867983D01*
X427000Y-38867983D01*
X427000Y-37374883D01*
X15212418Y-37374883D01*
X15212418Y-37653361D01*
X15318986Y-37910640D01*
X15515900Y-38107554D01*
X15773179Y-38214122D01*
X16051657Y-38214122D01*
X16308936Y-38107554D01*
X16505850Y-37910640D01*
X16612418Y-37653361D01*
X16612418Y-37374883D01*
X16565148Y-37260761D01*
X19100000Y-37260761D01*
X19100000Y-37539239D01*
X19206568Y-37796518D01*
X19403482Y-37993432D01*
X19660761Y-38100000D01*
X19939239Y-38100000D01*
X20196518Y-37993432D01*
X20393432Y-37796518D01*
X20500000Y-37539239D01*
X20500000Y-37260761D01*
X20496871Y-37253206D01*
X20905916Y-37253206D01*
X20905916Y-37531684D01*
X21012484Y-37788963D01*
X21209398Y-37985877D01*
X21466677Y-38092445D01*
X21745155Y-38092445D01*
X22002434Y-37985877D01*
X22199348Y-37788963D01*
X22305916Y-37531684D01*
X22305916Y-37253206D01*
X22301567Y-37242706D01*
X28003481Y-37242706D01*
X28003481Y-37481400D01*
X28094825Y-37701926D01*
X28263608Y-37870709D01*
X28465826Y-37954469D01*
X28399850Y-38020445D01*
X28308506Y-38240971D01*
X28308506Y-38479665D01*
X28399850Y-38700191D01*
X28568633Y-38868974D01*
X28789159Y-38960318D01*
X29027853Y-38960318D01*
X29248379Y-38868974D01*
X29417162Y-38700191D01*
X29508506Y-38479665D01*
X29508506Y-38240971D01*
X29444213Y-38085751D01*
X39336138Y-38085751D01*
X39336138Y-38364229D01*
X39442706Y-38621508D01*
X39639620Y-38818422D01*
X39896899Y-38924990D01*
X40175377Y-38924990D01*
X40432656Y-38818422D01*
X40629570Y-38621508D01*
X40736138Y-38364229D01*
X40736138Y-38085751D01*
X40629570Y-37828472D01*
X40432656Y-37631558D01*
X40175377Y-37524990D01*
X39896899Y-37524990D01*
X39639620Y-37631558D01*
X39442706Y-37828472D01*
X39336138Y-38085751D01*
X29444213Y-38085751D01*
X29417162Y-38020445D01*
X29248379Y-37851662D01*
X29046161Y-37767902D01*
X29112137Y-37701926D01*
X29203481Y-37481400D01*
X29203481Y-37242706D01*
X29112137Y-37022180D01*
X28943354Y-36853397D01*
X28722828Y-36762053D01*
X28484134Y-36762053D01*
X28263608Y-36853397D01*
X28094825Y-37022180D01*
X28003481Y-37242706D01*
X22301567Y-37242706D01*
X22199348Y-36995927D01*
X22002434Y-36799013D01*
X21745155Y-36692445D01*
X21466677Y-36692445D01*
X21209398Y-36799013D01*
X21012484Y-36995927D01*
X20905916Y-37253206D01*
X20496871Y-37253206D01*
X20393432Y-37003482D01*
X20196518Y-36806568D01*
X19939239Y-36700000D01*
X19660761Y-36700000D01*
X19403482Y-36806568D01*
X19206568Y-37003482D01*
X19100000Y-37260761D01*
X16565148Y-37260761D01*
X16505850Y-37117604D01*
X16308936Y-36920690D01*
X16051657Y-36814122D01*
X15773179Y-36814122D01*
X15515900Y-36920690D01*
X15318986Y-37117604D01*
X15212418Y-37374883D01*
X427000Y-37374883D01*
X427000Y-36680653D01*
X34400000Y-36680653D01*
X34400000Y-36919347D01*
X34491344Y-37139873D01*
X34660127Y-37308656D01*
X34880653Y-37400000D01*
X35119347Y-37400000D01*
X35339873Y-37308656D01*
X35508656Y-37139873D01*
X35600000Y-36919347D01*
X35600000Y-36680653D01*
X35508656Y-36460127D01*
X35339873Y-36291344D01*
X35119347Y-36200000D01*
X34880653Y-36200000D01*
X34660127Y-36291344D01*
X34491344Y-36460127D01*
X34400000Y-36680653D01*
X427000Y-36680653D01*
X427000Y-35780653D01*
X15000000Y-35780653D01*
X15000000Y-36019347D01*
X15091344Y-36239873D01*
X15260127Y-36408656D01*
X15480653Y-36500000D01*
X15719347Y-36500000D01*
X15939873Y-36408656D01*
X16108656Y-36239873D01*
X16200000Y-36019347D01*
X16200000Y-35780653D01*
X16108656Y-35560127D01*
X15978524Y-35429995D01*
X34535453Y-35429995D01*
X34535453Y-35668689D01*
X34626797Y-35889215D01*
X34795580Y-36057998D01*
X35016106Y-36149342D01*
X35254800Y-36149342D01*
X35475326Y-36057998D01*
X35644109Y-35889215D01*
X35735453Y-35668689D01*
X35735453Y-35429995D01*
X35644109Y-35209469D01*
X35475326Y-35040686D01*
X35254800Y-34949342D01*
X35016106Y-34949342D01*
X34795580Y-35040686D01*
X34626797Y-35209469D01*
X34535453Y-35429995D01*
X15978524Y-35429995D01*
X15939873Y-35391344D01*
X15719347Y-35300000D01*
X15480653Y-35300000D01*
X15260127Y-35391344D01*
X15091344Y-35560127D01*
X15000000Y-35780653D01*
X427000Y-35780653D01*
X427000Y-33280653D01*
X28000000Y-33280653D01*
X28000000Y-33519347D01*
X28091344Y-33739873D01*
X28260127Y-33908656D01*
X28480653Y-34000000D01*
X28719347Y-34000000D01*
X28939873Y-33908656D01*
X29108656Y-33739873D01*
X29200000Y-33519347D01*
X29200000Y-33280653D01*
X29108656Y-33060127D01*
X28939873Y-32891344D01*
X28719347Y-32800000D01*
X28480653Y-32800000D01*
X28260127Y-32891344D01*
X28091344Y-33060127D01*
X28000000Y-33280653D01*
X427000Y-33280653D01*
X427000Y-31880653D01*
X34600000Y-31880653D01*
X34600000Y-32119347D01*
X34691344Y-32339873D01*
X34860127Y-32508656D01*
X35080653Y-32600000D01*
X35319347Y-32600000D01*
X35539873Y-32508656D01*
X35708656Y-32339873D01*
X35800000Y-32119347D01*
X35800000Y-31980653D01*
X42700000Y-31980653D01*
X42700000Y-32219347D01*
X42791344Y-32439873D01*
X42960127Y-32608656D01*
X43180653Y-32700000D01*
X42960127Y-32791344D01*
X42791344Y-32960127D01*
X42700000Y-33180653D01*
X42700000Y-33419347D01*
X42791344Y-33639873D01*
X42960127Y-33808656D01*
X43126180Y-33877437D01*
X42971704Y-33941422D01*
X42802921Y-34110205D01*
X42711577Y-34330731D01*
X42711577Y-34569425D01*
X42802921Y-34789951D01*
X42971704Y-34958734D01*
X43057287Y-34994184D01*
X42891344Y-35160127D01*
X42800000Y-35380653D01*
X42800000Y-35619347D01*
X42891344Y-35839873D01*
X42951472Y-35900001D01*
X42891346Y-35960127D01*
X42800002Y-36180653D01*
X42800002Y-36419347D01*
X42891346Y-36639873D01*
X43060129Y-36808656D01*
X43280655Y-36900000D01*
X43519349Y-36900000D01*
X43566057Y-36880653D01*
X45700000Y-36880653D01*
X45700000Y-37119347D01*
X45791344Y-37339873D01*
X45960127Y-37508656D01*
X46180653Y-37600000D01*
X46419347Y-37600000D01*
X46466055Y-37580653D01*
X50100000Y-37580653D01*
X50100000Y-37819347D01*
X50191344Y-38039873D01*
X50360127Y-38208656D01*
X50580653Y-38300000D01*
X50819347Y-38300000D01*
X51039873Y-38208656D01*
X51208656Y-38039873D01*
X51300000Y-37819347D01*
X51300000Y-37580653D01*
X51208656Y-37360127D01*
X51085357Y-37236828D01*
X58069363Y-37236828D01*
X58069363Y-37475522D01*
X58160707Y-37696048D01*
X58329490Y-37864831D01*
X58550016Y-37956175D01*
X58788710Y-37956175D01*
X59009236Y-37864831D01*
X59178019Y-37696048D01*
X59269363Y-37475522D01*
X59269363Y-37321075D01*
X59580626Y-37321075D01*
X59580626Y-37599553D01*
X59687194Y-37856832D01*
X59884108Y-38053746D01*
X60141387Y-38160314D01*
X60419865Y-38160314D01*
X60677144Y-38053746D01*
X60874058Y-37856832D01*
X60980626Y-37599553D01*
X60980626Y-37321075D01*
X60874058Y-37063796D01*
X60677144Y-36866882D01*
X60419865Y-36760314D01*
X60141387Y-36760314D01*
X59884108Y-36866882D01*
X59687194Y-37063796D01*
X59580626Y-37321075D01*
X59269363Y-37321075D01*
X59269363Y-37236828D01*
X59178019Y-37016302D01*
X59009236Y-36847519D01*
X58788710Y-36756175D01*
X58550016Y-36756175D01*
X58329490Y-36847519D01*
X58160707Y-37016302D01*
X58069363Y-37236828D01*
X51085357Y-37236828D01*
X51039873Y-37191344D01*
X50819347Y-37100000D01*
X50580653Y-37100000D01*
X50360127Y-37191344D01*
X50191344Y-37360127D01*
X50100000Y-37580653D01*
X46466055Y-37580653D01*
X46639873Y-37508656D01*
X46808656Y-37339873D01*
X46900000Y-37119347D01*
X46900000Y-36880653D01*
X46808656Y-36660127D01*
X46639873Y-36491344D01*
X46419347Y-36400000D01*
X46180653Y-36400000D01*
X45960127Y-36491344D01*
X45791344Y-36660127D01*
X45700000Y-36880653D01*
X43566057Y-36880653D01*
X43739875Y-36808656D01*
X43908658Y-36639873D01*
X44000002Y-36419347D01*
X44000002Y-36180653D01*
X43908658Y-35960127D01*
X43848530Y-35899999D01*
X43908656Y-35839873D01*
X44000000Y-35619347D01*
X44000000Y-35480653D01*
X50100000Y-35480653D01*
X50100000Y-35719347D01*
X50191344Y-35939873D01*
X50360127Y-36108656D01*
X50580653Y-36200000D01*
X50819347Y-36200000D01*
X50995828Y-36126900D01*
X50995828Y-36141568D01*
X51087172Y-36362094D01*
X51255955Y-36530877D01*
X51476481Y-36622221D01*
X51715175Y-36622221D01*
X51935701Y-36530877D01*
X52104484Y-36362094D01*
X52195828Y-36141568D01*
X52195828Y-36005632D01*
X55100000Y-36005632D01*
X55100000Y-36244326D01*
X55191344Y-36464852D01*
X55360127Y-36633635D01*
X55580653Y-36724979D01*
X55819347Y-36724979D01*
X56039873Y-36633635D01*
X56208656Y-36464852D01*
X56300000Y-36244326D01*
X56300000Y-36005632D01*
X56208656Y-35785106D01*
X56039873Y-35616323D01*
X55819347Y-35524979D01*
X55580653Y-35524979D01*
X55360127Y-35616323D01*
X55191344Y-35785106D01*
X55100000Y-36005632D01*
X52195828Y-36005632D01*
X52195828Y-35902874D01*
X52104484Y-35682348D01*
X51935701Y-35513565D01*
X51715175Y-35422221D01*
X51476481Y-35422221D01*
X51300000Y-35495321D01*
X51300000Y-35480653D01*
X51208656Y-35260127D01*
X51039873Y-35091344D01*
X50819347Y-35000000D01*
X50580653Y-35000000D01*
X50360127Y-35091344D01*
X50191344Y-35260127D01*
X50100000Y-35480653D01*
X44000000Y-35480653D01*
X44000000Y-35380653D01*
X43908656Y-35160127D01*
X43739873Y-34991344D01*
X43654290Y-34955894D01*
X43820233Y-34789951D01*
X43911577Y-34569425D01*
X43911577Y-34330731D01*
X43820233Y-34110205D01*
X43742319Y-34032291D01*
X51015929Y-34032291D01*
X51015929Y-34270985D01*
X51107273Y-34491511D01*
X51276056Y-34660294D01*
X51496582Y-34751638D01*
X51735276Y-34751638D01*
X51955802Y-34660294D01*
X52124585Y-34491511D01*
X52139450Y-34455621D01*
X54855013Y-34455621D01*
X54855013Y-34694315D01*
X54946357Y-34914841D01*
X55115140Y-35083624D01*
X55335666Y-35174968D01*
X55574360Y-35174968D01*
X55794886Y-35083624D01*
X55963669Y-34914841D01*
X56055013Y-34694315D01*
X56055013Y-34455621D01*
X55963669Y-34235095D01*
X55794886Y-34066312D01*
X55574360Y-33974968D01*
X55335666Y-33974968D01*
X55115140Y-34066312D01*
X54946357Y-34235095D01*
X54855013Y-34455621D01*
X52139450Y-34455621D01*
X52215929Y-34270985D01*
X52215929Y-34032291D01*
X52124585Y-33811765D01*
X51955802Y-33642982D01*
X51735276Y-33551638D01*
X51496582Y-33551638D01*
X51276056Y-33642982D01*
X51107273Y-33811765D01*
X51015929Y-34032291D01*
X43742319Y-34032291D01*
X43651450Y-33941422D01*
X43485397Y-33872641D01*
X43639873Y-33808656D01*
X43808656Y-33639873D01*
X43900000Y-33419347D01*
X43900000Y-33180653D01*
X43808656Y-32960127D01*
X43639873Y-32791344D01*
X43419347Y-32700000D01*
X43639873Y-32608656D01*
X43808656Y-32439873D01*
X43900000Y-32219347D01*
X43900000Y-31980653D01*
X43808656Y-31760127D01*
X43639873Y-31591344D01*
X43419347Y-31500000D01*
X43180653Y-31500000D01*
X42960127Y-31591344D01*
X42791344Y-31760127D01*
X42700000Y-31980653D01*
X35800000Y-31980653D01*
X35800000Y-31880653D01*
X35708656Y-31660127D01*
X35539873Y-31491344D01*
X35319347Y-31400000D01*
X35080653Y-31400000D01*
X34860127Y-31491344D01*
X34691344Y-31660127D01*
X34600000Y-31880653D01*
X427000Y-31880653D01*
X427000Y-30960761D01*
X18900000Y-30960761D01*
X18900000Y-31239239D01*
X19006568Y-31496518D01*
X19203482Y-31693432D01*
X19460761Y-31800000D01*
X19739239Y-31800000D01*
X19996518Y-31693432D01*
X20193432Y-31496518D01*
X20300000Y-31239239D01*
X20300000Y-30960761D01*
X20225398Y-30780653D01*
X35300000Y-30780653D01*
X35300000Y-31019347D01*
X35391344Y-31239873D01*
X35560127Y-31408656D01*
X35780653Y-31500000D01*
X36019347Y-31500000D01*
X36066074Y-31480645D01*
X54775010Y-31480645D01*
X54775010Y-31719339D01*
X54866354Y-31939865D01*
X55035137Y-32108648D01*
X55255663Y-32199992D01*
X55494357Y-32199992D01*
X55714883Y-32108648D01*
X55883666Y-31939865D01*
X55975010Y-31719339D01*
X55975010Y-31480645D01*
X55883666Y-31260119D01*
X55714883Y-31091336D01*
X55494357Y-30999992D01*
X55255663Y-30999992D01*
X55035137Y-31091336D01*
X54866354Y-31260119D01*
X54775010Y-31480645D01*
X36066074Y-31480645D01*
X36239873Y-31408656D01*
X36408656Y-31239873D01*
X36500000Y-31019347D01*
X36500000Y-30780653D01*
X36458580Y-30680653D01*
X42700000Y-30680653D01*
X42700000Y-30919347D01*
X42791344Y-31139873D01*
X42960127Y-31308656D01*
X43180653Y-31400000D01*
X43419347Y-31400000D01*
X43639873Y-31308656D01*
X43808656Y-31139873D01*
X43900000Y-30919347D01*
X43900000Y-30680653D01*
X43808656Y-30460127D01*
X43639873Y-30291344D01*
X43419347Y-30200000D01*
X43180653Y-30200000D01*
X42960127Y-30291344D01*
X42791344Y-30460127D01*
X42700000Y-30680653D01*
X36458580Y-30680653D01*
X36408656Y-30560127D01*
X36239873Y-30391344D01*
X36019347Y-30300000D01*
X35780653Y-30300000D01*
X35560127Y-30391344D01*
X35391344Y-30560127D01*
X35300000Y-30780653D01*
X20225398Y-30780653D01*
X20193432Y-30703482D01*
X19996518Y-30506568D01*
X19739239Y-30400000D01*
X19460761Y-30400000D01*
X19203482Y-30506568D01*
X19006568Y-30703482D01*
X18900000Y-30960761D01*
X427000Y-30960761D01*
X427000Y-29939540D01*
X15233149Y-29939540D01*
X15233149Y-30218018D01*
X15339717Y-30475297D01*
X15536631Y-30672211D01*
X15793910Y-30778779D01*
X16072388Y-30778779D01*
X16329667Y-30672211D01*
X16526581Y-30475297D01*
X16633149Y-30218018D01*
X16633149Y-29939540D01*
X16526581Y-29682261D01*
X16329667Y-29485347D01*
X16072388Y-29378779D01*
X15793910Y-29378779D01*
X15536631Y-29485347D01*
X15339717Y-29682261D01*
X15233149Y-29939540D01*
X427000Y-29939540D01*
X427000Y-29230041D01*
X21949388Y-29230041D01*
X21949388Y-29468735D01*
X22040732Y-29689261D01*
X22209515Y-29858044D01*
X22430041Y-29949388D01*
X22500000Y-29949388D01*
X22500000Y-30043735D01*
X22591344Y-30264261D01*
X22760127Y-30433044D01*
X22980653Y-30524388D01*
X23219347Y-30524388D01*
X23439873Y-30433044D01*
X23608656Y-30264261D01*
X23700000Y-30043735D01*
X23700000Y-29805041D01*
X23608656Y-29584515D01*
X23439873Y-29415732D01*
X23219347Y-29324388D01*
X23149388Y-29324388D01*
X23149388Y-29230041D01*
X23058044Y-29009515D01*
X22889261Y-28840732D01*
X22668735Y-28749388D01*
X22430041Y-28749388D01*
X22209515Y-28840732D01*
X22040732Y-29009515D01*
X21949388Y-29230041D01*
X427000Y-29230041D01*
X427000Y-28360761D01*
X2500000Y-28360761D01*
X2500000Y-28639239D01*
X2606568Y-28896518D01*
X2803482Y-29093432D01*
X3060761Y-29200000D01*
X3339239Y-29200000D01*
X3596518Y-29093432D01*
X3793432Y-28896518D01*
X3882845Y-28680653D01*
X26724990Y-28680653D01*
X26724990Y-28919347D01*
X26816334Y-29139873D01*
X26971918Y-29295457D01*
X26816334Y-29451041D01*
X26724990Y-29671567D01*
X26724990Y-29910261D01*
X26816334Y-30130787D01*
X26985117Y-30299570D01*
X27205643Y-30390914D01*
X27444337Y-30390914D01*
X27664863Y-30299570D01*
X27833646Y-30130787D01*
X27924990Y-29910261D01*
X27924990Y-29680653D01*
X38700000Y-29680653D01*
X38700000Y-29919347D01*
X38791344Y-30139873D01*
X38960127Y-30308656D01*
X39180653Y-30400000D01*
X39419347Y-30400000D01*
X39639873Y-30308656D01*
X39808656Y-30139873D01*
X39900000Y-29919347D01*
X39900000Y-29680653D01*
X39808656Y-29460127D01*
X39639873Y-29291344D01*
X39419347Y-29200000D01*
X39180653Y-29200000D01*
X38960127Y-29291344D01*
X38791344Y-29460127D01*
X38700000Y-29680653D01*
X27924990Y-29680653D01*
X27924990Y-29671567D01*
X27833646Y-29451041D01*
X27678062Y-29295457D01*
X27833646Y-29139873D01*
X27847824Y-29105643D01*
X42693406Y-29105643D01*
X42693406Y-29344337D01*
X42784750Y-29564863D01*
X42953533Y-29733646D01*
X43174059Y-29824990D01*
X43412753Y-29824990D01*
X43633279Y-29733646D01*
X43802062Y-29564863D01*
X43872589Y-29394594D01*
X43891344Y-29439873D01*
X44060127Y-29608656D01*
X44280653Y-29700000D01*
X44519347Y-29700000D01*
X44739873Y-29608656D01*
X44887768Y-29460761D01*
X55500000Y-29460761D01*
X55500000Y-29739239D01*
X55606568Y-29996518D01*
X55803482Y-30193432D01*
X56060761Y-30300000D01*
X56339239Y-30300000D01*
X56596518Y-30193432D01*
X56793432Y-29996518D01*
X56900000Y-29739239D01*
X56900000Y-29460761D01*
X61600000Y-29460761D01*
X61600000Y-29739239D01*
X61706568Y-29996518D01*
X61903482Y-30193432D01*
X62160761Y-30300000D01*
X62439239Y-30300000D01*
X62696518Y-30193432D01*
X62893432Y-29996518D01*
X63000000Y-29739239D01*
X63000000Y-29460761D01*
X62893432Y-29203482D01*
X62696518Y-29006568D01*
X62439239Y-28900000D01*
X62160761Y-28900000D01*
X61903482Y-29006568D01*
X61706568Y-29203482D01*
X61600000Y-29460761D01*
X56900000Y-29460761D01*
X56793432Y-29203482D01*
X56596518Y-29006568D01*
X56339239Y-28900000D01*
X56060761Y-28900000D01*
X55803482Y-29006568D01*
X55606568Y-29203482D01*
X55500000Y-29460761D01*
X44887768Y-29460761D01*
X44908656Y-29439873D01*
X45000000Y-29219347D01*
X45000000Y-28980653D01*
X44908656Y-28760127D01*
X44739873Y-28591344D01*
X44519347Y-28500000D01*
X44280653Y-28500000D01*
X44060127Y-28591344D01*
X43891344Y-28760127D01*
X43820817Y-28930396D01*
X43802062Y-28885117D01*
X43682738Y-28765793D01*
X43808656Y-28639875D01*
X43900000Y-28419349D01*
X43900000Y-28180655D01*
X43808656Y-27960129D01*
X43639873Y-27791346D01*
X43419347Y-27700002D01*
X43180653Y-27700002D01*
X42960127Y-27791346D01*
X42791344Y-27960129D01*
X42700000Y-28180655D01*
X42700000Y-28419349D01*
X42791344Y-28639875D01*
X42910668Y-28759199D01*
X42784750Y-28885117D01*
X42693406Y-29105643D01*
X27847824Y-29105643D01*
X27924990Y-28919347D01*
X27924990Y-28680653D01*
X27833646Y-28460127D01*
X27664863Y-28291344D01*
X27444337Y-28200000D01*
X27205643Y-28200000D01*
X26985117Y-28291344D01*
X26816334Y-28460127D01*
X26724990Y-28680653D01*
X3882845Y-28680653D01*
X3900000Y-28639239D01*
X3900000Y-28360761D01*
X3793432Y-28103482D01*
X3596518Y-27906568D01*
X3339239Y-27800000D01*
X3060761Y-27800000D01*
X2803482Y-27906568D01*
X2606568Y-28103482D01*
X2500000Y-28360761D01*
X427000Y-28360761D01*
X427000Y-26825761D01*
X42535000Y-26825761D01*
X42535000Y-27104239D01*
X42641568Y-27361518D01*
X42838482Y-27558432D01*
X43095761Y-27665000D01*
X43374239Y-27665000D01*
X43631518Y-27558432D01*
X43828432Y-27361518D01*
X43935000Y-27104239D01*
X43935000Y-26825761D01*
X43828432Y-26568482D01*
X43631518Y-26371568D01*
X43374239Y-26265000D01*
X43095761Y-26265000D01*
X42838482Y-26371568D01*
X42641568Y-26568482D01*
X42535000Y-26825761D01*
X427000Y-26825761D01*
X427000Y-25733666D01*
X44059712Y-25733666D01*
X44059712Y-26012144D01*
X44166280Y-26269423D01*
X44363194Y-26466337D01*
X44620473Y-26572905D01*
X44898951Y-26572905D01*
X45156230Y-26466337D01*
X45353144Y-26269423D01*
X45459712Y-26012144D01*
X45459712Y-25733666D01*
X45353144Y-25476387D01*
X45156230Y-25279473D01*
X44898951Y-25172905D01*
X44620473Y-25172905D01*
X44363194Y-25279473D01*
X44166280Y-25476387D01*
X44059712Y-25733666D01*
X427000Y-25733666D01*
X427000Y-23960761D01*
X1700000Y-23960761D01*
X1700000Y-24239239D01*
X1806568Y-24496518D01*
X2003482Y-24693432D01*
X2260761Y-24800000D01*
X2539239Y-24800000D01*
X2796518Y-24693432D01*
X2993432Y-24496518D01*
X3000002Y-24480655D01*
X50500000Y-24480655D01*
X50500000Y-24719349D01*
X50591344Y-24939875D01*
X50760127Y-25108658D01*
X50980653Y-25200002D01*
X51219347Y-25200002D01*
X51439873Y-25108658D01*
X51608656Y-24939875D01*
X51700000Y-24719349D01*
X51700000Y-24480655D01*
X51700000Y-24480653D01*
X52700000Y-24480653D01*
X52700000Y-24719347D01*
X52791344Y-24939873D01*
X52960127Y-25108656D01*
X53180653Y-25200000D01*
X53419347Y-25200000D01*
X53639873Y-25108656D01*
X53808656Y-24939873D01*
X53900000Y-24719347D01*
X53900000Y-24480653D01*
X53808656Y-24260127D01*
X53729182Y-24180653D01*
X54200000Y-24180653D01*
X54200000Y-24419347D01*
X54291344Y-24639873D01*
X54460127Y-24808656D01*
X54680653Y-24900000D01*
X54919347Y-24900000D01*
X55139873Y-24808656D01*
X55308656Y-24639873D01*
X55400000Y-24419347D01*
X55400000Y-24180653D01*
X55308656Y-23960127D01*
X55139873Y-23791344D01*
X54919347Y-23700000D01*
X54680653Y-23700000D01*
X54460127Y-23791344D01*
X54291344Y-23960127D01*
X54200000Y-24180653D01*
X53729182Y-24180653D01*
X53639873Y-24091344D01*
X53419347Y-24000000D01*
X53180653Y-24000000D01*
X52960127Y-24091344D01*
X52791344Y-24260127D01*
X52700000Y-24480653D01*
X51700000Y-24480653D01*
X51608656Y-24260129D01*
X51439873Y-24091346D01*
X51219347Y-24000002D01*
X50980653Y-24000002D01*
X50760127Y-24091346D01*
X50591344Y-24260129D01*
X50500000Y-24480655D01*
X3000002Y-24480655D01*
X3100000Y-24239239D01*
X3100000Y-23960761D01*
X2993432Y-23703482D01*
X2796518Y-23506568D01*
X2539239Y-23400000D01*
X2260761Y-23400000D01*
X2003482Y-23506568D01*
X1806568Y-23703482D01*
X1700000Y-23960761D01*
X427000Y-23960761D01*
X427000Y-23180653D01*
X51000000Y-23180653D01*
X51000000Y-23419347D01*
X51091344Y-23639873D01*
X51260127Y-23808656D01*
X51480653Y-23900000D01*
X51719347Y-23900000D01*
X51939873Y-23808656D01*
X52108656Y-23639873D01*
X52200000Y-23419347D01*
X52200000Y-23180653D01*
X52108656Y-22960127D01*
X51939873Y-22791344D01*
X51719347Y-22700000D01*
X51480653Y-22700000D01*
X51260127Y-22791344D01*
X51091344Y-22960127D01*
X51000000Y-23180653D01*
X427000Y-23180653D01*
X427000Y-20480653D01*
X28300002Y-20480653D01*
X28300002Y-20719347D01*
X28391346Y-20939873D01*
X28560129Y-21108656D01*
X28780655Y-21200000D01*
X29019231Y-21200000D01*
X28972784Y-21312134D01*
X28972784Y-21550828D01*
X29064128Y-21771354D01*
X29232911Y-21940137D01*
X29453437Y-22031481D01*
X29692131Y-22031481D01*
X29885559Y-21951361D01*
X40606592Y-21951361D01*
X40606592Y-22190055D01*
X40697936Y-22410581D01*
X40866719Y-22579364D01*
X41087245Y-22670708D01*
X41325939Y-22670708D01*
X41546465Y-22579364D01*
X41715248Y-22410581D01*
X41806592Y-22190055D01*
X41806592Y-21951361D01*
X41777304Y-21880651D01*
X52600000Y-21880651D01*
X52600000Y-22119345D01*
X52691344Y-22339871D01*
X52860127Y-22508654D01*
X53080653Y-22599998D01*
X53319347Y-22599998D01*
X53539873Y-22508654D01*
X53708656Y-22339871D01*
X53800000Y-22119345D01*
X53800000Y-21880651D01*
X53708656Y-21660125D01*
X53659292Y-21610761D01*
X61600000Y-21610761D01*
X61600000Y-21889239D01*
X61706568Y-22146518D01*
X61903482Y-22343432D01*
X62160761Y-22450000D01*
X62439239Y-22450000D01*
X62696518Y-22343432D01*
X62893432Y-22146518D01*
X63000000Y-21889239D01*
X63000000Y-21610761D01*
X62893432Y-21353482D01*
X62696518Y-21156568D01*
X62439239Y-21050000D01*
X62160761Y-21050000D01*
X61903482Y-21156568D01*
X61706568Y-21353482D01*
X61600000Y-21610761D01*
X53659292Y-21610761D01*
X53539873Y-21491342D01*
X53319347Y-21399998D01*
X53080653Y-21399998D01*
X52860127Y-21491342D01*
X52691344Y-21660125D01*
X52600000Y-21880651D01*
X41777304Y-21880651D01*
X41715248Y-21730835D01*
X41546465Y-21562052D01*
X41325939Y-21470708D01*
X41087245Y-21470708D01*
X40866719Y-21562052D01*
X40697936Y-21730835D01*
X40606592Y-21951361D01*
X29885559Y-21951361D01*
X29912657Y-21940137D01*
X30081440Y-21771354D01*
X30172784Y-21550828D01*
X30172784Y-21312134D01*
X30081440Y-21091608D01*
X29970485Y-20980653D01*
X34900000Y-20980653D01*
X34900000Y-21219347D01*
X34991344Y-21439873D01*
X35160127Y-21608656D01*
X35380653Y-21700000D01*
X35619347Y-21700000D01*
X35839873Y-21608656D01*
X36008656Y-21439873D01*
X36100000Y-21219347D01*
X36100000Y-20980653D01*
X36008656Y-20760127D01*
X35839873Y-20591344D01*
X35619347Y-20500000D01*
X35380653Y-20500000D01*
X35160127Y-20591344D01*
X34991344Y-20760127D01*
X34900000Y-20980653D01*
X29970485Y-20980653D01*
X29912657Y-20922825D01*
X29692131Y-20831481D01*
X29453555Y-20831481D01*
X29500002Y-20719347D01*
X29500002Y-20480653D01*
X29417161Y-20280653D01*
X36600000Y-20280653D01*
X36600000Y-20519347D01*
X36691344Y-20739873D01*
X36860127Y-20908656D01*
X37080653Y-21000000D01*
X37319347Y-21000000D01*
X37539873Y-20908656D01*
X37708656Y-20739873D01*
X37800000Y-20519347D01*
X37800000Y-20280653D01*
X37708656Y-20060127D01*
X37539873Y-19891344D01*
X37319347Y-19800000D01*
X37080653Y-19800000D01*
X36860127Y-19891344D01*
X36691344Y-20060127D01*
X36600000Y-20280653D01*
X29417161Y-20280653D01*
X29408658Y-20260127D01*
X29239875Y-20091344D01*
X29019349Y-20000000D01*
X28780655Y-20000000D01*
X28560129Y-20091344D01*
X28391346Y-20260127D01*
X28300002Y-20480653D01*
X427000Y-20480653D01*
X427000Y-18471251D01*
X41450000Y-18471251D01*
X41450000Y-18928749D01*
X41625077Y-19351423D01*
X41948577Y-19674923D01*
X42009118Y-19700000D01*
X41948577Y-19725077D01*
X41625077Y-20048577D01*
X41450000Y-20471251D01*
X41450000Y-20928749D01*
X41625077Y-21351423D01*
X41948577Y-21674923D01*
X42371251Y-21850000D01*
X42828749Y-21850000D01*
X43251423Y-21674923D01*
X43574923Y-21351423D01*
X43750000Y-20928749D01*
X43750000Y-20471251D01*
X43574923Y-20048577D01*
X43251423Y-19725077D01*
X43190882Y-19700000D01*
X43251423Y-19674923D01*
X43574923Y-19351423D01*
X43750000Y-18928749D01*
X43750000Y-18471251D01*
X45550000Y-18471251D01*
X45550000Y-18928749D01*
X45725077Y-19351423D01*
X46048577Y-19674923D01*
X46109118Y-19700000D01*
X46048577Y-19725077D01*
X45725077Y-20048577D01*
X45550000Y-20471251D01*
X45550000Y-20928749D01*
X45725077Y-21351423D01*
X46048577Y-21674923D01*
X46471251Y-21850000D01*
X46928749Y-21850000D01*
X47351423Y-21674923D01*
X47674923Y-21351423D01*
X47787079Y-21080653D01*
X51300000Y-21080653D01*
X51300000Y-21319347D01*
X51391344Y-21539873D01*
X51560127Y-21708656D01*
X51780653Y-21800000D01*
X52019347Y-21800000D01*
X52239873Y-21708656D01*
X52408656Y-21539873D01*
X52500000Y-21319347D01*
X52500000Y-21080653D01*
X52408656Y-20860127D01*
X52239873Y-20691344D01*
X52019347Y-20600000D01*
X51780653Y-20600000D01*
X51560127Y-20691344D01*
X51391344Y-20860127D01*
X51300000Y-21080653D01*
X47787079Y-21080653D01*
X47850000Y-20928749D01*
X47850000Y-20471251D01*
X47674923Y-20048577D01*
X47351423Y-19725077D01*
X47290882Y-19700000D01*
X47351423Y-19674923D01*
X47674923Y-19351423D01*
X47850000Y-18928749D01*
X47850000Y-18471251D01*
X47674923Y-18048577D01*
X47351423Y-17725077D01*
X46928749Y-17550000D01*
X46471251Y-17550000D01*
X46048577Y-17725077D01*
X45725077Y-18048577D01*
X45550000Y-18471251D01*
X43750000Y-18471251D01*
X43574923Y-18048577D01*
X43251423Y-17725077D01*
X42828749Y-17550000D01*
X42371251Y-17550000D01*
X41948577Y-17725077D01*
X41625077Y-18048577D01*
X41450000Y-18471251D01*
X427000Y-18471251D01*
X427000Y-17180653D01*
X8300000Y-17180653D01*
X8300000Y-17419347D01*
X8391344Y-17639873D01*
X8560127Y-17808656D01*
X8780653Y-17900000D01*
X9019347Y-17900000D01*
X9239873Y-17808656D01*
X9408656Y-17639873D01*
X9500000Y-17419347D01*
X9500000Y-17180653D01*
X9458580Y-17080653D01*
X10000000Y-17080653D01*
X10000000Y-17319347D01*
X10091344Y-17539873D01*
X10260127Y-17708656D01*
X10480653Y-17800000D01*
X10719347Y-17800000D01*
X10939873Y-17708656D01*
X11108656Y-17539873D01*
X11200000Y-17319347D01*
X11200000Y-17080653D01*
X11108656Y-16860127D01*
X10939873Y-16691344D01*
X10915374Y-16681196D01*
X58700000Y-16681196D01*
X58700000Y-17118804D01*
X58867465Y-17523100D01*
X59176900Y-17832535D01*
X59581196Y-18000000D01*
X60018804Y-18000000D01*
X60423100Y-17832535D01*
X60732535Y-17523100D01*
X60900000Y-17118804D01*
X60900000Y-16681196D01*
X60732535Y-16276900D01*
X60423100Y-15967465D01*
X60018804Y-15800000D01*
X59581196Y-15800000D01*
X59176900Y-15967465D01*
X58867465Y-16276900D01*
X58700000Y-16681196D01*
X10915374Y-16681196D01*
X10719347Y-16600000D01*
X10480653Y-16600000D01*
X10260127Y-16691344D01*
X10091344Y-16860127D01*
X10000000Y-17080653D01*
X9458580Y-17080653D01*
X9408656Y-16960127D01*
X9239873Y-16791344D01*
X9019347Y-16700000D01*
X8780653Y-16700000D01*
X8560127Y-16791344D01*
X8391344Y-16960127D01*
X8300000Y-17180653D01*
X427000Y-17180653D01*
X427000Y-15833456D01*
X41872695Y-15833456D01*
X41872695Y-16111934D01*
X41979263Y-16369213D01*
X42176177Y-16566127D01*
X42433456Y-16672695D01*
X42711934Y-16672695D01*
X42969213Y-16566127D01*
X43166127Y-16369213D01*
X43272695Y-16111934D01*
X43272695Y-15833456D01*
X43166127Y-15576177D01*
X42969213Y-15379263D01*
X42711934Y-15272695D01*
X42433456Y-15272695D01*
X42176177Y-15379263D01*
X41979263Y-15576177D01*
X41872695Y-15833456D01*
X427000Y-15833456D01*
X427000Y-14680653D01*
X4300000Y-14680653D01*
X4300000Y-14919347D01*
X4391344Y-15139873D01*
X4560127Y-15308656D01*
X4780653Y-15400000D01*
X5019347Y-15400000D01*
X5239873Y-15308656D01*
X5408656Y-15139873D01*
X5433185Y-15080653D01*
X22300000Y-15080653D01*
X22300000Y-15319347D01*
X22391344Y-15539873D01*
X22560127Y-15708656D01*
X22780653Y-15800000D01*
X23019347Y-15800000D01*
X23239873Y-15708656D01*
X23408656Y-15539873D01*
X23500000Y-15319347D01*
X23500000Y-15080653D01*
X28300000Y-15080653D01*
X28300000Y-15319347D01*
X28391344Y-15539873D01*
X28560127Y-15708656D01*
X28780653Y-15800000D01*
X29019347Y-15800000D01*
X29239873Y-15708656D01*
X29408656Y-15539873D01*
X29500000Y-15319347D01*
X29500000Y-15300000D01*
X29719347Y-15300000D01*
X29939873Y-15208656D01*
X30108656Y-15039873D01*
X30200000Y-14819347D01*
X30200000Y-14580653D01*
X30108656Y-14360127D01*
X29939873Y-14191344D01*
X29719347Y-14100000D01*
X29480653Y-14100000D01*
X29260127Y-14191344D01*
X29091344Y-14360127D01*
X29000000Y-14580653D01*
X29000000Y-14600000D01*
X28780653Y-14600000D01*
X28560127Y-14691344D01*
X28391344Y-14860127D01*
X28300000Y-15080653D01*
X23500000Y-15080653D01*
X23408656Y-14860127D01*
X23239873Y-14691344D01*
X23019347Y-14600000D01*
X22780653Y-14600000D01*
X22560127Y-14691344D01*
X22391344Y-14860127D01*
X22300000Y-15080653D01*
X5433185Y-15080653D01*
X5500000Y-14919347D01*
X5500000Y-14680653D01*
X5408656Y-14460127D01*
X5239873Y-14291344D01*
X5019347Y-14200000D01*
X4780653Y-14200000D01*
X4560127Y-14291344D01*
X4391344Y-14460127D01*
X4300000Y-14680653D01*
X427000Y-14680653D01*
X427000Y-12395775D01*
X7070405Y-12395775D01*
X7070405Y-12674253D01*
X7176973Y-12931532D01*
X7373887Y-13128446D01*
X7631166Y-13235014D01*
X7696121Y-13235014D01*
X7560127Y-13291344D01*
X7391344Y-13460127D01*
X7300000Y-13680653D01*
X7300000Y-13919347D01*
X7391344Y-14139873D01*
X7560127Y-14308656D01*
X7780653Y-14400000D01*
X8019347Y-14400000D01*
X8239873Y-14308656D01*
X8408656Y-14139873D01*
X8500000Y-13919347D01*
X8500000Y-13680653D01*
X9400004Y-13680653D01*
X9400004Y-13919347D01*
X9491348Y-14139873D01*
X9660131Y-14308656D01*
X9880657Y-14400000D01*
X10119351Y-14400000D01*
X10339877Y-14308656D01*
X10508660Y-14139873D01*
X10600004Y-13919347D01*
X10600004Y-13680653D01*
X10508660Y-13460127D01*
X10339877Y-13291344D01*
X10119351Y-13200000D01*
X9880657Y-13200000D01*
X9660131Y-13291344D01*
X9491348Y-13460127D01*
X9400004Y-13680653D01*
X8500000Y-13680653D01*
X8408656Y-13460127D01*
X8239873Y-13291344D01*
X8019347Y-13200000D01*
X7994176Y-13200000D01*
X8166923Y-13128446D01*
X8363837Y-12931532D01*
X8470405Y-12674253D01*
X8470405Y-12617210D01*
X18211096Y-12617210D01*
X18211096Y-12895688D01*
X18317664Y-13152967D01*
X18514578Y-13349881D01*
X18562385Y-13369683D01*
X18510091Y-13391344D01*
X18341308Y-13560127D01*
X18249964Y-13780653D01*
X18249964Y-14019347D01*
X18341308Y-14239873D01*
X18510091Y-14408656D01*
X18730617Y-14500000D01*
X18969311Y-14500000D01*
X19189837Y-14408656D01*
X19358620Y-14239873D01*
X19449964Y-14019347D01*
X19449964Y-13780653D01*
X19358620Y-13560127D01*
X19195014Y-13396521D01*
X19307614Y-13349881D01*
X19504528Y-13152967D01*
X19542720Y-13060761D01*
X22200000Y-13060761D01*
X22200000Y-13339239D01*
X22306568Y-13596518D01*
X22503482Y-13793432D01*
X22760761Y-13900000D01*
X23039239Y-13900000D01*
X23296518Y-13793432D01*
X23493432Y-13596518D01*
X23600000Y-13339239D01*
X23600000Y-13260761D01*
X56200000Y-13260761D01*
X56200000Y-13539239D01*
X56306568Y-13796518D01*
X56503482Y-13993432D01*
X56760761Y-14100000D01*
X57039239Y-14100000D01*
X57296518Y-13993432D01*
X57493432Y-13796518D01*
X57574832Y-13600000D01*
X58694123Y-13600000D01*
X58694123Y-15200000D01*
X58717407Y-15317054D01*
X58783712Y-15416288D01*
X58882946Y-15482593D01*
X59000000Y-15505877D01*
X60600000Y-15505877D01*
X60717054Y-15482593D01*
X60816288Y-15416288D01*
X60882593Y-15317054D01*
X60905877Y-15200000D01*
X60905877Y-13730923D01*
X64850000Y-13730923D01*
X64850000Y-14069073D01*
X64979405Y-14381484D01*
X65218514Y-14620593D01*
X65530925Y-14749998D01*
X65869075Y-14749998D01*
X66181486Y-14620593D01*
X66420595Y-14381484D01*
X66550000Y-14069073D01*
X66550000Y-13730923D01*
X66420595Y-13418512D01*
X66181486Y-13179403D01*
X65869075Y-13049998D01*
X65530925Y-13049998D01*
X65218514Y-13179403D01*
X64979405Y-13418512D01*
X64850000Y-13730923D01*
X60905877Y-13730923D01*
X60905877Y-13600000D01*
X60882593Y-13482946D01*
X60816288Y-13383712D01*
X60717054Y-13317407D01*
X60600000Y-13294123D01*
X59000000Y-13294123D01*
X58882946Y-13317407D01*
X58783712Y-13383712D01*
X58717407Y-13482946D01*
X58694123Y-13600000D01*
X57574832Y-13600000D01*
X57600000Y-13539239D01*
X57600000Y-13260761D01*
X57493432Y-13003482D01*
X57296518Y-12806568D01*
X57039239Y-12700000D01*
X56760761Y-12700000D01*
X56503482Y-12806568D01*
X56306568Y-13003482D01*
X56200000Y-13260761D01*
X23600000Y-13260761D01*
X23600000Y-13060761D01*
X23493432Y-12803482D01*
X23296518Y-12606568D01*
X23039239Y-12500000D01*
X22760761Y-12500000D01*
X22503482Y-12606568D01*
X22306568Y-12803482D01*
X22200000Y-13060761D01*
X19542720Y-13060761D01*
X19611096Y-12895688D01*
X19611096Y-12617210D01*
X19504528Y-12359931D01*
X19307614Y-12163017D01*
X19050335Y-12056449D01*
X18771857Y-12056449D01*
X18514578Y-12163017D01*
X18317664Y-12359931D01*
X18211096Y-12617210D01*
X8470405Y-12617210D01*
X8470405Y-12395775D01*
X8363837Y-12138496D01*
X8166923Y-11941582D01*
X7909644Y-11835014D01*
X7631166Y-11835014D01*
X7373887Y-11941582D01*
X7176973Y-12138496D01*
X7070405Y-12395775D01*
X427000Y-12395775D01*
X427000Y-11180653D01*
X24900000Y-11180653D01*
X24900000Y-11419347D01*
X24991344Y-11639873D01*
X25160127Y-11808656D01*
X25380653Y-11900000D01*
X25619347Y-11900000D01*
X25839873Y-11808656D01*
X26008656Y-11639873D01*
X26100000Y-11419347D01*
X26100000Y-11230021D01*
X27059599Y-11230021D01*
X27059599Y-11508499D01*
X27166167Y-11765778D01*
X27363081Y-11962692D01*
X27620360Y-12069260D01*
X27898838Y-12069260D01*
X28156117Y-11962692D01*
X28353031Y-11765778D01*
X28396530Y-11660761D01*
X42500000Y-11660761D01*
X42500000Y-11939239D01*
X42606568Y-12196518D01*
X42803482Y-12393432D01*
X43060761Y-12500000D01*
X43339239Y-12500000D01*
X43596518Y-12393432D01*
X43793432Y-12196518D01*
X43800003Y-12180653D01*
X51500000Y-12180653D01*
X51500000Y-12419347D01*
X51591344Y-12639873D01*
X51760127Y-12808656D01*
X51980653Y-12900000D01*
X52219347Y-12900000D01*
X52439873Y-12808656D01*
X52608656Y-12639873D01*
X52700000Y-12419347D01*
X52700000Y-12180653D01*
X52608656Y-11960127D01*
X52439873Y-11791344D01*
X52219347Y-11700000D01*
X51980653Y-11700000D01*
X51760127Y-11791344D01*
X51591344Y-11960127D01*
X51500000Y-12180653D01*
X43800003Y-12180653D01*
X43900000Y-11939239D01*
X43900000Y-11660761D01*
X56000000Y-11660761D01*
X56000000Y-11939239D01*
X56106568Y-12196518D01*
X56303482Y-12393432D01*
X56560761Y-12500000D01*
X56839239Y-12500000D01*
X57096518Y-12393432D01*
X57293432Y-12196518D01*
X57362022Y-12030925D01*
X61650000Y-12030925D01*
X61650000Y-12369075D01*
X61779405Y-12681486D01*
X62018514Y-12920595D01*
X62330925Y-13050000D01*
X62669075Y-13050000D01*
X62981486Y-12920595D01*
X63220595Y-12681486D01*
X63350000Y-12369075D01*
X63350000Y-12330925D01*
X67850000Y-12330925D01*
X67850000Y-12669075D01*
X67979405Y-12981486D01*
X68218514Y-13220595D01*
X68530925Y-13350000D01*
X68869075Y-13350000D01*
X69181486Y-13220595D01*
X69420595Y-12981486D01*
X69550000Y-12669075D01*
X69550000Y-12330925D01*
X69420595Y-12018514D01*
X69181486Y-11779405D01*
X68869075Y-11650000D01*
X68530925Y-11650000D01*
X68218514Y-11779405D01*
X67979405Y-12018514D01*
X67850000Y-12330925D01*
X63350000Y-12330925D01*
X63350000Y-12030925D01*
X63220595Y-11718514D01*
X62981486Y-11479405D01*
X62669075Y-11350000D01*
X62330925Y-11350000D01*
X62018514Y-11479405D01*
X61779405Y-11718514D01*
X61650000Y-12030925D01*
X57362022Y-12030925D01*
X57400000Y-11939239D01*
X57400000Y-11660761D01*
X57293432Y-11403482D01*
X57096518Y-11206568D01*
X56839239Y-11100000D01*
X56560761Y-11100000D01*
X56303482Y-11206568D01*
X56106568Y-11403482D01*
X56000000Y-11660761D01*
X43900000Y-11660761D01*
X43793432Y-11403482D01*
X43596518Y-11206568D01*
X43339239Y-11100000D01*
X43060761Y-11100000D01*
X42803482Y-11206568D01*
X42606568Y-11403482D01*
X42500000Y-11660761D01*
X28396530Y-11660761D01*
X28459599Y-11508499D01*
X28459599Y-11230021D01*
X28353031Y-10972742D01*
X28156117Y-10775828D01*
X28119742Y-10760761D01*
X45000000Y-10760761D01*
X45000000Y-11039239D01*
X45106568Y-11296518D01*
X45303482Y-11493432D01*
X45560761Y-11600000D01*
X45839239Y-11600000D01*
X46096518Y-11493432D01*
X46293432Y-11296518D01*
X46400000Y-11039239D01*
X46400000Y-10760761D01*
X46293432Y-10503482D01*
X46096518Y-10306568D01*
X45839239Y-10200000D01*
X45560761Y-10200000D01*
X45303482Y-10306568D01*
X45106568Y-10503482D01*
X45000000Y-10760761D01*
X28119742Y-10760761D01*
X27898838Y-10669260D01*
X27620360Y-10669260D01*
X27363081Y-10775828D01*
X27166167Y-10972742D01*
X27059599Y-11230021D01*
X26100000Y-11230021D01*
X26100000Y-11180653D01*
X26008656Y-10960127D01*
X25988542Y-10940013D01*
X26152961Y-11008117D01*
X26391655Y-11008117D01*
X26612181Y-10916773D01*
X26780964Y-10747990D01*
X26872308Y-10527464D01*
X26872308Y-10288770D01*
X26780964Y-10068244D01*
X26612181Y-9899461D01*
X26391655Y-9808117D01*
X26152961Y-9808117D01*
X25932435Y-9899461D01*
X25763652Y-10068244D01*
X25672308Y-10288770D01*
X25672308Y-10527464D01*
X25763652Y-10747990D01*
X25783766Y-10768104D01*
X25619347Y-10700000D01*
X25380653Y-10700000D01*
X25160127Y-10791344D01*
X24991344Y-10960127D01*
X24900000Y-11180653D01*
X427000Y-11180653D01*
X427000Y-9460761D01*
X5100000Y-9460761D01*
X5100000Y-9739239D01*
X5206568Y-9996518D01*
X5403482Y-10193432D01*
X5660761Y-10300000D01*
X5939239Y-10300000D01*
X6033970Y-10260761D01*
X19100000Y-10260761D01*
X19100000Y-10539239D01*
X19206568Y-10796518D01*
X19403482Y-10993432D01*
X19660761Y-11100000D01*
X19939239Y-11100000D01*
X20196518Y-10993432D01*
X20393432Y-10796518D01*
X20500000Y-10539239D01*
X20500000Y-10260761D01*
X20393432Y-10003482D01*
X20196518Y-9806568D01*
X19939239Y-9700000D01*
X19660761Y-9700000D01*
X19403482Y-9806568D01*
X19206568Y-10003482D01*
X19100000Y-10260761D01*
X6033970Y-10260761D01*
X6196518Y-10193432D01*
X6393432Y-9996518D01*
X6500000Y-9739239D01*
X6500000Y-9460761D01*
X6393432Y-9203482D01*
X6196518Y-9006568D01*
X5939239Y-8900000D01*
X5660761Y-8900000D01*
X5403482Y-9006568D01*
X5206568Y-9203482D01*
X5100000Y-9460761D01*
X427000Y-9460761D01*
X427000Y-7755226D01*
X4364302Y-7755226D01*
X4364302Y-7993920D01*
X4455646Y-8214446D01*
X4624429Y-8383229D01*
X4844955Y-8474573D01*
X5083649Y-8474573D01*
X5304175Y-8383229D01*
X5472958Y-8214446D01*
X5551302Y-8025304D01*
X8422182Y-8025304D01*
X8422182Y-8303782D01*
X8528750Y-8561061D01*
X8725664Y-8757975D01*
X8982943Y-8864543D01*
X9261421Y-8864543D01*
X9518700Y-8757975D01*
X9715614Y-8561061D01*
X9822182Y-8303782D01*
X9822182Y-8160761D01*
X19000000Y-8160761D01*
X19000000Y-8439239D01*
X19106568Y-8696518D01*
X19303482Y-8893432D01*
X19560761Y-9000000D01*
X19839239Y-9000000D01*
X20096518Y-8893432D01*
X20293432Y-8696518D01*
X20347698Y-8565506D01*
X22899996Y-8565506D01*
X22899996Y-8843984D01*
X23006564Y-9101263D01*
X23203478Y-9298177D01*
X23460757Y-9404745D01*
X23739235Y-9404745D01*
X23996514Y-9298177D01*
X24183930Y-9110761D01*
X27372813Y-9110761D01*
X27372813Y-9389239D01*
X27479381Y-9646518D01*
X27676295Y-9843432D01*
X27933574Y-9950000D01*
X28212052Y-9950000D01*
X28469331Y-9843432D01*
X28509589Y-9803174D01*
X48717688Y-9803174D01*
X48717688Y-10081652D01*
X48824256Y-10338931D01*
X49021170Y-10535845D01*
X49278449Y-10642413D01*
X49556927Y-10642413D01*
X49814206Y-10535845D01*
X50011120Y-10338931D01*
X50117688Y-10081652D01*
X50117688Y-9854194D01*
X55537135Y-9854194D01*
X55537135Y-10092888D01*
X55628479Y-10313414D01*
X55797262Y-10482197D01*
X56017788Y-10573541D01*
X56256482Y-10573541D01*
X56477008Y-10482197D01*
X56628280Y-10330925D01*
X64750000Y-10330925D01*
X64750000Y-10669075D01*
X64879405Y-10981486D01*
X65118514Y-11220595D01*
X65430925Y-11350000D01*
X65769075Y-11350000D01*
X66081486Y-11220595D01*
X66320595Y-10981486D01*
X66450000Y-10669075D01*
X66450000Y-10330925D01*
X66320595Y-10018514D01*
X66081486Y-9779405D01*
X65769075Y-9650000D01*
X65430925Y-9650000D01*
X65118514Y-9779405D01*
X64879405Y-10018514D01*
X64750000Y-10330925D01*
X56628280Y-10330925D01*
X56645791Y-10313414D01*
X56737135Y-10092888D01*
X56737135Y-9854194D01*
X56645791Y-9633668D01*
X56477008Y-9464885D01*
X56256482Y-9373541D01*
X56017788Y-9373541D01*
X55797262Y-9464885D01*
X55628479Y-9633668D01*
X55537135Y-9854194D01*
X50117688Y-9854194D01*
X50117688Y-9803174D01*
X50011120Y-9545895D01*
X49814206Y-9348981D01*
X49556927Y-9242413D01*
X49278449Y-9242413D01*
X49021170Y-9348981D01*
X48824256Y-9545895D01*
X48717688Y-9803174D01*
X28509589Y-9803174D01*
X28666245Y-9646518D01*
X28772813Y-9389239D01*
X28772813Y-9262769D01*
X28837781Y-9419616D01*
X29034695Y-9616530D01*
X29291974Y-9723098D01*
X29570452Y-9723098D01*
X29827731Y-9616530D01*
X30024645Y-9419616D01*
X30131213Y-9162337D01*
X30131213Y-8949073D01*
X35354422Y-8949073D01*
X35354422Y-9187767D01*
X35445766Y-9408293D01*
X35614549Y-9577076D01*
X35835075Y-9668420D01*
X36073769Y-9668420D01*
X36294295Y-9577076D01*
X36463078Y-9408293D01*
X36554422Y-9187767D01*
X36554422Y-8949073D01*
X36463078Y-8728547D01*
X36294295Y-8559764D01*
X36073769Y-8468420D01*
X35835075Y-8468420D01*
X35614549Y-8559764D01*
X35445766Y-8728547D01*
X35354422Y-8949073D01*
X30131213Y-8949073D01*
X30131213Y-8883859D01*
X30024645Y-8626580D01*
X29827731Y-8429666D01*
X29570452Y-8323098D01*
X29291974Y-8323098D01*
X29034695Y-8429666D01*
X28837781Y-8626580D01*
X28731213Y-8883859D01*
X28731213Y-9010329D01*
X28666245Y-8853482D01*
X28469331Y-8656568D01*
X28212052Y-8550000D01*
X27933574Y-8550000D01*
X27676295Y-8656568D01*
X27479381Y-8853482D01*
X27372813Y-9110761D01*
X24183930Y-9110761D01*
X24193428Y-9101263D01*
X24299996Y-8843984D01*
X24299996Y-8565506D01*
X24193428Y-8308227D01*
X23996514Y-8111313D01*
X23739235Y-8004745D01*
X23460757Y-8004745D01*
X23203478Y-8111313D01*
X23006564Y-8308227D01*
X22899996Y-8565506D01*
X20347698Y-8565506D01*
X20400000Y-8439239D01*
X20400000Y-8160761D01*
X20293432Y-7903482D01*
X20096518Y-7706568D01*
X19839239Y-7600000D01*
X19560761Y-7600000D01*
X19303482Y-7706568D01*
X19106568Y-7903482D01*
X19000000Y-8160761D01*
X9822182Y-8160761D01*
X9822182Y-8025304D01*
X9715614Y-7768025D01*
X9518700Y-7571111D01*
X9261421Y-7464543D01*
X8982943Y-7464543D01*
X8725664Y-7571111D01*
X8528750Y-7768025D01*
X8422182Y-8025304D01*
X5551302Y-8025304D01*
X5564302Y-7993920D01*
X5564302Y-7755226D01*
X5472958Y-7534700D01*
X5366152Y-7427894D01*
X27464020Y-7427894D01*
X27464020Y-7706372D01*
X27570588Y-7963651D01*
X27767502Y-8160565D01*
X28024781Y-8267133D01*
X28303259Y-8267133D01*
X28560538Y-8160565D01*
X28757452Y-7963651D01*
X28864020Y-7706372D01*
X28864020Y-7427894D01*
X28815649Y-7311114D01*
X38376722Y-7311114D01*
X38376722Y-7549808D01*
X38468066Y-7770334D01*
X38636849Y-7939117D01*
X38857375Y-8030461D01*
X39096069Y-8030461D01*
X39316595Y-7939117D01*
X39323164Y-7932548D01*
X40876070Y-7932548D01*
X40876070Y-8211026D01*
X40982638Y-8468305D01*
X41179552Y-8665219D01*
X41436831Y-8771787D01*
X41715309Y-8771787D01*
X41972588Y-8665219D01*
X41977046Y-8660761D01*
X47300000Y-8660761D01*
X47300000Y-8939239D01*
X47406568Y-9196518D01*
X47603482Y-9393432D01*
X47860761Y-9500000D01*
X48139239Y-9500000D01*
X48396518Y-9393432D01*
X48593432Y-9196518D01*
X48700000Y-8939239D01*
X48700000Y-8660761D01*
X48677318Y-8606000D01*
X70292000Y-8606000D01*
X70292000Y-9220939D01*
X70384563Y-9444405D01*
X70555596Y-9615438D01*
X70779062Y-9708000D01*
X71394000Y-9708000D01*
X71545998Y-9556002D01*
X71545998Y-9700000D01*
X71481196Y-9700000D01*
X71076900Y-9867465D01*
X70767465Y-10176900D01*
X70600000Y-10581196D01*
X70600000Y-11018804D01*
X70767465Y-11423100D01*
X71076900Y-11732535D01*
X71481196Y-11900000D01*
X71918804Y-11900000D01*
X72323100Y-11732535D01*
X72632535Y-11423100D01*
X72800000Y-11018804D01*
X72800000Y-10581196D01*
X72632535Y-10176900D01*
X72323100Y-9867465D01*
X71918804Y-9700000D01*
X71854002Y-9700000D01*
X71854002Y-9556002D01*
X72006000Y-9708000D01*
X72620938Y-9708000D01*
X72844404Y-9615438D01*
X73015437Y-9444405D01*
X73108000Y-9220939D01*
X73108000Y-8606000D01*
X72956000Y-8454000D01*
X71854000Y-8454000D01*
X71854000Y-8474000D01*
X71546000Y-8474000D01*
X71546000Y-8454000D01*
X70444000Y-8454000D01*
X70292000Y-8606000D01*
X48677318Y-8606000D01*
X48593432Y-8403482D01*
X48396518Y-8206568D01*
X48139239Y-8100000D01*
X47860761Y-8100000D01*
X47603482Y-8206568D01*
X47406568Y-8403482D01*
X47300000Y-8660761D01*
X41977046Y-8660761D01*
X42169502Y-8468305D01*
X42276070Y-8211026D01*
X42276070Y-7932548D01*
X42177407Y-7694352D01*
X45058495Y-7694352D01*
X45058495Y-7972830D01*
X45165063Y-8230109D01*
X45361977Y-8427023D01*
X45619256Y-8533591D01*
X45897734Y-8533591D01*
X46155013Y-8427023D01*
X46351927Y-8230109D01*
X46458495Y-7972830D01*
X46458495Y-7694352D01*
X46351927Y-7437073D01*
X46293915Y-7379061D01*
X70292000Y-7379061D01*
X70292000Y-7994000D01*
X70444000Y-8146000D01*
X71546000Y-8146000D01*
X71546000Y-7044000D01*
X71854000Y-7044000D01*
X71854000Y-8146000D01*
X72956000Y-8146000D01*
X73108000Y-7994000D01*
X73108000Y-7379061D01*
X73015437Y-7155595D01*
X72844404Y-6984562D01*
X72620938Y-6892000D01*
X72006000Y-6892000D01*
X71854000Y-7044000D01*
X71546000Y-7044000D01*
X71394000Y-6892000D01*
X70779062Y-6892000D01*
X70555596Y-6984562D01*
X70384563Y-7155595D01*
X70292000Y-7379061D01*
X46293915Y-7379061D01*
X46155013Y-7240159D01*
X45897734Y-7133591D01*
X45619256Y-7133591D01*
X45361977Y-7240159D01*
X45165063Y-7437073D01*
X45058495Y-7694352D01*
X42177407Y-7694352D01*
X42169502Y-7675269D01*
X41972588Y-7478355D01*
X41715309Y-7371787D01*
X41436831Y-7371787D01*
X41179552Y-7478355D01*
X40982638Y-7675269D01*
X40876070Y-7932548D01*
X39323164Y-7932548D01*
X39485378Y-7770334D01*
X39576722Y-7549808D01*
X39576722Y-7311114D01*
X39485378Y-7090588D01*
X39316595Y-6921805D01*
X39096069Y-6830461D01*
X38857375Y-6830461D01*
X38636849Y-6921805D01*
X38468066Y-7090588D01*
X38376722Y-7311114D01*
X28815649Y-7311114D01*
X28757452Y-7170615D01*
X28560538Y-6973701D01*
X28303259Y-6867133D01*
X28024781Y-6867133D01*
X27767502Y-6973701D01*
X27570588Y-7170615D01*
X27464020Y-7427894D01*
X5366152Y-7427894D01*
X5304175Y-7365917D01*
X5083649Y-7274573D01*
X4844955Y-7274573D01*
X4624429Y-7365917D01*
X4455646Y-7534700D01*
X4364302Y-7755226D01*
X427000Y-7755226D01*
X427000Y-6427000D01*
X2968197Y-6427000D01*
X3000000Y-6433326D01*
X3031803Y-6427000D01*
X3042054Y-6427000D01*
X3166607Y-6402225D01*
X3307850Y-6307850D01*
X3337370Y-6263670D01*
X4959082Y-4641958D01*
X10700000Y-4641958D01*
X10700000Y-5358042D01*
X10974034Y-6019618D01*
X11480382Y-6525966D01*
X12141958Y-6800000D01*
X12858042Y-6800000D01*
X13519618Y-6525966D01*
X14025966Y-6019618D01*
X14079405Y-5890603D01*
X38563103Y-5890603D01*
X38563103Y-6169081D01*
X38669671Y-6426360D01*
X38866585Y-6623274D01*
X39123864Y-6729842D01*
X39402342Y-6729842D01*
X39659621Y-6623274D01*
X39837778Y-6445118D01*
X39949803Y-6557143D01*
X40207082Y-6663711D01*
X40485560Y-6663711D01*
X40742839Y-6557143D01*
X40939753Y-6360229D01*
X41046321Y-6102950D01*
X41046321Y-5860761D01*
X48500000Y-5860761D01*
X48500000Y-6139239D01*
X48606568Y-6396518D01*
X48803482Y-6593432D01*
X49060761Y-6700000D01*
X49339239Y-6700000D01*
X49596518Y-6593432D01*
X49793432Y-6396518D01*
X49900000Y-6139239D01*
X49900000Y-5860761D01*
X49793432Y-5603482D01*
X49596518Y-5406568D01*
X49339239Y-5300000D01*
X49060761Y-5300000D01*
X48803482Y-5406568D01*
X48606568Y-5603482D01*
X48500000Y-5860761D01*
X41046321Y-5860761D01*
X41046321Y-5824472D01*
X40939753Y-5567193D01*
X40742839Y-5370279D01*
X40485560Y-5263711D01*
X40207082Y-5263711D01*
X40046116Y-5330385D01*
X40046116Y-5077069D01*
X39939548Y-4819790D01*
X39761716Y-4641958D01*
X60700000Y-4641958D01*
X60700000Y-5358042D01*
X60974034Y-6019618D01*
X61480382Y-6525966D01*
X62141958Y-6800000D01*
X62858042Y-6800000D01*
X63519618Y-6525966D01*
X64025966Y-6019618D01*
X64300000Y-5358042D01*
X64300000Y-4641958D01*
X64025966Y-3980382D01*
X63519618Y-3474034D01*
X62858042Y-3200000D01*
X62141958Y-3200000D01*
X61480382Y-3474034D01*
X60974034Y-3980382D01*
X60700000Y-4641958D01*
X39761716Y-4641958D01*
X39742634Y-4622876D01*
X39485355Y-4516308D01*
X39206877Y-4516308D01*
X38949598Y-4622876D01*
X38752684Y-4819790D01*
X38646116Y-5077069D01*
X38646116Y-5355547D01*
X38734374Y-5568621D01*
X38669671Y-5633324D01*
X38563103Y-5890603D01*
X14079405Y-5890603D01*
X14300000Y-5358042D01*
X14300000Y-4641958D01*
X14287078Y-4610761D01*
X23350000Y-4610761D01*
X23350000Y-4889239D01*
X23456568Y-5146518D01*
X23653482Y-5343432D01*
X23910761Y-5450000D01*
X24189239Y-5450000D01*
X24446518Y-5343432D01*
X24643432Y-5146518D01*
X24750000Y-4889239D01*
X24750000Y-4860761D01*
X35500000Y-4860761D01*
X35500000Y-5139239D01*
X35606568Y-5396518D01*
X35803482Y-5593432D01*
X36060761Y-5700000D01*
X36339239Y-5700000D01*
X36596518Y-5593432D01*
X36793432Y-5396518D01*
X36900000Y-5139239D01*
X36900000Y-4860761D01*
X36793432Y-4603482D01*
X36596518Y-4406568D01*
X36339239Y-4300000D01*
X36060761Y-4300000D01*
X35803482Y-4406568D01*
X35606568Y-4603482D01*
X35500000Y-4860761D01*
X24750000Y-4860761D01*
X24750000Y-4610761D01*
X24643432Y-4353482D01*
X24446518Y-4156568D01*
X24189239Y-4050000D01*
X23910761Y-4050000D01*
X23653482Y-4156568D01*
X23456568Y-4353482D01*
X23350000Y-4610761D01*
X14287078Y-4610761D01*
X14025966Y-3980382D01*
X13549929Y-3504345D01*
X46879479Y-3504345D01*
X46879479Y-3782823D01*
X46986047Y-4040102D01*
X47182961Y-4237016D01*
X47440240Y-4343584D01*
X47718718Y-4343584D01*
X47975997Y-4237016D01*
X48172911Y-4040102D01*
X48279479Y-3782823D01*
X48279479Y-3504345D01*
X48172911Y-3247066D01*
X47975997Y-3050152D01*
X47718718Y-2943584D01*
X47440240Y-2943584D01*
X47182961Y-3050152D01*
X46986047Y-3247066D01*
X46879479Y-3504345D01*
X13549929Y-3504345D01*
X13519618Y-3474034D01*
X12858042Y-3200000D01*
X12141958Y-3200000D01*
X11480382Y-3474034D01*
X10974034Y-3980382D01*
X10700000Y-4641958D01*
X4959082Y-4641958D01*
X7263674Y-2337367D01*
X7307850Y-2307850D01*
X7402225Y-2166607D01*
X7427000Y-2042054D01*
X7427000Y-2031804D01*
X7433326Y-2000001D01*
X7427000Y-1968198D01*
X7427000Y-1653347D01*
X18827304Y-1653347D01*
X18827304Y-1892041D01*
X18918648Y-2112567D01*
X19087431Y-2281350D01*
X19307957Y-2372694D01*
X19546651Y-2372694D01*
X19767177Y-2281350D01*
X19935960Y-2112567D01*
X20027304Y-1892041D01*
X20027304Y-1842244D01*
X20203482Y-2018422D01*
X20460761Y-2124990D01*
X20739239Y-2124990D01*
X20996518Y-2018422D01*
X21193432Y-1821508D01*
X21300000Y-1564229D01*
X21300000Y-1460761D01*
X30900000Y-1460761D01*
X30900000Y-1739239D01*
X31006568Y-1996518D01*
X31203482Y-2193432D01*
X31460761Y-2300000D01*
X31739239Y-2300000D01*
X31996518Y-2193432D01*
X32193432Y-1996518D01*
X32300000Y-1739239D01*
X32300000Y-1460761D01*
X32299369Y-1459237D01*
X38527153Y-1459237D01*
X38527153Y-1737715D01*
X38633721Y-1994994D01*
X38830635Y-2191908D01*
X39087914Y-2298476D01*
X39366392Y-2298476D01*
X39623671Y-2191908D01*
X39820585Y-1994994D01*
X39927153Y-1737715D01*
X39927153Y-1459237D01*
X39820585Y-1201958D01*
X39623671Y-1005044D01*
X39366392Y-898476D01*
X39087914Y-898476D01*
X38830635Y-1005044D01*
X38633721Y-1201958D01*
X38527153Y-1459237D01*
X32299369Y-1459237D01*
X32193432Y-1203482D01*
X31996518Y-1006568D01*
X31739239Y-900000D01*
X31460761Y-900000D01*
X31203482Y-1006568D01*
X31006568Y-1203482D01*
X30900000Y-1460761D01*
X21300000Y-1460761D01*
X21300000Y-1285751D01*
X21193432Y-1028472D01*
X20996518Y-831558D01*
X20739239Y-724990D01*
X20460761Y-724990D01*
X20203482Y-831558D01*
X20006568Y-1028472D01*
X19900000Y-1285751D01*
X19900000Y-1396861D01*
X19767177Y-1264038D01*
X19546651Y-1172694D01*
X19307957Y-1172694D01*
X19087431Y-1264038D01*
X18918648Y-1432821D01*
X18827304Y-1653347D01*
X7427000Y-1653347D01*
X7427000Y-427000D01*
X67575000Y-427000D01*
X67575001Y-1958138D01*
M02*
