G04 #@! TF.GenerationSoftware,KiCad,Pcbnew,(5.0.0-rc2-dev-70-g2da7199a3)*
G04 #@! TF.CreationDate,2018-03-19T21:37:12-04:00*
G04 #@! TF.ProjectId,processor,70726F636573736F722E6B696361645F,rev?*
G04 #@! TF.SameCoordinates,Original*
G04 #@! TF.FileFunction,Paste,Top*
G04 #@! TF.FilePolarity,Positive*
%FSLAX46Y46*%
G04 Gerber Fmt 4.6, Leading zero omitted, Abs format (unit mm)*
G04 Created by KiCad (PCBNEW (5.0.0-rc2-dev-70-g2da7199a3)) date 03/19/18 21:37:12*
%MOMM*%
%LPD*%
G01*
G04 APERTURE LIST*
%ADD10R,0.900000X0.700000*%
%ADD11R,0.800000X2.000000*%
%ADD12C,0.750000*%
%ADD13C,1.000000*%
%ADD14R,1.500000X1.000000*%
%ADD15R,1.500000X0.700000*%
%ADD16R,0.900000X0.800000*%
%ADD17R,1.200000X0.900000*%
%ADD18R,2.450000X2.450000*%
%ADD19O,1.000000X0.250000*%
%ADD20O,0.250000X1.000000*%
%ADD21R,0.350000X1.600000*%
%ADD22R,6.000000X6.000000*%
%ADD23O,2.500000X0.900000*%
%ADD24O,0.900000X2.500000*%
%ADD25R,0.350000X1.000000*%
%ADD26C,1.000000*%
%ADD27R,0.700000X0.900000*%
%ADD28R,0.900000X1.000000*%
%ADD29R,1.000000X0.400000*%
%ADD30R,1.800000X1.900000*%
%ADD31R,2.300000X1.900000*%
%ADD32R,0.400000X2.000000*%
%ADD33R,3.500000X1.600000*%
%ADD34R,1.100000X0.600000*%
%ADD35R,2.000000X1.000000*%
%ADD36R,0.800000X0.900000*%
%ADD37R,0.900000X1.200000*%
%ADD38R,1.900000X1.400000*%
%ADD39R,1.400000X1.800000*%
G04 APERTURE END LIST*
D10*
X55600000Y-15100000D03*
X55600000Y-13300000D03*
D11*
X65625000Y-12200000D03*
D12*
X64850000Y-12200000D03*
D13*
G36*
X65225000Y-13200000D02*
X64475000Y-12700000D01*
X64475000Y-11700000D01*
X65225000Y-11200000D01*
X65225000Y-13200000D01*
X65225000Y-13200000D01*
G37*
D14*
X67475000Y-12200000D03*
D15*
X63775000Y-13700000D03*
D14*
X63775000Y-12200000D03*
D15*
X63775000Y-10700000D03*
X67475000Y-13700000D03*
X67475000Y-10700000D03*
D12*
X66400000Y-12200000D03*
D13*
G36*
X66025000Y-11200000D02*
X66775000Y-11700000D01*
X66775000Y-12700000D01*
X66025000Y-13200000D01*
X66025000Y-11200000D01*
X66025000Y-11200000D01*
G37*
D16*
X59000000Y-10000000D03*
X57000000Y-11000000D03*
X57000000Y-9000000D03*
D10*
X55700000Y-16700000D03*
X55700000Y-18500000D03*
D17*
X53200000Y-12950000D03*
X53200000Y-16250000D03*
D18*
X26000000Y-14600000D03*
D19*
X28000000Y-13350000D03*
X28000000Y-13850000D03*
X28000000Y-14350000D03*
X28000000Y-14850000D03*
X28000000Y-15350000D03*
X28000000Y-15850000D03*
D20*
X27250000Y-16600000D03*
X26750000Y-16600000D03*
X26250000Y-16600000D03*
X25750000Y-16600000D03*
X25250000Y-16600000D03*
X24750000Y-16600000D03*
D19*
X24000000Y-15850000D03*
X24000000Y-15350000D03*
X24000000Y-14850000D03*
X24000000Y-14350000D03*
X24000000Y-13850000D03*
X24000000Y-13350000D03*
D20*
X24750000Y-12600000D03*
X25250000Y-12600000D03*
X25750000Y-12600000D03*
X26250000Y-12600000D03*
X26750000Y-12600000D03*
X27250000Y-12600000D03*
D21*
X57025000Y-29600000D03*
X57025000Y-35200000D03*
X57675000Y-29600000D03*
X57675000Y-35200000D03*
X58325000Y-29600000D03*
X58325000Y-35200000D03*
X58975000Y-29600000D03*
X58975000Y-35200000D03*
X59625000Y-29600000D03*
X59625000Y-35200000D03*
X60275000Y-29600000D03*
X60275000Y-35200000D03*
X60925000Y-29600000D03*
X60925000Y-35200000D03*
X61575000Y-29600000D03*
X61575000Y-35200000D03*
D22*
X39800000Y-34700000D03*
D23*
X48500000Y-42400000D03*
X48500000Y-41130000D03*
X48500000Y-39860000D03*
X48500000Y-38590000D03*
X48500000Y-37320000D03*
X48500000Y-36050000D03*
X48500000Y-34780000D03*
X48500000Y-33510000D03*
X48500000Y-32240000D03*
X48500000Y-30970000D03*
X48500000Y-29700000D03*
X48500000Y-28430000D03*
X48500000Y-27160000D03*
X48500000Y-25890000D03*
D24*
X45215000Y-24400000D03*
X43945000Y-24400000D03*
X42675000Y-24400000D03*
X41405000Y-24400000D03*
X40135000Y-24400000D03*
X38865000Y-24400000D03*
X37595000Y-24400000D03*
X36325000Y-24400000D03*
X35055000Y-24400000D03*
X33785000Y-24400000D03*
D23*
X30500000Y-25890000D03*
X30500000Y-27160000D03*
X30500000Y-28430000D03*
X30500000Y-29700000D03*
X30500000Y-30970000D03*
X30500000Y-32240000D03*
X30500000Y-33510000D03*
X30500000Y-34780000D03*
X30500000Y-36050000D03*
X30500000Y-37320000D03*
X30500000Y-38590000D03*
X30500000Y-39860000D03*
X30500000Y-41130000D03*
X30500000Y-42400000D03*
D25*
X63075000Y-37650000D03*
X62425000Y-37650000D03*
X61775000Y-37650000D03*
X61125000Y-37650000D03*
X61125000Y-40150000D03*
X61775000Y-40150000D03*
X62425000Y-40150000D03*
X63075000Y-40150000D03*
D26*
X30700000Y-21400000D03*
D10*
X50700000Y-30800000D03*
X50700000Y-29000000D03*
D27*
X19000000Y-49100000D03*
X17200000Y-49100000D03*
D16*
X19200000Y-46600000D03*
X17200000Y-47600000D03*
X17200000Y-45600000D03*
D28*
X30550000Y-8600000D03*
X34649999Y-8600000D03*
X34649999Y-7000000D03*
X30550000Y-7000000D03*
X34650000Y-10200000D03*
X30550001Y-10200000D03*
X30550001Y-11800000D03*
X34650000Y-11800000D03*
D26*
X27900000Y-20600000D03*
D29*
X25050000Y-9250000D03*
X25050000Y-7950000D03*
X26950000Y-8600000D03*
X26950000Y-7950000D03*
X26950000Y-9250000D03*
X25050000Y-8600000D03*
D30*
X24900000Y-1600000D03*
D31*
X22300000Y-1600000D03*
X29800000Y-1600000D03*
D30*
X27200000Y-1600000D03*
D32*
X24750000Y-4750000D03*
X25400000Y-4750000D03*
X26050000Y-4750000D03*
X26700000Y-4750000D03*
X27350000Y-4750000D03*
D33*
X40400000Y-15840000D03*
X40400000Y-10960000D03*
D34*
X49400000Y-3000000D03*
X49400000Y-4900000D03*
X46600000Y-4900000D03*
X46600000Y-3950000D03*
X46600000Y-3000000D03*
D28*
X55050000Y-10000000D03*
X50950001Y-10000000D03*
X50950001Y-11600000D03*
X55050000Y-11600000D03*
D35*
X1500000Y-40500000D03*
X1500000Y-39000000D03*
X1500000Y-37500000D03*
X1500000Y-36000000D03*
X1500000Y-34500000D03*
X1500000Y-33000000D03*
X1500000Y-31500000D03*
X1500000Y-30000000D03*
X1500000Y-28500000D03*
X1500000Y-27000000D03*
X17500000Y-27000000D03*
X17500000Y-28500000D03*
X17500000Y-30000000D03*
X17500000Y-31500000D03*
X17500000Y-33000000D03*
X17500000Y-34500000D03*
X17500000Y-36000000D03*
X17500000Y-37500000D03*
X17500000Y-39000000D03*
X17500000Y-40500000D03*
X17500000Y-40500000D03*
X17500000Y-39000000D03*
X17500000Y-37500000D03*
X17500000Y-36000000D03*
X17500000Y-34500000D03*
X17500000Y-33000000D03*
X17500000Y-31500000D03*
X17500000Y-30000000D03*
X17500000Y-28500000D03*
X17500000Y-27000000D03*
D10*
X19500000Y-1000000D03*
X19500000Y-2800000D03*
D27*
X19500000Y-34200000D03*
X21300000Y-34200000D03*
X19300000Y-27000000D03*
X21100000Y-27000000D03*
X19300000Y-28500000D03*
X21100000Y-28500000D03*
X53550000Y-1600000D03*
X55350000Y-1600000D03*
D10*
X49200000Y-12500000D03*
X49200000Y-10700000D03*
X44400000Y-6500000D03*
X44400000Y-8300000D03*
X38200000Y-5100000D03*
X38200000Y-3300000D03*
X38200000Y-6500000D03*
X38200000Y-8300000D03*
X56300000Y-26100000D03*
X56300000Y-27900000D03*
X60300000Y-26100000D03*
X60300000Y-27900000D03*
X62300000Y-26100000D03*
X62300000Y-27900000D03*
X58300000Y-26100000D03*
X58300000Y-27900000D03*
D27*
X57200000Y-39500000D03*
X55400000Y-39500000D03*
D10*
X26400000Y-36600000D03*
X26400000Y-38400000D03*
X64500000Y-36000000D03*
X64500000Y-34200000D03*
D27*
X27900000Y-39800000D03*
X26100000Y-39800000D03*
X33400000Y-3100000D03*
X35200000Y-3100000D03*
D10*
X49200000Y-8700000D03*
X49200000Y-6900000D03*
D27*
X49100000Y-1400000D03*
X47300000Y-1400000D03*
D10*
X51200000Y-15300000D03*
X51200000Y-13500000D03*
X18400000Y-16400000D03*
X18400000Y-14600000D03*
D27*
X28300000Y-18400000D03*
X26500000Y-18400000D03*
X23300000Y-18400000D03*
X25100000Y-18400000D03*
X32300000Y-15200000D03*
X30500000Y-15200000D03*
X30500000Y-17800000D03*
X32300000Y-17800000D03*
D36*
X17000000Y-3000000D03*
X16000000Y-1000000D03*
X18000000Y-1000000D03*
D16*
X53600000Y-4200000D03*
X51600000Y-5200000D03*
X51600000Y-3200000D03*
X57800000Y-4200000D03*
X55800000Y-5200000D03*
X55800000Y-3200000D03*
X40200000Y-4000000D03*
X42200000Y-3000000D03*
X42200000Y-5000000D03*
X40200000Y-8150000D03*
X42200000Y-7150000D03*
X42200000Y-9150000D03*
X36200000Y-18550000D03*
X34200000Y-19550000D03*
X34200000Y-17550000D03*
X36200000Y-14400000D03*
X34200000Y-15400000D03*
X34200000Y-13400000D03*
D10*
X18600000Y-9100000D03*
X18600000Y-10900000D03*
D37*
X51650000Y-8200000D03*
X54950000Y-8200000D03*
X49050000Y-14800000D03*
X45750000Y-14800000D03*
X67350000Y-15800000D03*
X64050000Y-15800000D03*
D27*
X53800000Y-6400000D03*
X55600000Y-6400000D03*
D38*
X3700000Y-9600000D03*
X2800000Y-22800000D03*
D39*
X16800000Y-11200000D03*
X16800000Y-17200000D03*
D15*
X6600000Y-10500000D03*
X6600000Y-11600000D03*
X6200000Y-12700000D03*
X6600000Y-13800000D03*
X6200000Y-14900000D03*
X6600000Y-16000000D03*
X7000000Y-17100000D03*
X6600000Y-18200000D03*
M02*
