G04 #@! TF.GenerationSoftware,KiCad,Pcbnew,(5.0.0-rc2-dev-70-g2da7199a3)*
G04 #@! TF.CreationDate,2018-03-19T21:37:12-04:00*
G04 #@! TF.ProjectId,processor,70726F636573736F722E6B696361645F,rev?*
G04 #@! TF.SameCoordinates,Original*
G04 #@! TF.FileFunction,Legend,Top*
G04 #@! TF.FilePolarity,Positive*
%FSLAX46Y46*%
G04 Gerber Fmt 4.6, Leading zero omitted, Abs format (unit mm)*
G04 Created by KiCad (PCBNEW (5.0.0-rc2-dev-70-g2da7199a3)) date 03/19/18 21:37:12*
%MOMM*%
%LPD*%
G01*
G04 APERTURE LIST*
%ADD10C,0.120000*%
%ADD11C,0.100000*%
%ADD12C,0.200000*%
%ADD13C,0.150000*%
%ADD14C,0.500000*%
%ADD15C,0.350000*%
%ADD16C,0.127000*%
%ADD17C,0.125000*%
%ADD18C,2.100000*%
%ADD19R,1.300000X1.100000*%
%ADD20R,1.200000X2.400000*%
%ADD21C,1.150000*%
%ADD22C,1.000000*%
%ADD23R,1.900000X1.400000*%
%ADD24R,1.900000X1.100000*%
%ADD25R,1.300000X1.200000*%
%ADD26R,1.600000X1.300000*%
%ADD27R,1.400000X1.900000*%
%ADD28R,2.850000X2.850000*%
%ADD29O,1.400000X0.650000*%
%ADD30O,0.650000X1.400000*%
%ADD31R,0.750000X2.000000*%
%ADD32R,6.400000X6.400000*%
%ADD33O,2.900000X1.300000*%
%ADD34O,1.300000X2.900000*%
%ADD35C,3.400000*%
%ADD36R,0.750000X1.400000*%
%ADD37C,1.400000*%
%ADD38R,1.100000X1.300000*%
%ADD39R,1.300000X1.400000*%
%ADD40R,1.400000X0.800000*%
%ADD41R,2.200000X2.300000*%
%ADD42R,2.700000X2.300000*%
%ADD43R,0.800000X2.400000*%
%ADD44R,3.900000X2.000000*%
%ADD45R,1.500000X1.000000*%
%ADD46R,2.400000X1.400000*%
%ADD47R,1.200000X1.300000*%
%ADD48R,1.300000X1.600000*%
%ADD49R,2.000000X2.000000*%
%ADD50C,2.000000*%
%ADD51R,2.300000X1.800000*%
%ADD52R,1.800000X2.200000*%
G04 APERTURE END LIST*
D10*
X56280000Y-13700000D02*
X56280000Y-14700000D01*
X54920000Y-14700000D02*
X54920000Y-13700000D01*
X63025000Y-9800000D02*
X66925000Y-9800000D01*
X66925000Y-14600000D02*
X64325000Y-14600000D01*
X58760000Y-11580000D02*
X57300000Y-11580000D01*
X58760000Y-8420000D02*
X56600000Y-8420000D01*
X58760000Y-8420000D02*
X58760000Y-9350000D01*
X58760000Y-11580000D02*
X58760000Y-10650000D01*
X55020000Y-18100000D02*
X55020000Y-17100000D01*
X56380000Y-17100000D02*
X56380000Y-18100000D01*
X52200000Y-16850000D02*
X52200000Y-12950000D01*
X54200000Y-16850000D02*
X54200000Y-12950000D01*
D11*
X53200000Y-15350000D02*
X53200000Y-14950000D01*
X53200000Y-14950000D02*
X52650000Y-14950000D01*
X53200000Y-14950000D02*
X53750000Y-14950000D01*
X53200000Y-14950000D02*
X52800000Y-14350000D01*
X52800000Y-14350000D02*
X53600000Y-14350000D01*
X53600000Y-14350000D02*
X53200000Y-14950000D01*
X53200000Y-14350000D02*
X53200000Y-13850000D01*
D10*
X52200000Y-16850000D02*
X54200000Y-16850000D01*
X22300000Y-17700000D02*
X22300000Y-19500000D01*
X22300000Y-19500000D02*
X20200000Y-19500000D01*
X20200000Y-17700000D02*
X22300000Y-17700000D01*
X22300000Y-15500000D02*
X22300000Y-17300000D01*
X22300000Y-17300000D02*
X20200000Y-17300000D01*
X20200000Y-15500000D02*
X22300000Y-15500000D01*
D12*
X27000000Y-13200000D02*
X27400000Y-13600000D01*
X24600000Y-13200000D02*
X27000000Y-13200000D01*
X24600000Y-16000000D02*
X24600000Y-13200000D01*
X27400000Y-16000000D02*
X24600000Y-16000000D01*
X27400000Y-13600000D02*
X27400000Y-16000000D01*
X27841421Y-12700000D02*
G75*
G03X27841421Y-12700000I-141421J0D01*
G01*
D13*
X56550000Y-34100000D02*
X61050000Y-34100000D01*
X56550000Y-30700000D02*
X56550000Y-34100000D01*
X62050000Y-30700000D02*
X56550000Y-30700000D01*
X62050000Y-33100000D02*
X62050000Y-30700000D01*
X61050000Y-34100000D02*
X62050000Y-33100000D01*
X30500000Y-49900000D02*
X48500000Y-49900000D01*
X30500000Y-24400000D02*
X48500000Y-24400000D01*
X30500000Y-49900000D02*
X30500000Y-24400000D01*
X48500000Y-49900000D02*
X48500000Y-24400000D01*
X30500000Y-43900000D02*
X48500000Y-43900000D01*
D14*
X49689981Y-43754000D02*
G75*
G03X49689981Y-43754000I-283981J0D01*
G01*
D10*
X25400000Y-32900000D02*
X27200000Y-32900000D01*
X27200000Y-32900000D02*
X27200000Y-35000000D01*
X25400000Y-35000000D02*
X25400000Y-32900000D01*
X6400000Y-4820000D02*
X7600000Y-4820000D01*
X7600000Y-6580000D02*
X6400000Y-6580000D01*
D11*
X63300000Y-37600000D02*
X63300000Y-40250000D01*
X62850000Y-40250000D02*
X62650000Y-40250000D01*
X62200000Y-40250000D02*
X62000000Y-40250000D01*
X61550000Y-40250000D02*
X61350000Y-40250000D01*
X60900000Y-40250000D02*
X60900000Y-37650000D01*
X61350000Y-37650000D02*
X61550000Y-37650000D01*
X62000000Y-37650000D02*
X62200000Y-37650000D01*
X62650000Y-37650000D02*
X62850000Y-37650000D01*
X63000000Y-39400000D02*
G75*
G03X63000000Y-39400000I-50000J0D01*
G01*
X61200000Y-38900000D02*
G75*
G03X61200000Y-38900000I-100000J0D01*
G01*
D10*
X51380000Y-29400000D02*
X51380000Y-30400000D01*
X50020000Y-30400000D02*
X50020000Y-29400000D01*
X17600000Y-48420000D02*
X18600000Y-48420000D01*
X18600000Y-49780000D02*
X17600000Y-49780000D01*
X18960000Y-48180000D02*
X17500000Y-48180000D01*
X18960000Y-45020000D02*
X16800000Y-45020000D01*
X18960000Y-45020000D02*
X18960000Y-45950000D01*
X18960000Y-48180000D02*
X18960000Y-47250000D01*
D12*
X31200000Y-9100000D02*
X31200000Y-6500000D01*
X34000000Y-9100000D02*
X31200000Y-9100000D01*
X34000000Y-6500000D02*
X34000000Y-9100000D01*
X31200000Y-6500000D02*
X34000000Y-6500000D01*
X33200000Y-7800000D02*
G75*
G03X33200000Y-7800000I-600000J0D01*
G01*
X34000000Y-9700000D02*
X34000000Y-12300000D01*
X31200000Y-9700000D02*
X34000000Y-9700000D01*
X31200000Y-12300000D02*
X31200000Y-9700000D01*
X34000000Y-12300000D02*
X31200000Y-12300000D01*
X33200000Y-11000000D02*
G75*
G03X33200000Y-11000000I-600000J0D01*
G01*
D15*
X26000000Y-9600000D02*
X26000000Y-7600000D01*
D13*
X27400000Y-9700000D02*
X26500000Y-9700000D01*
D12*
X27600000Y-7200000D02*
X27600000Y-10000000D01*
X24400000Y-7200000D02*
X27600000Y-7200000D01*
X24400000Y-10000000D02*
X24400000Y-7200000D01*
X27600000Y-10000000D02*
X24400000Y-10000000D01*
X29750000Y-2650000D02*
X29750000Y-4300000D01*
X29750000Y-4300000D02*
X27700000Y-4300000D01*
X24450000Y-4300000D02*
X22300000Y-4300000D01*
X22300000Y-4300000D02*
X22300000Y-2650000D01*
D10*
X42280000Y-11670000D02*
X42280000Y-15130000D01*
X38520000Y-11670000D02*
X38520000Y-15130000D01*
X47120000Y-5510000D02*
X48880000Y-5510000D01*
D12*
X54400000Y-9500000D02*
X54400000Y-12100000D01*
X51600000Y-9500000D02*
X54400000Y-9500000D01*
X51600000Y-12100000D02*
X51600000Y-9500000D01*
X54400000Y-12100000D02*
X51600000Y-12100000D01*
X53600000Y-10800000D02*
G75*
G03X53600000Y-10800000I-600000J0D01*
G01*
D13*
X17500000Y-26250000D02*
X17500000Y-40500000D01*
X1500000Y-26250000D02*
X17500000Y-26250000D01*
X1500000Y-41250000D02*
X1500000Y-26250000D01*
X17500000Y-41250000D02*
X1500000Y-41250000D01*
X17500000Y-40500000D02*
X17500000Y-41250000D01*
X16000000Y-40250000D02*
G75*
G03X16000000Y-40250000I-500000J0D01*
G01*
D10*
X18380000Y-42500000D02*
X18380000Y-43700000D01*
X16620000Y-43700000D02*
X16620000Y-42500000D01*
X47680000Y-7200000D02*
X47680000Y-8400000D01*
X45920000Y-8400000D02*
X45920000Y-7200000D01*
X46320000Y-12400000D02*
X46320000Y-11200000D01*
X48080000Y-11200000D02*
X48080000Y-12400000D01*
X45280000Y-10200000D02*
X45280000Y-11400000D01*
X43520000Y-11400000D02*
X43520000Y-10200000D01*
X54280000Y-40000000D02*
X54280000Y-41200000D01*
X52520000Y-41200000D02*
X52520000Y-40000000D01*
X20680000Y-42500000D02*
X20680000Y-43700000D01*
X18920000Y-43700000D02*
X18920000Y-42500000D01*
X6400000Y-6920000D02*
X7600000Y-6920000D01*
X7600000Y-8680000D02*
X6400000Y-8680000D01*
X20000000Y-35120000D02*
X21200000Y-35120000D01*
X21200000Y-36880000D02*
X20000000Y-36880000D01*
X18920000Y-40100000D02*
X18920000Y-38900000D01*
X20680000Y-38900000D02*
X20680000Y-40100000D01*
X65980000Y-38300000D02*
X65980000Y-39500000D01*
X64220000Y-39500000D02*
X64220000Y-38300000D01*
X52280000Y-40000000D02*
X52280000Y-41200000D01*
X50520000Y-41200000D02*
X50520000Y-40000000D01*
X33500000Y-4120000D02*
X34700000Y-4120000D01*
X34700000Y-5880000D02*
X33500000Y-5880000D01*
X22400000Y-11280000D02*
X21200000Y-11280000D01*
X21200000Y-9520000D02*
X22400000Y-9520000D01*
X21400000Y-13280000D02*
X20200000Y-13280000D01*
X20200000Y-11520000D02*
X21400000Y-11520000D01*
X54800000Y-42300000D02*
X54800000Y-40500000D01*
X54800000Y-40500000D02*
X56900000Y-40500000D01*
X56900000Y-42300000D02*
X54800000Y-42300000D01*
X57400000Y-22200000D02*
X59200000Y-22200000D01*
X59200000Y-22200000D02*
X59200000Y-24300000D01*
X57400000Y-24300000D02*
X57400000Y-22200000D01*
X61400000Y-22200000D02*
X63200000Y-22200000D01*
X63200000Y-22200000D02*
X63200000Y-24300000D01*
X61400000Y-24300000D02*
X61400000Y-22200000D01*
X59400000Y-22200000D02*
X61200000Y-22200000D01*
X61200000Y-22200000D02*
X61200000Y-24300000D01*
X59400000Y-24300000D02*
X59400000Y-22200000D01*
X55400000Y-22200000D02*
X57200000Y-22200000D01*
X57200000Y-22200000D02*
X57200000Y-24300000D01*
X55400000Y-24300000D02*
X55400000Y-22200000D01*
X43500000Y-2300000D02*
X45300000Y-2300000D01*
X45300000Y-2300000D02*
X45300000Y-4400000D01*
X43500000Y-4400000D02*
X43500000Y-2300000D01*
X19100000Y-33300000D02*
X19100000Y-31500000D01*
X19100000Y-31500000D02*
X21200000Y-31500000D01*
X21200000Y-33300000D02*
X19100000Y-33300000D01*
X18820000Y-2400000D02*
X18820000Y-1400000D01*
X20180000Y-1400000D02*
X20180000Y-2400000D01*
X20900000Y-34880000D02*
X19900000Y-34880000D01*
X19900000Y-33520000D02*
X20900000Y-33520000D01*
X20700000Y-27680000D02*
X19700000Y-27680000D01*
X19700000Y-26320000D02*
X20700000Y-26320000D01*
X20700000Y-29180000D02*
X19700000Y-29180000D01*
X19700000Y-27820000D02*
X20700000Y-27820000D01*
X54950000Y-2280000D02*
X53950000Y-2280000D01*
X53950000Y-920000D02*
X54950000Y-920000D01*
X49880000Y-11100000D02*
X49880000Y-12100000D01*
X48520000Y-12100000D02*
X48520000Y-11100000D01*
X43720000Y-7900000D02*
X43720000Y-6900000D01*
X45080000Y-6900000D02*
X45080000Y-7900000D01*
X38880000Y-3700000D02*
X38880000Y-4700000D01*
X37520000Y-4700000D02*
X37520000Y-3700000D01*
X37520000Y-7900000D02*
X37520000Y-6900000D01*
X38880000Y-6900000D02*
X38880000Y-7900000D01*
X55620000Y-27500000D02*
X55620000Y-26500000D01*
X56980000Y-26500000D02*
X56980000Y-27500000D01*
X59620000Y-27500000D02*
X59620000Y-26500000D01*
X60980000Y-26500000D02*
X60980000Y-27500000D01*
X61620000Y-27500000D02*
X61620000Y-26500000D01*
X62980000Y-26500000D02*
X62980000Y-27500000D01*
X57620000Y-27500000D02*
X57620000Y-26500000D01*
X58980000Y-26500000D02*
X58980000Y-27500000D01*
X55800000Y-38820000D02*
X56800000Y-38820000D01*
X56800000Y-40180000D02*
X55800000Y-40180000D01*
X25720000Y-38000000D02*
X25720000Y-37000000D01*
X27080000Y-37000000D02*
X27080000Y-38000000D01*
X65180000Y-34600000D02*
X65180000Y-35600000D01*
X63820000Y-35600000D02*
X63820000Y-34600000D01*
X26500000Y-39120000D02*
X27500000Y-39120000D01*
X27500000Y-40480000D02*
X26500000Y-40480000D01*
X34800000Y-3780000D02*
X33800000Y-3780000D01*
X33800000Y-2420000D02*
X34800000Y-2420000D01*
X49880000Y-7300000D02*
X49880000Y-8300000D01*
X48520000Y-8300000D02*
X48520000Y-7300000D01*
X47700000Y-720000D02*
X48700000Y-720000D01*
X48700000Y-2080000D02*
X47700000Y-2080000D01*
X51880000Y-13900000D02*
X51880000Y-14900000D01*
X50520000Y-14900000D02*
X50520000Y-13900000D01*
X19080000Y-15000000D02*
X19080000Y-16000000D01*
X17720000Y-16000000D02*
X17720000Y-15000000D01*
X26900000Y-17720000D02*
X27900000Y-17720000D01*
X27900000Y-19080000D02*
X26900000Y-19080000D01*
X24700000Y-19080000D02*
X23700000Y-19080000D01*
X23700000Y-17720000D02*
X24700000Y-17720000D01*
X30900000Y-14520000D02*
X31900000Y-14520000D01*
X31900000Y-15880000D02*
X30900000Y-15880000D01*
X31900000Y-18480000D02*
X30900000Y-18480000D01*
X30900000Y-17120000D02*
X31900000Y-17120000D01*
X15420000Y-2760000D02*
X15420000Y-1300000D01*
X18580000Y-2760000D02*
X18580000Y-600000D01*
X18580000Y-2760000D02*
X17650000Y-2760000D01*
X15420000Y-2760000D02*
X16350000Y-2760000D01*
X53360000Y-5780000D02*
X51900000Y-5780000D01*
X53360000Y-2620000D02*
X51200000Y-2620000D01*
X53360000Y-2620000D02*
X53360000Y-3550000D01*
X53360000Y-5780000D02*
X53360000Y-4850000D01*
X57560000Y-5780000D02*
X56100000Y-5780000D01*
X57560000Y-2620000D02*
X55400000Y-2620000D01*
X57560000Y-2620000D02*
X57560000Y-3550000D01*
X57560000Y-5780000D02*
X57560000Y-4850000D01*
X40440000Y-2420000D02*
X41900000Y-2420000D01*
X40440000Y-5580000D02*
X42600000Y-5580000D01*
X40440000Y-5580000D02*
X40440000Y-4650000D01*
X40440000Y-2420000D02*
X40440000Y-3350000D01*
X40440000Y-6570000D02*
X41900000Y-6570000D01*
X40440000Y-9730000D02*
X42600000Y-9730000D01*
X40440000Y-9730000D02*
X40440000Y-8800000D01*
X40440000Y-6570000D02*
X40440000Y-7500000D01*
X35960000Y-20130000D02*
X34500000Y-20130000D01*
X35960000Y-16970000D02*
X33800000Y-16970000D01*
X35960000Y-16970000D02*
X35960000Y-17900000D01*
X35960000Y-20130000D02*
X35960000Y-19200000D01*
X35960000Y-15980000D02*
X34500000Y-15980000D01*
X35960000Y-12820000D02*
X33800000Y-12820000D01*
X35960000Y-12820000D02*
X35960000Y-13750000D01*
X35960000Y-15980000D02*
X35960000Y-15050000D01*
X22300000Y-9180000D02*
X21100000Y-9180000D01*
X21100000Y-7420000D02*
X22300000Y-7420000D01*
X21400000Y-15280000D02*
X20200000Y-15280000D01*
X20200000Y-13520000D02*
X21400000Y-13520000D01*
X17920000Y-10500000D02*
X17920000Y-9500000D01*
X19280000Y-9500000D02*
X19280000Y-10500000D01*
X55550000Y-9200000D02*
X51650000Y-9200000D01*
X55550000Y-7200000D02*
X51650000Y-7200000D01*
D11*
X54050000Y-8200000D02*
X53650000Y-8200000D01*
X53650000Y-8200000D02*
X53650000Y-8750000D01*
X53650000Y-8200000D02*
X53650000Y-7650000D01*
X53650000Y-8200000D02*
X53050000Y-8600000D01*
X53050000Y-8600000D02*
X53050000Y-7800000D01*
X53050000Y-7800000D02*
X53650000Y-8200000D01*
X53050000Y-8200000D02*
X52550000Y-8200000D01*
D10*
X55550000Y-9200000D02*
X55550000Y-7200000D01*
X45150000Y-13800000D02*
X49050000Y-13800000D01*
X45150000Y-15800000D02*
X49050000Y-15800000D01*
D11*
X46650000Y-14800000D02*
X47050000Y-14800000D01*
X47050000Y-14800000D02*
X47050000Y-14250000D01*
X47050000Y-14800000D02*
X47050000Y-15350000D01*
X47050000Y-14800000D02*
X47650000Y-14400000D01*
X47650000Y-14400000D02*
X47650000Y-15200000D01*
X47650000Y-15200000D02*
X47050000Y-14800000D01*
X47650000Y-14800000D02*
X48150000Y-14800000D01*
D10*
X45150000Y-13800000D02*
X45150000Y-15800000D01*
X63450000Y-14800000D02*
X67350000Y-14800000D01*
X63450000Y-16800000D02*
X67350000Y-16800000D01*
D11*
X64950000Y-15800000D02*
X65350000Y-15800000D01*
X65350000Y-15800000D02*
X65350000Y-15250000D01*
X65350000Y-15800000D02*
X65350000Y-16350000D01*
X65350000Y-15800000D02*
X65950000Y-15400000D01*
X65950000Y-15400000D02*
X65950000Y-16200000D01*
X65950000Y-16200000D02*
X65350000Y-15800000D01*
X65950000Y-15800000D02*
X66450000Y-15800000D01*
D10*
X63450000Y-14800000D02*
X63450000Y-16800000D01*
X60979136Y-18667820D02*
G75*
G03X60980000Y-12632518I-1179136J3017820D01*
G01*
X58620864Y-18667820D02*
G75*
G02X58620000Y-12632518I1179136J3017820D01*
G01*
X58620864Y-18667820D02*
G75*
G03X60980000Y-18667482I1179136J3017820D01*
G01*
X63000000Y-15650000D02*
X56600000Y-15650000D01*
X63000000Y-15690000D02*
X56600000Y-15690000D01*
X63000000Y-15730000D02*
X56600000Y-15730000D01*
X62998000Y-15770000D02*
X56602000Y-15770000D01*
X62997000Y-15810000D02*
X56603000Y-15810000D01*
X62994000Y-15850000D02*
X56606000Y-15850000D01*
X62992000Y-15890000D02*
X56608000Y-15890000D01*
X62988000Y-15930000D02*
X60780000Y-15930000D01*
X58820000Y-15930000D02*
X56612000Y-15930000D01*
X62985000Y-15970000D02*
X60780000Y-15970000D01*
X58820000Y-15970000D02*
X56615000Y-15970000D01*
X62980000Y-16010000D02*
X60780000Y-16010000D01*
X58820000Y-16010000D02*
X56620000Y-16010000D01*
X62976000Y-16050000D02*
X60780000Y-16050000D01*
X58820000Y-16050000D02*
X56624000Y-16050000D01*
X62970000Y-16090000D02*
X60780000Y-16090000D01*
X58820000Y-16090000D02*
X56630000Y-16090000D01*
X62965000Y-16130000D02*
X60780000Y-16130000D01*
X58820000Y-16130000D02*
X56635000Y-16130000D01*
X62958000Y-16170000D02*
X60780000Y-16170000D01*
X58820000Y-16170000D02*
X56642000Y-16170000D01*
X62952000Y-16210000D02*
X60780000Y-16210000D01*
X58820000Y-16210000D02*
X56648000Y-16210000D01*
X62944000Y-16250000D02*
X60780000Y-16250000D01*
X58820000Y-16250000D02*
X56656000Y-16250000D01*
X62937000Y-16290000D02*
X60780000Y-16290000D01*
X58820000Y-16290000D02*
X56663000Y-16290000D01*
X62928000Y-16330000D02*
X60780000Y-16330000D01*
X58820000Y-16330000D02*
X56672000Y-16330000D01*
X62919000Y-16371000D02*
X60780000Y-16371000D01*
X58820000Y-16371000D02*
X56681000Y-16371000D01*
X62910000Y-16411000D02*
X60780000Y-16411000D01*
X58820000Y-16411000D02*
X56690000Y-16411000D01*
X62900000Y-16451000D02*
X60780000Y-16451000D01*
X58820000Y-16451000D02*
X56700000Y-16451000D01*
X62890000Y-16491000D02*
X60780000Y-16491000D01*
X58820000Y-16491000D02*
X56710000Y-16491000D01*
X62879000Y-16531000D02*
X60780000Y-16531000D01*
X58820000Y-16531000D02*
X56721000Y-16531000D01*
X62867000Y-16571000D02*
X60780000Y-16571000D01*
X58820000Y-16571000D02*
X56733000Y-16571000D01*
X62855000Y-16611000D02*
X60780000Y-16611000D01*
X58820000Y-16611000D02*
X56745000Y-16611000D01*
X62842000Y-16651000D02*
X60780000Y-16651000D01*
X58820000Y-16651000D02*
X56758000Y-16651000D01*
X62829000Y-16691000D02*
X60780000Y-16691000D01*
X58820000Y-16691000D02*
X56771000Y-16691000D01*
X62815000Y-16731000D02*
X60780000Y-16731000D01*
X58820000Y-16731000D02*
X56785000Y-16731000D01*
X62801000Y-16771000D02*
X60780000Y-16771000D01*
X58820000Y-16771000D02*
X56799000Y-16771000D01*
X62786000Y-16811000D02*
X60780000Y-16811000D01*
X58820000Y-16811000D02*
X56814000Y-16811000D01*
X62770000Y-16851000D02*
X60780000Y-16851000D01*
X58820000Y-16851000D02*
X56830000Y-16851000D01*
X62754000Y-16891000D02*
X60780000Y-16891000D01*
X58820000Y-16891000D02*
X56846000Y-16891000D01*
X62737000Y-16931000D02*
X60780000Y-16931000D01*
X58820000Y-16931000D02*
X56863000Y-16931000D01*
X62719000Y-16971000D02*
X60780000Y-16971000D01*
X58820000Y-16971000D02*
X56881000Y-16971000D01*
X62701000Y-17011000D02*
X60780000Y-17011000D01*
X58820000Y-17011000D02*
X56899000Y-17011000D01*
X62682000Y-17051000D02*
X60780000Y-17051000D01*
X58820000Y-17051000D02*
X56918000Y-17051000D01*
X62663000Y-17091000D02*
X60780000Y-17091000D01*
X58820000Y-17091000D02*
X56937000Y-17091000D01*
X62643000Y-17131000D02*
X60780000Y-17131000D01*
X58820000Y-17131000D02*
X56957000Y-17131000D01*
X62622000Y-17171000D02*
X60780000Y-17171000D01*
X58820000Y-17171000D02*
X56978000Y-17171000D01*
X62600000Y-17211000D02*
X60780000Y-17211000D01*
X58820000Y-17211000D02*
X57000000Y-17211000D01*
X62578000Y-17251000D02*
X60780000Y-17251000D01*
X58820000Y-17251000D02*
X57022000Y-17251000D01*
X62555000Y-17291000D02*
X60780000Y-17291000D01*
X58820000Y-17291000D02*
X57045000Y-17291000D01*
X62531000Y-17331000D02*
X60780000Y-17331000D01*
X58820000Y-17331000D02*
X57069000Y-17331000D01*
X62506000Y-17371000D02*
X60780000Y-17371000D01*
X58820000Y-17371000D02*
X57094000Y-17371000D01*
X62481000Y-17411000D02*
X60780000Y-17411000D01*
X58820000Y-17411000D02*
X57119000Y-17411000D01*
X62454000Y-17451000D02*
X60780000Y-17451000D01*
X58820000Y-17451000D02*
X57146000Y-17451000D01*
X62427000Y-17491000D02*
X60780000Y-17491000D01*
X58820000Y-17491000D02*
X57173000Y-17491000D01*
X62399000Y-17531000D02*
X60780000Y-17531000D01*
X58820000Y-17531000D02*
X57201000Y-17531000D01*
X62370000Y-17571000D02*
X60780000Y-17571000D01*
X58820000Y-17571000D02*
X57230000Y-17571000D01*
X62340000Y-17611000D02*
X60780000Y-17611000D01*
X58820000Y-17611000D02*
X57260000Y-17611000D01*
X62310000Y-17651000D02*
X60780000Y-17651000D01*
X58820000Y-17651000D02*
X57290000Y-17651000D01*
X62278000Y-17691000D02*
X60780000Y-17691000D01*
X58820000Y-17691000D02*
X57322000Y-17691000D01*
X62245000Y-17731000D02*
X60780000Y-17731000D01*
X58820000Y-17731000D02*
X57355000Y-17731000D01*
X62211000Y-17771000D02*
X60780000Y-17771000D01*
X58820000Y-17771000D02*
X57389000Y-17771000D01*
X62175000Y-17811000D02*
X60780000Y-17811000D01*
X58820000Y-17811000D02*
X57425000Y-17811000D01*
X62139000Y-17851000D02*
X60780000Y-17851000D01*
X58820000Y-17851000D02*
X57461000Y-17851000D01*
X62101000Y-17891000D02*
X57499000Y-17891000D01*
X62062000Y-17931000D02*
X57538000Y-17931000D01*
X62022000Y-17971000D02*
X57578000Y-17971000D01*
X61980000Y-18011000D02*
X57620000Y-18011000D01*
X61937000Y-18051000D02*
X57663000Y-18051000D01*
X61892000Y-18091000D02*
X57708000Y-18091000D01*
X61845000Y-18131000D02*
X57755000Y-18131000D01*
X61797000Y-18171000D02*
X57803000Y-18171000D01*
X61746000Y-18211000D02*
X57854000Y-18211000D01*
X61694000Y-18251000D02*
X57906000Y-18251000D01*
X61639000Y-18291000D02*
X57961000Y-18291000D01*
X61581000Y-18331000D02*
X58019000Y-18331000D01*
X61521000Y-18371000D02*
X58079000Y-18371000D01*
X61458000Y-18411000D02*
X58142000Y-18411000D01*
X61391000Y-18451000D02*
X58209000Y-18451000D01*
X61320000Y-18491000D02*
X58280000Y-18491000D01*
X61245000Y-18531000D02*
X58355000Y-18531000D01*
X61164000Y-18571000D02*
X58436000Y-18571000D01*
X61078000Y-18611000D02*
X58522000Y-18611000D01*
X60984000Y-18651000D02*
X58616000Y-18651000D01*
X60881000Y-18691000D02*
X58719000Y-18691000D01*
X60766000Y-18731000D02*
X58834000Y-18731000D01*
X60634000Y-18771000D02*
X58966000Y-18771000D01*
X60476000Y-18811000D02*
X59124000Y-18811000D01*
X60268000Y-18851000D02*
X59332000Y-18851000D01*
X59800000Y-12200000D02*
X59800000Y-13400000D01*
X60450000Y-12800000D02*
X59150000Y-12800000D01*
X72879136Y-12567820D02*
G75*
G03X72880000Y-6532518I-1179136J3017820D01*
G01*
X70520864Y-12567820D02*
G75*
G02X70520000Y-6532518I1179136J3017820D01*
G01*
X70520864Y-12567820D02*
G75*
G03X72880000Y-12567482I1179136J3017820D01*
G01*
X74900000Y-9550000D02*
X68500000Y-9550000D01*
X74900000Y-9590000D02*
X68500000Y-9590000D01*
X74900000Y-9630000D02*
X68500000Y-9630000D01*
X74898000Y-9670000D02*
X68502000Y-9670000D01*
X74897000Y-9710000D02*
X68503000Y-9710000D01*
X74894000Y-9750000D02*
X68506000Y-9750000D01*
X74892000Y-9790000D02*
X68508000Y-9790000D01*
X74888000Y-9830000D02*
X72680000Y-9830000D01*
X70720000Y-9830000D02*
X68512000Y-9830000D01*
X74885000Y-9870000D02*
X72680000Y-9870000D01*
X70720000Y-9870000D02*
X68515000Y-9870000D01*
X74880000Y-9910000D02*
X72680000Y-9910000D01*
X70720000Y-9910000D02*
X68520000Y-9910000D01*
X74876000Y-9950000D02*
X72680000Y-9950000D01*
X70720000Y-9950000D02*
X68524000Y-9950000D01*
X74870000Y-9990000D02*
X72680000Y-9990000D01*
X70720000Y-9990000D02*
X68530000Y-9990000D01*
X74865000Y-10030000D02*
X72680000Y-10030000D01*
X70720000Y-10030000D02*
X68535000Y-10030000D01*
X74858000Y-10070000D02*
X72680000Y-10070000D01*
X70720000Y-10070000D02*
X68542000Y-10070000D01*
X74852000Y-10110000D02*
X72680000Y-10110000D01*
X70720000Y-10110000D02*
X68548000Y-10110000D01*
X74844000Y-10150000D02*
X72680000Y-10150000D01*
X70720000Y-10150000D02*
X68556000Y-10150000D01*
X74837000Y-10190000D02*
X72680000Y-10190000D01*
X70720000Y-10190000D02*
X68563000Y-10190000D01*
X74828000Y-10230000D02*
X72680000Y-10230000D01*
X70720000Y-10230000D02*
X68572000Y-10230000D01*
X74819000Y-10271000D02*
X72680000Y-10271000D01*
X70720000Y-10271000D02*
X68581000Y-10271000D01*
X74810000Y-10311000D02*
X72680000Y-10311000D01*
X70720000Y-10311000D02*
X68590000Y-10311000D01*
X74800000Y-10351000D02*
X72680000Y-10351000D01*
X70720000Y-10351000D02*
X68600000Y-10351000D01*
X74790000Y-10391000D02*
X72680000Y-10391000D01*
X70720000Y-10391000D02*
X68610000Y-10391000D01*
X74779000Y-10431000D02*
X72680000Y-10431000D01*
X70720000Y-10431000D02*
X68621000Y-10431000D01*
X74767000Y-10471000D02*
X72680000Y-10471000D01*
X70720000Y-10471000D02*
X68633000Y-10471000D01*
X74755000Y-10511000D02*
X72680000Y-10511000D01*
X70720000Y-10511000D02*
X68645000Y-10511000D01*
X74742000Y-10551000D02*
X72680000Y-10551000D01*
X70720000Y-10551000D02*
X68658000Y-10551000D01*
X74729000Y-10591000D02*
X72680000Y-10591000D01*
X70720000Y-10591000D02*
X68671000Y-10591000D01*
X74715000Y-10631000D02*
X72680000Y-10631000D01*
X70720000Y-10631000D02*
X68685000Y-10631000D01*
X74701000Y-10671000D02*
X72680000Y-10671000D01*
X70720000Y-10671000D02*
X68699000Y-10671000D01*
X74686000Y-10711000D02*
X72680000Y-10711000D01*
X70720000Y-10711000D02*
X68714000Y-10711000D01*
X74670000Y-10751000D02*
X72680000Y-10751000D01*
X70720000Y-10751000D02*
X68730000Y-10751000D01*
X74654000Y-10791000D02*
X72680000Y-10791000D01*
X70720000Y-10791000D02*
X68746000Y-10791000D01*
X74637000Y-10831000D02*
X72680000Y-10831000D01*
X70720000Y-10831000D02*
X68763000Y-10831000D01*
X74619000Y-10871000D02*
X72680000Y-10871000D01*
X70720000Y-10871000D02*
X68781000Y-10871000D01*
X74601000Y-10911000D02*
X72680000Y-10911000D01*
X70720000Y-10911000D02*
X68799000Y-10911000D01*
X74582000Y-10951000D02*
X72680000Y-10951000D01*
X70720000Y-10951000D02*
X68818000Y-10951000D01*
X74563000Y-10991000D02*
X72680000Y-10991000D01*
X70720000Y-10991000D02*
X68837000Y-10991000D01*
X74543000Y-11031000D02*
X72680000Y-11031000D01*
X70720000Y-11031000D02*
X68857000Y-11031000D01*
X74522000Y-11071000D02*
X72680000Y-11071000D01*
X70720000Y-11071000D02*
X68878000Y-11071000D01*
X74500000Y-11111000D02*
X72680000Y-11111000D01*
X70720000Y-11111000D02*
X68900000Y-11111000D01*
X74478000Y-11151000D02*
X72680000Y-11151000D01*
X70720000Y-11151000D02*
X68922000Y-11151000D01*
X74455000Y-11191000D02*
X72680000Y-11191000D01*
X70720000Y-11191000D02*
X68945000Y-11191000D01*
X74431000Y-11231000D02*
X72680000Y-11231000D01*
X70720000Y-11231000D02*
X68969000Y-11231000D01*
X74406000Y-11271000D02*
X72680000Y-11271000D01*
X70720000Y-11271000D02*
X68994000Y-11271000D01*
X74381000Y-11311000D02*
X72680000Y-11311000D01*
X70720000Y-11311000D02*
X69019000Y-11311000D01*
X74354000Y-11351000D02*
X72680000Y-11351000D01*
X70720000Y-11351000D02*
X69046000Y-11351000D01*
X74327000Y-11391000D02*
X72680000Y-11391000D01*
X70720000Y-11391000D02*
X69073000Y-11391000D01*
X74299000Y-11431000D02*
X72680000Y-11431000D01*
X70720000Y-11431000D02*
X69101000Y-11431000D01*
X74270000Y-11471000D02*
X72680000Y-11471000D01*
X70720000Y-11471000D02*
X69130000Y-11471000D01*
X74240000Y-11511000D02*
X72680000Y-11511000D01*
X70720000Y-11511000D02*
X69160000Y-11511000D01*
X74210000Y-11551000D02*
X72680000Y-11551000D01*
X70720000Y-11551000D02*
X69190000Y-11551000D01*
X74178000Y-11591000D02*
X72680000Y-11591000D01*
X70720000Y-11591000D02*
X69222000Y-11591000D01*
X74145000Y-11631000D02*
X72680000Y-11631000D01*
X70720000Y-11631000D02*
X69255000Y-11631000D01*
X74111000Y-11671000D02*
X72680000Y-11671000D01*
X70720000Y-11671000D02*
X69289000Y-11671000D01*
X74075000Y-11711000D02*
X72680000Y-11711000D01*
X70720000Y-11711000D02*
X69325000Y-11711000D01*
X74039000Y-11751000D02*
X72680000Y-11751000D01*
X70720000Y-11751000D02*
X69361000Y-11751000D01*
X74001000Y-11791000D02*
X69399000Y-11791000D01*
X73962000Y-11831000D02*
X69438000Y-11831000D01*
X73922000Y-11871000D02*
X69478000Y-11871000D01*
X73880000Y-11911000D02*
X69520000Y-11911000D01*
X73837000Y-11951000D02*
X69563000Y-11951000D01*
X73792000Y-11991000D02*
X69608000Y-11991000D01*
X73745000Y-12031000D02*
X69655000Y-12031000D01*
X73697000Y-12071000D02*
X69703000Y-12071000D01*
X73646000Y-12111000D02*
X69754000Y-12111000D01*
X73594000Y-12151000D02*
X69806000Y-12151000D01*
X73539000Y-12191000D02*
X69861000Y-12191000D01*
X73481000Y-12231000D02*
X69919000Y-12231000D01*
X73421000Y-12271000D02*
X69979000Y-12271000D01*
X73358000Y-12311000D02*
X70042000Y-12311000D01*
X73291000Y-12351000D02*
X70109000Y-12351000D01*
X73220000Y-12391000D02*
X70180000Y-12391000D01*
X73145000Y-12431000D02*
X70255000Y-12431000D01*
X73064000Y-12471000D02*
X70336000Y-12471000D01*
X72978000Y-12511000D02*
X70422000Y-12511000D01*
X72884000Y-12551000D02*
X70516000Y-12551000D01*
X72781000Y-12591000D02*
X70619000Y-12591000D01*
X72666000Y-12631000D02*
X70734000Y-12631000D01*
X72534000Y-12671000D02*
X70866000Y-12671000D01*
X72376000Y-12711000D02*
X71024000Y-12711000D01*
X72168000Y-12751000D02*
X71232000Y-12751000D01*
X71700000Y-6100000D02*
X71700000Y-7300000D01*
X72350000Y-6700000D02*
X71050000Y-6700000D01*
X55200000Y-7080000D02*
X54200000Y-7080000D01*
X54200000Y-5720000D02*
X55200000Y-5720000D01*
D16*
X2100000Y-22200000D02*
X2100000Y-23200000D01*
X2100000Y-23200000D02*
X17200000Y-23200000D01*
X17200000Y-23200000D02*
X17200000Y-9200000D01*
X17200000Y-9200000D02*
X2800000Y-9200000D01*
X2800000Y-9200000D02*
X2800000Y-10200000D01*
X3700000Y-10900000D02*
G75*
G03X2800000Y-10200000I-800000J-100000D01*
G01*
X3700000Y-10900000D02*
X3700000Y-20600000D01*
X2100000Y-22200000D02*
G75*
G03X3700000Y-20600000I0J1600000D01*
G01*
X1340000Y-10800000D02*
G75*
G02X2540000Y-9600000I1200000J0D01*
G01*
X1340000Y-10800000D02*
X1340000Y-20000000D01*
X2440000Y-21300000D02*
G75*
G02X1340000Y-20000000I100000J1200000D01*
G01*
X440000Y-10800000D02*
G75*
G02X1640000Y-9600000I1200000J0D01*
G01*
X440000Y-10800000D02*
X440000Y-20000000D01*
X1540000Y-21300000D02*
G75*
G02X440000Y-20000000I100000J1200000D01*
G01*
X-3360000Y-10800000D02*
G75*
G02X-2160000Y-9600000I1200000J0D01*
G01*
X-3360000Y-10800000D02*
X-3360000Y-20000000D01*
X-2260000Y-21300000D02*
G75*
G02X-3360000Y-20000000I100000J1200000D01*
G01*
D17*
X57171428Y-14871428D02*
X56885714Y-15071428D01*
X57171428Y-15214285D02*
X56571428Y-15214285D01*
X56571428Y-14985714D01*
X56600000Y-14928571D01*
X56628571Y-14900000D01*
X56685714Y-14871428D01*
X56771428Y-14871428D01*
X56828571Y-14900000D01*
X56857142Y-14928571D01*
X56885714Y-14985714D01*
X56885714Y-15214285D01*
X56628571Y-14642857D02*
X56600000Y-14614285D01*
X56571428Y-14557142D01*
X56571428Y-14414285D01*
X56600000Y-14357142D01*
X56628571Y-14328571D01*
X56685714Y-14300000D01*
X56742857Y-14300000D01*
X56828571Y-14328571D01*
X57171428Y-14671428D01*
X57171428Y-14300000D01*
X56571428Y-13928571D02*
X56571428Y-13871428D01*
X56600000Y-13814285D01*
X56628571Y-13785714D01*
X56685714Y-13757142D01*
X56800000Y-13728571D01*
X56942857Y-13728571D01*
X57057142Y-13757142D01*
X57114285Y-13785714D01*
X57142857Y-13814285D01*
X57171428Y-13871428D01*
X57171428Y-13928571D01*
X57142857Y-13985714D01*
X57114285Y-14014285D01*
X57057142Y-14042857D01*
X56942857Y-14071428D01*
X56800000Y-14071428D01*
X56685714Y-14042857D01*
X56628571Y-14014285D01*
X56600000Y-13985714D01*
X56571428Y-13928571D01*
X56571428Y-13185714D02*
X56571428Y-13471428D01*
X56857142Y-13500000D01*
X56828571Y-13471428D01*
X56800000Y-13414285D01*
X56800000Y-13271428D01*
X56828571Y-13214285D01*
X56857142Y-13185714D01*
X56914285Y-13157142D01*
X57057142Y-13157142D01*
X57114285Y-13185714D01*
X57142857Y-13214285D01*
X57171428Y-13271428D01*
X57171428Y-13414285D01*
X57142857Y-13471428D01*
X57114285Y-13500000D01*
X64546428Y-8771428D02*
X64546428Y-9257142D01*
X64575000Y-9314285D01*
X64603571Y-9342857D01*
X64660714Y-9371428D01*
X64775000Y-9371428D01*
X64832142Y-9342857D01*
X64860714Y-9314285D01*
X64889285Y-9257142D01*
X64889285Y-8771428D01*
X65146428Y-8828571D02*
X65175000Y-8800000D01*
X65232142Y-8771428D01*
X65375000Y-8771428D01*
X65432142Y-8800000D01*
X65460714Y-8828571D01*
X65489285Y-8885714D01*
X65489285Y-8942857D01*
X65460714Y-9028571D01*
X65117857Y-9371428D01*
X65489285Y-9371428D01*
X65860714Y-8771428D02*
X65917857Y-8771428D01*
X65975000Y-8800000D01*
X66003571Y-8828571D01*
X66032142Y-8885714D01*
X66060714Y-9000000D01*
X66060714Y-9142857D01*
X66032142Y-9257142D01*
X66003571Y-9314285D01*
X65975000Y-9342857D01*
X65917857Y-9371428D01*
X65860714Y-9371428D01*
X65803571Y-9342857D01*
X65775000Y-9314285D01*
X65746428Y-9257142D01*
X65717857Y-9142857D01*
X65717857Y-9000000D01*
X65746428Y-8885714D01*
X65775000Y-8828571D01*
X65803571Y-8800000D01*
X65860714Y-8771428D01*
X66289285Y-8828571D02*
X66317857Y-8800000D01*
X66375000Y-8771428D01*
X66517857Y-8771428D01*
X66575000Y-8800000D01*
X66603571Y-8828571D01*
X66632142Y-8885714D01*
X66632142Y-8942857D01*
X66603571Y-9028571D01*
X66260714Y-9371428D01*
X66632142Y-9371428D01*
X57271428Y-12628571D02*
X57214285Y-12600000D01*
X57157142Y-12542857D01*
X57071428Y-12457142D01*
X57014285Y-12428571D01*
X56957142Y-12428571D01*
X56985714Y-12571428D02*
X56928571Y-12542857D01*
X56871428Y-12485714D01*
X56842857Y-12371428D01*
X56842857Y-12171428D01*
X56871428Y-12057142D01*
X56928571Y-12000000D01*
X56985714Y-11971428D01*
X57100000Y-11971428D01*
X57157142Y-12000000D01*
X57214285Y-12057142D01*
X57242857Y-12171428D01*
X57242857Y-12371428D01*
X57214285Y-12485714D01*
X57157142Y-12542857D01*
X57100000Y-12571428D01*
X56985714Y-12571428D01*
X57471428Y-12028571D02*
X57500000Y-12000000D01*
X57557142Y-11971428D01*
X57700000Y-11971428D01*
X57757142Y-12000000D01*
X57785714Y-12028571D01*
X57814285Y-12085714D01*
X57814285Y-12142857D01*
X57785714Y-12228571D01*
X57442857Y-12571428D01*
X57814285Y-12571428D01*
X58185714Y-11971428D02*
X58242857Y-11971428D01*
X58300000Y-12000000D01*
X58328571Y-12028571D01*
X58357142Y-12085714D01*
X58385714Y-12200000D01*
X58385714Y-12342857D01*
X58357142Y-12457142D01*
X58328571Y-12514285D01*
X58300000Y-12542857D01*
X58242857Y-12571428D01*
X58185714Y-12571428D01*
X58128571Y-12542857D01*
X58100000Y-12514285D01*
X58071428Y-12457142D01*
X58042857Y-12342857D01*
X58042857Y-12200000D01*
X58071428Y-12085714D01*
X58100000Y-12028571D01*
X58128571Y-12000000D01*
X58185714Y-11971428D01*
X58585714Y-11971428D02*
X58957142Y-11971428D01*
X58757142Y-12200000D01*
X58842857Y-12200000D01*
X58900000Y-12228571D01*
X58928571Y-12257142D01*
X58957142Y-12314285D01*
X58957142Y-12457142D01*
X58928571Y-12514285D01*
X58900000Y-12542857D01*
X58842857Y-12571428D01*
X58671428Y-12571428D01*
X58614285Y-12542857D01*
X58585714Y-12514285D01*
X54521428Y-18271428D02*
X54235714Y-18471428D01*
X54521428Y-18614285D02*
X53921428Y-18614285D01*
X53921428Y-18385714D01*
X53950000Y-18328571D01*
X53978571Y-18300000D01*
X54035714Y-18271428D01*
X54121428Y-18271428D01*
X54178571Y-18300000D01*
X54207142Y-18328571D01*
X54235714Y-18385714D01*
X54235714Y-18614285D01*
X53978571Y-18042857D02*
X53950000Y-18014285D01*
X53921428Y-17957142D01*
X53921428Y-17814285D01*
X53950000Y-17757142D01*
X53978571Y-17728571D01*
X54035714Y-17700000D01*
X54092857Y-17700000D01*
X54178571Y-17728571D01*
X54521428Y-18071428D01*
X54521428Y-17700000D01*
X53921428Y-17328571D02*
X53921428Y-17271428D01*
X53950000Y-17214285D01*
X53978571Y-17185714D01*
X54035714Y-17157142D01*
X54150000Y-17128571D01*
X54292857Y-17128571D01*
X54407142Y-17157142D01*
X54464285Y-17185714D01*
X54492857Y-17214285D01*
X54521428Y-17271428D01*
X54521428Y-17328571D01*
X54492857Y-17385714D01*
X54464285Y-17414285D01*
X54407142Y-17442857D01*
X54292857Y-17471428D01*
X54150000Y-17471428D01*
X54035714Y-17442857D01*
X53978571Y-17414285D01*
X53950000Y-17385714D01*
X53921428Y-17328571D01*
X54121428Y-16614285D02*
X54521428Y-16614285D01*
X53892857Y-16757142D02*
X54321428Y-16900000D01*
X54321428Y-16528571D01*
X55171428Y-16514285D02*
X54571428Y-16514285D01*
X54571428Y-16371428D01*
X54600000Y-16285714D01*
X54657142Y-16228571D01*
X54714285Y-16200000D01*
X54828571Y-16171428D01*
X54914285Y-16171428D01*
X55028571Y-16200000D01*
X55085714Y-16228571D01*
X55142857Y-16285714D01*
X55171428Y-16371428D01*
X55171428Y-16514285D01*
X54628571Y-15942857D02*
X54600000Y-15914285D01*
X54571428Y-15857142D01*
X54571428Y-15714285D01*
X54600000Y-15657142D01*
X54628571Y-15628571D01*
X54685714Y-15600000D01*
X54742857Y-15600000D01*
X54828571Y-15628571D01*
X55171428Y-15971428D01*
X55171428Y-15600000D01*
X54571428Y-15228571D02*
X54571428Y-15171428D01*
X54600000Y-15114285D01*
X54628571Y-15085714D01*
X54685714Y-15057142D01*
X54800000Y-15028571D01*
X54942857Y-15028571D01*
X55057142Y-15057142D01*
X55114285Y-15085714D01*
X55142857Y-15114285D01*
X55171428Y-15171428D01*
X55171428Y-15228571D01*
X55142857Y-15285714D01*
X55114285Y-15314285D01*
X55057142Y-15342857D01*
X54942857Y-15371428D01*
X54800000Y-15371428D01*
X54685714Y-15342857D01*
X54628571Y-15314285D01*
X54600000Y-15285714D01*
X54571428Y-15228571D01*
X54628571Y-14800000D02*
X54600000Y-14771428D01*
X54571428Y-14714285D01*
X54571428Y-14571428D01*
X54600000Y-14514285D01*
X54628571Y-14485714D01*
X54685714Y-14457142D01*
X54742857Y-14457142D01*
X54828571Y-14485714D01*
X55171428Y-14828571D01*
X55171428Y-14457142D01*
X19357142Y-21471428D02*
X19071428Y-21471428D01*
X19071428Y-20871428D01*
X19557142Y-21157142D02*
X19757142Y-21157142D01*
X19842857Y-21471428D02*
X19557142Y-21471428D01*
X19557142Y-20871428D01*
X19842857Y-20871428D01*
X20100000Y-21471428D02*
X20100000Y-20871428D01*
X20242857Y-20871428D01*
X20328571Y-20900000D01*
X20385714Y-20957142D01*
X20414285Y-21014285D01*
X20442857Y-21128571D01*
X20442857Y-21214285D01*
X20414285Y-21328571D01*
X20385714Y-21385714D01*
X20328571Y-21442857D01*
X20242857Y-21471428D01*
X20100000Y-21471428D01*
X20985714Y-20871428D02*
X20700000Y-20871428D01*
X20671428Y-21157142D01*
X20700000Y-21128571D01*
X20757142Y-21100000D01*
X20900000Y-21100000D01*
X20957142Y-21128571D01*
X20985714Y-21157142D01*
X21014285Y-21214285D01*
X21014285Y-21357142D01*
X20985714Y-21414285D01*
X20957142Y-21442857D01*
X20900000Y-21471428D01*
X20757142Y-21471428D01*
X20700000Y-21442857D01*
X20671428Y-21414285D01*
X21385714Y-20871428D02*
X21442857Y-20871428D01*
X21500000Y-20900000D01*
X21528571Y-20928571D01*
X21557142Y-20985714D01*
X21585714Y-21100000D01*
X21585714Y-21242857D01*
X21557142Y-21357142D01*
X21528571Y-21414285D01*
X21500000Y-21442857D01*
X21442857Y-21471428D01*
X21385714Y-21471428D01*
X21328571Y-21442857D01*
X21300000Y-21414285D01*
X21271428Y-21357142D01*
X21242857Y-21242857D01*
X21242857Y-21100000D01*
X21271428Y-20985714D01*
X21300000Y-20928571D01*
X21328571Y-20900000D01*
X21385714Y-20871428D01*
X22157142Y-21471428D02*
X21814285Y-21471428D01*
X21985714Y-21471428D02*
X21985714Y-20871428D01*
X21928571Y-20957142D01*
X21871428Y-21014285D01*
X21814285Y-21042857D01*
X19457142Y-20471428D02*
X19171428Y-20471428D01*
X19171428Y-19871428D01*
X19657142Y-20157142D02*
X19857142Y-20157142D01*
X19942857Y-20471428D02*
X19657142Y-20471428D01*
X19657142Y-19871428D01*
X19942857Y-19871428D01*
X20200000Y-20471428D02*
X20200000Y-19871428D01*
X20342857Y-19871428D01*
X20428571Y-19900000D01*
X20485714Y-19957142D01*
X20514285Y-20014285D01*
X20542857Y-20128571D01*
X20542857Y-20214285D01*
X20514285Y-20328571D01*
X20485714Y-20385714D01*
X20428571Y-20442857D01*
X20342857Y-20471428D01*
X20200000Y-20471428D01*
X21085714Y-19871428D02*
X20800000Y-19871428D01*
X20771428Y-20157142D01*
X20800000Y-20128571D01*
X20857142Y-20100000D01*
X21000000Y-20100000D01*
X21057142Y-20128571D01*
X21085714Y-20157142D01*
X21114285Y-20214285D01*
X21114285Y-20357142D01*
X21085714Y-20414285D01*
X21057142Y-20442857D01*
X21000000Y-20471428D01*
X20857142Y-20471428D01*
X20800000Y-20442857D01*
X20771428Y-20414285D01*
X21485714Y-19871428D02*
X21542857Y-19871428D01*
X21600000Y-19900000D01*
X21628571Y-19928571D01*
X21657142Y-19985714D01*
X21685714Y-20100000D01*
X21685714Y-20242857D01*
X21657142Y-20357142D01*
X21628571Y-20414285D01*
X21600000Y-20442857D01*
X21542857Y-20471428D01*
X21485714Y-20471428D01*
X21428571Y-20442857D01*
X21400000Y-20414285D01*
X21371428Y-20357142D01*
X21342857Y-20242857D01*
X21342857Y-20100000D01*
X21371428Y-19985714D01*
X21400000Y-19928571D01*
X21428571Y-19900000D01*
X21485714Y-19871428D01*
X21914285Y-19928571D02*
X21942857Y-19900000D01*
X22000000Y-19871428D01*
X22142857Y-19871428D01*
X22200000Y-19900000D01*
X22228571Y-19928571D01*
X22257142Y-19985714D01*
X22257142Y-20042857D01*
X22228571Y-20128571D01*
X21885714Y-20471428D01*
X22257142Y-20471428D01*
X27671428Y-11871428D02*
X27671428Y-12357142D01*
X27700000Y-12414285D01*
X27728571Y-12442857D01*
X27785714Y-12471428D01*
X27900000Y-12471428D01*
X27957142Y-12442857D01*
X27985714Y-12414285D01*
X28014285Y-12357142D01*
X28014285Y-11871428D01*
X28585714Y-11871428D02*
X28300000Y-11871428D01*
X28271428Y-12157142D01*
X28300000Y-12128571D01*
X28357142Y-12100000D01*
X28500000Y-12100000D01*
X28557142Y-12128571D01*
X28585714Y-12157142D01*
X28614285Y-12214285D01*
X28614285Y-12357142D01*
X28585714Y-12414285D01*
X28557142Y-12442857D01*
X28500000Y-12471428D01*
X28357142Y-12471428D01*
X28300000Y-12442857D01*
X28271428Y-12414285D01*
X28985714Y-11871428D02*
X29042857Y-11871428D01*
X29100000Y-11900000D01*
X29128571Y-11928571D01*
X29157142Y-11985714D01*
X29185714Y-12100000D01*
X29185714Y-12242857D01*
X29157142Y-12357142D01*
X29128571Y-12414285D01*
X29100000Y-12442857D01*
X29042857Y-12471428D01*
X28985714Y-12471428D01*
X28928571Y-12442857D01*
X28900000Y-12414285D01*
X28871428Y-12357142D01*
X28842857Y-12242857D01*
X28842857Y-12100000D01*
X28871428Y-11985714D01*
X28900000Y-11928571D01*
X28928571Y-11900000D01*
X28985714Y-11871428D01*
X29385714Y-11871428D02*
X29757142Y-11871428D01*
X29557142Y-12100000D01*
X29642857Y-12100000D01*
X29700000Y-12128571D01*
X29728571Y-12157142D01*
X29757142Y-12214285D01*
X29757142Y-12357142D01*
X29728571Y-12414285D01*
X29700000Y-12442857D01*
X29642857Y-12471428D01*
X29471428Y-12471428D01*
X29414285Y-12442857D01*
X29385714Y-12414285D01*
X62371428Y-33428571D02*
X62857142Y-33428571D01*
X62914285Y-33400000D01*
X62942857Y-33371428D01*
X62971428Y-33314285D01*
X62971428Y-33200000D01*
X62942857Y-33142857D01*
X62914285Y-33114285D01*
X62857142Y-33085714D01*
X62371428Y-33085714D01*
X62971428Y-32485714D02*
X62971428Y-32828571D01*
X62971428Y-32657142D02*
X62371428Y-32657142D01*
X62457142Y-32714285D01*
X62514285Y-32771428D01*
X62542857Y-32828571D01*
X62371428Y-32114285D02*
X62371428Y-32057142D01*
X62400000Y-32000000D01*
X62428571Y-31971428D01*
X62485714Y-31942857D01*
X62600000Y-31914285D01*
X62742857Y-31914285D01*
X62857142Y-31942857D01*
X62914285Y-31971428D01*
X62942857Y-32000000D01*
X62971428Y-32057142D01*
X62971428Y-32114285D01*
X62942857Y-32171428D01*
X62914285Y-32200000D01*
X62857142Y-32228571D01*
X62742857Y-32257142D01*
X62600000Y-32257142D01*
X62485714Y-32228571D01*
X62428571Y-32200000D01*
X62400000Y-32171428D01*
X62371428Y-32114285D01*
X62371428Y-31714285D02*
X62371428Y-31342857D01*
X62600000Y-31542857D01*
X62600000Y-31457142D01*
X62628571Y-31400000D01*
X62657142Y-31371428D01*
X62714285Y-31342857D01*
X62857142Y-31342857D01*
X62914285Y-31371428D01*
X62942857Y-31400000D01*
X62971428Y-31457142D01*
X62971428Y-31628571D01*
X62942857Y-31685714D01*
X62914285Y-31714285D01*
X26671428Y-42471428D02*
X26671428Y-42957142D01*
X26700000Y-43014285D01*
X26728571Y-43042857D01*
X26785714Y-43071428D01*
X26900000Y-43071428D01*
X26957142Y-43042857D01*
X26985714Y-43014285D01*
X27014285Y-42957142D01*
X27014285Y-42471428D01*
X27614285Y-43071428D02*
X27271428Y-43071428D01*
X27442857Y-43071428D02*
X27442857Y-42471428D01*
X27385714Y-42557142D01*
X27328571Y-42614285D01*
X27271428Y-42642857D01*
X27985714Y-42471428D02*
X28042857Y-42471428D01*
X28100000Y-42500000D01*
X28128571Y-42528571D01*
X28157142Y-42585714D01*
X28185714Y-42700000D01*
X28185714Y-42842857D01*
X28157142Y-42957142D01*
X28128571Y-43014285D01*
X28100000Y-43042857D01*
X28042857Y-43071428D01*
X27985714Y-43071428D01*
X27928571Y-43042857D01*
X27900000Y-43014285D01*
X27871428Y-42957142D01*
X27842857Y-42842857D01*
X27842857Y-42700000D01*
X27871428Y-42585714D01*
X27900000Y-42528571D01*
X27928571Y-42500000D01*
X27985714Y-42471428D01*
X28757142Y-43071428D02*
X28414285Y-43071428D01*
X28585714Y-43071428D02*
X28585714Y-42471428D01*
X28528571Y-42557142D01*
X28471428Y-42614285D01*
X28414285Y-42642857D01*
D13*
X34221571Y-42856380D02*
X34221571Y-42523047D01*
X34745380Y-42380190D02*
X34745380Y-42856380D01*
X33745380Y-42856380D01*
X33745380Y-42380190D01*
X34697761Y-41999238D02*
X34745380Y-41856380D01*
X34745380Y-41618285D01*
X34697761Y-41523047D01*
X34650142Y-41475428D01*
X34554904Y-41427809D01*
X34459666Y-41427809D01*
X34364428Y-41475428D01*
X34316809Y-41523047D01*
X34269190Y-41618285D01*
X34221571Y-41808761D01*
X34173952Y-41904000D01*
X34126333Y-41951619D01*
X34031095Y-41999238D01*
X33935857Y-41999238D01*
X33840619Y-41951619D01*
X33793000Y-41904000D01*
X33745380Y-41808761D01*
X33745380Y-41570666D01*
X33793000Y-41427809D01*
X34745380Y-40999238D02*
X33745380Y-40999238D01*
X33745380Y-40618285D01*
X33793000Y-40523047D01*
X33840619Y-40475428D01*
X33935857Y-40427809D01*
X34078714Y-40427809D01*
X34173952Y-40475428D01*
X34221571Y-40523047D01*
X34269190Y-40618285D01*
X34269190Y-40999238D01*
X33745380Y-40094476D02*
X33745380Y-39475428D01*
X34126333Y-39808761D01*
X34126333Y-39665904D01*
X34173952Y-39570666D01*
X34221571Y-39523047D01*
X34316809Y-39475428D01*
X34554904Y-39475428D01*
X34650142Y-39523047D01*
X34697761Y-39570666D01*
X34745380Y-39665904D01*
X34745380Y-39951619D01*
X34697761Y-40046857D01*
X34650142Y-40094476D01*
X33840619Y-39094476D02*
X33793000Y-39046857D01*
X33745380Y-38951619D01*
X33745380Y-38713523D01*
X33793000Y-38618285D01*
X33840619Y-38570666D01*
X33935857Y-38523047D01*
X34031095Y-38523047D01*
X34173952Y-38570666D01*
X34745380Y-39142095D01*
X34745380Y-38523047D01*
X34364428Y-38094476D02*
X34364428Y-37332571D01*
X33745380Y-36951619D02*
X34745380Y-36713523D01*
X34031095Y-36523047D01*
X34745380Y-36332571D01*
X33745380Y-36094476D01*
X34745380Y-35142095D02*
X34269190Y-35475428D01*
X34745380Y-35713523D02*
X33745380Y-35713523D01*
X33745380Y-35332571D01*
X33793000Y-35237333D01*
X33840619Y-35189714D01*
X33935857Y-35142095D01*
X34078714Y-35142095D01*
X34173952Y-35189714D01*
X34221571Y-35237333D01*
X34269190Y-35332571D01*
X34269190Y-35713523D01*
X33745380Y-34523047D02*
X33745380Y-34332571D01*
X33793000Y-34237333D01*
X33888238Y-34142095D01*
X34078714Y-34094476D01*
X34412047Y-34094476D01*
X34602523Y-34142095D01*
X34697761Y-34237333D01*
X34745380Y-34332571D01*
X34745380Y-34523047D01*
X34697761Y-34618285D01*
X34602523Y-34713523D01*
X34412047Y-34761142D01*
X34078714Y-34761142D01*
X33888238Y-34713523D01*
X33793000Y-34618285D01*
X33745380Y-34523047D01*
X33745380Y-33475428D02*
X33745380Y-33284952D01*
X33793000Y-33189714D01*
X33888238Y-33094476D01*
X34078714Y-33046857D01*
X34412047Y-33046857D01*
X34602523Y-33094476D01*
X34697761Y-33189714D01*
X34745380Y-33284952D01*
X34745380Y-33475428D01*
X34697761Y-33570666D01*
X34602523Y-33665904D01*
X34412047Y-33713523D01*
X34078714Y-33713523D01*
X33888238Y-33665904D01*
X33793000Y-33570666D01*
X33745380Y-33475428D01*
X34745380Y-32618285D02*
X33745380Y-32618285D01*
X34459666Y-32284952D01*
X33745380Y-31951619D01*
X34745380Y-31951619D01*
X32570571Y-42832428D02*
X32570571Y-42499095D01*
X33094380Y-42356238D02*
X33094380Y-42832428D01*
X32094380Y-42832428D01*
X32094380Y-42356238D01*
X33046761Y-41975285D02*
X33094380Y-41880047D01*
X33094380Y-41689571D01*
X33046761Y-41594333D01*
X32951523Y-41546714D01*
X32903904Y-41546714D01*
X32808666Y-41594333D01*
X32761047Y-41689571D01*
X32761047Y-41832428D01*
X32713428Y-41927666D01*
X32618190Y-41975285D01*
X32570571Y-41975285D01*
X32475333Y-41927666D01*
X32427714Y-41832428D01*
X32427714Y-41689571D01*
X32475333Y-41594333D01*
X32427714Y-41118142D02*
X33427714Y-41118142D01*
X32475333Y-41118142D02*
X32427714Y-41022904D01*
X32427714Y-40832428D01*
X32475333Y-40737190D01*
X32522952Y-40689571D01*
X32618190Y-40641952D01*
X32903904Y-40641952D01*
X32999142Y-40689571D01*
X33046761Y-40737190D01*
X33094380Y-40832428D01*
X33094380Y-41022904D01*
X33046761Y-41118142D01*
X33094380Y-40213380D02*
X32427714Y-40213380D01*
X32618190Y-40213380D02*
X32522952Y-40165761D01*
X32475333Y-40118142D01*
X32427714Y-40022904D01*
X32427714Y-39927666D01*
X33046761Y-39213380D02*
X33094380Y-39308619D01*
X33094380Y-39499095D01*
X33046761Y-39594333D01*
X32951523Y-39641952D01*
X32570571Y-39641952D01*
X32475333Y-39594333D01*
X32427714Y-39499095D01*
X32427714Y-39308619D01*
X32475333Y-39213380D01*
X32570571Y-39165761D01*
X32665809Y-39165761D01*
X32761047Y-39641952D01*
X33046761Y-38784809D02*
X33094380Y-38689571D01*
X33094380Y-38499095D01*
X33046761Y-38403857D01*
X32951523Y-38356238D01*
X32903904Y-38356238D01*
X32808666Y-38403857D01*
X32761047Y-38499095D01*
X32761047Y-38641952D01*
X32713428Y-38737190D01*
X32618190Y-38784809D01*
X32570571Y-38784809D01*
X32475333Y-38737190D01*
X32427714Y-38641952D01*
X32427714Y-38499095D01*
X32475333Y-38403857D01*
X33046761Y-37975285D02*
X33094380Y-37880047D01*
X33094380Y-37689571D01*
X33046761Y-37594333D01*
X32951523Y-37546714D01*
X32903904Y-37546714D01*
X32808666Y-37594333D01*
X32761047Y-37689571D01*
X32761047Y-37832428D01*
X32713428Y-37927666D01*
X32618190Y-37975285D01*
X32570571Y-37975285D01*
X32475333Y-37927666D01*
X32427714Y-37832428D01*
X32427714Y-37689571D01*
X32475333Y-37594333D01*
X33094380Y-37118142D02*
X32427714Y-37118142D01*
X32094380Y-37118142D02*
X32142000Y-37165761D01*
X32189619Y-37118142D01*
X32142000Y-37070523D01*
X32094380Y-37118142D01*
X32189619Y-37118142D01*
X32427714Y-36784809D02*
X32427714Y-36403857D01*
X33094380Y-36641952D02*
X32237238Y-36641952D01*
X32142000Y-36594333D01*
X32094380Y-36499095D01*
X32094380Y-36403857D01*
X33046761Y-35356238D02*
X33094380Y-35213380D01*
X33094380Y-34975285D01*
X33046761Y-34880047D01*
X32999142Y-34832428D01*
X32903904Y-34784809D01*
X32808666Y-34784809D01*
X32713428Y-34832428D01*
X32665809Y-34880047D01*
X32618190Y-34975285D01*
X32570571Y-35165761D01*
X32522952Y-35261000D01*
X32475333Y-35308619D01*
X32380095Y-35356238D01*
X32284857Y-35356238D01*
X32189619Y-35308619D01*
X32142000Y-35261000D01*
X32094380Y-35165761D01*
X32094380Y-34927666D01*
X32142000Y-34784809D01*
X32427714Y-34451476D02*
X33094380Y-34213380D01*
X32427714Y-33975285D02*
X33094380Y-34213380D01*
X33332476Y-34308619D01*
X33380095Y-34356238D01*
X33427714Y-34451476D01*
X33046761Y-33641952D02*
X33094380Y-33546714D01*
X33094380Y-33356238D01*
X33046761Y-33261000D01*
X32951523Y-33213380D01*
X32903904Y-33213380D01*
X32808666Y-33261000D01*
X32761047Y-33356238D01*
X32761047Y-33499095D01*
X32713428Y-33594333D01*
X32618190Y-33641952D01*
X32570571Y-33641952D01*
X32475333Y-33594333D01*
X32427714Y-33499095D01*
X32427714Y-33356238D01*
X32475333Y-33261000D01*
X32427714Y-32927666D02*
X32427714Y-32546714D01*
X32094380Y-32784809D02*
X32951523Y-32784809D01*
X33046761Y-32737190D01*
X33094380Y-32641952D01*
X33094380Y-32546714D01*
X33046761Y-31832428D02*
X33094380Y-31927666D01*
X33094380Y-32118142D01*
X33046761Y-32213380D01*
X32951523Y-32261000D01*
X32570571Y-32261000D01*
X32475333Y-32213380D01*
X32427714Y-32118142D01*
X32427714Y-31927666D01*
X32475333Y-31832428D01*
X32570571Y-31784809D01*
X32665809Y-31784809D01*
X32761047Y-32261000D01*
X33094380Y-31356238D02*
X32427714Y-31356238D01*
X32522952Y-31356238D02*
X32475333Y-31308619D01*
X32427714Y-31213380D01*
X32427714Y-31070523D01*
X32475333Y-30975285D01*
X32570571Y-30927666D01*
X33094380Y-30927666D01*
X32570571Y-30927666D02*
X32475333Y-30880047D01*
X32427714Y-30784809D01*
X32427714Y-30641952D01*
X32475333Y-30546714D01*
X32570571Y-30499095D01*
X33094380Y-30499095D01*
X33046761Y-30070523D02*
X33094380Y-29975285D01*
X33094380Y-29784809D01*
X33046761Y-29689571D01*
X32951523Y-29641952D01*
X32903904Y-29641952D01*
X32808666Y-29689571D01*
X32761047Y-29784809D01*
X32761047Y-29927666D01*
X32713428Y-30022904D01*
X32618190Y-30070523D01*
X32570571Y-30070523D01*
X32475333Y-30022904D01*
X32427714Y-29927666D01*
X32427714Y-29784809D01*
X32475333Y-29689571D01*
D17*
X28071428Y-35642857D02*
X28071428Y-35928571D01*
X27471428Y-35928571D01*
X27757142Y-35442857D02*
X27757142Y-35242857D01*
X28071428Y-35157142D02*
X28071428Y-35442857D01*
X27471428Y-35442857D01*
X27471428Y-35157142D01*
X28071428Y-34900000D02*
X27471428Y-34900000D01*
X27471428Y-34757142D01*
X27500000Y-34671428D01*
X27557142Y-34614285D01*
X27614285Y-34585714D01*
X27728571Y-34557142D01*
X27814285Y-34557142D01*
X27928571Y-34585714D01*
X27985714Y-34614285D01*
X28042857Y-34671428D01*
X28071428Y-34757142D01*
X28071428Y-34900000D01*
X28071428Y-33985714D02*
X28071428Y-34328571D01*
X28071428Y-34157142D02*
X27471428Y-34157142D01*
X27557142Y-34214285D01*
X27614285Y-34271428D01*
X27642857Y-34328571D01*
X27471428Y-33614285D02*
X27471428Y-33557142D01*
X27500000Y-33500000D01*
X27528571Y-33471428D01*
X27585714Y-33442857D01*
X27700000Y-33414285D01*
X27842857Y-33414285D01*
X27957142Y-33442857D01*
X28014285Y-33471428D01*
X28042857Y-33500000D01*
X28071428Y-33557142D01*
X28071428Y-33614285D01*
X28042857Y-33671428D01*
X28014285Y-33700000D01*
X27957142Y-33728571D01*
X27842857Y-33757142D01*
X27700000Y-33757142D01*
X27585714Y-33728571D01*
X27528571Y-33700000D01*
X27500000Y-33671428D01*
X27471428Y-33614285D01*
X28071428Y-32842857D02*
X28071428Y-33185714D01*
X28071428Y-33014285D02*
X27471428Y-33014285D01*
X27557142Y-33071428D01*
X27614285Y-33128571D01*
X27642857Y-33185714D01*
X7228571Y-4314285D02*
X7200000Y-4342857D01*
X7114285Y-4371428D01*
X7057142Y-4371428D01*
X6971428Y-4342857D01*
X6914285Y-4285714D01*
X6885714Y-4228571D01*
X6857142Y-4114285D01*
X6857142Y-4028571D01*
X6885714Y-3914285D01*
X6914285Y-3857142D01*
X6971428Y-3800000D01*
X7057142Y-3771428D01*
X7114285Y-3771428D01*
X7200000Y-3800000D01*
X7228571Y-3828571D01*
X7742857Y-3971428D02*
X7742857Y-4371428D01*
X7600000Y-3742857D02*
X7457142Y-4171428D01*
X7828571Y-4171428D01*
X8171428Y-3771428D02*
X8228571Y-3771428D01*
X8285714Y-3800000D01*
X8314285Y-3828571D01*
X8342857Y-3885714D01*
X8371428Y-4000000D01*
X8371428Y-4142857D01*
X8342857Y-4257142D01*
X8314285Y-4314285D01*
X8285714Y-4342857D01*
X8228571Y-4371428D01*
X8171428Y-4371428D01*
X8114285Y-4342857D01*
X8085714Y-4314285D01*
X8057142Y-4257142D01*
X8028571Y-4142857D01*
X8028571Y-4000000D01*
X8057142Y-3885714D01*
X8085714Y-3828571D01*
X8114285Y-3800000D01*
X8171428Y-3771428D01*
X8942857Y-4371428D02*
X8600000Y-4371428D01*
X8771428Y-4371428D02*
X8771428Y-3771428D01*
X8714285Y-3857142D01*
X8657142Y-3914285D01*
X8600000Y-3942857D01*
X59671428Y-40128571D02*
X60157142Y-40128571D01*
X60214285Y-40100000D01*
X60242857Y-40071428D01*
X60271428Y-40014285D01*
X60271428Y-39900000D01*
X60242857Y-39842857D01*
X60214285Y-39814285D01*
X60157142Y-39785714D01*
X59671428Y-39785714D01*
X60271428Y-39185714D02*
X60271428Y-39528571D01*
X60271428Y-39357142D02*
X59671428Y-39357142D01*
X59757142Y-39414285D01*
X59814285Y-39471428D01*
X59842857Y-39528571D01*
X59671428Y-38814285D02*
X59671428Y-38757142D01*
X59700000Y-38700000D01*
X59728571Y-38671428D01*
X59785714Y-38642857D01*
X59900000Y-38614285D01*
X60042857Y-38614285D01*
X60157142Y-38642857D01*
X60214285Y-38671428D01*
X60242857Y-38700000D01*
X60271428Y-38757142D01*
X60271428Y-38814285D01*
X60242857Y-38871428D01*
X60214285Y-38900000D01*
X60157142Y-38928571D01*
X60042857Y-38957142D01*
X59900000Y-38957142D01*
X59785714Y-38928571D01*
X59728571Y-38900000D01*
X59700000Y-38871428D01*
X59671428Y-38814285D01*
X59728571Y-38385714D02*
X59700000Y-38357142D01*
X59671428Y-38300000D01*
X59671428Y-38157142D01*
X59700000Y-38100000D01*
X59728571Y-38071428D01*
X59785714Y-38042857D01*
X59842857Y-38042857D01*
X59928571Y-38071428D01*
X60271428Y-38414285D01*
X60271428Y-38042857D01*
X30271428Y-22671428D02*
X30614285Y-22671428D01*
X30442857Y-23271428D02*
X30442857Y-22671428D01*
X30814285Y-23271428D02*
X30814285Y-22671428D01*
X31042857Y-22671428D01*
X31100000Y-22700000D01*
X31128571Y-22728571D01*
X31157142Y-22785714D01*
X31157142Y-22871428D01*
X31128571Y-22928571D01*
X31100000Y-22957142D01*
X31042857Y-22985714D01*
X30814285Y-22985714D01*
X31700000Y-22671428D02*
X31414285Y-22671428D01*
X31385714Y-22957142D01*
X31414285Y-22928571D01*
X31471428Y-22900000D01*
X31614285Y-22900000D01*
X31671428Y-22928571D01*
X31700000Y-22957142D01*
X31728571Y-23014285D01*
X31728571Y-23157142D01*
X31700000Y-23214285D01*
X31671428Y-23242857D01*
X31614285Y-23271428D01*
X31471428Y-23271428D01*
X31414285Y-23242857D01*
X31385714Y-23214285D01*
X32100000Y-22671428D02*
X32157142Y-22671428D01*
X32214285Y-22700000D01*
X32242857Y-22728571D01*
X32271428Y-22785714D01*
X32300000Y-22900000D01*
X32300000Y-23042857D01*
X32271428Y-23157142D01*
X32242857Y-23214285D01*
X32214285Y-23242857D01*
X32157142Y-23271428D01*
X32100000Y-23271428D01*
X32042857Y-23242857D01*
X32014285Y-23214285D01*
X31985714Y-23157142D01*
X31957142Y-23042857D01*
X31957142Y-22900000D01*
X31985714Y-22785714D01*
X32014285Y-22728571D01*
X32042857Y-22700000D01*
X32100000Y-22671428D01*
X32528571Y-22728571D02*
X32557142Y-22700000D01*
X32614285Y-22671428D01*
X32757142Y-22671428D01*
X32814285Y-22700000D01*
X32842857Y-22728571D01*
X32871428Y-22785714D01*
X32871428Y-22842857D01*
X32842857Y-22928571D01*
X32500000Y-23271428D01*
X32871428Y-23271428D01*
X52571428Y-32671428D02*
X52285714Y-32871428D01*
X52571428Y-33014285D02*
X51971428Y-33014285D01*
X51971428Y-32785714D01*
X52000000Y-32728571D01*
X52028571Y-32700000D01*
X52085714Y-32671428D01*
X52171428Y-32671428D01*
X52228571Y-32700000D01*
X52257142Y-32728571D01*
X52285714Y-32785714D01*
X52285714Y-33014285D01*
X52571428Y-32100000D02*
X52571428Y-32442857D01*
X52571428Y-32271428D02*
X51971428Y-32271428D01*
X52057142Y-32328571D01*
X52114285Y-32385714D01*
X52142857Y-32442857D01*
X51971428Y-31728571D02*
X51971428Y-31671428D01*
X52000000Y-31614285D01*
X52028571Y-31585714D01*
X52085714Y-31557142D01*
X52200000Y-31528571D01*
X52342857Y-31528571D01*
X52457142Y-31557142D01*
X52514285Y-31585714D01*
X52542857Y-31614285D01*
X52571428Y-31671428D01*
X52571428Y-31728571D01*
X52542857Y-31785714D01*
X52514285Y-31814285D01*
X52457142Y-31842857D01*
X52342857Y-31871428D01*
X52200000Y-31871428D01*
X52085714Y-31842857D01*
X52028571Y-31814285D01*
X52000000Y-31785714D01*
X51971428Y-31728571D01*
X52171428Y-31014285D02*
X52571428Y-31014285D01*
X51942857Y-31157142D02*
X52371428Y-31300000D01*
X52371428Y-30928571D01*
X20428571Y-49571428D02*
X20228571Y-49285714D01*
X20085714Y-49571428D02*
X20085714Y-48971428D01*
X20314285Y-48971428D01*
X20371428Y-49000000D01*
X20400000Y-49028571D01*
X20428571Y-49085714D01*
X20428571Y-49171428D01*
X20400000Y-49228571D01*
X20371428Y-49257142D01*
X20314285Y-49285714D01*
X20085714Y-49285714D01*
X20628571Y-48971428D02*
X21000000Y-48971428D01*
X20800000Y-49200000D01*
X20885714Y-49200000D01*
X20942857Y-49228571D01*
X20971428Y-49257142D01*
X21000000Y-49314285D01*
X21000000Y-49457142D01*
X20971428Y-49514285D01*
X20942857Y-49542857D01*
X20885714Y-49571428D01*
X20714285Y-49571428D01*
X20657142Y-49542857D01*
X20628571Y-49514285D01*
X21371428Y-48971428D02*
X21428571Y-48971428D01*
X21485714Y-49000000D01*
X21514285Y-49028571D01*
X21542857Y-49085714D01*
X21571428Y-49200000D01*
X21571428Y-49342857D01*
X21542857Y-49457142D01*
X21514285Y-49514285D01*
X21485714Y-49542857D01*
X21428571Y-49571428D01*
X21371428Y-49571428D01*
X21314285Y-49542857D01*
X21285714Y-49514285D01*
X21257142Y-49457142D01*
X21228571Y-49342857D01*
X21228571Y-49200000D01*
X21257142Y-49085714D01*
X21285714Y-49028571D01*
X21314285Y-49000000D01*
X21371428Y-48971428D01*
X22142857Y-49571428D02*
X21800000Y-49571428D01*
X21971428Y-49571428D02*
X21971428Y-48971428D01*
X21914285Y-49057142D01*
X21857142Y-49114285D01*
X21800000Y-49142857D01*
X21128571Y-47428571D02*
X21100000Y-47485714D01*
X21042857Y-47542857D01*
X20957142Y-47628571D01*
X20928571Y-47685714D01*
X20928571Y-47742857D01*
X21071428Y-47714285D02*
X21042857Y-47771428D01*
X20985714Y-47828571D01*
X20871428Y-47857142D01*
X20671428Y-47857142D01*
X20557142Y-47828571D01*
X20500000Y-47771428D01*
X20471428Y-47714285D01*
X20471428Y-47600000D01*
X20500000Y-47542857D01*
X20557142Y-47485714D01*
X20671428Y-47457142D01*
X20871428Y-47457142D01*
X20985714Y-47485714D01*
X21042857Y-47542857D01*
X21071428Y-47600000D01*
X21071428Y-47714285D01*
X20471428Y-47257142D02*
X20471428Y-46885714D01*
X20700000Y-47085714D01*
X20700000Y-47000000D01*
X20728571Y-46942857D01*
X20757142Y-46914285D01*
X20814285Y-46885714D01*
X20957142Y-46885714D01*
X21014285Y-46914285D01*
X21042857Y-46942857D01*
X21071428Y-47000000D01*
X21071428Y-47171428D01*
X21042857Y-47228571D01*
X21014285Y-47257142D01*
X20471428Y-46514285D02*
X20471428Y-46457142D01*
X20500000Y-46400000D01*
X20528571Y-46371428D01*
X20585714Y-46342857D01*
X20700000Y-46314285D01*
X20842857Y-46314285D01*
X20957142Y-46342857D01*
X21014285Y-46371428D01*
X21042857Y-46400000D01*
X21071428Y-46457142D01*
X21071428Y-46514285D01*
X21042857Y-46571428D01*
X21014285Y-46600000D01*
X20957142Y-46628571D01*
X20842857Y-46657142D01*
X20700000Y-46657142D01*
X20585714Y-46628571D01*
X20528571Y-46600000D01*
X20500000Y-46571428D01*
X20471428Y-46514285D01*
X21071428Y-45742857D02*
X21071428Y-46085714D01*
X21071428Y-45914285D02*
X20471428Y-45914285D01*
X20557142Y-45971428D01*
X20614285Y-46028571D01*
X20642857Y-46085714D01*
X29228571Y-5942857D02*
X29314285Y-5971428D01*
X29457142Y-5971428D01*
X29514285Y-5942857D01*
X29542857Y-5914285D01*
X29571428Y-5857142D01*
X29571428Y-5800000D01*
X29542857Y-5742857D01*
X29514285Y-5714285D01*
X29457142Y-5685714D01*
X29342857Y-5657142D01*
X29285714Y-5628571D01*
X29257142Y-5600000D01*
X29228571Y-5542857D01*
X29228571Y-5485714D01*
X29257142Y-5428571D01*
X29285714Y-5400000D01*
X29342857Y-5371428D01*
X29485714Y-5371428D01*
X29571428Y-5400000D01*
X29771428Y-5371428D02*
X29914285Y-5971428D01*
X30028571Y-5542857D01*
X30142857Y-5971428D01*
X30285714Y-5371428D01*
X30800000Y-5371428D02*
X30514285Y-5371428D01*
X30485714Y-5657142D01*
X30514285Y-5628571D01*
X30571428Y-5600000D01*
X30714285Y-5600000D01*
X30771428Y-5628571D01*
X30800000Y-5657142D01*
X30828571Y-5714285D01*
X30828571Y-5857142D01*
X30800000Y-5914285D01*
X30771428Y-5942857D01*
X30714285Y-5971428D01*
X30571428Y-5971428D01*
X30514285Y-5942857D01*
X30485714Y-5914285D01*
X31200000Y-5371428D02*
X31257142Y-5371428D01*
X31314285Y-5400000D01*
X31342857Y-5428571D01*
X31371428Y-5485714D01*
X31400000Y-5600000D01*
X31400000Y-5742857D01*
X31371428Y-5857142D01*
X31342857Y-5914285D01*
X31314285Y-5942857D01*
X31257142Y-5971428D01*
X31200000Y-5971428D01*
X31142857Y-5942857D01*
X31114285Y-5914285D01*
X31085714Y-5857142D01*
X31057142Y-5742857D01*
X31057142Y-5600000D01*
X31085714Y-5485714D01*
X31114285Y-5428571D01*
X31142857Y-5400000D01*
X31200000Y-5371428D01*
X31971428Y-5971428D02*
X31628571Y-5971428D01*
X31800000Y-5971428D02*
X31800000Y-5371428D01*
X31742857Y-5457142D01*
X31685714Y-5514285D01*
X31628571Y-5542857D01*
X30128571Y-13242857D02*
X30214285Y-13271428D01*
X30357142Y-13271428D01*
X30414285Y-13242857D01*
X30442857Y-13214285D01*
X30471428Y-13157142D01*
X30471428Y-13100000D01*
X30442857Y-13042857D01*
X30414285Y-13014285D01*
X30357142Y-12985714D01*
X30242857Y-12957142D01*
X30185714Y-12928571D01*
X30157142Y-12900000D01*
X30128571Y-12842857D01*
X30128571Y-12785714D01*
X30157142Y-12728571D01*
X30185714Y-12700000D01*
X30242857Y-12671428D01*
X30385714Y-12671428D01*
X30471428Y-12700000D01*
X30671428Y-12671428D02*
X30814285Y-13271428D01*
X30928571Y-12842857D01*
X31042857Y-13271428D01*
X31185714Y-12671428D01*
X31700000Y-12671428D02*
X31414285Y-12671428D01*
X31385714Y-12957142D01*
X31414285Y-12928571D01*
X31471428Y-12900000D01*
X31614285Y-12900000D01*
X31671428Y-12928571D01*
X31700000Y-12957142D01*
X31728571Y-13014285D01*
X31728571Y-13157142D01*
X31700000Y-13214285D01*
X31671428Y-13242857D01*
X31614285Y-13271428D01*
X31471428Y-13271428D01*
X31414285Y-13242857D01*
X31385714Y-13214285D01*
X32100000Y-12671428D02*
X32157142Y-12671428D01*
X32214285Y-12700000D01*
X32242857Y-12728571D01*
X32271428Y-12785714D01*
X32300000Y-12900000D01*
X32300000Y-13042857D01*
X32271428Y-13157142D01*
X32242857Y-13214285D01*
X32214285Y-13242857D01*
X32157142Y-13271428D01*
X32100000Y-13271428D01*
X32042857Y-13242857D01*
X32014285Y-13214285D01*
X31985714Y-13157142D01*
X31957142Y-13042857D01*
X31957142Y-12900000D01*
X31985714Y-12785714D01*
X32014285Y-12728571D01*
X32042857Y-12700000D01*
X32100000Y-12671428D01*
X32528571Y-12728571D02*
X32557142Y-12700000D01*
X32614285Y-12671428D01*
X32757142Y-12671428D01*
X32814285Y-12700000D01*
X32842857Y-12728571D01*
X32871428Y-12785714D01*
X32871428Y-12842857D01*
X32842857Y-12928571D01*
X32500000Y-13271428D01*
X32871428Y-13271428D01*
X25471428Y-21471428D02*
X25814285Y-21471428D01*
X25642857Y-22071428D02*
X25642857Y-21471428D01*
X26014285Y-22071428D02*
X26014285Y-21471428D01*
X26242857Y-21471428D01*
X26300000Y-21500000D01*
X26328571Y-21528571D01*
X26357142Y-21585714D01*
X26357142Y-21671428D01*
X26328571Y-21728571D01*
X26300000Y-21757142D01*
X26242857Y-21785714D01*
X26014285Y-21785714D01*
X26900000Y-21471428D02*
X26614285Y-21471428D01*
X26585714Y-21757142D01*
X26614285Y-21728571D01*
X26671428Y-21700000D01*
X26814285Y-21700000D01*
X26871428Y-21728571D01*
X26900000Y-21757142D01*
X26928571Y-21814285D01*
X26928571Y-21957142D01*
X26900000Y-22014285D01*
X26871428Y-22042857D01*
X26814285Y-22071428D01*
X26671428Y-22071428D01*
X26614285Y-22042857D01*
X26585714Y-22014285D01*
X27300000Y-21471428D02*
X27357142Y-21471428D01*
X27414285Y-21500000D01*
X27442857Y-21528571D01*
X27471428Y-21585714D01*
X27500000Y-21700000D01*
X27500000Y-21842857D01*
X27471428Y-21957142D01*
X27442857Y-22014285D01*
X27414285Y-22042857D01*
X27357142Y-22071428D01*
X27300000Y-22071428D01*
X27242857Y-22042857D01*
X27214285Y-22014285D01*
X27185714Y-21957142D01*
X27157142Y-21842857D01*
X27157142Y-21700000D01*
X27185714Y-21585714D01*
X27214285Y-21528571D01*
X27242857Y-21500000D01*
X27300000Y-21471428D01*
X28071428Y-22071428D02*
X27728571Y-22071428D01*
X27900000Y-22071428D02*
X27900000Y-21471428D01*
X27842857Y-21557142D01*
X27785714Y-21614285D01*
X27728571Y-21642857D01*
X24671428Y-6271428D02*
X24671428Y-6757142D01*
X24700000Y-6814285D01*
X24728571Y-6842857D01*
X24785714Y-6871428D01*
X24900000Y-6871428D01*
X24957142Y-6842857D01*
X24985714Y-6814285D01*
X25014285Y-6757142D01*
X25014285Y-6271428D01*
X25585714Y-6271428D02*
X25300000Y-6271428D01*
X25271428Y-6557142D01*
X25300000Y-6528571D01*
X25357142Y-6500000D01*
X25500000Y-6500000D01*
X25557142Y-6528571D01*
X25585714Y-6557142D01*
X25614285Y-6614285D01*
X25614285Y-6757142D01*
X25585714Y-6814285D01*
X25557142Y-6842857D01*
X25500000Y-6871428D01*
X25357142Y-6871428D01*
X25300000Y-6842857D01*
X25271428Y-6814285D01*
X25985714Y-6271428D02*
X26042857Y-6271428D01*
X26100000Y-6300000D01*
X26128571Y-6328571D01*
X26157142Y-6385714D01*
X26185714Y-6500000D01*
X26185714Y-6642857D01*
X26157142Y-6757142D01*
X26128571Y-6814285D01*
X26100000Y-6842857D01*
X26042857Y-6871428D01*
X25985714Y-6871428D01*
X25928571Y-6842857D01*
X25900000Y-6814285D01*
X25871428Y-6757142D01*
X25842857Y-6642857D01*
X25842857Y-6500000D01*
X25871428Y-6385714D01*
X25900000Y-6328571D01*
X25928571Y-6300000D01*
X25985714Y-6271428D01*
X26414285Y-6328571D02*
X26442857Y-6300000D01*
X26500000Y-6271428D01*
X26642857Y-6271428D01*
X26700000Y-6300000D01*
X26728571Y-6328571D01*
X26757142Y-6385714D01*
X26757142Y-6442857D01*
X26728571Y-6528571D01*
X26385714Y-6871428D01*
X26757142Y-6871428D01*
X21271428Y-4771428D02*
X21271428Y-5257142D01*
X21300000Y-5314285D01*
X21328571Y-5342857D01*
X21385714Y-5371428D01*
X21500000Y-5371428D01*
X21557142Y-5342857D01*
X21585714Y-5314285D01*
X21614285Y-5257142D01*
X21614285Y-4771428D01*
X22185714Y-4771428D02*
X21900000Y-4771428D01*
X21871428Y-5057142D01*
X21900000Y-5028571D01*
X21957142Y-5000000D01*
X22100000Y-5000000D01*
X22157142Y-5028571D01*
X22185714Y-5057142D01*
X22214285Y-5114285D01*
X22214285Y-5257142D01*
X22185714Y-5314285D01*
X22157142Y-5342857D01*
X22100000Y-5371428D01*
X21957142Y-5371428D01*
X21900000Y-5342857D01*
X21871428Y-5314285D01*
X22585714Y-4771428D02*
X22642857Y-4771428D01*
X22700000Y-4800000D01*
X22728571Y-4828571D01*
X22757142Y-4885714D01*
X22785714Y-5000000D01*
X22785714Y-5142857D01*
X22757142Y-5257142D01*
X22728571Y-5314285D01*
X22700000Y-5342857D01*
X22642857Y-5371428D01*
X22585714Y-5371428D01*
X22528571Y-5342857D01*
X22500000Y-5314285D01*
X22471428Y-5257142D01*
X22442857Y-5142857D01*
X22442857Y-5000000D01*
X22471428Y-4885714D01*
X22500000Y-4828571D01*
X22528571Y-4800000D01*
X22585714Y-4771428D01*
X23357142Y-5371428D02*
X23014285Y-5371428D01*
X23185714Y-5371428D02*
X23185714Y-4771428D01*
X23128571Y-4857142D01*
X23071428Y-4914285D01*
X23014285Y-4942857D01*
X43057142Y-15971428D02*
X43057142Y-16171428D01*
X43371428Y-16171428D02*
X42771428Y-16171428D01*
X42771428Y-15885714D01*
X42828571Y-15685714D02*
X42800000Y-15657142D01*
X42771428Y-15600000D01*
X42771428Y-15457142D01*
X42800000Y-15400000D01*
X42828571Y-15371428D01*
X42885714Y-15342857D01*
X42942857Y-15342857D01*
X43028571Y-15371428D01*
X43371428Y-15714285D01*
X43371428Y-15342857D01*
X42771428Y-14971428D02*
X42771428Y-14914285D01*
X42800000Y-14857142D01*
X42828571Y-14828571D01*
X42885714Y-14800000D01*
X43000000Y-14771428D01*
X43142857Y-14771428D01*
X43257142Y-14800000D01*
X43314285Y-14828571D01*
X43342857Y-14857142D01*
X43371428Y-14914285D01*
X43371428Y-14971428D01*
X43342857Y-15028571D01*
X43314285Y-15057142D01*
X43257142Y-15085714D01*
X43142857Y-15114285D01*
X43000000Y-15114285D01*
X42885714Y-15085714D01*
X42828571Y-15057142D01*
X42800000Y-15028571D01*
X42771428Y-14971428D01*
X43371428Y-14200000D02*
X43371428Y-14542857D01*
X43371428Y-14371428D02*
X42771428Y-14371428D01*
X42857142Y-14428571D01*
X42914285Y-14485714D01*
X42942857Y-14542857D01*
X46871428Y-5571428D02*
X46871428Y-6057142D01*
X46900000Y-6114285D01*
X46928571Y-6142857D01*
X46985714Y-6171428D01*
X47100000Y-6171428D01*
X47157142Y-6142857D01*
X47185714Y-6114285D01*
X47214285Y-6057142D01*
X47214285Y-5571428D01*
X47471428Y-5628571D02*
X47500000Y-5600000D01*
X47557142Y-5571428D01*
X47700000Y-5571428D01*
X47757142Y-5600000D01*
X47785714Y-5628571D01*
X47814285Y-5685714D01*
X47814285Y-5742857D01*
X47785714Y-5828571D01*
X47442857Y-6171428D01*
X47814285Y-6171428D01*
X48185714Y-5571428D02*
X48242857Y-5571428D01*
X48300000Y-5600000D01*
X48328571Y-5628571D01*
X48357142Y-5685714D01*
X48385714Y-5800000D01*
X48385714Y-5942857D01*
X48357142Y-6057142D01*
X48328571Y-6114285D01*
X48300000Y-6142857D01*
X48242857Y-6171428D01*
X48185714Y-6171428D01*
X48128571Y-6142857D01*
X48100000Y-6114285D01*
X48071428Y-6057142D01*
X48042857Y-5942857D01*
X48042857Y-5800000D01*
X48071428Y-5685714D01*
X48100000Y-5628571D01*
X48128571Y-5600000D01*
X48185714Y-5571428D01*
X48957142Y-6171428D02*
X48614285Y-6171428D01*
X48785714Y-6171428D02*
X48785714Y-5571428D01*
X48728571Y-5657142D01*
X48671428Y-5714285D01*
X48614285Y-5742857D01*
X54228571Y-13042857D02*
X54314285Y-13071428D01*
X54457142Y-13071428D01*
X54514285Y-13042857D01*
X54542857Y-13014285D01*
X54571428Y-12957142D01*
X54571428Y-12900000D01*
X54542857Y-12842857D01*
X54514285Y-12814285D01*
X54457142Y-12785714D01*
X54342857Y-12757142D01*
X54285714Y-12728571D01*
X54257142Y-12700000D01*
X54228571Y-12642857D01*
X54228571Y-12585714D01*
X54257142Y-12528571D01*
X54285714Y-12500000D01*
X54342857Y-12471428D01*
X54485714Y-12471428D01*
X54571428Y-12500000D01*
X54771428Y-12471428D02*
X54914285Y-13071428D01*
X55028571Y-12642857D01*
X55142857Y-13071428D01*
X55285714Y-12471428D01*
X55485714Y-12528571D02*
X55514285Y-12500000D01*
X55571428Y-12471428D01*
X55714285Y-12471428D01*
X55771428Y-12500000D01*
X55800000Y-12528571D01*
X55828571Y-12585714D01*
X55828571Y-12642857D01*
X55800000Y-12728571D01*
X55457142Y-13071428D01*
X55828571Y-13071428D01*
X56200000Y-12471428D02*
X56257142Y-12471428D01*
X56314285Y-12500000D01*
X56342857Y-12528571D01*
X56371428Y-12585714D01*
X56400000Y-12700000D01*
X56400000Y-12842857D01*
X56371428Y-12957142D01*
X56342857Y-13014285D01*
X56314285Y-13042857D01*
X56257142Y-13071428D01*
X56200000Y-13071428D01*
X56142857Y-13042857D01*
X56114285Y-13014285D01*
X56085714Y-12957142D01*
X56057142Y-12842857D01*
X56057142Y-12700000D01*
X56085714Y-12585714D01*
X56114285Y-12528571D01*
X56142857Y-12500000D01*
X56200000Y-12471428D01*
X56971428Y-13071428D02*
X56628571Y-13071428D01*
X56800000Y-13071428D02*
X56800000Y-12471428D01*
X56742857Y-12557142D01*
X56685714Y-12614285D01*
X56628571Y-12642857D01*
X8471428Y-32771428D02*
X8471428Y-33257142D01*
X8500000Y-33314285D01*
X8528571Y-33342857D01*
X8585714Y-33371428D01*
X8700000Y-33371428D01*
X8757142Y-33342857D01*
X8785714Y-33314285D01*
X8814285Y-33257142D01*
X8814285Y-32771428D01*
X9042857Y-32771428D02*
X9414285Y-32771428D01*
X9214285Y-33000000D01*
X9300000Y-33000000D01*
X9357142Y-33028571D01*
X9385714Y-33057142D01*
X9414285Y-33114285D01*
X9414285Y-33257142D01*
X9385714Y-33314285D01*
X9357142Y-33342857D01*
X9300000Y-33371428D01*
X9128571Y-33371428D01*
X9071428Y-33342857D01*
X9042857Y-33314285D01*
X9785714Y-32771428D02*
X9842857Y-32771428D01*
X9900000Y-32800000D01*
X9928571Y-32828571D01*
X9957142Y-32885714D01*
X9985714Y-33000000D01*
X9985714Y-33142857D01*
X9957142Y-33257142D01*
X9928571Y-33314285D01*
X9900000Y-33342857D01*
X9842857Y-33371428D01*
X9785714Y-33371428D01*
X9728571Y-33342857D01*
X9700000Y-33314285D01*
X9671428Y-33257142D01*
X9642857Y-33142857D01*
X9642857Y-33000000D01*
X9671428Y-32885714D01*
X9700000Y-32828571D01*
X9728571Y-32800000D01*
X9785714Y-32771428D01*
X10557142Y-33371428D02*
X10214285Y-33371428D01*
X10385714Y-33371428D02*
X10385714Y-32771428D01*
X10328571Y-32857142D01*
X10271428Y-32914285D01*
X10214285Y-32942857D01*
X21814285Y-43771428D02*
X21842857Y-43800000D01*
X21871428Y-43885714D01*
X21871428Y-43942857D01*
X21842857Y-44028571D01*
X21785714Y-44085714D01*
X21728571Y-44114285D01*
X21614285Y-44142857D01*
X21528571Y-44142857D01*
X21414285Y-44114285D01*
X21357142Y-44085714D01*
X21300000Y-44028571D01*
X21271428Y-43942857D01*
X21271428Y-43885714D01*
X21300000Y-43800000D01*
X21328571Y-43771428D01*
X21271428Y-43571428D02*
X21271428Y-43200000D01*
X21500000Y-43400000D01*
X21500000Y-43314285D01*
X21528571Y-43257142D01*
X21557142Y-43228571D01*
X21614285Y-43200000D01*
X21757142Y-43200000D01*
X21814285Y-43228571D01*
X21842857Y-43257142D01*
X21871428Y-43314285D01*
X21871428Y-43485714D01*
X21842857Y-43542857D01*
X21814285Y-43571428D01*
X21271428Y-42828571D02*
X21271428Y-42771428D01*
X21300000Y-42714285D01*
X21328571Y-42685714D01*
X21385714Y-42657142D01*
X21500000Y-42628571D01*
X21642857Y-42628571D01*
X21757142Y-42657142D01*
X21814285Y-42685714D01*
X21842857Y-42714285D01*
X21871428Y-42771428D01*
X21871428Y-42828571D01*
X21842857Y-42885714D01*
X21814285Y-42914285D01*
X21757142Y-42942857D01*
X21642857Y-42971428D01*
X21500000Y-42971428D01*
X21385714Y-42942857D01*
X21328571Y-42914285D01*
X21300000Y-42885714D01*
X21271428Y-42828571D01*
X21871428Y-42057142D02*
X21871428Y-42400000D01*
X21871428Y-42228571D02*
X21271428Y-42228571D01*
X21357142Y-42285714D01*
X21414285Y-42342857D01*
X21442857Y-42400000D01*
X46028571Y-10014285D02*
X46000000Y-10042857D01*
X45914285Y-10071428D01*
X45857142Y-10071428D01*
X45771428Y-10042857D01*
X45714285Y-9985714D01*
X45685714Y-9928571D01*
X45657142Y-9814285D01*
X45657142Y-9728571D01*
X45685714Y-9614285D01*
X45714285Y-9557142D01*
X45771428Y-9500000D01*
X45857142Y-9471428D01*
X45914285Y-9471428D01*
X46000000Y-9500000D01*
X46028571Y-9528571D01*
X46257142Y-9528571D02*
X46285714Y-9500000D01*
X46342857Y-9471428D01*
X46485714Y-9471428D01*
X46542857Y-9500000D01*
X46571428Y-9528571D01*
X46600000Y-9585714D01*
X46600000Y-9642857D01*
X46571428Y-9728571D01*
X46228571Y-10071428D01*
X46600000Y-10071428D01*
X46971428Y-9471428D02*
X47028571Y-9471428D01*
X47085714Y-9500000D01*
X47114285Y-9528571D01*
X47142857Y-9585714D01*
X47171428Y-9700000D01*
X47171428Y-9842857D01*
X47142857Y-9957142D01*
X47114285Y-10014285D01*
X47085714Y-10042857D01*
X47028571Y-10071428D01*
X46971428Y-10071428D01*
X46914285Y-10042857D01*
X46885714Y-10014285D01*
X46857142Y-9957142D01*
X46828571Y-9842857D01*
X46828571Y-9700000D01*
X46857142Y-9585714D01*
X46885714Y-9528571D01*
X46914285Y-9500000D01*
X46971428Y-9471428D01*
X47371428Y-9471428D02*
X47742857Y-9471428D01*
X47542857Y-9700000D01*
X47628571Y-9700000D01*
X47685714Y-9728571D01*
X47714285Y-9757142D01*
X47742857Y-9814285D01*
X47742857Y-9957142D01*
X47714285Y-10014285D01*
X47685714Y-10042857D01*
X47628571Y-10071428D01*
X47457142Y-10071428D01*
X47400000Y-10042857D01*
X47371428Y-10014285D01*
X45914285Y-13071428D02*
X45942857Y-13100000D01*
X45971428Y-13185714D01*
X45971428Y-13242857D01*
X45942857Y-13328571D01*
X45885714Y-13385714D01*
X45828571Y-13414285D01*
X45714285Y-13442857D01*
X45628571Y-13442857D01*
X45514285Y-13414285D01*
X45457142Y-13385714D01*
X45400000Y-13328571D01*
X45371428Y-13242857D01*
X45371428Y-13185714D01*
X45400000Y-13100000D01*
X45428571Y-13071428D01*
X45428571Y-12842857D02*
X45400000Y-12814285D01*
X45371428Y-12757142D01*
X45371428Y-12614285D01*
X45400000Y-12557142D01*
X45428571Y-12528571D01*
X45485714Y-12500000D01*
X45542857Y-12500000D01*
X45628571Y-12528571D01*
X45971428Y-12871428D01*
X45971428Y-12500000D01*
X45371428Y-12128571D02*
X45371428Y-12071428D01*
X45400000Y-12014285D01*
X45428571Y-11985714D01*
X45485714Y-11957142D01*
X45600000Y-11928571D01*
X45742857Y-11928571D01*
X45857142Y-11957142D01*
X45914285Y-11985714D01*
X45942857Y-12014285D01*
X45971428Y-12071428D01*
X45971428Y-12128571D01*
X45942857Y-12185714D01*
X45914285Y-12214285D01*
X45857142Y-12242857D01*
X45742857Y-12271428D01*
X45600000Y-12271428D01*
X45485714Y-12242857D01*
X45428571Y-12214285D01*
X45400000Y-12185714D01*
X45371428Y-12128571D01*
X45428571Y-11700000D02*
X45400000Y-11671428D01*
X45371428Y-11614285D01*
X45371428Y-11471428D01*
X45400000Y-11414285D01*
X45428571Y-11385714D01*
X45485714Y-11357142D01*
X45542857Y-11357142D01*
X45628571Y-11385714D01*
X45971428Y-11728571D01*
X45971428Y-11357142D01*
X44514285Y-15571428D02*
X44542857Y-15600000D01*
X44571428Y-15685714D01*
X44571428Y-15742857D01*
X44542857Y-15828571D01*
X44485714Y-15885714D01*
X44428571Y-15914285D01*
X44314285Y-15942857D01*
X44228571Y-15942857D01*
X44114285Y-15914285D01*
X44057142Y-15885714D01*
X44000000Y-15828571D01*
X43971428Y-15742857D01*
X43971428Y-15685714D01*
X44000000Y-15600000D01*
X44028571Y-15571428D01*
X44028571Y-15342857D02*
X44000000Y-15314285D01*
X43971428Y-15257142D01*
X43971428Y-15114285D01*
X44000000Y-15057142D01*
X44028571Y-15028571D01*
X44085714Y-15000000D01*
X44142857Y-15000000D01*
X44228571Y-15028571D01*
X44571428Y-15371428D01*
X44571428Y-15000000D01*
X43971428Y-14628571D02*
X43971428Y-14571428D01*
X44000000Y-14514285D01*
X44028571Y-14485714D01*
X44085714Y-14457142D01*
X44200000Y-14428571D01*
X44342857Y-14428571D01*
X44457142Y-14457142D01*
X44514285Y-14485714D01*
X44542857Y-14514285D01*
X44571428Y-14571428D01*
X44571428Y-14628571D01*
X44542857Y-14685714D01*
X44514285Y-14714285D01*
X44457142Y-14742857D01*
X44342857Y-14771428D01*
X44200000Y-14771428D01*
X44085714Y-14742857D01*
X44028571Y-14714285D01*
X44000000Y-14685714D01*
X43971428Y-14628571D01*
X44571428Y-13857142D02*
X44571428Y-14200000D01*
X44571428Y-14028571D02*
X43971428Y-14028571D01*
X44057142Y-14085714D01*
X44114285Y-14142857D01*
X44142857Y-14200000D01*
X53128571Y-37814285D02*
X53100000Y-37842857D01*
X53014285Y-37871428D01*
X52957142Y-37871428D01*
X52871428Y-37842857D01*
X52814285Y-37785714D01*
X52785714Y-37728571D01*
X52757142Y-37614285D01*
X52757142Y-37528571D01*
X52785714Y-37414285D01*
X52814285Y-37357142D01*
X52871428Y-37300000D01*
X52957142Y-37271428D01*
X53014285Y-37271428D01*
X53100000Y-37300000D01*
X53128571Y-37328571D01*
X53700000Y-37871428D02*
X53357142Y-37871428D01*
X53528571Y-37871428D02*
X53528571Y-37271428D01*
X53471428Y-37357142D01*
X53414285Y-37414285D01*
X53357142Y-37442857D01*
X54071428Y-37271428D02*
X54128571Y-37271428D01*
X54185714Y-37300000D01*
X54214285Y-37328571D01*
X54242857Y-37385714D01*
X54271428Y-37500000D01*
X54271428Y-37642857D01*
X54242857Y-37757142D01*
X54214285Y-37814285D01*
X54185714Y-37842857D01*
X54128571Y-37871428D01*
X54071428Y-37871428D01*
X54014285Y-37842857D01*
X53985714Y-37814285D01*
X53957142Y-37757142D01*
X53928571Y-37642857D01*
X53928571Y-37500000D01*
X53957142Y-37385714D01*
X53985714Y-37328571D01*
X54014285Y-37300000D01*
X54071428Y-37271428D01*
X54500000Y-37328571D02*
X54528571Y-37300000D01*
X54585714Y-37271428D01*
X54728571Y-37271428D01*
X54785714Y-37300000D01*
X54814285Y-37328571D01*
X54842857Y-37385714D01*
X54842857Y-37442857D01*
X54814285Y-37528571D01*
X54471428Y-37871428D01*
X54842857Y-37871428D01*
X23371428Y-43671428D02*
X23371428Y-43957142D01*
X22771428Y-43957142D01*
X22771428Y-43528571D02*
X22771428Y-43157142D01*
X23000000Y-43357142D01*
X23000000Y-43271428D01*
X23028571Y-43214285D01*
X23057142Y-43185714D01*
X23114285Y-43157142D01*
X23257142Y-43157142D01*
X23314285Y-43185714D01*
X23342857Y-43214285D01*
X23371428Y-43271428D01*
X23371428Y-43442857D01*
X23342857Y-43500000D01*
X23314285Y-43528571D01*
X22771428Y-42785714D02*
X22771428Y-42728571D01*
X22800000Y-42671428D01*
X22828571Y-42642857D01*
X22885714Y-42614285D01*
X23000000Y-42585714D01*
X23142857Y-42585714D01*
X23257142Y-42614285D01*
X23314285Y-42642857D01*
X23342857Y-42671428D01*
X23371428Y-42728571D01*
X23371428Y-42785714D01*
X23342857Y-42842857D01*
X23314285Y-42871428D01*
X23257142Y-42900000D01*
X23142857Y-42928571D01*
X23000000Y-42928571D01*
X22885714Y-42900000D01*
X22828571Y-42871428D01*
X22800000Y-42842857D01*
X22771428Y-42785714D01*
X23371428Y-42014285D02*
X23371428Y-42357142D01*
X23371428Y-42185714D02*
X22771428Y-42185714D01*
X22857142Y-42242857D01*
X22914285Y-42300000D01*
X22942857Y-42357142D01*
X10228571Y-8214285D02*
X10200000Y-8242857D01*
X10114285Y-8271428D01*
X10057142Y-8271428D01*
X9971428Y-8242857D01*
X9914285Y-8185714D01*
X9885714Y-8128571D01*
X9857142Y-8014285D01*
X9857142Y-7928571D01*
X9885714Y-7814285D01*
X9914285Y-7757142D01*
X9971428Y-7700000D01*
X10057142Y-7671428D01*
X10114285Y-7671428D01*
X10200000Y-7700000D01*
X10228571Y-7728571D01*
X10742857Y-7871428D02*
X10742857Y-8271428D01*
X10600000Y-7642857D02*
X10457142Y-8071428D01*
X10828571Y-8071428D01*
X11171428Y-7671428D02*
X11228571Y-7671428D01*
X11285714Y-7700000D01*
X11314285Y-7728571D01*
X11342857Y-7785714D01*
X11371428Y-7900000D01*
X11371428Y-8042857D01*
X11342857Y-8157142D01*
X11314285Y-8214285D01*
X11285714Y-8242857D01*
X11228571Y-8271428D01*
X11171428Y-8271428D01*
X11114285Y-8242857D01*
X11085714Y-8214285D01*
X11057142Y-8157142D01*
X11028571Y-8042857D01*
X11028571Y-7900000D01*
X11057142Y-7785714D01*
X11085714Y-7728571D01*
X11114285Y-7700000D01*
X11171428Y-7671428D01*
X11600000Y-7728571D02*
X11628571Y-7700000D01*
X11685714Y-7671428D01*
X11828571Y-7671428D01*
X11885714Y-7700000D01*
X11914285Y-7728571D01*
X11942857Y-7785714D01*
X11942857Y-7842857D01*
X11914285Y-7928571D01*
X11571428Y-8271428D01*
X11942857Y-8271428D01*
X22928571Y-36114285D02*
X22900000Y-36142857D01*
X22814285Y-36171428D01*
X22757142Y-36171428D01*
X22671428Y-36142857D01*
X22614285Y-36085714D01*
X22585714Y-36028571D01*
X22557142Y-35914285D01*
X22557142Y-35828571D01*
X22585714Y-35714285D01*
X22614285Y-35657142D01*
X22671428Y-35600000D01*
X22757142Y-35571428D01*
X22814285Y-35571428D01*
X22900000Y-35600000D01*
X22928571Y-35628571D01*
X23128571Y-35571428D02*
X23500000Y-35571428D01*
X23300000Y-35800000D01*
X23385714Y-35800000D01*
X23442857Y-35828571D01*
X23471428Y-35857142D01*
X23500000Y-35914285D01*
X23500000Y-36057142D01*
X23471428Y-36114285D01*
X23442857Y-36142857D01*
X23385714Y-36171428D01*
X23214285Y-36171428D01*
X23157142Y-36142857D01*
X23128571Y-36114285D01*
X23871428Y-35571428D02*
X23928571Y-35571428D01*
X23985714Y-35600000D01*
X24014285Y-35628571D01*
X24042857Y-35685714D01*
X24071428Y-35800000D01*
X24071428Y-35942857D01*
X24042857Y-36057142D01*
X24014285Y-36114285D01*
X23985714Y-36142857D01*
X23928571Y-36171428D01*
X23871428Y-36171428D01*
X23814285Y-36142857D01*
X23785714Y-36114285D01*
X23757142Y-36057142D01*
X23728571Y-35942857D01*
X23728571Y-35800000D01*
X23757142Y-35685714D01*
X23785714Y-35628571D01*
X23814285Y-35600000D01*
X23871428Y-35571428D01*
X24271428Y-35571428D02*
X24642857Y-35571428D01*
X24442857Y-35800000D01*
X24528571Y-35800000D01*
X24585714Y-35828571D01*
X24614285Y-35857142D01*
X24642857Y-35914285D01*
X24642857Y-36057142D01*
X24614285Y-36114285D01*
X24585714Y-36142857D01*
X24528571Y-36171428D01*
X24357142Y-36171428D01*
X24300000Y-36142857D01*
X24271428Y-36114285D01*
X21714285Y-40171428D02*
X21742857Y-40200000D01*
X21771428Y-40285714D01*
X21771428Y-40342857D01*
X21742857Y-40428571D01*
X21685714Y-40485714D01*
X21628571Y-40514285D01*
X21514285Y-40542857D01*
X21428571Y-40542857D01*
X21314285Y-40514285D01*
X21257142Y-40485714D01*
X21200000Y-40428571D01*
X21171428Y-40342857D01*
X21171428Y-40285714D01*
X21200000Y-40200000D01*
X21228571Y-40171428D01*
X21171428Y-39971428D02*
X21171428Y-39600000D01*
X21400000Y-39800000D01*
X21400000Y-39714285D01*
X21428571Y-39657142D01*
X21457142Y-39628571D01*
X21514285Y-39600000D01*
X21657142Y-39600000D01*
X21714285Y-39628571D01*
X21742857Y-39657142D01*
X21771428Y-39714285D01*
X21771428Y-39885714D01*
X21742857Y-39942857D01*
X21714285Y-39971428D01*
X21171428Y-39228571D02*
X21171428Y-39171428D01*
X21200000Y-39114285D01*
X21228571Y-39085714D01*
X21285714Y-39057142D01*
X21400000Y-39028571D01*
X21542857Y-39028571D01*
X21657142Y-39057142D01*
X21714285Y-39085714D01*
X21742857Y-39114285D01*
X21771428Y-39171428D01*
X21771428Y-39228571D01*
X21742857Y-39285714D01*
X21714285Y-39314285D01*
X21657142Y-39342857D01*
X21542857Y-39371428D01*
X21400000Y-39371428D01*
X21285714Y-39342857D01*
X21228571Y-39314285D01*
X21200000Y-39285714D01*
X21171428Y-39228571D01*
X21228571Y-38800000D02*
X21200000Y-38771428D01*
X21171428Y-38714285D01*
X21171428Y-38571428D01*
X21200000Y-38514285D01*
X21228571Y-38485714D01*
X21285714Y-38457142D01*
X21342857Y-38457142D01*
X21428571Y-38485714D01*
X21771428Y-38828571D01*
X21771428Y-38457142D01*
X67714285Y-39671428D02*
X67742857Y-39700000D01*
X67771428Y-39785714D01*
X67771428Y-39842857D01*
X67742857Y-39928571D01*
X67685714Y-39985714D01*
X67628571Y-40014285D01*
X67514285Y-40042857D01*
X67428571Y-40042857D01*
X67314285Y-40014285D01*
X67257142Y-39985714D01*
X67200000Y-39928571D01*
X67171428Y-39842857D01*
X67171428Y-39785714D01*
X67200000Y-39700000D01*
X67228571Y-39671428D01*
X67771428Y-39100000D02*
X67771428Y-39442857D01*
X67771428Y-39271428D02*
X67171428Y-39271428D01*
X67257142Y-39328571D01*
X67314285Y-39385714D01*
X67342857Y-39442857D01*
X67171428Y-38728571D02*
X67171428Y-38671428D01*
X67200000Y-38614285D01*
X67228571Y-38585714D01*
X67285714Y-38557142D01*
X67400000Y-38528571D01*
X67542857Y-38528571D01*
X67657142Y-38557142D01*
X67714285Y-38585714D01*
X67742857Y-38614285D01*
X67771428Y-38671428D01*
X67771428Y-38728571D01*
X67742857Y-38785714D01*
X67714285Y-38814285D01*
X67657142Y-38842857D01*
X67542857Y-38871428D01*
X67400000Y-38871428D01*
X67285714Y-38842857D01*
X67228571Y-38814285D01*
X67200000Y-38785714D01*
X67171428Y-38728571D01*
X67371428Y-38014285D02*
X67771428Y-38014285D01*
X67142857Y-38157142D02*
X67571428Y-38300000D01*
X67571428Y-37928571D01*
X50528571Y-38614285D02*
X50500000Y-38642857D01*
X50414285Y-38671428D01*
X50357142Y-38671428D01*
X50271428Y-38642857D01*
X50214285Y-38585714D01*
X50185714Y-38528571D01*
X50157142Y-38414285D01*
X50157142Y-38328571D01*
X50185714Y-38214285D01*
X50214285Y-38157142D01*
X50271428Y-38100000D01*
X50357142Y-38071428D01*
X50414285Y-38071428D01*
X50500000Y-38100000D01*
X50528571Y-38128571D01*
X51100000Y-38671428D02*
X50757142Y-38671428D01*
X50928571Y-38671428D02*
X50928571Y-38071428D01*
X50871428Y-38157142D01*
X50814285Y-38214285D01*
X50757142Y-38242857D01*
X51471428Y-38071428D02*
X51528571Y-38071428D01*
X51585714Y-38100000D01*
X51614285Y-38128571D01*
X51642857Y-38185714D01*
X51671428Y-38300000D01*
X51671428Y-38442857D01*
X51642857Y-38557142D01*
X51614285Y-38614285D01*
X51585714Y-38642857D01*
X51528571Y-38671428D01*
X51471428Y-38671428D01*
X51414285Y-38642857D01*
X51385714Y-38614285D01*
X51357142Y-38557142D01*
X51328571Y-38442857D01*
X51328571Y-38300000D01*
X51357142Y-38185714D01*
X51385714Y-38128571D01*
X51414285Y-38100000D01*
X51471428Y-38071428D01*
X51871428Y-38071428D02*
X52242857Y-38071428D01*
X52042857Y-38300000D01*
X52128571Y-38300000D01*
X52185714Y-38328571D01*
X52214285Y-38357142D01*
X52242857Y-38414285D01*
X52242857Y-38557142D01*
X52214285Y-38614285D01*
X52185714Y-38642857D01*
X52128571Y-38671428D01*
X51957142Y-38671428D01*
X51900000Y-38642857D01*
X51871428Y-38614285D01*
X30528571Y-4414285D02*
X30500000Y-4442857D01*
X30414285Y-4471428D01*
X30357142Y-4471428D01*
X30271428Y-4442857D01*
X30214285Y-4385714D01*
X30185714Y-4328571D01*
X30157142Y-4214285D01*
X30157142Y-4128571D01*
X30185714Y-4014285D01*
X30214285Y-3957142D01*
X30271428Y-3900000D01*
X30357142Y-3871428D01*
X30414285Y-3871428D01*
X30500000Y-3900000D01*
X30528571Y-3928571D01*
X31100000Y-4471428D02*
X30757142Y-4471428D01*
X30928571Y-4471428D02*
X30928571Y-3871428D01*
X30871428Y-3957142D01*
X30814285Y-4014285D01*
X30757142Y-4042857D01*
X31471428Y-3871428D02*
X31528571Y-3871428D01*
X31585714Y-3900000D01*
X31614285Y-3928571D01*
X31642857Y-3985714D01*
X31671428Y-4100000D01*
X31671428Y-4242857D01*
X31642857Y-4357142D01*
X31614285Y-4414285D01*
X31585714Y-4442857D01*
X31528571Y-4471428D01*
X31471428Y-4471428D01*
X31414285Y-4442857D01*
X31385714Y-4414285D01*
X31357142Y-4357142D01*
X31328571Y-4242857D01*
X31328571Y-4100000D01*
X31357142Y-3985714D01*
X31385714Y-3928571D01*
X31414285Y-3900000D01*
X31471428Y-3871428D01*
X32242857Y-4471428D02*
X31900000Y-4471428D01*
X32071428Y-4471428D02*
X32071428Y-3871428D01*
X32014285Y-3957142D01*
X31957142Y-4014285D01*
X31900000Y-4042857D01*
X23828571Y-10814285D02*
X23800000Y-10842857D01*
X23714285Y-10871428D01*
X23657142Y-10871428D01*
X23571428Y-10842857D01*
X23514285Y-10785714D01*
X23485714Y-10728571D01*
X23457142Y-10614285D01*
X23457142Y-10528571D01*
X23485714Y-10414285D01*
X23514285Y-10357142D01*
X23571428Y-10300000D01*
X23657142Y-10271428D01*
X23714285Y-10271428D01*
X23800000Y-10300000D01*
X23828571Y-10328571D01*
X24371428Y-10271428D02*
X24085714Y-10271428D01*
X24057142Y-10557142D01*
X24085714Y-10528571D01*
X24142857Y-10500000D01*
X24285714Y-10500000D01*
X24342857Y-10528571D01*
X24371428Y-10557142D01*
X24400000Y-10614285D01*
X24400000Y-10757142D01*
X24371428Y-10814285D01*
X24342857Y-10842857D01*
X24285714Y-10871428D01*
X24142857Y-10871428D01*
X24085714Y-10842857D01*
X24057142Y-10814285D01*
X24771428Y-10271428D02*
X24828571Y-10271428D01*
X24885714Y-10300000D01*
X24914285Y-10328571D01*
X24942857Y-10385714D01*
X24971428Y-10500000D01*
X24971428Y-10642857D01*
X24942857Y-10757142D01*
X24914285Y-10814285D01*
X24885714Y-10842857D01*
X24828571Y-10871428D01*
X24771428Y-10871428D01*
X24714285Y-10842857D01*
X24685714Y-10814285D01*
X24657142Y-10757142D01*
X24628571Y-10642857D01*
X24628571Y-10500000D01*
X24657142Y-10385714D01*
X24685714Y-10328571D01*
X24714285Y-10300000D01*
X24771428Y-10271428D01*
X25200000Y-10328571D02*
X25228571Y-10300000D01*
X25285714Y-10271428D01*
X25428571Y-10271428D01*
X25485714Y-10300000D01*
X25514285Y-10328571D01*
X25542857Y-10385714D01*
X25542857Y-10442857D01*
X25514285Y-10528571D01*
X25171428Y-10871428D01*
X25542857Y-10871428D01*
X16428571Y-12914285D02*
X16400000Y-12942857D01*
X16314285Y-12971428D01*
X16257142Y-12971428D01*
X16171428Y-12942857D01*
X16114285Y-12885714D01*
X16085714Y-12828571D01*
X16057142Y-12714285D01*
X16057142Y-12628571D01*
X16085714Y-12514285D01*
X16114285Y-12457142D01*
X16171428Y-12400000D01*
X16257142Y-12371428D01*
X16314285Y-12371428D01*
X16400000Y-12400000D01*
X16428571Y-12428571D01*
X16971428Y-12371428D02*
X16685714Y-12371428D01*
X16657142Y-12657142D01*
X16685714Y-12628571D01*
X16742857Y-12600000D01*
X16885714Y-12600000D01*
X16942857Y-12628571D01*
X16971428Y-12657142D01*
X17000000Y-12714285D01*
X17000000Y-12857142D01*
X16971428Y-12914285D01*
X16942857Y-12942857D01*
X16885714Y-12971428D01*
X16742857Y-12971428D01*
X16685714Y-12942857D01*
X16657142Y-12914285D01*
X17371428Y-12371428D02*
X17428571Y-12371428D01*
X17485714Y-12400000D01*
X17514285Y-12428571D01*
X17542857Y-12485714D01*
X17571428Y-12600000D01*
X17571428Y-12742857D01*
X17542857Y-12857142D01*
X17514285Y-12914285D01*
X17485714Y-12942857D01*
X17428571Y-12971428D01*
X17371428Y-12971428D01*
X17314285Y-12942857D01*
X17285714Y-12914285D01*
X17257142Y-12857142D01*
X17228571Y-12742857D01*
X17228571Y-12600000D01*
X17257142Y-12485714D01*
X17285714Y-12428571D01*
X17314285Y-12400000D01*
X17371428Y-12371428D01*
X18142857Y-12971428D02*
X17800000Y-12971428D01*
X17971428Y-12971428D02*
X17971428Y-12371428D01*
X17914285Y-12457142D01*
X17857142Y-12514285D01*
X17800000Y-12542857D01*
X54757142Y-43371428D02*
X54471428Y-43371428D01*
X54471428Y-42771428D01*
X54957142Y-43057142D02*
X55157142Y-43057142D01*
X55242857Y-43371428D02*
X54957142Y-43371428D01*
X54957142Y-42771428D01*
X55242857Y-42771428D01*
X55500000Y-43371428D02*
X55500000Y-42771428D01*
X55642857Y-42771428D01*
X55728571Y-42800000D01*
X55785714Y-42857142D01*
X55814285Y-42914285D01*
X55842857Y-43028571D01*
X55842857Y-43114285D01*
X55814285Y-43228571D01*
X55785714Y-43285714D01*
X55728571Y-43342857D01*
X55642857Y-43371428D01*
X55500000Y-43371428D01*
X56414285Y-43371428D02*
X56071428Y-43371428D01*
X56242857Y-43371428D02*
X56242857Y-42771428D01*
X56185714Y-42857142D01*
X56128571Y-42914285D01*
X56071428Y-42942857D01*
X56785714Y-42771428D02*
X56842857Y-42771428D01*
X56900000Y-42800000D01*
X56928571Y-42828571D01*
X56957142Y-42885714D01*
X56985714Y-43000000D01*
X56985714Y-43142857D01*
X56957142Y-43257142D01*
X56928571Y-43314285D01*
X56900000Y-43342857D01*
X56842857Y-43371428D01*
X56785714Y-43371428D01*
X56728571Y-43342857D01*
X56700000Y-43314285D01*
X56671428Y-43257142D01*
X56642857Y-43142857D01*
X56642857Y-43000000D01*
X56671428Y-42885714D01*
X56700000Y-42828571D01*
X56728571Y-42800000D01*
X56785714Y-42771428D01*
X57214285Y-42828571D02*
X57242857Y-42800000D01*
X57300000Y-42771428D01*
X57442857Y-42771428D01*
X57500000Y-42800000D01*
X57528571Y-42828571D01*
X57557142Y-42885714D01*
X57557142Y-42942857D01*
X57528571Y-43028571D01*
X57185714Y-43371428D01*
X57557142Y-43371428D01*
X52471428Y-23642857D02*
X52471428Y-23928571D01*
X51871428Y-23928571D01*
X52157142Y-23442857D02*
X52157142Y-23242857D01*
X52471428Y-23157142D02*
X52471428Y-23442857D01*
X51871428Y-23442857D01*
X51871428Y-23157142D01*
X52471428Y-22900000D02*
X51871428Y-22900000D01*
X51871428Y-22757142D01*
X51900000Y-22671428D01*
X51957142Y-22614285D01*
X52014285Y-22585714D01*
X52128571Y-22557142D01*
X52214285Y-22557142D01*
X52328571Y-22585714D01*
X52385714Y-22614285D01*
X52442857Y-22671428D01*
X52471428Y-22757142D01*
X52471428Y-22900000D01*
X52471428Y-21985714D02*
X52471428Y-22328571D01*
X52471428Y-22157142D02*
X51871428Y-22157142D01*
X51957142Y-22214285D01*
X52014285Y-22271428D01*
X52042857Y-22328571D01*
X51871428Y-21614285D02*
X51871428Y-21557142D01*
X51900000Y-21500000D01*
X51928571Y-21471428D01*
X51985714Y-21442857D01*
X52100000Y-21414285D01*
X52242857Y-21414285D01*
X52357142Y-21442857D01*
X52414285Y-21471428D01*
X52442857Y-21500000D01*
X52471428Y-21557142D01*
X52471428Y-21614285D01*
X52442857Y-21671428D01*
X52414285Y-21700000D01*
X52357142Y-21728571D01*
X52242857Y-21757142D01*
X52100000Y-21757142D01*
X51985714Y-21728571D01*
X51928571Y-21700000D01*
X51900000Y-21671428D01*
X51871428Y-21614285D01*
X51871428Y-21214285D02*
X51871428Y-20842857D01*
X52100000Y-21042857D01*
X52100000Y-20957142D01*
X52128571Y-20900000D01*
X52157142Y-20871428D01*
X52214285Y-20842857D01*
X52357142Y-20842857D01*
X52414285Y-20871428D01*
X52442857Y-20900000D01*
X52471428Y-20957142D01*
X52471428Y-21128571D01*
X52442857Y-21185714D01*
X52414285Y-21214285D01*
X55271428Y-23642857D02*
X55271428Y-23928571D01*
X54671428Y-23928571D01*
X54957142Y-23442857D02*
X54957142Y-23242857D01*
X55271428Y-23157142D02*
X55271428Y-23442857D01*
X54671428Y-23442857D01*
X54671428Y-23157142D01*
X55271428Y-22900000D02*
X54671428Y-22900000D01*
X54671428Y-22757142D01*
X54700000Y-22671428D01*
X54757142Y-22614285D01*
X54814285Y-22585714D01*
X54928571Y-22557142D01*
X55014285Y-22557142D01*
X55128571Y-22585714D01*
X55185714Y-22614285D01*
X55242857Y-22671428D01*
X55271428Y-22757142D01*
X55271428Y-22900000D01*
X55271428Y-21985714D02*
X55271428Y-22328571D01*
X55271428Y-22157142D02*
X54671428Y-22157142D01*
X54757142Y-22214285D01*
X54814285Y-22271428D01*
X54842857Y-22328571D01*
X54671428Y-21614285D02*
X54671428Y-21557142D01*
X54700000Y-21500000D01*
X54728571Y-21471428D01*
X54785714Y-21442857D01*
X54900000Y-21414285D01*
X55042857Y-21414285D01*
X55157142Y-21442857D01*
X55214285Y-21471428D01*
X55242857Y-21500000D01*
X55271428Y-21557142D01*
X55271428Y-21614285D01*
X55242857Y-21671428D01*
X55214285Y-21700000D01*
X55157142Y-21728571D01*
X55042857Y-21757142D01*
X54900000Y-21757142D01*
X54785714Y-21728571D01*
X54728571Y-21700000D01*
X54700000Y-21671428D01*
X54671428Y-21614285D01*
X54871428Y-20900000D02*
X55271428Y-20900000D01*
X54642857Y-21042857D02*
X55071428Y-21185714D01*
X55071428Y-20814285D01*
X53871428Y-23642857D02*
X53871428Y-23928571D01*
X53271428Y-23928571D01*
X53557142Y-23442857D02*
X53557142Y-23242857D01*
X53871428Y-23157142D02*
X53871428Y-23442857D01*
X53271428Y-23442857D01*
X53271428Y-23157142D01*
X53871428Y-22900000D02*
X53271428Y-22900000D01*
X53271428Y-22757142D01*
X53300000Y-22671428D01*
X53357142Y-22614285D01*
X53414285Y-22585714D01*
X53528571Y-22557142D01*
X53614285Y-22557142D01*
X53728571Y-22585714D01*
X53785714Y-22614285D01*
X53842857Y-22671428D01*
X53871428Y-22757142D01*
X53871428Y-22900000D01*
X53871428Y-21985714D02*
X53871428Y-22328571D01*
X53871428Y-22157142D02*
X53271428Y-22157142D01*
X53357142Y-22214285D01*
X53414285Y-22271428D01*
X53442857Y-22328571D01*
X53271428Y-21614285D02*
X53271428Y-21557142D01*
X53300000Y-21500000D01*
X53328571Y-21471428D01*
X53385714Y-21442857D01*
X53500000Y-21414285D01*
X53642857Y-21414285D01*
X53757142Y-21442857D01*
X53814285Y-21471428D01*
X53842857Y-21500000D01*
X53871428Y-21557142D01*
X53871428Y-21614285D01*
X53842857Y-21671428D01*
X53814285Y-21700000D01*
X53757142Y-21728571D01*
X53642857Y-21757142D01*
X53500000Y-21757142D01*
X53385714Y-21728571D01*
X53328571Y-21700000D01*
X53300000Y-21671428D01*
X53271428Y-21614285D01*
X53271428Y-20871428D02*
X53271428Y-21157142D01*
X53557142Y-21185714D01*
X53528571Y-21157142D01*
X53500000Y-21100000D01*
X53500000Y-20957142D01*
X53528571Y-20900000D01*
X53557142Y-20871428D01*
X53614285Y-20842857D01*
X53757142Y-20842857D01*
X53814285Y-20871428D01*
X53842857Y-20900000D01*
X53871428Y-20957142D01*
X53871428Y-21100000D01*
X53842857Y-21157142D01*
X53814285Y-21185714D01*
X51071428Y-23642857D02*
X51071428Y-23928571D01*
X50471428Y-23928571D01*
X50757142Y-23442857D02*
X50757142Y-23242857D01*
X51071428Y-23157142D02*
X51071428Y-23442857D01*
X50471428Y-23442857D01*
X50471428Y-23157142D01*
X51071428Y-22900000D02*
X50471428Y-22900000D01*
X50471428Y-22757142D01*
X50500000Y-22671428D01*
X50557142Y-22614285D01*
X50614285Y-22585714D01*
X50728571Y-22557142D01*
X50814285Y-22557142D01*
X50928571Y-22585714D01*
X50985714Y-22614285D01*
X51042857Y-22671428D01*
X51071428Y-22757142D01*
X51071428Y-22900000D01*
X51071428Y-21985714D02*
X51071428Y-22328571D01*
X51071428Y-22157142D02*
X50471428Y-22157142D01*
X50557142Y-22214285D01*
X50614285Y-22271428D01*
X50642857Y-22328571D01*
X50471428Y-21614285D02*
X50471428Y-21557142D01*
X50500000Y-21500000D01*
X50528571Y-21471428D01*
X50585714Y-21442857D01*
X50700000Y-21414285D01*
X50842857Y-21414285D01*
X50957142Y-21442857D01*
X51014285Y-21471428D01*
X51042857Y-21500000D01*
X51071428Y-21557142D01*
X51071428Y-21614285D01*
X51042857Y-21671428D01*
X51014285Y-21700000D01*
X50957142Y-21728571D01*
X50842857Y-21757142D01*
X50700000Y-21757142D01*
X50585714Y-21728571D01*
X50528571Y-21700000D01*
X50500000Y-21671428D01*
X50471428Y-21614285D01*
X50471428Y-20900000D02*
X50471428Y-21014285D01*
X50500000Y-21071428D01*
X50528571Y-21100000D01*
X50614285Y-21157142D01*
X50728571Y-21185714D01*
X50957142Y-21185714D01*
X51014285Y-21157142D01*
X51042857Y-21128571D01*
X51071428Y-21071428D01*
X51071428Y-20957142D01*
X51042857Y-20900000D01*
X51014285Y-20871428D01*
X50957142Y-20842857D01*
X50814285Y-20842857D01*
X50757142Y-20871428D01*
X50728571Y-20900000D01*
X50700000Y-20957142D01*
X50700000Y-21071428D01*
X50728571Y-21128571D01*
X50757142Y-21157142D01*
X50814285Y-21185714D01*
X43357142Y-1871428D02*
X43071428Y-1871428D01*
X43071428Y-1271428D01*
X43557142Y-1557142D02*
X43757142Y-1557142D01*
X43842857Y-1871428D02*
X43557142Y-1871428D01*
X43557142Y-1271428D01*
X43842857Y-1271428D01*
X44100000Y-1871428D02*
X44100000Y-1271428D01*
X44242857Y-1271428D01*
X44328571Y-1300000D01*
X44385714Y-1357142D01*
X44414285Y-1414285D01*
X44442857Y-1528571D01*
X44442857Y-1614285D01*
X44414285Y-1728571D01*
X44385714Y-1785714D01*
X44328571Y-1842857D01*
X44242857Y-1871428D01*
X44100000Y-1871428D01*
X44671428Y-1328571D02*
X44700000Y-1300000D01*
X44757142Y-1271428D01*
X44900000Y-1271428D01*
X44957142Y-1300000D01*
X44985714Y-1328571D01*
X45014285Y-1385714D01*
X45014285Y-1442857D01*
X44985714Y-1528571D01*
X44642857Y-1871428D01*
X45014285Y-1871428D01*
X45385714Y-1271428D02*
X45442857Y-1271428D01*
X45500000Y-1300000D01*
X45528571Y-1328571D01*
X45557142Y-1385714D01*
X45585714Y-1500000D01*
X45585714Y-1642857D01*
X45557142Y-1757142D01*
X45528571Y-1814285D01*
X45500000Y-1842857D01*
X45442857Y-1871428D01*
X45385714Y-1871428D01*
X45328571Y-1842857D01*
X45300000Y-1814285D01*
X45271428Y-1757142D01*
X45242857Y-1642857D01*
X45242857Y-1500000D01*
X45271428Y-1385714D01*
X45300000Y-1328571D01*
X45328571Y-1300000D01*
X45385714Y-1271428D01*
X46157142Y-1871428D02*
X45814285Y-1871428D01*
X45985714Y-1871428D02*
X45985714Y-1271428D01*
X45928571Y-1357142D01*
X45871428Y-1414285D01*
X45814285Y-1442857D01*
X20657142Y-31171428D02*
X20371428Y-31171428D01*
X20371428Y-30571428D01*
X20857142Y-30857142D02*
X21057142Y-30857142D01*
X21142857Y-31171428D02*
X20857142Y-31171428D01*
X20857142Y-30571428D01*
X21142857Y-30571428D01*
X21400000Y-31171428D02*
X21400000Y-30571428D01*
X21542857Y-30571428D01*
X21628571Y-30600000D01*
X21685714Y-30657142D01*
X21714285Y-30714285D01*
X21742857Y-30828571D01*
X21742857Y-30914285D01*
X21714285Y-31028571D01*
X21685714Y-31085714D01*
X21628571Y-31142857D01*
X21542857Y-31171428D01*
X21400000Y-31171428D01*
X21942857Y-30571428D02*
X22314285Y-30571428D01*
X22114285Y-30800000D01*
X22200000Y-30800000D01*
X22257142Y-30828571D01*
X22285714Y-30857142D01*
X22314285Y-30914285D01*
X22314285Y-31057142D01*
X22285714Y-31114285D01*
X22257142Y-31142857D01*
X22200000Y-31171428D01*
X22028571Y-31171428D01*
X21971428Y-31142857D01*
X21942857Y-31114285D01*
X22685714Y-30571428D02*
X22742857Y-30571428D01*
X22800000Y-30600000D01*
X22828571Y-30628571D01*
X22857142Y-30685714D01*
X22885714Y-30800000D01*
X22885714Y-30942857D01*
X22857142Y-31057142D01*
X22828571Y-31114285D01*
X22800000Y-31142857D01*
X22742857Y-31171428D01*
X22685714Y-31171428D01*
X22628571Y-31142857D01*
X22600000Y-31114285D01*
X22571428Y-31057142D01*
X22542857Y-30942857D01*
X22542857Y-30800000D01*
X22571428Y-30685714D01*
X22600000Y-30628571D01*
X22628571Y-30600000D01*
X22685714Y-30571428D01*
X23457142Y-31171428D02*
X23114285Y-31171428D01*
X23285714Y-31171428D02*
X23285714Y-30571428D01*
X23228571Y-30657142D01*
X23171428Y-30714285D01*
X23114285Y-30742857D01*
X19571428Y-6371428D02*
X19285714Y-6571428D01*
X19571428Y-6714285D02*
X18971428Y-6714285D01*
X18971428Y-6485714D01*
X19000000Y-6428571D01*
X19028571Y-6400000D01*
X19085714Y-6371428D01*
X19171428Y-6371428D01*
X19228571Y-6400000D01*
X19257142Y-6428571D01*
X19285714Y-6485714D01*
X19285714Y-6714285D01*
X19171428Y-5857142D02*
X19571428Y-5857142D01*
X18942857Y-6000000D02*
X19371428Y-6142857D01*
X19371428Y-5771428D01*
X18971428Y-5428571D02*
X18971428Y-5371428D01*
X19000000Y-5314285D01*
X19028571Y-5285714D01*
X19085714Y-5257142D01*
X19200000Y-5228571D01*
X19342857Y-5228571D01*
X19457142Y-5257142D01*
X19514285Y-5285714D01*
X19542857Y-5314285D01*
X19571428Y-5371428D01*
X19571428Y-5428571D01*
X19542857Y-5485714D01*
X19514285Y-5514285D01*
X19457142Y-5542857D01*
X19342857Y-5571428D01*
X19200000Y-5571428D01*
X19085714Y-5542857D01*
X19028571Y-5514285D01*
X19000000Y-5485714D01*
X18971428Y-5428571D01*
X19571428Y-4657142D02*
X19571428Y-5000000D01*
X19571428Y-4828571D02*
X18971428Y-4828571D01*
X19057142Y-4885714D01*
X19114285Y-4942857D01*
X19142857Y-5000000D01*
X22728571Y-34471428D02*
X22528571Y-34185714D01*
X22385714Y-34471428D02*
X22385714Y-33871428D01*
X22614285Y-33871428D01*
X22671428Y-33900000D01*
X22700000Y-33928571D01*
X22728571Y-33985714D01*
X22728571Y-34071428D01*
X22700000Y-34128571D01*
X22671428Y-34157142D01*
X22614285Y-34185714D01*
X22385714Y-34185714D01*
X22928571Y-33871428D02*
X23300000Y-33871428D01*
X23100000Y-34100000D01*
X23185714Y-34100000D01*
X23242857Y-34128571D01*
X23271428Y-34157142D01*
X23300000Y-34214285D01*
X23300000Y-34357142D01*
X23271428Y-34414285D01*
X23242857Y-34442857D01*
X23185714Y-34471428D01*
X23014285Y-34471428D01*
X22957142Y-34442857D01*
X22928571Y-34414285D01*
X23671428Y-33871428D02*
X23728571Y-33871428D01*
X23785714Y-33900000D01*
X23814285Y-33928571D01*
X23842857Y-33985714D01*
X23871428Y-34100000D01*
X23871428Y-34242857D01*
X23842857Y-34357142D01*
X23814285Y-34414285D01*
X23785714Y-34442857D01*
X23728571Y-34471428D01*
X23671428Y-34471428D01*
X23614285Y-34442857D01*
X23585714Y-34414285D01*
X23557142Y-34357142D01*
X23528571Y-34242857D01*
X23528571Y-34100000D01*
X23557142Y-33985714D01*
X23585714Y-33928571D01*
X23614285Y-33900000D01*
X23671428Y-33871428D01*
X24385714Y-34071428D02*
X24385714Y-34471428D01*
X24242857Y-33842857D02*
X24100000Y-34271428D01*
X24471428Y-34271428D01*
X23028571Y-27371428D02*
X22828571Y-27085714D01*
X22685714Y-27371428D02*
X22685714Y-26771428D01*
X22914285Y-26771428D01*
X22971428Y-26800000D01*
X23000000Y-26828571D01*
X23028571Y-26885714D01*
X23028571Y-26971428D01*
X23000000Y-27028571D01*
X22971428Y-27057142D01*
X22914285Y-27085714D01*
X22685714Y-27085714D01*
X23228571Y-26771428D02*
X23600000Y-26771428D01*
X23400000Y-27000000D01*
X23485714Y-27000000D01*
X23542857Y-27028571D01*
X23571428Y-27057142D01*
X23600000Y-27114285D01*
X23600000Y-27257142D01*
X23571428Y-27314285D01*
X23542857Y-27342857D01*
X23485714Y-27371428D01*
X23314285Y-27371428D01*
X23257142Y-27342857D01*
X23228571Y-27314285D01*
X23971428Y-26771428D02*
X24028571Y-26771428D01*
X24085714Y-26800000D01*
X24114285Y-26828571D01*
X24142857Y-26885714D01*
X24171428Y-27000000D01*
X24171428Y-27142857D01*
X24142857Y-27257142D01*
X24114285Y-27314285D01*
X24085714Y-27342857D01*
X24028571Y-27371428D01*
X23971428Y-27371428D01*
X23914285Y-27342857D01*
X23885714Y-27314285D01*
X23857142Y-27257142D01*
X23828571Y-27142857D01*
X23828571Y-27000000D01*
X23857142Y-26885714D01*
X23885714Y-26828571D01*
X23914285Y-26800000D01*
X23971428Y-26771428D01*
X24371428Y-26771428D02*
X24742857Y-26771428D01*
X24542857Y-27000000D01*
X24628571Y-27000000D01*
X24685714Y-27028571D01*
X24714285Y-27057142D01*
X24742857Y-27114285D01*
X24742857Y-27257142D01*
X24714285Y-27314285D01*
X24685714Y-27342857D01*
X24628571Y-27371428D01*
X24457142Y-27371428D01*
X24400000Y-27342857D01*
X24371428Y-27314285D01*
X23028571Y-28771428D02*
X22828571Y-28485714D01*
X22685714Y-28771428D02*
X22685714Y-28171428D01*
X22914285Y-28171428D01*
X22971428Y-28200000D01*
X23000000Y-28228571D01*
X23028571Y-28285714D01*
X23028571Y-28371428D01*
X23000000Y-28428571D01*
X22971428Y-28457142D01*
X22914285Y-28485714D01*
X22685714Y-28485714D01*
X23228571Y-28171428D02*
X23600000Y-28171428D01*
X23400000Y-28400000D01*
X23485714Y-28400000D01*
X23542857Y-28428571D01*
X23571428Y-28457142D01*
X23600000Y-28514285D01*
X23600000Y-28657142D01*
X23571428Y-28714285D01*
X23542857Y-28742857D01*
X23485714Y-28771428D01*
X23314285Y-28771428D01*
X23257142Y-28742857D01*
X23228571Y-28714285D01*
X23971428Y-28171428D02*
X24028571Y-28171428D01*
X24085714Y-28200000D01*
X24114285Y-28228571D01*
X24142857Y-28285714D01*
X24171428Y-28400000D01*
X24171428Y-28542857D01*
X24142857Y-28657142D01*
X24114285Y-28714285D01*
X24085714Y-28742857D01*
X24028571Y-28771428D01*
X23971428Y-28771428D01*
X23914285Y-28742857D01*
X23885714Y-28714285D01*
X23857142Y-28657142D01*
X23828571Y-28542857D01*
X23828571Y-28400000D01*
X23857142Y-28285714D01*
X23885714Y-28228571D01*
X23914285Y-28200000D01*
X23971428Y-28171428D01*
X24400000Y-28228571D02*
X24428571Y-28200000D01*
X24485714Y-28171428D01*
X24628571Y-28171428D01*
X24685714Y-28200000D01*
X24714285Y-28228571D01*
X24742857Y-28285714D01*
X24742857Y-28342857D01*
X24714285Y-28428571D01*
X24371428Y-28771428D01*
X24742857Y-28771428D01*
X53528571Y-871428D02*
X53328571Y-585714D01*
X53185714Y-871428D02*
X53185714Y-271428D01*
X53414285Y-271428D01*
X53471428Y-300000D01*
X53500000Y-328571D01*
X53528571Y-385714D01*
X53528571Y-471428D01*
X53500000Y-528571D01*
X53471428Y-557142D01*
X53414285Y-585714D01*
X53185714Y-585714D01*
X53757142Y-328571D02*
X53785714Y-300000D01*
X53842857Y-271428D01*
X53985714Y-271428D01*
X54042857Y-300000D01*
X54071428Y-328571D01*
X54100000Y-385714D01*
X54100000Y-442857D01*
X54071428Y-528571D01*
X53728571Y-871428D01*
X54100000Y-871428D01*
X54471428Y-271428D02*
X54528571Y-271428D01*
X54585714Y-300000D01*
X54614285Y-328571D01*
X54642857Y-385714D01*
X54671428Y-500000D01*
X54671428Y-642857D01*
X54642857Y-757142D01*
X54614285Y-814285D01*
X54585714Y-842857D01*
X54528571Y-871428D01*
X54471428Y-871428D01*
X54414285Y-842857D01*
X54385714Y-814285D01*
X54357142Y-757142D01*
X54328571Y-642857D01*
X54328571Y-500000D01*
X54357142Y-385714D01*
X54385714Y-328571D01*
X54414285Y-300000D01*
X54471428Y-271428D01*
X55014285Y-528571D02*
X54957142Y-500000D01*
X54928571Y-471428D01*
X54900000Y-414285D01*
X54900000Y-385714D01*
X54928571Y-328571D01*
X54957142Y-300000D01*
X55014285Y-271428D01*
X55128571Y-271428D01*
X55185714Y-300000D01*
X55214285Y-328571D01*
X55242857Y-385714D01*
X55242857Y-414285D01*
X55214285Y-471428D01*
X55185714Y-500000D01*
X55128571Y-528571D01*
X55014285Y-528571D01*
X54957142Y-557142D01*
X54928571Y-585714D01*
X54900000Y-642857D01*
X54900000Y-757142D01*
X54928571Y-814285D01*
X54957142Y-842857D01*
X55014285Y-871428D01*
X55128571Y-871428D01*
X55185714Y-842857D01*
X55214285Y-814285D01*
X55242857Y-757142D01*
X55242857Y-642857D01*
X55214285Y-585714D01*
X55185714Y-557142D01*
X55128571Y-528571D01*
X48628571Y-13771428D02*
X48428571Y-13485714D01*
X48285714Y-13771428D02*
X48285714Y-13171428D01*
X48514285Y-13171428D01*
X48571428Y-13200000D01*
X48600000Y-13228571D01*
X48628571Y-13285714D01*
X48628571Y-13371428D01*
X48600000Y-13428571D01*
X48571428Y-13457142D01*
X48514285Y-13485714D01*
X48285714Y-13485714D01*
X48857142Y-13228571D02*
X48885714Y-13200000D01*
X48942857Y-13171428D01*
X49085714Y-13171428D01*
X49142857Y-13200000D01*
X49171428Y-13228571D01*
X49200000Y-13285714D01*
X49200000Y-13342857D01*
X49171428Y-13428571D01*
X48828571Y-13771428D01*
X49200000Y-13771428D01*
X49571428Y-13171428D02*
X49628571Y-13171428D01*
X49685714Y-13200000D01*
X49714285Y-13228571D01*
X49742857Y-13285714D01*
X49771428Y-13400000D01*
X49771428Y-13542857D01*
X49742857Y-13657142D01*
X49714285Y-13714285D01*
X49685714Y-13742857D01*
X49628571Y-13771428D01*
X49571428Y-13771428D01*
X49514285Y-13742857D01*
X49485714Y-13714285D01*
X49457142Y-13657142D01*
X49428571Y-13542857D01*
X49428571Y-13400000D01*
X49457142Y-13285714D01*
X49485714Y-13228571D01*
X49514285Y-13200000D01*
X49571428Y-13171428D01*
X49971428Y-13171428D02*
X50371428Y-13171428D01*
X50114285Y-13771428D01*
X43671428Y-8171428D02*
X43385714Y-8371428D01*
X43671428Y-8514285D02*
X43071428Y-8514285D01*
X43071428Y-8285714D01*
X43100000Y-8228571D01*
X43128571Y-8200000D01*
X43185714Y-8171428D01*
X43271428Y-8171428D01*
X43328571Y-8200000D01*
X43357142Y-8228571D01*
X43385714Y-8285714D01*
X43385714Y-8514285D01*
X43128571Y-7942857D02*
X43100000Y-7914285D01*
X43071428Y-7857142D01*
X43071428Y-7714285D01*
X43100000Y-7657142D01*
X43128571Y-7628571D01*
X43185714Y-7600000D01*
X43242857Y-7600000D01*
X43328571Y-7628571D01*
X43671428Y-7971428D01*
X43671428Y-7600000D01*
X43071428Y-7228571D02*
X43071428Y-7171428D01*
X43100000Y-7114285D01*
X43128571Y-7085714D01*
X43185714Y-7057142D01*
X43300000Y-7028571D01*
X43442857Y-7028571D01*
X43557142Y-7057142D01*
X43614285Y-7085714D01*
X43642857Y-7114285D01*
X43671428Y-7171428D01*
X43671428Y-7228571D01*
X43642857Y-7285714D01*
X43614285Y-7314285D01*
X43557142Y-7342857D01*
X43442857Y-7371428D01*
X43300000Y-7371428D01*
X43185714Y-7342857D01*
X43128571Y-7314285D01*
X43100000Y-7285714D01*
X43071428Y-7228571D01*
X43071428Y-6828571D02*
X43071428Y-6457142D01*
X43300000Y-6657142D01*
X43300000Y-6571428D01*
X43328571Y-6514285D01*
X43357142Y-6485714D01*
X43414285Y-6457142D01*
X43557142Y-6457142D01*
X43614285Y-6485714D01*
X43642857Y-6514285D01*
X43671428Y-6571428D01*
X43671428Y-6742857D01*
X43642857Y-6800000D01*
X43614285Y-6828571D01*
X37071428Y-4871428D02*
X36785714Y-5071428D01*
X37071428Y-5214285D02*
X36471428Y-5214285D01*
X36471428Y-4985714D01*
X36500000Y-4928571D01*
X36528571Y-4900000D01*
X36585714Y-4871428D01*
X36671428Y-4871428D01*
X36728571Y-4900000D01*
X36757142Y-4928571D01*
X36785714Y-4985714D01*
X36785714Y-5214285D01*
X36528571Y-4642857D02*
X36500000Y-4614285D01*
X36471428Y-4557142D01*
X36471428Y-4414285D01*
X36500000Y-4357142D01*
X36528571Y-4328571D01*
X36585714Y-4300000D01*
X36642857Y-4300000D01*
X36728571Y-4328571D01*
X37071428Y-4671428D01*
X37071428Y-4300000D01*
X36471428Y-3928571D02*
X36471428Y-3871428D01*
X36500000Y-3814285D01*
X36528571Y-3785714D01*
X36585714Y-3757142D01*
X36700000Y-3728571D01*
X36842857Y-3728571D01*
X36957142Y-3757142D01*
X37014285Y-3785714D01*
X37042857Y-3814285D01*
X37071428Y-3871428D01*
X37071428Y-3928571D01*
X37042857Y-3985714D01*
X37014285Y-4014285D01*
X36957142Y-4042857D01*
X36842857Y-4071428D01*
X36700000Y-4071428D01*
X36585714Y-4042857D01*
X36528571Y-4014285D01*
X36500000Y-3985714D01*
X36471428Y-3928571D01*
X36528571Y-3500000D02*
X36500000Y-3471428D01*
X36471428Y-3414285D01*
X36471428Y-3271428D01*
X36500000Y-3214285D01*
X36528571Y-3185714D01*
X36585714Y-3157142D01*
X36642857Y-3157142D01*
X36728571Y-3185714D01*
X37071428Y-3528571D01*
X37071428Y-3157142D01*
X37271428Y-7971428D02*
X36985714Y-8171428D01*
X37271428Y-8314285D02*
X36671428Y-8314285D01*
X36671428Y-8085714D01*
X36700000Y-8028571D01*
X36728571Y-8000000D01*
X36785714Y-7971428D01*
X36871428Y-7971428D01*
X36928571Y-8000000D01*
X36957142Y-8028571D01*
X36985714Y-8085714D01*
X36985714Y-8314285D01*
X36728571Y-7742857D02*
X36700000Y-7714285D01*
X36671428Y-7657142D01*
X36671428Y-7514285D01*
X36700000Y-7457142D01*
X36728571Y-7428571D01*
X36785714Y-7400000D01*
X36842857Y-7400000D01*
X36928571Y-7428571D01*
X37271428Y-7771428D01*
X37271428Y-7400000D01*
X36671428Y-7028571D02*
X36671428Y-6971428D01*
X36700000Y-6914285D01*
X36728571Y-6885714D01*
X36785714Y-6857142D01*
X36900000Y-6828571D01*
X37042857Y-6828571D01*
X37157142Y-6857142D01*
X37214285Y-6885714D01*
X37242857Y-6914285D01*
X37271428Y-6971428D01*
X37271428Y-7028571D01*
X37242857Y-7085714D01*
X37214285Y-7114285D01*
X37157142Y-7142857D01*
X37042857Y-7171428D01*
X36900000Y-7171428D01*
X36785714Y-7142857D01*
X36728571Y-7114285D01*
X36700000Y-7085714D01*
X36671428Y-7028571D01*
X37271428Y-6257142D02*
X37271428Y-6600000D01*
X37271428Y-6428571D02*
X36671428Y-6428571D01*
X36757142Y-6485714D01*
X36814285Y-6542857D01*
X36842857Y-6600000D01*
X52171428Y-27571428D02*
X51885714Y-27771428D01*
X52171428Y-27914285D02*
X51571428Y-27914285D01*
X51571428Y-27685714D01*
X51600000Y-27628571D01*
X51628571Y-27600000D01*
X51685714Y-27571428D01*
X51771428Y-27571428D01*
X51828571Y-27600000D01*
X51857142Y-27628571D01*
X51885714Y-27685714D01*
X51885714Y-27914285D01*
X52171428Y-27000000D02*
X52171428Y-27342857D01*
X52171428Y-27171428D02*
X51571428Y-27171428D01*
X51657142Y-27228571D01*
X51714285Y-27285714D01*
X51742857Y-27342857D01*
X52171428Y-26428571D02*
X52171428Y-26771428D01*
X52171428Y-26600000D02*
X51571428Y-26600000D01*
X51657142Y-26657142D01*
X51714285Y-26714285D01*
X51742857Y-26771428D01*
X51571428Y-26057142D02*
X51571428Y-26000000D01*
X51600000Y-25942857D01*
X51628571Y-25914285D01*
X51685714Y-25885714D01*
X51800000Y-25857142D01*
X51942857Y-25857142D01*
X52057142Y-25885714D01*
X52114285Y-25914285D01*
X52142857Y-25942857D01*
X52171428Y-26000000D01*
X52171428Y-26057142D01*
X52142857Y-26114285D01*
X52114285Y-26142857D01*
X52057142Y-26171428D01*
X51942857Y-26200000D01*
X51800000Y-26200000D01*
X51685714Y-26171428D01*
X51628571Y-26142857D01*
X51600000Y-26114285D01*
X51571428Y-26057142D01*
X54371428Y-27671428D02*
X54085714Y-27871428D01*
X54371428Y-28014285D02*
X53771428Y-28014285D01*
X53771428Y-27785714D01*
X53800000Y-27728571D01*
X53828571Y-27700000D01*
X53885714Y-27671428D01*
X53971428Y-27671428D01*
X54028571Y-27700000D01*
X54057142Y-27728571D01*
X54085714Y-27785714D01*
X54085714Y-28014285D01*
X54371428Y-27100000D02*
X54371428Y-27442857D01*
X54371428Y-27271428D02*
X53771428Y-27271428D01*
X53857142Y-27328571D01*
X53914285Y-27385714D01*
X53942857Y-27442857D01*
X53771428Y-26728571D02*
X53771428Y-26671428D01*
X53800000Y-26614285D01*
X53828571Y-26585714D01*
X53885714Y-26557142D01*
X54000000Y-26528571D01*
X54142857Y-26528571D01*
X54257142Y-26557142D01*
X54314285Y-26585714D01*
X54342857Y-26614285D01*
X54371428Y-26671428D01*
X54371428Y-26728571D01*
X54342857Y-26785714D01*
X54314285Y-26814285D01*
X54257142Y-26842857D01*
X54142857Y-26871428D01*
X54000000Y-26871428D01*
X53885714Y-26842857D01*
X53828571Y-26814285D01*
X53800000Y-26785714D01*
X53771428Y-26728571D01*
X54371428Y-26242857D02*
X54371428Y-26128571D01*
X54342857Y-26071428D01*
X54314285Y-26042857D01*
X54228571Y-25985714D01*
X54114285Y-25957142D01*
X53885714Y-25957142D01*
X53828571Y-25985714D01*
X53800000Y-26014285D01*
X53771428Y-26071428D01*
X53771428Y-26185714D01*
X53800000Y-26242857D01*
X53828571Y-26271428D01*
X53885714Y-26300000D01*
X54028571Y-26300000D01*
X54085714Y-26271428D01*
X54114285Y-26242857D01*
X54142857Y-26185714D01*
X54142857Y-26071428D01*
X54114285Y-26014285D01*
X54085714Y-25985714D01*
X54028571Y-25957142D01*
X55371428Y-27671428D02*
X55085714Y-27871428D01*
X55371428Y-28014285D02*
X54771428Y-28014285D01*
X54771428Y-27785714D01*
X54800000Y-27728571D01*
X54828571Y-27700000D01*
X54885714Y-27671428D01*
X54971428Y-27671428D01*
X55028571Y-27700000D01*
X55057142Y-27728571D01*
X55085714Y-27785714D01*
X55085714Y-28014285D01*
X55371428Y-27100000D02*
X55371428Y-27442857D01*
X55371428Y-27271428D02*
X54771428Y-27271428D01*
X54857142Y-27328571D01*
X54914285Y-27385714D01*
X54942857Y-27442857D01*
X54771428Y-26728571D02*
X54771428Y-26671428D01*
X54800000Y-26614285D01*
X54828571Y-26585714D01*
X54885714Y-26557142D01*
X55000000Y-26528571D01*
X55142857Y-26528571D01*
X55257142Y-26557142D01*
X55314285Y-26585714D01*
X55342857Y-26614285D01*
X55371428Y-26671428D01*
X55371428Y-26728571D01*
X55342857Y-26785714D01*
X55314285Y-26814285D01*
X55257142Y-26842857D01*
X55142857Y-26871428D01*
X55000000Y-26871428D01*
X54885714Y-26842857D01*
X54828571Y-26814285D01*
X54800000Y-26785714D01*
X54771428Y-26728571D01*
X55028571Y-26185714D02*
X55000000Y-26242857D01*
X54971428Y-26271428D01*
X54914285Y-26300000D01*
X54885714Y-26300000D01*
X54828571Y-26271428D01*
X54800000Y-26242857D01*
X54771428Y-26185714D01*
X54771428Y-26071428D01*
X54800000Y-26014285D01*
X54828571Y-25985714D01*
X54885714Y-25957142D01*
X54914285Y-25957142D01*
X54971428Y-25985714D01*
X55000000Y-26014285D01*
X55028571Y-26071428D01*
X55028571Y-26185714D01*
X55057142Y-26242857D01*
X55085714Y-26271428D01*
X55142857Y-26300000D01*
X55257142Y-26300000D01*
X55314285Y-26271428D01*
X55342857Y-26242857D01*
X55371428Y-26185714D01*
X55371428Y-26071428D01*
X55342857Y-26014285D01*
X55314285Y-25985714D01*
X55257142Y-25957142D01*
X55142857Y-25957142D01*
X55085714Y-25985714D01*
X55057142Y-26014285D01*
X55028571Y-26071428D01*
X53371428Y-27571428D02*
X53085714Y-27771428D01*
X53371428Y-27914285D02*
X52771428Y-27914285D01*
X52771428Y-27685714D01*
X52800000Y-27628571D01*
X52828571Y-27600000D01*
X52885714Y-27571428D01*
X52971428Y-27571428D01*
X53028571Y-27600000D01*
X53057142Y-27628571D01*
X53085714Y-27685714D01*
X53085714Y-27914285D01*
X53371428Y-27000000D02*
X53371428Y-27342857D01*
X53371428Y-27171428D02*
X52771428Y-27171428D01*
X52857142Y-27228571D01*
X52914285Y-27285714D01*
X52942857Y-27342857D01*
X52771428Y-26628571D02*
X52771428Y-26571428D01*
X52800000Y-26514285D01*
X52828571Y-26485714D01*
X52885714Y-26457142D01*
X53000000Y-26428571D01*
X53142857Y-26428571D01*
X53257142Y-26457142D01*
X53314285Y-26485714D01*
X53342857Y-26514285D01*
X53371428Y-26571428D01*
X53371428Y-26628571D01*
X53342857Y-26685714D01*
X53314285Y-26714285D01*
X53257142Y-26742857D01*
X53142857Y-26771428D01*
X53000000Y-26771428D01*
X52885714Y-26742857D01*
X52828571Y-26714285D01*
X52800000Y-26685714D01*
X52771428Y-26628571D01*
X52771428Y-26228571D02*
X52771428Y-25828571D01*
X53371428Y-26085714D01*
X55628571Y-38571428D02*
X55428571Y-38285714D01*
X55285714Y-38571428D02*
X55285714Y-37971428D01*
X55514285Y-37971428D01*
X55571428Y-38000000D01*
X55600000Y-38028571D01*
X55628571Y-38085714D01*
X55628571Y-38171428D01*
X55600000Y-38228571D01*
X55571428Y-38257142D01*
X55514285Y-38285714D01*
X55285714Y-38285714D01*
X56200000Y-38571428D02*
X55857142Y-38571428D01*
X56028571Y-38571428D02*
X56028571Y-37971428D01*
X55971428Y-38057142D01*
X55914285Y-38114285D01*
X55857142Y-38142857D01*
X56571428Y-37971428D02*
X56628571Y-37971428D01*
X56685714Y-38000000D01*
X56714285Y-38028571D01*
X56742857Y-38085714D01*
X56771428Y-38200000D01*
X56771428Y-38342857D01*
X56742857Y-38457142D01*
X56714285Y-38514285D01*
X56685714Y-38542857D01*
X56628571Y-38571428D01*
X56571428Y-38571428D01*
X56514285Y-38542857D01*
X56485714Y-38514285D01*
X56457142Y-38457142D01*
X56428571Y-38342857D01*
X56428571Y-38200000D01*
X56457142Y-38085714D01*
X56485714Y-38028571D01*
X56514285Y-38000000D01*
X56571428Y-37971428D01*
X57285714Y-37971428D02*
X57171428Y-37971428D01*
X57114285Y-38000000D01*
X57085714Y-38028571D01*
X57028571Y-38114285D01*
X57000000Y-38228571D01*
X57000000Y-38457142D01*
X57028571Y-38514285D01*
X57057142Y-38542857D01*
X57114285Y-38571428D01*
X57228571Y-38571428D01*
X57285714Y-38542857D01*
X57314285Y-38514285D01*
X57342857Y-38457142D01*
X57342857Y-38314285D01*
X57314285Y-38257142D01*
X57285714Y-38228571D01*
X57228571Y-38200000D01*
X57114285Y-38200000D01*
X57057142Y-38228571D01*
X57028571Y-38257142D01*
X57000000Y-38314285D01*
X25471428Y-38371428D02*
X25185714Y-38571428D01*
X25471428Y-38714285D02*
X24871428Y-38714285D01*
X24871428Y-38485714D01*
X24900000Y-38428571D01*
X24928571Y-38400000D01*
X24985714Y-38371428D01*
X25071428Y-38371428D01*
X25128571Y-38400000D01*
X25157142Y-38428571D01*
X25185714Y-38485714D01*
X25185714Y-38714285D01*
X25471428Y-37800000D02*
X25471428Y-38142857D01*
X25471428Y-37971428D02*
X24871428Y-37971428D01*
X24957142Y-38028571D01*
X25014285Y-38085714D01*
X25042857Y-38142857D01*
X24871428Y-37428571D02*
X24871428Y-37371428D01*
X24900000Y-37314285D01*
X24928571Y-37285714D01*
X24985714Y-37257142D01*
X25100000Y-37228571D01*
X25242857Y-37228571D01*
X25357142Y-37257142D01*
X25414285Y-37285714D01*
X25442857Y-37314285D01*
X25471428Y-37371428D01*
X25471428Y-37428571D01*
X25442857Y-37485714D01*
X25414285Y-37514285D01*
X25357142Y-37542857D01*
X25242857Y-37571428D01*
X25100000Y-37571428D01*
X24985714Y-37542857D01*
X24928571Y-37514285D01*
X24900000Y-37485714D01*
X24871428Y-37428571D01*
X24871428Y-36685714D02*
X24871428Y-36971428D01*
X25157142Y-37000000D01*
X25128571Y-36971428D01*
X25100000Y-36914285D01*
X25100000Y-36771428D01*
X25128571Y-36714285D01*
X25157142Y-36685714D01*
X25214285Y-36657142D01*
X25357142Y-36657142D01*
X25414285Y-36685714D01*
X25442857Y-36714285D01*
X25471428Y-36771428D01*
X25471428Y-36914285D01*
X25442857Y-36971428D01*
X25414285Y-37000000D01*
X66221428Y-35771428D02*
X65935714Y-35971428D01*
X66221428Y-36114285D02*
X65621428Y-36114285D01*
X65621428Y-35885714D01*
X65650000Y-35828571D01*
X65678571Y-35800000D01*
X65735714Y-35771428D01*
X65821428Y-35771428D01*
X65878571Y-35800000D01*
X65907142Y-35828571D01*
X65935714Y-35885714D01*
X65935714Y-36114285D01*
X66221428Y-35200000D02*
X66221428Y-35542857D01*
X66221428Y-35371428D02*
X65621428Y-35371428D01*
X65707142Y-35428571D01*
X65764285Y-35485714D01*
X65792857Y-35542857D01*
X65621428Y-34828571D02*
X65621428Y-34771428D01*
X65650000Y-34714285D01*
X65678571Y-34685714D01*
X65735714Y-34657142D01*
X65850000Y-34628571D01*
X65992857Y-34628571D01*
X66107142Y-34657142D01*
X66164285Y-34685714D01*
X66192857Y-34714285D01*
X66221428Y-34771428D01*
X66221428Y-34828571D01*
X66192857Y-34885714D01*
X66164285Y-34914285D01*
X66107142Y-34942857D01*
X65992857Y-34971428D01*
X65850000Y-34971428D01*
X65735714Y-34942857D01*
X65678571Y-34914285D01*
X65650000Y-34885714D01*
X65621428Y-34828571D01*
X65621428Y-34428571D02*
X65621428Y-34057142D01*
X65850000Y-34257142D01*
X65850000Y-34171428D01*
X65878571Y-34114285D01*
X65907142Y-34085714D01*
X65964285Y-34057142D01*
X66107142Y-34057142D01*
X66164285Y-34085714D01*
X66192857Y-34114285D01*
X66221428Y-34171428D01*
X66221428Y-34342857D01*
X66192857Y-34400000D01*
X66164285Y-34428571D01*
X25928571Y-41871428D02*
X25728571Y-41585714D01*
X25585714Y-41871428D02*
X25585714Y-41271428D01*
X25814285Y-41271428D01*
X25871428Y-41300000D01*
X25900000Y-41328571D01*
X25928571Y-41385714D01*
X25928571Y-41471428D01*
X25900000Y-41528571D01*
X25871428Y-41557142D01*
X25814285Y-41585714D01*
X25585714Y-41585714D01*
X26500000Y-41871428D02*
X26157142Y-41871428D01*
X26328571Y-41871428D02*
X26328571Y-41271428D01*
X26271428Y-41357142D01*
X26214285Y-41414285D01*
X26157142Y-41442857D01*
X26871428Y-41271428D02*
X26928571Y-41271428D01*
X26985714Y-41300000D01*
X27014285Y-41328571D01*
X27042857Y-41385714D01*
X27071428Y-41500000D01*
X27071428Y-41642857D01*
X27042857Y-41757142D01*
X27014285Y-41814285D01*
X26985714Y-41842857D01*
X26928571Y-41871428D01*
X26871428Y-41871428D01*
X26814285Y-41842857D01*
X26785714Y-41814285D01*
X26757142Y-41757142D01*
X26728571Y-41642857D01*
X26728571Y-41500000D01*
X26757142Y-41385714D01*
X26785714Y-41328571D01*
X26814285Y-41300000D01*
X26871428Y-41271428D01*
X27300000Y-41328571D02*
X27328571Y-41300000D01*
X27385714Y-41271428D01*
X27528571Y-41271428D01*
X27585714Y-41300000D01*
X27614285Y-41328571D01*
X27642857Y-41385714D01*
X27642857Y-41442857D01*
X27614285Y-41528571D01*
X27271428Y-41871428D01*
X27642857Y-41871428D01*
X33728571Y-1071428D02*
X33528571Y-785714D01*
X33385714Y-1071428D02*
X33385714Y-471428D01*
X33614285Y-471428D01*
X33671428Y-500000D01*
X33700000Y-528571D01*
X33728571Y-585714D01*
X33728571Y-671428D01*
X33700000Y-728571D01*
X33671428Y-757142D01*
X33614285Y-785714D01*
X33385714Y-785714D01*
X34300000Y-1071428D02*
X33957142Y-1071428D01*
X34128571Y-1071428D02*
X34128571Y-471428D01*
X34071428Y-557142D01*
X34014285Y-614285D01*
X33957142Y-642857D01*
X34671428Y-471428D02*
X34728571Y-471428D01*
X34785714Y-500000D01*
X34814285Y-528571D01*
X34842857Y-585714D01*
X34871428Y-700000D01*
X34871428Y-842857D01*
X34842857Y-957142D01*
X34814285Y-1014285D01*
X34785714Y-1042857D01*
X34728571Y-1071428D01*
X34671428Y-1071428D01*
X34614285Y-1042857D01*
X34585714Y-1014285D01*
X34557142Y-957142D01*
X34528571Y-842857D01*
X34528571Y-700000D01*
X34557142Y-585714D01*
X34585714Y-528571D01*
X34614285Y-500000D01*
X34671428Y-471428D01*
X35442857Y-1071428D02*
X35100000Y-1071428D01*
X35271428Y-1071428D02*
X35271428Y-471428D01*
X35214285Y-557142D01*
X35157142Y-614285D01*
X35100000Y-642857D01*
X50571428Y-8171428D02*
X50285714Y-8371428D01*
X50571428Y-8514285D02*
X49971428Y-8514285D01*
X49971428Y-8285714D01*
X50000000Y-8228571D01*
X50028571Y-8200000D01*
X50085714Y-8171428D01*
X50171428Y-8171428D01*
X50228571Y-8200000D01*
X50257142Y-8228571D01*
X50285714Y-8285714D01*
X50285714Y-8514285D01*
X50028571Y-7942857D02*
X50000000Y-7914285D01*
X49971428Y-7857142D01*
X49971428Y-7714285D01*
X50000000Y-7657142D01*
X50028571Y-7628571D01*
X50085714Y-7600000D01*
X50142857Y-7600000D01*
X50228571Y-7628571D01*
X50571428Y-7971428D01*
X50571428Y-7600000D01*
X50571428Y-7028571D02*
X50571428Y-7371428D01*
X50571428Y-7200000D02*
X49971428Y-7200000D01*
X50057142Y-7257142D01*
X50114285Y-7314285D01*
X50142857Y-7371428D01*
X49971428Y-6657142D02*
X49971428Y-6600000D01*
X50000000Y-6542857D01*
X50028571Y-6514285D01*
X50085714Y-6485714D01*
X50200000Y-6457142D01*
X50342857Y-6457142D01*
X50457142Y-6485714D01*
X50514285Y-6514285D01*
X50542857Y-6542857D01*
X50571428Y-6600000D01*
X50571428Y-6657142D01*
X50542857Y-6714285D01*
X50514285Y-6742857D01*
X50457142Y-6771428D01*
X50342857Y-6800000D01*
X50200000Y-6800000D01*
X50085714Y-6771428D01*
X50028571Y-6742857D01*
X50000000Y-6714285D01*
X49971428Y-6657142D01*
X50028571Y-1471428D02*
X49828571Y-1185714D01*
X49685714Y-1471428D02*
X49685714Y-871428D01*
X49914285Y-871428D01*
X49971428Y-900000D01*
X50000000Y-928571D01*
X50028571Y-985714D01*
X50028571Y-1071428D01*
X50000000Y-1128571D01*
X49971428Y-1157142D01*
X49914285Y-1185714D01*
X49685714Y-1185714D01*
X50257142Y-928571D02*
X50285714Y-900000D01*
X50342857Y-871428D01*
X50485714Y-871428D01*
X50542857Y-900000D01*
X50571428Y-928571D01*
X50600000Y-985714D01*
X50600000Y-1042857D01*
X50571428Y-1128571D01*
X50228571Y-1471428D01*
X50600000Y-1471428D01*
X50971428Y-871428D02*
X51028571Y-871428D01*
X51085714Y-900000D01*
X51114285Y-928571D01*
X51142857Y-985714D01*
X51171428Y-1100000D01*
X51171428Y-1242857D01*
X51142857Y-1357142D01*
X51114285Y-1414285D01*
X51085714Y-1442857D01*
X51028571Y-1471428D01*
X50971428Y-1471428D01*
X50914285Y-1442857D01*
X50885714Y-1414285D01*
X50857142Y-1357142D01*
X50828571Y-1242857D01*
X50828571Y-1100000D01*
X50857142Y-985714D01*
X50885714Y-928571D01*
X50914285Y-900000D01*
X50971428Y-871428D01*
X51457142Y-1471428D02*
X51571428Y-1471428D01*
X51628571Y-1442857D01*
X51657142Y-1414285D01*
X51714285Y-1328571D01*
X51742857Y-1214285D01*
X51742857Y-985714D01*
X51714285Y-928571D01*
X51685714Y-900000D01*
X51628571Y-871428D01*
X51514285Y-871428D01*
X51457142Y-900000D01*
X51428571Y-928571D01*
X51400000Y-985714D01*
X51400000Y-1128571D01*
X51428571Y-1185714D01*
X51457142Y-1214285D01*
X51514285Y-1242857D01*
X51628571Y-1242857D01*
X51685714Y-1214285D01*
X51714285Y-1185714D01*
X51742857Y-1128571D01*
X50428571Y-16771428D02*
X50228571Y-16485714D01*
X50085714Y-16771428D02*
X50085714Y-16171428D01*
X50314285Y-16171428D01*
X50371428Y-16200000D01*
X50400000Y-16228571D01*
X50428571Y-16285714D01*
X50428571Y-16371428D01*
X50400000Y-16428571D01*
X50371428Y-16457142D01*
X50314285Y-16485714D01*
X50085714Y-16485714D01*
X50657142Y-16228571D02*
X50685714Y-16200000D01*
X50742857Y-16171428D01*
X50885714Y-16171428D01*
X50942857Y-16200000D01*
X50971428Y-16228571D01*
X51000000Y-16285714D01*
X51000000Y-16342857D01*
X50971428Y-16428571D01*
X50628571Y-16771428D01*
X51000000Y-16771428D01*
X51371428Y-16171428D02*
X51428571Y-16171428D01*
X51485714Y-16200000D01*
X51514285Y-16228571D01*
X51542857Y-16285714D01*
X51571428Y-16400000D01*
X51571428Y-16542857D01*
X51542857Y-16657142D01*
X51514285Y-16714285D01*
X51485714Y-16742857D01*
X51428571Y-16771428D01*
X51371428Y-16771428D01*
X51314285Y-16742857D01*
X51285714Y-16714285D01*
X51257142Y-16657142D01*
X51228571Y-16542857D01*
X51228571Y-16400000D01*
X51257142Y-16285714D01*
X51285714Y-16228571D01*
X51314285Y-16200000D01*
X51371428Y-16171428D01*
X52085714Y-16171428D02*
X51971428Y-16171428D01*
X51914285Y-16200000D01*
X51885714Y-16228571D01*
X51828571Y-16314285D01*
X51800000Y-16428571D01*
X51800000Y-16657142D01*
X51828571Y-16714285D01*
X51857142Y-16742857D01*
X51914285Y-16771428D01*
X52028571Y-16771428D01*
X52085714Y-16742857D01*
X52114285Y-16714285D01*
X52142857Y-16657142D01*
X52142857Y-16514285D01*
X52114285Y-16457142D01*
X52085714Y-16428571D01*
X52028571Y-16400000D01*
X51914285Y-16400000D01*
X51857142Y-16428571D01*
X51828571Y-16457142D01*
X51800000Y-16514285D01*
X17371428Y-15671428D02*
X17085714Y-15871428D01*
X17371428Y-16014285D02*
X16771428Y-16014285D01*
X16771428Y-15785714D01*
X16800000Y-15728571D01*
X16828571Y-15700000D01*
X16885714Y-15671428D01*
X16971428Y-15671428D01*
X17028571Y-15700000D01*
X17057142Y-15728571D01*
X17085714Y-15785714D01*
X17085714Y-16014285D01*
X16771428Y-15128571D02*
X16771428Y-15414285D01*
X17057142Y-15442857D01*
X17028571Y-15414285D01*
X17000000Y-15357142D01*
X17000000Y-15214285D01*
X17028571Y-15157142D01*
X17057142Y-15128571D01*
X17114285Y-15100000D01*
X17257142Y-15100000D01*
X17314285Y-15128571D01*
X17342857Y-15157142D01*
X17371428Y-15214285D01*
X17371428Y-15357142D01*
X17342857Y-15414285D01*
X17314285Y-15442857D01*
X16771428Y-14728571D02*
X16771428Y-14671428D01*
X16800000Y-14614285D01*
X16828571Y-14585714D01*
X16885714Y-14557142D01*
X17000000Y-14528571D01*
X17142857Y-14528571D01*
X17257142Y-14557142D01*
X17314285Y-14585714D01*
X17342857Y-14614285D01*
X17371428Y-14671428D01*
X17371428Y-14728571D01*
X17342857Y-14785714D01*
X17314285Y-14814285D01*
X17257142Y-14842857D01*
X17142857Y-14871428D01*
X17000000Y-14871428D01*
X16885714Y-14842857D01*
X16828571Y-14814285D01*
X16800000Y-14785714D01*
X16771428Y-14728571D01*
X17371428Y-13957142D02*
X17371428Y-14300000D01*
X17371428Y-14128571D02*
X16771428Y-14128571D01*
X16857142Y-14185714D01*
X16914285Y-14242857D01*
X16942857Y-14300000D01*
X26628571Y-19871428D02*
X26428571Y-19585714D01*
X26285714Y-19871428D02*
X26285714Y-19271428D01*
X26514285Y-19271428D01*
X26571428Y-19300000D01*
X26600000Y-19328571D01*
X26628571Y-19385714D01*
X26628571Y-19471428D01*
X26600000Y-19528571D01*
X26571428Y-19557142D01*
X26514285Y-19585714D01*
X26285714Y-19585714D01*
X27171428Y-19271428D02*
X26885714Y-19271428D01*
X26857142Y-19557142D01*
X26885714Y-19528571D01*
X26942857Y-19500000D01*
X27085714Y-19500000D01*
X27142857Y-19528571D01*
X27171428Y-19557142D01*
X27200000Y-19614285D01*
X27200000Y-19757142D01*
X27171428Y-19814285D01*
X27142857Y-19842857D01*
X27085714Y-19871428D01*
X26942857Y-19871428D01*
X26885714Y-19842857D01*
X26857142Y-19814285D01*
X27571428Y-19271428D02*
X27628571Y-19271428D01*
X27685714Y-19300000D01*
X27714285Y-19328571D01*
X27742857Y-19385714D01*
X27771428Y-19500000D01*
X27771428Y-19642857D01*
X27742857Y-19757142D01*
X27714285Y-19814285D01*
X27685714Y-19842857D01*
X27628571Y-19871428D01*
X27571428Y-19871428D01*
X27514285Y-19842857D01*
X27485714Y-19814285D01*
X27457142Y-19757142D01*
X27428571Y-19642857D01*
X27428571Y-19500000D01*
X27457142Y-19385714D01*
X27485714Y-19328571D01*
X27514285Y-19300000D01*
X27571428Y-19271428D01*
X28000000Y-19328571D02*
X28028571Y-19300000D01*
X28085714Y-19271428D01*
X28228571Y-19271428D01*
X28285714Y-19300000D01*
X28314285Y-19328571D01*
X28342857Y-19385714D01*
X28342857Y-19442857D01*
X28314285Y-19528571D01*
X27971428Y-19871428D01*
X28342857Y-19871428D01*
X23528571Y-20071428D02*
X23328571Y-19785714D01*
X23185714Y-20071428D02*
X23185714Y-19471428D01*
X23414285Y-19471428D01*
X23471428Y-19500000D01*
X23500000Y-19528571D01*
X23528571Y-19585714D01*
X23528571Y-19671428D01*
X23500000Y-19728571D01*
X23471428Y-19757142D01*
X23414285Y-19785714D01*
X23185714Y-19785714D01*
X24071428Y-19471428D02*
X23785714Y-19471428D01*
X23757142Y-19757142D01*
X23785714Y-19728571D01*
X23842857Y-19700000D01*
X23985714Y-19700000D01*
X24042857Y-19728571D01*
X24071428Y-19757142D01*
X24100000Y-19814285D01*
X24100000Y-19957142D01*
X24071428Y-20014285D01*
X24042857Y-20042857D01*
X23985714Y-20071428D01*
X23842857Y-20071428D01*
X23785714Y-20042857D01*
X23757142Y-20014285D01*
X24471428Y-19471428D02*
X24528571Y-19471428D01*
X24585714Y-19500000D01*
X24614285Y-19528571D01*
X24642857Y-19585714D01*
X24671428Y-19700000D01*
X24671428Y-19842857D01*
X24642857Y-19957142D01*
X24614285Y-20014285D01*
X24585714Y-20042857D01*
X24528571Y-20071428D01*
X24471428Y-20071428D01*
X24414285Y-20042857D01*
X24385714Y-20014285D01*
X24357142Y-19957142D01*
X24328571Y-19842857D01*
X24328571Y-19700000D01*
X24357142Y-19585714D01*
X24385714Y-19528571D01*
X24414285Y-19500000D01*
X24471428Y-19471428D01*
X24871428Y-19471428D02*
X25242857Y-19471428D01*
X25042857Y-19700000D01*
X25128571Y-19700000D01*
X25185714Y-19728571D01*
X25214285Y-19757142D01*
X25242857Y-19814285D01*
X25242857Y-19957142D01*
X25214285Y-20014285D01*
X25185714Y-20042857D01*
X25128571Y-20071428D01*
X24957142Y-20071428D01*
X24900000Y-20042857D01*
X24871428Y-20014285D01*
X31028571Y-16771428D02*
X30828571Y-16485714D01*
X30685714Y-16771428D02*
X30685714Y-16171428D01*
X30914285Y-16171428D01*
X30971428Y-16200000D01*
X31000000Y-16228571D01*
X31028571Y-16285714D01*
X31028571Y-16371428D01*
X31000000Y-16428571D01*
X30971428Y-16457142D01*
X30914285Y-16485714D01*
X30685714Y-16485714D01*
X31571428Y-16171428D02*
X31285714Y-16171428D01*
X31257142Y-16457142D01*
X31285714Y-16428571D01*
X31342857Y-16400000D01*
X31485714Y-16400000D01*
X31542857Y-16428571D01*
X31571428Y-16457142D01*
X31600000Y-16514285D01*
X31600000Y-16657142D01*
X31571428Y-16714285D01*
X31542857Y-16742857D01*
X31485714Y-16771428D01*
X31342857Y-16771428D01*
X31285714Y-16742857D01*
X31257142Y-16714285D01*
X31971428Y-16171428D02*
X32028571Y-16171428D01*
X32085714Y-16200000D01*
X32114285Y-16228571D01*
X32142857Y-16285714D01*
X32171428Y-16400000D01*
X32171428Y-16542857D01*
X32142857Y-16657142D01*
X32114285Y-16714285D01*
X32085714Y-16742857D01*
X32028571Y-16771428D01*
X31971428Y-16771428D01*
X31914285Y-16742857D01*
X31885714Y-16714285D01*
X31857142Y-16657142D01*
X31828571Y-16542857D01*
X31828571Y-16400000D01*
X31857142Y-16285714D01*
X31885714Y-16228571D01*
X31914285Y-16200000D01*
X31971428Y-16171428D01*
X32714285Y-16171428D02*
X32428571Y-16171428D01*
X32400000Y-16457142D01*
X32428571Y-16428571D01*
X32485714Y-16400000D01*
X32628571Y-16400000D01*
X32685714Y-16428571D01*
X32714285Y-16457142D01*
X32742857Y-16514285D01*
X32742857Y-16657142D01*
X32714285Y-16714285D01*
X32685714Y-16742857D01*
X32628571Y-16771428D01*
X32485714Y-16771428D01*
X32428571Y-16742857D01*
X32400000Y-16714285D01*
X30728571Y-19521428D02*
X30528571Y-19235714D01*
X30385714Y-19521428D02*
X30385714Y-18921428D01*
X30614285Y-18921428D01*
X30671428Y-18950000D01*
X30700000Y-18978571D01*
X30728571Y-19035714D01*
X30728571Y-19121428D01*
X30700000Y-19178571D01*
X30671428Y-19207142D01*
X30614285Y-19235714D01*
X30385714Y-19235714D01*
X31271428Y-18921428D02*
X30985714Y-18921428D01*
X30957142Y-19207142D01*
X30985714Y-19178571D01*
X31042857Y-19150000D01*
X31185714Y-19150000D01*
X31242857Y-19178571D01*
X31271428Y-19207142D01*
X31300000Y-19264285D01*
X31300000Y-19407142D01*
X31271428Y-19464285D01*
X31242857Y-19492857D01*
X31185714Y-19521428D01*
X31042857Y-19521428D01*
X30985714Y-19492857D01*
X30957142Y-19464285D01*
X31671428Y-18921428D02*
X31728571Y-18921428D01*
X31785714Y-18950000D01*
X31814285Y-18978571D01*
X31842857Y-19035714D01*
X31871428Y-19150000D01*
X31871428Y-19292857D01*
X31842857Y-19407142D01*
X31814285Y-19464285D01*
X31785714Y-19492857D01*
X31728571Y-19521428D01*
X31671428Y-19521428D01*
X31614285Y-19492857D01*
X31585714Y-19464285D01*
X31557142Y-19407142D01*
X31528571Y-19292857D01*
X31528571Y-19150000D01*
X31557142Y-19035714D01*
X31585714Y-18978571D01*
X31614285Y-18950000D01*
X31671428Y-18921428D01*
X32385714Y-19121428D02*
X32385714Y-19521428D01*
X32242857Y-18892857D02*
X32100000Y-19321428D01*
X32471428Y-19321428D01*
X16171428Y-4528571D02*
X16114285Y-4500000D01*
X16057142Y-4442857D01*
X15971428Y-4357142D01*
X15914285Y-4328571D01*
X15857142Y-4328571D01*
X15885714Y-4471428D02*
X15828571Y-4442857D01*
X15771428Y-4385714D01*
X15742857Y-4271428D01*
X15742857Y-4071428D01*
X15771428Y-3957142D01*
X15828571Y-3900000D01*
X15885714Y-3871428D01*
X16000000Y-3871428D01*
X16057142Y-3900000D01*
X16114285Y-3957142D01*
X16142857Y-4071428D01*
X16142857Y-4271428D01*
X16114285Y-4385714D01*
X16057142Y-4442857D01*
X16000000Y-4471428D01*
X15885714Y-4471428D01*
X16657142Y-4071428D02*
X16657142Y-4471428D01*
X16514285Y-3842857D02*
X16371428Y-4271428D01*
X16742857Y-4271428D01*
X17085714Y-3871428D02*
X17142857Y-3871428D01*
X17200000Y-3900000D01*
X17228571Y-3928571D01*
X17257142Y-3985714D01*
X17285714Y-4100000D01*
X17285714Y-4242857D01*
X17257142Y-4357142D01*
X17228571Y-4414285D01*
X17200000Y-4442857D01*
X17142857Y-4471428D01*
X17085714Y-4471428D01*
X17028571Y-4442857D01*
X17000000Y-4414285D01*
X16971428Y-4357142D01*
X16942857Y-4242857D01*
X16942857Y-4100000D01*
X16971428Y-3985714D01*
X17000000Y-3928571D01*
X17028571Y-3900000D01*
X17085714Y-3871428D01*
X17857142Y-4471428D02*
X17514285Y-4471428D01*
X17685714Y-4471428D02*
X17685714Y-3871428D01*
X17628571Y-3957142D01*
X17571428Y-4014285D01*
X17514285Y-4042857D01*
X51471428Y-2228571D02*
X51414285Y-2200000D01*
X51357142Y-2142857D01*
X51271428Y-2057142D01*
X51214285Y-2028571D01*
X51157142Y-2028571D01*
X51185714Y-2171428D02*
X51128571Y-2142857D01*
X51071428Y-2085714D01*
X51042857Y-1971428D01*
X51042857Y-1771428D01*
X51071428Y-1657142D01*
X51128571Y-1600000D01*
X51185714Y-1571428D01*
X51300000Y-1571428D01*
X51357142Y-1600000D01*
X51414285Y-1657142D01*
X51442857Y-1771428D01*
X51442857Y-1971428D01*
X51414285Y-2085714D01*
X51357142Y-2142857D01*
X51300000Y-2171428D01*
X51185714Y-2171428D01*
X51671428Y-1628571D02*
X51700000Y-1600000D01*
X51757142Y-1571428D01*
X51900000Y-1571428D01*
X51957142Y-1600000D01*
X51985714Y-1628571D01*
X52014285Y-1685714D01*
X52014285Y-1742857D01*
X51985714Y-1828571D01*
X51642857Y-2171428D01*
X52014285Y-2171428D01*
X52385714Y-1571428D02*
X52442857Y-1571428D01*
X52500000Y-1600000D01*
X52528571Y-1628571D01*
X52557142Y-1685714D01*
X52585714Y-1800000D01*
X52585714Y-1942857D01*
X52557142Y-2057142D01*
X52528571Y-2114285D01*
X52500000Y-2142857D01*
X52442857Y-2171428D01*
X52385714Y-2171428D01*
X52328571Y-2142857D01*
X52300000Y-2114285D01*
X52271428Y-2057142D01*
X52242857Y-1942857D01*
X52242857Y-1800000D01*
X52271428Y-1685714D01*
X52300000Y-1628571D01*
X52328571Y-1600000D01*
X52385714Y-1571428D01*
X53128571Y-1571428D02*
X52842857Y-1571428D01*
X52814285Y-1857142D01*
X52842857Y-1828571D01*
X52900000Y-1800000D01*
X53042857Y-1800000D01*
X53100000Y-1828571D01*
X53128571Y-1857142D01*
X53157142Y-1914285D01*
X53157142Y-2057142D01*
X53128571Y-2114285D01*
X53100000Y-2142857D01*
X53042857Y-2171428D01*
X52900000Y-2171428D01*
X52842857Y-2142857D01*
X52814285Y-2114285D01*
X56471428Y-2428571D02*
X56414285Y-2400000D01*
X56357142Y-2342857D01*
X56271428Y-2257142D01*
X56214285Y-2228571D01*
X56157142Y-2228571D01*
X56185714Y-2371428D02*
X56128571Y-2342857D01*
X56071428Y-2285714D01*
X56042857Y-2171428D01*
X56042857Y-1971428D01*
X56071428Y-1857142D01*
X56128571Y-1800000D01*
X56185714Y-1771428D01*
X56300000Y-1771428D01*
X56357142Y-1800000D01*
X56414285Y-1857142D01*
X56442857Y-1971428D01*
X56442857Y-2171428D01*
X56414285Y-2285714D01*
X56357142Y-2342857D01*
X56300000Y-2371428D01*
X56185714Y-2371428D01*
X56671428Y-1828571D02*
X56700000Y-1800000D01*
X56757142Y-1771428D01*
X56900000Y-1771428D01*
X56957142Y-1800000D01*
X56985714Y-1828571D01*
X57014285Y-1885714D01*
X57014285Y-1942857D01*
X56985714Y-2028571D01*
X56642857Y-2371428D01*
X57014285Y-2371428D01*
X57385714Y-1771428D02*
X57442857Y-1771428D01*
X57500000Y-1800000D01*
X57528571Y-1828571D01*
X57557142Y-1885714D01*
X57585714Y-2000000D01*
X57585714Y-2142857D01*
X57557142Y-2257142D01*
X57528571Y-2314285D01*
X57500000Y-2342857D01*
X57442857Y-2371428D01*
X57385714Y-2371428D01*
X57328571Y-2342857D01*
X57300000Y-2314285D01*
X57271428Y-2257142D01*
X57242857Y-2142857D01*
X57242857Y-2000000D01*
X57271428Y-1885714D01*
X57300000Y-1828571D01*
X57328571Y-1800000D01*
X57385714Y-1771428D01*
X58100000Y-1971428D02*
X58100000Y-2371428D01*
X57957142Y-1742857D02*
X57814285Y-2171428D01*
X58185714Y-2171428D01*
X40671428Y-2228571D02*
X40614285Y-2200000D01*
X40557142Y-2142857D01*
X40471428Y-2057142D01*
X40414285Y-2028571D01*
X40357142Y-2028571D01*
X40385714Y-2171428D02*
X40328571Y-2142857D01*
X40271428Y-2085714D01*
X40242857Y-1971428D01*
X40242857Y-1771428D01*
X40271428Y-1657142D01*
X40328571Y-1600000D01*
X40385714Y-1571428D01*
X40500000Y-1571428D01*
X40557142Y-1600000D01*
X40614285Y-1657142D01*
X40642857Y-1771428D01*
X40642857Y-1971428D01*
X40614285Y-2085714D01*
X40557142Y-2142857D01*
X40500000Y-2171428D01*
X40385714Y-2171428D01*
X40871428Y-1628571D02*
X40900000Y-1600000D01*
X40957142Y-1571428D01*
X41100000Y-1571428D01*
X41157142Y-1600000D01*
X41185714Y-1628571D01*
X41214285Y-1685714D01*
X41214285Y-1742857D01*
X41185714Y-1828571D01*
X40842857Y-2171428D01*
X41214285Y-2171428D01*
X41585714Y-1571428D02*
X41642857Y-1571428D01*
X41700000Y-1600000D01*
X41728571Y-1628571D01*
X41757142Y-1685714D01*
X41785714Y-1800000D01*
X41785714Y-1942857D01*
X41757142Y-2057142D01*
X41728571Y-2114285D01*
X41700000Y-2142857D01*
X41642857Y-2171428D01*
X41585714Y-2171428D01*
X41528571Y-2142857D01*
X41500000Y-2114285D01*
X41471428Y-2057142D01*
X41442857Y-1942857D01*
X41442857Y-1800000D01*
X41471428Y-1685714D01*
X41500000Y-1628571D01*
X41528571Y-1600000D01*
X41585714Y-1571428D01*
X42014285Y-1628571D02*
X42042857Y-1600000D01*
X42100000Y-1571428D01*
X42242857Y-1571428D01*
X42300000Y-1600000D01*
X42328571Y-1628571D01*
X42357142Y-1685714D01*
X42357142Y-1742857D01*
X42328571Y-1828571D01*
X41985714Y-2171428D01*
X42357142Y-2171428D01*
X38771428Y-9628571D02*
X38714285Y-9600000D01*
X38657142Y-9542857D01*
X38571428Y-9457142D01*
X38514285Y-9428571D01*
X38457142Y-9428571D01*
X38485714Y-9571428D02*
X38428571Y-9542857D01*
X38371428Y-9485714D01*
X38342857Y-9371428D01*
X38342857Y-9171428D01*
X38371428Y-9057142D01*
X38428571Y-9000000D01*
X38485714Y-8971428D01*
X38600000Y-8971428D01*
X38657142Y-9000000D01*
X38714285Y-9057142D01*
X38742857Y-9171428D01*
X38742857Y-9371428D01*
X38714285Y-9485714D01*
X38657142Y-9542857D01*
X38600000Y-9571428D01*
X38485714Y-9571428D01*
X38971428Y-9028571D02*
X39000000Y-9000000D01*
X39057142Y-8971428D01*
X39200000Y-8971428D01*
X39257142Y-9000000D01*
X39285714Y-9028571D01*
X39314285Y-9085714D01*
X39314285Y-9142857D01*
X39285714Y-9228571D01*
X38942857Y-9571428D01*
X39314285Y-9571428D01*
X39685714Y-8971428D02*
X39742857Y-8971428D01*
X39800000Y-9000000D01*
X39828571Y-9028571D01*
X39857142Y-9085714D01*
X39885714Y-9200000D01*
X39885714Y-9342857D01*
X39857142Y-9457142D01*
X39828571Y-9514285D01*
X39800000Y-9542857D01*
X39742857Y-9571428D01*
X39685714Y-9571428D01*
X39628571Y-9542857D01*
X39600000Y-9514285D01*
X39571428Y-9457142D01*
X39542857Y-9342857D01*
X39542857Y-9200000D01*
X39571428Y-9085714D01*
X39600000Y-9028571D01*
X39628571Y-9000000D01*
X39685714Y-8971428D01*
X40457142Y-9571428D02*
X40114285Y-9571428D01*
X40285714Y-9571428D02*
X40285714Y-8971428D01*
X40228571Y-9057142D01*
X40171428Y-9114285D01*
X40114285Y-9142857D01*
X34671428Y-21528571D02*
X34614285Y-21500000D01*
X34557142Y-21442857D01*
X34471428Y-21357142D01*
X34414285Y-21328571D01*
X34357142Y-21328571D01*
X34385714Y-21471428D02*
X34328571Y-21442857D01*
X34271428Y-21385714D01*
X34242857Y-21271428D01*
X34242857Y-21071428D01*
X34271428Y-20957142D01*
X34328571Y-20900000D01*
X34385714Y-20871428D01*
X34500000Y-20871428D01*
X34557142Y-20900000D01*
X34614285Y-20957142D01*
X34642857Y-21071428D01*
X34642857Y-21271428D01*
X34614285Y-21385714D01*
X34557142Y-21442857D01*
X34500000Y-21471428D01*
X34385714Y-21471428D01*
X35185714Y-20871428D02*
X34900000Y-20871428D01*
X34871428Y-21157142D01*
X34900000Y-21128571D01*
X34957142Y-21100000D01*
X35100000Y-21100000D01*
X35157142Y-21128571D01*
X35185714Y-21157142D01*
X35214285Y-21214285D01*
X35214285Y-21357142D01*
X35185714Y-21414285D01*
X35157142Y-21442857D01*
X35100000Y-21471428D01*
X34957142Y-21471428D01*
X34900000Y-21442857D01*
X34871428Y-21414285D01*
X35585714Y-20871428D02*
X35642857Y-20871428D01*
X35700000Y-20900000D01*
X35728571Y-20928571D01*
X35757142Y-20985714D01*
X35785714Y-21100000D01*
X35785714Y-21242857D01*
X35757142Y-21357142D01*
X35728571Y-21414285D01*
X35700000Y-21442857D01*
X35642857Y-21471428D01*
X35585714Y-21471428D01*
X35528571Y-21442857D01*
X35500000Y-21414285D01*
X35471428Y-21357142D01*
X35442857Y-21242857D01*
X35442857Y-21100000D01*
X35471428Y-20985714D01*
X35500000Y-20928571D01*
X35528571Y-20900000D01*
X35585714Y-20871428D01*
X36014285Y-20928571D02*
X36042857Y-20900000D01*
X36100000Y-20871428D01*
X36242857Y-20871428D01*
X36300000Y-20900000D01*
X36328571Y-20928571D01*
X36357142Y-20985714D01*
X36357142Y-21042857D01*
X36328571Y-21128571D01*
X35985714Y-21471428D01*
X36357142Y-21471428D01*
X37928571Y-13528571D02*
X37900000Y-13585714D01*
X37842857Y-13642857D01*
X37757142Y-13728571D01*
X37728571Y-13785714D01*
X37728571Y-13842857D01*
X37871428Y-13814285D02*
X37842857Y-13871428D01*
X37785714Y-13928571D01*
X37671428Y-13957142D01*
X37471428Y-13957142D01*
X37357142Y-13928571D01*
X37300000Y-13871428D01*
X37271428Y-13814285D01*
X37271428Y-13700000D01*
X37300000Y-13642857D01*
X37357142Y-13585714D01*
X37471428Y-13557142D01*
X37671428Y-13557142D01*
X37785714Y-13585714D01*
X37842857Y-13642857D01*
X37871428Y-13700000D01*
X37871428Y-13814285D01*
X37271428Y-13014285D02*
X37271428Y-13300000D01*
X37557142Y-13328571D01*
X37528571Y-13300000D01*
X37500000Y-13242857D01*
X37500000Y-13100000D01*
X37528571Y-13042857D01*
X37557142Y-13014285D01*
X37614285Y-12985714D01*
X37757142Y-12985714D01*
X37814285Y-13014285D01*
X37842857Y-13042857D01*
X37871428Y-13100000D01*
X37871428Y-13242857D01*
X37842857Y-13300000D01*
X37814285Y-13328571D01*
X37271428Y-12614285D02*
X37271428Y-12557142D01*
X37300000Y-12500000D01*
X37328571Y-12471428D01*
X37385714Y-12442857D01*
X37500000Y-12414285D01*
X37642857Y-12414285D01*
X37757142Y-12442857D01*
X37814285Y-12471428D01*
X37842857Y-12500000D01*
X37871428Y-12557142D01*
X37871428Y-12614285D01*
X37842857Y-12671428D01*
X37814285Y-12700000D01*
X37757142Y-12728571D01*
X37642857Y-12757142D01*
X37500000Y-12757142D01*
X37385714Y-12728571D01*
X37328571Y-12700000D01*
X37300000Y-12671428D01*
X37271428Y-12614285D01*
X37871428Y-11842857D02*
X37871428Y-12185714D01*
X37871428Y-12014285D02*
X37271428Y-12014285D01*
X37357142Y-12071428D01*
X37414285Y-12128571D01*
X37442857Y-12185714D01*
X21028571Y-7014285D02*
X21000000Y-7042857D01*
X20914285Y-7071428D01*
X20857142Y-7071428D01*
X20771428Y-7042857D01*
X20714285Y-6985714D01*
X20685714Y-6928571D01*
X20657142Y-6814285D01*
X20657142Y-6728571D01*
X20685714Y-6614285D01*
X20714285Y-6557142D01*
X20771428Y-6500000D01*
X20857142Y-6471428D01*
X20914285Y-6471428D01*
X21000000Y-6500000D01*
X21028571Y-6528571D01*
X21571428Y-6471428D02*
X21285714Y-6471428D01*
X21257142Y-6757142D01*
X21285714Y-6728571D01*
X21342857Y-6700000D01*
X21485714Y-6700000D01*
X21542857Y-6728571D01*
X21571428Y-6757142D01*
X21600000Y-6814285D01*
X21600000Y-6957142D01*
X21571428Y-7014285D01*
X21542857Y-7042857D01*
X21485714Y-7071428D01*
X21342857Y-7071428D01*
X21285714Y-7042857D01*
X21257142Y-7014285D01*
X21971428Y-6471428D02*
X22028571Y-6471428D01*
X22085714Y-6500000D01*
X22114285Y-6528571D01*
X22142857Y-6585714D01*
X22171428Y-6700000D01*
X22171428Y-6842857D01*
X22142857Y-6957142D01*
X22114285Y-7014285D01*
X22085714Y-7042857D01*
X22028571Y-7071428D01*
X21971428Y-7071428D01*
X21914285Y-7042857D01*
X21885714Y-7014285D01*
X21857142Y-6957142D01*
X21828571Y-6842857D01*
X21828571Y-6700000D01*
X21857142Y-6585714D01*
X21885714Y-6528571D01*
X21914285Y-6500000D01*
X21971428Y-6471428D01*
X22371428Y-6471428D02*
X22742857Y-6471428D01*
X22542857Y-6700000D01*
X22628571Y-6700000D01*
X22685714Y-6728571D01*
X22714285Y-6757142D01*
X22742857Y-6814285D01*
X22742857Y-6957142D01*
X22714285Y-7014285D01*
X22685714Y-7042857D01*
X22628571Y-7071428D01*
X22457142Y-7071428D01*
X22400000Y-7042857D01*
X22371428Y-7014285D01*
X16428571Y-13814285D02*
X16400000Y-13842857D01*
X16314285Y-13871428D01*
X16257142Y-13871428D01*
X16171428Y-13842857D01*
X16114285Y-13785714D01*
X16085714Y-13728571D01*
X16057142Y-13614285D01*
X16057142Y-13528571D01*
X16085714Y-13414285D01*
X16114285Y-13357142D01*
X16171428Y-13300000D01*
X16257142Y-13271428D01*
X16314285Y-13271428D01*
X16400000Y-13300000D01*
X16428571Y-13328571D01*
X16971428Y-13271428D02*
X16685714Y-13271428D01*
X16657142Y-13557142D01*
X16685714Y-13528571D01*
X16742857Y-13500000D01*
X16885714Y-13500000D01*
X16942857Y-13528571D01*
X16971428Y-13557142D01*
X17000000Y-13614285D01*
X17000000Y-13757142D01*
X16971428Y-13814285D01*
X16942857Y-13842857D01*
X16885714Y-13871428D01*
X16742857Y-13871428D01*
X16685714Y-13842857D01*
X16657142Y-13814285D01*
X17371428Y-13271428D02*
X17428571Y-13271428D01*
X17485714Y-13300000D01*
X17514285Y-13328571D01*
X17542857Y-13385714D01*
X17571428Y-13500000D01*
X17571428Y-13642857D01*
X17542857Y-13757142D01*
X17514285Y-13814285D01*
X17485714Y-13842857D01*
X17428571Y-13871428D01*
X17371428Y-13871428D01*
X17314285Y-13842857D01*
X17285714Y-13814285D01*
X17257142Y-13757142D01*
X17228571Y-13642857D01*
X17228571Y-13500000D01*
X17257142Y-13385714D01*
X17285714Y-13328571D01*
X17314285Y-13300000D01*
X17371428Y-13271428D01*
X18085714Y-13471428D02*
X18085714Y-13871428D01*
X17942857Y-13242857D02*
X17800000Y-13671428D01*
X18171428Y-13671428D01*
X16128571Y-9071428D02*
X15928571Y-8785714D01*
X15785714Y-9071428D02*
X15785714Y-8471428D01*
X16014285Y-8471428D01*
X16071428Y-8500000D01*
X16100000Y-8528571D01*
X16128571Y-8585714D01*
X16128571Y-8671428D01*
X16100000Y-8728571D01*
X16071428Y-8757142D01*
X16014285Y-8785714D01*
X15785714Y-8785714D01*
X16671428Y-8471428D02*
X16385714Y-8471428D01*
X16357142Y-8757142D01*
X16385714Y-8728571D01*
X16442857Y-8700000D01*
X16585714Y-8700000D01*
X16642857Y-8728571D01*
X16671428Y-8757142D01*
X16700000Y-8814285D01*
X16700000Y-8957142D01*
X16671428Y-9014285D01*
X16642857Y-9042857D01*
X16585714Y-9071428D01*
X16442857Y-9071428D01*
X16385714Y-9042857D01*
X16357142Y-9014285D01*
X17071428Y-8471428D02*
X17128571Y-8471428D01*
X17185714Y-8500000D01*
X17214285Y-8528571D01*
X17242857Y-8585714D01*
X17271428Y-8700000D01*
X17271428Y-8842857D01*
X17242857Y-8957142D01*
X17214285Y-9014285D01*
X17185714Y-9042857D01*
X17128571Y-9071428D01*
X17071428Y-9071428D01*
X17014285Y-9042857D01*
X16985714Y-9014285D01*
X16957142Y-8957142D01*
X16928571Y-8842857D01*
X16928571Y-8700000D01*
X16957142Y-8585714D01*
X16985714Y-8528571D01*
X17014285Y-8500000D01*
X17071428Y-8471428D01*
X17785714Y-8471428D02*
X17671428Y-8471428D01*
X17614285Y-8500000D01*
X17585714Y-8528571D01*
X17528571Y-8614285D01*
X17500000Y-8728571D01*
X17500000Y-8957142D01*
X17528571Y-9014285D01*
X17557142Y-9042857D01*
X17614285Y-9071428D01*
X17728571Y-9071428D01*
X17785714Y-9042857D01*
X17814285Y-9014285D01*
X17842857Y-8957142D01*
X17842857Y-8814285D01*
X17814285Y-8757142D01*
X17785714Y-8728571D01*
X17728571Y-8700000D01*
X17614285Y-8700000D01*
X17557142Y-8728571D01*
X17528571Y-8757142D01*
X17500000Y-8814285D01*
D13*
X49385714Y-9471428D02*
X49385714Y-8871428D01*
X49528571Y-8871428D01*
X49614285Y-8900000D01*
X49671428Y-8957142D01*
X49700000Y-9014285D01*
X49728571Y-9128571D01*
X49728571Y-9214285D01*
X49700000Y-9328571D01*
X49671428Y-9385714D01*
X49614285Y-9442857D01*
X49528571Y-9471428D01*
X49385714Y-9471428D01*
X49957142Y-8928571D02*
X49985714Y-8900000D01*
X50042857Y-8871428D01*
X50185714Y-8871428D01*
X50242857Y-8900000D01*
X50271428Y-8928571D01*
X50300000Y-8985714D01*
X50300000Y-9042857D01*
X50271428Y-9128571D01*
X49928571Y-9471428D01*
X50300000Y-9471428D01*
X50671428Y-8871428D02*
X50728571Y-8871428D01*
X50785714Y-8900000D01*
X50814285Y-8928571D01*
X50842857Y-8985714D01*
X50871428Y-9100000D01*
X50871428Y-9242857D01*
X50842857Y-9357142D01*
X50814285Y-9414285D01*
X50785714Y-9442857D01*
X50728571Y-9471428D01*
X50671428Y-9471428D01*
X50614285Y-9442857D01*
X50585714Y-9414285D01*
X50557142Y-9357142D01*
X50528571Y-9242857D01*
X50528571Y-9100000D01*
X50557142Y-8985714D01*
X50585714Y-8928571D01*
X50614285Y-8900000D01*
X50671428Y-8871428D01*
X51442857Y-9471428D02*
X51100000Y-9471428D01*
X51271428Y-9471428D02*
X51271428Y-8871428D01*
X51214285Y-8957142D01*
X51157142Y-9014285D01*
X51100000Y-9042857D01*
X46585714Y-16871428D02*
X46585714Y-16271428D01*
X46728571Y-16271428D01*
X46814285Y-16300000D01*
X46871428Y-16357142D01*
X46900000Y-16414285D01*
X46928571Y-16528571D01*
X46928571Y-16614285D01*
X46900000Y-16728571D01*
X46871428Y-16785714D01*
X46814285Y-16842857D01*
X46728571Y-16871428D01*
X46585714Y-16871428D01*
X47157142Y-16328571D02*
X47185714Y-16300000D01*
X47242857Y-16271428D01*
X47385714Y-16271428D01*
X47442857Y-16300000D01*
X47471428Y-16328571D01*
X47500000Y-16385714D01*
X47500000Y-16442857D01*
X47471428Y-16528571D01*
X47128571Y-16871428D01*
X47500000Y-16871428D01*
X47871428Y-16271428D02*
X47928571Y-16271428D01*
X47985714Y-16300000D01*
X48014285Y-16328571D01*
X48042857Y-16385714D01*
X48071428Y-16500000D01*
X48071428Y-16642857D01*
X48042857Y-16757142D01*
X48014285Y-16814285D01*
X47985714Y-16842857D01*
X47928571Y-16871428D01*
X47871428Y-16871428D01*
X47814285Y-16842857D01*
X47785714Y-16814285D01*
X47757142Y-16757142D01*
X47728571Y-16642857D01*
X47728571Y-16500000D01*
X47757142Y-16385714D01*
X47785714Y-16328571D01*
X47814285Y-16300000D01*
X47871428Y-16271428D01*
X48271428Y-16271428D02*
X48642857Y-16271428D01*
X48442857Y-16500000D01*
X48528571Y-16500000D01*
X48585714Y-16528571D01*
X48614285Y-16557142D01*
X48642857Y-16614285D01*
X48642857Y-16757142D01*
X48614285Y-16814285D01*
X48585714Y-16842857D01*
X48528571Y-16871428D01*
X48357142Y-16871428D01*
X48300000Y-16842857D01*
X48271428Y-16814285D01*
X64009523Y-14252380D02*
X64009523Y-13252380D01*
X64247619Y-13252380D01*
X64390476Y-13300000D01*
X64485714Y-13395238D01*
X64533333Y-13490476D01*
X64580952Y-13680952D01*
X64580952Y-13823809D01*
X64533333Y-14014285D01*
X64485714Y-14109523D01*
X64390476Y-14204761D01*
X64247619Y-14252380D01*
X64009523Y-14252380D01*
X64961904Y-13347619D02*
X65009523Y-13300000D01*
X65104761Y-13252380D01*
X65342857Y-13252380D01*
X65438095Y-13300000D01*
X65485714Y-13347619D01*
X65533333Y-13442857D01*
X65533333Y-13538095D01*
X65485714Y-13680952D01*
X64914285Y-14252380D01*
X65533333Y-14252380D01*
X66152380Y-13252380D02*
X66247619Y-13252380D01*
X66342857Y-13300000D01*
X66390476Y-13347619D01*
X66438095Y-13442857D01*
X66485714Y-13633333D01*
X66485714Y-13871428D01*
X66438095Y-14061904D01*
X66390476Y-14157142D01*
X66342857Y-14204761D01*
X66247619Y-14252380D01*
X66152380Y-14252380D01*
X66057142Y-14204761D01*
X66009523Y-14157142D01*
X65961904Y-14061904D01*
X65914285Y-13871428D01*
X65914285Y-13633333D01*
X65961904Y-13442857D01*
X66009523Y-13347619D01*
X66057142Y-13300000D01*
X66152380Y-13252380D01*
X67342857Y-13585714D02*
X67342857Y-14252380D01*
X67104761Y-13204761D02*
X66866666Y-13919047D01*
X67485714Y-13919047D01*
X64617142Y-16769047D02*
X64664761Y-16816666D01*
X64712380Y-16959523D01*
X64712380Y-17054761D01*
X64664761Y-17197619D01*
X64569523Y-17292857D01*
X64474285Y-17340476D01*
X64283809Y-17388095D01*
X64140952Y-17388095D01*
X63950476Y-17340476D01*
X63855238Y-17292857D01*
X63760000Y-17197619D01*
X63712380Y-17054761D01*
X63712380Y-16959523D01*
X63760000Y-16816666D01*
X63807619Y-16769047D01*
X63807619Y-16388095D02*
X63760000Y-16340476D01*
X63712380Y-16245238D01*
X63712380Y-16007142D01*
X63760000Y-15911904D01*
X63807619Y-15864285D01*
X63902857Y-15816666D01*
X63998095Y-15816666D01*
X64140952Y-15864285D01*
X64712380Y-16435714D01*
X64712380Y-15816666D01*
X63712380Y-15197619D02*
X63712380Y-15102380D01*
X63760000Y-15007142D01*
X63807619Y-14959523D01*
X63902857Y-14911904D01*
X64093333Y-14864285D01*
X64331428Y-14864285D01*
X64521904Y-14911904D01*
X64617142Y-14959523D01*
X64664761Y-15007142D01*
X64712380Y-15102380D01*
X64712380Y-15197619D01*
X64664761Y-15292857D01*
X64617142Y-15340476D01*
X64521904Y-15388095D01*
X64331428Y-15435714D01*
X64093333Y-15435714D01*
X63902857Y-15388095D01*
X63807619Y-15340476D01*
X63760000Y-15292857D01*
X63712380Y-15197619D01*
X64045714Y-14007142D02*
X64712380Y-14007142D01*
X63664761Y-14245238D02*
X64379047Y-14483333D01*
X64379047Y-13864285D01*
X76517142Y-10669047D02*
X76564761Y-10716666D01*
X76612380Y-10859523D01*
X76612380Y-10954761D01*
X76564761Y-11097619D01*
X76469523Y-11192857D01*
X76374285Y-11240476D01*
X76183809Y-11288095D01*
X76040952Y-11288095D01*
X75850476Y-11240476D01*
X75755238Y-11192857D01*
X75660000Y-11097619D01*
X75612380Y-10954761D01*
X75612380Y-10859523D01*
X75660000Y-10716666D01*
X75707619Y-10669047D01*
X75707619Y-10288095D02*
X75660000Y-10240476D01*
X75612380Y-10145238D01*
X75612380Y-9907142D01*
X75660000Y-9811904D01*
X75707619Y-9764285D01*
X75802857Y-9716666D01*
X75898095Y-9716666D01*
X76040952Y-9764285D01*
X76612380Y-10335714D01*
X76612380Y-9716666D01*
X75612380Y-9097619D02*
X75612380Y-9002380D01*
X75660000Y-8907142D01*
X75707619Y-8859523D01*
X75802857Y-8811904D01*
X75993333Y-8764285D01*
X76231428Y-8764285D01*
X76421904Y-8811904D01*
X76517142Y-8859523D01*
X76564761Y-8907142D01*
X76612380Y-9002380D01*
X76612380Y-9097619D01*
X76564761Y-9192857D01*
X76517142Y-9240476D01*
X76421904Y-9288095D01*
X76231428Y-9335714D01*
X75993333Y-9335714D01*
X75802857Y-9288095D01*
X75707619Y-9240476D01*
X75660000Y-9192857D01*
X75612380Y-9097619D01*
X75612380Y-7859523D02*
X75612380Y-8335714D01*
X76088571Y-8383333D01*
X76040952Y-8335714D01*
X75993333Y-8240476D01*
X75993333Y-8002380D01*
X76040952Y-7907142D01*
X76088571Y-7859523D01*
X76183809Y-7811904D01*
X76421904Y-7811904D01*
X76517142Y-7859523D01*
X76564761Y-7907142D01*
X76612380Y-8002380D01*
X76612380Y-8240476D01*
X76564761Y-8335714D01*
X76517142Y-8383333D01*
X51528571Y-6771428D02*
X51328571Y-6485714D01*
X51185714Y-6771428D02*
X51185714Y-6171428D01*
X51414285Y-6171428D01*
X51471428Y-6200000D01*
X51500000Y-6228571D01*
X51528571Y-6285714D01*
X51528571Y-6371428D01*
X51500000Y-6428571D01*
X51471428Y-6457142D01*
X51414285Y-6485714D01*
X51185714Y-6485714D01*
X51757142Y-6228571D02*
X51785714Y-6200000D01*
X51842857Y-6171428D01*
X51985714Y-6171428D01*
X52042857Y-6200000D01*
X52071428Y-6228571D01*
X52100000Y-6285714D01*
X52100000Y-6342857D01*
X52071428Y-6428571D01*
X51728571Y-6771428D01*
X52100000Y-6771428D01*
X52671428Y-6771428D02*
X52328571Y-6771428D01*
X52500000Y-6771428D02*
X52500000Y-6171428D01*
X52442857Y-6257142D01*
X52385714Y-6314285D01*
X52328571Y-6342857D01*
X53242857Y-6771428D02*
X52900000Y-6771428D01*
X53071428Y-6771428D02*
X53071428Y-6171428D01*
X53014285Y-6257142D01*
X52957142Y-6314285D01*
X52900000Y-6342857D01*
D17*
X13271428Y-12675892D02*
X12671428Y-12675892D01*
X13100000Y-12475892D01*
X12671428Y-12275892D01*
X13271428Y-12275892D01*
X12871428Y-11733035D02*
X13271428Y-11733035D01*
X12642857Y-11875892D02*
X13071428Y-12018750D01*
X13071428Y-11647321D01*
X12671428Y-11304464D02*
X12671428Y-11247321D01*
X12700000Y-11190178D01*
X12728571Y-11161607D01*
X12785714Y-11133035D01*
X12900000Y-11104464D01*
X13042857Y-11104464D01*
X13157142Y-11133035D01*
X13214285Y-11161607D01*
X13242857Y-11190178D01*
X13271428Y-11247321D01*
X13271428Y-11304464D01*
X13242857Y-11361607D01*
X13214285Y-11390178D01*
X13157142Y-11418750D01*
X13042857Y-11447321D01*
X12900000Y-11447321D01*
X12785714Y-11418750D01*
X12728571Y-11390178D01*
X12700000Y-11361607D01*
X12671428Y-11304464D01*
X13271428Y-10533035D02*
X13271428Y-10875892D01*
X13271428Y-10704464D02*
X12671428Y-10704464D01*
X12757142Y-10761607D01*
X12814285Y-10818750D01*
X12842857Y-10875892D01*
%LPC*%
D18*
X42600000Y-20700000D03*
X42600000Y-18700000D03*
D19*
X55600000Y-15100000D03*
X55600000Y-13300000D03*
D20*
X65625000Y-12200000D03*
D21*
X64850000Y-12200000D03*
D22*
G36*
X65425000Y-13573703D02*
X64275000Y-12807037D01*
X64275000Y-11592963D01*
X65425000Y-10826297D01*
X65425000Y-13573703D01*
X65425000Y-13573703D01*
G37*
D23*
X67475000Y-12200000D03*
D24*
X63775000Y-13700000D03*
D23*
X63775000Y-12200000D03*
D24*
X63775000Y-10700000D03*
X67475000Y-13700000D03*
X67475000Y-10700000D03*
D21*
X66400000Y-12200000D03*
D22*
G36*
X65825000Y-10826297D02*
X66975000Y-11592963D01*
X66975000Y-12807037D01*
X65825000Y-13573703D01*
X65825000Y-10826297D01*
X65825000Y-10826297D01*
G37*
D25*
X59000000Y-10000000D03*
X57000000Y-11000000D03*
X57000000Y-9000000D03*
D19*
X55700000Y-16700000D03*
X55700000Y-18500000D03*
D26*
X53200000Y-12950000D03*
X53200000Y-16250000D03*
D27*
X19800000Y-18600000D03*
X21800000Y-18600000D03*
X19800000Y-16400000D03*
X21800000Y-16400000D03*
D28*
X26000000Y-14600000D03*
D29*
X28000000Y-13350000D03*
X28000000Y-13850000D03*
X28000000Y-14350000D03*
X28000000Y-14850000D03*
X28000000Y-15350000D03*
X28000000Y-15850000D03*
D30*
X27250000Y-16600000D03*
X26750000Y-16600000D03*
X26250000Y-16600000D03*
X25750000Y-16600000D03*
X25250000Y-16600000D03*
X24750000Y-16600000D03*
D29*
X24000000Y-15850000D03*
X24000000Y-15350000D03*
X24000000Y-14850000D03*
X24000000Y-14350000D03*
X24000000Y-13850000D03*
X24000000Y-13350000D03*
D30*
X24750000Y-12600000D03*
X25250000Y-12600000D03*
X25750000Y-12600000D03*
X26250000Y-12600000D03*
X26750000Y-12600000D03*
X27250000Y-12600000D03*
D31*
X57025000Y-29600000D03*
X57025000Y-35200000D03*
X57675000Y-29600000D03*
X57675000Y-35200000D03*
X58325000Y-29600000D03*
X58325000Y-35200000D03*
X58975000Y-29600000D03*
X58975000Y-35200000D03*
X59625000Y-29600000D03*
X59625000Y-35200000D03*
X60275000Y-29600000D03*
X60275000Y-35200000D03*
X60925000Y-29600000D03*
X60925000Y-35200000D03*
X61575000Y-29600000D03*
X61575000Y-35200000D03*
D32*
X39800000Y-34700000D03*
D33*
X48500000Y-42400000D03*
X48500000Y-41130000D03*
X48500000Y-39860000D03*
X48500000Y-38590000D03*
X48500000Y-37320000D03*
X48500000Y-36050000D03*
X48500000Y-34780000D03*
X48500000Y-33510000D03*
X48500000Y-32240000D03*
X48500000Y-30970000D03*
X48500000Y-29700000D03*
X48500000Y-28430000D03*
X48500000Y-27160000D03*
X48500000Y-25890000D03*
D34*
X45215000Y-24400000D03*
X43945000Y-24400000D03*
X42675000Y-24400000D03*
X41405000Y-24400000D03*
X40135000Y-24400000D03*
X38865000Y-24400000D03*
X37595000Y-24400000D03*
X36325000Y-24400000D03*
X35055000Y-24400000D03*
X33785000Y-24400000D03*
D33*
X30500000Y-25890000D03*
X30500000Y-27160000D03*
X30500000Y-28430000D03*
X30500000Y-29700000D03*
X30500000Y-30970000D03*
X30500000Y-32240000D03*
X30500000Y-33510000D03*
X30500000Y-34780000D03*
X30500000Y-36050000D03*
X30500000Y-37320000D03*
X30500000Y-38590000D03*
X30500000Y-39860000D03*
X30500000Y-41130000D03*
X30500000Y-42400000D03*
D23*
X26300000Y-35400000D03*
X26300000Y-33400000D03*
D27*
X8000000Y-5700000D03*
X6000000Y-5700000D03*
D35*
X12500000Y-5000000D03*
D36*
X63075000Y-37650000D03*
X62425000Y-37650000D03*
X61775000Y-37650000D03*
X61125000Y-37650000D03*
X61125000Y-40150000D03*
X61775000Y-40150000D03*
X62425000Y-40150000D03*
X63075000Y-40150000D03*
D37*
X30700000Y-21400000D03*
D19*
X50700000Y-30800000D03*
X50700000Y-29000000D03*
D35*
X62500000Y-45000000D03*
D38*
X19000000Y-49100000D03*
X17200000Y-49100000D03*
D25*
X19200000Y-46600000D03*
X17200000Y-47600000D03*
X17200000Y-45600000D03*
D35*
X12500000Y-45000000D03*
D39*
X30550000Y-8600000D03*
X34649999Y-8600000D03*
X34649999Y-7000000D03*
X30550000Y-7000000D03*
X34650000Y-10200000D03*
X30550001Y-10200000D03*
X30550001Y-11800000D03*
X34650000Y-11800000D03*
D37*
X27900000Y-20600000D03*
D40*
X25050000Y-9250000D03*
X25050000Y-7950000D03*
X26950000Y-8600000D03*
X26950000Y-7950000D03*
X26950000Y-9250000D03*
X25050000Y-8600000D03*
D41*
X24900000Y-1600000D03*
D42*
X22300000Y-1600000D03*
X29800000Y-1600000D03*
D41*
X27200000Y-1600000D03*
D43*
X24750000Y-4750000D03*
X25400000Y-4750000D03*
X26050000Y-4750000D03*
X26700000Y-4750000D03*
X27350000Y-4750000D03*
D44*
X40400000Y-15840000D03*
X40400000Y-10960000D03*
D18*
X46700000Y-20700000D03*
X46700000Y-18700000D03*
D45*
X49400000Y-3000000D03*
X49400000Y-4900000D03*
X46600000Y-4900000D03*
X46600000Y-3950000D03*
X46600000Y-3000000D03*
D39*
X55050000Y-10000000D03*
X50950001Y-10000000D03*
X50950001Y-11600000D03*
X55050000Y-11600000D03*
D46*
X1500000Y-40500000D03*
X1500000Y-39000000D03*
X1500000Y-37500000D03*
X1500000Y-36000000D03*
X1500000Y-34500000D03*
X1500000Y-33000000D03*
X1500000Y-31500000D03*
X1500000Y-30000000D03*
X1500000Y-28500000D03*
X1500000Y-27000000D03*
X17500000Y-27000000D03*
X17500000Y-28500000D03*
X17500000Y-30000000D03*
X17500000Y-31500000D03*
X17500000Y-33000000D03*
X17500000Y-34500000D03*
X17500000Y-36000000D03*
X17500000Y-37500000D03*
X17500000Y-39000000D03*
X17500000Y-40500000D03*
X17500000Y-40500000D03*
X17500000Y-39000000D03*
X17500000Y-37500000D03*
X17500000Y-36000000D03*
X17500000Y-34500000D03*
X17500000Y-33000000D03*
X17500000Y-31500000D03*
X17500000Y-30000000D03*
X17500000Y-28500000D03*
X17500000Y-27000000D03*
D35*
X62500000Y-5000000D03*
D23*
X17500000Y-44100000D03*
X17500000Y-42100000D03*
X46800000Y-8800000D03*
X46800000Y-6800000D03*
X47200000Y-10800000D03*
X47200000Y-12800000D03*
X44400000Y-11800000D03*
X44400000Y-9800000D03*
X53400000Y-41600000D03*
X53400000Y-39600000D03*
X19800000Y-44100000D03*
X19800000Y-42100000D03*
D27*
X8000000Y-7800000D03*
X6000000Y-7800000D03*
X21600000Y-36000000D03*
X19600000Y-36000000D03*
D23*
X19800000Y-38500000D03*
X19800000Y-40500000D03*
X65100000Y-39900000D03*
X65100000Y-37900000D03*
X51400000Y-41600000D03*
X51400000Y-39600000D03*
D27*
X35100000Y-5000000D03*
X33100000Y-5000000D03*
X20800000Y-10400000D03*
X22800000Y-10400000D03*
X19800000Y-12400000D03*
X21800000Y-12400000D03*
X57300000Y-41400000D03*
X55300000Y-41400000D03*
D23*
X58300000Y-24700000D03*
X58300000Y-22700000D03*
X62300000Y-24700000D03*
X62300000Y-22700000D03*
X60300000Y-24700000D03*
X60300000Y-22700000D03*
X56300000Y-24700000D03*
X56300000Y-22700000D03*
X44400000Y-4800000D03*
X44400000Y-2800000D03*
D27*
X21600000Y-32400000D03*
X19600000Y-32400000D03*
D19*
X19500000Y-1000000D03*
X19500000Y-2800000D03*
D38*
X19500000Y-34200000D03*
X21300000Y-34200000D03*
X19300000Y-27000000D03*
X21100000Y-27000000D03*
X19300000Y-28500000D03*
X21100000Y-28500000D03*
X53550000Y-1600000D03*
X55350000Y-1600000D03*
D19*
X49200000Y-12500000D03*
X49200000Y-10700000D03*
X44400000Y-6500000D03*
X44400000Y-8300000D03*
X38200000Y-5100000D03*
X38200000Y-3300000D03*
X38200000Y-6500000D03*
X38200000Y-8300000D03*
X56300000Y-26100000D03*
X56300000Y-27900000D03*
X60300000Y-26100000D03*
X60300000Y-27900000D03*
X62300000Y-26100000D03*
X62300000Y-27900000D03*
X58300000Y-26100000D03*
X58300000Y-27900000D03*
D38*
X57200000Y-39500000D03*
X55400000Y-39500000D03*
D19*
X26400000Y-36600000D03*
X26400000Y-38400000D03*
X64500000Y-36000000D03*
X64500000Y-34200000D03*
D38*
X27900000Y-39800000D03*
X26100000Y-39800000D03*
X33400000Y-3100000D03*
X35200000Y-3100000D03*
D19*
X49200000Y-8700000D03*
X49200000Y-6900000D03*
D38*
X49100000Y-1400000D03*
X47300000Y-1400000D03*
D19*
X51200000Y-15300000D03*
X51200000Y-13500000D03*
X18400000Y-16400000D03*
X18400000Y-14600000D03*
D38*
X28300000Y-18400000D03*
X26500000Y-18400000D03*
X23300000Y-18400000D03*
X25100000Y-18400000D03*
X32300000Y-15200000D03*
X30500000Y-15200000D03*
X30500000Y-17800000D03*
X32300000Y-17800000D03*
D47*
X17000000Y-3000000D03*
X16000000Y-1000000D03*
X18000000Y-1000000D03*
D25*
X53600000Y-4200000D03*
X51600000Y-5200000D03*
X51600000Y-3200000D03*
X57800000Y-4200000D03*
X55800000Y-5200000D03*
X55800000Y-3200000D03*
X40200000Y-4000000D03*
X42200000Y-3000000D03*
X42200000Y-5000000D03*
X40200000Y-8150000D03*
X42200000Y-7150000D03*
X42200000Y-9150000D03*
X36200000Y-18550000D03*
X34200000Y-19550000D03*
X34200000Y-17550000D03*
X36200000Y-14400000D03*
X34200000Y-15400000D03*
X34200000Y-13400000D03*
D27*
X20700000Y-8300000D03*
X22700000Y-8300000D03*
X19800000Y-14400000D03*
X21800000Y-14400000D03*
D19*
X18600000Y-9100000D03*
X18600000Y-10900000D03*
D48*
X51650000Y-8200000D03*
X54950000Y-8200000D03*
X49050000Y-14800000D03*
X45750000Y-14800000D03*
X67350000Y-15800000D03*
X64050000Y-15800000D03*
D49*
X59800000Y-14400000D03*
D50*
X59800000Y-16900000D03*
D49*
X71700000Y-8300000D03*
D50*
X71700000Y-10800000D03*
D38*
X53800000Y-6400000D03*
X55600000Y-6400000D03*
D51*
X3700000Y-9600000D03*
X2800000Y-22800000D03*
D52*
X16800000Y-11200000D03*
X16800000Y-17200000D03*
D24*
X6600000Y-10500000D03*
X6600000Y-11600000D03*
X6200000Y-12700000D03*
X6600000Y-13800000D03*
X6200000Y-14900000D03*
X6600000Y-16000000D03*
X7000000Y-17100000D03*
X6600000Y-18200000D03*
M02*
