M48
;DRILL file {KiCad (5.0.0-rc2-dev-70-g2da7199a3)} date 03/19/18 21:57:56
;FORMAT={-:-/ absolute / metric / decimal}
FMAT,2
METRIC,TZ
T1C0.400
T2C0.600
T3C0.700
T4C0.800
%
G90
G05
M71
T1
X1.3Y-30.7
X1.4Y-22.8
X2.5Y-12.9
X3.1Y-24.
X3.3Y-28.1
X3.536Y-29.225
X4.7Y-15.3
X5.1Y-39.8
X5.775Y-18.
X5.8Y-20.3
X7.2Y-25.9
X8.7Y-15.3
X11.6Y-23.1
X11.8Y-24.65
X11.944Y-29.3
X12.Y-40.
X12.6Y-14.
X15.919Y-30.244
X16.1Y-22.9
X17.Y-34.5
X17.055Y-31.1
X17.6Y-12.9
X18.1Y-24.
X18.2Y-26.9
X18.5Y-29.225
X19.5Y-15.3
X20.575Y-18.
X20.6Y-20.3
X21.533Y-25.832
X23.5Y-15.3
X26.1Y-24.513
X26.292Y-23.339
X27.4Y-14.1
X30.766Y-19.966
X30.9Y-12.5
X32.5Y-21.823
X32.5Y-24.1
X32.8Y-13.6
X32.9Y-17.
X32.976Y-2.875
X33.1Y-15.5
X33.236Y-18.825
X34.4Y-4.9
X35.475Y-7.6
X35.5Y-9.9
X35.8Y-30.5
X35.8Y-27.1
X35.817Y-39.818
X35.9Y-35.5
X38.4Y-4.9
X41.357Y-12.627
X41.6Y-14.25
X42.3Y-3.7
X45.9Y-12.4
X46.445Y-21.812
X47.3Y-4.5
X47.37Y-23.59
X47.9Y-13.6
X48.064Y-22.45
X48.152Y-17.511
X48.2Y-16.
X48.336Y-18.825
X49.5Y-4.9
X49.5Y-29.4
X50.575Y-7.6
X50.6Y-9.9
X53.5Y-4.9
X54.3Y-3.7
X56.291Y-12.7
X56.568Y-14.357
X61.2Y-9.4
X63.2Y-10.875
X63.353Y-11.863
X65.382Y-9.376
X67.4Y-12.2
X67.6Y-9.9
X67.6Y-11.
T2
X2.2Y-32.2
X2.2Y-34.5
X12.8Y-32.
X23.6Y-38.3
X23.6Y-40.8
X25.2Y-30.1
X26.1Y-40.3
X26.2Y-37.3
X26.802Y-32.432
X27.5Y-35.7
X28.2Y-42.
X28.7Y-27.3
X29.805Y-35.4
X31.1Y-42.9
X34.7Y-38.8
X39.6Y-33.3
X39.655Y-31.872
X40.8Y-24.8
X41.4Y-36.
X41.513Y-19.32
X41.7Y-21.2
X42.26Y-18.381
X42.6Y-25.6
X43.3Y-33.4
X43.7Y-21.4
X43.7Y-31.9
X44.19Y-18.873
X44.7Y-36.9
X44.991Y-34.262
X45.Y-16.8
X45.442Y-20.225
X46.6Y-38.5
X46.636Y-32.336
X48.7Y-30.6
X55.089Y-19.961
X57.211Y-35.927
X57.611Y-18.338
X63.2Y-29.2
T3
X58.06Y-22.365
X58.06Y-23.635
X59.33Y-22.365
X59.33Y-23.635
X60.6Y-22.365
X60.6Y-23.635
X61.87Y-22.365
X61.87Y-23.635
X63.14Y-22.365
X63.14Y-23.635
T4
X39.3Y-37.8
X39.3Y-40.3
X22.Y-38.3
X22.Y-40.8
T0
M30
