G04 #@! TF.GenerationSoftware,KiCad,Pcbnew,(5.0.0-rc2-dev-70-g2da7199a3)*
G04 #@! TF.CreationDate,2018-03-19T21:57:51-04:00*
G04 #@! TF.ProjectId,analog,616E616C6F672E6B696361645F706362,rev?*
G04 #@! TF.SameCoordinates,Original*
G04 #@! TF.FileFunction,Copper,L3,Inr,Signal*
G04 #@! TF.FilePolarity,Positive*
%FSLAX46Y46*%
G04 Gerber Fmt 4.6, Leading zero omitted, Abs format (unit mm)*
G04 Created by KiCad (PCBNEW (5.0.0-rc2-dev-70-g2da7199a3)) date 03/19/18 21:57:51*
%MOMM*%
%LPD*%
G01*
G04 APERTURE LIST*
%ADD10R,1.600000X1.600000*%
%ADD11C,1.600000*%
%ADD12C,1.100000*%
%ADD13C,1.000000*%
%ADD14C,0.800000*%
%ADD15C,0.254000*%
G04 APERTURE END LIST*
D10*
X39300000Y-37800000D03*
D11*
X39300000Y-40300000D03*
X22000000Y-40800000D03*
D10*
X22000000Y-38300000D03*
D12*
X63140000Y-22365000D03*
X63140000Y-23635000D03*
X61870000Y-22365000D03*
X61870000Y-23635000D03*
X60600000Y-22365000D03*
X60600000Y-23635000D03*
X59330000Y-22365000D03*
X59330000Y-23635000D03*
X58060000Y-22365000D03*
X58060000Y-23635000D03*
D13*
X57210960Y-35926813D03*
D14*
X33100000Y-15500000D03*
X48200000Y-16000000D03*
X21532902Y-25831664D03*
X7200000Y-25900000D03*
D13*
X23600000Y-38300000D03*
X48063598Y-22449988D03*
X44990821Y-34261681D03*
X32500012Y-21823062D03*
X46636404Y-32336404D03*
X26200000Y-37300000D03*
X27500000Y-35700000D03*
D14*
X18100000Y-24000000D03*
D13*
X17054502Y-31099990D03*
D14*
X63200000Y-10875010D03*
D13*
X23600000Y-40800000D03*
D14*
X46444791Y-21812280D03*
D13*
X40800000Y-24800000D03*
X42600000Y-25599998D03*
X28700000Y-27300000D03*
X28200000Y-41999990D03*
D14*
X26292286Y-23339100D03*
X30765692Y-19965694D03*
X26099990Y-24513154D03*
D13*
X29805407Y-35400032D03*
X32500012Y-24100000D03*
X47369783Y-23590043D03*
D14*
X15919279Y-30244179D03*
D13*
X26100000Y-40300000D03*
X34700000Y-38800000D03*
X44700000Y-36900000D03*
X46600000Y-38500000D03*
D14*
X1300000Y-30700000D03*
X67600000Y-11000000D03*
X65381634Y-9376387D03*
X12000000Y-40000000D03*
X30900000Y-12499998D03*
X56290908Y-12699992D03*
X56567761Y-14356636D03*
X41356700Y-12627066D03*
X41600000Y-14250012D03*
X45900000Y-12400000D03*
X16100000Y-22899986D03*
X1400000Y-22800000D03*
X49500000Y-29400000D03*
X35817119Y-39817858D03*
X35900000Y-35500000D03*
X35800004Y-27100000D03*
X35800000Y-30500000D03*
X67600000Y-9900000D03*
X47300000Y-4499998D03*
X32975661Y-2875010D03*
X67400000Y-12200000D03*
X63352756Y-11863286D03*
X17600000Y-12900000D03*
X61200000Y-9399999D03*
X2500000Y-12900000D03*
X54299999Y-3700000D03*
X42300000Y-3700000D03*
X12600000Y-14000000D03*
X27400000Y-14100000D03*
D13*
X48700000Y-30600000D03*
X31100000Y-42900000D03*
X43700000Y-31900000D03*
X39600000Y-33300000D03*
X41513477Y-19320488D03*
X44189595Y-18872822D03*
X43700000Y-21400001D03*
X25200000Y-30100000D03*
X55088577Y-19961385D03*
D14*
X11944267Y-29300010D03*
D13*
X63200000Y-29200000D03*
X57610971Y-18337762D03*
X45000000Y-16800000D03*
D14*
X48151823Y-17510699D03*
X32900000Y-17000000D03*
X18200000Y-26900000D03*
X3300000Y-28100000D03*
D13*
X45442394Y-20224833D03*
D14*
X3535757Y-29224990D03*
X18500011Y-29224990D03*
D13*
X42260372Y-18381246D03*
X41699998Y-21200012D03*
X41400000Y-36000000D03*
X26802414Y-32432415D03*
X43300000Y-33400000D03*
X39654530Y-31871510D03*
X12800000Y-32000002D03*
D14*
X48335757Y-18824990D03*
X50574990Y-7600000D03*
X50600000Y-9900000D03*
X49500000Y-4900000D03*
X53500000Y-4900000D03*
X47900000Y-13600000D03*
X33235757Y-18824990D03*
X35474990Y-7600000D03*
X35500000Y-9900000D03*
X34400000Y-4900000D03*
X38400000Y-4900000D03*
X32800000Y-13600000D03*
X20574990Y-18000000D03*
X20600000Y-20300000D03*
D13*
X17000000Y-34500000D03*
D14*
X19500000Y-15300000D03*
X23500000Y-15300000D03*
D13*
X2200000Y-32200006D03*
D14*
X3100000Y-24000000D03*
X8700000Y-15300000D03*
X5100000Y-39800000D03*
X11600000Y-23100000D03*
X11800000Y-24650012D03*
X4700000Y-15300000D03*
D13*
X2200000Y-34500000D03*
D14*
X5800000Y-20300000D03*
X5774990Y-18000000D03*
D15*
G36*
X67240001Y-1925148D02*
X67225112Y-2000000D01*
X67240001Y-2074852D01*
X67284097Y-2296537D01*
X67452072Y-2547929D01*
X67515528Y-2590329D01*
X71409671Y-6484473D01*
X71452071Y-6547929D01*
X71703463Y-6715904D01*
X71925148Y-6760000D01*
X71925152Y-6760000D01*
X71999999Y-6774888D01*
X72074846Y-6760000D01*
X74240000Y-6760000D01*
X74240001Y-12240000D01*
X72074852Y-12240000D01*
X72000000Y-12225111D01*
X71925148Y-12240000D01*
X71703463Y-12284096D01*
X71452071Y-12452071D01*
X71284096Y-12703463D01*
X71225111Y-13000000D01*
X71240000Y-13074852D01*
X71240001Y-17740000D01*
X65074852Y-17740000D01*
X65000000Y-17725111D01*
X64925148Y-17740000D01*
X64703463Y-17784096D01*
X64452071Y-17952071D01*
X64284096Y-18203463D01*
X64225111Y-18500000D01*
X64240000Y-18574852D01*
X64240000Y-21924081D01*
X64144595Y-21693751D01*
X63811249Y-21360405D01*
X63375711Y-21180000D01*
X62904289Y-21180000D01*
X62505000Y-21345390D01*
X62105711Y-21180000D01*
X61634289Y-21180000D01*
X61235000Y-21345390D01*
X60835711Y-21180000D01*
X60364289Y-21180000D01*
X59965000Y-21345390D01*
X59565711Y-21180000D01*
X59094289Y-21180000D01*
X58695000Y-21345390D01*
X58295711Y-21180000D01*
X57824289Y-21180000D01*
X57388751Y-21360405D01*
X57055405Y-21693751D01*
X56875000Y-22129289D01*
X56875000Y-22600711D01*
X57050416Y-23024205D01*
X57013299Y-23031508D01*
X56862028Y-23478001D01*
X56893137Y-23948396D01*
X57013299Y-24238492D01*
X57233567Y-24281828D01*
X57880395Y-23635000D01*
X57866253Y-23620858D01*
X57937110Y-23550000D01*
X58145000Y-23550000D01*
X58145000Y-23757890D01*
X58074143Y-23828748D01*
X58060000Y-23814605D01*
X57413172Y-24461433D01*
X57456508Y-24681701D01*
X57903001Y-24832972D01*
X58373396Y-24801863D01*
X58663492Y-24681701D01*
X58670795Y-24644584D01*
X59094289Y-24820000D01*
X59565711Y-24820000D01*
X59965000Y-24654610D01*
X60364289Y-24820000D01*
X60835711Y-24820000D01*
X61235000Y-24654610D01*
X61634289Y-24820000D01*
X62105711Y-24820000D01*
X62505000Y-24654610D01*
X62904289Y-24820000D01*
X63375711Y-24820000D01*
X63811249Y-24639595D01*
X64144595Y-24306249D01*
X64240000Y-24075919D01*
X64240001Y-28744885D01*
X64162207Y-28557074D01*
X63842926Y-28237793D01*
X63425766Y-28065000D01*
X62974234Y-28065000D01*
X62557074Y-28237793D01*
X62237793Y-28557074D01*
X62065000Y-28974234D01*
X62065000Y-29425766D01*
X62237793Y-29842926D01*
X62557074Y-30162207D01*
X62974234Y-30335000D01*
X63425766Y-30335000D01*
X63842926Y-30162207D01*
X64162207Y-29842926D01*
X64240001Y-29655115D01*
X64240001Y-31425143D01*
X64225111Y-31500000D01*
X64284096Y-31796537D01*
X64452071Y-32047929D01*
X64703463Y-32215904D01*
X64925148Y-32260000D01*
X65000000Y-32274889D01*
X65074852Y-32260000D01*
X71240000Y-32260000D01*
X71240001Y-36925143D01*
X71225111Y-37000000D01*
X71284096Y-37296537D01*
X71452071Y-37547929D01*
X71703463Y-37715904D01*
X71925148Y-37760000D01*
X72000000Y-37774889D01*
X72074852Y-37760000D01*
X74240001Y-37760000D01*
X74240000Y-43240000D01*
X72074846Y-43240000D01*
X71999999Y-43225112D01*
X71925152Y-43240000D01*
X71925148Y-43240000D01*
X71703463Y-43284096D01*
X71452071Y-43452071D01*
X71409671Y-43515527D01*
X67515528Y-47409671D01*
X67452072Y-47452071D01*
X67409672Y-47515527D01*
X67409671Y-47515528D01*
X67284097Y-47703463D01*
X67225112Y-48000000D01*
X67240001Y-48074852D01*
X67240000Y-49240000D01*
X58860000Y-49240000D01*
X58860000Y-44575322D01*
X60365000Y-44575322D01*
X60365000Y-45424678D01*
X60690034Y-46209380D01*
X61290620Y-46809966D01*
X62075322Y-47135000D01*
X62924678Y-47135000D01*
X63709380Y-46809966D01*
X64309966Y-46209380D01*
X64635000Y-45424678D01*
X64635000Y-44575322D01*
X64309966Y-43790620D01*
X63709380Y-43190034D01*
X62924678Y-42865000D01*
X62075322Y-42865000D01*
X61290620Y-43190034D01*
X60690034Y-43790620D01*
X60365000Y-44575322D01*
X58860000Y-44575322D01*
X58860000Y-44074851D01*
X58874889Y-44000000D01*
X58815904Y-43703463D01*
X58647929Y-43452071D01*
X58396537Y-43284096D01*
X58174852Y-43240000D01*
X58100000Y-43225111D01*
X58025148Y-43240000D01*
X32187683Y-43240000D01*
X32235000Y-43125766D01*
X32235000Y-42674234D01*
X32062207Y-42257074D01*
X31742926Y-41937793D01*
X31325766Y-41765000D01*
X30874234Y-41765000D01*
X30457074Y-41937793D01*
X30137793Y-42257074D01*
X29965000Y-42674234D01*
X29965000Y-43125766D01*
X30012317Y-43240000D01*
X21574852Y-43240000D01*
X21500000Y-43225111D01*
X21425148Y-43240000D01*
X21203463Y-43284096D01*
X20952071Y-43452071D01*
X20784096Y-43703463D01*
X20725111Y-44000000D01*
X20740001Y-44074857D01*
X20740000Y-49240000D01*
X7762000Y-49240000D01*
X7762000Y-48064791D01*
X7774888Y-47999999D01*
X7762000Y-47935207D01*
X7762000Y-47924952D01*
X7717788Y-47702683D01*
X7549371Y-47450629D01*
X7477224Y-47402422D01*
X4650124Y-44575322D01*
X10365000Y-44575322D01*
X10365000Y-45424678D01*
X10690034Y-46209380D01*
X11290620Y-46809966D01*
X12075322Y-47135000D01*
X12924678Y-47135000D01*
X13709380Y-46809966D01*
X14309966Y-46209380D01*
X14635000Y-45424678D01*
X14635000Y-44575322D01*
X14309966Y-43790620D01*
X13709380Y-43190034D01*
X12924678Y-42865000D01*
X12075322Y-42865000D01*
X11290620Y-43190034D01*
X10690034Y-43790620D01*
X10365000Y-44575322D01*
X4650124Y-44575322D01*
X3597580Y-43522779D01*
X3549371Y-43450629D01*
X3297317Y-43282212D01*
X3075048Y-43238000D01*
X3064792Y-43238000D01*
X3000000Y-43225112D01*
X2935208Y-43238000D01*
X762000Y-43238000D01*
X762000Y-39594126D01*
X4065000Y-39594126D01*
X4065000Y-40005874D01*
X4222569Y-40386280D01*
X4513720Y-40677431D01*
X4894126Y-40835000D01*
X5305874Y-40835000D01*
X5686280Y-40677431D01*
X5977431Y-40386280D01*
X6135000Y-40005874D01*
X6135000Y-39794126D01*
X10965000Y-39794126D01*
X10965000Y-40205874D01*
X11122569Y-40586280D01*
X11413720Y-40877431D01*
X11794126Y-41035000D01*
X12205874Y-41035000D01*
X12586280Y-40877431D01*
X12877431Y-40586280D01*
X13035000Y-40205874D01*
X13035000Y-39794126D01*
X12877431Y-39413720D01*
X12586280Y-39122569D01*
X12205874Y-38965000D01*
X11794126Y-38965000D01*
X11413720Y-39122569D01*
X11122569Y-39413720D01*
X10965000Y-39794126D01*
X6135000Y-39794126D01*
X6135000Y-39594126D01*
X5977431Y-39213720D01*
X5686280Y-38922569D01*
X5305874Y-38765000D01*
X4894126Y-38765000D01*
X4513720Y-38922569D01*
X4222569Y-39213720D01*
X4065000Y-39594126D01*
X762000Y-39594126D01*
X762000Y-38585750D01*
X20565000Y-38585750D01*
X20565000Y-39226309D01*
X20661673Y-39459698D01*
X20840301Y-39638327D01*
X21046759Y-39723845D01*
X20783466Y-39987138D01*
X20565000Y-40514561D01*
X20565000Y-41085439D01*
X20783466Y-41612862D01*
X21187138Y-42016534D01*
X21714561Y-42235000D01*
X22285439Y-42235000D01*
X22812862Y-42016534D01*
X23034937Y-41794459D01*
X23374234Y-41935000D01*
X23825766Y-41935000D01*
X24213914Y-41774224D01*
X27065000Y-41774224D01*
X27065000Y-42225756D01*
X27237793Y-42642916D01*
X27557074Y-42962197D01*
X27974234Y-43134990D01*
X28425766Y-43134990D01*
X28842926Y-42962197D01*
X29162207Y-42642916D01*
X29335000Y-42225756D01*
X29335000Y-41774224D01*
X29162207Y-41357064D01*
X28842926Y-41037783D01*
X28425766Y-40864990D01*
X27974234Y-40864990D01*
X27557074Y-41037783D01*
X27237793Y-41357064D01*
X27065000Y-41774224D01*
X24213914Y-41774224D01*
X24242926Y-41762207D01*
X24562207Y-41442926D01*
X24735000Y-41025766D01*
X24735000Y-40574234D01*
X24562207Y-40157074D01*
X24479367Y-40074234D01*
X24965000Y-40074234D01*
X24965000Y-40525766D01*
X25137793Y-40942926D01*
X25457074Y-41262207D01*
X25874234Y-41435000D01*
X26325766Y-41435000D01*
X26742926Y-41262207D01*
X27062207Y-40942926D01*
X27235000Y-40525766D01*
X27235000Y-40074234D01*
X27062207Y-39657074D01*
X26742926Y-39337793D01*
X26325766Y-39165000D01*
X25874234Y-39165000D01*
X25457074Y-39337793D01*
X25137793Y-39657074D01*
X24965000Y-40074234D01*
X24479367Y-40074234D01*
X24242926Y-39837793D01*
X23825766Y-39665000D01*
X23374234Y-39665000D01*
X23034937Y-39805541D01*
X22953241Y-39723845D01*
X23159699Y-39638327D01*
X23338327Y-39459698D01*
X23435000Y-39226309D01*
X23435000Y-38585750D01*
X23423484Y-38574234D01*
X33565000Y-38574234D01*
X33565000Y-39025766D01*
X33737793Y-39442926D01*
X34057074Y-39762207D01*
X34474234Y-39935000D01*
X34782119Y-39935000D01*
X34782119Y-40023732D01*
X34939688Y-40404138D01*
X35230839Y-40695289D01*
X35611245Y-40852858D01*
X36022993Y-40852858D01*
X36403399Y-40695289D01*
X36694550Y-40404138D01*
X36852119Y-40023732D01*
X36852119Y-39611984D01*
X36694550Y-39231578D01*
X36403399Y-38940427D01*
X36022993Y-38782858D01*
X35835000Y-38782858D01*
X35835000Y-38574234D01*
X35662207Y-38157074D01*
X35342926Y-37837793D01*
X34925766Y-37665000D01*
X34474234Y-37665000D01*
X34057074Y-37837793D01*
X33737793Y-38157074D01*
X33565000Y-38574234D01*
X23423484Y-38574234D01*
X23276250Y-38427000D01*
X22127000Y-38427000D01*
X22127000Y-38447000D01*
X21873000Y-38447000D01*
X21873000Y-38427000D01*
X20723750Y-38427000D01*
X20565000Y-38585750D01*
X762000Y-38585750D01*
X762000Y-37373691D01*
X20565000Y-37373691D01*
X20565000Y-38014250D01*
X20723750Y-38173000D01*
X21873000Y-38173000D01*
X21873000Y-37023750D01*
X22127000Y-37023750D01*
X22127000Y-38173000D01*
X23276250Y-38173000D01*
X23435000Y-38014250D01*
X23435000Y-37373691D01*
X23338327Y-37140302D01*
X23198026Y-37000000D01*
X37852560Y-37000000D01*
X37852560Y-38600000D01*
X37901843Y-38847765D01*
X38042191Y-39057809D01*
X38252235Y-39198157D01*
X38352503Y-39218101D01*
X38083466Y-39487138D01*
X37865000Y-40014561D01*
X37865000Y-40585439D01*
X38083466Y-41112862D01*
X38487138Y-41516534D01*
X39014561Y-41735000D01*
X39585439Y-41735000D01*
X40112862Y-41516534D01*
X40516534Y-41112862D01*
X40735000Y-40585439D01*
X40735000Y-40014561D01*
X40516534Y-39487138D01*
X40247497Y-39218101D01*
X40347765Y-39198157D01*
X40557809Y-39057809D01*
X40698157Y-38847765D01*
X40747440Y-38600000D01*
X40747440Y-38274234D01*
X45465000Y-38274234D01*
X45465000Y-38725766D01*
X45637793Y-39142926D01*
X45957074Y-39462207D01*
X46374234Y-39635000D01*
X46825766Y-39635000D01*
X47242926Y-39462207D01*
X47562207Y-39142926D01*
X47735000Y-38725766D01*
X47735000Y-38274234D01*
X47562207Y-37857074D01*
X47242926Y-37537793D01*
X46825766Y-37365000D01*
X46374234Y-37365000D01*
X45957074Y-37537793D01*
X45637793Y-37857074D01*
X45465000Y-38274234D01*
X40747440Y-38274234D01*
X40747440Y-37000000D01*
X40735664Y-36940797D01*
X40757074Y-36962207D01*
X41174234Y-37135000D01*
X41625766Y-37135000D01*
X42042926Y-36962207D01*
X42330899Y-36674234D01*
X43565000Y-36674234D01*
X43565000Y-37125766D01*
X43737793Y-37542926D01*
X44057074Y-37862207D01*
X44474234Y-38035000D01*
X44925766Y-38035000D01*
X45342926Y-37862207D01*
X45662207Y-37542926D01*
X45835000Y-37125766D01*
X45835000Y-36674234D01*
X45662207Y-36257074D01*
X45342926Y-35937793D01*
X44925766Y-35765000D01*
X44474234Y-35765000D01*
X44057074Y-35937793D01*
X43737793Y-36257074D01*
X43565000Y-36674234D01*
X42330899Y-36674234D01*
X42362207Y-36642926D01*
X42535000Y-36225766D01*
X42535000Y-35774234D01*
X42504686Y-35701047D01*
X56075960Y-35701047D01*
X56075960Y-36152579D01*
X56248753Y-36569739D01*
X56568034Y-36889020D01*
X56985194Y-37061813D01*
X57436726Y-37061813D01*
X57853886Y-36889020D01*
X58173167Y-36569739D01*
X58345960Y-36152579D01*
X58345960Y-35701047D01*
X58173167Y-35283887D01*
X57853886Y-34964606D01*
X57436726Y-34791813D01*
X56985194Y-34791813D01*
X56568034Y-34964606D01*
X56248753Y-35283887D01*
X56075960Y-35701047D01*
X42504686Y-35701047D01*
X42362207Y-35357074D01*
X42042926Y-35037793D01*
X41625766Y-34865000D01*
X41174234Y-34865000D01*
X40757074Y-35037793D01*
X40437793Y-35357074D01*
X40265000Y-35774234D01*
X40265000Y-36225766D01*
X40337051Y-36399712D01*
X40100000Y-36352560D01*
X38500000Y-36352560D01*
X38252235Y-36401843D01*
X38042191Y-36542191D01*
X37901843Y-36752235D01*
X37852560Y-37000000D01*
X23198026Y-37000000D01*
X23159699Y-36961673D01*
X22926310Y-36865000D01*
X22285750Y-36865000D01*
X22127000Y-37023750D01*
X21873000Y-37023750D01*
X21714250Y-36865000D01*
X21073690Y-36865000D01*
X20840301Y-36961673D01*
X20661673Y-37140302D01*
X20565000Y-37373691D01*
X762000Y-37373691D01*
X762000Y-34274234D01*
X1065000Y-34274234D01*
X1065000Y-34725766D01*
X1237793Y-35142926D01*
X1557074Y-35462207D01*
X1974234Y-35635000D01*
X2425766Y-35635000D01*
X2842926Y-35462207D01*
X3162207Y-35142926D01*
X3335000Y-34725766D01*
X3335000Y-34274234D01*
X15865000Y-34274234D01*
X15865000Y-34725766D01*
X16037793Y-35142926D01*
X16357074Y-35462207D01*
X16774234Y-35635000D01*
X17225766Y-35635000D01*
X17642926Y-35462207D01*
X17930867Y-35174266D01*
X28670407Y-35174266D01*
X28670407Y-35625798D01*
X28843200Y-36042958D01*
X29162481Y-36362239D01*
X29579641Y-36535032D01*
X30031173Y-36535032D01*
X30448333Y-36362239D01*
X30767614Y-36042958D01*
X30940407Y-35625798D01*
X30940407Y-35294126D01*
X34865000Y-35294126D01*
X34865000Y-35705874D01*
X35022569Y-36086280D01*
X35313720Y-36377431D01*
X35694126Y-36535000D01*
X36105874Y-36535000D01*
X36486280Y-36377431D01*
X36777431Y-36086280D01*
X36935000Y-35705874D01*
X36935000Y-35294126D01*
X36777431Y-34913720D01*
X36486280Y-34622569D01*
X36105874Y-34465000D01*
X35694126Y-34465000D01*
X35313720Y-34622569D01*
X35022569Y-34913720D01*
X34865000Y-35294126D01*
X30940407Y-35294126D01*
X30940407Y-35174266D01*
X30767614Y-34757106D01*
X30448333Y-34437825D01*
X30031173Y-34265032D01*
X29579641Y-34265032D01*
X29162481Y-34437825D01*
X28843200Y-34757106D01*
X28670407Y-35174266D01*
X17930867Y-35174266D01*
X17962207Y-35142926D01*
X18135000Y-34725766D01*
X18135000Y-34274234D01*
X17962207Y-33857074D01*
X17642926Y-33537793D01*
X17225766Y-33365000D01*
X16774234Y-33365000D01*
X16357074Y-33537793D01*
X16037793Y-33857074D01*
X15865000Y-34274234D01*
X3335000Y-34274234D01*
X3162207Y-33857074D01*
X2842926Y-33537793D01*
X2425766Y-33365000D01*
X1974234Y-33365000D01*
X1557074Y-33537793D01*
X1237793Y-33857074D01*
X1065000Y-34274234D01*
X762000Y-34274234D01*
X762000Y-31774236D01*
X11665000Y-31774236D01*
X11665000Y-32225768D01*
X11837793Y-32642928D01*
X12157074Y-32962209D01*
X12574234Y-33135002D01*
X13025766Y-33135002D01*
X13442926Y-32962209D01*
X13762207Y-32642928D01*
X13935000Y-32225768D01*
X13935000Y-32206649D01*
X25667414Y-32206649D01*
X25667414Y-32658181D01*
X25840207Y-33075341D01*
X26159488Y-33394622D01*
X26576648Y-33567415D01*
X27028180Y-33567415D01*
X27445340Y-33394622D01*
X27764621Y-33075341D01*
X27765079Y-33074234D01*
X38465000Y-33074234D01*
X38465000Y-33525766D01*
X38637793Y-33942926D01*
X38957074Y-34262207D01*
X39374234Y-34435000D01*
X39825766Y-34435000D01*
X40242926Y-34262207D01*
X40562207Y-33942926D01*
X40735000Y-33525766D01*
X40735000Y-33174234D01*
X42165000Y-33174234D01*
X42165000Y-33625766D01*
X42337793Y-34042926D01*
X42657074Y-34362207D01*
X43074234Y-34535000D01*
X43525766Y-34535000D01*
X43942926Y-34362207D01*
X44262207Y-34042926D01*
X44435000Y-33625766D01*
X44435000Y-33174234D01*
X44311198Y-32875349D01*
X44342926Y-32862207D01*
X44662207Y-32542926D01*
X44835000Y-32125766D01*
X44835000Y-31674234D01*
X44662207Y-31257074D01*
X44342926Y-30937793D01*
X43925766Y-30765000D01*
X43474234Y-30765000D01*
X43057074Y-30937793D01*
X42737793Y-31257074D01*
X42565000Y-31674234D01*
X42565000Y-32125766D01*
X42688802Y-32424651D01*
X42657074Y-32437793D01*
X42337793Y-32757074D01*
X42165000Y-33174234D01*
X40735000Y-33174234D01*
X40735000Y-33074234D01*
X40562207Y-32657074D01*
X40518153Y-32613020D01*
X40616737Y-32514436D01*
X40789530Y-32097276D01*
X40789530Y-31645744D01*
X40616737Y-31228584D01*
X40297456Y-30909303D01*
X39880296Y-30736510D01*
X39428764Y-30736510D01*
X39011604Y-30909303D01*
X38692323Y-31228584D01*
X38519530Y-31645744D01*
X38519530Y-32097276D01*
X38692323Y-32514436D01*
X38736377Y-32558490D01*
X38637793Y-32657074D01*
X38465000Y-33074234D01*
X27765079Y-33074234D01*
X27937414Y-32658181D01*
X27937414Y-32206649D01*
X27764621Y-31789489D01*
X27445340Y-31470208D01*
X27028180Y-31297415D01*
X26576648Y-31297415D01*
X26159488Y-31470208D01*
X25840207Y-31789489D01*
X25667414Y-32206649D01*
X13935000Y-32206649D01*
X13935000Y-31774236D01*
X13762207Y-31357076D01*
X13442926Y-31037795D01*
X13025766Y-30865002D01*
X12574234Y-30865002D01*
X12157074Y-31037795D01*
X11837793Y-31357076D01*
X11665000Y-31774236D01*
X762000Y-31774236D01*
X762000Y-31597429D01*
X1094126Y-31735000D01*
X1505874Y-31735000D01*
X1886280Y-31577431D01*
X2177431Y-31286280D01*
X2335000Y-30905874D01*
X2335000Y-30494126D01*
X2177431Y-30113720D01*
X1886280Y-29822569D01*
X1505874Y-29665000D01*
X1094126Y-29665000D01*
X762000Y-29802571D01*
X762000Y-27894126D01*
X2265000Y-27894126D01*
X2265000Y-28305874D01*
X2422569Y-28686280D01*
X2575342Y-28839053D01*
X2500757Y-29019116D01*
X2500757Y-29430864D01*
X2658326Y-29811270D01*
X2949477Y-30102421D01*
X3329883Y-30259990D01*
X3741631Y-30259990D01*
X4122037Y-30102421D01*
X4413188Y-29811270D01*
X4570757Y-29430864D01*
X4570757Y-29094136D01*
X10909267Y-29094136D01*
X10909267Y-29505884D01*
X11066836Y-29886290D01*
X11357987Y-30177441D01*
X11738393Y-30335010D01*
X12150141Y-30335010D01*
X12530547Y-30177441D01*
X12669683Y-30038305D01*
X14884279Y-30038305D01*
X14884279Y-30450053D01*
X15041848Y-30830459D01*
X15332999Y-31121610D01*
X15713405Y-31279179D01*
X16125153Y-31279179D01*
X16505559Y-31121610D01*
X16796710Y-30830459D01*
X16954279Y-30450053D01*
X16954279Y-30038305D01*
X16796710Y-29657899D01*
X16505559Y-29366748D01*
X16125153Y-29209179D01*
X15713405Y-29209179D01*
X15332999Y-29366748D01*
X15041848Y-29657899D01*
X14884279Y-30038305D01*
X12669683Y-30038305D01*
X12821698Y-29886290D01*
X12979267Y-29505884D01*
X12979267Y-29094136D01*
X12948193Y-29019116D01*
X17465011Y-29019116D01*
X17465011Y-29430864D01*
X17622580Y-29811270D01*
X17913731Y-30102421D01*
X18294137Y-30259990D01*
X18705885Y-30259990D01*
X19086291Y-30102421D01*
X19314478Y-29874234D01*
X24065000Y-29874234D01*
X24065000Y-30325766D01*
X24237793Y-30742926D01*
X24557074Y-31062207D01*
X24974234Y-31235000D01*
X25425766Y-31235000D01*
X25842926Y-31062207D01*
X26162207Y-30742926D01*
X26335000Y-30325766D01*
X26335000Y-30294126D01*
X34765000Y-30294126D01*
X34765000Y-30705874D01*
X34922569Y-31086280D01*
X35213720Y-31377431D01*
X35594126Y-31535000D01*
X36005874Y-31535000D01*
X36386280Y-31377431D01*
X36677431Y-31086280D01*
X36835000Y-30705874D01*
X36835000Y-30374234D01*
X47565000Y-30374234D01*
X47565000Y-30825766D01*
X47737793Y-31242926D01*
X48057074Y-31562207D01*
X48474234Y-31735000D01*
X48925766Y-31735000D01*
X49342926Y-31562207D01*
X49662207Y-31242926D01*
X49835000Y-30825766D01*
X49835000Y-30381514D01*
X50086280Y-30277431D01*
X50377431Y-29986280D01*
X50535000Y-29605874D01*
X50535000Y-29194126D01*
X50377431Y-28813720D01*
X50086280Y-28522569D01*
X49705874Y-28365000D01*
X49294126Y-28365000D01*
X48913720Y-28522569D01*
X48622569Y-28813720D01*
X48465000Y-29194126D01*
X48465000Y-29468825D01*
X48057074Y-29637793D01*
X47737793Y-29957074D01*
X47565000Y-30374234D01*
X36835000Y-30374234D01*
X36835000Y-30294126D01*
X36677431Y-29913720D01*
X36386280Y-29622569D01*
X36005874Y-29465000D01*
X35594126Y-29465000D01*
X35213720Y-29622569D01*
X34922569Y-29913720D01*
X34765000Y-30294126D01*
X26335000Y-30294126D01*
X26335000Y-29874234D01*
X26162207Y-29457074D01*
X25842926Y-29137793D01*
X25425766Y-28965000D01*
X24974234Y-28965000D01*
X24557074Y-29137793D01*
X24237793Y-29457074D01*
X24065000Y-29874234D01*
X19314478Y-29874234D01*
X19377442Y-29811270D01*
X19535011Y-29430864D01*
X19535011Y-29019116D01*
X19377442Y-28638710D01*
X19086291Y-28347559D01*
X18705885Y-28189990D01*
X18294137Y-28189990D01*
X17913731Y-28347559D01*
X17622580Y-28638710D01*
X17465011Y-29019116D01*
X12948193Y-29019116D01*
X12821698Y-28713730D01*
X12530547Y-28422579D01*
X12150141Y-28265010D01*
X11738393Y-28265010D01*
X11357987Y-28422579D01*
X11066836Y-28713730D01*
X10909267Y-29094136D01*
X4570757Y-29094136D01*
X4570757Y-29019116D01*
X4413188Y-28638710D01*
X4260415Y-28485937D01*
X4335000Y-28305874D01*
X4335000Y-27894126D01*
X4177431Y-27513720D01*
X3886280Y-27222569D01*
X3505874Y-27065000D01*
X3094126Y-27065000D01*
X2713720Y-27222569D01*
X2422569Y-27513720D01*
X2265000Y-27894126D01*
X762000Y-27894126D01*
X762000Y-25694126D01*
X6165000Y-25694126D01*
X6165000Y-26105874D01*
X6322569Y-26486280D01*
X6613720Y-26777431D01*
X6994126Y-26935000D01*
X7405874Y-26935000D01*
X7786280Y-26777431D01*
X7869585Y-26694126D01*
X17165000Y-26694126D01*
X17165000Y-27105874D01*
X17322569Y-27486280D01*
X17613720Y-27777431D01*
X17994126Y-27935000D01*
X18405874Y-27935000D01*
X18786280Y-27777431D01*
X19077431Y-27486280D01*
X19235000Y-27105874D01*
X19235000Y-27074234D01*
X27565000Y-27074234D01*
X27565000Y-27525766D01*
X27737793Y-27942926D01*
X28057074Y-28262207D01*
X28474234Y-28435000D01*
X28925766Y-28435000D01*
X29342926Y-28262207D01*
X29662207Y-27942926D01*
X29835000Y-27525766D01*
X29835000Y-27074234D01*
X29760397Y-26894126D01*
X34765004Y-26894126D01*
X34765004Y-27305874D01*
X34922573Y-27686280D01*
X35213724Y-27977431D01*
X35594130Y-28135000D01*
X36005878Y-28135000D01*
X36386284Y-27977431D01*
X36677435Y-27686280D01*
X36835004Y-27305874D01*
X36835004Y-26894126D01*
X36677435Y-26513720D01*
X36386284Y-26222569D01*
X36005878Y-26065000D01*
X35594130Y-26065000D01*
X35213724Y-26222569D01*
X34922573Y-26513720D01*
X34765004Y-26894126D01*
X29760397Y-26894126D01*
X29662207Y-26657074D01*
X29342926Y-26337793D01*
X28925766Y-26165000D01*
X28474234Y-26165000D01*
X28057074Y-26337793D01*
X27737793Y-26657074D01*
X27565000Y-27074234D01*
X19235000Y-27074234D01*
X19235000Y-26694126D01*
X19077431Y-26313720D01*
X18786280Y-26022569D01*
X18405874Y-25865000D01*
X17994126Y-25865000D01*
X17613720Y-26022569D01*
X17322569Y-26313720D01*
X17165000Y-26694126D01*
X7869585Y-26694126D01*
X8077431Y-26486280D01*
X8235000Y-26105874D01*
X8235000Y-25694126D01*
X8077431Y-25313720D01*
X7786280Y-25022569D01*
X7405874Y-24865000D01*
X6994126Y-24865000D01*
X6613720Y-25022569D01*
X6322569Y-25313720D01*
X6165000Y-25694126D01*
X762000Y-25694126D01*
X762000Y-23625711D01*
X813720Y-23677431D01*
X1194126Y-23835000D01*
X1605874Y-23835000D01*
X1986280Y-23677431D01*
X2277431Y-23386280D01*
X2435000Y-23005874D01*
X2435000Y-22894126D01*
X10565000Y-22894126D01*
X10565000Y-23305874D01*
X10722569Y-23686280D01*
X11011295Y-23975006D01*
X10922569Y-24063732D01*
X10765000Y-24444138D01*
X10765000Y-24855886D01*
X10922569Y-25236292D01*
X11213720Y-25527443D01*
X11594126Y-25685012D01*
X12005874Y-25685012D01*
X12148848Y-25625790D01*
X20497902Y-25625790D01*
X20497902Y-26037538D01*
X20655471Y-26417944D01*
X20946622Y-26709095D01*
X21327028Y-26866664D01*
X21738776Y-26866664D01*
X22119182Y-26709095D01*
X22410333Y-26417944D01*
X22567902Y-26037538D01*
X22567902Y-25625790D01*
X22410333Y-25245384D01*
X22119182Y-24954233D01*
X21738776Y-24796664D01*
X21327028Y-24796664D01*
X20946622Y-24954233D01*
X20655471Y-25245384D01*
X20497902Y-25625790D01*
X12148848Y-25625790D01*
X12386280Y-25527443D01*
X12677431Y-25236292D01*
X12835000Y-24855886D01*
X12835000Y-24444138D01*
X12778312Y-24307280D01*
X25064990Y-24307280D01*
X25064990Y-24719028D01*
X25222559Y-25099434D01*
X25513710Y-25390585D01*
X25894116Y-25548154D01*
X26305864Y-25548154D01*
X26686270Y-25390585D01*
X26977421Y-25099434D01*
X27134990Y-24719028D01*
X27134990Y-24307280D01*
X27033306Y-24061791D01*
X27169717Y-23925380D01*
X27190902Y-23874234D01*
X31365012Y-23874234D01*
X31365012Y-24325766D01*
X31537805Y-24742926D01*
X31857086Y-25062207D01*
X32274246Y-25235000D01*
X32725778Y-25235000D01*
X33142938Y-25062207D01*
X33462219Y-24742926D01*
X33532093Y-24574234D01*
X39665000Y-24574234D01*
X39665000Y-25025766D01*
X39837793Y-25442926D01*
X40157074Y-25762207D01*
X40574234Y-25935000D01*
X41025766Y-25935000D01*
X41442926Y-25762207D01*
X41465000Y-25740133D01*
X41465000Y-25825764D01*
X41637793Y-26242924D01*
X41957074Y-26562205D01*
X42374234Y-26734998D01*
X42825766Y-26734998D01*
X43242926Y-26562205D01*
X43562207Y-26242924D01*
X43735000Y-25825764D01*
X43735000Y-25374232D01*
X43562207Y-24957072D01*
X43242926Y-24637791D01*
X42825766Y-24464998D01*
X42374234Y-24464998D01*
X41957074Y-24637791D01*
X41935000Y-24659865D01*
X41935000Y-24574234D01*
X41762207Y-24157074D01*
X41442926Y-23837793D01*
X41025766Y-23665000D01*
X40574234Y-23665000D01*
X40157074Y-23837793D01*
X39837793Y-24157074D01*
X39665000Y-24574234D01*
X33532093Y-24574234D01*
X33635012Y-24325766D01*
X33635012Y-23874234D01*
X33462219Y-23457074D01*
X33142938Y-23137793D01*
X32725778Y-22965000D01*
X32274246Y-22965000D01*
X31857086Y-23137793D01*
X31537805Y-23457074D01*
X31365012Y-23874234D01*
X27190902Y-23874234D01*
X27327286Y-23544974D01*
X27327286Y-23133226D01*
X27169717Y-22752820D01*
X26878566Y-22461669D01*
X26498160Y-22304100D01*
X26086412Y-22304100D01*
X25706006Y-22461669D01*
X25414855Y-22752820D01*
X25257286Y-23133226D01*
X25257286Y-23544974D01*
X25358970Y-23790463D01*
X25222559Y-23926874D01*
X25064990Y-24307280D01*
X12778312Y-24307280D01*
X12677431Y-24063732D01*
X12388705Y-23775006D01*
X12477431Y-23686280D01*
X12635000Y-23305874D01*
X12635000Y-22894126D01*
X12552152Y-22694112D01*
X15065000Y-22694112D01*
X15065000Y-23105860D01*
X15222569Y-23486266D01*
X15513720Y-23777417D01*
X15894126Y-23934986D01*
X16305874Y-23934986D01*
X16686280Y-23777417D01*
X16977431Y-23486266D01*
X17135000Y-23105860D01*
X17135000Y-22694112D01*
X16977431Y-22313706D01*
X16686280Y-22022555D01*
X16305874Y-21864986D01*
X15894126Y-21864986D01*
X15513720Y-22022555D01*
X15222569Y-22313706D01*
X15065000Y-22694112D01*
X12552152Y-22694112D01*
X12477431Y-22513720D01*
X12186280Y-22222569D01*
X11805874Y-22065000D01*
X11394126Y-22065000D01*
X11013720Y-22222569D01*
X10722569Y-22513720D01*
X10565000Y-22894126D01*
X2435000Y-22894126D01*
X2435000Y-22594126D01*
X2277431Y-22213720D01*
X1986280Y-21922569D01*
X1605874Y-21765000D01*
X1194126Y-21765000D01*
X813720Y-21922569D01*
X762000Y-21974289D01*
X762000Y-20094126D01*
X4765000Y-20094126D01*
X4765000Y-20505874D01*
X4922569Y-20886280D01*
X5213720Y-21177431D01*
X5594126Y-21335000D01*
X6005874Y-21335000D01*
X6386280Y-21177431D01*
X6677431Y-20886280D01*
X6835000Y-20505874D01*
X6835000Y-20094126D01*
X19565000Y-20094126D01*
X19565000Y-20505874D01*
X19722569Y-20886280D01*
X20013720Y-21177431D01*
X20394126Y-21335000D01*
X20805874Y-21335000D01*
X21186280Y-21177431D01*
X21477431Y-20886280D01*
X21635000Y-20505874D01*
X21635000Y-20094126D01*
X21496527Y-19759820D01*
X29730692Y-19759820D01*
X29730692Y-20171568D01*
X29888261Y-20551974D01*
X30179412Y-20843125D01*
X30559818Y-21000694D01*
X30971566Y-21000694D01*
X31351972Y-20843125D01*
X31643123Y-20551974D01*
X31800692Y-20171568D01*
X31800692Y-19759820D01*
X31643123Y-19379414D01*
X31351972Y-19088263D01*
X30971566Y-18930694D01*
X30559818Y-18930694D01*
X30179412Y-19088263D01*
X29888261Y-19379414D01*
X29730692Y-19759820D01*
X21496527Y-19759820D01*
X21477431Y-19713720D01*
X21186280Y-19422569D01*
X20805874Y-19265000D01*
X20394126Y-19265000D01*
X20013720Y-19422569D01*
X19722569Y-19713720D01*
X19565000Y-20094126D01*
X6835000Y-20094126D01*
X6677431Y-19713720D01*
X6386280Y-19422569D01*
X6005874Y-19265000D01*
X5594126Y-19265000D01*
X5213720Y-19422569D01*
X4922569Y-19713720D01*
X4765000Y-20094126D01*
X762000Y-20094126D01*
X762000Y-17794126D01*
X4739990Y-17794126D01*
X4739990Y-18205874D01*
X4897559Y-18586280D01*
X5188710Y-18877431D01*
X5569116Y-19035000D01*
X5980864Y-19035000D01*
X6361270Y-18877431D01*
X6652421Y-18586280D01*
X6809990Y-18205874D01*
X6809990Y-17794126D01*
X19539990Y-17794126D01*
X19539990Y-18205874D01*
X19697559Y-18586280D01*
X19988710Y-18877431D01*
X20369116Y-19035000D01*
X20780864Y-19035000D01*
X21161270Y-18877431D01*
X21452421Y-18586280D01*
X21609990Y-18205874D01*
X21609990Y-17794126D01*
X21452421Y-17413720D01*
X21161270Y-17122569D01*
X20780864Y-16965000D01*
X20369116Y-16965000D01*
X19988710Y-17122569D01*
X19697559Y-17413720D01*
X19539990Y-17794126D01*
X6809990Y-17794126D01*
X6652421Y-17413720D01*
X6361270Y-17122569D01*
X5980864Y-16965000D01*
X5569116Y-16965000D01*
X5188710Y-17122569D01*
X4897559Y-17413720D01*
X4739990Y-17794126D01*
X762000Y-17794126D01*
X762000Y-16794126D01*
X31865000Y-16794126D01*
X31865000Y-17205874D01*
X32022569Y-17586280D01*
X32313720Y-17877431D01*
X32600724Y-17996312D01*
X32358326Y-18238710D01*
X32200757Y-18619116D01*
X32200757Y-19030864D01*
X32358326Y-19411270D01*
X32649477Y-19702421D01*
X33029883Y-19859990D01*
X33441631Y-19859990D01*
X33822037Y-19702421D01*
X34113188Y-19411270D01*
X34244306Y-19094722D01*
X40378477Y-19094722D01*
X40378477Y-19546254D01*
X40551270Y-19963414D01*
X40870551Y-20282695D01*
X40970699Y-20324178D01*
X40737791Y-20557086D01*
X40564998Y-20974246D01*
X40564998Y-21425778D01*
X40737791Y-21842938D01*
X41057072Y-22162219D01*
X41474232Y-22335012D01*
X41925764Y-22335012D01*
X42342924Y-22162219D01*
X42657078Y-21848065D01*
X42737793Y-22042927D01*
X43057074Y-22362208D01*
X43474234Y-22535001D01*
X43925766Y-22535001D01*
X44342926Y-22362208D01*
X44662207Y-22042927D01*
X44835000Y-21625767D01*
X44835000Y-21201758D01*
X45216628Y-21359833D01*
X45511925Y-21359833D01*
X45409791Y-21606406D01*
X45409791Y-22018154D01*
X45567360Y-22398560D01*
X45858511Y-22689711D01*
X46238917Y-22847280D01*
X46507413Y-22847280D01*
X46407576Y-22947117D01*
X46234783Y-23364277D01*
X46234783Y-23815809D01*
X46407576Y-24232969D01*
X46726857Y-24552250D01*
X47144017Y-24725043D01*
X47595549Y-24725043D01*
X48012709Y-24552250D01*
X48331990Y-24232969D01*
X48504783Y-23815809D01*
X48504783Y-23364277D01*
X48331990Y-22947117D01*
X48012709Y-22627836D01*
X47595549Y-22455043D01*
X47265739Y-22455043D01*
X47322222Y-22398560D01*
X47479791Y-22018154D01*
X47479791Y-21606406D01*
X47322222Y-21226000D01*
X47031071Y-20934849D01*
X46650665Y-20777280D01*
X46442079Y-20777280D01*
X46577394Y-20450599D01*
X46577394Y-19999067D01*
X46404601Y-19581907D01*
X46085320Y-19262626D01*
X45668160Y-19089833D01*
X45324595Y-19089833D01*
X45324595Y-18647056D01*
X45151802Y-18229896D01*
X44856906Y-17935000D01*
X45225766Y-17935000D01*
X45642926Y-17762207D01*
X45962207Y-17442926D01*
X46019410Y-17304825D01*
X47116823Y-17304825D01*
X47116823Y-17716573D01*
X47274392Y-18096979D01*
X47445965Y-18268552D01*
X47300757Y-18619116D01*
X47300757Y-19030864D01*
X47458326Y-19411270D01*
X47749477Y-19702421D01*
X48129883Y-19859990D01*
X48541631Y-19859990D01*
X48841889Y-19735619D01*
X53953577Y-19735619D01*
X53953577Y-20187151D01*
X54126370Y-20604311D01*
X54445651Y-20923592D01*
X54862811Y-21096385D01*
X55314343Y-21096385D01*
X55731503Y-20923592D01*
X56050784Y-20604311D01*
X56223577Y-20187151D01*
X56223577Y-19735619D01*
X56050784Y-19318459D01*
X55731503Y-18999178D01*
X55314343Y-18826385D01*
X54862811Y-18826385D01*
X54445651Y-18999178D01*
X54126370Y-19318459D01*
X53953577Y-19735619D01*
X48841889Y-19735619D01*
X48922037Y-19702421D01*
X49213188Y-19411270D01*
X49370757Y-19030864D01*
X49370757Y-18619116D01*
X49213188Y-18238710D01*
X49086474Y-18111996D01*
X56475971Y-18111996D01*
X56475971Y-18563528D01*
X56648764Y-18980688D01*
X56968045Y-19299969D01*
X57385205Y-19472762D01*
X57836737Y-19472762D01*
X58253897Y-19299969D01*
X58573178Y-18980688D01*
X58745971Y-18563528D01*
X58745971Y-18111996D01*
X58573178Y-17694836D01*
X58253897Y-17375555D01*
X57836737Y-17202762D01*
X57385205Y-17202762D01*
X56968045Y-17375555D01*
X56648764Y-17694836D01*
X56475971Y-18111996D01*
X49086474Y-18111996D01*
X49041615Y-18067137D01*
X49186823Y-17716573D01*
X49186823Y-17304825D01*
X49029254Y-16924419D01*
X48884273Y-16779438D01*
X49077431Y-16586280D01*
X49235000Y-16205874D01*
X49235000Y-15794126D01*
X49077431Y-15413720D01*
X48786280Y-15122569D01*
X48405874Y-14965000D01*
X47994126Y-14965000D01*
X47613720Y-15122569D01*
X47322569Y-15413720D01*
X47165000Y-15794126D01*
X47165000Y-16205874D01*
X47322569Y-16586280D01*
X47467550Y-16731261D01*
X47274392Y-16924419D01*
X47116823Y-17304825D01*
X46019410Y-17304825D01*
X46135000Y-17025766D01*
X46135000Y-16574234D01*
X45962207Y-16157074D01*
X45642926Y-15837793D01*
X45225766Y-15665000D01*
X44774234Y-15665000D01*
X44357074Y-15837793D01*
X44037793Y-16157074D01*
X43865000Y-16574234D01*
X43865000Y-17025766D01*
X44037793Y-17442926D01*
X44332689Y-17737822D01*
X43963829Y-17737822D01*
X43546669Y-17910615D01*
X43367967Y-18089317D01*
X43222579Y-17738320D01*
X42903298Y-17419039D01*
X42486138Y-17246246D01*
X42034606Y-17246246D01*
X41617446Y-17419039D01*
X41298165Y-17738320D01*
X41125372Y-18155480D01*
X41125372Y-18252731D01*
X40870551Y-18358281D01*
X40551270Y-18677562D01*
X40378477Y-19094722D01*
X34244306Y-19094722D01*
X34270757Y-19030864D01*
X34270757Y-18619116D01*
X34113188Y-18238710D01*
X33822037Y-17947559D01*
X33535033Y-17828678D01*
X33777431Y-17586280D01*
X33935000Y-17205874D01*
X33935000Y-16794126D01*
X33777431Y-16413720D01*
X33713711Y-16350000D01*
X33977431Y-16086280D01*
X34135000Y-15705874D01*
X34135000Y-15294126D01*
X33977431Y-14913720D01*
X33686280Y-14622569D01*
X33305874Y-14465000D01*
X32894126Y-14465000D01*
X32513720Y-14622569D01*
X32222569Y-14913720D01*
X32065000Y-15294126D01*
X32065000Y-15705874D01*
X32222569Y-16086280D01*
X32286289Y-16150000D01*
X32022569Y-16413720D01*
X31865000Y-16794126D01*
X762000Y-16794126D01*
X762000Y-15094126D01*
X3665000Y-15094126D01*
X3665000Y-15505874D01*
X3822569Y-15886280D01*
X4113720Y-16177431D01*
X4494126Y-16335000D01*
X4905874Y-16335000D01*
X5286280Y-16177431D01*
X5577431Y-15886280D01*
X5735000Y-15505874D01*
X5735000Y-15094126D01*
X18465000Y-15094126D01*
X18465000Y-15505874D01*
X18622569Y-15886280D01*
X18913720Y-16177431D01*
X19294126Y-16335000D01*
X19705874Y-16335000D01*
X20086280Y-16177431D01*
X20377431Y-15886280D01*
X20535000Y-15505874D01*
X20535000Y-15094126D01*
X20377431Y-14713720D01*
X20086280Y-14422569D01*
X19705874Y-14265000D01*
X19294126Y-14265000D01*
X18913720Y-14422569D01*
X18622569Y-14713720D01*
X18465000Y-15094126D01*
X5735000Y-15094126D01*
X5577431Y-14713720D01*
X5286280Y-14422569D01*
X4905874Y-14265000D01*
X4494126Y-14265000D01*
X4113720Y-14422569D01*
X3822569Y-14713720D01*
X3665000Y-15094126D01*
X762000Y-15094126D01*
X762000Y-12694126D01*
X1465000Y-12694126D01*
X1465000Y-13105874D01*
X1622569Y-13486280D01*
X1913720Y-13777431D01*
X2294126Y-13935000D01*
X2705874Y-13935000D01*
X3045974Y-13794126D01*
X11565000Y-13794126D01*
X11565000Y-14205874D01*
X11722569Y-14586280D01*
X12013720Y-14877431D01*
X12394126Y-15035000D01*
X12805874Y-15035000D01*
X13186280Y-14877431D01*
X13477431Y-14586280D01*
X13635000Y-14205874D01*
X13635000Y-13794126D01*
X13477431Y-13413720D01*
X13186280Y-13122569D01*
X12805874Y-12965000D01*
X12394126Y-12965000D01*
X12013720Y-13122569D01*
X11722569Y-13413720D01*
X11565000Y-13794126D01*
X3045974Y-13794126D01*
X3086280Y-13777431D01*
X3377431Y-13486280D01*
X3535000Y-13105874D01*
X3535000Y-12694126D01*
X16565000Y-12694126D01*
X16565000Y-13105874D01*
X16722569Y-13486280D01*
X17013720Y-13777431D01*
X17394126Y-13935000D01*
X17805874Y-13935000D01*
X17904552Y-13894126D01*
X26365000Y-13894126D01*
X26365000Y-14305874D01*
X26522569Y-14686280D01*
X26813720Y-14977431D01*
X27194126Y-15135000D01*
X27605874Y-15135000D01*
X27986280Y-14977431D01*
X28277431Y-14686280D01*
X28435000Y-14305874D01*
X28435000Y-13894126D01*
X28277431Y-13513720D01*
X27986280Y-13222569D01*
X27605874Y-13065000D01*
X27194126Y-13065000D01*
X26813720Y-13222569D01*
X26522569Y-13513720D01*
X26365000Y-13894126D01*
X17904552Y-13894126D01*
X18186280Y-13777431D01*
X18477431Y-13486280D01*
X18635000Y-13105874D01*
X18635000Y-12694126D01*
X18477431Y-12313720D01*
X18457835Y-12294124D01*
X29865000Y-12294124D01*
X29865000Y-12705872D01*
X30022569Y-13086278D01*
X30313720Y-13377429D01*
X30694126Y-13534998D01*
X31105874Y-13534998D01*
X31486280Y-13377429D01*
X31777431Y-13086278D01*
X31935000Y-12705872D01*
X31935000Y-12421192D01*
X40321700Y-12421192D01*
X40321700Y-12832940D01*
X40479269Y-13213346D01*
X40770420Y-13504497D01*
X40849180Y-13537121D01*
X40722569Y-13663732D01*
X40565000Y-14044138D01*
X40565000Y-14455886D01*
X40722569Y-14836292D01*
X41013720Y-15127443D01*
X41394126Y-15285012D01*
X41805874Y-15285012D01*
X42186280Y-15127443D01*
X42477431Y-14836292D01*
X42635000Y-14455886D01*
X42635000Y-14044138D01*
X42477431Y-13663732D01*
X42186280Y-13372581D01*
X42107520Y-13339957D01*
X42234131Y-13213346D01*
X42391700Y-12832940D01*
X42391700Y-12421192D01*
X42297647Y-12194126D01*
X44865000Y-12194126D01*
X44865000Y-12605874D01*
X45022569Y-12986280D01*
X45313720Y-13277431D01*
X45694126Y-13435000D01*
X46105874Y-13435000D01*
X46486280Y-13277431D01*
X46777431Y-12986280D01*
X46935000Y-12605874D01*
X46935000Y-12494118D01*
X55255908Y-12494118D01*
X55255908Y-12905866D01*
X55413477Y-13286272D01*
X55704628Y-13577423D01*
X55830942Y-13629744D01*
X55690330Y-13770356D01*
X55532761Y-14150762D01*
X55532761Y-14562510D01*
X55690330Y-14942916D01*
X55981481Y-15234067D01*
X56361887Y-15391636D01*
X56773635Y-15391636D01*
X57154041Y-15234067D01*
X57445192Y-14942916D01*
X57602761Y-14562510D01*
X57602761Y-14150762D01*
X57445192Y-13770356D01*
X57154041Y-13479205D01*
X57027727Y-13426884D01*
X57168339Y-13286272D01*
X57325908Y-12905866D01*
X57325908Y-12494118D01*
X57168339Y-12113712D01*
X56877188Y-11822561D01*
X56496782Y-11664992D01*
X56085034Y-11664992D01*
X55704628Y-11822561D01*
X55413477Y-12113712D01*
X55255908Y-12494118D01*
X46935000Y-12494118D01*
X46935000Y-12194126D01*
X46777431Y-11813720D01*
X46621123Y-11657412D01*
X62317756Y-11657412D01*
X62317756Y-12069160D01*
X62475325Y-12449566D01*
X62766476Y-12740717D01*
X63146882Y-12898286D01*
X63558630Y-12898286D01*
X63939036Y-12740717D01*
X64230187Y-12449566D01*
X64387756Y-12069160D01*
X64387756Y-11994126D01*
X66365000Y-11994126D01*
X66365000Y-12405874D01*
X66522569Y-12786280D01*
X66813720Y-13077431D01*
X67194126Y-13235000D01*
X67605874Y-13235000D01*
X67986280Y-13077431D01*
X68277431Y-12786280D01*
X68435000Y-12405874D01*
X68435000Y-11994126D01*
X68327973Y-11735738D01*
X68477431Y-11586280D01*
X68635000Y-11205874D01*
X68635000Y-10794126D01*
X68492459Y-10450000D01*
X68635000Y-10105874D01*
X68635000Y-9694126D01*
X68477431Y-9313720D01*
X68186280Y-9022569D01*
X67805874Y-8865000D01*
X67394126Y-8865000D01*
X67013720Y-9022569D01*
X66722569Y-9313720D01*
X66565000Y-9694126D01*
X66565000Y-10105874D01*
X66707541Y-10450000D01*
X66565000Y-10794126D01*
X66565000Y-11205874D01*
X66672027Y-11464262D01*
X66522569Y-11613720D01*
X66365000Y-11994126D01*
X64387756Y-11994126D01*
X64387756Y-11657412D01*
X64230187Y-11277006D01*
X63939036Y-10985855D01*
X63558630Y-10828286D01*
X63146882Y-10828286D01*
X62766476Y-10985855D01*
X62475325Y-11277006D01*
X62317756Y-11657412D01*
X46621123Y-11657412D01*
X46486280Y-11522569D01*
X46105874Y-11365000D01*
X45694126Y-11365000D01*
X45313720Y-11522569D01*
X45022569Y-11813720D01*
X44865000Y-12194126D01*
X42297647Y-12194126D01*
X42234131Y-12040786D01*
X41942980Y-11749635D01*
X41562574Y-11592066D01*
X41150826Y-11592066D01*
X40770420Y-11749635D01*
X40479269Y-12040786D01*
X40321700Y-12421192D01*
X31935000Y-12421192D01*
X31935000Y-12294124D01*
X31777431Y-11913718D01*
X31486280Y-11622567D01*
X31105874Y-11464998D01*
X30694126Y-11464998D01*
X30313720Y-11622567D01*
X30022569Y-11913718D01*
X29865000Y-12294124D01*
X18457835Y-12294124D01*
X18186280Y-12022569D01*
X17805874Y-11865000D01*
X17394126Y-11865000D01*
X17013720Y-12022569D01*
X16722569Y-12313720D01*
X16565000Y-12694126D01*
X3535000Y-12694126D01*
X3377431Y-12313720D01*
X3086280Y-12022569D01*
X2705874Y-11865000D01*
X2294126Y-11865000D01*
X1913720Y-12022569D01*
X1622569Y-12313720D01*
X1465000Y-12694126D01*
X762000Y-12694126D01*
X762000Y-9694126D01*
X34465000Y-9694126D01*
X34465000Y-10105874D01*
X34622569Y-10486280D01*
X34913720Y-10777431D01*
X35294126Y-10935000D01*
X35705874Y-10935000D01*
X36086280Y-10777431D01*
X36377431Y-10486280D01*
X36535000Y-10105874D01*
X36535000Y-9694126D01*
X49565000Y-9694126D01*
X49565000Y-10105874D01*
X49722569Y-10486280D01*
X50013720Y-10777431D01*
X50394126Y-10935000D01*
X50805874Y-10935000D01*
X51186280Y-10777431D01*
X51477431Y-10486280D01*
X51635000Y-10105874D01*
X51635000Y-9694126D01*
X51477431Y-9313720D01*
X51357836Y-9194125D01*
X60165000Y-9194125D01*
X60165000Y-9605873D01*
X60322569Y-9986279D01*
X60613720Y-10277430D01*
X60994126Y-10434999D01*
X61405874Y-10434999D01*
X61786280Y-10277430D01*
X62077431Y-9986279D01*
X62235000Y-9605873D01*
X62235000Y-9194125D01*
X62225220Y-9170513D01*
X64346634Y-9170513D01*
X64346634Y-9582261D01*
X64504203Y-9962667D01*
X64795354Y-10253818D01*
X65175760Y-10411387D01*
X65587508Y-10411387D01*
X65967914Y-10253818D01*
X66259065Y-9962667D01*
X66416634Y-9582261D01*
X66416634Y-9170513D01*
X66259065Y-8790107D01*
X65967914Y-8498956D01*
X65587508Y-8341387D01*
X65175760Y-8341387D01*
X64795354Y-8498956D01*
X64504203Y-8790107D01*
X64346634Y-9170513D01*
X62225220Y-9170513D01*
X62077431Y-8813719D01*
X61786280Y-8522568D01*
X61405874Y-8364999D01*
X60994126Y-8364999D01*
X60613720Y-8522568D01*
X60322569Y-8813719D01*
X60165000Y-9194125D01*
X51357836Y-9194125D01*
X51186280Y-9022569D01*
X50805874Y-8865000D01*
X50394126Y-8865000D01*
X50013720Y-9022569D01*
X49722569Y-9313720D01*
X49565000Y-9694126D01*
X36535000Y-9694126D01*
X36377431Y-9313720D01*
X36086280Y-9022569D01*
X35705874Y-8865000D01*
X35294126Y-8865000D01*
X34913720Y-9022569D01*
X34622569Y-9313720D01*
X34465000Y-9694126D01*
X762000Y-9694126D01*
X762000Y-7394126D01*
X34439990Y-7394126D01*
X34439990Y-7805874D01*
X34597559Y-8186280D01*
X34888710Y-8477431D01*
X35269116Y-8635000D01*
X35680864Y-8635000D01*
X36061270Y-8477431D01*
X36352421Y-8186280D01*
X36509990Y-7805874D01*
X36509990Y-7394126D01*
X49539990Y-7394126D01*
X49539990Y-7805874D01*
X49697559Y-8186280D01*
X49988710Y-8477431D01*
X50369116Y-8635000D01*
X50780864Y-8635000D01*
X51161270Y-8477431D01*
X51452421Y-8186280D01*
X51609990Y-7805874D01*
X51609990Y-7394126D01*
X51452421Y-7013720D01*
X51161270Y-6722569D01*
X50780864Y-6565000D01*
X50369116Y-6565000D01*
X49988710Y-6722569D01*
X49697559Y-7013720D01*
X49539990Y-7394126D01*
X36509990Y-7394126D01*
X36352421Y-7013720D01*
X36061270Y-6722569D01*
X35680864Y-6565000D01*
X35269116Y-6565000D01*
X34888710Y-6722569D01*
X34597559Y-7013720D01*
X34439990Y-7394126D01*
X762000Y-7394126D01*
X762000Y-6762000D01*
X2935208Y-6762000D01*
X3000000Y-6774888D01*
X3064792Y-6762000D01*
X3075048Y-6762000D01*
X3297317Y-6717788D01*
X3549371Y-6549371D01*
X3597580Y-6477221D01*
X5499479Y-4575322D01*
X10365000Y-4575322D01*
X10365000Y-5424678D01*
X10690034Y-6209380D01*
X11290620Y-6809966D01*
X12075322Y-7135000D01*
X12924678Y-7135000D01*
X13709380Y-6809966D01*
X14309966Y-6209380D01*
X14635000Y-5424678D01*
X14635000Y-4694126D01*
X33365000Y-4694126D01*
X33365000Y-5105874D01*
X33522569Y-5486280D01*
X33813720Y-5777431D01*
X34194126Y-5935000D01*
X34605874Y-5935000D01*
X34986280Y-5777431D01*
X35277431Y-5486280D01*
X35435000Y-5105874D01*
X35435000Y-4694126D01*
X35277431Y-4313720D01*
X34986280Y-4022569D01*
X34605874Y-3865000D01*
X34194126Y-3865000D01*
X33813720Y-4022569D01*
X33522569Y-4313720D01*
X33365000Y-4694126D01*
X14635000Y-4694126D01*
X14635000Y-4575322D01*
X14309966Y-3790620D01*
X13709380Y-3190034D01*
X12924678Y-2865000D01*
X12075322Y-2865000D01*
X11290620Y-3190034D01*
X10690034Y-3790620D01*
X10365000Y-4575322D01*
X5499479Y-4575322D01*
X7405665Y-2669136D01*
X31940661Y-2669136D01*
X31940661Y-3080884D01*
X32098230Y-3461290D01*
X32389381Y-3752441D01*
X32769787Y-3910010D01*
X33181535Y-3910010D01*
X33561941Y-3752441D01*
X33820256Y-3494126D01*
X41265000Y-3494126D01*
X41265000Y-3905874D01*
X41422569Y-4286280D01*
X41713720Y-4577431D01*
X42094126Y-4735000D01*
X42505874Y-4735000D01*
X42886280Y-4577431D01*
X43169587Y-4294124D01*
X46265000Y-4294124D01*
X46265000Y-4705872D01*
X46422569Y-5086278D01*
X46713720Y-5377429D01*
X47094126Y-5534998D01*
X47505874Y-5534998D01*
X47886280Y-5377429D01*
X48177431Y-5086278D01*
X48335000Y-4705872D01*
X48335000Y-4694126D01*
X48465000Y-4694126D01*
X48465000Y-5105874D01*
X48622569Y-5486280D01*
X48913720Y-5777431D01*
X49294126Y-5935000D01*
X49705874Y-5935000D01*
X50086280Y-5777431D01*
X50377431Y-5486280D01*
X50535000Y-5105874D01*
X50535000Y-4694126D01*
X50377431Y-4313720D01*
X50086280Y-4022569D01*
X49705874Y-3865000D01*
X49294126Y-3865000D01*
X48913720Y-4022569D01*
X48622569Y-4313720D01*
X48465000Y-4694126D01*
X48335000Y-4694126D01*
X48335000Y-4294124D01*
X48177431Y-3913718D01*
X47886280Y-3622567D01*
X47576196Y-3494126D01*
X53264999Y-3494126D01*
X53264999Y-3905874D01*
X53422568Y-4286280D01*
X53713719Y-4577431D01*
X54094125Y-4735000D01*
X54505873Y-4735000D01*
X54886279Y-4577431D01*
X54888388Y-4575322D01*
X60365000Y-4575322D01*
X60365000Y-5424678D01*
X60690034Y-6209380D01*
X61290620Y-6809966D01*
X62075322Y-7135000D01*
X62924678Y-7135000D01*
X63709380Y-6809966D01*
X64309966Y-6209380D01*
X64635000Y-5424678D01*
X64635000Y-4575322D01*
X64309966Y-3790620D01*
X63709380Y-3190034D01*
X62924678Y-2865000D01*
X62075322Y-2865000D01*
X61290620Y-3190034D01*
X60690034Y-3790620D01*
X60365000Y-4575322D01*
X54888388Y-4575322D01*
X55177430Y-4286280D01*
X55334999Y-3905874D01*
X55334999Y-3494126D01*
X55177430Y-3113720D01*
X54886279Y-2822569D01*
X54505873Y-2665000D01*
X54094125Y-2665000D01*
X53713719Y-2822569D01*
X53422568Y-3113720D01*
X53264999Y-3494126D01*
X47576196Y-3494126D01*
X47505874Y-3464998D01*
X47094126Y-3464998D01*
X46713720Y-3622567D01*
X46422569Y-3913718D01*
X46265000Y-4294124D01*
X43169587Y-4294124D01*
X43177431Y-4286280D01*
X43335000Y-3905874D01*
X43335000Y-3494126D01*
X43177431Y-3113720D01*
X42886280Y-2822569D01*
X42505874Y-2665000D01*
X42094126Y-2665000D01*
X41713720Y-2822569D01*
X41422569Y-3113720D01*
X41265000Y-3494126D01*
X33820256Y-3494126D01*
X33853092Y-3461290D01*
X34010661Y-3080884D01*
X34010661Y-2669136D01*
X33853092Y-2288730D01*
X33561941Y-1997579D01*
X33181535Y-1840010D01*
X32769787Y-1840010D01*
X32389381Y-1997579D01*
X32098230Y-2288730D01*
X31940661Y-2669136D01*
X7405665Y-2669136D01*
X7477224Y-2597578D01*
X7549371Y-2549371D01*
X7717788Y-2297317D01*
X7762000Y-2075048D01*
X7762000Y-2064793D01*
X7774888Y-2000001D01*
X7762000Y-1935209D01*
X7762000Y-762000D01*
X67240000Y-762000D01*
X67240001Y-1925148D01*
X67240001Y-1925148D01*
G37*
X67240001Y-1925148D02*
X67225112Y-2000000D01*
X67240001Y-2074852D01*
X67284097Y-2296537D01*
X67452072Y-2547929D01*
X67515528Y-2590329D01*
X71409671Y-6484473D01*
X71452071Y-6547929D01*
X71703463Y-6715904D01*
X71925148Y-6760000D01*
X71925152Y-6760000D01*
X71999999Y-6774888D01*
X72074846Y-6760000D01*
X74240000Y-6760000D01*
X74240001Y-12240000D01*
X72074852Y-12240000D01*
X72000000Y-12225111D01*
X71925148Y-12240000D01*
X71703463Y-12284096D01*
X71452071Y-12452071D01*
X71284096Y-12703463D01*
X71225111Y-13000000D01*
X71240000Y-13074852D01*
X71240001Y-17740000D01*
X65074852Y-17740000D01*
X65000000Y-17725111D01*
X64925148Y-17740000D01*
X64703463Y-17784096D01*
X64452071Y-17952071D01*
X64284096Y-18203463D01*
X64225111Y-18500000D01*
X64240000Y-18574852D01*
X64240000Y-21924081D01*
X64144595Y-21693751D01*
X63811249Y-21360405D01*
X63375711Y-21180000D01*
X62904289Y-21180000D01*
X62505000Y-21345390D01*
X62105711Y-21180000D01*
X61634289Y-21180000D01*
X61235000Y-21345390D01*
X60835711Y-21180000D01*
X60364289Y-21180000D01*
X59965000Y-21345390D01*
X59565711Y-21180000D01*
X59094289Y-21180000D01*
X58695000Y-21345390D01*
X58295711Y-21180000D01*
X57824289Y-21180000D01*
X57388751Y-21360405D01*
X57055405Y-21693751D01*
X56875000Y-22129289D01*
X56875000Y-22600711D01*
X57050416Y-23024205D01*
X57013299Y-23031508D01*
X56862028Y-23478001D01*
X56893137Y-23948396D01*
X57013299Y-24238492D01*
X57233567Y-24281828D01*
X57880395Y-23635000D01*
X57866253Y-23620858D01*
X57937110Y-23550000D01*
X58145000Y-23550000D01*
X58145000Y-23757890D01*
X58074143Y-23828748D01*
X58060000Y-23814605D01*
X57413172Y-24461433D01*
X57456508Y-24681701D01*
X57903001Y-24832972D01*
X58373396Y-24801863D01*
X58663492Y-24681701D01*
X58670795Y-24644584D01*
X59094289Y-24820000D01*
X59565711Y-24820000D01*
X59965000Y-24654610D01*
X60364289Y-24820000D01*
X60835711Y-24820000D01*
X61235000Y-24654610D01*
X61634289Y-24820000D01*
X62105711Y-24820000D01*
X62505000Y-24654610D01*
X62904289Y-24820000D01*
X63375711Y-24820000D01*
X63811249Y-24639595D01*
X64144595Y-24306249D01*
X64240000Y-24075919D01*
X64240001Y-28744885D01*
X64162207Y-28557074D01*
X63842926Y-28237793D01*
X63425766Y-28065000D01*
X62974234Y-28065000D01*
X62557074Y-28237793D01*
X62237793Y-28557074D01*
X62065000Y-28974234D01*
X62065000Y-29425766D01*
X62237793Y-29842926D01*
X62557074Y-30162207D01*
X62974234Y-30335000D01*
X63425766Y-30335000D01*
X63842926Y-30162207D01*
X64162207Y-29842926D01*
X64240001Y-29655115D01*
X64240001Y-31425143D01*
X64225111Y-31500000D01*
X64284096Y-31796537D01*
X64452071Y-32047929D01*
X64703463Y-32215904D01*
X64925148Y-32260000D01*
X65000000Y-32274889D01*
X65074852Y-32260000D01*
X71240000Y-32260000D01*
X71240001Y-36925143D01*
X71225111Y-37000000D01*
X71284096Y-37296537D01*
X71452071Y-37547929D01*
X71703463Y-37715904D01*
X71925148Y-37760000D01*
X72000000Y-37774889D01*
X72074852Y-37760000D01*
X74240001Y-37760000D01*
X74240000Y-43240000D01*
X72074846Y-43240000D01*
X71999999Y-43225112D01*
X71925152Y-43240000D01*
X71925148Y-43240000D01*
X71703463Y-43284096D01*
X71452071Y-43452071D01*
X71409671Y-43515527D01*
X67515528Y-47409671D01*
X67452072Y-47452071D01*
X67409672Y-47515527D01*
X67409671Y-47515528D01*
X67284097Y-47703463D01*
X67225112Y-48000000D01*
X67240001Y-48074852D01*
X67240000Y-49240000D01*
X58860000Y-49240000D01*
X58860000Y-44575322D01*
X60365000Y-44575322D01*
X60365000Y-45424678D01*
X60690034Y-46209380D01*
X61290620Y-46809966D01*
X62075322Y-47135000D01*
X62924678Y-47135000D01*
X63709380Y-46809966D01*
X64309966Y-46209380D01*
X64635000Y-45424678D01*
X64635000Y-44575322D01*
X64309966Y-43790620D01*
X63709380Y-43190034D01*
X62924678Y-42865000D01*
X62075322Y-42865000D01*
X61290620Y-43190034D01*
X60690034Y-43790620D01*
X60365000Y-44575322D01*
X58860000Y-44575322D01*
X58860000Y-44074851D01*
X58874889Y-44000000D01*
X58815904Y-43703463D01*
X58647929Y-43452071D01*
X58396537Y-43284096D01*
X58174852Y-43240000D01*
X58100000Y-43225111D01*
X58025148Y-43240000D01*
X32187683Y-43240000D01*
X32235000Y-43125766D01*
X32235000Y-42674234D01*
X32062207Y-42257074D01*
X31742926Y-41937793D01*
X31325766Y-41765000D01*
X30874234Y-41765000D01*
X30457074Y-41937793D01*
X30137793Y-42257074D01*
X29965000Y-42674234D01*
X29965000Y-43125766D01*
X30012317Y-43240000D01*
X21574852Y-43240000D01*
X21500000Y-43225111D01*
X21425148Y-43240000D01*
X21203463Y-43284096D01*
X20952071Y-43452071D01*
X20784096Y-43703463D01*
X20725111Y-44000000D01*
X20740001Y-44074857D01*
X20740000Y-49240000D01*
X7762000Y-49240000D01*
X7762000Y-48064791D01*
X7774888Y-47999999D01*
X7762000Y-47935207D01*
X7762000Y-47924952D01*
X7717788Y-47702683D01*
X7549371Y-47450629D01*
X7477224Y-47402422D01*
X4650124Y-44575322D01*
X10365000Y-44575322D01*
X10365000Y-45424678D01*
X10690034Y-46209380D01*
X11290620Y-46809966D01*
X12075322Y-47135000D01*
X12924678Y-47135000D01*
X13709380Y-46809966D01*
X14309966Y-46209380D01*
X14635000Y-45424678D01*
X14635000Y-44575322D01*
X14309966Y-43790620D01*
X13709380Y-43190034D01*
X12924678Y-42865000D01*
X12075322Y-42865000D01*
X11290620Y-43190034D01*
X10690034Y-43790620D01*
X10365000Y-44575322D01*
X4650124Y-44575322D01*
X3597580Y-43522779D01*
X3549371Y-43450629D01*
X3297317Y-43282212D01*
X3075048Y-43238000D01*
X3064792Y-43238000D01*
X3000000Y-43225112D01*
X2935208Y-43238000D01*
X762000Y-43238000D01*
X762000Y-39594126D01*
X4065000Y-39594126D01*
X4065000Y-40005874D01*
X4222569Y-40386280D01*
X4513720Y-40677431D01*
X4894126Y-40835000D01*
X5305874Y-40835000D01*
X5686280Y-40677431D01*
X5977431Y-40386280D01*
X6135000Y-40005874D01*
X6135000Y-39794126D01*
X10965000Y-39794126D01*
X10965000Y-40205874D01*
X11122569Y-40586280D01*
X11413720Y-40877431D01*
X11794126Y-41035000D01*
X12205874Y-41035000D01*
X12586280Y-40877431D01*
X12877431Y-40586280D01*
X13035000Y-40205874D01*
X13035000Y-39794126D01*
X12877431Y-39413720D01*
X12586280Y-39122569D01*
X12205874Y-38965000D01*
X11794126Y-38965000D01*
X11413720Y-39122569D01*
X11122569Y-39413720D01*
X10965000Y-39794126D01*
X6135000Y-39794126D01*
X6135000Y-39594126D01*
X5977431Y-39213720D01*
X5686280Y-38922569D01*
X5305874Y-38765000D01*
X4894126Y-38765000D01*
X4513720Y-38922569D01*
X4222569Y-39213720D01*
X4065000Y-39594126D01*
X762000Y-39594126D01*
X762000Y-38585750D01*
X20565000Y-38585750D01*
X20565000Y-39226309D01*
X20661673Y-39459698D01*
X20840301Y-39638327D01*
X21046759Y-39723845D01*
X20783466Y-39987138D01*
X20565000Y-40514561D01*
X20565000Y-41085439D01*
X20783466Y-41612862D01*
X21187138Y-42016534D01*
X21714561Y-42235000D01*
X22285439Y-42235000D01*
X22812862Y-42016534D01*
X23034937Y-41794459D01*
X23374234Y-41935000D01*
X23825766Y-41935000D01*
X24213914Y-41774224D01*
X27065000Y-41774224D01*
X27065000Y-42225756D01*
X27237793Y-42642916D01*
X27557074Y-42962197D01*
X27974234Y-43134990D01*
X28425766Y-43134990D01*
X28842926Y-42962197D01*
X29162207Y-42642916D01*
X29335000Y-42225756D01*
X29335000Y-41774224D01*
X29162207Y-41357064D01*
X28842926Y-41037783D01*
X28425766Y-40864990D01*
X27974234Y-40864990D01*
X27557074Y-41037783D01*
X27237793Y-41357064D01*
X27065000Y-41774224D01*
X24213914Y-41774224D01*
X24242926Y-41762207D01*
X24562207Y-41442926D01*
X24735000Y-41025766D01*
X24735000Y-40574234D01*
X24562207Y-40157074D01*
X24479367Y-40074234D01*
X24965000Y-40074234D01*
X24965000Y-40525766D01*
X25137793Y-40942926D01*
X25457074Y-41262207D01*
X25874234Y-41435000D01*
X26325766Y-41435000D01*
X26742926Y-41262207D01*
X27062207Y-40942926D01*
X27235000Y-40525766D01*
X27235000Y-40074234D01*
X27062207Y-39657074D01*
X26742926Y-39337793D01*
X26325766Y-39165000D01*
X25874234Y-39165000D01*
X25457074Y-39337793D01*
X25137793Y-39657074D01*
X24965000Y-40074234D01*
X24479367Y-40074234D01*
X24242926Y-39837793D01*
X23825766Y-39665000D01*
X23374234Y-39665000D01*
X23034937Y-39805541D01*
X22953241Y-39723845D01*
X23159699Y-39638327D01*
X23338327Y-39459698D01*
X23435000Y-39226309D01*
X23435000Y-38585750D01*
X23423484Y-38574234D01*
X33565000Y-38574234D01*
X33565000Y-39025766D01*
X33737793Y-39442926D01*
X34057074Y-39762207D01*
X34474234Y-39935000D01*
X34782119Y-39935000D01*
X34782119Y-40023732D01*
X34939688Y-40404138D01*
X35230839Y-40695289D01*
X35611245Y-40852858D01*
X36022993Y-40852858D01*
X36403399Y-40695289D01*
X36694550Y-40404138D01*
X36852119Y-40023732D01*
X36852119Y-39611984D01*
X36694550Y-39231578D01*
X36403399Y-38940427D01*
X36022993Y-38782858D01*
X35835000Y-38782858D01*
X35835000Y-38574234D01*
X35662207Y-38157074D01*
X35342926Y-37837793D01*
X34925766Y-37665000D01*
X34474234Y-37665000D01*
X34057074Y-37837793D01*
X33737793Y-38157074D01*
X33565000Y-38574234D01*
X23423484Y-38574234D01*
X23276250Y-38427000D01*
X22127000Y-38427000D01*
X22127000Y-38447000D01*
X21873000Y-38447000D01*
X21873000Y-38427000D01*
X20723750Y-38427000D01*
X20565000Y-38585750D01*
X762000Y-38585750D01*
X762000Y-37373691D01*
X20565000Y-37373691D01*
X20565000Y-38014250D01*
X20723750Y-38173000D01*
X21873000Y-38173000D01*
X21873000Y-37023750D01*
X22127000Y-37023750D01*
X22127000Y-38173000D01*
X23276250Y-38173000D01*
X23435000Y-38014250D01*
X23435000Y-37373691D01*
X23338327Y-37140302D01*
X23198026Y-37000000D01*
X37852560Y-37000000D01*
X37852560Y-38600000D01*
X37901843Y-38847765D01*
X38042191Y-39057809D01*
X38252235Y-39198157D01*
X38352503Y-39218101D01*
X38083466Y-39487138D01*
X37865000Y-40014561D01*
X37865000Y-40585439D01*
X38083466Y-41112862D01*
X38487138Y-41516534D01*
X39014561Y-41735000D01*
X39585439Y-41735000D01*
X40112862Y-41516534D01*
X40516534Y-41112862D01*
X40735000Y-40585439D01*
X40735000Y-40014561D01*
X40516534Y-39487138D01*
X40247497Y-39218101D01*
X40347765Y-39198157D01*
X40557809Y-39057809D01*
X40698157Y-38847765D01*
X40747440Y-38600000D01*
X40747440Y-38274234D01*
X45465000Y-38274234D01*
X45465000Y-38725766D01*
X45637793Y-39142926D01*
X45957074Y-39462207D01*
X46374234Y-39635000D01*
X46825766Y-39635000D01*
X47242926Y-39462207D01*
X47562207Y-39142926D01*
X47735000Y-38725766D01*
X47735000Y-38274234D01*
X47562207Y-37857074D01*
X47242926Y-37537793D01*
X46825766Y-37365000D01*
X46374234Y-37365000D01*
X45957074Y-37537793D01*
X45637793Y-37857074D01*
X45465000Y-38274234D01*
X40747440Y-38274234D01*
X40747440Y-37000000D01*
X40735664Y-36940797D01*
X40757074Y-36962207D01*
X41174234Y-37135000D01*
X41625766Y-37135000D01*
X42042926Y-36962207D01*
X42330899Y-36674234D01*
X43565000Y-36674234D01*
X43565000Y-37125766D01*
X43737793Y-37542926D01*
X44057074Y-37862207D01*
X44474234Y-38035000D01*
X44925766Y-38035000D01*
X45342926Y-37862207D01*
X45662207Y-37542926D01*
X45835000Y-37125766D01*
X45835000Y-36674234D01*
X45662207Y-36257074D01*
X45342926Y-35937793D01*
X44925766Y-35765000D01*
X44474234Y-35765000D01*
X44057074Y-35937793D01*
X43737793Y-36257074D01*
X43565000Y-36674234D01*
X42330899Y-36674234D01*
X42362207Y-36642926D01*
X42535000Y-36225766D01*
X42535000Y-35774234D01*
X42504686Y-35701047D01*
X56075960Y-35701047D01*
X56075960Y-36152579D01*
X56248753Y-36569739D01*
X56568034Y-36889020D01*
X56985194Y-37061813D01*
X57436726Y-37061813D01*
X57853886Y-36889020D01*
X58173167Y-36569739D01*
X58345960Y-36152579D01*
X58345960Y-35701047D01*
X58173167Y-35283887D01*
X57853886Y-34964606D01*
X57436726Y-34791813D01*
X56985194Y-34791813D01*
X56568034Y-34964606D01*
X56248753Y-35283887D01*
X56075960Y-35701047D01*
X42504686Y-35701047D01*
X42362207Y-35357074D01*
X42042926Y-35037793D01*
X41625766Y-34865000D01*
X41174234Y-34865000D01*
X40757074Y-35037793D01*
X40437793Y-35357074D01*
X40265000Y-35774234D01*
X40265000Y-36225766D01*
X40337051Y-36399712D01*
X40100000Y-36352560D01*
X38500000Y-36352560D01*
X38252235Y-36401843D01*
X38042191Y-36542191D01*
X37901843Y-36752235D01*
X37852560Y-37000000D01*
X23198026Y-37000000D01*
X23159699Y-36961673D01*
X22926310Y-36865000D01*
X22285750Y-36865000D01*
X22127000Y-37023750D01*
X21873000Y-37023750D01*
X21714250Y-36865000D01*
X21073690Y-36865000D01*
X20840301Y-36961673D01*
X20661673Y-37140302D01*
X20565000Y-37373691D01*
X762000Y-37373691D01*
X762000Y-34274234D01*
X1065000Y-34274234D01*
X1065000Y-34725766D01*
X1237793Y-35142926D01*
X1557074Y-35462207D01*
X1974234Y-35635000D01*
X2425766Y-35635000D01*
X2842926Y-35462207D01*
X3162207Y-35142926D01*
X3335000Y-34725766D01*
X3335000Y-34274234D01*
X15865000Y-34274234D01*
X15865000Y-34725766D01*
X16037793Y-35142926D01*
X16357074Y-35462207D01*
X16774234Y-35635000D01*
X17225766Y-35635000D01*
X17642926Y-35462207D01*
X17930867Y-35174266D01*
X28670407Y-35174266D01*
X28670407Y-35625798D01*
X28843200Y-36042958D01*
X29162481Y-36362239D01*
X29579641Y-36535032D01*
X30031173Y-36535032D01*
X30448333Y-36362239D01*
X30767614Y-36042958D01*
X30940407Y-35625798D01*
X30940407Y-35294126D01*
X34865000Y-35294126D01*
X34865000Y-35705874D01*
X35022569Y-36086280D01*
X35313720Y-36377431D01*
X35694126Y-36535000D01*
X36105874Y-36535000D01*
X36486280Y-36377431D01*
X36777431Y-36086280D01*
X36935000Y-35705874D01*
X36935000Y-35294126D01*
X36777431Y-34913720D01*
X36486280Y-34622569D01*
X36105874Y-34465000D01*
X35694126Y-34465000D01*
X35313720Y-34622569D01*
X35022569Y-34913720D01*
X34865000Y-35294126D01*
X30940407Y-35294126D01*
X30940407Y-35174266D01*
X30767614Y-34757106D01*
X30448333Y-34437825D01*
X30031173Y-34265032D01*
X29579641Y-34265032D01*
X29162481Y-34437825D01*
X28843200Y-34757106D01*
X28670407Y-35174266D01*
X17930867Y-35174266D01*
X17962207Y-35142926D01*
X18135000Y-34725766D01*
X18135000Y-34274234D01*
X17962207Y-33857074D01*
X17642926Y-33537793D01*
X17225766Y-33365000D01*
X16774234Y-33365000D01*
X16357074Y-33537793D01*
X16037793Y-33857074D01*
X15865000Y-34274234D01*
X3335000Y-34274234D01*
X3162207Y-33857074D01*
X2842926Y-33537793D01*
X2425766Y-33365000D01*
X1974234Y-33365000D01*
X1557074Y-33537793D01*
X1237793Y-33857074D01*
X1065000Y-34274234D01*
X762000Y-34274234D01*
X762000Y-31774236D01*
X11665000Y-31774236D01*
X11665000Y-32225768D01*
X11837793Y-32642928D01*
X12157074Y-32962209D01*
X12574234Y-33135002D01*
X13025766Y-33135002D01*
X13442926Y-32962209D01*
X13762207Y-32642928D01*
X13935000Y-32225768D01*
X13935000Y-32206649D01*
X25667414Y-32206649D01*
X25667414Y-32658181D01*
X25840207Y-33075341D01*
X26159488Y-33394622D01*
X26576648Y-33567415D01*
X27028180Y-33567415D01*
X27445340Y-33394622D01*
X27764621Y-33075341D01*
X27765079Y-33074234D01*
X38465000Y-33074234D01*
X38465000Y-33525766D01*
X38637793Y-33942926D01*
X38957074Y-34262207D01*
X39374234Y-34435000D01*
X39825766Y-34435000D01*
X40242926Y-34262207D01*
X40562207Y-33942926D01*
X40735000Y-33525766D01*
X40735000Y-33174234D01*
X42165000Y-33174234D01*
X42165000Y-33625766D01*
X42337793Y-34042926D01*
X42657074Y-34362207D01*
X43074234Y-34535000D01*
X43525766Y-34535000D01*
X43942926Y-34362207D01*
X44262207Y-34042926D01*
X44435000Y-33625766D01*
X44435000Y-33174234D01*
X44311198Y-32875349D01*
X44342926Y-32862207D01*
X44662207Y-32542926D01*
X44835000Y-32125766D01*
X44835000Y-31674234D01*
X44662207Y-31257074D01*
X44342926Y-30937793D01*
X43925766Y-30765000D01*
X43474234Y-30765000D01*
X43057074Y-30937793D01*
X42737793Y-31257074D01*
X42565000Y-31674234D01*
X42565000Y-32125766D01*
X42688802Y-32424651D01*
X42657074Y-32437793D01*
X42337793Y-32757074D01*
X42165000Y-33174234D01*
X40735000Y-33174234D01*
X40735000Y-33074234D01*
X40562207Y-32657074D01*
X40518153Y-32613020D01*
X40616737Y-32514436D01*
X40789530Y-32097276D01*
X40789530Y-31645744D01*
X40616737Y-31228584D01*
X40297456Y-30909303D01*
X39880296Y-30736510D01*
X39428764Y-30736510D01*
X39011604Y-30909303D01*
X38692323Y-31228584D01*
X38519530Y-31645744D01*
X38519530Y-32097276D01*
X38692323Y-32514436D01*
X38736377Y-32558490D01*
X38637793Y-32657074D01*
X38465000Y-33074234D01*
X27765079Y-33074234D01*
X27937414Y-32658181D01*
X27937414Y-32206649D01*
X27764621Y-31789489D01*
X27445340Y-31470208D01*
X27028180Y-31297415D01*
X26576648Y-31297415D01*
X26159488Y-31470208D01*
X25840207Y-31789489D01*
X25667414Y-32206649D01*
X13935000Y-32206649D01*
X13935000Y-31774236D01*
X13762207Y-31357076D01*
X13442926Y-31037795D01*
X13025766Y-30865002D01*
X12574234Y-30865002D01*
X12157074Y-31037795D01*
X11837793Y-31357076D01*
X11665000Y-31774236D01*
X762000Y-31774236D01*
X762000Y-31597429D01*
X1094126Y-31735000D01*
X1505874Y-31735000D01*
X1886280Y-31577431D01*
X2177431Y-31286280D01*
X2335000Y-30905874D01*
X2335000Y-30494126D01*
X2177431Y-30113720D01*
X1886280Y-29822569D01*
X1505874Y-29665000D01*
X1094126Y-29665000D01*
X762000Y-29802571D01*
X762000Y-27894126D01*
X2265000Y-27894126D01*
X2265000Y-28305874D01*
X2422569Y-28686280D01*
X2575342Y-28839053D01*
X2500757Y-29019116D01*
X2500757Y-29430864D01*
X2658326Y-29811270D01*
X2949477Y-30102421D01*
X3329883Y-30259990D01*
X3741631Y-30259990D01*
X4122037Y-30102421D01*
X4413188Y-29811270D01*
X4570757Y-29430864D01*
X4570757Y-29094136D01*
X10909267Y-29094136D01*
X10909267Y-29505884D01*
X11066836Y-29886290D01*
X11357987Y-30177441D01*
X11738393Y-30335010D01*
X12150141Y-30335010D01*
X12530547Y-30177441D01*
X12669683Y-30038305D01*
X14884279Y-30038305D01*
X14884279Y-30450053D01*
X15041848Y-30830459D01*
X15332999Y-31121610D01*
X15713405Y-31279179D01*
X16125153Y-31279179D01*
X16505559Y-31121610D01*
X16796710Y-30830459D01*
X16954279Y-30450053D01*
X16954279Y-30038305D01*
X16796710Y-29657899D01*
X16505559Y-29366748D01*
X16125153Y-29209179D01*
X15713405Y-29209179D01*
X15332999Y-29366748D01*
X15041848Y-29657899D01*
X14884279Y-30038305D01*
X12669683Y-30038305D01*
X12821698Y-29886290D01*
X12979267Y-29505884D01*
X12979267Y-29094136D01*
X12948193Y-29019116D01*
X17465011Y-29019116D01*
X17465011Y-29430864D01*
X17622580Y-29811270D01*
X17913731Y-30102421D01*
X18294137Y-30259990D01*
X18705885Y-30259990D01*
X19086291Y-30102421D01*
X19314478Y-29874234D01*
X24065000Y-29874234D01*
X24065000Y-30325766D01*
X24237793Y-30742926D01*
X24557074Y-31062207D01*
X24974234Y-31235000D01*
X25425766Y-31235000D01*
X25842926Y-31062207D01*
X26162207Y-30742926D01*
X26335000Y-30325766D01*
X26335000Y-30294126D01*
X34765000Y-30294126D01*
X34765000Y-30705874D01*
X34922569Y-31086280D01*
X35213720Y-31377431D01*
X35594126Y-31535000D01*
X36005874Y-31535000D01*
X36386280Y-31377431D01*
X36677431Y-31086280D01*
X36835000Y-30705874D01*
X36835000Y-30374234D01*
X47565000Y-30374234D01*
X47565000Y-30825766D01*
X47737793Y-31242926D01*
X48057074Y-31562207D01*
X48474234Y-31735000D01*
X48925766Y-31735000D01*
X49342926Y-31562207D01*
X49662207Y-31242926D01*
X49835000Y-30825766D01*
X49835000Y-30381514D01*
X50086280Y-30277431D01*
X50377431Y-29986280D01*
X50535000Y-29605874D01*
X50535000Y-29194126D01*
X50377431Y-28813720D01*
X50086280Y-28522569D01*
X49705874Y-28365000D01*
X49294126Y-28365000D01*
X48913720Y-28522569D01*
X48622569Y-28813720D01*
X48465000Y-29194126D01*
X48465000Y-29468825D01*
X48057074Y-29637793D01*
X47737793Y-29957074D01*
X47565000Y-30374234D01*
X36835000Y-30374234D01*
X36835000Y-30294126D01*
X36677431Y-29913720D01*
X36386280Y-29622569D01*
X36005874Y-29465000D01*
X35594126Y-29465000D01*
X35213720Y-29622569D01*
X34922569Y-29913720D01*
X34765000Y-30294126D01*
X26335000Y-30294126D01*
X26335000Y-29874234D01*
X26162207Y-29457074D01*
X25842926Y-29137793D01*
X25425766Y-28965000D01*
X24974234Y-28965000D01*
X24557074Y-29137793D01*
X24237793Y-29457074D01*
X24065000Y-29874234D01*
X19314478Y-29874234D01*
X19377442Y-29811270D01*
X19535011Y-29430864D01*
X19535011Y-29019116D01*
X19377442Y-28638710D01*
X19086291Y-28347559D01*
X18705885Y-28189990D01*
X18294137Y-28189990D01*
X17913731Y-28347559D01*
X17622580Y-28638710D01*
X17465011Y-29019116D01*
X12948193Y-29019116D01*
X12821698Y-28713730D01*
X12530547Y-28422579D01*
X12150141Y-28265010D01*
X11738393Y-28265010D01*
X11357987Y-28422579D01*
X11066836Y-28713730D01*
X10909267Y-29094136D01*
X4570757Y-29094136D01*
X4570757Y-29019116D01*
X4413188Y-28638710D01*
X4260415Y-28485937D01*
X4335000Y-28305874D01*
X4335000Y-27894126D01*
X4177431Y-27513720D01*
X3886280Y-27222569D01*
X3505874Y-27065000D01*
X3094126Y-27065000D01*
X2713720Y-27222569D01*
X2422569Y-27513720D01*
X2265000Y-27894126D01*
X762000Y-27894126D01*
X762000Y-25694126D01*
X6165000Y-25694126D01*
X6165000Y-26105874D01*
X6322569Y-26486280D01*
X6613720Y-26777431D01*
X6994126Y-26935000D01*
X7405874Y-26935000D01*
X7786280Y-26777431D01*
X7869585Y-26694126D01*
X17165000Y-26694126D01*
X17165000Y-27105874D01*
X17322569Y-27486280D01*
X17613720Y-27777431D01*
X17994126Y-27935000D01*
X18405874Y-27935000D01*
X18786280Y-27777431D01*
X19077431Y-27486280D01*
X19235000Y-27105874D01*
X19235000Y-27074234D01*
X27565000Y-27074234D01*
X27565000Y-27525766D01*
X27737793Y-27942926D01*
X28057074Y-28262207D01*
X28474234Y-28435000D01*
X28925766Y-28435000D01*
X29342926Y-28262207D01*
X29662207Y-27942926D01*
X29835000Y-27525766D01*
X29835000Y-27074234D01*
X29760397Y-26894126D01*
X34765004Y-26894126D01*
X34765004Y-27305874D01*
X34922573Y-27686280D01*
X35213724Y-27977431D01*
X35594130Y-28135000D01*
X36005878Y-28135000D01*
X36386284Y-27977431D01*
X36677435Y-27686280D01*
X36835004Y-27305874D01*
X36835004Y-26894126D01*
X36677435Y-26513720D01*
X36386284Y-26222569D01*
X36005878Y-26065000D01*
X35594130Y-26065000D01*
X35213724Y-26222569D01*
X34922573Y-26513720D01*
X34765004Y-26894126D01*
X29760397Y-26894126D01*
X29662207Y-26657074D01*
X29342926Y-26337793D01*
X28925766Y-26165000D01*
X28474234Y-26165000D01*
X28057074Y-26337793D01*
X27737793Y-26657074D01*
X27565000Y-27074234D01*
X19235000Y-27074234D01*
X19235000Y-26694126D01*
X19077431Y-26313720D01*
X18786280Y-26022569D01*
X18405874Y-25865000D01*
X17994126Y-25865000D01*
X17613720Y-26022569D01*
X17322569Y-26313720D01*
X17165000Y-26694126D01*
X7869585Y-26694126D01*
X8077431Y-26486280D01*
X8235000Y-26105874D01*
X8235000Y-25694126D01*
X8077431Y-25313720D01*
X7786280Y-25022569D01*
X7405874Y-24865000D01*
X6994126Y-24865000D01*
X6613720Y-25022569D01*
X6322569Y-25313720D01*
X6165000Y-25694126D01*
X762000Y-25694126D01*
X762000Y-23625711D01*
X813720Y-23677431D01*
X1194126Y-23835000D01*
X1605874Y-23835000D01*
X1986280Y-23677431D01*
X2277431Y-23386280D01*
X2435000Y-23005874D01*
X2435000Y-22894126D01*
X10565000Y-22894126D01*
X10565000Y-23305874D01*
X10722569Y-23686280D01*
X11011295Y-23975006D01*
X10922569Y-24063732D01*
X10765000Y-24444138D01*
X10765000Y-24855886D01*
X10922569Y-25236292D01*
X11213720Y-25527443D01*
X11594126Y-25685012D01*
X12005874Y-25685012D01*
X12148848Y-25625790D01*
X20497902Y-25625790D01*
X20497902Y-26037538D01*
X20655471Y-26417944D01*
X20946622Y-26709095D01*
X21327028Y-26866664D01*
X21738776Y-26866664D01*
X22119182Y-26709095D01*
X22410333Y-26417944D01*
X22567902Y-26037538D01*
X22567902Y-25625790D01*
X22410333Y-25245384D01*
X22119182Y-24954233D01*
X21738776Y-24796664D01*
X21327028Y-24796664D01*
X20946622Y-24954233D01*
X20655471Y-25245384D01*
X20497902Y-25625790D01*
X12148848Y-25625790D01*
X12386280Y-25527443D01*
X12677431Y-25236292D01*
X12835000Y-24855886D01*
X12835000Y-24444138D01*
X12778312Y-24307280D01*
X25064990Y-24307280D01*
X25064990Y-24719028D01*
X25222559Y-25099434D01*
X25513710Y-25390585D01*
X25894116Y-25548154D01*
X26305864Y-25548154D01*
X26686270Y-25390585D01*
X26977421Y-25099434D01*
X27134990Y-24719028D01*
X27134990Y-24307280D01*
X27033306Y-24061791D01*
X27169717Y-23925380D01*
X27190902Y-23874234D01*
X31365012Y-23874234D01*
X31365012Y-24325766D01*
X31537805Y-24742926D01*
X31857086Y-25062207D01*
X32274246Y-25235000D01*
X32725778Y-25235000D01*
X33142938Y-25062207D01*
X33462219Y-24742926D01*
X33532093Y-24574234D01*
X39665000Y-24574234D01*
X39665000Y-25025766D01*
X39837793Y-25442926D01*
X40157074Y-25762207D01*
X40574234Y-25935000D01*
X41025766Y-25935000D01*
X41442926Y-25762207D01*
X41465000Y-25740133D01*
X41465000Y-25825764D01*
X41637793Y-26242924D01*
X41957074Y-26562205D01*
X42374234Y-26734998D01*
X42825766Y-26734998D01*
X43242926Y-26562205D01*
X43562207Y-26242924D01*
X43735000Y-25825764D01*
X43735000Y-25374232D01*
X43562207Y-24957072D01*
X43242926Y-24637791D01*
X42825766Y-24464998D01*
X42374234Y-24464998D01*
X41957074Y-24637791D01*
X41935000Y-24659865D01*
X41935000Y-24574234D01*
X41762207Y-24157074D01*
X41442926Y-23837793D01*
X41025766Y-23665000D01*
X40574234Y-23665000D01*
X40157074Y-23837793D01*
X39837793Y-24157074D01*
X39665000Y-24574234D01*
X33532093Y-24574234D01*
X33635012Y-24325766D01*
X33635012Y-23874234D01*
X33462219Y-23457074D01*
X33142938Y-23137793D01*
X32725778Y-22965000D01*
X32274246Y-22965000D01*
X31857086Y-23137793D01*
X31537805Y-23457074D01*
X31365012Y-23874234D01*
X27190902Y-23874234D01*
X27327286Y-23544974D01*
X27327286Y-23133226D01*
X27169717Y-22752820D01*
X26878566Y-22461669D01*
X26498160Y-22304100D01*
X26086412Y-22304100D01*
X25706006Y-22461669D01*
X25414855Y-22752820D01*
X25257286Y-23133226D01*
X25257286Y-23544974D01*
X25358970Y-23790463D01*
X25222559Y-23926874D01*
X25064990Y-24307280D01*
X12778312Y-24307280D01*
X12677431Y-24063732D01*
X12388705Y-23775006D01*
X12477431Y-23686280D01*
X12635000Y-23305874D01*
X12635000Y-22894126D01*
X12552152Y-22694112D01*
X15065000Y-22694112D01*
X15065000Y-23105860D01*
X15222569Y-23486266D01*
X15513720Y-23777417D01*
X15894126Y-23934986D01*
X16305874Y-23934986D01*
X16686280Y-23777417D01*
X16977431Y-23486266D01*
X17135000Y-23105860D01*
X17135000Y-22694112D01*
X16977431Y-22313706D01*
X16686280Y-22022555D01*
X16305874Y-21864986D01*
X15894126Y-21864986D01*
X15513720Y-22022555D01*
X15222569Y-22313706D01*
X15065000Y-22694112D01*
X12552152Y-22694112D01*
X12477431Y-22513720D01*
X12186280Y-22222569D01*
X11805874Y-22065000D01*
X11394126Y-22065000D01*
X11013720Y-22222569D01*
X10722569Y-22513720D01*
X10565000Y-22894126D01*
X2435000Y-22894126D01*
X2435000Y-22594126D01*
X2277431Y-22213720D01*
X1986280Y-21922569D01*
X1605874Y-21765000D01*
X1194126Y-21765000D01*
X813720Y-21922569D01*
X762000Y-21974289D01*
X762000Y-20094126D01*
X4765000Y-20094126D01*
X4765000Y-20505874D01*
X4922569Y-20886280D01*
X5213720Y-21177431D01*
X5594126Y-21335000D01*
X6005874Y-21335000D01*
X6386280Y-21177431D01*
X6677431Y-20886280D01*
X6835000Y-20505874D01*
X6835000Y-20094126D01*
X19565000Y-20094126D01*
X19565000Y-20505874D01*
X19722569Y-20886280D01*
X20013720Y-21177431D01*
X20394126Y-21335000D01*
X20805874Y-21335000D01*
X21186280Y-21177431D01*
X21477431Y-20886280D01*
X21635000Y-20505874D01*
X21635000Y-20094126D01*
X21496527Y-19759820D01*
X29730692Y-19759820D01*
X29730692Y-20171568D01*
X29888261Y-20551974D01*
X30179412Y-20843125D01*
X30559818Y-21000694D01*
X30971566Y-21000694D01*
X31351972Y-20843125D01*
X31643123Y-20551974D01*
X31800692Y-20171568D01*
X31800692Y-19759820D01*
X31643123Y-19379414D01*
X31351972Y-19088263D01*
X30971566Y-18930694D01*
X30559818Y-18930694D01*
X30179412Y-19088263D01*
X29888261Y-19379414D01*
X29730692Y-19759820D01*
X21496527Y-19759820D01*
X21477431Y-19713720D01*
X21186280Y-19422569D01*
X20805874Y-19265000D01*
X20394126Y-19265000D01*
X20013720Y-19422569D01*
X19722569Y-19713720D01*
X19565000Y-20094126D01*
X6835000Y-20094126D01*
X6677431Y-19713720D01*
X6386280Y-19422569D01*
X6005874Y-19265000D01*
X5594126Y-19265000D01*
X5213720Y-19422569D01*
X4922569Y-19713720D01*
X4765000Y-20094126D01*
X762000Y-20094126D01*
X762000Y-17794126D01*
X4739990Y-17794126D01*
X4739990Y-18205874D01*
X4897559Y-18586280D01*
X5188710Y-18877431D01*
X5569116Y-19035000D01*
X5980864Y-19035000D01*
X6361270Y-18877431D01*
X6652421Y-18586280D01*
X6809990Y-18205874D01*
X6809990Y-17794126D01*
X19539990Y-17794126D01*
X19539990Y-18205874D01*
X19697559Y-18586280D01*
X19988710Y-18877431D01*
X20369116Y-19035000D01*
X20780864Y-19035000D01*
X21161270Y-18877431D01*
X21452421Y-18586280D01*
X21609990Y-18205874D01*
X21609990Y-17794126D01*
X21452421Y-17413720D01*
X21161270Y-17122569D01*
X20780864Y-16965000D01*
X20369116Y-16965000D01*
X19988710Y-17122569D01*
X19697559Y-17413720D01*
X19539990Y-17794126D01*
X6809990Y-17794126D01*
X6652421Y-17413720D01*
X6361270Y-17122569D01*
X5980864Y-16965000D01*
X5569116Y-16965000D01*
X5188710Y-17122569D01*
X4897559Y-17413720D01*
X4739990Y-17794126D01*
X762000Y-17794126D01*
X762000Y-16794126D01*
X31865000Y-16794126D01*
X31865000Y-17205874D01*
X32022569Y-17586280D01*
X32313720Y-17877431D01*
X32600724Y-17996312D01*
X32358326Y-18238710D01*
X32200757Y-18619116D01*
X32200757Y-19030864D01*
X32358326Y-19411270D01*
X32649477Y-19702421D01*
X33029883Y-19859990D01*
X33441631Y-19859990D01*
X33822037Y-19702421D01*
X34113188Y-19411270D01*
X34244306Y-19094722D01*
X40378477Y-19094722D01*
X40378477Y-19546254D01*
X40551270Y-19963414D01*
X40870551Y-20282695D01*
X40970699Y-20324178D01*
X40737791Y-20557086D01*
X40564998Y-20974246D01*
X40564998Y-21425778D01*
X40737791Y-21842938D01*
X41057072Y-22162219D01*
X41474232Y-22335012D01*
X41925764Y-22335012D01*
X42342924Y-22162219D01*
X42657078Y-21848065D01*
X42737793Y-22042927D01*
X43057074Y-22362208D01*
X43474234Y-22535001D01*
X43925766Y-22535001D01*
X44342926Y-22362208D01*
X44662207Y-22042927D01*
X44835000Y-21625767D01*
X44835000Y-21201758D01*
X45216628Y-21359833D01*
X45511925Y-21359833D01*
X45409791Y-21606406D01*
X45409791Y-22018154D01*
X45567360Y-22398560D01*
X45858511Y-22689711D01*
X46238917Y-22847280D01*
X46507413Y-22847280D01*
X46407576Y-22947117D01*
X46234783Y-23364277D01*
X46234783Y-23815809D01*
X46407576Y-24232969D01*
X46726857Y-24552250D01*
X47144017Y-24725043D01*
X47595549Y-24725043D01*
X48012709Y-24552250D01*
X48331990Y-24232969D01*
X48504783Y-23815809D01*
X48504783Y-23364277D01*
X48331990Y-22947117D01*
X48012709Y-22627836D01*
X47595549Y-22455043D01*
X47265739Y-22455043D01*
X47322222Y-22398560D01*
X47479791Y-22018154D01*
X47479791Y-21606406D01*
X47322222Y-21226000D01*
X47031071Y-20934849D01*
X46650665Y-20777280D01*
X46442079Y-20777280D01*
X46577394Y-20450599D01*
X46577394Y-19999067D01*
X46404601Y-19581907D01*
X46085320Y-19262626D01*
X45668160Y-19089833D01*
X45324595Y-19089833D01*
X45324595Y-18647056D01*
X45151802Y-18229896D01*
X44856906Y-17935000D01*
X45225766Y-17935000D01*
X45642926Y-17762207D01*
X45962207Y-17442926D01*
X46019410Y-17304825D01*
X47116823Y-17304825D01*
X47116823Y-17716573D01*
X47274392Y-18096979D01*
X47445965Y-18268552D01*
X47300757Y-18619116D01*
X47300757Y-19030864D01*
X47458326Y-19411270D01*
X47749477Y-19702421D01*
X48129883Y-19859990D01*
X48541631Y-19859990D01*
X48841889Y-19735619D01*
X53953577Y-19735619D01*
X53953577Y-20187151D01*
X54126370Y-20604311D01*
X54445651Y-20923592D01*
X54862811Y-21096385D01*
X55314343Y-21096385D01*
X55731503Y-20923592D01*
X56050784Y-20604311D01*
X56223577Y-20187151D01*
X56223577Y-19735619D01*
X56050784Y-19318459D01*
X55731503Y-18999178D01*
X55314343Y-18826385D01*
X54862811Y-18826385D01*
X54445651Y-18999178D01*
X54126370Y-19318459D01*
X53953577Y-19735619D01*
X48841889Y-19735619D01*
X48922037Y-19702421D01*
X49213188Y-19411270D01*
X49370757Y-19030864D01*
X49370757Y-18619116D01*
X49213188Y-18238710D01*
X49086474Y-18111996D01*
X56475971Y-18111996D01*
X56475971Y-18563528D01*
X56648764Y-18980688D01*
X56968045Y-19299969D01*
X57385205Y-19472762D01*
X57836737Y-19472762D01*
X58253897Y-19299969D01*
X58573178Y-18980688D01*
X58745971Y-18563528D01*
X58745971Y-18111996D01*
X58573178Y-17694836D01*
X58253897Y-17375555D01*
X57836737Y-17202762D01*
X57385205Y-17202762D01*
X56968045Y-17375555D01*
X56648764Y-17694836D01*
X56475971Y-18111996D01*
X49086474Y-18111996D01*
X49041615Y-18067137D01*
X49186823Y-17716573D01*
X49186823Y-17304825D01*
X49029254Y-16924419D01*
X48884273Y-16779438D01*
X49077431Y-16586280D01*
X49235000Y-16205874D01*
X49235000Y-15794126D01*
X49077431Y-15413720D01*
X48786280Y-15122569D01*
X48405874Y-14965000D01*
X47994126Y-14965000D01*
X47613720Y-15122569D01*
X47322569Y-15413720D01*
X47165000Y-15794126D01*
X47165000Y-16205874D01*
X47322569Y-16586280D01*
X47467550Y-16731261D01*
X47274392Y-16924419D01*
X47116823Y-17304825D01*
X46019410Y-17304825D01*
X46135000Y-17025766D01*
X46135000Y-16574234D01*
X45962207Y-16157074D01*
X45642926Y-15837793D01*
X45225766Y-15665000D01*
X44774234Y-15665000D01*
X44357074Y-15837793D01*
X44037793Y-16157074D01*
X43865000Y-16574234D01*
X43865000Y-17025766D01*
X44037793Y-17442926D01*
X44332689Y-17737822D01*
X43963829Y-17737822D01*
X43546669Y-17910615D01*
X43367967Y-18089317D01*
X43222579Y-17738320D01*
X42903298Y-17419039D01*
X42486138Y-17246246D01*
X42034606Y-17246246D01*
X41617446Y-17419039D01*
X41298165Y-17738320D01*
X41125372Y-18155480D01*
X41125372Y-18252731D01*
X40870551Y-18358281D01*
X40551270Y-18677562D01*
X40378477Y-19094722D01*
X34244306Y-19094722D01*
X34270757Y-19030864D01*
X34270757Y-18619116D01*
X34113188Y-18238710D01*
X33822037Y-17947559D01*
X33535033Y-17828678D01*
X33777431Y-17586280D01*
X33935000Y-17205874D01*
X33935000Y-16794126D01*
X33777431Y-16413720D01*
X33713711Y-16350000D01*
X33977431Y-16086280D01*
X34135000Y-15705874D01*
X34135000Y-15294126D01*
X33977431Y-14913720D01*
X33686280Y-14622569D01*
X33305874Y-14465000D01*
X32894126Y-14465000D01*
X32513720Y-14622569D01*
X32222569Y-14913720D01*
X32065000Y-15294126D01*
X32065000Y-15705874D01*
X32222569Y-16086280D01*
X32286289Y-16150000D01*
X32022569Y-16413720D01*
X31865000Y-16794126D01*
X762000Y-16794126D01*
X762000Y-15094126D01*
X3665000Y-15094126D01*
X3665000Y-15505874D01*
X3822569Y-15886280D01*
X4113720Y-16177431D01*
X4494126Y-16335000D01*
X4905874Y-16335000D01*
X5286280Y-16177431D01*
X5577431Y-15886280D01*
X5735000Y-15505874D01*
X5735000Y-15094126D01*
X18465000Y-15094126D01*
X18465000Y-15505874D01*
X18622569Y-15886280D01*
X18913720Y-16177431D01*
X19294126Y-16335000D01*
X19705874Y-16335000D01*
X20086280Y-16177431D01*
X20377431Y-15886280D01*
X20535000Y-15505874D01*
X20535000Y-15094126D01*
X20377431Y-14713720D01*
X20086280Y-14422569D01*
X19705874Y-14265000D01*
X19294126Y-14265000D01*
X18913720Y-14422569D01*
X18622569Y-14713720D01*
X18465000Y-15094126D01*
X5735000Y-15094126D01*
X5577431Y-14713720D01*
X5286280Y-14422569D01*
X4905874Y-14265000D01*
X4494126Y-14265000D01*
X4113720Y-14422569D01*
X3822569Y-14713720D01*
X3665000Y-15094126D01*
X762000Y-15094126D01*
X762000Y-12694126D01*
X1465000Y-12694126D01*
X1465000Y-13105874D01*
X1622569Y-13486280D01*
X1913720Y-13777431D01*
X2294126Y-13935000D01*
X2705874Y-13935000D01*
X3045974Y-13794126D01*
X11565000Y-13794126D01*
X11565000Y-14205874D01*
X11722569Y-14586280D01*
X12013720Y-14877431D01*
X12394126Y-15035000D01*
X12805874Y-15035000D01*
X13186280Y-14877431D01*
X13477431Y-14586280D01*
X13635000Y-14205874D01*
X13635000Y-13794126D01*
X13477431Y-13413720D01*
X13186280Y-13122569D01*
X12805874Y-12965000D01*
X12394126Y-12965000D01*
X12013720Y-13122569D01*
X11722569Y-13413720D01*
X11565000Y-13794126D01*
X3045974Y-13794126D01*
X3086280Y-13777431D01*
X3377431Y-13486280D01*
X3535000Y-13105874D01*
X3535000Y-12694126D01*
X16565000Y-12694126D01*
X16565000Y-13105874D01*
X16722569Y-13486280D01*
X17013720Y-13777431D01*
X17394126Y-13935000D01*
X17805874Y-13935000D01*
X17904552Y-13894126D01*
X26365000Y-13894126D01*
X26365000Y-14305874D01*
X26522569Y-14686280D01*
X26813720Y-14977431D01*
X27194126Y-15135000D01*
X27605874Y-15135000D01*
X27986280Y-14977431D01*
X28277431Y-14686280D01*
X28435000Y-14305874D01*
X28435000Y-13894126D01*
X28277431Y-13513720D01*
X27986280Y-13222569D01*
X27605874Y-13065000D01*
X27194126Y-13065000D01*
X26813720Y-13222569D01*
X26522569Y-13513720D01*
X26365000Y-13894126D01*
X17904552Y-13894126D01*
X18186280Y-13777431D01*
X18477431Y-13486280D01*
X18635000Y-13105874D01*
X18635000Y-12694126D01*
X18477431Y-12313720D01*
X18457835Y-12294124D01*
X29865000Y-12294124D01*
X29865000Y-12705872D01*
X30022569Y-13086278D01*
X30313720Y-13377429D01*
X30694126Y-13534998D01*
X31105874Y-13534998D01*
X31486280Y-13377429D01*
X31777431Y-13086278D01*
X31935000Y-12705872D01*
X31935000Y-12421192D01*
X40321700Y-12421192D01*
X40321700Y-12832940D01*
X40479269Y-13213346D01*
X40770420Y-13504497D01*
X40849180Y-13537121D01*
X40722569Y-13663732D01*
X40565000Y-14044138D01*
X40565000Y-14455886D01*
X40722569Y-14836292D01*
X41013720Y-15127443D01*
X41394126Y-15285012D01*
X41805874Y-15285012D01*
X42186280Y-15127443D01*
X42477431Y-14836292D01*
X42635000Y-14455886D01*
X42635000Y-14044138D01*
X42477431Y-13663732D01*
X42186280Y-13372581D01*
X42107520Y-13339957D01*
X42234131Y-13213346D01*
X42391700Y-12832940D01*
X42391700Y-12421192D01*
X42297647Y-12194126D01*
X44865000Y-12194126D01*
X44865000Y-12605874D01*
X45022569Y-12986280D01*
X45313720Y-13277431D01*
X45694126Y-13435000D01*
X46105874Y-13435000D01*
X46486280Y-13277431D01*
X46777431Y-12986280D01*
X46935000Y-12605874D01*
X46935000Y-12494118D01*
X55255908Y-12494118D01*
X55255908Y-12905866D01*
X55413477Y-13286272D01*
X55704628Y-13577423D01*
X55830942Y-13629744D01*
X55690330Y-13770356D01*
X55532761Y-14150762D01*
X55532761Y-14562510D01*
X55690330Y-14942916D01*
X55981481Y-15234067D01*
X56361887Y-15391636D01*
X56773635Y-15391636D01*
X57154041Y-15234067D01*
X57445192Y-14942916D01*
X57602761Y-14562510D01*
X57602761Y-14150762D01*
X57445192Y-13770356D01*
X57154041Y-13479205D01*
X57027727Y-13426884D01*
X57168339Y-13286272D01*
X57325908Y-12905866D01*
X57325908Y-12494118D01*
X57168339Y-12113712D01*
X56877188Y-11822561D01*
X56496782Y-11664992D01*
X56085034Y-11664992D01*
X55704628Y-11822561D01*
X55413477Y-12113712D01*
X55255908Y-12494118D01*
X46935000Y-12494118D01*
X46935000Y-12194126D01*
X46777431Y-11813720D01*
X46621123Y-11657412D01*
X62317756Y-11657412D01*
X62317756Y-12069160D01*
X62475325Y-12449566D01*
X62766476Y-12740717D01*
X63146882Y-12898286D01*
X63558630Y-12898286D01*
X63939036Y-12740717D01*
X64230187Y-12449566D01*
X64387756Y-12069160D01*
X64387756Y-11994126D01*
X66365000Y-11994126D01*
X66365000Y-12405874D01*
X66522569Y-12786280D01*
X66813720Y-13077431D01*
X67194126Y-13235000D01*
X67605874Y-13235000D01*
X67986280Y-13077431D01*
X68277431Y-12786280D01*
X68435000Y-12405874D01*
X68435000Y-11994126D01*
X68327973Y-11735738D01*
X68477431Y-11586280D01*
X68635000Y-11205874D01*
X68635000Y-10794126D01*
X68492459Y-10450000D01*
X68635000Y-10105874D01*
X68635000Y-9694126D01*
X68477431Y-9313720D01*
X68186280Y-9022569D01*
X67805874Y-8865000D01*
X67394126Y-8865000D01*
X67013720Y-9022569D01*
X66722569Y-9313720D01*
X66565000Y-9694126D01*
X66565000Y-10105874D01*
X66707541Y-10450000D01*
X66565000Y-10794126D01*
X66565000Y-11205874D01*
X66672027Y-11464262D01*
X66522569Y-11613720D01*
X66365000Y-11994126D01*
X64387756Y-11994126D01*
X64387756Y-11657412D01*
X64230187Y-11277006D01*
X63939036Y-10985855D01*
X63558630Y-10828286D01*
X63146882Y-10828286D01*
X62766476Y-10985855D01*
X62475325Y-11277006D01*
X62317756Y-11657412D01*
X46621123Y-11657412D01*
X46486280Y-11522569D01*
X46105874Y-11365000D01*
X45694126Y-11365000D01*
X45313720Y-11522569D01*
X45022569Y-11813720D01*
X44865000Y-12194126D01*
X42297647Y-12194126D01*
X42234131Y-12040786D01*
X41942980Y-11749635D01*
X41562574Y-11592066D01*
X41150826Y-11592066D01*
X40770420Y-11749635D01*
X40479269Y-12040786D01*
X40321700Y-12421192D01*
X31935000Y-12421192D01*
X31935000Y-12294124D01*
X31777431Y-11913718D01*
X31486280Y-11622567D01*
X31105874Y-11464998D01*
X30694126Y-11464998D01*
X30313720Y-11622567D01*
X30022569Y-11913718D01*
X29865000Y-12294124D01*
X18457835Y-12294124D01*
X18186280Y-12022569D01*
X17805874Y-11865000D01*
X17394126Y-11865000D01*
X17013720Y-12022569D01*
X16722569Y-12313720D01*
X16565000Y-12694126D01*
X3535000Y-12694126D01*
X3377431Y-12313720D01*
X3086280Y-12022569D01*
X2705874Y-11865000D01*
X2294126Y-11865000D01*
X1913720Y-12022569D01*
X1622569Y-12313720D01*
X1465000Y-12694126D01*
X762000Y-12694126D01*
X762000Y-9694126D01*
X34465000Y-9694126D01*
X34465000Y-10105874D01*
X34622569Y-10486280D01*
X34913720Y-10777431D01*
X35294126Y-10935000D01*
X35705874Y-10935000D01*
X36086280Y-10777431D01*
X36377431Y-10486280D01*
X36535000Y-10105874D01*
X36535000Y-9694126D01*
X49565000Y-9694126D01*
X49565000Y-10105874D01*
X49722569Y-10486280D01*
X50013720Y-10777431D01*
X50394126Y-10935000D01*
X50805874Y-10935000D01*
X51186280Y-10777431D01*
X51477431Y-10486280D01*
X51635000Y-10105874D01*
X51635000Y-9694126D01*
X51477431Y-9313720D01*
X51357836Y-9194125D01*
X60165000Y-9194125D01*
X60165000Y-9605873D01*
X60322569Y-9986279D01*
X60613720Y-10277430D01*
X60994126Y-10434999D01*
X61405874Y-10434999D01*
X61786280Y-10277430D01*
X62077431Y-9986279D01*
X62235000Y-9605873D01*
X62235000Y-9194125D01*
X62225220Y-9170513D01*
X64346634Y-9170513D01*
X64346634Y-9582261D01*
X64504203Y-9962667D01*
X64795354Y-10253818D01*
X65175760Y-10411387D01*
X65587508Y-10411387D01*
X65967914Y-10253818D01*
X66259065Y-9962667D01*
X66416634Y-9582261D01*
X66416634Y-9170513D01*
X66259065Y-8790107D01*
X65967914Y-8498956D01*
X65587508Y-8341387D01*
X65175760Y-8341387D01*
X64795354Y-8498956D01*
X64504203Y-8790107D01*
X64346634Y-9170513D01*
X62225220Y-9170513D01*
X62077431Y-8813719D01*
X61786280Y-8522568D01*
X61405874Y-8364999D01*
X60994126Y-8364999D01*
X60613720Y-8522568D01*
X60322569Y-8813719D01*
X60165000Y-9194125D01*
X51357836Y-9194125D01*
X51186280Y-9022569D01*
X50805874Y-8865000D01*
X50394126Y-8865000D01*
X50013720Y-9022569D01*
X49722569Y-9313720D01*
X49565000Y-9694126D01*
X36535000Y-9694126D01*
X36377431Y-9313720D01*
X36086280Y-9022569D01*
X35705874Y-8865000D01*
X35294126Y-8865000D01*
X34913720Y-9022569D01*
X34622569Y-9313720D01*
X34465000Y-9694126D01*
X762000Y-9694126D01*
X762000Y-7394126D01*
X34439990Y-7394126D01*
X34439990Y-7805874D01*
X34597559Y-8186280D01*
X34888710Y-8477431D01*
X35269116Y-8635000D01*
X35680864Y-8635000D01*
X36061270Y-8477431D01*
X36352421Y-8186280D01*
X36509990Y-7805874D01*
X36509990Y-7394126D01*
X49539990Y-7394126D01*
X49539990Y-7805874D01*
X49697559Y-8186280D01*
X49988710Y-8477431D01*
X50369116Y-8635000D01*
X50780864Y-8635000D01*
X51161270Y-8477431D01*
X51452421Y-8186280D01*
X51609990Y-7805874D01*
X51609990Y-7394126D01*
X51452421Y-7013720D01*
X51161270Y-6722569D01*
X50780864Y-6565000D01*
X50369116Y-6565000D01*
X49988710Y-6722569D01*
X49697559Y-7013720D01*
X49539990Y-7394126D01*
X36509990Y-7394126D01*
X36352421Y-7013720D01*
X36061270Y-6722569D01*
X35680864Y-6565000D01*
X35269116Y-6565000D01*
X34888710Y-6722569D01*
X34597559Y-7013720D01*
X34439990Y-7394126D01*
X762000Y-7394126D01*
X762000Y-6762000D01*
X2935208Y-6762000D01*
X3000000Y-6774888D01*
X3064792Y-6762000D01*
X3075048Y-6762000D01*
X3297317Y-6717788D01*
X3549371Y-6549371D01*
X3597580Y-6477221D01*
X5499479Y-4575322D01*
X10365000Y-4575322D01*
X10365000Y-5424678D01*
X10690034Y-6209380D01*
X11290620Y-6809966D01*
X12075322Y-7135000D01*
X12924678Y-7135000D01*
X13709380Y-6809966D01*
X14309966Y-6209380D01*
X14635000Y-5424678D01*
X14635000Y-4694126D01*
X33365000Y-4694126D01*
X33365000Y-5105874D01*
X33522569Y-5486280D01*
X33813720Y-5777431D01*
X34194126Y-5935000D01*
X34605874Y-5935000D01*
X34986280Y-5777431D01*
X35277431Y-5486280D01*
X35435000Y-5105874D01*
X35435000Y-4694126D01*
X35277431Y-4313720D01*
X34986280Y-4022569D01*
X34605874Y-3865000D01*
X34194126Y-3865000D01*
X33813720Y-4022569D01*
X33522569Y-4313720D01*
X33365000Y-4694126D01*
X14635000Y-4694126D01*
X14635000Y-4575322D01*
X14309966Y-3790620D01*
X13709380Y-3190034D01*
X12924678Y-2865000D01*
X12075322Y-2865000D01*
X11290620Y-3190034D01*
X10690034Y-3790620D01*
X10365000Y-4575322D01*
X5499479Y-4575322D01*
X7405665Y-2669136D01*
X31940661Y-2669136D01*
X31940661Y-3080884D01*
X32098230Y-3461290D01*
X32389381Y-3752441D01*
X32769787Y-3910010D01*
X33181535Y-3910010D01*
X33561941Y-3752441D01*
X33820256Y-3494126D01*
X41265000Y-3494126D01*
X41265000Y-3905874D01*
X41422569Y-4286280D01*
X41713720Y-4577431D01*
X42094126Y-4735000D01*
X42505874Y-4735000D01*
X42886280Y-4577431D01*
X43169587Y-4294124D01*
X46265000Y-4294124D01*
X46265000Y-4705872D01*
X46422569Y-5086278D01*
X46713720Y-5377429D01*
X47094126Y-5534998D01*
X47505874Y-5534998D01*
X47886280Y-5377429D01*
X48177431Y-5086278D01*
X48335000Y-4705872D01*
X48335000Y-4694126D01*
X48465000Y-4694126D01*
X48465000Y-5105874D01*
X48622569Y-5486280D01*
X48913720Y-5777431D01*
X49294126Y-5935000D01*
X49705874Y-5935000D01*
X50086280Y-5777431D01*
X50377431Y-5486280D01*
X50535000Y-5105874D01*
X50535000Y-4694126D01*
X50377431Y-4313720D01*
X50086280Y-4022569D01*
X49705874Y-3865000D01*
X49294126Y-3865000D01*
X48913720Y-4022569D01*
X48622569Y-4313720D01*
X48465000Y-4694126D01*
X48335000Y-4694126D01*
X48335000Y-4294124D01*
X48177431Y-3913718D01*
X47886280Y-3622567D01*
X47576196Y-3494126D01*
X53264999Y-3494126D01*
X53264999Y-3905874D01*
X53422568Y-4286280D01*
X53713719Y-4577431D01*
X54094125Y-4735000D01*
X54505873Y-4735000D01*
X54886279Y-4577431D01*
X54888388Y-4575322D01*
X60365000Y-4575322D01*
X60365000Y-5424678D01*
X60690034Y-6209380D01*
X61290620Y-6809966D01*
X62075322Y-7135000D01*
X62924678Y-7135000D01*
X63709380Y-6809966D01*
X64309966Y-6209380D01*
X64635000Y-5424678D01*
X64635000Y-4575322D01*
X64309966Y-3790620D01*
X63709380Y-3190034D01*
X62924678Y-2865000D01*
X62075322Y-2865000D01*
X61290620Y-3190034D01*
X60690034Y-3790620D01*
X60365000Y-4575322D01*
X54888388Y-4575322D01*
X55177430Y-4286280D01*
X55334999Y-3905874D01*
X55334999Y-3494126D01*
X55177430Y-3113720D01*
X54886279Y-2822569D01*
X54505873Y-2665000D01*
X54094125Y-2665000D01*
X53713719Y-2822569D01*
X53422568Y-3113720D01*
X53264999Y-3494126D01*
X47576196Y-3494126D01*
X47505874Y-3464998D01*
X47094126Y-3464998D01*
X46713720Y-3622567D01*
X46422569Y-3913718D01*
X46265000Y-4294124D01*
X43169587Y-4294124D01*
X43177431Y-4286280D01*
X43335000Y-3905874D01*
X43335000Y-3494126D01*
X43177431Y-3113720D01*
X42886280Y-2822569D01*
X42505874Y-2665000D01*
X42094126Y-2665000D01*
X41713720Y-2822569D01*
X41422569Y-3113720D01*
X41265000Y-3494126D01*
X33820256Y-3494126D01*
X33853092Y-3461290D01*
X34010661Y-3080884D01*
X34010661Y-2669136D01*
X33853092Y-2288730D01*
X33561941Y-1997579D01*
X33181535Y-1840010D01*
X32769787Y-1840010D01*
X32389381Y-1997579D01*
X32098230Y-2288730D01*
X31940661Y-2669136D01*
X7405665Y-2669136D01*
X7477224Y-2597578D01*
X7549371Y-2549371D01*
X7717788Y-2297317D01*
X7762000Y-2075048D01*
X7762000Y-2064793D01*
X7774888Y-2000001D01*
X7762000Y-1935209D01*
X7762000Y-762000D01*
X67240000Y-762000D01*
X67240001Y-1925148D01*
M02*
