G04 #@! TF.GenerationSoftware,KiCad,Pcbnew,(5.0.0-rc2-dev-70-g2da7199a3)*
G04 #@! TF.CreationDate,2018-03-19T21:57:51-04:00*
G04 #@! TF.ProjectId,analog,616E616C6F672E6B696361645F706362,rev?*
G04 #@! TF.SameCoordinates,Original*
G04 #@! TF.FileFunction,Legend,Top*
G04 #@! TF.FilePolarity,Positive*
%FSLAX46Y46*%
G04 Gerber Fmt 4.6, Leading zero omitted, Abs format (unit mm)*
G04 Created by KiCad (PCBNEW (5.0.0-rc2-dev-70-g2da7199a3)) date 03/19/18 21:57:51*
%MOMM*%
%LPD*%
G01*
G04 APERTURE LIST*
%ADD10C,0.120000*%
%ADD11C,0.150000*%
%ADD12C,0.350000*%
%ADD13C,0.200000*%
G04 APERTURE END LIST*
D10*
X40479136Y-42067820D02*
G75*
G03X40480000Y-36032518I-1179136J3017820D01*
G01*
X38120864Y-42067820D02*
G75*
G02X38120000Y-36032518I1179136J3017820D01*
G01*
X38120864Y-42067820D02*
G75*
G03X40480000Y-42067482I1179136J3017820D01*
G01*
X42500000Y-39050000D02*
X36100000Y-39050000D01*
X42500000Y-39090000D02*
X36100000Y-39090000D01*
X42500000Y-39130000D02*
X36100000Y-39130000D01*
X42498000Y-39170000D02*
X36102000Y-39170000D01*
X42497000Y-39210000D02*
X36103000Y-39210000D01*
X42494000Y-39250000D02*
X36106000Y-39250000D01*
X42492000Y-39290000D02*
X36108000Y-39290000D01*
X42488000Y-39330000D02*
X40280000Y-39330000D01*
X38320000Y-39330000D02*
X36112000Y-39330000D01*
X42485000Y-39370000D02*
X40280000Y-39370000D01*
X38320000Y-39370000D02*
X36115000Y-39370000D01*
X42480000Y-39410000D02*
X40280000Y-39410000D01*
X38320000Y-39410000D02*
X36120000Y-39410000D01*
X42476000Y-39450000D02*
X40280000Y-39450000D01*
X38320000Y-39450000D02*
X36124000Y-39450000D01*
X42470000Y-39490000D02*
X40280000Y-39490000D01*
X38320000Y-39490000D02*
X36130000Y-39490000D01*
X42465000Y-39530000D02*
X40280000Y-39530000D01*
X38320000Y-39530000D02*
X36135000Y-39530000D01*
X42458000Y-39570000D02*
X40280000Y-39570000D01*
X38320000Y-39570000D02*
X36142000Y-39570000D01*
X42452000Y-39610000D02*
X40280000Y-39610000D01*
X38320000Y-39610000D02*
X36148000Y-39610000D01*
X42444000Y-39650000D02*
X40280000Y-39650000D01*
X38320000Y-39650000D02*
X36156000Y-39650000D01*
X42437000Y-39690000D02*
X40280000Y-39690000D01*
X38320000Y-39690000D02*
X36163000Y-39690000D01*
X42428000Y-39730000D02*
X40280000Y-39730000D01*
X38320000Y-39730000D02*
X36172000Y-39730000D01*
X42419000Y-39771000D02*
X40280000Y-39771000D01*
X38320000Y-39771000D02*
X36181000Y-39771000D01*
X42410000Y-39811000D02*
X40280000Y-39811000D01*
X38320000Y-39811000D02*
X36190000Y-39811000D01*
X42400000Y-39851000D02*
X40280000Y-39851000D01*
X38320000Y-39851000D02*
X36200000Y-39851000D01*
X42390000Y-39891000D02*
X40280000Y-39891000D01*
X38320000Y-39891000D02*
X36210000Y-39891000D01*
X42379000Y-39931000D02*
X40280000Y-39931000D01*
X38320000Y-39931000D02*
X36221000Y-39931000D01*
X42367000Y-39971000D02*
X40280000Y-39971000D01*
X38320000Y-39971000D02*
X36233000Y-39971000D01*
X42355000Y-40011000D02*
X40280000Y-40011000D01*
X38320000Y-40011000D02*
X36245000Y-40011000D01*
X42342000Y-40051000D02*
X40280000Y-40051000D01*
X38320000Y-40051000D02*
X36258000Y-40051000D01*
X42329000Y-40091000D02*
X40280000Y-40091000D01*
X38320000Y-40091000D02*
X36271000Y-40091000D01*
X42315000Y-40131000D02*
X40280000Y-40131000D01*
X38320000Y-40131000D02*
X36285000Y-40131000D01*
X42301000Y-40171000D02*
X40280000Y-40171000D01*
X38320000Y-40171000D02*
X36299000Y-40171000D01*
X42286000Y-40211000D02*
X40280000Y-40211000D01*
X38320000Y-40211000D02*
X36314000Y-40211000D01*
X42270000Y-40251000D02*
X40280000Y-40251000D01*
X38320000Y-40251000D02*
X36330000Y-40251000D01*
X42254000Y-40291000D02*
X40280000Y-40291000D01*
X38320000Y-40291000D02*
X36346000Y-40291000D01*
X42237000Y-40331000D02*
X40280000Y-40331000D01*
X38320000Y-40331000D02*
X36363000Y-40331000D01*
X42219000Y-40371000D02*
X40280000Y-40371000D01*
X38320000Y-40371000D02*
X36381000Y-40371000D01*
X42201000Y-40411000D02*
X40280000Y-40411000D01*
X38320000Y-40411000D02*
X36399000Y-40411000D01*
X42182000Y-40451000D02*
X40280000Y-40451000D01*
X38320000Y-40451000D02*
X36418000Y-40451000D01*
X42163000Y-40491000D02*
X40280000Y-40491000D01*
X38320000Y-40491000D02*
X36437000Y-40491000D01*
X42143000Y-40531000D02*
X40280000Y-40531000D01*
X38320000Y-40531000D02*
X36457000Y-40531000D01*
X42122000Y-40571000D02*
X40280000Y-40571000D01*
X38320000Y-40571000D02*
X36478000Y-40571000D01*
X42100000Y-40611000D02*
X40280000Y-40611000D01*
X38320000Y-40611000D02*
X36500000Y-40611000D01*
X42078000Y-40651000D02*
X40280000Y-40651000D01*
X38320000Y-40651000D02*
X36522000Y-40651000D01*
X42055000Y-40691000D02*
X40280000Y-40691000D01*
X38320000Y-40691000D02*
X36545000Y-40691000D01*
X42031000Y-40731000D02*
X40280000Y-40731000D01*
X38320000Y-40731000D02*
X36569000Y-40731000D01*
X42006000Y-40771000D02*
X40280000Y-40771000D01*
X38320000Y-40771000D02*
X36594000Y-40771000D01*
X41981000Y-40811000D02*
X40280000Y-40811000D01*
X38320000Y-40811000D02*
X36619000Y-40811000D01*
X41954000Y-40851000D02*
X40280000Y-40851000D01*
X38320000Y-40851000D02*
X36646000Y-40851000D01*
X41927000Y-40891000D02*
X40280000Y-40891000D01*
X38320000Y-40891000D02*
X36673000Y-40891000D01*
X41899000Y-40931000D02*
X40280000Y-40931000D01*
X38320000Y-40931000D02*
X36701000Y-40931000D01*
X41870000Y-40971000D02*
X40280000Y-40971000D01*
X38320000Y-40971000D02*
X36730000Y-40971000D01*
X41840000Y-41011000D02*
X40280000Y-41011000D01*
X38320000Y-41011000D02*
X36760000Y-41011000D01*
X41810000Y-41051000D02*
X40280000Y-41051000D01*
X38320000Y-41051000D02*
X36790000Y-41051000D01*
X41778000Y-41091000D02*
X40280000Y-41091000D01*
X38320000Y-41091000D02*
X36822000Y-41091000D01*
X41745000Y-41131000D02*
X40280000Y-41131000D01*
X38320000Y-41131000D02*
X36855000Y-41131000D01*
X41711000Y-41171000D02*
X40280000Y-41171000D01*
X38320000Y-41171000D02*
X36889000Y-41171000D01*
X41675000Y-41211000D02*
X40280000Y-41211000D01*
X38320000Y-41211000D02*
X36925000Y-41211000D01*
X41639000Y-41251000D02*
X40280000Y-41251000D01*
X38320000Y-41251000D02*
X36961000Y-41251000D01*
X41601000Y-41291000D02*
X36999000Y-41291000D01*
X41562000Y-41331000D02*
X37038000Y-41331000D01*
X41522000Y-41371000D02*
X37078000Y-41371000D01*
X41480000Y-41411000D02*
X37120000Y-41411000D01*
X41437000Y-41451000D02*
X37163000Y-41451000D01*
X41392000Y-41491000D02*
X37208000Y-41491000D01*
X41345000Y-41531000D02*
X37255000Y-41531000D01*
X41297000Y-41571000D02*
X37303000Y-41571000D01*
X41246000Y-41611000D02*
X37354000Y-41611000D01*
X41194000Y-41651000D02*
X37406000Y-41651000D01*
X41139000Y-41691000D02*
X37461000Y-41691000D01*
X41081000Y-41731000D02*
X37519000Y-41731000D01*
X41021000Y-41771000D02*
X37579000Y-41771000D01*
X40958000Y-41811000D02*
X37642000Y-41811000D01*
X40891000Y-41851000D02*
X37709000Y-41851000D01*
X40820000Y-41891000D02*
X37780000Y-41891000D01*
X40745000Y-41931000D02*
X37855000Y-41931000D01*
X40664000Y-41971000D02*
X37936000Y-41971000D01*
X40578000Y-42011000D02*
X38022000Y-42011000D01*
X40484000Y-42051000D02*
X38116000Y-42051000D01*
X40381000Y-42091000D02*
X38219000Y-42091000D01*
X40266000Y-42131000D02*
X38334000Y-42131000D01*
X40134000Y-42171000D02*
X38466000Y-42171000D01*
X39976000Y-42211000D02*
X38624000Y-42211000D01*
X39768000Y-42251000D02*
X38832000Y-42251000D01*
X39300000Y-35600000D02*
X39300000Y-36800000D01*
X39950000Y-36200000D02*
X38650000Y-36200000D01*
X22650000Y-36700000D02*
X21350000Y-36700000D01*
X22000000Y-36100000D02*
X22000000Y-37300000D01*
X22468000Y-42751000D02*
X21532000Y-42751000D01*
X22676000Y-42711000D02*
X21324000Y-42711000D01*
X22834000Y-42671000D02*
X21166000Y-42671000D01*
X22966000Y-42631000D02*
X21034000Y-42631000D01*
X23081000Y-42591000D02*
X20919000Y-42591000D01*
X23184000Y-42551000D02*
X20816000Y-42551000D01*
X23278000Y-42511000D02*
X20722000Y-42511000D01*
X23364000Y-42471000D02*
X20636000Y-42471000D01*
X23445000Y-42431000D02*
X20555000Y-42431000D01*
X23520000Y-42391000D02*
X20480000Y-42391000D01*
X23591000Y-42351000D02*
X20409000Y-42351000D01*
X23658000Y-42311000D02*
X20342000Y-42311000D01*
X23721000Y-42271000D02*
X20279000Y-42271000D01*
X23781000Y-42231000D02*
X20219000Y-42231000D01*
X23839000Y-42191000D02*
X20161000Y-42191000D01*
X23894000Y-42151000D02*
X20106000Y-42151000D01*
X23946000Y-42111000D02*
X20054000Y-42111000D01*
X23997000Y-42071000D02*
X20003000Y-42071000D01*
X24045000Y-42031000D02*
X19955000Y-42031000D01*
X24092000Y-41991000D02*
X19908000Y-41991000D01*
X24137000Y-41951000D02*
X19863000Y-41951000D01*
X24180000Y-41911000D02*
X19820000Y-41911000D01*
X24222000Y-41871000D02*
X19778000Y-41871000D01*
X24262000Y-41831000D02*
X19738000Y-41831000D01*
X24301000Y-41791000D02*
X19699000Y-41791000D01*
X21020000Y-41751000D02*
X19661000Y-41751000D01*
X24339000Y-41751000D02*
X22980000Y-41751000D01*
X21020000Y-41711000D02*
X19625000Y-41711000D01*
X24375000Y-41711000D02*
X22980000Y-41711000D01*
X21020000Y-41671000D02*
X19589000Y-41671000D01*
X24411000Y-41671000D02*
X22980000Y-41671000D01*
X21020000Y-41631000D02*
X19555000Y-41631000D01*
X24445000Y-41631000D02*
X22980000Y-41631000D01*
X21020000Y-41591000D02*
X19522000Y-41591000D01*
X24478000Y-41591000D02*
X22980000Y-41591000D01*
X21020000Y-41551000D02*
X19490000Y-41551000D01*
X24510000Y-41551000D02*
X22980000Y-41551000D01*
X21020000Y-41511000D02*
X19460000Y-41511000D01*
X24540000Y-41511000D02*
X22980000Y-41511000D01*
X21020000Y-41471000D02*
X19430000Y-41471000D01*
X24570000Y-41471000D02*
X22980000Y-41471000D01*
X21020000Y-41431000D02*
X19401000Y-41431000D01*
X24599000Y-41431000D02*
X22980000Y-41431000D01*
X21020000Y-41391000D02*
X19373000Y-41391000D01*
X24627000Y-41391000D02*
X22980000Y-41391000D01*
X21020000Y-41351000D02*
X19346000Y-41351000D01*
X24654000Y-41351000D02*
X22980000Y-41351000D01*
X21020000Y-41311000D02*
X19319000Y-41311000D01*
X24681000Y-41311000D02*
X22980000Y-41311000D01*
X21020000Y-41271000D02*
X19294000Y-41271000D01*
X24706000Y-41271000D02*
X22980000Y-41271000D01*
X21020000Y-41231000D02*
X19269000Y-41231000D01*
X24731000Y-41231000D02*
X22980000Y-41231000D01*
X21020000Y-41191000D02*
X19245000Y-41191000D01*
X24755000Y-41191000D02*
X22980000Y-41191000D01*
X21020000Y-41151000D02*
X19222000Y-41151000D01*
X24778000Y-41151000D02*
X22980000Y-41151000D01*
X21020000Y-41111000D02*
X19200000Y-41111000D01*
X24800000Y-41111000D02*
X22980000Y-41111000D01*
X21020000Y-41071000D02*
X19178000Y-41071000D01*
X24822000Y-41071000D02*
X22980000Y-41071000D01*
X21020000Y-41031000D02*
X19157000Y-41031000D01*
X24843000Y-41031000D02*
X22980000Y-41031000D01*
X21020000Y-40991000D02*
X19137000Y-40991000D01*
X24863000Y-40991000D02*
X22980000Y-40991000D01*
X21020000Y-40951000D02*
X19118000Y-40951000D01*
X24882000Y-40951000D02*
X22980000Y-40951000D01*
X21020000Y-40911000D02*
X19099000Y-40911000D01*
X24901000Y-40911000D02*
X22980000Y-40911000D01*
X21020000Y-40871000D02*
X19081000Y-40871000D01*
X24919000Y-40871000D02*
X22980000Y-40871000D01*
X21020000Y-40831000D02*
X19063000Y-40831000D01*
X24937000Y-40831000D02*
X22980000Y-40831000D01*
X21020000Y-40791000D02*
X19046000Y-40791000D01*
X24954000Y-40791000D02*
X22980000Y-40791000D01*
X21020000Y-40751000D02*
X19030000Y-40751000D01*
X24970000Y-40751000D02*
X22980000Y-40751000D01*
X21020000Y-40711000D02*
X19014000Y-40711000D01*
X24986000Y-40711000D02*
X22980000Y-40711000D01*
X21020000Y-40671000D02*
X18999000Y-40671000D01*
X25001000Y-40671000D02*
X22980000Y-40671000D01*
X21020000Y-40631000D02*
X18985000Y-40631000D01*
X25015000Y-40631000D02*
X22980000Y-40631000D01*
X21020000Y-40591000D02*
X18971000Y-40591000D01*
X25029000Y-40591000D02*
X22980000Y-40591000D01*
X21020000Y-40551000D02*
X18958000Y-40551000D01*
X25042000Y-40551000D02*
X22980000Y-40551000D01*
X21020000Y-40511000D02*
X18945000Y-40511000D01*
X25055000Y-40511000D02*
X22980000Y-40511000D01*
X21020000Y-40471000D02*
X18933000Y-40471000D01*
X25067000Y-40471000D02*
X22980000Y-40471000D01*
X21020000Y-40431000D02*
X18921000Y-40431000D01*
X25079000Y-40431000D02*
X22980000Y-40431000D01*
X21020000Y-40391000D02*
X18910000Y-40391000D01*
X25090000Y-40391000D02*
X22980000Y-40391000D01*
X21020000Y-40351000D02*
X18900000Y-40351000D01*
X25100000Y-40351000D02*
X22980000Y-40351000D01*
X21020000Y-40311000D02*
X18890000Y-40311000D01*
X25110000Y-40311000D02*
X22980000Y-40311000D01*
X21020000Y-40271000D02*
X18881000Y-40271000D01*
X25119000Y-40271000D02*
X22980000Y-40271000D01*
X21020000Y-40230000D02*
X18872000Y-40230000D01*
X25128000Y-40230000D02*
X22980000Y-40230000D01*
X21020000Y-40190000D02*
X18863000Y-40190000D01*
X25137000Y-40190000D02*
X22980000Y-40190000D01*
X21020000Y-40150000D02*
X18856000Y-40150000D01*
X25144000Y-40150000D02*
X22980000Y-40150000D01*
X21020000Y-40110000D02*
X18848000Y-40110000D01*
X25152000Y-40110000D02*
X22980000Y-40110000D01*
X21020000Y-40070000D02*
X18842000Y-40070000D01*
X25158000Y-40070000D02*
X22980000Y-40070000D01*
X21020000Y-40030000D02*
X18835000Y-40030000D01*
X25165000Y-40030000D02*
X22980000Y-40030000D01*
X21020000Y-39990000D02*
X18830000Y-39990000D01*
X25170000Y-39990000D02*
X22980000Y-39990000D01*
X21020000Y-39950000D02*
X18824000Y-39950000D01*
X25176000Y-39950000D02*
X22980000Y-39950000D01*
X21020000Y-39910000D02*
X18820000Y-39910000D01*
X25180000Y-39910000D02*
X22980000Y-39910000D01*
X21020000Y-39870000D02*
X18815000Y-39870000D01*
X25185000Y-39870000D02*
X22980000Y-39870000D01*
X21020000Y-39830000D02*
X18812000Y-39830000D01*
X25188000Y-39830000D02*
X22980000Y-39830000D01*
X25192000Y-39790000D02*
X18808000Y-39790000D01*
X25194000Y-39750000D02*
X18806000Y-39750000D01*
X25197000Y-39710000D02*
X18803000Y-39710000D01*
X25198000Y-39670000D02*
X18802000Y-39670000D01*
X25200000Y-39630000D02*
X18800000Y-39630000D01*
X25200000Y-39590000D02*
X18800000Y-39590000D01*
X25200000Y-39550000D02*
X18800000Y-39550000D01*
X20820864Y-42567820D02*
G75*
G03X23180000Y-42567482I1179136J3017820D01*
G01*
X20820864Y-42567820D02*
G75*
G02X20820000Y-36532518I1179136J3017820D01*
G01*
X23179136Y-42567820D02*
G75*
G03X23180000Y-36532518I-1179136J3017820D01*
G01*
D11*
X50075000Y-34400000D02*
X49000000Y-34400000D01*
X50075000Y-37525000D02*
X53325000Y-37525000D01*
X50075000Y-34275000D02*
X53325000Y-34275000D01*
X50075000Y-37525000D02*
X50075000Y-37300000D01*
X53325000Y-37525000D02*
X53325000Y-37300000D01*
X53325000Y-34275000D02*
X53325000Y-34500000D01*
X50075000Y-34275000D02*
X50075000Y-34400000D01*
X5175000Y-16800000D02*
X4100000Y-16800000D01*
X5175000Y-19925000D02*
X8425000Y-19925000D01*
X5175000Y-16675000D02*
X8425000Y-16675000D01*
X5175000Y-19925000D02*
X5175000Y-19700000D01*
X8425000Y-19925000D02*
X8425000Y-19700000D01*
X8425000Y-16675000D02*
X8425000Y-16900000D01*
X5175000Y-16675000D02*
X5175000Y-16800000D01*
D10*
X7800000Y-32520000D02*
X9000000Y-32520000D01*
X9000000Y-34280000D02*
X7800000Y-34280000D01*
X50900000Y-4020000D02*
X52100000Y-4020000D01*
X52100000Y-5780000D02*
X50900000Y-5780000D01*
X37000000Y-5780000D02*
X35800000Y-5780000D01*
X35800000Y-4020000D02*
X37000000Y-4020000D01*
X20900000Y-14420000D02*
X22100000Y-14420000D01*
X22100000Y-16180000D02*
X20900000Y-16180000D01*
X7300000Y-16180000D02*
X6100000Y-16180000D01*
X6100000Y-14420000D02*
X7300000Y-14420000D01*
X11880000Y-17900000D02*
X11880000Y-19100000D01*
X10120000Y-19100000D02*
X10120000Y-17900000D01*
X920000Y-25600000D02*
X920000Y-24400000D01*
X2680000Y-24400000D02*
X2680000Y-25600000D01*
X22100000Y-30220000D02*
X23300000Y-30220000D01*
X23300000Y-31980000D02*
X22100000Y-31980000D01*
X53300000Y-21580000D02*
X52100000Y-21580000D01*
X52100000Y-19820000D02*
X53300000Y-19820000D01*
X54600000Y-10520000D02*
X55800000Y-10520000D01*
X55800000Y-12280000D02*
X54600000Y-12280000D01*
X38200000Y-21580000D02*
X37000000Y-21580000D01*
X37000000Y-19820000D02*
X38200000Y-19820000D01*
X39500000Y-10520000D02*
X40700000Y-10520000D01*
X40700000Y-12280000D02*
X39500000Y-12280000D01*
X25800000Y-22680000D02*
X24600000Y-22680000D01*
X24600000Y-20920000D02*
X25800000Y-20920000D01*
X56680000Y-7500000D02*
X56680000Y-8700000D01*
X54920000Y-8700000D02*
X54920000Y-7500000D01*
X47480000Y-14000000D02*
X47480000Y-15200000D01*
X45720000Y-15200000D02*
X45720000Y-14000000D01*
X51100000Y-37920000D02*
X52300000Y-37920000D01*
X52300000Y-39680000D02*
X51100000Y-39680000D01*
X8500000Y-31980000D02*
X7300000Y-31980000D01*
X7300000Y-30220000D02*
X8500000Y-30220000D01*
X26680000Y-17900000D02*
X26680000Y-19100000D01*
X24920000Y-19100000D02*
X24920000Y-17900000D01*
X17480000Y-24400000D02*
X17480000Y-25600000D01*
X15720000Y-25600000D02*
X15720000Y-24400000D01*
X41580000Y-7500000D02*
X41580000Y-8700000D01*
X39820000Y-8700000D02*
X39820000Y-7500000D01*
X32380000Y-14000000D02*
X32380000Y-15200000D01*
X30620000Y-15200000D02*
X30620000Y-14000000D01*
X9800000Y-20920000D02*
X11000000Y-20920000D01*
X11000000Y-22680000D02*
X9800000Y-22680000D01*
X17800000Y-33700000D02*
X17800000Y-32500000D01*
X20400000Y-32500000D02*
X20400000Y-33700000D01*
X5600000Y-32500000D02*
X5600000Y-33700000D01*
X3000000Y-33700000D02*
X3000000Y-32500000D01*
X53700000Y-31400000D02*
X54900000Y-31400000D01*
X54900000Y-34000000D02*
X53700000Y-34000000D01*
X35300000Y-22100000D02*
X35300000Y-23300000D01*
X32700000Y-23300000D02*
X32700000Y-22100000D01*
X47800000Y-23300000D02*
X47800000Y-22100000D01*
X50400000Y-22100000D02*
X50400000Y-23300000D01*
D11*
X25775000Y-29725000D02*
X20150000Y-29725000D01*
X24650000Y-24175000D02*
X20150000Y-24175000D01*
X39550000Y-13775000D02*
X35050000Y-13775000D01*
X40675000Y-19325000D02*
X35050000Y-19325000D01*
X55775000Y-19325000D02*
X50150000Y-19325000D01*
X54650000Y-13775000D02*
X50150000Y-13775000D01*
X9850000Y-24175000D02*
X5350000Y-24175000D01*
X10975000Y-29725000D02*
X5350000Y-29725000D01*
X19975000Y-16675000D02*
X19975000Y-16800000D01*
X23225000Y-16675000D02*
X23225000Y-16900000D01*
X23225000Y-19925000D02*
X23225000Y-19700000D01*
X19975000Y-19925000D02*
X19975000Y-19700000D01*
X19975000Y-16675000D02*
X23225000Y-16675000D01*
X19975000Y-19925000D02*
X23225000Y-19925000D01*
X19975000Y-16800000D02*
X18900000Y-16800000D01*
X34875000Y-6400000D02*
X33800000Y-6400000D01*
X34875000Y-9525000D02*
X38125000Y-9525000D01*
X34875000Y-6275000D02*
X38125000Y-6275000D01*
X34875000Y-9525000D02*
X34875000Y-9300000D01*
X38125000Y-9525000D02*
X38125000Y-9300000D01*
X38125000Y-6275000D02*
X38125000Y-6500000D01*
X34875000Y-6275000D02*
X34875000Y-6400000D01*
X49975000Y-6275000D02*
X49975000Y-6400000D01*
X53225000Y-6275000D02*
X53225000Y-6500000D01*
X53225000Y-9525000D02*
X53225000Y-9300000D01*
X49975000Y-9525000D02*
X49975000Y-9300000D01*
X49975000Y-6275000D02*
X53225000Y-6275000D01*
X49975000Y-9525000D02*
X53225000Y-9525000D01*
X49975000Y-6400000D02*
X48900000Y-6400000D01*
X36300000Y-26400000D02*
X36300000Y-35200000D01*
X42900000Y-26400000D02*
X36300000Y-26400000D01*
X42900000Y-35200000D02*
X42900000Y-26400000D01*
X36300000Y-35200000D02*
X42900000Y-35200000D01*
D10*
X34950000Y-31600000D02*
X34950000Y-29600000D01*
X34950000Y-29600000D02*
X31050000Y-29600000D01*
X34950000Y-31600000D02*
X31050000Y-31600000D01*
X67380000Y-14900000D02*
X67380000Y-16100000D01*
X65620000Y-16100000D02*
X65620000Y-14900000D01*
X61420000Y-16100000D02*
X61420000Y-14900000D01*
X63180000Y-14900000D02*
X63180000Y-16100000D01*
X65280000Y-14900000D02*
X65280000Y-16100000D01*
X63520000Y-16100000D02*
X63520000Y-14900000D01*
X67720000Y-16100000D02*
X67720000Y-14900000D01*
X69480000Y-14900000D02*
X69480000Y-16100000D01*
X32380000Y-17500000D02*
X32380000Y-18700000D01*
X30620000Y-18700000D02*
X30620000Y-17500000D01*
X2600000Y-20920000D02*
X3800000Y-20920000D01*
X3800000Y-22680000D02*
X2600000Y-22680000D01*
X53800000Y-23880000D02*
X52600000Y-23880000D01*
X52600000Y-22120000D02*
X53800000Y-22120000D01*
X45720000Y-18700000D02*
X45720000Y-17500000D01*
X47480000Y-17500000D02*
X47480000Y-18700000D01*
X32900000Y-41820000D02*
X34100000Y-41820000D01*
X34100000Y-43580000D02*
X32900000Y-43580000D01*
X38700000Y-23880000D02*
X37500000Y-23880000D01*
X37500000Y-22120000D02*
X38700000Y-22120000D01*
X32300000Y-10520000D02*
X33500000Y-10520000D01*
X33500000Y-12280000D02*
X32300000Y-12280000D01*
X23800000Y-34280000D02*
X22600000Y-34280000D01*
X22600000Y-32520000D02*
X23800000Y-32520000D01*
X15720000Y-29100000D02*
X15720000Y-27900000D01*
X17480000Y-27900000D02*
X17480000Y-29100000D01*
X56000000Y-39680000D02*
X54800000Y-39680000D01*
X54800000Y-37920000D02*
X56000000Y-37920000D01*
X31420000Y-8700000D02*
X31420000Y-7500000D01*
X33180000Y-7500000D02*
X33180000Y-8700000D01*
X47400000Y-10520000D02*
X48600000Y-10520000D01*
X48600000Y-12280000D02*
X47400000Y-12280000D01*
X62800000Y-26880000D02*
X61600000Y-26880000D01*
X61600000Y-25120000D02*
X62800000Y-25120000D01*
X56680000Y-4000000D02*
X56680000Y-5200000D01*
X54920000Y-5200000D02*
X54920000Y-4000000D01*
X39820000Y-5200000D02*
X39820000Y-4000000D01*
X41580000Y-4000000D02*
X41580000Y-5200000D01*
X33180000Y-4000000D02*
X33180000Y-5200000D01*
X31420000Y-5200000D02*
X31420000Y-4000000D01*
X18280000Y-17900000D02*
X18280000Y-19100000D01*
X16520000Y-19100000D02*
X16520000Y-17900000D01*
X26680000Y-14400000D02*
X26680000Y-15600000D01*
X24920000Y-15600000D02*
X24920000Y-14400000D01*
X16520000Y-15600000D02*
X16520000Y-14400000D01*
X18280000Y-14400000D02*
X18280000Y-15600000D01*
X55120000Y-36500000D02*
X55120000Y-35300000D01*
X56880000Y-35300000D02*
X56880000Y-36500000D01*
X58300000Y-25120000D02*
X59500000Y-25120000D01*
X59500000Y-26880000D02*
X58300000Y-26880000D01*
X48280000Y-7500000D02*
X48280000Y-8700000D01*
X46520000Y-8700000D02*
X46520000Y-7500000D01*
X2680000Y-27900000D02*
X2680000Y-29100000D01*
X920000Y-29100000D02*
X920000Y-27900000D01*
X17400000Y-20920000D02*
X18600000Y-20920000D01*
X18600000Y-22680000D02*
X17400000Y-22680000D01*
X1720000Y-19100000D02*
X1720000Y-17900000D01*
X3480000Y-17900000D02*
X3480000Y-19100000D01*
X10120000Y-15600000D02*
X10120000Y-14400000D01*
X11880000Y-14400000D02*
X11880000Y-15600000D01*
X1720000Y-15600000D02*
X1720000Y-14400000D01*
X3480000Y-14400000D02*
X3480000Y-15600000D01*
X46520000Y-5200000D02*
X46520000Y-4000000D01*
X48280000Y-4000000D02*
X48280000Y-5200000D01*
X47900000Y-34800000D02*
X47900000Y-36000000D01*
X45300000Y-36000000D02*
X45300000Y-34800000D01*
X32300000Y-32200000D02*
X33500000Y-32200000D01*
X33500000Y-34800000D02*
X32300000Y-34800000D01*
X26900000Y-39500000D02*
X26900000Y-38300000D01*
X29500000Y-38300000D02*
X29500000Y-39500000D01*
D12*
X65300000Y-11700000D02*
X65300000Y-9700000D01*
D11*
X66700000Y-11800000D02*
X65800000Y-11800000D01*
D13*
X66900000Y-9300000D02*
X66900000Y-12100000D01*
X63700000Y-9300000D02*
X66900000Y-9300000D01*
X63700000Y-12100000D02*
X63700000Y-9300000D01*
X66900000Y-12100000D02*
X63700000Y-12100000D01*
D10*
X7960000Y-40380000D02*
X7960000Y-39450000D01*
X7960000Y-37220000D02*
X7960000Y-38150000D01*
X7960000Y-37220000D02*
X5800000Y-37220000D01*
X7960000Y-40380000D02*
X6500000Y-40380000D01*
X15060000Y-40380000D02*
X13600000Y-40380000D01*
X15060000Y-37220000D02*
X12900000Y-37220000D01*
X15060000Y-37220000D02*
X15060000Y-38150000D01*
X15060000Y-40380000D02*
X15060000Y-39450000D01*
X31260000Y-28780000D02*
X31260000Y-27850000D01*
X31260000Y-25620000D02*
X31260000Y-26550000D01*
X31260000Y-25620000D02*
X29100000Y-25620000D01*
X31260000Y-28780000D02*
X29800000Y-28780000D01*
X52760000Y-29980000D02*
X51300000Y-29980000D01*
X52760000Y-26820000D02*
X50600000Y-26820000D01*
X52760000Y-26820000D02*
X52760000Y-27750000D01*
X52760000Y-29980000D02*
X52760000Y-29050000D01*
X30400000Y-41400000D02*
X30400000Y-37500000D01*
X35200000Y-37500000D02*
X35200000Y-40100000D01*
D11*
X63775000Y-24270000D02*
X61235000Y-24270000D01*
X63775000Y-21730000D02*
X63775000Y-24270000D01*
X57425000Y-21730000D02*
X63775000Y-21730000D01*
X57425000Y-24270000D02*
X57425000Y-21730000D01*
X59965000Y-24270000D02*
X57425000Y-24270000D01*
X58162265Y-24905000D02*
G75*
G03X58162265Y-24905000I-102265J0D01*
G01*
X44117142Y-40169047D02*
X44164761Y-40216666D01*
X44212380Y-40359523D01*
X44212380Y-40454761D01*
X44164761Y-40597619D01*
X44069523Y-40692857D01*
X43974285Y-40740476D01*
X43783809Y-40788095D01*
X43640952Y-40788095D01*
X43450476Y-40740476D01*
X43355238Y-40692857D01*
X43260000Y-40597619D01*
X43212380Y-40454761D01*
X43212380Y-40359523D01*
X43260000Y-40216666D01*
X43307619Y-40169047D01*
X44212380Y-39216666D02*
X44212380Y-39788095D01*
X44212380Y-39502380D02*
X43212380Y-39502380D01*
X43355238Y-39597619D01*
X43450476Y-39692857D01*
X43498095Y-39788095D01*
X43212380Y-38597619D02*
X43212380Y-38502380D01*
X43260000Y-38407142D01*
X43307619Y-38359523D01*
X43402857Y-38311904D01*
X43593333Y-38264285D01*
X43831428Y-38264285D01*
X44021904Y-38311904D01*
X44117142Y-38359523D01*
X44164761Y-38407142D01*
X44212380Y-38502380D01*
X44212380Y-38597619D01*
X44164761Y-38692857D01*
X44117142Y-38740476D01*
X44021904Y-38788095D01*
X43831428Y-38835714D01*
X43593333Y-38835714D01*
X43402857Y-38788095D01*
X43307619Y-38740476D01*
X43260000Y-38692857D01*
X43212380Y-38597619D01*
X43212380Y-37930952D02*
X43212380Y-37311904D01*
X43593333Y-37645238D01*
X43593333Y-37502380D01*
X43640952Y-37407142D01*
X43688571Y-37359523D01*
X43783809Y-37311904D01*
X44021904Y-37311904D01*
X44117142Y-37359523D01*
X44164761Y-37407142D01*
X44212380Y-37502380D01*
X44212380Y-37788095D01*
X44164761Y-37883333D01*
X44117142Y-37930952D01*
X20880952Y-43657142D02*
X20833333Y-43704761D01*
X20690476Y-43752380D01*
X20595238Y-43752380D01*
X20452380Y-43704761D01*
X20357142Y-43609523D01*
X20309523Y-43514285D01*
X20261904Y-43323809D01*
X20261904Y-43180952D01*
X20309523Y-42990476D01*
X20357142Y-42895238D01*
X20452380Y-42800000D01*
X20595238Y-42752380D01*
X20690476Y-42752380D01*
X20833333Y-42800000D01*
X20880952Y-42847619D01*
X21833333Y-43752380D02*
X21261904Y-43752380D01*
X21547619Y-43752380D02*
X21547619Y-42752380D01*
X21452380Y-42895238D01*
X21357142Y-42990476D01*
X21261904Y-43038095D01*
X22452380Y-42752380D02*
X22547619Y-42752380D01*
X22642857Y-42800000D01*
X22690476Y-42847619D01*
X22738095Y-42942857D01*
X22785714Y-43133333D01*
X22785714Y-43371428D01*
X22738095Y-43561904D01*
X22690476Y-43657142D01*
X22642857Y-43704761D01*
X22547619Y-43752380D01*
X22452380Y-43752380D01*
X22357142Y-43704761D01*
X22309523Y-43657142D01*
X22261904Y-43561904D01*
X22214285Y-43371428D01*
X22214285Y-43133333D01*
X22261904Y-42942857D01*
X22309523Y-42847619D01*
X22357142Y-42800000D01*
X22452380Y-42752380D01*
X23642857Y-43085714D02*
X23642857Y-43752380D01*
X23404761Y-42704761D02*
X23166666Y-43419047D01*
X23785714Y-43419047D01*
X49071428Y-33071428D02*
X49071428Y-33557142D01*
X49100000Y-33614285D01*
X49128571Y-33642857D01*
X49185714Y-33671428D01*
X49300000Y-33671428D01*
X49357142Y-33642857D01*
X49385714Y-33614285D01*
X49414285Y-33557142D01*
X49414285Y-33071428D01*
X49957142Y-33271428D02*
X49957142Y-33671428D01*
X49814285Y-33042857D02*
X49671428Y-33471428D01*
X50042857Y-33471428D01*
X50385714Y-33071428D02*
X50442857Y-33071428D01*
X50500000Y-33100000D01*
X50528571Y-33128571D01*
X50557142Y-33185714D01*
X50585714Y-33300000D01*
X50585714Y-33442857D01*
X50557142Y-33557142D01*
X50528571Y-33614285D01*
X50500000Y-33642857D01*
X50442857Y-33671428D01*
X50385714Y-33671428D01*
X50328571Y-33642857D01*
X50300000Y-33614285D01*
X50271428Y-33557142D01*
X50242857Y-33442857D01*
X50242857Y-33300000D01*
X50271428Y-33185714D01*
X50300000Y-33128571D01*
X50328571Y-33100000D01*
X50385714Y-33071428D01*
X51157142Y-33671428D02*
X50814285Y-33671428D01*
X50985714Y-33671428D02*
X50985714Y-33071428D01*
X50928571Y-33157142D01*
X50871428Y-33214285D01*
X50814285Y-33242857D01*
X6371428Y-20371428D02*
X6371428Y-20857142D01*
X6400000Y-20914285D01*
X6428571Y-20942857D01*
X6485714Y-20971428D01*
X6600000Y-20971428D01*
X6657142Y-20942857D01*
X6685714Y-20914285D01*
X6714285Y-20857142D01*
X6714285Y-20371428D01*
X6971428Y-20428571D02*
X7000000Y-20400000D01*
X7057142Y-20371428D01*
X7200000Y-20371428D01*
X7257142Y-20400000D01*
X7285714Y-20428571D01*
X7314285Y-20485714D01*
X7314285Y-20542857D01*
X7285714Y-20628571D01*
X6942857Y-20971428D01*
X7314285Y-20971428D01*
X7685714Y-20371428D02*
X7742857Y-20371428D01*
X7800000Y-20400000D01*
X7828571Y-20428571D01*
X7857142Y-20485714D01*
X7885714Y-20600000D01*
X7885714Y-20742857D01*
X7857142Y-20857142D01*
X7828571Y-20914285D01*
X7800000Y-20942857D01*
X7742857Y-20971428D01*
X7685714Y-20971428D01*
X7628571Y-20942857D01*
X7600000Y-20914285D01*
X7571428Y-20857142D01*
X7542857Y-20742857D01*
X7542857Y-20600000D01*
X7571428Y-20485714D01*
X7600000Y-20428571D01*
X7628571Y-20400000D01*
X7685714Y-20371428D01*
X8457142Y-20971428D02*
X8114285Y-20971428D01*
X8285714Y-20971428D02*
X8285714Y-20371428D01*
X8228571Y-20457142D01*
X8171428Y-20514285D01*
X8114285Y-20542857D01*
X7628571Y-35014285D02*
X7600000Y-35042857D01*
X7514285Y-35071428D01*
X7457142Y-35071428D01*
X7371428Y-35042857D01*
X7314285Y-34985714D01*
X7285714Y-34928571D01*
X7257142Y-34814285D01*
X7257142Y-34728571D01*
X7285714Y-34614285D01*
X7314285Y-34557142D01*
X7371428Y-34500000D01*
X7457142Y-34471428D01*
X7514285Y-34471428D01*
X7600000Y-34500000D01*
X7628571Y-34528571D01*
X7857142Y-34528571D02*
X7885714Y-34500000D01*
X7942857Y-34471428D01*
X8085714Y-34471428D01*
X8142857Y-34500000D01*
X8171428Y-34528571D01*
X8200000Y-34585714D01*
X8200000Y-34642857D01*
X8171428Y-34728571D01*
X7828571Y-35071428D01*
X8200000Y-35071428D01*
X8571428Y-34471428D02*
X8628571Y-34471428D01*
X8685714Y-34500000D01*
X8714285Y-34528571D01*
X8742857Y-34585714D01*
X8771428Y-34700000D01*
X8771428Y-34842857D01*
X8742857Y-34957142D01*
X8714285Y-35014285D01*
X8685714Y-35042857D01*
X8628571Y-35071428D01*
X8571428Y-35071428D01*
X8514285Y-35042857D01*
X8485714Y-35014285D01*
X8457142Y-34957142D01*
X8428571Y-34842857D01*
X8428571Y-34700000D01*
X8457142Y-34585714D01*
X8485714Y-34528571D01*
X8514285Y-34500000D01*
X8571428Y-34471428D01*
X9285714Y-34671428D02*
X9285714Y-35071428D01*
X9142857Y-34442857D02*
X9000000Y-34871428D01*
X9371428Y-34871428D01*
X50380952Y-3357142D02*
X50333333Y-3404761D01*
X50190476Y-3452380D01*
X50095238Y-3452380D01*
X49952380Y-3404761D01*
X49857142Y-3309523D01*
X49809523Y-3214285D01*
X49761904Y-3023809D01*
X49761904Y-2880952D01*
X49809523Y-2690476D01*
X49857142Y-2595238D01*
X49952380Y-2500000D01*
X50095238Y-2452380D01*
X50190476Y-2452380D01*
X50333333Y-2500000D01*
X50380952Y-2547619D01*
X50714285Y-2452380D02*
X51380952Y-2452380D01*
X50952380Y-3452380D01*
X51952380Y-2452380D02*
X52047619Y-2452380D01*
X52142857Y-2500000D01*
X52190476Y-2547619D01*
X52238095Y-2642857D01*
X52285714Y-2833333D01*
X52285714Y-3071428D01*
X52238095Y-3261904D01*
X52190476Y-3357142D01*
X52142857Y-3404761D01*
X52047619Y-3452380D01*
X51952380Y-3452380D01*
X51857142Y-3404761D01*
X51809523Y-3357142D01*
X51761904Y-3261904D01*
X51714285Y-3071428D01*
X51714285Y-2833333D01*
X51761904Y-2642857D01*
X51809523Y-2547619D01*
X51857142Y-2500000D01*
X51952380Y-2452380D01*
X52619047Y-2452380D02*
X53285714Y-2452380D01*
X52857142Y-3452380D01*
X35280952Y-3357142D02*
X35233333Y-3404761D01*
X35090476Y-3452380D01*
X34995238Y-3452380D01*
X34852380Y-3404761D01*
X34757142Y-3309523D01*
X34709523Y-3214285D01*
X34661904Y-3023809D01*
X34661904Y-2880952D01*
X34709523Y-2690476D01*
X34757142Y-2595238D01*
X34852380Y-2500000D01*
X34995238Y-2452380D01*
X35090476Y-2452380D01*
X35233333Y-2500000D01*
X35280952Y-2547619D01*
X36138095Y-2452380D02*
X35947619Y-2452380D01*
X35852380Y-2500000D01*
X35804761Y-2547619D01*
X35709523Y-2690476D01*
X35661904Y-2880952D01*
X35661904Y-3261904D01*
X35709523Y-3357142D01*
X35757142Y-3404761D01*
X35852380Y-3452380D01*
X36042857Y-3452380D01*
X36138095Y-3404761D01*
X36185714Y-3357142D01*
X36233333Y-3261904D01*
X36233333Y-3023809D01*
X36185714Y-2928571D01*
X36138095Y-2880952D01*
X36042857Y-2833333D01*
X35852380Y-2833333D01*
X35757142Y-2880952D01*
X35709523Y-2928571D01*
X35661904Y-3023809D01*
X36852380Y-2452380D02*
X36947619Y-2452380D01*
X37042857Y-2500000D01*
X37090476Y-2547619D01*
X37138095Y-2642857D01*
X37185714Y-2833333D01*
X37185714Y-3071428D01*
X37138095Y-3261904D01*
X37090476Y-3357142D01*
X37042857Y-3404761D01*
X36947619Y-3452380D01*
X36852380Y-3452380D01*
X36757142Y-3404761D01*
X36709523Y-3357142D01*
X36661904Y-3261904D01*
X36614285Y-3071428D01*
X36614285Y-2833333D01*
X36661904Y-2642857D01*
X36709523Y-2547619D01*
X36757142Y-2500000D01*
X36852380Y-2452380D01*
X37519047Y-2452380D02*
X38185714Y-2452380D01*
X37757142Y-3452380D01*
X20380952Y-13757142D02*
X20333333Y-13804761D01*
X20190476Y-13852380D01*
X20095238Y-13852380D01*
X19952380Y-13804761D01*
X19857142Y-13709523D01*
X19809523Y-13614285D01*
X19761904Y-13423809D01*
X19761904Y-13280952D01*
X19809523Y-13090476D01*
X19857142Y-12995238D01*
X19952380Y-12900000D01*
X20095238Y-12852380D01*
X20190476Y-12852380D01*
X20333333Y-12900000D01*
X20380952Y-12947619D01*
X21285714Y-12852380D02*
X20809523Y-12852380D01*
X20761904Y-13328571D01*
X20809523Y-13280952D01*
X20904761Y-13233333D01*
X21142857Y-13233333D01*
X21238095Y-13280952D01*
X21285714Y-13328571D01*
X21333333Y-13423809D01*
X21333333Y-13661904D01*
X21285714Y-13757142D01*
X21238095Y-13804761D01*
X21142857Y-13852380D01*
X20904761Y-13852380D01*
X20809523Y-13804761D01*
X20761904Y-13757142D01*
X21952380Y-12852380D02*
X22047619Y-12852380D01*
X22142857Y-12900000D01*
X22190476Y-12947619D01*
X22238095Y-13042857D01*
X22285714Y-13233333D01*
X22285714Y-13471428D01*
X22238095Y-13661904D01*
X22190476Y-13757142D01*
X22142857Y-13804761D01*
X22047619Y-13852380D01*
X21952380Y-13852380D01*
X21857142Y-13804761D01*
X21809523Y-13757142D01*
X21761904Y-13661904D01*
X21714285Y-13471428D01*
X21714285Y-13233333D01*
X21761904Y-13042857D01*
X21809523Y-12947619D01*
X21857142Y-12900000D01*
X21952380Y-12852380D01*
X22619047Y-12852380D02*
X23285714Y-12852380D01*
X22857142Y-13852380D01*
X6028571Y-13614285D02*
X6000000Y-13642857D01*
X5914285Y-13671428D01*
X5857142Y-13671428D01*
X5771428Y-13642857D01*
X5714285Y-13585714D01*
X5685714Y-13528571D01*
X5657142Y-13414285D01*
X5657142Y-13328571D01*
X5685714Y-13214285D01*
X5714285Y-13157142D01*
X5771428Y-13100000D01*
X5857142Y-13071428D01*
X5914285Y-13071428D01*
X6000000Y-13100000D01*
X6028571Y-13128571D01*
X6257142Y-13128571D02*
X6285714Y-13100000D01*
X6342857Y-13071428D01*
X6485714Y-13071428D01*
X6542857Y-13100000D01*
X6571428Y-13128571D01*
X6600000Y-13185714D01*
X6600000Y-13242857D01*
X6571428Y-13328571D01*
X6228571Y-13671428D01*
X6600000Y-13671428D01*
X6971428Y-13071428D02*
X7028571Y-13071428D01*
X7085714Y-13100000D01*
X7114285Y-13128571D01*
X7142857Y-13185714D01*
X7171428Y-13300000D01*
X7171428Y-13442857D01*
X7142857Y-13557142D01*
X7114285Y-13614285D01*
X7085714Y-13642857D01*
X7028571Y-13671428D01*
X6971428Y-13671428D01*
X6914285Y-13642857D01*
X6885714Y-13614285D01*
X6857142Y-13557142D01*
X6828571Y-13442857D01*
X6828571Y-13300000D01*
X6857142Y-13185714D01*
X6885714Y-13128571D01*
X6914285Y-13100000D01*
X6971428Y-13071428D01*
X7371428Y-13071428D02*
X7771428Y-13071428D01*
X7514285Y-13671428D01*
X9371428Y-19171428D02*
X9085714Y-19371428D01*
X9371428Y-19514285D02*
X8771428Y-19514285D01*
X8771428Y-19285714D01*
X8800000Y-19228571D01*
X8828571Y-19200000D01*
X8885714Y-19171428D01*
X8971428Y-19171428D01*
X9028571Y-19200000D01*
X9057142Y-19228571D01*
X9085714Y-19285714D01*
X9085714Y-19514285D01*
X8828571Y-18942857D02*
X8800000Y-18914285D01*
X8771428Y-18857142D01*
X8771428Y-18714285D01*
X8800000Y-18657142D01*
X8828571Y-18628571D01*
X8885714Y-18600000D01*
X8942857Y-18600000D01*
X9028571Y-18628571D01*
X9371428Y-18971428D01*
X9371428Y-18600000D01*
X8771428Y-18228571D02*
X8771428Y-18171428D01*
X8800000Y-18114285D01*
X8828571Y-18085714D01*
X8885714Y-18057142D01*
X9000000Y-18028571D01*
X9142857Y-18028571D01*
X9257142Y-18057142D01*
X9314285Y-18085714D01*
X9342857Y-18114285D01*
X9371428Y-18171428D01*
X9371428Y-18228571D01*
X9342857Y-18285714D01*
X9314285Y-18314285D01*
X9257142Y-18342857D01*
X9142857Y-18371428D01*
X9000000Y-18371428D01*
X8885714Y-18342857D01*
X8828571Y-18314285D01*
X8800000Y-18285714D01*
X8771428Y-18228571D01*
X8971428Y-17514285D02*
X9371428Y-17514285D01*
X8742857Y-17657142D02*
X9171428Y-17800000D01*
X9171428Y-17428571D01*
X3771428Y-25971428D02*
X3485714Y-26171428D01*
X3771428Y-26314285D02*
X3171428Y-26314285D01*
X3171428Y-26085714D01*
X3200000Y-26028571D01*
X3228571Y-26000000D01*
X3285714Y-25971428D01*
X3371428Y-25971428D01*
X3428571Y-26000000D01*
X3457142Y-26028571D01*
X3485714Y-26085714D01*
X3485714Y-26314285D01*
X3228571Y-25742857D02*
X3200000Y-25714285D01*
X3171428Y-25657142D01*
X3171428Y-25514285D01*
X3200000Y-25457142D01*
X3228571Y-25428571D01*
X3285714Y-25400000D01*
X3342857Y-25400000D01*
X3428571Y-25428571D01*
X3771428Y-25771428D01*
X3771428Y-25400000D01*
X3171428Y-25028571D02*
X3171428Y-24971428D01*
X3200000Y-24914285D01*
X3228571Y-24885714D01*
X3285714Y-24857142D01*
X3400000Y-24828571D01*
X3542857Y-24828571D01*
X3657142Y-24857142D01*
X3714285Y-24885714D01*
X3742857Y-24914285D01*
X3771428Y-24971428D01*
X3771428Y-25028571D01*
X3742857Y-25085714D01*
X3714285Y-25114285D01*
X3657142Y-25142857D01*
X3542857Y-25171428D01*
X3400000Y-25171428D01*
X3285714Y-25142857D01*
X3228571Y-25114285D01*
X3200000Y-25085714D01*
X3171428Y-25028571D01*
X3171428Y-24285714D02*
X3171428Y-24571428D01*
X3457142Y-24600000D01*
X3428571Y-24571428D01*
X3400000Y-24514285D01*
X3400000Y-24371428D01*
X3428571Y-24314285D01*
X3457142Y-24285714D01*
X3514285Y-24257142D01*
X3657142Y-24257142D01*
X3714285Y-24285714D01*
X3742857Y-24314285D01*
X3771428Y-24371428D01*
X3771428Y-24514285D01*
X3742857Y-24571428D01*
X3714285Y-24600000D01*
X25014285Y-31971428D02*
X25042857Y-32000000D01*
X25071428Y-32085714D01*
X25071428Y-32142857D01*
X25042857Y-32228571D01*
X24985714Y-32285714D01*
X24928571Y-32314285D01*
X24814285Y-32342857D01*
X24728571Y-32342857D01*
X24614285Y-32314285D01*
X24557142Y-32285714D01*
X24500000Y-32228571D01*
X24471428Y-32142857D01*
X24471428Y-32085714D01*
X24500000Y-32000000D01*
X24528571Y-31971428D01*
X24471428Y-31428571D02*
X24471428Y-31714285D01*
X24757142Y-31742857D01*
X24728571Y-31714285D01*
X24700000Y-31657142D01*
X24700000Y-31514285D01*
X24728571Y-31457142D01*
X24757142Y-31428571D01*
X24814285Y-31400000D01*
X24957142Y-31400000D01*
X25014285Y-31428571D01*
X25042857Y-31457142D01*
X25071428Y-31514285D01*
X25071428Y-31657142D01*
X25042857Y-31714285D01*
X25014285Y-31742857D01*
X24471428Y-31028571D02*
X24471428Y-30971428D01*
X24500000Y-30914285D01*
X24528571Y-30885714D01*
X24585714Y-30857142D01*
X24700000Y-30828571D01*
X24842857Y-30828571D01*
X24957142Y-30857142D01*
X25014285Y-30885714D01*
X25042857Y-30914285D01*
X25071428Y-30971428D01*
X25071428Y-31028571D01*
X25042857Y-31085714D01*
X25014285Y-31114285D01*
X24957142Y-31142857D01*
X24842857Y-31171428D01*
X24700000Y-31171428D01*
X24585714Y-31142857D01*
X24528571Y-31114285D01*
X24500000Y-31085714D01*
X24471428Y-31028571D01*
X24471428Y-30314285D02*
X24471428Y-30428571D01*
X24500000Y-30485714D01*
X24528571Y-30514285D01*
X24614285Y-30571428D01*
X24728571Y-30600000D01*
X24957142Y-30600000D01*
X25014285Y-30571428D01*
X25042857Y-30542857D01*
X25071428Y-30485714D01*
X25071428Y-30371428D01*
X25042857Y-30314285D01*
X25014285Y-30285714D01*
X24957142Y-30257142D01*
X24814285Y-30257142D01*
X24757142Y-30285714D01*
X24728571Y-30314285D01*
X24700000Y-30371428D01*
X24700000Y-30485714D01*
X24728571Y-30542857D01*
X24757142Y-30571428D01*
X24814285Y-30600000D01*
X52028571Y-22814285D02*
X52000000Y-22842857D01*
X51914285Y-22871428D01*
X51857142Y-22871428D01*
X51771428Y-22842857D01*
X51714285Y-22785714D01*
X51685714Y-22728571D01*
X51657142Y-22614285D01*
X51657142Y-22528571D01*
X51685714Y-22414285D01*
X51714285Y-22357142D01*
X51771428Y-22300000D01*
X51857142Y-22271428D01*
X51914285Y-22271428D01*
X52000000Y-22300000D01*
X52028571Y-22328571D01*
X52228571Y-22271428D02*
X52628571Y-22271428D01*
X52371428Y-22871428D01*
X52971428Y-22271428D02*
X53028571Y-22271428D01*
X53085714Y-22300000D01*
X53114285Y-22328571D01*
X53142857Y-22385714D01*
X53171428Y-22500000D01*
X53171428Y-22642857D01*
X53142857Y-22757142D01*
X53114285Y-22814285D01*
X53085714Y-22842857D01*
X53028571Y-22871428D01*
X52971428Y-22871428D01*
X52914285Y-22842857D01*
X52885714Y-22814285D01*
X52857142Y-22757142D01*
X52828571Y-22642857D01*
X52828571Y-22500000D01*
X52857142Y-22385714D01*
X52885714Y-22328571D01*
X52914285Y-22300000D01*
X52971428Y-22271428D01*
X53685714Y-22271428D02*
X53571428Y-22271428D01*
X53514285Y-22300000D01*
X53485714Y-22328571D01*
X53428571Y-22414285D01*
X53400000Y-22528571D01*
X53400000Y-22757142D01*
X53428571Y-22814285D01*
X53457142Y-22842857D01*
X53514285Y-22871428D01*
X53628571Y-22871428D01*
X53685714Y-22842857D01*
X53714285Y-22814285D01*
X53742857Y-22757142D01*
X53742857Y-22614285D01*
X53714285Y-22557142D01*
X53685714Y-22528571D01*
X53628571Y-22500000D01*
X53514285Y-22500000D01*
X53457142Y-22528571D01*
X53428571Y-22557142D01*
X53400000Y-22614285D01*
X54128571Y-13014285D02*
X54100000Y-13042857D01*
X54014285Y-13071428D01*
X53957142Y-13071428D01*
X53871428Y-13042857D01*
X53814285Y-12985714D01*
X53785714Y-12928571D01*
X53757142Y-12814285D01*
X53757142Y-12728571D01*
X53785714Y-12614285D01*
X53814285Y-12557142D01*
X53871428Y-12500000D01*
X53957142Y-12471428D01*
X54014285Y-12471428D01*
X54100000Y-12500000D01*
X54128571Y-12528571D01*
X54328571Y-12471428D02*
X54728571Y-12471428D01*
X54471428Y-13071428D01*
X55071428Y-12471428D02*
X55128571Y-12471428D01*
X55185714Y-12500000D01*
X55214285Y-12528571D01*
X55242857Y-12585714D01*
X55271428Y-12700000D01*
X55271428Y-12842857D01*
X55242857Y-12957142D01*
X55214285Y-13014285D01*
X55185714Y-13042857D01*
X55128571Y-13071428D01*
X55071428Y-13071428D01*
X55014285Y-13042857D01*
X54985714Y-13014285D01*
X54957142Y-12957142D01*
X54928571Y-12842857D01*
X54928571Y-12700000D01*
X54957142Y-12585714D01*
X54985714Y-12528571D01*
X55014285Y-12500000D01*
X55071428Y-12471428D01*
X55500000Y-12528571D02*
X55528571Y-12500000D01*
X55585714Y-12471428D01*
X55728571Y-12471428D01*
X55785714Y-12500000D01*
X55814285Y-12528571D01*
X55842857Y-12585714D01*
X55842857Y-12642857D01*
X55814285Y-12728571D01*
X55471428Y-13071428D01*
X55842857Y-13071428D01*
X40114285Y-21371428D02*
X40142857Y-21400000D01*
X40171428Y-21485714D01*
X40171428Y-21542857D01*
X40142857Y-21628571D01*
X40085714Y-21685714D01*
X40028571Y-21714285D01*
X39914285Y-21742857D01*
X39828571Y-21742857D01*
X39714285Y-21714285D01*
X39657142Y-21685714D01*
X39600000Y-21628571D01*
X39571428Y-21542857D01*
X39571428Y-21485714D01*
X39600000Y-21400000D01*
X39628571Y-21371428D01*
X39571428Y-20857142D02*
X39571428Y-20971428D01*
X39600000Y-21028571D01*
X39628571Y-21057142D01*
X39714285Y-21114285D01*
X39828571Y-21142857D01*
X40057142Y-21142857D01*
X40114285Y-21114285D01*
X40142857Y-21085714D01*
X40171428Y-21028571D01*
X40171428Y-20914285D01*
X40142857Y-20857142D01*
X40114285Y-20828571D01*
X40057142Y-20800000D01*
X39914285Y-20800000D01*
X39857142Y-20828571D01*
X39828571Y-20857142D01*
X39800000Y-20914285D01*
X39800000Y-21028571D01*
X39828571Y-21085714D01*
X39857142Y-21114285D01*
X39914285Y-21142857D01*
X39571428Y-20428571D02*
X39571428Y-20371428D01*
X39600000Y-20314285D01*
X39628571Y-20285714D01*
X39685714Y-20257142D01*
X39800000Y-20228571D01*
X39942857Y-20228571D01*
X40057142Y-20257142D01*
X40114285Y-20285714D01*
X40142857Y-20314285D01*
X40171428Y-20371428D01*
X40171428Y-20428571D01*
X40142857Y-20485714D01*
X40114285Y-20514285D01*
X40057142Y-20542857D01*
X39942857Y-20571428D01*
X39800000Y-20571428D01*
X39685714Y-20542857D01*
X39628571Y-20514285D01*
X39600000Y-20485714D01*
X39571428Y-20428571D01*
X39571428Y-19714285D02*
X39571428Y-19828571D01*
X39600000Y-19885714D01*
X39628571Y-19914285D01*
X39714285Y-19971428D01*
X39828571Y-20000000D01*
X40057142Y-20000000D01*
X40114285Y-19971428D01*
X40142857Y-19942857D01*
X40171428Y-19885714D01*
X40171428Y-19771428D01*
X40142857Y-19714285D01*
X40114285Y-19685714D01*
X40057142Y-19657142D01*
X39914285Y-19657142D01*
X39857142Y-19685714D01*
X39828571Y-19714285D01*
X39800000Y-19771428D01*
X39800000Y-19885714D01*
X39828571Y-19942857D01*
X39857142Y-19971428D01*
X39914285Y-20000000D01*
X39028571Y-13114285D02*
X39000000Y-13142857D01*
X38914285Y-13171428D01*
X38857142Y-13171428D01*
X38771428Y-13142857D01*
X38714285Y-13085714D01*
X38685714Y-13028571D01*
X38657142Y-12914285D01*
X38657142Y-12828571D01*
X38685714Y-12714285D01*
X38714285Y-12657142D01*
X38771428Y-12600000D01*
X38857142Y-12571428D01*
X38914285Y-12571428D01*
X39000000Y-12600000D01*
X39028571Y-12628571D01*
X39542857Y-12571428D02*
X39428571Y-12571428D01*
X39371428Y-12600000D01*
X39342857Y-12628571D01*
X39285714Y-12714285D01*
X39257142Y-12828571D01*
X39257142Y-13057142D01*
X39285714Y-13114285D01*
X39314285Y-13142857D01*
X39371428Y-13171428D01*
X39485714Y-13171428D01*
X39542857Y-13142857D01*
X39571428Y-13114285D01*
X39600000Y-13057142D01*
X39600000Y-12914285D01*
X39571428Y-12857142D01*
X39542857Y-12828571D01*
X39485714Y-12800000D01*
X39371428Y-12800000D01*
X39314285Y-12828571D01*
X39285714Y-12857142D01*
X39257142Y-12914285D01*
X39971428Y-12571428D02*
X40028571Y-12571428D01*
X40085714Y-12600000D01*
X40114285Y-12628571D01*
X40142857Y-12685714D01*
X40171428Y-12800000D01*
X40171428Y-12942857D01*
X40142857Y-13057142D01*
X40114285Y-13114285D01*
X40085714Y-13142857D01*
X40028571Y-13171428D01*
X39971428Y-13171428D01*
X39914285Y-13142857D01*
X39885714Y-13114285D01*
X39857142Y-13057142D01*
X39828571Y-12942857D01*
X39828571Y-12800000D01*
X39857142Y-12685714D01*
X39885714Y-12628571D01*
X39914285Y-12600000D01*
X39971428Y-12571428D01*
X40400000Y-12628571D02*
X40428571Y-12600000D01*
X40485714Y-12571428D01*
X40628571Y-12571428D01*
X40685714Y-12600000D01*
X40714285Y-12628571D01*
X40742857Y-12685714D01*
X40742857Y-12742857D01*
X40714285Y-12828571D01*
X40371428Y-13171428D01*
X40742857Y-13171428D01*
X27914285Y-19671428D02*
X27942857Y-19700000D01*
X27971428Y-19785714D01*
X27971428Y-19842857D01*
X27942857Y-19928571D01*
X27885714Y-19985714D01*
X27828571Y-20014285D01*
X27714285Y-20042857D01*
X27628571Y-20042857D01*
X27514285Y-20014285D01*
X27457142Y-19985714D01*
X27400000Y-19928571D01*
X27371428Y-19842857D01*
X27371428Y-19785714D01*
X27400000Y-19700000D01*
X27428571Y-19671428D01*
X27371428Y-19128571D02*
X27371428Y-19414285D01*
X27657142Y-19442857D01*
X27628571Y-19414285D01*
X27600000Y-19357142D01*
X27600000Y-19214285D01*
X27628571Y-19157142D01*
X27657142Y-19128571D01*
X27714285Y-19100000D01*
X27857142Y-19100000D01*
X27914285Y-19128571D01*
X27942857Y-19157142D01*
X27971428Y-19214285D01*
X27971428Y-19357142D01*
X27942857Y-19414285D01*
X27914285Y-19442857D01*
X27371428Y-18728571D02*
X27371428Y-18671428D01*
X27400000Y-18614285D01*
X27428571Y-18585714D01*
X27485714Y-18557142D01*
X27600000Y-18528571D01*
X27742857Y-18528571D01*
X27857142Y-18557142D01*
X27914285Y-18585714D01*
X27942857Y-18614285D01*
X27971428Y-18671428D01*
X27971428Y-18728571D01*
X27942857Y-18785714D01*
X27914285Y-18814285D01*
X27857142Y-18842857D01*
X27742857Y-18871428D01*
X27600000Y-18871428D01*
X27485714Y-18842857D01*
X27428571Y-18814285D01*
X27400000Y-18785714D01*
X27371428Y-18728571D01*
X27428571Y-18300000D02*
X27400000Y-18271428D01*
X27371428Y-18214285D01*
X27371428Y-18071428D01*
X27400000Y-18014285D01*
X27428571Y-17985714D01*
X27485714Y-17957142D01*
X27542857Y-17957142D01*
X27628571Y-17985714D01*
X27971428Y-18328571D01*
X27971428Y-17957142D01*
X57871428Y-8771428D02*
X57585714Y-8971428D01*
X57871428Y-9114285D02*
X57271428Y-9114285D01*
X57271428Y-8885714D01*
X57300000Y-8828571D01*
X57328571Y-8800000D01*
X57385714Y-8771428D01*
X57471428Y-8771428D01*
X57528571Y-8800000D01*
X57557142Y-8828571D01*
X57585714Y-8885714D01*
X57585714Y-9114285D01*
X57271428Y-8571428D02*
X57271428Y-8171428D01*
X57871428Y-8428571D01*
X57271428Y-7828571D02*
X57271428Y-7771428D01*
X57300000Y-7714285D01*
X57328571Y-7685714D01*
X57385714Y-7657142D01*
X57500000Y-7628571D01*
X57642857Y-7628571D01*
X57757142Y-7657142D01*
X57814285Y-7685714D01*
X57842857Y-7714285D01*
X57871428Y-7771428D01*
X57871428Y-7828571D01*
X57842857Y-7885714D01*
X57814285Y-7914285D01*
X57757142Y-7942857D01*
X57642857Y-7971428D01*
X57500000Y-7971428D01*
X57385714Y-7942857D01*
X57328571Y-7914285D01*
X57300000Y-7885714D01*
X57271428Y-7828571D01*
X57471428Y-7114285D02*
X57871428Y-7114285D01*
X57242857Y-7257142D02*
X57671428Y-7400000D01*
X57671428Y-7028571D01*
X45271428Y-15171428D02*
X44985714Y-15371428D01*
X45271428Y-15514285D02*
X44671428Y-15514285D01*
X44671428Y-15285714D01*
X44700000Y-15228571D01*
X44728571Y-15200000D01*
X44785714Y-15171428D01*
X44871428Y-15171428D01*
X44928571Y-15200000D01*
X44957142Y-15228571D01*
X44985714Y-15285714D01*
X44985714Y-15514285D01*
X44671428Y-14971428D02*
X44671428Y-14571428D01*
X45271428Y-14828571D01*
X44671428Y-14228571D02*
X44671428Y-14171428D01*
X44700000Y-14114285D01*
X44728571Y-14085714D01*
X44785714Y-14057142D01*
X44900000Y-14028571D01*
X45042857Y-14028571D01*
X45157142Y-14057142D01*
X45214285Y-14085714D01*
X45242857Y-14114285D01*
X45271428Y-14171428D01*
X45271428Y-14228571D01*
X45242857Y-14285714D01*
X45214285Y-14314285D01*
X45157142Y-14342857D01*
X45042857Y-14371428D01*
X44900000Y-14371428D01*
X44785714Y-14342857D01*
X44728571Y-14314285D01*
X44700000Y-14285714D01*
X44671428Y-14228571D01*
X44671428Y-13485714D02*
X44671428Y-13771428D01*
X44957142Y-13800000D01*
X44928571Y-13771428D01*
X44900000Y-13714285D01*
X44900000Y-13571428D01*
X44928571Y-13514285D01*
X44957142Y-13485714D01*
X45014285Y-13457142D01*
X45157142Y-13457142D01*
X45214285Y-13485714D01*
X45242857Y-13514285D01*
X45271428Y-13571428D01*
X45271428Y-13714285D01*
X45242857Y-13771428D01*
X45214285Y-13800000D01*
X51128571Y-40614285D02*
X51100000Y-40642857D01*
X51014285Y-40671428D01*
X50957142Y-40671428D01*
X50871428Y-40642857D01*
X50814285Y-40585714D01*
X50785714Y-40528571D01*
X50757142Y-40414285D01*
X50757142Y-40328571D01*
X50785714Y-40214285D01*
X50814285Y-40157142D01*
X50871428Y-40100000D01*
X50957142Y-40071428D01*
X51014285Y-40071428D01*
X51100000Y-40100000D01*
X51128571Y-40128571D01*
X51642857Y-40271428D02*
X51642857Y-40671428D01*
X51500000Y-40042857D02*
X51357142Y-40471428D01*
X51728571Y-40471428D01*
X52071428Y-40071428D02*
X52128571Y-40071428D01*
X52185714Y-40100000D01*
X52214285Y-40128571D01*
X52242857Y-40185714D01*
X52271428Y-40300000D01*
X52271428Y-40442857D01*
X52242857Y-40557142D01*
X52214285Y-40614285D01*
X52185714Y-40642857D01*
X52128571Y-40671428D01*
X52071428Y-40671428D01*
X52014285Y-40642857D01*
X51985714Y-40614285D01*
X51957142Y-40557142D01*
X51928571Y-40442857D01*
X51928571Y-40300000D01*
X51957142Y-40185714D01*
X51985714Y-40128571D01*
X52014285Y-40100000D01*
X52071428Y-40071428D01*
X52785714Y-40271428D02*
X52785714Y-40671428D01*
X52642857Y-40042857D02*
X52500000Y-40471428D01*
X52871428Y-40471428D01*
X10314285Y-32071428D02*
X10342857Y-32100000D01*
X10371428Y-32185714D01*
X10371428Y-32242857D01*
X10342857Y-32328571D01*
X10285714Y-32385714D01*
X10228571Y-32414285D01*
X10114285Y-32442857D01*
X10028571Y-32442857D01*
X9914285Y-32414285D01*
X9857142Y-32385714D01*
X9800000Y-32328571D01*
X9771428Y-32242857D01*
X9771428Y-32185714D01*
X9800000Y-32100000D01*
X9828571Y-32071428D01*
X9828571Y-31842857D02*
X9800000Y-31814285D01*
X9771428Y-31757142D01*
X9771428Y-31614285D01*
X9800000Y-31557142D01*
X9828571Y-31528571D01*
X9885714Y-31500000D01*
X9942857Y-31500000D01*
X10028571Y-31528571D01*
X10371428Y-31871428D01*
X10371428Y-31500000D01*
X9771428Y-31128571D02*
X9771428Y-31071428D01*
X9800000Y-31014285D01*
X9828571Y-30985714D01*
X9885714Y-30957142D01*
X10000000Y-30928571D01*
X10142857Y-30928571D01*
X10257142Y-30957142D01*
X10314285Y-30985714D01*
X10342857Y-31014285D01*
X10371428Y-31071428D01*
X10371428Y-31128571D01*
X10342857Y-31185714D01*
X10314285Y-31214285D01*
X10257142Y-31242857D01*
X10142857Y-31271428D01*
X10000000Y-31271428D01*
X9885714Y-31242857D01*
X9828571Y-31214285D01*
X9800000Y-31185714D01*
X9771428Y-31128571D01*
X9771428Y-30414285D02*
X9771428Y-30528571D01*
X9800000Y-30585714D01*
X9828571Y-30614285D01*
X9914285Y-30671428D01*
X10028571Y-30700000D01*
X10257142Y-30700000D01*
X10314285Y-30671428D01*
X10342857Y-30642857D01*
X10371428Y-30585714D01*
X10371428Y-30471428D01*
X10342857Y-30414285D01*
X10314285Y-30385714D01*
X10257142Y-30357142D01*
X10114285Y-30357142D01*
X10057142Y-30385714D01*
X10028571Y-30414285D01*
X10000000Y-30471428D01*
X10000000Y-30585714D01*
X10028571Y-30642857D01*
X10057142Y-30671428D01*
X10114285Y-30700000D01*
X24171428Y-19171428D02*
X23885714Y-19371428D01*
X24171428Y-19514285D02*
X23571428Y-19514285D01*
X23571428Y-19285714D01*
X23600000Y-19228571D01*
X23628571Y-19200000D01*
X23685714Y-19171428D01*
X23771428Y-19171428D01*
X23828571Y-19200000D01*
X23857142Y-19228571D01*
X23885714Y-19285714D01*
X23885714Y-19514285D01*
X23571428Y-18628571D02*
X23571428Y-18914285D01*
X23857142Y-18942857D01*
X23828571Y-18914285D01*
X23800000Y-18857142D01*
X23800000Y-18714285D01*
X23828571Y-18657142D01*
X23857142Y-18628571D01*
X23914285Y-18600000D01*
X24057142Y-18600000D01*
X24114285Y-18628571D01*
X24142857Y-18657142D01*
X24171428Y-18714285D01*
X24171428Y-18857142D01*
X24142857Y-18914285D01*
X24114285Y-18942857D01*
X23571428Y-18228571D02*
X23571428Y-18171428D01*
X23600000Y-18114285D01*
X23628571Y-18085714D01*
X23685714Y-18057142D01*
X23800000Y-18028571D01*
X23942857Y-18028571D01*
X24057142Y-18057142D01*
X24114285Y-18085714D01*
X24142857Y-18114285D01*
X24171428Y-18171428D01*
X24171428Y-18228571D01*
X24142857Y-18285714D01*
X24114285Y-18314285D01*
X24057142Y-18342857D01*
X23942857Y-18371428D01*
X23800000Y-18371428D01*
X23685714Y-18342857D01*
X23628571Y-18314285D01*
X23600000Y-18285714D01*
X23571428Y-18228571D01*
X23771428Y-17514285D02*
X24171428Y-17514285D01*
X23542857Y-17657142D02*
X23971428Y-17800000D01*
X23971428Y-17428571D01*
X15471428Y-25771428D02*
X15185714Y-25971428D01*
X15471428Y-26114285D02*
X14871428Y-26114285D01*
X14871428Y-25885714D01*
X14900000Y-25828571D01*
X14928571Y-25800000D01*
X14985714Y-25771428D01*
X15071428Y-25771428D01*
X15128571Y-25800000D01*
X15157142Y-25828571D01*
X15185714Y-25885714D01*
X15185714Y-26114285D01*
X14871428Y-25228571D02*
X14871428Y-25514285D01*
X15157142Y-25542857D01*
X15128571Y-25514285D01*
X15100000Y-25457142D01*
X15100000Y-25314285D01*
X15128571Y-25257142D01*
X15157142Y-25228571D01*
X15214285Y-25200000D01*
X15357142Y-25200000D01*
X15414285Y-25228571D01*
X15442857Y-25257142D01*
X15471428Y-25314285D01*
X15471428Y-25457142D01*
X15442857Y-25514285D01*
X15414285Y-25542857D01*
X14871428Y-24828571D02*
X14871428Y-24771428D01*
X14900000Y-24714285D01*
X14928571Y-24685714D01*
X14985714Y-24657142D01*
X15100000Y-24628571D01*
X15242857Y-24628571D01*
X15357142Y-24657142D01*
X15414285Y-24685714D01*
X15442857Y-24714285D01*
X15471428Y-24771428D01*
X15471428Y-24828571D01*
X15442857Y-24885714D01*
X15414285Y-24914285D01*
X15357142Y-24942857D01*
X15242857Y-24971428D01*
X15100000Y-24971428D01*
X14985714Y-24942857D01*
X14928571Y-24914285D01*
X14900000Y-24885714D01*
X14871428Y-24828571D01*
X14871428Y-24085714D02*
X14871428Y-24371428D01*
X15157142Y-24400000D01*
X15128571Y-24371428D01*
X15100000Y-24314285D01*
X15100000Y-24171428D01*
X15128571Y-24114285D01*
X15157142Y-24085714D01*
X15214285Y-24057142D01*
X15357142Y-24057142D01*
X15414285Y-24085714D01*
X15442857Y-24114285D01*
X15471428Y-24171428D01*
X15471428Y-24314285D01*
X15442857Y-24371428D01*
X15414285Y-24400000D01*
X39071428Y-8771428D02*
X38785714Y-8971428D01*
X39071428Y-9114285D02*
X38471428Y-9114285D01*
X38471428Y-8885714D01*
X38500000Y-8828571D01*
X38528571Y-8800000D01*
X38585714Y-8771428D01*
X38671428Y-8771428D01*
X38728571Y-8800000D01*
X38757142Y-8828571D01*
X38785714Y-8885714D01*
X38785714Y-9114285D01*
X38471428Y-8257142D02*
X38471428Y-8371428D01*
X38500000Y-8428571D01*
X38528571Y-8457142D01*
X38614285Y-8514285D01*
X38728571Y-8542857D01*
X38957142Y-8542857D01*
X39014285Y-8514285D01*
X39042857Y-8485714D01*
X39071428Y-8428571D01*
X39071428Y-8314285D01*
X39042857Y-8257142D01*
X39014285Y-8228571D01*
X38957142Y-8200000D01*
X38814285Y-8200000D01*
X38757142Y-8228571D01*
X38728571Y-8257142D01*
X38700000Y-8314285D01*
X38700000Y-8428571D01*
X38728571Y-8485714D01*
X38757142Y-8514285D01*
X38814285Y-8542857D01*
X38471428Y-7828571D02*
X38471428Y-7771428D01*
X38500000Y-7714285D01*
X38528571Y-7685714D01*
X38585714Y-7657142D01*
X38700000Y-7628571D01*
X38842857Y-7628571D01*
X38957142Y-7657142D01*
X39014285Y-7685714D01*
X39042857Y-7714285D01*
X39071428Y-7771428D01*
X39071428Y-7828571D01*
X39042857Y-7885714D01*
X39014285Y-7914285D01*
X38957142Y-7942857D01*
X38842857Y-7971428D01*
X38700000Y-7971428D01*
X38585714Y-7942857D01*
X38528571Y-7914285D01*
X38500000Y-7885714D01*
X38471428Y-7828571D01*
X38671428Y-7114285D02*
X39071428Y-7114285D01*
X38442857Y-7257142D02*
X38871428Y-7400000D01*
X38871428Y-7028571D01*
X30271428Y-15171428D02*
X29985714Y-15371428D01*
X30271428Y-15514285D02*
X29671428Y-15514285D01*
X29671428Y-15285714D01*
X29700000Y-15228571D01*
X29728571Y-15200000D01*
X29785714Y-15171428D01*
X29871428Y-15171428D01*
X29928571Y-15200000D01*
X29957142Y-15228571D01*
X29985714Y-15285714D01*
X29985714Y-15514285D01*
X29671428Y-14657142D02*
X29671428Y-14771428D01*
X29700000Y-14828571D01*
X29728571Y-14857142D01*
X29814285Y-14914285D01*
X29928571Y-14942857D01*
X30157142Y-14942857D01*
X30214285Y-14914285D01*
X30242857Y-14885714D01*
X30271428Y-14828571D01*
X30271428Y-14714285D01*
X30242857Y-14657142D01*
X30214285Y-14628571D01*
X30157142Y-14600000D01*
X30014285Y-14600000D01*
X29957142Y-14628571D01*
X29928571Y-14657142D01*
X29900000Y-14714285D01*
X29900000Y-14828571D01*
X29928571Y-14885714D01*
X29957142Y-14914285D01*
X30014285Y-14942857D01*
X29671428Y-14228571D02*
X29671428Y-14171428D01*
X29700000Y-14114285D01*
X29728571Y-14085714D01*
X29785714Y-14057142D01*
X29900000Y-14028571D01*
X30042857Y-14028571D01*
X30157142Y-14057142D01*
X30214285Y-14085714D01*
X30242857Y-14114285D01*
X30271428Y-14171428D01*
X30271428Y-14228571D01*
X30242857Y-14285714D01*
X30214285Y-14314285D01*
X30157142Y-14342857D01*
X30042857Y-14371428D01*
X29900000Y-14371428D01*
X29785714Y-14342857D01*
X29728571Y-14314285D01*
X29700000Y-14285714D01*
X29671428Y-14228571D01*
X29671428Y-13485714D02*
X29671428Y-13771428D01*
X29957142Y-13800000D01*
X29928571Y-13771428D01*
X29900000Y-13714285D01*
X29900000Y-13571428D01*
X29928571Y-13514285D01*
X29957142Y-13485714D01*
X30014285Y-13457142D01*
X30157142Y-13457142D01*
X30214285Y-13485714D01*
X30242857Y-13514285D01*
X30271428Y-13571428D01*
X30271428Y-13714285D01*
X30242857Y-13771428D01*
X30214285Y-13800000D01*
X9328571Y-23714285D02*
X9300000Y-23742857D01*
X9214285Y-23771428D01*
X9157142Y-23771428D01*
X9071428Y-23742857D01*
X9014285Y-23685714D01*
X8985714Y-23628571D01*
X8957142Y-23514285D01*
X8957142Y-23428571D01*
X8985714Y-23314285D01*
X9014285Y-23257142D01*
X9071428Y-23200000D01*
X9157142Y-23171428D01*
X9214285Y-23171428D01*
X9300000Y-23200000D01*
X9328571Y-23228571D01*
X9557142Y-23228571D02*
X9585714Y-23200000D01*
X9642857Y-23171428D01*
X9785714Y-23171428D01*
X9842857Y-23200000D01*
X9871428Y-23228571D01*
X9900000Y-23285714D01*
X9900000Y-23342857D01*
X9871428Y-23428571D01*
X9528571Y-23771428D01*
X9900000Y-23771428D01*
X10271428Y-23171428D02*
X10328571Y-23171428D01*
X10385714Y-23200000D01*
X10414285Y-23228571D01*
X10442857Y-23285714D01*
X10471428Y-23400000D01*
X10471428Y-23542857D01*
X10442857Y-23657142D01*
X10414285Y-23714285D01*
X10385714Y-23742857D01*
X10328571Y-23771428D01*
X10271428Y-23771428D01*
X10214285Y-23742857D01*
X10185714Y-23714285D01*
X10157142Y-23657142D01*
X10128571Y-23542857D01*
X10128571Y-23400000D01*
X10157142Y-23285714D01*
X10185714Y-23228571D01*
X10214285Y-23200000D01*
X10271428Y-23171428D01*
X10700000Y-23228571D02*
X10728571Y-23200000D01*
X10785714Y-23171428D01*
X10928571Y-23171428D01*
X10985714Y-23200000D01*
X11014285Y-23228571D01*
X11042857Y-23285714D01*
X11042857Y-23342857D01*
X11014285Y-23428571D01*
X10671428Y-23771428D01*
X11042857Y-23771428D01*
X16914285Y-33771428D02*
X16942857Y-33800000D01*
X16971428Y-33885714D01*
X16971428Y-33942857D01*
X16942857Y-34028571D01*
X16885714Y-34085714D01*
X16828571Y-34114285D01*
X16714285Y-34142857D01*
X16628571Y-34142857D01*
X16514285Y-34114285D01*
X16457142Y-34085714D01*
X16400000Y-34028571D01*
X16371428Y-33942857D01*
X16371428Y-33885714D01*
X16400000Y-33800000D01*
X16428571Y-33771428D01*
X16371428Y-33228571D02*
X16371428Y-33514285D01*
X16657142Y-33542857D01*
X16628571Y-33514285D01*
X16600000Y-33457142D01*
X16600000Y-33314285D01*
X16628571Y-33257142D01*
X16657142Y-33228571D01*
X16714285Y-33200000D01*
X16857142Y-33200000D01*
X16914285Y-33228571D01*
X16942857Y-33257142D01*
X16971428Y-33314285D01*
X16971428Y-33457142D01*
X16942857Y-33514285D01*
X16914285Y-33542857D01*
X16371428Y-32828571D02*
X16371428Y-32771428D01*
X16400000Y-32714285D01*
X16428571Y-32685714D01*
X16485714Y-32657142D01*
X16600000Y-32628571D01*
X16742857Y-32628571D01*
X16857142Y-32657142D01*
X16914285Y-32685714D01*
X16942857Y-32714285D01*
X16971428Y-32771428D01*
X16971428Y-32828571D01*
X16942857Y-32885714D01*
X16914285Y-32914285D01*
X16857142Y-32942857D01*
X16742857Y-32971428D01*
X16600000Y-32971428D01*
X16485714Y-32942857D01*
X16428571Y-32914285D01*
X16400000Y-32885714D01*
X16371428Y-32828571D01*
X16371428Y-32085714D02*
X16371428Y-32371428D01*
X16657142Y-32400000D01*
X16628571Y-32371428D01*
X16600000Y-32314285D01*
X16600000Y-32171428D01*
X16628571Y-32114285D01*
X16657142Y-32085714D01*
X16714285Y-32057142D01*
X16857142Y-32057142D01*
X16914285Y-32085714D01*
X16942857Y-32114285D01*
X16971428Y-32171428D01*
X16971428Y-32314285D01*
X16942857Y-32371428D01*
X16914285Y-32400000D01*
X1614285Y-33971428D02*
X1642857Y-34000000D01*
X1671428Y-34085714D01*
X1671428Y-34142857D01*
X1642857Y-34228571D01*
X1585714Y-34285714D01*
X1528571Y-34314285D01*
X1414285Y-34342857D01*
X1328571Y-34342857D01*
X1214285Y-34314285D01*
X1157142Y-34285714D01*
X1100000Y-34228571D01*
X1071428Y-34142857D01*
X1071428Y-34085714D01*
X1100000Y-34000000D01*
X1128571Y-33971428D01*
X1128571Y-33742857D02*
X1100000Y-33714285D01*
X1071428Y-33657142D01*
X1071428Y-33514285D01*
X1100000Y-33457142D01*
X1128571Y-33428571D01*
X1185714Y-33400000D01*
X1242857Y-33400000D01*
X1328571Y-33428571D01*
X1671428Y-33771428D01*
X1671428Y-33400000D01*
X1071428Y-33028571D02*
X1071428Y-32971428D01*
X1100000Y-32914285D01*
X1128571Y-32885714D01*
X1185714Y-32857142D01*
X1300000Y-32828571D01*
X1442857Y-32828571D01*
X1557142Y-32857142D01*
X1614285Y-32885714D01*
X1642857Y-32914285D01*
X1671428Y-32971428D01*
X1671428Y-33028571D01*
X1642857Y-33085714D01*
X1614285Y-33114285D01*
X1557142Y-33142857D01*
X1442857Y-33171428D01*
X1300000Y-33171428D01*
X1185714Y-33142857D01*
X1128571Y-33114285D01*
X1100000Y-33085714D01*
X1071428Y-33028571D01*
X1071428Y-32285714D02*
X1071428Y-32571428D01*
X1357142Y-32600000D01*
X1328571Y-32571428D01*
X1300000Y-32514285D01*
X1300000Y-32371428D01*
X1328571Y-32314285D01*
X1357142Y-32285714D01*
X1414285Y-32257142D01*
X1557142Y-32257142D01*
X1614285Y-32285714D01*
X1642857Y-32314285D01*
X1671428Y-32371428D01*
X1671428Y-32514285D01*
X1642857Y-32571428D01*
X1614285Y-32600000D01*
X53328571Y-31214285D02*
X53300000Y-31242857D01*
X53214285Y-31271428D01*
X53157142Y-31271428D01*
X53071428Y-31242857D01*
X53014285Y-31185714D01*
X52985714Y-31128571D01*
X52957142Y-31014285D01*
X52957142Y-30928571D01*
X52985714Y-30814285D01*
X53014285Y-30757142D01*
X53071428Y-30700000D01*
X53157142Y-30671428D01*
X53214285Y-30671428D01*
X53300000Y-30700000D01*
X53328571Y-30728571D01*
X53842857Y-30871428D02*
X53842857Y-31271428D01*
X53700000Y-30642857D02*
X53557142Y-31071428D01*
X53928571Y-31071428D01*
X54271428Y-30671428D02*
X54328571Y-30671428D01*
X54385714Y-30700000D01*
X54414285Y-30728571D01*
X54442857Y-30785714D01*
X54471428Y-30900000D01*
X54471428Y-31042857D01*
X54442857Y-31157142D01*
X54414285Y-31214285D01*
X54385714Y-31242857D01*
X54328571Y-31271428D01*
X54271428Y-31271428D01*
X54214285Y-31242857D01*
X54185714Y-31214285D01*
X54157142Y-31157142D01*
X54128571Y-31042857D01*
X54128571Y-30900000D01*
X54157142Y-30785714D01*
X54185714Y-30728571D01*
X54214285Y-30700000D01*
X54271428Y-30671428D01*
X55014285Y-30671428D02*
X54728571Y-30671428D01*
X54700000Y-30957142D01*
X54728571Y-30928571D01*
X54785714Y-30900000D01*
X54928571Y-30900000D01*
X54985714Y-30928571D01*
X55014285Y-30957142D01*
X55042857Y-31014285D01*
X55042857Y-31157142D01*
X55014285Y-31214285D01*
X54985714Y-31242857D01*
X54928571Y-31271428D01*
X54785714Y-31271428D01*
X54728571Y-31242857D01*
X54700000Y-31214285D01*
X31814285Y-23371428D02*
X31842857Y-23400000D01*
X31871428Y-23485714D01*
X31871428Y-23542857D01*
X31842857Y-23628571D01*
X31785714Y-23685714D01*
X31728571Y-23714285D01*
X31614285Y-23742857D01*
X31528571Y-23742857D01*
X31414285Y-23714285D01*
X31357142Y-23685714D01*
X31300000Y-23628571D01*
X31271428Y-23542857D01*
X31271428Y-23485714D01*
X31300000Y-23400000D01*
X31328571Y-23371428D01*
X31271428Y-22857142D02*
X31271428Y-22971428D01*
X31300000Y-23028571D01*
X31328571Y-23057142D01*
X31414285Y-23114285D01*
X31528571Y-23142857D01*
X31757142Y-23142857D01*
X31814285Y-23114285D01*
X31842857Y-23085714D01*
X31871428Y-23028571D01*
X31871428Y-22914285D01*
X31842857Y-22857142D01*
X31814285Y-22828571D01*
X31757142Y-22800000D01*
X31614285Y-22800000D01*
X31557142Y-22828571D01*
X31528571Y-22857142D01*
X31500000Y-22914285D01*
X31500000Y-23028571D01*
X31528571Y-23085714D01*
X31557142Y-23114285D01*
X31614285Y-23142857D01*
X31271428Y-22428571D02*
X31271428Y-22371428D01*
X31300000Y-22314285D01*
X31328571Y-22285714D01*
X31385714Y-22257142D01*
X31500000Y-22228571D01*
X31642857Y-22228571D01*
X31757142Y-22257142D01*
X31814285Y-22285714D01*
X31842857Y-22314285D01*
X31871428Y-22371428D01*
X31871428Y-22428571D01*
X31842857Y-22485714D01*
X31814285Y-22514285D01*
X31757142Y-22542857D01*
X31642857Y-22571428D01*
X31500000Y-22571428D01*
X31385714Y-22542857D01*
X31328571Y-22514285D01*
X31300000Y-22485714D01*
X31271428Y-22428571D01*
X31271428Y-21685714D02*
X31271428Y-21971428D01*
X31557142Y-22000000D01*
X31528571Y-21971428D01*
X31500000Y-21914285D01*
X31500000Y-21771428D01*
X31528571Y-21714285D01*
X31557142Y-21685714D01*
X31614285Y-21657142D01*
X31757142Y-21657142D01*
X31814285Y-21685714D01*
X31842857Y-21714285D01*
X31871428Y-21771428D01*
X31871428Y-21914285D01*
X31842857Y-21971428D01*
X31814285Y-22000000D01*
X46514285Y-24371428D02*
X46542857Y-24400000D01*
X46571428Y-24485714D01*
X46571428Y-24542857D01*
X46542857Y-24628571D01*
X46485714Y-24685714D01*
X46428571Y-24714285D01*
X46314285Y-24742857D01*
X46228571Y-24742857D01*
X46114285Y-24714285D01*
X46057142Y-24685714D01*
X46000000Y-24628571D01*
X45971428Y-24542857D01*
X45971428Y-24485714D01*
X46000000Y-24400000D01*
X46028571Y-24371428D01*
X45971428Y-24171428D02*
X45971428Y-23771428D01*
X46571428Y-24028571D01*
X45971428Y-23428571D02*
X45971428Y-23371428D01*
X46000000Y-23314285D01*
X46028571Y-23285714D01*
X46085714Y-23257142D01*
X46200000Y-23228571D01*
X46342857Y-23228571D01*
X46457142Y-23257142D01*
X46514285Y-23285714D01*
X46542857Y-23314285D01*
X46571428Y-23371428D01*
X46571428Y-23428571D01*
X46542857Y-23485714D01*
X46514285Y-23514285D01*
X46457142Y-23542857D01*
X46342857Y-23571428D01*
X46200000Y-23571428D01*
X46085714Y-23542857D01*
X46028571Y-23514285D01*
X46000000Y-23485714D01*
X45971428Y-23428571D01*
X45971428Y-22685714D02*
X45971428Y-22971428D01*
X46257142Y-23000000D01*
X46228571Y-22971428D01*
X46200000Y-22914285D01*
X46200000Y-22771428D01*
X46228571Y-22714285D01*
X46257142Y-22685714D01*
X46314285Y-22657142D01*
X46457142Y-22657142D01*
X46514285Y-22685714D01*
X46542857Y-22714285D01*
X46571428Y-22771428D01*
X46571428Y-22914285D01*
X46542857Y-22971428D01*
X46514285Y-23000000D01*
X26671428Y-29271428D02*
X26671428Y-29757142D01*
X26700000Y-29814285D01*
X26728571Y-29842857D01*
X26785714Y-29871428D01*
X26900000Y-29871428D01*
X26957142Y-29842857D01*
X26985714Y-29814285D01*
X27014285Y-29757142D01*
X27014285Y-29271428D01*
X27585714Y-29271428D02*
X27300000Y-29271428D01*
X27271428Y-29557142D01*
X27300000Y-29528571D01*
X27357142Y-29500000D01*
X27500000Y-29500000D01*
X27557142Y-29528571D01*
X27585714Y-29557142D01*
X27614285Y-29614285D01*
X27614285Y-29757142D01*
X27585714Y-29814285D01*
X27557142Y-29842857D01*
X27500000Y-29871428D01*
X27357142Y-29871428D01*
X27300000Y-29842857D01*
X27271428Y-29814285D01*
X27985714Y-29271428D02*
X28042857Y-29271428D01*
X28100000Y-29300000D01*
X28128571Y-29328571D01*
X28157142Y-29385714D01*
X28185714Y-29500000D01*
X28185714Y-29642857D01*
X28157142Y-29757142D01*
X28128571Y-29814285D01*
X28100000Y-29842857D01*
X28042857Y-29871428D01*
X27985714Y-29871428D01*
X27928571Y-29842857D01*
X27900000Y-29814285D01*
X27871428Y-29757142D01*
X27842857Y-29642857D01*
X27842857Y-29500000D01*
X27871428Y-29385714D01*
X27900000Y-29328571D01*
X27928571Y-29300000D01*
X27985714Y-29271428D01*
X28414285Y-29328571D02*
X28442857Y-29300000D01*
X28500000Y-29271428D01*
X28642857Y-29271428D01*
X28700000Y-29300000D01*
X28728571Y-29328571D01*
X28757142Y-29385714D01*
X28757142Y-29442857D01*
X28728571Y-29528571D01*
X28385714Y-29871428D01*
X28757142Y-29871428D01*
X35971428Y-12671428D02*
X35971428Y-13157142D01*
X36000000Y-13214285D01*
X36028571Y-13242857D01*
X36085714Y-13271428D01*
X36200000Y-13271428D01*
X36257142Y-13242857D01*
X36285714Y-13214285D01*
X36314285Y-13157142D01*
X36314285Y-12671428D01*
X36857142Y-12671428D02*
X36742857Y-12671428D01*
X36685714Y-12700000D01*
X36657142Y-12728571D01*
X36600000Y-12814285D01*
X36571428Y-12928571D01*
X36571428Y-13157142D01*
X36600000Y-13214285D01*
X36628571Y-13242857D01*
X36685714Y-13271428D01*
X36800000Y-13271428D01*
X36857142Y-13242857D01*
X36885714Y-13214285D01*
X36914285Y-13157142D01*
X36914285Y-13014285D01*
X36885714Y-12957142D01*
X36857142Y-12928571D01*
X36800000Y-12900000D01*
X36685714Y-12900000D01*
X36628571Y-12928571D01*
X36600000Y-12957142D01*
X36571428Y-13014285D01*
X37285714Y-12671428D02*
X37342857Y-12671428D01*
X37400000Y-12700000D01*
X37428571Y-12728571D01*
X37457142Y-12785714D01*
X37485714Y-12900000D01*
X37485714Y-13042857D01*
X37457142Y-13157142D01*
X37428571Y-13214285D01*
X37400000Y-13242857D01*
X37342857Y-13271428D01*
X37285714Y-13271428D01*
X37228571Y-13242857D01*
X37200000Y-13214285D01*
X37171428Y-13157142D01*
X37142857Y-13042857D01*
X37142857Y-12900000D01*
X37171428Y-12785714D01*
X37200000Y-12728571D01*
X37228571Y-12700000D01*
X37285714Y-12671428D01*
X37714285Y-12728571D02*
X37742857Y-12700000D01*
X37800000Y-12671428D01*
X37942857Y-12671428D01*
X38000000Y-12700000D01*
X38028571Y-12728571D01*
X38057142Y-12785714D01*
X38057142Y-12842857D01*
X38028571Y-12928571D01*
X37685714Y-13271428D01*
X38057142Y-13271428D01*
X56671428Y-18871428D02*
X56671428Y-19357142D01*
X56700000Y-19414285D01*
X56728571Y-19442857D01*
X56785714Y-19471428D01*
X56900000Y-19471428D01*
X56957142Y-19442857D01*
X56985714Y-19414285D01*
X57014285Y-19357142D01*
X57014285Y-18871428D01*
X57242857Y-18871428D02*
X57642857Y-18871428D01*
X57385714Y-19471428D01*
X57985714Y-18871428D02*
X58042857Y-18871428D01*
X58100000Y-18900000D01*
X58128571Y-18928571D01*
X58157142Y-18985714D01*
X58185714Y-19100000D01*
X58185714Y-19242857D01*
X58157142Y-19357142D01*
X58128571Y-19414285D01*
X58100000Y-19442857D01*
X58042857Y-19471428D01*
X57985714Y-19471428D01*
X57928571Y-19442857D01*
X57900000Y-19414285D01*
X57871428Y-19357142D01*
X57842857Y-19242857D01*
X57842857Y-19100000D01*
X57871428Y-18985714D01*
X57900000Y-18928571D01*
X57928571Y-18900000D01*
X57985714Y-18871428D01*
X58414285Y-18928571D02*
X58442857Y-18900000D01*
X58500000Y-18871428D01*
X58642857Y-18871428D01*
X58700000Y-18900000D01*
X58728571Y-18928571D01*
X58757142Y-18985714D01*
X58757142Y-19042857D01*
X58728571Y-19128571D01*
X58385714Y-19471428D01*
X58757142Y-19471428D01*
X10771428Y-30171428D02*
X10771428Y-30657142D01*
X10800000Y-30714285D01*
X10828571Y-30742857D01*
X10885714Y-30771428D01*
X11000000Y-30771428D01*
X11057142Y-30742857D01*
X11085714Y-30714285D01*
X11114285Y-30657142D01*
X11114285Y-30171428D01*
X11371428Y-30228571D02*
X11400000Y-30200000D01*
X11457142Y-30171428D01*
X11600000Y-30171428D01*
X11657142Y-30200000D01*
X11685714Y-30228571D01*
X11714285Y-30285714D01*
X11714285Y-30342857D01*
X11685714Y-30428571D01*
X11342857Y-30771428D01*
X11714285Y-30771428D01*
X12085714Y-30171428D02*
X12142857Y-30171428D01*
X12200000Y-30200000D01*
X12228571Y-30228571D01*
X12257142Y-30285714D01*
X12285714Y-30400000D01*
X12285714Y-30542857D01*
X12257142Y-30657142D01*
X12228571Y-30714285D01*
X12200000Y-30742857D01*
X12142857Y-30771428D01*
X12085714Y-30771428D01*
X12028571Y-30742857D01*
X12000000Y-30714285D01*
X11971428Y-30657142D01*
X11942857Y-30542857D01*
X11942857Y-30400000D01*
X11971428Y-30285714D01*
X12000000Y-30228571D01*
X12028571Y-30200000D01*
X12085714Y-30171428D01*
X12514285Y-30228571D02*
X12542857Y-30200000D01*
X12600000Y-30171428D01*
X12742857Y-30171428D01*
X12800000Y-30200000D01*
X12828571Y-30228571D01*
X12857142Y-30285714D01*
X12857142Y-30342857D01*
X12828571Y-30428571D01*
X12485714Y-30771428D01*
X12857142Y-30771428D01*
X20971428Y-20571428D02*
X20971428Y-21057142D01*
X21000000Y-21114285D01*
X21028571Y-21142857D01*
X21085714Y-21171428D01*
X21200000Y-21171428D01*
X21257142Y-21142857D01*
X21285714Y-21114285D01*
X21314285Y-21057142D01*
X21314285Y-20571428D01*
X21885714Y-20571428D02*
X21600000Y-20571428D01*
X21571428Y-20857142D01*
X21600000Y-20828571D01*
X21657142Y-20800000D01*
X21800000Y-20800000D01*
X21857142Y-20828571D01*
X21885714Y-20857142D01*
X21914285Y-20914285D01*
X21914285Y-21057142D01*
X21885714Y-21114285D01*
X21857142Y-21142857D01*
X21800000Y-21171428D01*
X21657142Y-21171428D01*
X21600000Y-21142857D01*
X21571428Y-21114285D01*
X22285714Y-20571428D02*
X22342857Y-20571428D01*
X22400000Y-20600000D01*
X22428571Y-20628571D01*
X22457142Y-20685714D01*
X22485714Y-20800000D01*
X22485714Y-20942857D01*
X22457142Y-21057142D01*
X22428571Y-21114285D01*
X22400000Y-21142857D01*
X22342857Y-21171428D01*
X22285714Y-21171428D01*
X22228571Y-21142857D01*
X22200000Y-21114285D01*
X22171428Y-21057142D01*
X22142857Y-20942857D01*
X22142857Y-20800000D01*
X22171428Y-20685714D01*
X22200000Y-20628571D01*
X22228571Y-20600000D01*
X22285714Y-20571428D01*
X23057142Y-21171428D02*
X22714285Y-21171428D01*
X22885714Y-21171428D02*
X22885714Y-20571428D01*
X22828571Y-20657142D01*
X22771428Y-20714285D01*
X22714285Y-20742857D01*
X35971428Y-9971428D02*
X35971428Y-10457142D01*
X36000000Y-10514285D01*
X36028571Y-10542857D01*
X36085714Y-10571428D01*
X36200000Y-10571428D01*
X36257142Y-10542857D01*
X36285714Y-10514285D01*
X36314285Y-10457142D01*
X36314285Y-9971428D01*
X36857142Y-9971428D02*
X36742857Y-9971428D01*
X36685714Y-10000000D01*
X36657142Y-10028571D01*
X36600000Y-10114285D01*
X36571428Y-10228571D01*
X36571428Y-10457142D01*
X36600000Y-10514285D01*
X36628571Y-10542857D01*
X36685714Y-10571428D01*
X36800000Y-10571428D01*
X36857142Y-10542857D01*
X36885714Y-10514285D01*
X36914285Y-10457142D01*
X36914285Y-10314285D01*
X36885714Y-10257142D01*
X36857142Y-10228571D01*
X36800000Y-10200000D01*
X36685714Y-10200000D01*
X36628571Y-10228571D01*
X36600000Y-10257142D01*
X36571428Y-10314285D01*
X37285714Y-9971428D02*
X37342857Y-9971428D01*
X37400000Y-10000000D01*
X37428571Y-10028571D01*
X37457142Y-10085714D01*
X37485714Y-10200000D01*
X37485714Y-10342857D01*
X37457142Y-10457142D01*
X37428571Y-10514285D01*
X37400000Y-10542857D01*
X37342857Y-10571428D01*
X37285714Y-10571428D01*
X37228571Y-10542857D01*
X37200000Y-10514285D01*
X37171428Y-10457142D01*
X37142857Y-10342857D01*
X37142857Y-10200000D01*
X37171428Y-10085714D01*
X37200000Y-10028571D01*
X37228571Y-10000000D01*
X37285714Y-9971428D01*
X38057142Y-10571428D02*
X37714285Y-10571428D01*
X37885714Y-10571428D02*
X37885714Y-9971428D01*
X37828571Y-10057142D01*
X37771428Y-10114285D01*
X37714285Y-10142857D01*
X51471428Y-9871428D02*
X51471428Y-10357142D01*
X51500000Y-10414285D01*
X51528571Y-10442857D01*
X51585714Y-10471428D01*
X51700000Y-10471428D01*
X51757142Y-10442857D01*
X51785714Y-10414285D01*
X51814285Y-10357142D01*
X51814285Y-9871428D01*
X52042857Y-9871428D02*
X52442857Y-9871428D01*
X52185714Y-10471428D01*
X52785714Y-9871428D02*
X52842857Y-9871428D01*
X52900000Y-9900000D01*
X52928571Y-9928571D01*
X52957142Y-9985714D01*
X52985714Y-10100000D01*
X52985714Y-10242857D01*
X52957142Y-10357142D01*
X52928571Y-10414285D01*
X52900000Y-10442857D01*
X52842857Y-10471428D01*
X52785714Y-10471428D01*
X52728571Y-10442857D01*
X52700000Y-10414285D01*
X52671428Y-10357142D01*
X52642857Y-10242857D01*
X52642857Y-10100000D01*
X52671428Y-9985714D01*
X52700000Y-9928571D01*
X52728571Y-9900000D01*
X52785714Y-9871428D01*
X53557142Y-10471428D02*
X53214285Y-10471428D01*
X53385714Y-10471428D02*
X53385714Y-9871428D01*
X53328571Y-9957142D01*
X53271428Y-10014285D01*
X53214285Y-10042857D01*
X43528571Y-30071428D02*
X43528571Y-30500000D01*
X43500000Y-30585714D01*
X43442857Y-30642857D01*
X43357142Y-30671428D01*
X43300000Y-30671428D01*
X44128571Y-30671428D02*
X43785714Y-30671428D01*
X43957142Y-30671428D02*
X43957142Y-30071428D01*
X43900000Y-30157142D01*
X43842857Y-30214285D01*
X43785714Y-30242857D01*
X44500000Y-30071428D02*
X44557142Y-30071428D01*
X44614285Y-30100000D01*
X44642857Y-30128571D01*
X44671428Y-30185714D01*
X44700000Y-30300000D01*
X44700000Y-30442857D01*
X44671428Y-30557142D01*
X44642857Y-30614285D01*
X44614285Y-30642857D01*
X44557142Y-30671428D01*
X44500000Y-30671428D01*
X44442857Y-30642857D01*
X44414285Y-30614285D01*
X44385714Y-30557142D01*
X44357142Y-30442857D01*
X44357142Y-30300000D01*
X44385714Y-30185714D01*
X44414285Y-30128571D01*
X44442857Y-30100000D01*
X44500000Y-30071428D01*
X45271428Y-30671428D02*
X44928571Y-30671428D01*
X45100000Y-30671428D02*
X45100000Y-30071428D01*
X45042857Y-30157142D01*
X44985714Y-30214285D01*
X44928571Y-30242857D01*
X31685714Y-32871428D02*
X31685714Y-32271428D01*
X31828571Y-32271428D01*
X31914285Y-32300000D01*
X31971428Y-32357142D01*
X32000000Y-32414285D01*
X32028571Y-32528571D01*
X32028571Y-32614285D01*
X32000000Y-32728571D01*
X31971428Y-32785714D01*
X31914285Y-32842857D01*
X31828571Y-32871428D01*
X31685714Y-32871428D01*
X32600000Y-32871428D02*
X32257142Y-32871428D01*
X32428571Y-32871428D02*
X32428571Y-32271428D01*
X32371428Y-32357142D01*
X32314285Y-32414285D01*
X32257142Y-32442857D01*
X32971428Y-32271428D02*
X33028571Y-32271428D01*
X33085714Y-32300000D01*
X33114285Y-32328571D01*
X33142857Y-32385714D01*
X33171428Y-32500000D01*
X33171428Y-32642857D01*
X33142857Y-32757142D01*
X33114285Y-32814285D01*
X33085714Y-32842857D01*
X33028571Y-32871428D01*
X32971428Y-32871428D01*
X32914285Y-32842857D01*
X32885714Y-32814285D01*
X32857142Y-32757142D01*
X32828571Y-32642857D01*
X32828571Y-32500000D01*
X32857142Y-32385714D01*
X32885714Y-32328571D01*
X32914285Y-32300000D01*
X32971428Y-32271428D01*
X33742857Y-32871428D02*
X33400000Y-32871428D01*
X33571428Y-32871428D02*
X33571428Y-32271428D01*
X33514285Y-32357142D01*
X33457142Y-32414285D01*
X33400000Y-32442857D01*
X70371428Y-15971428D02*
X70085714Y-16171428D01*
X70371428Y-16314285D02*
X69771428Y-16314285D01*
X69771428Y-16085714D01*
X69800000Y-16028571D01*
X69828571Y-16000000D01*
X69885714Y-15971428D01*
X69971428Y-15971428D01*
X70028571Y-16000000D01*
X70057142Y-16028571D01*
X70085714Y-16085714D01*
X70085714Y-16314285D01*
X69771428Y-15771428D02*
X69771428Y-15400000D01*
X70000000Y-15600000D01*
X70000000Y-15514285D01*
X70028571Y-15457142D01*
X70057142Y-15428571D01*
X70114285Y-15400000D01*
X70257142Y-15400000D01*
X70314285Y-15428571D01*
X70342857Y-15457142D01*
X70371428Y-15514285D01*
X70371428Y-15685714D01*
X70342857Y-15742857D01*
X70314285Y-15771428D01*
X69771428Y-15028571D02*
X69771428Y-14971428D01*
X69800000Y-14914285D01*
X69828571Y-14885714D01*
X69885714Y-14857142D01*
X70000000Y-14828571D01*
X70142857Y-14828571D01*
X70257142Y-14857142D01*
X70314285Y-14885714D01*
X70342857Y-14914285D01*
X70371428Y-14971428D01*
X70371428Y-15028571D01*
X70342857Y-15085714D01*
X70314285Y-15114285D01*
X70257142Y-15142857D01*
X70142857Y-15171428D01*
X70000000Y-15171428D01*
X69885714Y-15142857D01*
X69828571Y-15114285D01*
X69800000Y-15085714D01*
X69771428Y-15028571D01*
X69771428Y-14628571D02*
X69771428Y-14257142D01*
X70000000Y-14457142D01*
X70000000Y-14371428D01*
X70028571Y-14314285D01*
X70057142Y-14285714D01*
X70114285Y-14257142D01*
X70257142Y-14257142D01*
X70314285Y-14285714D01*
X70342857Y-14314285D01*
X70371428Y-14371428D01*
X70371428Y-14542857D01*
X70342857Y-14600000D01*
X70314285Y-14628571D01*
X59971428Y-16171428D02*
X59685714Y-16371428D01*
X59971428Y-16514285D02*
X59371428Y-16514285D01*
X59371428Y-16285714D01*
X59400000Y-16228571D01*
X59428571Y-16200000D01*
X59485714Y-16171428D01*
X59571428Y-16171428D01*
X59628571Y-16200000D01*
X59657142Y-16228571D01*
X59685714Y-16285714D01*
X59685714Y-16514285D01*
X59371428Y-15971428D02*
X59371428Y-15600000D01*
X59600000Y-15800000D01*
X59600000Y-15714285D01*
X59628571Y-15657142D01*
X59657142Y-15628571D01*
X59714285Y-15600000D01*
X59857142Y-15600000D01*
X59914285Y-15628571D01*
X59942857Y-15657142D01*
X59971428Y-15714285D01*
X59971428Y-15885714D01*
X59942857Y-15942857D01*
X59914285Y-15971428D01*
X59371428Y-15228571D02*
X59371428Y-15171428D01*
X59400000Y-15114285D01*
X59428571Y-15085714D01*
X59485714Y-15057142D01*
X59600000Y-15028571D01*
X59742857Y-15028571D01*
X59857142Y-15057142D01*
X59914285Y-15085714D01*
X59942857Y-15114285D01*
X59971428Y-15171428D01*
X59971428Y-15228571D01*
X59942857Y-15285714D01*
X59914285Y-15314285D01*
X59857142Y-15342857D01*
X59742857Y-15371428D01*
X59600000Y-15371428D01*
X59485714Y-15342857D01*
X59428571Y-15314285D01*
X59400000Y-15285714D01*
X59371428Y-15228571D01*
X59971428Y-14457142D02*
X59971428Y-14800000D01*
X59971428Y-14628571D02*
X59371428Y-14628571D01*
X59457142Y-14685714D01*
X59514285Y-14742857D01*
X59542857Y-14800000D01*
X60971428Y-16271428D02*
X60685714Y-16471428D01*
X60971428Y-16614285D02*
X60371428Y-16614285D01*
X60371428Y-16385714D01*
X60400000Y-16328571D01*
X60428571Y-16300000D01*
X60485714Y-16271428D01*
X60571428Y-16271428D01*
X60628571Y-16300000D01*
X60657142Y-16328571D01*
X60685714Y-16385714D01*
X60685714Y-16614285D01*
X60371428Y-16071428D02*
X60371428Y-15700000D01*
X60600000Y-15900000D01*
X60600000Y-15814285D01*
X60628571Y-15757142D01*
X60657142Y-15728571D01*
X60714285Y-15700000D01*
X60857142Y-15700000D01*
X60914285Y-15728571D01*
X60942857Y-15757142D01*
X60971428Y-15814285D01*
X60971428Y-15985714D01*
X60942857Y-16042857D01*
X60914285Y-16071428D01*
X60371428Y-15328571D02*
X60371428Y-15271428D01*
X60400000Y-15214285D01*
X60428571Y-15185714D01*
X60485714Y-15157142D01*
X60600000Y-15128571D01*
X60742857Y-15128571D01*
X60857142Y-15157142D01*
X60914285Y-15185714D01*
X60942857Y-15214285D01*
X60971428Y-15271428D01*
X60971428Y-15328571D01*
X60942857Y-15385714D01*
X60914285Y-15414285D01*
X60857142Y-15442857D01*
X60742857Y-15471428D01*
X60600000Y-15471428D01*
X60485714Y-15442857D01*
X60428571Y-15414285D01*
X60400000Y-15385714D01*
X60371428Y-15328571D01*
X60428571Y-14900000D02*
X60400000Y-14871428D01*
X60371428Y-14814285D01*
X60371428Y-14671428D01*
X60400000Y-14614285D01*
X60428571Y-14585714D01*
X60485714Y-14557142D01*
X60542857Y-14557142D01*
X60628571Y-14585714D01*
X60971428Y-14928571D01*
X60971428Y-14557142D01*
X71471428Y-15971428D02*
X71185714Y-16171428D01*
X71471428Y-16314285D02*
X70871428Y-16314285D01*
X70871428Y-16085714D01*
X70900000Y-16028571D01*
X70928571Y-16000000D01*
X70985714Y-15971428D01*
X71071428Y-15971428D01*
X71128571Y-16000000D01*
X71157142Y-16028571D01*
X71185714Y-16085714D01*
X71185714Y-16314285D01*
X70871428Y-15771428D02*
X70871428Y-15400000D01*
X71100000Y-15600000D01*
X71100000Y-15514285D01*
X71128571Y-15457142D01*
X71157142Y-15428571D01*
X71214285Y-15400000D01*
X71357142Y-15400000D01*
X71414285Y-15428571D01*
X71442857Y-15457142D01*
X71471428Y-15514285D01*
X71471428Y-15685714D01*
X71442857Y-15742857D01*
X71414285Y-15771428D01*
X70871428Y-15028571D02*
X70871428Y-14971428D01*
X70900000Y-14914285D01*
X70928571Y-14885714D01*
X70985714Y-14857142D01*
X71100000Y-14828571D01*
X71242857Y-14828571D01*
X71357142Y-14857142D01*
X71414285Y-14885714D01*
X71442857Y-14914285D01*
X71471428Y-14971428D01*
X71471428Y-15028571D01*
X71442857Y-15085714D01*
X71414285Y-15114285D01*
X71357142Y-15142857D01*
X71242857Y-15171428D01*
X71100000Y-15171428D01*
X70985714Y-15142857D01*
X70928571Y-15114285D01*
X70900000Y-15085714D01*
X70871428Y-15028571D01*
X71071428Y-14314285D02*
X71471428Y-14314285D01*
X70842857Y-14457142D02*
X71271428Y-14600000D01*
X71271428Y-14228571D01*
X30114285Y-19071428D02*
X30142857Y-19100000D01*
X30171428Y-19185714D01*
X30171428Y-19242857D01*
X30142857Y-19328571D01*
X30085714Y-19385714D01*
X30028571Y-19414285D01*
X29914285Y-19442857D01*
X29828571Y-19442857D01*
X29714285Y-19414285D01*
X29657142Y-19385714D01*
X29600000Y-19328571D01*
X29571428Y-19242857D01*
X29571428Y-19185714D01*
X29600000Y-19100000D01*
X29628571Y-19071428D01*
X29571428Y-18557142D02*
X29571428Y-18671428D01*
X29600000Y-18728571D01*
X29628571Y-18757142D01*
X29714285Y-18814285D01*
X29828571Y-18842857D01*
X30057142Y-18842857D01*
X30114285Y-18814285D01*
X30142857Y-18785714D01*
X30171428Y-18728571D01*
X30171428Y-18614285D01*
X30142857Y-18557142D01*
X30114285Y-18528571D01*
X30057142Y-18500000D01*
X29914285Y-18500000D01*
X29857142Y-18528571D01*
X29828571Y-18557142D01*
X29800000Y-18614285D01*
X29800000Y-18728571D01*
X29828571Y-18785714D01*
X29857142Y-18814285D01*
X29914285Y-18842857D01*
X29571428Y-18128571D02*
X29571428Y-18071428D01*
X29600000Y-18014285D01*
X29628571Y-17985714D01*
X29685714Y-17957142D01*
X29800000Y-17928571D01*
X29942857Y-17928571D01*
X30057142Y-17957142D01*
X30114285Y-17985714D01*
X30142857Y-18014285D01*
X30171428Y-18071428D01*
X30171428Y-18128571D01*
X30142857Y-18185714D01*
X30114285Y-18214285D01*
X30057142Y-18242857D01*
X29942857Y-18271428D01*
X29800000Y-18271428D01*
X29685714Y-18242857D01*
X29628571Y-18214285D01*
X29600000Y-18185714D01*
X29571428Y-18128571D01*
X29571428Y-17728571D02*
X29571428Y-17357142D01*
X29800000Y-17557142D01*
X29800000Y-17471428D01*
X29828571Y-17414285D01*
X29857142Y-17385714D01*
X29914285Y-17357142D01*
X30057142Y-17357142D01*
X30114285Y-17385714D01*
X30142857Y-17414285D01*
X30171428Y-17471428D01*
X30171428Y-17642857D01*
X30142857Y-17700000D01*
X30114285Y-17728571D01*
X3928571Y-23614285D02*
X3900000Y-23642857D01*
X3814285Y-23671428D01*
X3757142Y-23671428D01*
X3671428Y-23642857D01*
X3614285Y-23585714D01*
X3585714Y-23528571D01*
X3557142Y-23414285D01*
X3557142Y-23328571D01*
X3585714Y-23214285D01*
X3614285Y-23157142D01*
X3671428Y-23100000D01*
X3757142Y-23071428D01*
X3814285Y-23071428D01*
X3900000Y-23100000D01*
X3928571Y-23128571D01*
X4157142Y-23128571D02*
X4185714Y-23100000D01*
X4242857Y-23071428D01*
X4385714Y-23071428D01*
X4442857Y-23100000D01*
X4471428Y-23128571D01*
X4500000Y-23185714D01*
X4500000Y-23242857D01*
X4471428Y-23328571D01*
X4128571Y-23671428D01*
X4500000Y-23671428D01*
X4871428Y-23071428D02*
X4928571Y-23071428D01*
X4985714Y-23100000D01*
X5014285Y-23128571D01*
X5042857Y-23185714D01*
X5071428Y-23300000D01*
X5071428Y-23442857D01*
X5042857Y-23557142D01*
X5014285Y-23614285D01*
X4985714Y-23642857D01*
X4928571Y-23671428D01*
X4871428Y-23671428D01*
X4814285Y-23642857D01*
X4785714Y-23614285D01*
X4757142Y-23557142D01*
X4728571Y-23442857D01*
X4728571Y-23300000D01*
X4757142Y-23185714D01*
X4785714Y-23128571D01*
X4814285Y-23100000D01*
X4871428Y-23071428D01*
X5642857Y-23671428D02*
X5300000Y-23671428D01*
X5471428Y-23671428D02*
X5471428Y-23071428D01*
X5414285Y-23157142D01*
X5357142Y-23214285D01*
X5300000Y-23242857D01*
X55614285Y-24071428D02*
X55642857Y-24100000D01*
X55671428Y-24185714D01*
X55671428Y-24242857D01*
X55642857Y-24328571D01*
X55585714Y-24385714D01*
X55528571Y-24414285D01*
X55414285Y-24442857D01*
X55328571Y-24442857D01*
X55214285Y-24414285D01*
X55157142Y-24385714D01*
X55100000Y-24328571D01*
X55071428Y-24242857D01*
X55071428Y-24185714D01*
X55100000Y-24100000D01*
X55128571Y-24071428D01*
X55071428Y-23871428D02*
X55071428Y-23471428D01*
X55671428Y-23728571D01*
X55071428Y-23128571D02*
X55071428Y-23071428D01*
X55100000Y-23014285D01*
X55128571Y-22985714D01*
X55185714Y-22957142D01*
X55300000Y-22928571D01*
X55442857Y-22928571D01*
X55557142Y-22957142D01*
X55614285Y-22985714D01*
X55642857Y-23014285D01*
X55671428Y-23071428D01*
X55671428Y-23128571D01*
X55642857Y-23185714D01*
X55614285Y-23214285D01*
X55557142Y-23242857D01*
X55442857Y-23271428D01*
X55300000Y-23271428D01*
X55185714Y-23242857D01*
X55128571Y-23214285D01*
X55100000Y-23185714D01*
X55071428Y-23128571D01*
X55271428Y-22414285D02*
X55671428Y-22414285D01*
X55042857Y-22557142D02*
X55471428Y-22700000D01*
X55471428Y-22328571D01*
X45414285Y-19271428D02*
X45442857Y-19300000D01*
X45471428Y-19385714D01*
X45471428Y-19442857D01*
X45442857Y-19528571D01*
X45385714Y-19585714D01*
X45328571Y-19614285D01*
X45214285Y-19642857D01*
X45128571Y-19642857D01*
X45014285Y-19614285D01*
X44957142Y-19585714D01*
X44900000Y-19528571D01*
X44871428Y-19442857D01*
X44871428Y-19385714D01*
X44900000Y-19300000D01*
X44928571Y-19271428D01*
X44871428Y-19071428D02*
X44871428Y-18671428D01*
X45471428Y-18928571D01*
X44871428Y-18328571D02*
X44871428Y-18271428D01*
X44900000Y-18214285D01*
X44928571Y-18185714D01*
X44985714Y-18157142D01*
X45100000Y-18128571D01*
X45242857Y-18128571D01*
X45357142Y-18157142D01*
X45414285Y-18185714D01*
X45442857Y-18214285D01*
X45471428Y-18271428D01*
X45471428Y-18328571D01*
X45442857Y-18385714D01*
X45414285Y-18414285D01*
X45357142Y-18442857D01*
X45242857Y-18471428D01*
X45100000Y-18471428D01*
X44985714Y-18442857D01*
X44928571Y-18414285D01*
X44900000Y-18385714D01*
X44871428Y-18328571D01*
X44871428Y-17928571D02*
X44871428Y-17557142D01*
X45100000Y-17757142D01*
X45100000Y-17671428D01*
X45128571Y-17614285D01*
X45157142Y-17585714D01*
X45214285Y-17557142D01*
X45357142Y-17557142D01*
X45414285Y-17585714D01*
X45442857Y-17614285D01*
X45471428Y-17671428D01*
X45471428Y-17842857D01*
X45442857Y-17900000D01*
X45414285Y-17928571D01*
X35728571Y-43571428D02*
X35528571Y-43285714D01*
X35385714Y-43571428D02*
X35385714Y-42971428D01*
X35614285Y-42971428D01*
X35671428Y-43000000D01*
X35700000Y-43028571D01*
X35728571Y-43085714D01*
X35728571Y-43171428D01*
X35700000Y-43228571D01*
X35671428Y-43257142D01*
X35614285Y-43285714D01*
X35385714Y-43285714D01*
X36300000Y-43571428D02*
X35957142Y-43571428D01*
X36128571Y-43571428D02*
X36128571Y-42971428D01*
X36071428Y-43057142D01*
X36014285Y-43114285D01*
X35957142Y-43142857D01*
X36671428Y-42971428D02*
X36728571Y-42971428D01*
X36785714Y-43000000D01*
X36814285Y-43028571D01*
X36842857Y-43085714D01*
X36871428Y-43200000D01*
X36871428Y-43342857D01*
X36842857Y-43457142D01*
X36814285Y-43514285D01*
X36785714Y-43542857D01*
X36728571Y-43571428D01*
X36671428Y-43571428D01*
X36614285Y-43542857D01*
X36585714Y-43514285D01*
X36557142Y-43457142D01*
X36528571Y-43342857D01*
X36528571Y-43200000D01*
X36557142Y-43085714D01*
X36585714Y-43028571D01*
X36614285Y-43000000D01*
X36671428Y-42971428D01*
X37442857Y-43571428D02*
X37100000Y-43571428D01*
X37271428Y-43571428D02*
X37271428Y-42971428D01*
X37214285Y-43057142D01*
X37157142Y-43114285D01*
X37100000Y-43142857D01*
X40714285Y-23671428D02*
X40742857Y-23700000D01*
X40771428Y-23785714D01*
X40771428Y-23842857D01*
X40742857Y-23928571D01*
X40685714Y-23985714D01*
X40628571Y-24014285D01*
X40514285Y-24042857D01*
X40428571Y-24042857D01*
X40314285Y-24014285D01*
X40257142Y-23985714D01*
X40200000Y-23928571D01*
X40171428Y-23842857D01*
X40171428Y-23785714D01*
X40200000Y-23700000D01*
X40228571Y-23671428D01*
X40171428Y-23157142D02*
X40171428Y-23271428D01*
X40200000Y-23328571D01*
X40228571Y-23357142D01*
X40314285Y-23414285D01*
X40428571Y-23442857D01*
X40657142Y-23442857D01*
X40714285Y-23414285D01*
X40742857Y-23385714D01*
X40771428Y-23328571D01*
X40771428Y-23214285D01*
X40742857Y-23157142D01*
X40714285Y-23128571D01*
X40657142Y-23100000D01*
X40514285Y-23100000D01*
X40457142Y-23128571D01*
X40428571Y-23157142D01*
X40400000Y-23214285D01*
X40400000Y-23328571D01*
X40428571Y-23385714D01*
X40457142Y-23414285D01*
X40514285Y-23442857D01*
X40171428Y-22728571D02*
X40171428Y-22671428D01*
X40200000Y-22614285D01*
X40228571Y-22585714D01*
X40285714Y-22557142D01*
X40400000Y-22528571D01*
X40542857Y-22528571D01*
X40657142Y-22557142D01*
X40714285Y-22585714D01*
X40742857Y-22614285D01*
X40771428Y-22671428D01*
X40771428Y-22728571D01*
X40742857Y-22785714D01*
X40714285Y-22814285D01*
X40657142Y-22842857D01*
X40542857Y-22871428D01*
X40400000Y-22871428D01*
X40285714Y-22842857D01*
X40228571Y-22814285D01*
X40200000Y-22785714D01*
X40171428Y-22728571D01*
X40371428Y-22014285D02*
X40771428Y-22014285D01*
X40142857Y-22157142D02*
X40571428Y-22300000D01*
X40571428Y-21928571D01*
X32628571Y-12914285D02*
X32600000Y-12942857D01*
X32514285Y-12971428D01*
X32457142Y-12971428D01*
X32371428Y-12942857D01*
X32314285Y-12885714D01*
X32285714Y-12828571D01*
X32257142Y-12714285D01*
X32257142Y-12628571D01*
X32285714Y-12514285D01*
X32314285Y-12457142D01*
X32371428Y-12400000D01*
X32457142Y-12371428D01*
X32514285Y-12371428D01*
X32600000Y-12400000D01*
X32628571Y-12428571D01*
X33142857Y-12371428D02*
X33028571Y-12371428D01*
X32971428Y-12400000D01*
X32942857Y-12428571D01*
X32885714Y-12514285D01*
X32857142Y-12628571D01*
X32857142Y-12857142D01*
X32885714Y-12914285D01*
X32914285Y-12942857D01*
X32971428Y-12971428D01*
X33085714Y-12971428D01*
X33142857Y-12942857D01*
X33171428Y-12914285D01*
X33200000Y-12857142D01*
X33200000Y-12714285D01*
X33171428Y-12657142D01*
X33142857Y-12628571D01*
X33085714Y-12600000D01*
X32971428Y-12600000D01*
X32914285Y-12628571D01*
X32885714Y-12657142D01*
X32857142Y-12714285D01*
X33571428Y-12371428D02*
X33628571Y-12371428D01*
X33685714Y-12400000D01*
X33714285Y-12428571D01*
X33742857Y-12485714D01*
X33771428Y-12600000D01*
X33771428Y-12742857D01*
X33742857Y-12857142D01*
X33714285Y-12914285D01*
X33685714Y-12942857D01*
X33628571Y-12971428D01*
X33571428Y-12971428D01*
X33514285Y-12942857D01*
X33485714Y-12914285D01*
X33457142Y-12857142D01*
X33428571Y-12742857D01*
X33428571Y-12600000D01*
X33457142Y-12485714D01*
X33485714Y-12428571D01*
X33514285Y-12400000D01*
X33571428Y-12371428D01*
X34342857Y-12971428D02*
X34000000Y-12971428D01*
X34171428Y-12971428D02*
X34171428Y-12371428D01*
X34114285Y-12457142D01*
X34057142Y-12514285D01*
X34000000Y-12542857D01*
X25614285Y-34471428D02*
X25642857Y-34500000D01*
X25671428Y-34585714D01*
X25671428Y-34642857D01*
X25642857Y-34728571D01*
X25585714Y-34785714D01*
X25528571Y-34814285D01*
X25414285Y-34842857D01*
X25328571Y-34842857D01*
X25214285Y-34814285D01*
X25157142Y-34785714D01*
X25100000Y-34728571D01*
X25071428Y-34642857D01*
X25071428Y-34585714D01*
X25100000Y-34500000D01*
X25128571Y-34471428D01*
X25071428Y-33928571D02*
X25071428Y-34214285D01*
X25357142Y-34242857D01*
X25328571Y-34214285D01*
X25300000Y-34157142D01*
X25300000Y-34014285D01*
X25328571Y-33957142D01*
X25357142Y-33928571D01*
X25414285Y-33900000D01*
X25557142Y-33900000D01*
X25614285Y-33928571D01*
X25642857Y-33957142D01*
X25671428Y-34014285D01*
X25671428Y-34157142D01*
X25642857Y-34214285D01*
X25614285Y-34242857D01*
X25071428Y-33528571D02*
X25071428Y-33471428D01*
X25100000Y-33414285D01*
X25128571Y-33385714D01*
X25185714Y-33357142D01*
X25300000Y-33328571D01*
X25442857Y-33328571D01*
X25557142Y-33357142D01*
X25614285Y-33385714D01*
X25642857Y-33414285D01*
X25671428Y-33471428D01*
X25671428Y-33528571D01*
X25642857Y-33585714D01*
X25614285Y-33614285D01*
X25557142Y-33642857D01*
X25442857Y-33671428D01*
X25300000Y-33671428D01*
X25185714Y-33642857D01*
X25128571Y-33614285D01*
X25100000Y-33585714D01*
X25071428Y-33528571D01*
X25271428Y-32814285D02*
X25671428Y-32814285D01*
X25042857Y-32957142D02*
X25471428Y-33100000D01*
X25471428Y-32728571D01*
X16128571Y-31414285D02*
X16100000Y-31442857D01*
X16014285Y-31471428D01*
X15957142Y-31471428D01*
X15871428Y-31442857D01*
X15814285Y-31385714D01*
X15785714Y-31328571D01*
X15757142Y-31214285D01*
X15757142Y-31128571D01*
X15785714Y-31014285D01*
X15814285Y-30957142D01*
X15871428Y-30900000D01*
X15957142Y-30871428D01*
X16014285Y-30871428D01*
X16100000Y-30900000D01*
X16128571Y-30928571D01*
X16671428Y-30871428D02*
X16385714Y-30871428D01*
X16357142Y-31157142D01*
X16385714Y-31128571D01*
X16442857Y-31100000D01*
X16585714Y-31100000D01*
X16642857Y-31128571D01*
X16671428Y-31157142D01*
X16700000Y-31214285D01*
X16700000Y-31357142D01*
X16671428Y-31414285D01*
X16642857Y-31442857D01*
X16585714Y-31471428D01*
X16442857Y-31471428D01*
X16385714Y-31442857D01*
X16357142Y-31414285D01*
X17071428Y-30871428D02*
X17128571Y-30871428D01*
X17185714Y-30900000D01*
X17214285Y-30928571D01*
X17242857Y-30985714D01*
X17271428Y-31100000D01*
X17271428Y-31242857D01*
X17242857Y-31357142D01*
X17214285Y-31414285D01*
X17185714Y-31442857D01*
X17128571Y-31471428D01*
X17071428Y-31471428D01*
X17014285Y-31442857D01*
X16985714Y-31414285D01*
X16957142Y-31357142D01*
X16928571Y-31242857D01*
X16928571Y-31100000D01*
X16957142Y-30985714D01*
X16985714Y-30928571D01*
X17014285Y-30900000D01*
X17071428Y-30871428D01*
X17471428Y-30871428D02*
X17842857Y-30871428D01*
X17642857Y-31100000D01*
X17728571Y-31100000D01*
X17785714Y-31128571D01*
X17814285Y-31157142D01*
X17842857Y-31214285D01*
X17842857Y-31357142D01*
X17814285Y-31414285D01*
X17785714Y-31442857D01*
X17728571Y-31471428D01*
X17557142Y-31471428D01*
X17500000Y-31442857D01*
X17471428Y-31414285D01*
X54728571Y-40614285D02*
X54700000Y-40642857D01*
X54614285Y-40671428D01*
X54557142Y-40671428D01*
X54471428Y-40642857D01*
X54414285Y-40585714D01*
X54385714Y-40528571D01*
X54357142Y-40414285D01*
X54357142Y-40328571D01*
X54385714Y-40214285D01*
X54414285Y-40157142D01*
X54471428Y-40100000D01*
X54557142Y-40071428D01*
X54614285Y-40071428D01*
X54700000Y-40100000D01*
X54728571Y-40128571D01*
X55242857Y-40271428D02*
X55242857Y-40671428D01*
X55100000Y-40042857D02*
X54957142Y-40471428D01*
X55328571Y-40471428D01*
X55671428Y-40071428D02*
X55728571Y-40071428D01*
X55785714Y-40100000D01*
X55814285Y-40128571D01*
X55842857Y-40185714D01*
X55871428Y-40300000D01*
X55871428Y-40442857D01*
X55842857Y-40557142D01*
X55814285Y-40614285D01*
X55785714Y-40642857D01*
X55728571Y-40671428D01*
X55671428Y-40671428D01*
X55614285Y-40642857D01*
X55585714Y-40614285D01*
X55557142Y-40557142D01*
X55528571Y-40442857D01*
X55528571Y-40300000D01*
X55557142Y-40185714D01*
X55585714Y-40128571D01*
X55614285Y-40100000D01*
X55671428Y-40071428D01*
X56385714Y-40071428D02*
X56271428Y-40071428D01*
X56214285Y-40100000D01*
X56185714Y-40128571D01*
X56128571Y-40214285D01*
X56100000Y-40328571D01*
X56100000Y-40557142D01*
X56128571Y-40614285D01*
X56157142Y-40642857D01*
X56214285Y-40671428D01*
X56328571Y-40671428D01*
X56385714Y-40642857D01*
X56414285Y-40614285D01*
X56442857Y-40557142D01*
X56442857Y-40414285D01*
X56414285Y-40357142D01*
X56385714Y-40328571D01*
X56328571Y-40300000D01*
X56214285Y-40300000D01*
X56157142Y-40328571D01*
X56128571Y-40357142D01*
X56100000Y-40414285D01*
X33471428Y-10271428D02*
X33185714Y-10471428D01*
X33471428Y-10614285D02*
X32871428Y-10614285D01*
X32871428Y-10385714D01*
X32900000Y-10328571D01*
X32928571Y-10300000D01*
X32985714Y-10271428D01*
X33071428Y-10271428D01*
X33128571Y-10300000D01*
X33157142Y-10328571D01*
X33185714Y-10385714D01*
X33185714Y-10614285D01*
X32871428Y-9757142D02*
X32871428Y-9871428D01*
X32900000Y-9928571D01*
X32928571Y-9957142D01*
X33014285Y-10014285D01*
X33128571Y-10042857D01*
X33357142Y-10042857D01*
X33414285Y-10014285D01*
X33442857Y-9985714D01*
X33471428Y-9928571D01*
X33471428Y-9814285D01*
X33442857Y-9757142D01*
X33414285Y-9728571D01*
X33357142Y-9700000D01*
X33214285Y-9700000D01*
X33157142Y-9728571D01*
X33128571Y-9757142D01*
X33100000Y-9814285D01*
X33100000Y-9928571D01*
X33128571Y-9985714D01*
X33157142Y-10014285D01*
X33214285Y-10042857D01*
X32871428Y-9328571D02*
X32871428Y-9271428D01*
X32900000Y-9214285D01*
X32928571Y-9185714D01*
X32985714Y-9157142D01*
X33100000Y-9128571D01*
X33242857Y-9128571D01*
X33357142Y-9157142D01*
X33414285Y-9185714D01*
X33442857Y-9214285D01*
X33471428Y-9271428D01*
X33471428Y-9328571D01*
X33442857Y-9385714D01*
X33414285Y-9414285D01*
X33357142Y-9442857D01*
X33242857Y-9471428D01*
X33100000Y-9471428D01*
X32985714Y-9442857D01*
X32928571Y-9414285D01*
X32900000Y-9385714D01*
X32871428Y-9328571D01*
X32871428Y-8928571D02*
X32871428Y-8557142D01*
X33100000Y-8757142D01*
X33100000Y-8671428D01*
X33128571Y-8614285D01*
X33157142Y-8585714D01*
X33214285Y-8557142D01*
X33357142Y-8557142D01*
X33414285Y-8585714D01*
X33442857Y-8614285D01*
X33471428Y-8671428D01*
X33471428Y-8842857D01*
X33442857Y-8900000D01*
X33414285Y-8928571D01*
X47228571Y-13014285D02*
X47200000Y-13042857D01*
X47114285Y-13071428D01*
X47057142Y-13071428D01*
X46971428Y-13042857D01*
X46914285Y-12985714D01*
X46885714Y-12928571D01*
X46857142Y-12814285D01*
X46857142Y-12728571D01*
X46885714Y-12614285D01*
X46914285Y-12557142D01*
X46971428Y-12500000D01*
X47057142Y-12471428D01*
X47114285Y-12471428D01*
X47200000Y-12500000D01*
X47228571Y-12528571D01*
X47428571Y-12471428D02*
X47828571Y-12471428D01*
X47571428Y-13071428D01*
X48171428Y-12471428D02*
X48228571Y-12471428D01*
X48285714Y-12500000D01*
X48314285Y-12528571D01*
X48342857Y-12585714D01*
X48371428Y-12700000D01*
X48371428Y-12842857D01*
X48342857Y-12957142D01*
X48314285Y-13014285D01*
X48285714Y-13042857D01*
X48228571Y-13071428D01*
X48171428Y-13071428D01*
X48114285Y-13042857D01*
X48085714Y-13014285D01*
X48057142Y-12957142D01*
X48028571Y-12842857D01*
X48028571Y-12700000D01*
X48057142Y-12585714D01*
X48085714Y-12528571D01*
X48114285Y-12500000D01*
X48171428Y-12471428D01*
X48942857Y-13071428D02*
X48600000Y-13071428D01*
X48771428Y-13071428D02*
X48771428Y-12471428D01*
X48714285Y-12557142D01*
X48657142Y-12614285D01*
X48600000Y-12642857D01*
X61528571Y-28171428D02*
X61328571Y-27885714D01*
X61185714Y-28171428D02*
X61185714Y-27571428D01*
X61414285Y-27571428D01*
X61471428Y-27600000D01*
X61500000Y-27628571D01*
X61528571Y-27685714D01*
X61528571Y-27771428D01*
X61500000Y-27828571D01*
X61471428Y-27857142D01*
X61414285Y-27885714D01*
X61185714Y-27885714D01*
X62042857Y-27771428D02*
X62042857Y-28171428D01*
X61900000Y-27542857D02*
X61757142Y-27971428D01*
X62128571Y-27971428D01*
X62471428Y-27571428D02*
X62528571Y-27571428D01*
X62585714Y-27600000D01*
X62614285Y-27628571D01*
X62642857Y-27685714D01*
X62671428Y-27800000D01*
X62671428Y-27942857D01*
X62642857Y-28057142D01*
X62614285Y-28114285D01*
X62585714Y-28142857D01*
X62528571Y-28171428D01*
X62471428Y-28171428D01*
X62414285Y-28142857D01*
X62385714Y-28114285D01*
X62357142Y-28057142D01*
X62328571Y-27942857D01*
X62328571Y-27800000D01*
X62357142Y-27685714D01*
X62385714Y-27628571D01*
X62414285Y-27600000D01*
X62471428Y-27571428D01*
X62900000Y-27628571D02*
X62928571Y-27600000D01*
X62985714Y-27571428D01*
X63128571Y-27571428D01*
X63185714Y-27600000D01*
X63214285Y-27628571D01*
X63242857Y-27685714D01*
X63242857Y-27742857D01*
X63214285Y-27828571D01*
X62871428Y-28171428D01*
X63242857Y-28171428D01*
X57671428Y-5271428D02*
X57385714Y-5471428D01*
X57671428Y-5614285D02*
X57071428Y-5614285D01*
X57071428Y-5385714D01*
X57100000Y-5328571D01*
X57128571Y-5300000D01*
X57185714Y-5271428D01*
X57271428Y-5271428D01*
X57328571Y-5300000D01*
X57357142Y-5328571D01*
X57385714Y-5385714D01*
X57385714Y-5614285D01*
X57071428Y-5071428D02*
X57071428Y-4671428D01*
X57671428Y-4928571D01*
X57071428Y-4328571D02*
X57071428Y-4271428D01*
X57100000Y-4214285D01*
X57128571Y-4185714D01*
X57185714Y-4157142D01*
X57300000Y-4128571D01*
X57442857Y-4128571D01*
X57557142Y-4157142D01*
X57614285Y-4185714D01*
X57642857Y-4214285D01*
X57671428Y-4271428D01*
X57671428Y-4328571D01*
X57642857Y-4385714D01*
X57614285Y-4414285D01*
X57557142Y-4442857D01*
X57442857Y-4471428D01*
X57300000Y-4471428D01*
X57185714Y-4442857D01*
X57128571Y-4414285D01*
X57100000Y-4385714D01*
X57071428Y-4328571D01*
X57128571Y-3900000D02*
X57100000Y-3871428D01*
X57071428Y-3814285D01*
X57071428Y-3671428D01*
X57100000Y-3614285D01*
X57128571Y-3585714D01*
X57185714Y-3557142D01*
X57242857Y-3557142D01*
X57328571Y-3585714D01*
X57671428Y-3928571D01*
X57671428Y-3557142D01*
X42571428Y-5271428D02*
X42285714Y-5471428D01*
X42571428Y-5614285D02*
X41971428Y-5614285D01*
X41971428Y-5385714D01*
X42000000Y-5328571D01*
X42028571Y-5300000D01*
X42085714Y-5271428D01*
X42171428Y-5271428D01*
X42228571Y-5300000D01*
X42257142Y-5328571D01*
X42285714Y-5385714D01*
X42285714Y-5614285D01*
X41971428Y-4757142D02*
X41971428Y-4871428D01*
X42000000Y-4928571D01*
X42028571Y-4957142D01*
X42114285Y-5014285D01*
X42228571Y-5042857D01*
X42457142Y-5042857D01*
X42514285Y-5014285D01*
X42542857Y-4985714D01*
X42571428Y-4928571D01*
X42571428Y-4814285D01*
X42542857Y-4757142D01*
X42514285Y-4728571D01*
X42457142Y-4700000D01*
X42314285Y-4700000D01*
X42257142Y-4728571D01*
X42228571Y-4757142D01*
X42200000Y-4814285D01*
X42200000Y-4928571D01*
X42228571Y-4985714D01*
X42257142Y-5014285D01*
X42314285Y-5042857D01*
X41971428Y-4328571D02*
X41971428Y-4271428D01*
X42000000Y-4214285D01*
X42028571Y-4185714D01*
X42085714Y-4157142D01*
X42200000Y-4128571D01*
X42342857Y-4128571D01*
X42457142Y-4157142D01*
X42514285Y-4185714D01*
X42542857Y-4214285D01*
X42571428Y-4271428D01*
X42571428Y-4328571D01*
X42542857Y-4385714D01*
X42514285Y-4414285D01*
X42457142Y-4442857D01*
X42342857Y-4471428D01*
X42200000Y-4471428D01*
X42085714Y-4442857D01*
X42028571Y-4414285D01*
X42000000Y-4385714D01*
X41971428Y-4328571D01*
X42028571Y-3900000D02*
X42000000Y-3871428D01*
X41971428Y-3814285D01*
X41971428Y-3671428D01*
X42000000Y-3614285D01*
X42028571Y-3585714D01*
X42085714Y-3557142D01*
X42142857Y-3557142D01*
X42228571Y-3585714D01*
X42571428Y-3928571D01*
X42571428Y-3557142D01*
X30671428Y-5271428D02*
X30385714Y-5471428D01*
X30671428Y-5614285D02*
X30071428Y-5614285D01*
X30071428Y-5385714D01*
X30100000Y-5328571D01*
X30128571Y-5300000D01*
X30185714Y-5271428D01*
X30271428Y-5271428D01*
X30328571Y-5300000D01*
X30357142Y-5328571D01*
X30385714Y-5385714D01*
X30385714Y-5614285D01*
X30071428Y-4757142D02*
X30071428Y-4871428D01*
X30100000Y-4928571D01*
X30128571Y-4957142D01*
X30214285Y-5014285D01*
X30328571Y-5042857D01*
X30557142Y-5042857D01*
X30614285Y-5014285D01*
X30642857Y-4985714D01*
X30671428Y-4928571D01*
X30671428Y-4814285D01*
X30642857Y-4757142D01*
X30614285Y-4728571D01*
X30557142Y-4700000D01*
X30414285Y-4700000D01*
X30357142Y-4728571D01*
X30328571Y-4757142D01*
X30300000Y-4814285D01*
X30300000Y-4928571D01*
X30328571Y-4985714D01*
X30357142Y-5014285D01*
X30414285Y-5042857D01*
X30071428Y-4328571D02*
X30071428Y-4271428D01*
X30100000Y-4214285D01*
X30128571Y-4185714D01*
X30185714Y-4157142D01*
X30300000Y-4128571D01*
X30442857Y-4128571D01*
X30557142Y-4157142D01*
X30614285Y-4185714D01*
X30642857Y-4214285D01*
X30671428Y-4271428D01*
X30671428Y-4328571D01*
X30642857Y-4385714D01*
X30614285Y-4414285D01*
X30557142Y-4442857D01*
X30442857Y-4471428D01*
X30300000Y-4471428D01*
X30185714Y-4442857D01*
X30128571Y-4414285D01*
X30100000Y-4385714D01*
X30071428Y-4328571D01*
X30671428Y-3557142D02*
X30671428Y-3900000D01*
X30671428Y-3728571D02*
X30071428Y-3728571D01*
X30157142Y-3785714D01*
X30214285Y-3842857D01*
X30242857Y-3900000D01*
X16171428Y-19171428D02*
X15885714Y-19371428D01*
X16171428Y-19514285D02*
X15571428Y-19514285D01*
X15571428Y-19285714D01*
X15600000Y-19228571D01*
X15628571Y-19200000D01*
X15685714Y-19171428D01*
X15771428Y-19171428D01*
X15828571Y-19200000D01*
X15857142Y-19228571D01*
X15885714Y-19285714D01*
X15885714Y-19514285D01*
X15571428Y-18628571D02*
X15571428Y-18914285D01*
X15857142Y-18942857D01*
X15828571Y-18914285D01*
X15800000Y-18857142D01*
X15800000Y-18714285D01*
X15828571Y-18657142D01*
X15857142Y-18628571D01*
X15914285Y-18600000D01*
X16057142Y-18600000D01*
X16114285Y-18628571D01*
X16142857Y-18657142D01*
X16171428Y-18714285D01*
X16171428Y-18857142D01*
X16142857Y-18914285D01*
X16114285Y-18942857D01*
X15571428Y-18228571D02*
X15571428Y-18171428D01*
X15600000Y-18114285D01*
X15628571Y-18085714D01*
X15685714Y-18057142D01*
X15800000Y-18028571D01*
X15942857Y-18028571D01*
X16057142Y-18057142D01*
X16114285Y-18085714D01*
X16142857Y-18114285D01*
X16171428Y-18171428D01*
X16171428Y-18228571D01*
X16142857Y-18285714D01*
X16114285Y-18314285D01*
X16057142Y-18342857D01*
X15942857Y-18371428D01*
X15800000Y-18371428D01*
X15685714Y-18342857D01*
X15628571Y-18314285D01*
X15600000Y-18285714D01*
X15571428Y-18228571D01*
X15571428Y-17828571D02*
X15571428Y-17457142D01*
X15800000Y-17657142D01*
X15800000Y-17571428D01*
X15828571Y-17514285D01*
X15857142Y-17485714D01*
X15914285Y-17457142D01*
X16057142Y-17457142D01*
X16114285Y-17485714D01*
X16142857Y-17514285D01*
X16171428Y-17571428D01*
X16171428Y-17742857D01*
X16142857Y-17800000D01*
X16114285Y-17828571D01*
X27671428Y-16371428D02*
X27385714Y-16571428D01*
X27671428Y-16714285D02*
X27071428Y-16714285D01*
X27071428Y-16485714D01*
X27100000Y-16428571D01*
X27128571Y-16400000D01*
X27185714Y-16371428D01*
X27271428Y-16371428D01*
X27328571Y-16400000D01*
X27357142Y-16428571D01*
X27385714Y-16485714D01*
X27385714Y-16714285D01*
X27071428Y-15828571D02*
X27071428Y-16114285D01*
X27357142Y-16142857D01*
X27328571Y-16114285D01*
X27300000Y-16057142D01*
X27300000Y-15914285D01*
X27328571Y-15857142D01*
X27357142Y-15828571D01*
X27414285Y-15800000D01*
X27557142Y-15800000D01*
X27614285Y-15828571D01*
X27642857Y-15857142D01*
X27671428Y-15914285D01*
X27671428Y-16057142D01*
X27642857Y-16114285D01*
X27614285Y-16142857D01*
X27071428Y-15428571D02*
X27071428Y-15371428D01*
X27100000Y-15314285D01*
X27128571Y-15285714D01*
X27185714Y-15257142D01*
X27300000Y-15228571D01*
X27442857Y-15228571D01*
X27557142Y-15257142D01*
X27614285Y-15285714D01*
X27642857Y-15314285D01*
X27671428Y-15371428D01*
X27671428Y-15428571D01*
X27642857Y-15485714D01*
X27614285Y-15514285D01*
X27557142Y-15542857D01*
X27442857Y-15571428D01*
X27300000Y-15571428D01*
X27185714Y-15542857D01*
X27128571Y-15514285D01*
X27100000Y-15485714D01*
X27071428Y-15428571D01*
X27128571Y-15000000D02*
X27100000Y-14971428D01*
X27071428Y-14914285D01*
X27071428Y-14771428D01*
X27100000Y-14714285D01*
X27128571Y-14685714D01*
X27185714Y-14657142D01*
X27242857Y-14657142D01*
X27328571Y-14685714D01*
X27671428Y-15028571D01*
X27671428Y-14657142D01*
X15771428Y-15671428D02*
X15485714Y-15871428D01*
X15771428Y-16014285D02*
X15171428Y-16014285D01*
X15171428Y-15785714D01*
X15200000Y-15728571D01*
X15228571Y-15700000D01*
X15285714Y-15671428D01*
X15371428Y-15671428D01*
X15428571Y-15700000D01*
X15457142Y-15728571D01*
X15485714Y-15785714D01*
X15485714Y-16014285D01*
X15171428Y-15128571D02*
X15171428Y-15414285D01*
X15457142Y-15442857D01*
X15428571Y-15414285D01*
X15400000Y-15357142D01*
X15400000Y-15214285D01*
X15428571Y-15157142D01*
X15457142Y-15128571D01*
X15514285Y-15100000D01*
X15657142Y-15100000D01*
X15714285Y-15128571D01*
X15742857Y-15157142D01*
X15771428Y-15214285D01*
X15771428Y-15357142D01*
X15742857Y-15414285D01*
X15714285Y-15442857D01*
X15171428Y-14728571D02*
X15171428Y-14671428D01*
X15200000Y-14614285D01*
X15228571Y-14585714D01*
X15285714Y-14557142D01*
X15400000Y-14528571D01*
X15542857Y-14528571D01*
X15657142Y-14557142D01*
X15714285Y-14585714D01*
X15742857Y-14614285D01*
X15771428Y-14671428D01*
X15771428Y-14728571D01*
X15742857Y-14785714D01*
X15714285Y-14814285D01*
X15657142Y-14842857D01*
X15542857Y-14871428D01*
X15400000Y-14871428D01*
X15285714Y-14842857D01*
X15228571Y-14814285D01*
X15200000Y-14785714D01*
X15171428Y-14728571D01*
X15771428Y-13957142D02*
X15771428Y-14300000D01*
X15771428Y-14128571D02*
X15171428Y-14128571D01*
X15257142Y-14185714D01*
X15314285Y-14242857D01*
X15342857Y-14300000D01*
X58171428Y-36571428D02*
X57885714Y-36771428D01*
X58171428Y-36914285D02*
X57571428Y-36914285D01*
X57571428Y-36685714D01*
X57600000Y-36628571D01*
X57628571Y-36600000D01*
X57685714Y-36571428D01*
X57771428Y-36571428D01*
X57828571Y-36600000D01*
X57857142Y-36628571D01*
X57885714Y-36685714D01*
X57885714Y-36914285D01*
X57771428Y-36057142D02*
X58171428Y-36057142D01*
X57542857Y-36200000D02*
X57971428Y-36342857D01*
X57971428Y-35971428D01*
X57571428Y-35628571D02*
X57571428Y-35571428D01*
X57600000Y-35514285D01*
X57628571Y-35485714D01*
X57685714Y-35457142D01*
X57800000Y-35428571D01*
X57942857Y-35428571D01*
X58057142Y-35457142D01*
X58114285Y-35485714D01*
X58142857Y-35514285D01*
X58171428Y-35571428D01*
X58171428Y-35628571D01*
X58142857Y-35685714D01*
X58114285Y-35714285D01*
X58057142Y-35742857D01*
X57942857Y-35771428D01*
X57800000Y-35771428D01*
X57685714Y-35742857D01*
X57628571Y-35714285D01*
X57600000Y-35685714D01*
X57571428Y-35628571D01*
X57771428Y-34914285D02*
X58171428Y-34914285D01*
X57542857Y-35057142D02*
X57971428Y-35200000D01*
X57971428Y-34828571D01*
X58228571Y-28171428D02*
X58028571Y-27885714D01*
X57885714Y-28171428D02*
X57885714Y-27571428D01*
X58114285Y-27571428D01*
X58171428Y-27600000D01*
X58200000Y-27628571D01*
X58228571Y-27685714D01*
X58228571Y-27771428D01*
X58200000Y-27828571D01*
X58171428Y-27857142D01*
X58114285Y-27885714D01*
X57885714Y-27885714D01*
X58742857Y-27771428D02*
X58742857Y-28171428D01*
X58600000Y-27542857D02*
X58457142Y-27971428D01*
X58828571Y-27971428D01*
X59171428Y-27571428D02*
X59228571Y-27571428D01*
X59285714Y-27600000D01*
X59314285Y-27628571D01*
X59342857Y-27685714D01*
X59371428Y-27800000D01*
X59371428Y-27942857D01*
X59342857Y-28057142D01*
X59314285Y-28114285D01*
X59285714Y-28142857D01*
X59228571Y-28171428D01*
X59171428Y-28171428D01*
X59114285Y-28142857D01*
X59085714Y-28114285D01*
X59057142Y-28057142D01*
X59028571Y-27942857D01*
X59028571Y-27800000D01*
X59057142Y-27685714D01*
X59085714Y-27628571D01*
X59114285Y-27600000D01*
X59171428Y-27571428D01*
X59942857Y-28171428D02*
X59600000Y-28171428D01*
X59771428Y-28171428D02*
X59771428Y-27571428D01*
X59714285Y-27657142D01*
X59657142Y-27714285D01*
X59600000Y-27742857D01*
X48571428Y-10271428D02*
X48285714Y-10471428D01*
X48571428Y-10614285D02*
X47971428Y-10614285D01*
X47971428Y-10385714D01*
X48000000Y-10328571D01*
X48028571Y-10300000D01*
X48085714Y-10271428D01*
X48171428Y-10271428D01*
X48228571Y-10300000D01*
X48257142Y-10328571D01*
X48285714Y-10385714D01*
X48285714Y-10614285D01*
X47971428Y-10071428D02*
X47971428Y-9671428D01*
X48571428Y-9928571D01*
X47971428Y-9328571D02*
X47971428Y-9271428D01*
X48000000Y-9214285D01*
X48028571Y-9185714D01*
X48085714Y-9157142D01*
X48200000Y-9128571D01*
X48342857Y-9128571D01*
X48457142Y-9157142D01*
X48514285Y-9185714D01*
X48542857Y-9214285D01*
X48571428Y-9271428D01*
X48571428Y-9328571D01*
X48542857Y-9385714D01*
X48514285Y-9414285D01*
X48457142Y-9442857D01*
X48342857Y-9471428D01*
X48200000Y-9471428D01*
X48085714Y-9442857D01*
X48028571Y-9414285D01*
X48000000Y-9385714D01*
X47971428Y-9328571D01*
X47971428Y-8928571D02*
X47971428Y-8557142D01*
X48200000Y-8757142D01*
X48200000Y-8671428D01*
X48228571Y-8614285D01*
X48257142Y-8585714D01*
X48314285Y-8557142D01*
X48457142Y-8557142D01*
X48514285Y-8585714D01*
X48542857Y-8614285D01*
X48571428Y-8671428D01*
X48571428Y-8842857D01*
X48542857Y-8900000D01*
X48514285Y-8928571D01*
X1328571Y-31414285D02*
X1300000Y-31442857D01*
X1214285Y-31471428D01*
X1157142Y-31471428D01*
X1071428Y-31442857D01*
X1014285Y-31385714D01*
X985714Y-31328571D01*
X957142Y-31214285D01*
X957142Y-31128571D01*
X985714Y-31014285D01*
X1014285Y-30957142D01*
X1071428Y-30900000D01*
X1157142Y-30871428D01*
X1214285Y-30871428D01*
X1300000Y-30900000D01*
X1328571Y-30928571D01*
X1557142Y-30928571D02*
X1585714Y-30900000D01*
X1642857Y-30871428D01*
X1785714Y-30871428D01*
X1842857Y-30900000D01*
X1871428Y-30928571D01*
X1900000Y-30985714D01*
X1900000Y-31042857D01*
X1871428Y-31128571D01*
X1528571Y-31471428D01*
X1900000Y-31471428D01*
X2271428Y-30871428D02*
X2328571Y-30871428D01*
X2385714Y-30900000D01*
X2414285Y-30928571D01*
X2442857Y-30985714D01*
X2471428Y-31100000D01*
X2471428Y-31242857D01*
X2442857Y-31357142D01*
X2414285Y-31414285D01*
X2385714Y-31442857D01*
X2328571Y-31471428D01*
X2271428Y-31471428D01*
X2214285Y-31442857D01*
X2185714Y-31414285D01*
X2157142Y-31357142D01*
X2128571Y-31242857D01*
X2128571Y-31100000D01*
X2157142Y-30985714D01*
X2185714Y-30928571D01*
X2214285Y-30900000D01*
X2271428Y-30871428D01*
X2671428Y-30871428D02*
X3042857Y-30871428D01*
X2842857Y-31100000D01*
X2928571Y-31100000D01*
X2985714Y-31128571D01*
X3014285Y-31157142D01*
X3042857Y-31214285D01*
X3042857Y-31357142D01*
X3014285Y-31414285D01*
X2985714Y-31442857D01*
X2928571Y-31471428D01*
X2757142Y-31471428D01*
X2700000Y-31442857D01*
X2671428Y-31414285D01*
X14528571Y-21914285D02*
X14500000Y-21942857D01*
X14414285Y-21971428D01*
X14357142Y-21971428D01*
X14271428Y-21942857D01*
X14214285Y-21885714D01*
X14185714Y-21828571D01*
X14157142Y-21714285D01*
X14157142Y-21628571D01*
X14185714Y-21514285D01*
X14214285Y-21457142D01*
X14271428Y-21400000D01*
X14357142Y-21371428D01*
X14414285Y-21371428D01*
X14500000Y-21400000D01*
X14528571Y-21428571D01*
X15071428Y-21371428D02*
X14785714Y-21371428D01*
X14757142Y-21657142D01*
X14785714Y-21628571D01*
X14842857Y-21600000D01*
X14985714Y-21600000D01*
X15042857Y-21628571D01*
X15071428Y-21657142D01*
X15100000Y-21714285D01*
X15100000Y-21857142D01*
X15071428Y-21914285D01*
X15042857Y-21942857D01*
X14985714Y-21971428D01*
X14842857Y-21971428D01*
X14785714Y-21942857D01*
X14757142Y-21914285D01*
X15471428Y-21371428D02*
X15528571Y-21371428D01*
X15585714Y-21400000D01*
X15614285Y-21428571D01*
X15642857Y-21485714D01*
X15671428Y-21600000D01*
X15671428Y-21742857D01*
X15642857Y-21857142D01*
X15614285Y-21914285D01*
X15585714Y-21942857D01*
X15528571Y-21971428D01*
X15471428Y-21971428D01*
X15414285Y-21942857D01*
X15385714Y-21914285D01*
X15357142Y-21857142D01*
X15328571Y-21742857D01*
X15328571Y-21600000D01*
X15357142Y-21485714D01*
X15385714Y-21428571D01*
X15414285Y-21400000D01*
X15471428Y-21371428D01*
X16242857Y-21971428D02*
X15900000Y-21971428D01*
X16071428Y-21971428D02*
X16071428Y-21371428D01*
X16014285Y-21457142D01*
X15957142Y-21514285D01*
X15900000Y-21542857D01*
X1371428Y-19071428D02*
X1085714Y-19271428D01*
X1371428Y-19414285D02*
X771428Y-19414285D01*
X771428Y-19185714D01*
X800000Y-19128571D01*
X828571Y-19100000D01*
X885714Y-19071428D01*
X971428Y-19071428D01*
X1028571Y-19100000D01*
X1057142Y-19128571D01*
X1085714Y-19185714D01*
X1085714Y-19414285D01*
X828571Y-18842857D02*
X800000Y-18814285D01*
X771428Y-18757142D01*
X771428Y-18614285D01*
X800000Y-18557142D01*
X828571Y-18528571D01*
X885714Y-18500000D01*
X942857Y-18500000D01*
X1028571Y-18528571D01*
X1371428Y-18871428D01*
X1371428Y-18500000D01*
X771428Y-18128571D02*
X771428Y-18071428D01*
X800000Y-18014285D01*
X828571Y-17985714D01*
X885714Y-17957142D01*
X1000000Y-17928571D01*
X1142857Y-17928571D01*
X1257142Y-17957142D01*
X1314285Y-17985714D01*
X1342857Y-18014285D01*
X1371428Y-18071428D01*
X1371428Y-18128571D01*
X1342857Y-18185714D01*
X1314285Y-18214285D01*
X1257142Y-18242857D01*
X1142857Y-18271428D01*
X1000000Y-18271428D01*
X885714Y-18242857D01*
X828571Y-18214285D01*
X800000Y-18185714D01*
X771428Y-18128571D01*
X771428Y-17728571D02*
X771428Y-17357142D01*
X1000000Y-17557142D01*
X1000000Y-17471428D01*
X1028571Y-17414285D01*
X1057142Y-17385714D01*
X1114285Y-17357142D01*
X1257142Y-17357142D01*
X1314285Y-17385714D01*
X1342857Y-17414285D01*
X1371428Y-17471428D01*
X1371428Y-17642857D01*
X1342857Y-17700000D01*
X1314285Y-17728571D01*
X12871428Y-15671428D02*
X12585714Y-15871428D01*
X12871428Y-16014285D02*
X12271428Y-16014285D01*
X12271428Y-15785714D01*
X12300000Y-15728571D01*
X12328571Y-15700000D01*
X12385714Y-15671428D01*
X12471428Y-15671428D01*
X12528571Y-15700000D01*
X12557142Y-15728571D01*
X12585714Y-15785714D01*
X12585714Y-16014285D01*
X12328571Y-15442857D02*
X12300000Y-15414285D01*
X12271428Y-15357142D01*
X12271428Y-15214285D01*
X12300000Y-15157142D01*
X12328571Y-15128571D01*
X12385714Y-15100000D01*
X12442857Y-15100000D01*
X12528571Y-15128571D01*
X12871428Y-15471428D01*
X12871428Y-15100000D01*
X12271428Y-14728571D02*
X12271428Y-14671428D01*
X12300000Y-14614285D01*
X12328571Y-14585714D01*
X12385714Y-14557142D01*
X12500000Y-14528571D01*
X12642857Y-14528571D01*
X12757142Y-14557142D01*
X12814285Y-14585714D01*
X12842857Y-14614285D01*
X12871428Y-14671428D01*
X12871428Y-14728571D01*
X12842857Y-14785714D01*
X12814285Y-14814285D01*
X12757142Y-14842857D01*
X12642857Y-14871428D01*
X12500000Y-14871428D01*
X12385714Y-14842857D01*
X12328571Y-14814285D01*
X12300000Y-14785714D01*
X12271428Y-14728571D01*
X12328571Y-14300000D02*
X12300000Y-14271428D01*
X12271428Y-14214285D01*
X12271428Y-14071428D01*
X12300000Y-14014285D01*
X12328571Y-13985714D01*
X12385714Y-13957142D01*
X12442857Y-13957142D01*
X12528571Y-13985714D01*
X12871428Y-14328571D01*
X12871428Y-13957142D01*
X1271428Y-15771428D02*
X985714Y-15971428D01*
X1271428Y-16114285D02*
X671428Y-16114285D01*
X671428Y-15885714D01*
X700000Y-15828571D01*
X728571Y-15800000D01*
X785714Y-15771428D01*
X871428Y-15771428D01*
X928571Y-15800000D01*
X957142Y-15828571D01*
X985714Y-15885714D01*
X985714Y-16114285D01*
X728571Y-15542857D02*
X700000Y-15514285D01*
X671428Y-15457142D01*
X671428Y-15314285D01*
X700000Y-15257142D01*
X728571Y-15228571D01*
X785714Y-15200000D01*
X842857Y-15200000D01*
X928571Y-15228571D01*
X1271428Y-15571428D01*
X1271428Y-15200000D01*
X671428Y-14828571D02*
X671428Y-14771428D01*
X700000Y-14714285D01*
X728571Y-14685714D01*
X785714Y-14657142D01*
X900000Y-14628571D01*
X1042857Y-14628571D01*
X1157142Y-14657142D01*
X1214285Y-14685714D01*
X1242857Y-14714285D01*
X1271428Y-14771428D01*
X1271428Y-14828571D01*
X1242857Y-14885714D01*
X1214285Y-14914285D01*
X1157142Y-14942857D01*
X1042857Y-14971428D01*
X900000Y-14971428D01*
X785714Y-14942857D01*
X728571Y-14914285D01*
X700000Y-14885714D01*
X671428Y-14828571D01*
X1271428Y-14057142D02*
X1271428Y-14400000D01*
X1271428Y-14228571D02*
X671428Y-14228571D01*
X757142Y-14285714D01*
X814285Y-14342857D01*
X842857Y-14400000D01*
X45771428Y-5271428D02*
X45485714Y-5471428D01*
X45771428Y-5614285D02*
X45171428Y-5614285D01*
X45171428Y-5385714D01*
X45200000Y-5328571D01*
X45228571Y-5300000D01*
X45285714Y-5271428D01*
X45371428Y-5271428D01*
X45428571Y-5300000D01*
X45457142Y-5328571D01*
X45485714Y-5385714D01*
X45485714Y-5614285D01*
X45171428Y-5071428D02*
X45171428Y-4671428D01*
X45771428Y-4928571D01*
X45171428Y-4328571D02*
X45171428Y-4271428D01*
X45200000Y-4214285D01*
X45228571Y-4185714D01*
X45285714Y-4157142D01*
X45400000Y-4128571D01*
X45542857Y-4128571D01*
X45657142Y-4157142D01*
X45714285Y-4185714D01*
X45742857Y-4214285D01*
X45771428Y-4271428D01*
X45771428Y-4328571D01*
X45742857Y-4385714D01*
X45714285Y-4414285D01*
X45657142Y-4442857D01*
X45542857Y-4471428D01*
X45400000Y-4471428D01*
X45285714Y-4442857D01*
X45228571Y-4414285D01*
X45200000Y-4385714D01*
X45171428Y-4328571D01*
X45771428Y-3557142D02*
X45771428Y-3900000D01*
X45771428Y-3728571D02*
X45171428Y-3728571D01*
X45257142Y-3785714D01*
X45314285Y-3842857D01*
X45342857Y-3900000D01*
X44314285Y-36071428D02*
X44342857Y-36100000D01*
X44371428Y-36185714D01*
X44371428Y-36242857D01*
X44342857Y-36328571D01*
X44285714Y-36385714D01*
X44228571Y-36414285D01*
X44114285Y-36442857D01*
X44028571Y-36442857D01*
X43914285Y-36414285D01*
X43857142Y-36385714D01*
X43800000Y-36328571D01*
X43771428Y-36242857D01*
X43771428Y-36185714D01*
X43800000Y-36100000D01*
X43828571Y-36071428D01*
X43971428Y-35557142D02*
X44371428Y-35557142D01*
X43742857Y-35700000D02*
X44171428Y-35842857D01*
X44171428Y-35471428D01*
X43771428Y-35128571D02*
X43771428Y-35071428D01*
X43800000Y-35014285D01*
X43828571Y-34985714D01*
X43885714Y-34957142D01*
X44000000Y-34928571D01*
X44142857Y-34928571D01*
X44257142Y-34957142D01*
X44314285Y-34985714D01*
X44342857Y-35014285D01*
X44371428Y-35071428D01*
X44371428Y-35128571D01*
X44342857Y-35185714D01*
X44314285Y-35214285D01*
X44257142Y-35242857D01*
X44142857Y-35271428D01*
X44000000Y-35271428D01*
X43885714Y-35242857D01*
X43828571Y-35214285D01*
X43800000Y-35185714D01*
X43771428Y-35128571D01*
X44371428Y-34357142D02*
X44371428Y-34700000D01*
X44371428Y-34528571D02*
X43771428Y-34528571D01*
X43857142Y-34585714D01*
X43914285Y-34642857D01*
X43942857Y-34700000D01*
X29914285Y-33971428D02*
X29942857Y-34000000D01*
X29971428Y-34085714D01*
X29971428Y-34142857D01*
X29942857Y-34228571D01*
X29885714Y-34285714D01*
X29828571Y-34314285D01*
X29714285Y-34342857D01*
X29628571Y-34342857D01*
X29514285Y-34314285D01*
X29457142Y-34285714D01*
X29400000Y-34228571D01*
X29371428Y-34142857D01*
X29371428Y-34085714D01*
X29400000Y-34000000D01*
X29428571Y-33971428D01*
X29971428Y-33400000D02*
X29971428Y-33742857D01*
X29971428Y-33571428D02*
X29371428Y-33571428D01*
X29457142Y-33628571D01*
X29514285Y-33685714D01*
X29542857Y-33742857D01*
X29371428Y-33028571D02*
X29371428Y-32971428D01*
X29400000Y-32914285D01*
X29428571Y-32885714D01*
X29485714Y-32857142D01*
X29600000Y-32828571D01*
X29742857Y-32828571D01*
X29857142Y-32857142D01*
X29914285Y-32885714D01*
X29942857Y-32914285D01*
X29971428Y-32971428D01*
X29971428Y-33028571D01*
X29942857Y-33085714D01*
X29914285Y-33114285D01*
X29857142Y-33142857D01*
X29742857Y-33171428D01*
X29600000Y-33171428D01*
X29485714Y-33142857D01*
X29428571Y-33114285D01*
X29400000Y-33085714D01*
X29371428Y-33028571D01*
X29971428Y-32257142D02*
X29971428Y-32600000D01*
X29971428Y-32428571D02*
X29371428Y-32428571D01*
X29457142Y-32485714D01*
X29514285Y-32542857D01*
X29542857Y-32600000D01*
X26028571Y-42214285D02*
X26000000Y-42242857D01*
X25914285Y-42271428D01*
X25857142Y-42271428D01*
X25771428Y-42242857D01*
X25714285Y-42185714D01*
X25685714Y-42128571D01*
X25657142Y-42014285D01*
X25657142Y-41928571D01*
X25685714Y-41814285D01*
X25714285Y-41757142D01*
X25771428Y-41700000D01*
X25857142Y-41671428D01*
X25914285Y-41671428D01*
X26000000Y-41700000D01*
X26028571Y-41728571D01*
X26600000Y-42271428D02*
X26257142Y-42271428D01*
X26428571Y-42271428D02*
X26428571Y-41671428D01*
X26371428Y-41757142D01*
X26314285Y-41814285D01*
X26257142Y-41842857D01*
X26971428Y-41671428D02*
X27028571Y-41671428D01*
X27085714Y-41700000D01*
X27114285Y-41728571D01*
X27142857Y-41785714D01*
X27171428Y-41900000D01*
X27171428Y-42042857D01*
X27142857Y-42157142D01*
X27114285Y-42214285D01*
X27085714Y-42242857D01*
X27028571Y-42271428D01*
X26971428Y-42271428D01*
X26914285Y-42242857D01*
X26885714Y-42214285D01*
X26857142Y-42157142D01*
X26828571Y-42042857D01*
X26828571Y-41900000D01*
X26857142Y-41785714D01*
X26885714Y-41728571D01*
X26914285Y-41700000D01*
X26971428Y-41671428D01*
X27400000Y-41728571D02*
X27428571Y-41700000D01*
X27485714Y-41671428D01*
X27628571Y-41671428D01*
X27685714Y-41700000D01*
X27714285Y-41728571D01*
X27742857Y-41785714D01*
X27742857Y-41842857D01*
X27714285Y-41928571D01*
X27371428Y-42271428D01*
X27742857Y-42271428D01*
X64571428Y-8271428D02*
X64571428Y-8757142D01*
X64600000Y-8814285D01*
X64628571Y-8842857D01*
X64685714Y-8871428D01*
X64800000Y-8871428D01*
X64857142Y-8842857D01*
X64885714Y-8814285D01*
X64914285Y-8757142D01*
X64914285Y-8271428D01*
X65142857Y-8271428D02*
X65514285Y-8271428D01*
X65314285Y-8500000D01*
X65400000Y-8500000D01*
X65457142Y-8528571D01*
X65485714Y-8557142D01*
X65514285Y-8614285D01*
X65514285Y-8757142D01*
X65485714Y-8814285D01*
X65457142Y-8842857D01*
X65400000Y-8871428D01*
X65228571Y-8871428D01*
X65171428Y-8842857D01*
X65142857Y-8814285D01*
X65885714Y-8271428D02*
X65942857Y-8271428D01*
X66000000Y-8300000D01*
X66028571Y-8328571D01*
X66057142Y-8385714D01*
X66085714Y-8500000D01*
X66085714Y-8642857D01*
X66057142Y-8757142D01*
X66028571Y-8814285D01*
X66000000Y-8842857D01*
X65942857Y-8871428D01*
X65885714Y-8871428D01*
X65828571Y-8842857D01*
X65800000Y-8814285D01*
X65771428Y-8757142D01*
X65742857Y-8642857D01*
X65742857Y-8500000D01*
X65771428Y-8385714D01*
X65800000Y-8328571D01*
X65828571Y-8300000D01*
X65885714Y-8271428D01*
X66657142Y-8871428D02*
X66314285Y-8871428D01*
X66485714Y-8871428D02*
X66485714Y-8271428D01*
X66428571Y-8357142D01*
X66371428Y-8414285D01*
X66314285Y-8442857D01*
X6571428Y-36628571D02*
X6514285Y-36600000D01*
X6457142Y-36542857D01*
X6371428Y-36457142D01*
X6314285Y-36428571D01*
X6257142Y-36428571D01*
X6285714Y-36571428D02*
X6228571Y-36542857D01*
X6171428Y-36485714D01*
X6142857Y-36371428D01*
X6142857Y-36171428D01*
X6171428Y-36057142D01*
X6228571Y-36000000D01*
X6285714Y-35971428D01*
X6400000Y-35971428D01*
X6457142Y-36000000D01*
X6514285Y-36057142D01*
X6542857Y-36171428D01*
X6542857Y-36371428D01*
X6514285Y-36485714D01*
X6457142Y-36542857D01*
X6400000Y-36571428D01*
X6285714Y-36571428D01*
X6771428Y-36028571D02*
X6800000Y-36000000D01*
X6857142Y-35971428D01*
X7000000Y-35971428D01*
X7057142Y-36000000D01*
X7085714Y-36028571D01*
X7114285Y-36085714D01*
X7114285Y-36142857D01*
X7085714Y-36228571D01*
X6742857Y-36571428D01*
X7114285Y-36571428D01*
X7485714Y-35971428D02*
X7542857Y-35971428D01*
X7600000Y-36000000D01*
X7628571Y-36028571D01*
X7657142Y-36085714D01*
X7685714Y-36200000D01*
X7685714Y-36342857D01*
X7657142Y-36457142D01*
X7628571Y-36514285D01*
X7600000Y-36542857D01*
X7542857Y-36571428D01*
X7485714Y-36571428D01*
X7428571Y-36542857D01*
X7400000Y-36514285D01*
X7371428Y-36457142D01*
X7342857Y-36342857D01*
X7342857Y-36200000D01*
X7371428Y-36085714D01*
X7400000Y-36028571D01*
X7428571Y-36000000D01*
X7485714Y-35971428D01*
X8257142Y-36571428D02*
X7914285Y-36571428D01*
X8085714Y-36571428D02*
X8085714Y-35971428D01*
X8028571Y-36057142D01*
X7971428Y-36114285D01*
X7914285Y-36142857D01*
X13671428Y-36628571D02*
X13614285Y-36600000D01*
X13557142Y-36542857D01*
X13471428Y-36457142D01*
X13414285Y-36428571D01*
X13357142Y-36428571D01*
X13385714Y-36571428D02*
X13328571Y-36542857D01*
X13271428Y-36485714D01*
X13242857Y-36371428D01*
X13242857Y-36171428D01*
X13271428Y-36057142D01*
X13328571Y-36000000D01*
X13385714Y-35971428D01*
X13500000Y-35971428D01*
X13557142Y-36000000D01*
X13614285Y-36057142D01*
X13642857Y-36171428D01*
X13642857Y-36371428D01*
X13614285Y-36485714D01*
X13557142Y-36542857D01*
X13500000Y-36571428D01*
X13385714Y-36571428D01*
X14185714Y-35971428D02*
X13900000Y-35971428D01*
X13871428Y-36257142D01*
X13900000Y-36228571D01*
X13957142Y-36200000D01*
X14100000Y-36200000D01*
X14157142Y-36228571D01*
X14185714Y-36257142D01*
X14214285Y-36314285D01*
X14214285Y-36457142D01*
X14185714Y-36514285D01*
X14157142Y-36542857D01*
X14100000Y-36571428D01*
X13957142Y-36571428D01*
X13900000Y-36542857D01*
X13871428Y-36514285D01*
X14585714Y-35971428D02*
X14642857Y-35971428D01*
X14700000Y-36000000D01*
X14728571Y-36028571D01*
X14757142Y-36085714D01*
X14785714Y-36200000D01*
X14785714Y-36342857D01*
X14757142Y-36457142D01*
X14728571Y-36514285D01*
X14700000Y-36542857D01*
X14642857Y-36571428D01*
X14585714Y-36571428D01*
X14528571Y-36542857D01*
X14500000Y-36514285D01*
X14471428Y-36457142D01*
X14442857Y-36342857D01*
X14442857Y-36200000D01*
X14471428Y-36085714D01*
X14500000Y-36028571D01*
X14528571Y-36000000D01*
X14585714Y-35971428D01*
X15357142Y-36571428D02*
X15014285Y-36571428D01*
X15185714Y-36571428D02*
X15185714Y-35971428D01*
X15128571Y-36057142D01*
X15071428Y-36114285D01*
X15014285Y-36142857D01*
X29871428Y-25028571D02*
X29814285Y-25000000D01*
X29757142Y-24942857D01*
X29671428Y-24857142D01*
X29614285Y-24828571D01*
X29557142Y-24828571D01*
X29585714Y-24971428D02*
X29528571Y-24942857D01*
X29471428Y-24885714D01*
X29442857Y-24771428D01*
X29442857Y-24571428D01*
X29471428Y-24457142D01*
X29528571Y-24400000D01*
X29585714Y-24371428D01*
X29700000Y-24371428D01*
X29757142Y-24400000D01*
X29814285Y-24457142D01*
X29842857Y-24571428D01*
X29842857Y-24771428D01*
X29814285Y-24885714D01*
X29757142Y-24942857D01*
X29700000Y-24971428D01*
X29585714Y-24971428D01*
X30357142Y-24371428D02*
X30242857Y-24371428D01*
X30185714Y-24400000D01*
X30157142Y-24428571D01*
X30100000Y-24514285D01*
X30071428Y-24628571D01*
X30071428Y-24857142D01*
X30100000Y-24914285D01*
X30128571Y-24942857D01*
X30185714Y-24971428D01*
X30300000Y-24971428D01*
X30357142Y-24942857D01*
X30385714Y-24914285D01*
X30414285Y-24857142D01*
X30414285Y-24714285D01*
X30385714Y-24657142D01*
X30357142Y-24628571D01*
X30300000Y-24600000D01*
X30185714Y-24600000D01*
X30128571Y-24628571D01*
X30100000Y-24657142D01*
X30071428Y-24714285D01*
X30785714Y-24371428D02*
X30842857Y-24371428D01*
X30900000Y-24400000D01*
X30928571Y-24428571D01*
X30957142Y-24485714D01*
X30985714Y-24600000D01*
X30985714Y-24742857D01*
X30957142Y-24857142D01*
X30928571Y-24914285D01*
X30900000Y-24942857D01*
X30842857Y-24971428D01*
X30785714Y-24971428D01*
X30728571Y-24942857D01*
X30700000Y-24914285D01*
X30671428Y-24857142D01*
X30642857Y-24742857D01*
X30642857Y-24600000D01*
X30671428Y-24485714D01*
X30700000Y-24428571D01*
X30728571Y-24400000D01*
X30785714Y-24371428D01*
X31557142Y-24971428D02*
X31214285Y-24971428D01*
X31385714Y-24971428D02*
X31385714Y-24371428D01*
X31328571Y-24457142D01*
X31271428Y-24514285D01*
X31214285Y-24542857D01*
X51371428Y-26228571D02*
X51314285Y-26200000D01*
X51257142Y-26142857D01*
X51171428Y-26057142D01*
X51114285Y-26028571D01*
X51057142Y-26028571D01*
X51085714Y-26171428D02*
X51028571Y-26142857D01*
X50971428Y-26085714D01*
X50942857Y-25971428D01*
X50942857Y-25771428D01*
X50971428Y-25657142D01*
X51028571Y-25600000D01*
X51085714Y-25571428D01*
X51200000Y-25571428D01*
X51257142Y-25600000D01*
X51314285Y-25657142D01*
X51342857Y-25771428D01*
X51342857Y-25971428D01*
X51314285Y-26085714D01*
X51257142Y-26142857D01*
X51200000Y-26171428D01*
X51085714Y-26171428D01*
X51542857Y-25571428D02*
X51942857Y-25571428D01*
X51685714Y-26171428D01*
X52285714Y-25571428D02*
X52342857Y-25571428D01*
X52400000Y-25600000D01*
X52428571Y-25628571D01*
X52457142Y-25685714D01*
X52485714Y-25800000D01*
X52485714Y-25942857D01*
X52457142Y-26057142D01*
X52428571Y-26114285D01*
X52400000Y-26142857D01*
X52342857Y-26171428D01*
X52285714Y-26171428D01*
X52228571Y-26142857D01*
X52200000Y-26114285D01*
X52171428Y-26057142D01*
X52142857Y-25942857D01*
X52142857Y-25800000D01*
X52171428Y-25685714D01*
X52200000Y-25628571D01*
X52228571Y-25600000D01*
X52285714Y-25571428D01*
X53057142Y-26171428D02*
X52714285Y-26171428D01*
X52885714Y-26171428D02*
X52885714Y-25571428D01*
X52828571Y-25657142D01*
X52771428Y-25714285D01*
X52714285Y-25742857D01*
X29871428Y-41871428D02*
X29871428Y-42357142D01*
X29900000Y-42414285D01*
X29928571Y-42442857D01*
X29985714Y-42471428D01*
X30100000Y-42471428D01*
X30157142Y-42442857D01*
X30185714Y-42414285D01*
X30214285Y-42357142D01*
X30214285Y-41871428D01*
X30814285Y-42471428D02*
X30471428Y-42471428D01*
X30642857Y-42471428D02*
X30642857Y-41871428D01*
X30585714Y-41957142D01*
X30528571Y-42014285D01*
X30471428Y-42042857D01*
X31185714Y-41871428D02*
X31242857Y-41871428D01*
X31300000Y-41900000D01*
X31328571Y-41928571D01*
X31357142Y-41985714D01*
X31385714Y-42100000D01*
X31385714Y-42242857D01*
X31357142Y-42357142D01*
X31328571Y-42414285D01*
X31300000Y-42442857D01*
X31242857Y-42471428D01*
X31185714Y-42471428D01*
X31128571Y-42442857D01*
X31100000Y-42414285D01*
X31071428Y-42357142D01*
X31042857Y-42242857D01*
X31042857Y-42100000D01*
X31071428Y-41985714D01*
X31100000Y-41928571D01*
X31128571Y-41900000D01*
X31185714Y-41871428D01*
X31957142Y-42471428D02*
X31614285Y-42471428D01*
X31785714Y-42471428D02*
X31785714Y-41871428D01*
X31728571Y-41957142D01*
X31671428Y-42014285D01*
X31614285Y-42042857D01*
X64171428Y-23906428D02*
X64600000Y-23906428D01*
X64685714Y-23935000D01*
X64742857Y-23992142D01*
X64771428Y-24077857D01*
X64771428Y-24135000D01*
X64171428Y-23677857D02*
X64171428Y-23306428D01*
X64400000Y-23506428D01*
X64400000Y-23420714D01*
X64428571Y-23363571D01*
X64457142Y-23335000D01*
X64514285Y-23306428D01*
X64657142Y-23306428D01*
X64714285Y-23335000D01*
X64742857Y-23363571D01*
X64771428Y-23420714D01*
X64771428Y-23592142D01*
X64742857Y-23649285D01*
X64714285Y-23677857D01*
X64171428Y-22935000D02*
X64171428Y-22877857D01*
X64200000Y-22820714D01*
X64228571Y-22792142D01*
X64285714Y-22763571D01*
X64400000Y-22735000D01*
X64542857Y-22735000D01*
X64657142Y-22763571D01*
X64714285Y-22792142D01*
X64742857Y-22820714D01*
X64771428Y-22877857D01*
X64771428Y-22935000D01*
X64742857Y-22992142D01*
X64714285Y-23020714D01*
X64657142Y-23049285D01*
X64542857Y-23077857D01*
X64400000Y-23077857D01*
X64285714Y-23049285D01*
X64228571Y-23020714D01*
X64200000Y-22992142D01*
X64171428Y-22935000D01*
X64771428Y-22163571D02*
X64771428Y-22506428D01*
X64771428Y-22335000D02*
X64171428Y-22335000D01*
X64257142Y-22392142D01*
X64314285Y-22449285D01*
X64342857Y-22506428D01*
M02*
