M48
;DRILL file {KiCad 4.0.6} date 12/03/17 23:21:06
;FORMAT={-:-/ absolute / metric / decimal}
FMAT,2
METRIC,TZ
T1C0.400
T2C0.500
T3C1.000
%
G90
G05
M71
T1
X54.62Y-55.74
X54.9Y-64.8
X65.5Y-91.9
X65.6Y-85.9
X69.277Y-51.923
X71.7Y-92.3
X74.767Y-76.812
X74.884Y-80.344
X75.204Y-61.359
X75.981Y-76.537
X76.126Y-60.617
X76.151Y-80.163
X76.824Y-75.251
X76.943Y-82.193
X77.518Y-80.324
X77.527Y-78.774
X78.5Y-71.3
X78.603Y-87.362
X78.879Y-65.425
X78.909Y-88.36
X79.5Y-64.9
X79.5Y-71.4
X81.922Y-89.499
X82.012Y-90.505
X82.2Y-82.3
X82.2Y-83.4
X82.2Y-86.
X83.7Y-76.5
X87.1Y-59.1
X88.386Y-91.08
X88.4Y-71.3
X88.6Y-59.2
X89.285Y-91.717
X90.149Y-70.953
X90.882Y-71.153
X95.988Y-88.903
X96.226Y-89.614
X96.5Y-81.
X96.5Y-82.2
X96.533Y-91.266
X96.6Y-83.5
X96.931Y-77.82
X98.2Y-74.6
X100.316Y-85.324
X100.712Y-90.334
X101.596Y-86.022
X101.616Y-84.152
X103.3Y-71.8
X103.3Y-74.6
X104.8Y-74.3
X105.455Y-84.625
X106.1Y-87.
X108.6Y-88.9
X108.965Y-86.538
X109.673Y-89.589
T2
X52.4Y-74.1
X53.165Y-89.007
X53.2Y-78.5
X55.8Y-59.6
X57.8Y-62.5
X58.364Y-57.351
X59.425Y-50.971
X66.05Y-87.5
X66.3Y-97.6
X66.375Y-80.
X66.4Y-99.1
X68.584Y-93.121
X68.75Y-68.5
X69.2Y-54.
X69.2Y-64.2
X69.6Y-61.6
X69.6Y-81.1
X69.7Y-59.4
X69.8Y-87.4
X70.6Y-51.425
X71.6Y-87.2
X72.979Y-63.641
X73.546Y-59.409
X73.842Y-62.466
X74.05Y-54.75
X75.2Y-89.8
X76.1Y-82.3
X77.346Y-60.119
X77.76Y-61.369
X78.164Y-57.567
X79.431Y-59.023
X81.6Y-51.6
X82.095Y-92.4
X86.2Y-55.
X86.44Y-53.107
X87.7Y-50.575
X88.425Y-55.8
X88.75Y-67.55
X89.2Y-55.1
X90.036Y-88.225
X90.8Y-56.
X91.388Y-58.014
X92.9Y-66.3
X93.189Y-61.494
X93.235Y-76.965
X95.11Y-76.09
X95.6Y-57.8
X95.787Y-60.826
X96.695Y-92.4
X97.579Y-53.644
X98.Y-58.4
X99.2Y-56.
X99.3Y-59.8
X100.7Y-78.2
X101.2Y-94.2
X101.539Y-90.531
X103.4Y-94.1
X106.2Y-79.6
X106.3Y-95.35
X107.8Y-61.6
X109.237Y-60.099
X110.975Y-87.65
X111.024Y-88.924
X111.31Y-66.556
X112.3Y-71.75
X112.3Y-79.6
X112.4Y-85.2
X113.721Y-90.037
X113.81Y-87.883
X114.5Y-83.4
X114.6Y-60.2
X117.9Y-60.
X118.827Y-59.794
X120.Y-59.4
X121.1Y-61.7
X121.2Y-60.2
T3
X89.9Y-51.7
X90.2Y-68.2
X107.4Y-65.4
X107.4Y-67.4
T0
M30
