G04 #@! TF.FileFunction,Paste,Top*
%FSLAX46Y46*%
G04 Gerber Fmt 4.6, Leading zero omitted, Abs format (unit mm)*
G04 Created by KiCad (PCBNEW 4.0.6) date 12/03/17 23:21:02*
%MOMM*%
%LPD*%
G01*
G04 APERTURE LIST*
%ADD10C,1.000000*%
%ADD11R,1.900000X1.400000*%
%ADD12R,1.400000X1.800000*%
%ADD13R,1.500000X0.700000*%
%ADD14R,0.350000X1.600000*%
%ADD15R,0.350000X1.000000*%
%ADD16C,1.000000*%
%ADD17O,2.500000X0.900000*%
%ADD18O,0.900000X2.500000*%
%ADD19R,6.000000X6.000000*%
%ADD20R,0.900000X0.700000*%
%ADD21R,0.700000X0.900000*%
%ADD22R,0.900000X0.800000*%
%ADD23R,0.900000X1.000000*%
%ADD24R,1.000000X0.400000*%
%ADD25R,0.400000X2.000000*%
%ADD26R,1.800000X1.900000*%
%ADD27R,2.300000X1.900000*%
%ADD28O,0.250000X1.000000*%
%ADD29O,1.000000X0.250000*%
%ADD30R,2.450000X2.450000*%
%ADD31R,0.900000X1.200000*%
%ADD32R,1.200000X0.900000*%
%ADD33R,3.500000X1.600000*%
%ADD34R,1.100000X0.600000*%
%ADD35R,1.500000X1.000000*%
%ADD36R,0.800000X2.000000*%
%ADD37R,2.000000X1.000000*%
%ADD38R,0.800000X0.900000*%
G04 APERTURE END LIST*
D10*
D11*
X53700000Y-59600000D03*
X52800000Y-72800000D03*
D12*
X66800000Y-61200000D03*
X66800000Y-67200000D03*
D13*
X56600000Y-60500000D03*
X56600000Y-61600000D03*
X56200000Y-62700000D03*
X56600000Y-63800000D03*
X56200000Y-64900000D03*
X56600000Y-66000000D03*
X57000000Y-67100000D03*
X56600000Y-68200000D03*
D14*
X111575000Y-85200000D03*
X111575000Y-79600000D03*
X110925000Y-85200000D03*
X110925000Y-79600000D03*
X110275000Y-85200000D03*
X110275000Y-79600000D03*
X109625000Y-85200000D03*
X109625000Y-79600000D03*
X108975000Y-85200000D03*
X108975000Y-79600000D03*
X108325000Y-85200000D03*
X108325000Y-79600000D03*
X107675000Y-85200000D03*
X107675000Y-79600000D03*
X107025000Y-85200000D03*
X107025000Y-79600000D03*
D15*
X113075000Y-90150000D03*
X112425000Y-90150000D03*
X111775000Y-90150000D03*
X111125000Y-90150000D03*
X111125000Y-87650000D03*
X111775000Y-87650000D03*
X112425000Y-87650000D03*
X113075000Y-87650000D03*
D16*
X80400000Y-70500000D03*
D17*
X80500000Y-92400000D03*
X80500000Y-91130000D03*
X80500000Y-89860000D03*
X80500000Y-88590000D03*
X80500000Y-87320000D03*
X80500000Y-86050000D03*
X80500000Y-84780000D03*
X80500000Y-83510000D03*
X80500000Y-82240000D03*
X80500000Y-80970000D03*
X80500000Y-79700000D03*
X80500000Y-78430000D03*
X80500000Y-77160000D03*
X80500000Y-75890000D03*
D18*
X83785000Y-74400000D03*
X85055000Y-74400000D03*
X86325000Y-74400000D03*
X87595000Y-74400000D03*
X88865000Y-74400000D03*
X90135000Y-74400000D03*
X91405000Y-74400000D03*
X92675000Y-74400000D03*
X93945000Y-74400000D03*
X95215000Y-74400000D03*
D17*
X98500000Y-75890000D03*
X98500000Y-77160000D03*
X98500000Y-78430000D03*
X98500000Y-79700000D03*
X98500000Y-80970000D03*
X98500000Y-82240000D03*
X98500000Y-83510000D03*
X98500000Y-84780000D03*
X98500000Y-86050000D03*
X98500000Y-87320000D03*
X98500000Y-88590000D03*
X98500000Y-89860000D03*
X98500000Y-91130000D03*
X98500000Y-92400000D03*
D19*
X89800000Y-84700000D03*
D20*
X100700000Y-79000000D03*
X100700000Y-80800000D03*
D21*
X67200000Y-99100000D03*
X69000000Y-99100000D03*
D22*
X67200000Y-95600000D03*
X67200000Y-97600000D03*
X69200000Y-96600000D03*
D23*
X80550000Y-57000000D03*
X84649999Y-57000000D03*
X84649999Y-58600000D03*
X80550000Y-58600000D03*
X84650000Y-61800000D03*
X80550001Y-61800000D03*
X80550001Y-60200000D03*
X84650000Y-60200000D03*
D16*
X77900000Y-70600000D03*
D24*
X75050000Y-58600000D03*
X76950000Y-59250000D03*
X76950000Y-57950000D03*
X76950000Y-58600000D03*
X75050000Y-57950000D03*
X75050000Y-59250000D03*
D25*
X77350000Y-54750000D03*
X76700000Y-54750000D03*
X76050000Y-54750000D03*
X75400000Y-54750000D03*
X74750000Y-54750000D03*
D26*
X77200000Y-51600000D03*
D27*
X79800000Y-51600000D03*
X72300000Y-51600000D03*
D26*
X74900000Y-51600000D03*
D28*
X77250000Y-62600000D03*
X76750000Y-62600000D03*
X76250000Y-62600000D03*
X75750000Y-62600000D03*
X75250000Y-62600000D03*
X74750000Y-62600000D03*
D29*
X74000000Y-63350000D03*
X74000000Y-63850000D03*
X74000000Y-64350000D03*
X74000000Y-64850000D03*
X74000000Y-65350000D03*
X74000000Y-65850000D03*
D28*
X74750000Y-66600000D03*
X75250000Y-66600000D03*
X75750000Y-66600000D03*
X76250000Y-66600000D03*
X76750000Y-66600000D03*
X77250000Y-66600000D03*
D29*
X78000000Y-65850000D03*
X78000000Y-65350000D03*
X78000000Y-64850000D03*
X78000000Y-64350000D03*
X78000000Y-63850000D03*
X78000000Y-63350000D03*
D30*
X76000000Y-64600000D03*
D31*
X99050000Y-64800000D03*
X95750000Y-64800000D03*
D32*
X107800000Y-60650000D03*
X107800000Y-57350000D03*
D33*
X90400000Y-60960000D03*
X90400000Y-65840000D03*
D34*
X96600000Y-53000000D03*
X96600000Y-53950000D03*
X96600000Y-54900000D03*
X99400000Y-54900000D03*
X99400000Y-53000000D03*
D10*
G36*
X118550000Y-60700000D02*
X119300000Y-61200000D01*
X119300000Y-62200000D01*
X118550000Y-62700000D01*
X118550000Y-60700000D01*
X118550000Y-60700000D01*
G37*
D13*
X120000000Y-60200000D03*
X120000000Y-63200000D03*
X116300000Y-60200000D03*
D35*
X116300000Y-61700000D03*
D13*
X116300000Y-63200000D03*
D35*
X120000000Y-61700000D03*
D10*
G36*
X117750000Y-62700000D02*
X117000000Y-62200000D01*
X117000000Y-61200000D01*
X117750000Y-60700000D01*
X117750000Y-62700000D01*
X117750000Y-62700000D01*
G37*
D36*
X118150000Y-61700000D03*
D23*
X105050000Y-61600000D03*
X100950001Y-61600000D03*
X100950001Y-60000000D03*
X105050000Y-60000000D03*
D37*
X67500000Y-77000000D03*
X67500000Y-78500000D03*
X67500000Y-80000000D03*
X67500000Y-81500000D03*
X67500000Y-83000000D03*
X67500000Y-84500000D03*
X67500000Y-86000000D03*
X67500000Y-87500000D03*
X67500000Y-89000000D03*
X67500000Y-90500000D03*
X67500000Y-90500000D03*
X67500000Y-89000000D03*
X67500000Y-87500000D03*
X67500000Y-86000000D03*
X67500000Y-84500000D03*
X67500000Y-83000000D03*
X67500000Y-81500000D03*
X67500000Y-80000000D03*
X67500000Y-78500000D03*
X67500000Y-77000000D03*
X51500000Y-77000000D03*
X51500000Y-78500000D03*
X51500000Y-80000000D03*
X51500000Y-81500000D03*
X51500000Y-83000000D03*
X51500000Y-84500000D03*
X51500000Y-86000000D03*
X51500000Y-87500000D03*
X51500000Y-89000000D03*
X51500000Y-90500000D03*
D31*
X101350000Y-57600000D03*
X104650000Y-57600000D03*
D32*
X103800000Y-63150000D03*
X103800000Y-66450000D03*
D20*
X109600000Y-60700000D03*
X109600000Y-62500000D03*
X69200000Y-52800000D03*
X69200000Y-51000000D03*
D21*
X71300000Y-84200000D03*
X69500000Y-84200000D03*
X71100000Y-77000000D03*
X69300000Y-77000000D03*
X71100000Y-78500000D03*
X69300000Y-78500000D03*
X105350000Y-51600000D03*
X103550000Y-51600000D03*
D20*
X99200000Y-60700000D03*
X99200000Y-62500000D03*
X94400000Y-58300000D03*
X94400000Y-56500000D03*
X88200000Y-53300000D03*
X88200000Y-55100000D03*
X88200000Y-58300000D03*
X88200000Y-56500000D03*
X106300000Y-77900000D03*
X106300000Y-76100000D03*
X110300000Y-77900000D03*
X110300000Y-76100000D03*
X112300000Y-77900000D03*
X112300000Y-76100000D03*
X108300000Y-77900000D03*
X108300000Y-76100000D03*
X106300000Y-89000000D03*
X106300000Y-90800000D03*
X76400000Y-88400000D03*
X76400000Y-86600000D03*
X114500000Y-84200000D03*
X114500000Y-86000000D03*
D21*
X76100000Y-89800000D03*
X77900000Y-89800000D03*
X85200000Y-53100000D03*
X83400000Y-53100000D03*
D20*
X99200000Y-56900000D03*
X99200000Y-58700000D03*
D21*
X97300000Y-51400000D03*
X99100000Y-51400000D03*
D20*
X101200000Y-63500000D03*
X101200000Y-65300000D03*
X110400000Y-65350000D03*
X110400000Y-63550000D03*
D21*
X71900000Y-64200000D03*
X70100000Y-64200000D03*
X76500000Y-68400000D03*
X78300000Y-68400000D03*
X75100000Y-68400000D03*
X73300000Y-68400000D03*
X80500000Y-65200000D03*
X82300000Y-65200000D03*
X82300000Y-67800000D03*
X80500000Y-67800000D03*
D38*
X67500000Y-51000000D03*
X65500000Y-51000000D03*
X66500000Y-53000000D03*
D22*
X101600000Y-53200000D03*
X101600000Y-55200000D03*
X103600000Y-54200000D03*
X105800000Y-53200000D03*
X105800000Y-55200000D03*
X107800000Y-54200000D03*
X112200000Y-64600000D03*
X112200000Y-66600000D03*
X114200000Y-65600000D03*
X92200000Y-55000000D03*
X92200000Y-53000000D03*
X90200000Y-54000000D03*
X92200000Y-59150000D03*
X92200000Y-57150000D03*
X90200000Y-58150000D03*
X84200000Y-67550000D03*
X84200000Y-69550000D03*
X86200000Y-68550000D03*
X84200000Y-63400000D03*
X84200000Y-65400000D03*
X86200000Y-64400000D03*
M02*
