G04 #@! TF.GenerationSoftware,KiCad,Pcbnew,(2017-11-24 revision a01d81e4b)-makepkg*
G04 #@! TF.CreationDate,2017-12-10T21:28:38-05:00*
G04 #@! TF.ProjectId,processor,70726F636573736F722E6B696361645F,rev?*
G04 #@! TF.SameCoordinates,Original*
G04 #@! TF.FileFunction,Profile,NP*
%FSLAX46Y46*%
G04 Gerber Fmt 4.6, Leading zero omitted, Abs format (unit mm)*
G04 Created by KiCad (PCBNEW (2017-11-24 revision a01d81e4b)-makepkg) date 12/10/17 21:28:38*
%MOMM*%
%LPD*%
G01*
G04 APERTURE LIST*
%ADD10C,0.250000*%
%ADD11C,0.254000*%
G04 APERTURE END LIST*
D10*
X30250000Y-50000000D02*
X7000000Y-50000000D01*
X48750000Y-50000000D02*
X68000000Y-50000000D01*
X48750000Y-44000000D02*
X48750000Y-50000000D01*
X30250000Y-44000000D02*
X48750000Y-44000000D01*
X30250000Y-50000000D02*
X30250000Y-44000000D01*
X68000000Y-2000000D02*
X72000000Y-6000000D01*
X75000000Y-6000000D02*
X72000000Y-6000000D01*
X68000000Y0D02*
X68000000Y-2000000D01*
X68000000Y-48000000D02*
X72000000Y-44000000D01*
X68000000Y-50000000D02*
X68000000Y-48000000D01*
X75000000Y-44000000D02*
X72000000Y-44000000D01*
X3000000Y-44000000D02*
X7000000Y-48000000D01*
X7000000Y-2000000D02*
X3000000Y-6000000D01*
X72000000Y-31500000D02*
X72000000Y-37000000D01*
X72000000Y-13000000D02*
X72000000Y-18500000D01*
X75000000Y-44000000D02*
X75000000Y-37000000D01*
X75000000Y-6000000D02*
X75000000Y-13000000D01*
X65000000Y-31500000D02*
X72000000Y-31500000D01*
X65000000Y-18500000D02*
X65000000Y-31500000D01*
X72000000Y-18500000D02*
X65000000Y-18500000D01*
X72000000Y-37000000D02*
X75000000Y-37000000D01*
X75000000Y-13000000D02*
X72000000Y-13000000D01*
D11*
X0Y-6000000D02*
X3000000Y-6000000D01*
X7000000Y-2000000D02*
X7000000Y0D01*
X7000000Y-48000000D02*
X7000000Y-50000000D01*
X0Y-44000000D02*
X3000000Y-44000000D01*
X0Y-6000000D02*
X0Y-44000000D01*
X68000000Y0D02*
X7000000Y0D01*
M02*
