G04 #@! TF.GenerationSoftware,KiCad,Pcbnew,(2017-11-24 revision a01d81e4b)-makepkg*
G04 #@! TF.CreationDate,2018-01-08T18:37:18-05:00*
G04 #@! TF.ProjectId,processor,70726F636573736F722E6B696361645F,rev?*
G04 #@! TF.SameCoordinates,Original*
G04 #@! TF.FileFunction,Other,User*
%FSLAX46Y46*%
G04 Gerber Fmt 4.6, Leading zero omitted, Abs format (unit mm)*
G04 Created by KiCad (PCBNEW (2017-11-24 revision a01d81e4b)-makepkg) date 01/08/18 18:37:18*
%MOMM*%
%LPD*%
G01*
G04 APERTURE LIST*
%ADD10C,0.200000*%
%ADD11C,0.050000*%
%ADD12C,0.100000*%
%ADD13C,0.150000*%
G04 APERTURE END LIST*
D10*
X28700000Y-11900000D02*
X28700000Y-17300000D01*
X28700000Y-17300000D02*
X23300000Y-17300000D01*
X23300000Y-17300000D02*
X23300000Y-11900000D01*
X23300000Y-11900000D02*
X28700000Y-11900000D01*
D11*
X5400000Y-4700000D02*
X8600000Y-4700000D01*
X5400000Y-4700000D02*
X5400000Y-6700000D01*
X8600000Y-6700000D02*
X8600000Y-4700000D01*
X8600000Y-6700000D02*
X5400000Y-6700000D01*
D10*
X15500000Y-5000000D02*
G75*
G03X15500000Y-5000000I-3000000J0D01*
G01*
D12*
X60800000Y-37000000D02*
X63400000Y-37000000D01*
X60800000Y-40750000D02*
X60800000Y-37000000D01*
X63400000Y-40750000D02*
X60800000Y-40750000D01*
X63400000Y-37000000D02*
X63400000Y-40750000D01*
D11*
X51400000Y-28650000D02*
X51400000Y-31150000D01*
X51400000Y-28650000D02*
X50000000Y-28650000D01*
X50000000Y-31150000D02*
X51400000Y-31150000D01*
X50000000Y-31150000D02*
X50000000Y-28650000D01*
D10*
X65500000Y-45000000D02*
G75*
G03X65500000Y-45000000I-3000000J0D01*
G01*
D11*
X16850000Y-48400000D02*
X19350000Y-48400000D01*
X16850000Y-48400000D02*
X16850000Y-49800000D01*
X19350000Y-49800000D02*
X19350000Y-48400000D01*
X19350000Y-49800000D02*
X16850000Y-49800000D01*
X16500000Y-44850000D02*
X19900000Y-44850000D01*
X19900000Y-44850000D02*
X19900000Y-48350000D01*
X19900000Y-48350000D02*
X16500000Y-48350000D01*
X16500000Y-48350000D02*
X16500000Y-44850000D01*
D10*
X15500000Y-45000000D02*
G75*
G03X15500000Y-45000000I-3000000J0D01*
G01*
X29900000Y-6300000D02*
X35300000Y-6300000D01*
X35300000Y-6300000D02*
X35300000Y-9300000D01*
X35300000Y-9300000D02*
X29900000Y-9300000D01*
X29900000Y-9300000D02*
X29900000Y-6300000D01*
X35300000Y-12500000D02*
X29900000Y-12500000D01*
X29900000Y-12500000D02*
X29900000Y-9500000D01*
X29900000Y-9500000D02*
X35300000Y-9500000D01*
X35300000Y-9500000D02*
X35300000Y-12500000D01*
D12*
X21100000Y-5800000D02*
X31000000Y-5800000D01*
X21100000Y-150000D02*
X21100000Y-5800000D01*
X31000000Y-150000D02*
X21100000Y-150000D01*
X31000000Y-5800000D02*
X31000000Y-150000D01*
D11*
X49750000Y-15950000D02*
X45050000Y-15950000D01*
X45050000Y-15950000D02*
X45050000Y-13650000D01*
X45050000Y-13650000D02*
X49750000Y-13650000D01*
X49750000Y-15950000D02*
X49750000Y-13650000D01*
X56650000Y-11350000D02*
X56650000Y-6650000D01*
X56650000Y-6650000D02*
X58950000Y-6650000D01*
X58950000Y-6650000D02*
X58950000Y-11350000D01*
X56650000Y-11350000D02*
X58950000Y-11350000D01*
X42400000Y-9910000D02*
X42400000Y-16890000D01*
X42400000Y-9910000D02*
X38400000Y-9910000D01*
X38400000Y-16890000D02*
X42400000Y-16890000D01*
X38400000Y-16890000D02*
X38400000Y-9910000D01*
X40900000Y-20300000D02*
G75*
G03X40900000Y-20300000I-900000J0D01*
G01*
X40900000Y-18400000D02*
G75*
G03X40900000Y-18400000I-900000J0D01*
G01*
D13*
X46000000Y-5550000D02*
X46000000Y-2350000D01*
X50000000Y-5550000D02*
X46000000Y-5550000D01*
X50000000Y-2350000D02*
X50000000Y-5550000D01*
X46000000Y-2350000D02*
X50000000Y-2350000D01*
D11*
X71000000Y-9150000D02*
X71000000Y-14250000D01*
X71000000Y-9150000D02*
X65300000Y-9150000D01*
X65300000Y-14250000D02*
X71000000Y-14250000D01*
X65300000Y-14250000D02*
X65300000Y-9150000D01*
D10*
X55700000Y-12300000D02*
X50300000Y-12300000D01*
X50300000Y-12300000D02*
X50300000Y-9300000D01*
X50300000Y-9300000D02*
X55700000Y-9300000D01*
X55700000Y-9300000D02*
X55700000Y-12300000D01*
D11*
X50650000Y-6450000D02*
X55350000Y-6450000D01*
X55350000Y-6450000D02*
X55350000Y-8750000D01*
X55350000Y-8750000D02*
X50650000Y-8750000D01*
X50650000Y-6450000D02*
X50650000Y-8750000D01*
D10*
X65500000Y-5000000D02*
G75*
G03X65500000Y-5000000I-3000000J0D01*
G01*
D11*
X54950000Y-12450000D02*
X54950000Y-17150000D01*
X54950000Y-17150000D02*
X52650000Y-17150000D01*
X52650000Y-17150000D02*
X52650000Y-12450000D01*
X54950000Y-12450000D02*
X52650000Y-12450000D01*
X18500000Y-41500000D02*
X18500000Y-44700000D01*
X18500000Y-41500000D02*
X16500000Y-41500000D01*
X16500000Y-44700000D02*
X18500000Y-44700000D01*
X16500000Y-44700000D02*
X16500000Y-41500000D01*
X47800000Y-6200000D02*
X47800000Y-9400000D01*
X47800000Y-6200000D02*
X45800000Y-6200000D01*
X45800000Y-9400000D02*
X47800000Y-9400000D01*
X45800000Y-9400000D02*
X45800000Y-6200000D01*
X46200000Y-13400000D02*
X46200000Y-10200000D01*
X46200000Y-13400000D02*
X48200000Y-13400000D01*
X48200000Y-10200000D02*
X46200000Y-10200000D01*
X48200000Y-10200000D02*
X48200000Y-13400000D01*
X45400000Y-9200000D02*
X45400000Y-12400000D01*
X45400000Y-9200000D02*
X43400000Y-9200000D01*
X43400000Y-12400000D02*
X45400000Y-12400000D01*
X43400000Y-12400000D02*
X43400000Y-9200000D01*
X52200000Y-40700000D02*
X52200000Y-43900000D01*
X52200000Y-40700000D02*
X50200000Y-40700000D01*
X50200000Y-43900000D02*
X52200000Y-43900000D01*
X50200000Y-43900000D02*
X50200000Y-40700000D01*
X20800000Y-41500000D02*
X20800000Y-44700000D01*
X20800000Y-41500000D02*
X18800000Y-41500000D01*
X18800000Y-44700000D02*
X20800000Y-44700000D01*
X18800000Y-44700000D02*
X18800000Y-41500000D01*
X5400000Y-6800000D02*
X8600000Y-6800000D01*
X5400000Y-6800000D02*
X5400000Y-8800000D01*
X8600000Y-8800000D02*
X8600000Y-6800000D01*
X8600000Y-8800000D02*
X5400000Y-8800000D01*
X19000000Y-35000000D02*
X22200000Y-35000000D01*
X19000000Y-35000000D02*
X19000000Y-37000000D01*
X22200000Y-37000000D02*
X22200000Y-35000000D01*
X22200000Y-37000000D02*
X19000000Y-37000000D01*
X18800000Y-41100000D02*
X18800000Y-37900000D01*
X18800000Y-41100000D02*
X20800000Y-41100000D01*
X20800000Y-37900000D02*
X18800000Y-37900000D01*
X20800000Y-37900000D02*
X20800000Y-41100000D01*
X66100000Y-37300000D02*
X66100000Y-40500000D01*
X66100000Y-37300000D02*
X64100000Y-37300000D01*
X64100000Y-40500000D02*
X66100000Y-40500000D01*
X64100000Y-40500000D02*
X64100000Y-37300000D01*
X54400000Y-40700000D02*
X54400000Y-43900000D01*
X54400000Y-40700000D02*
X52400000Y-40700000D01*
X52400000Y-43900000D02*
X54400000Y-43900000D01*
X52400000Y-43900000D02*
X52400000Y-40700000D01*
X32500000Y-4000000D02*
X35700000Y-4000000D01*
X32500000Y-4000000D02*
X32500000Y-6000000D01*
X35700000Y-6000000D02*
X35700000Y-4000000D01*
X35700000Y-6000000D02*
X32500000Y-6000000D01*
X73600000Y-9050000D02*
X73600000Y-12250000D01*
X73600000Y-9050000D02*
X71600000Y-9050000D01*
X71600000Y-12250000D02*
X73600000Y-12250000D01*
X71600000Y-12250000D02*
X71600000Y-9050000D01*
X63200000Y-13800000D02*
X63200000Y-10600000D01*
X63200000Y-13800000D02*
X65200000Y-13800000D01*
X65200000Y-10600000D02*
X63200000Y-10600000D01*
X65200000Y-10600000D02*
X65200000Y-13800000D01*
X23200000Y-12600000D02*
X20000000Y-12600000D01*
X23200000Y-12600000D02*
X23200000Y-10600000D01*
X20000000Y-10600000D02*
X20000000Y-12600000D01*
X20000000Y-10600000D02*
X23200000Y-10600000D01*
X23200000Y-10400000D02*
X20000000Y-10400000D01*
X23200000Y-10400000D02*
X23200000Y-8400000D01*
X20000000Y-8400000D02*
X20000000Y-10400000D01*
X20000000Y-8400000D02*
X23200000Y-8400000D01*
X55300000Y-45000000D02*
X55300000Y-41800000D01*
X55300000Y-45000000D02*
X57300000Y-45000000D01*
X57300000Y-41800000D02*
X55300000Y-41800000D01*
X57300000Y-41800000D02*
X57300000Y-45000000D01*
X59300000Y-22100000D02*
X59300000Y-25300000D01*
X59300000Y-22100000D02*
X57300000Y-22100000D01*
X57300000Y-25300000D02*
X59300000Y-25300000D01*
X57300000Y-25300000D02*
X57300000Y-22100000D01*
X63300000Y-22100000D02*
X63300000Y-25300000D01*
X63300000Y-22100000D02*
X61300000Y-22100000D01*
X61300000Y-25300000D02*
X63300000Y-25300000D01*
X61300000Y-25300000D02*
X61300000Y-22100000D01*
X61300000Y-22100000D02*
X61300000Y-25300000D01*
X61300000Y-22100000D02*
X59300000Y-22100000D01*
X59300000Y-25300000D02*
X61300000Y-25300000D01*
X59300000Y-25300000D02*
X59300000Y-22100000D01*
X57300000Y-22100000D02*
X57300000Y-25300000D01*
X57300000Y-22100000D02*
X55300000Y-22100000D01*
X55300000Y-25300000D02*
X57300000Y-25300000D01*
X55300000Y-25300000D02*
X55300000Y-22100000D01*
X27300000Y-32800000D02*
X27300000Y-36000000D01*
X27300000Y-32800000D02*
X25300000Y-32800000D01*
X25300000Y-36000000D02*
X27300000Y-36000000D01*
X25300000Y-36000000D02*
X25300000Y-32800000D01*
X45400000Y-2200000D02*
X45400000Y-5400000D01*
X45400000Y-2200000D02*
X43400000Y-2200000D01*
X43400000Y-5400000D02*
X45400000Y-5400000D01*
X43400000Y-5400000D02*
X43400000Y-2200000D01*
X19000000Y-31400000D02*
X22200000Y-31400000D01*
X19000000Y-31400000D02*
X19000000Y-33400000D01*
X22200000Y-33400000D02*
X22200000Y-31400000D01*
X22200000Y-33400000D02*
X19000000Y-33400000D01*
X19200000Y-15400000D02*
X22400000Y-15400000D01*
X19200000Y-15400000D02*
X19200000Y-17400000D01*
X22400000Y-17400000D02*
X22400000Y-15400000D01*
X22400000Y-17400000D02*
X19200000Y-17400000D01*
X19200000Y-17600000D02*
X22400000Y-17600000D01*
X19200000Y-17600000D02*
X19200000Y-19600000D01*
X22400000Y-19600000D02*
X22400000Y-17600000D01*
X22400000Y-19600000D02*
X19200000Y-19600000D01*
X60300000Y-10350000D02*
X60300000Y-12850000D01*
X60300000Y-10350000D02*
X58900000Y-10350000D01*
X58900000Y-12850000D02*
X60300000Y-12850000D01*
X58900000Y-12850000D02*
X58900000Y-10350000D01*
X18800000Y-3150000D02*
X18800000Y-650000D01*
X18800000Y-3150000D02*
X20200000Y-3150000D01*
X20200000Y-650000D02*
X18800000Y-650000D01*
X20200000Y-650000D02*
X20200000Y-3150000D01*
X21650000Y-34900000D02*
X19150000Y-34900000D01*
X21650000Y-34900000D02*
X21650000Y-33500000D01*
X19150000Y-33500000D02*
X19150000Y-34900000D01*
X19150000Y-33500000D02*
X21650000Y-33500000D01*
X21450000Y-27700000D02*
X18950000Y-27700000D01*
X21450000Y-27700000D02*
X21450000Y-26300000D01*
X18950000Y-26300000D02*
X18950000Y-27700000D01*
X18950000Y-26300000D02*
X21450000Y-26300000D01*
X21450000Y-29200000D02*
X18950000Y-29200000D01*
X21450000Y-29200000D02*
X21450000Y-27800000D01*
X18950000Y-27800000D02*
X18950000Y-29200000D01*
X18950000Y-27800000D02*
X21450000Y-27800000D01*
X55700000Y-2300000D02*
X53200000Y-2300000D01*
X55700000Y-2300000D02*
X55700000Y-900000D01*
X53200000Y-900000D02*
X53200000Y-2300000D01*
X53200000Y-900000D02*
X55700000Y-900000D01*
X49900000Y-10350000D02*
X49900000Y-12850000D01*
X49900000Y-10350000D02*
X48500000Y-10350000D01*
X48500000Y-12850000D02*
X49900000Y-12850000D01*
X48500000Y-12850000D02*
X48500000Y-10350000D01*
X43700000Y-8650000D02*
X43700000Y-6150000D01*
X43700000Y-8650000D02*
X45100000Y-8650000D01*
X45100000Y-6150000D02*
X43700000Y-6150000D01*
X45100000Y-6150000D02*
X45100000Y-8650000D01*
X38900000Y-2950000D02*
X38900000Y-5450000D01*
X38900000Y-2950000D02*
X37500000Y-2950000D01*
X37500000Y-5450000D02*
X38900000Y-5450000D01*
X37500000Y-5450000D02*
X37500000Y-2950000D01*
X37500000Y-8650000D02*
X37500000Y-6150000D01*
X37500000Y-8650000D02*
X38900000Y-8650000D01*
X38900000Y-6150000D02*
X37500000Y-6150000D01*
X38900000Y-6150000D02*
X38900000Y-8650000D01*
X55600000Y-28250000D02*
X55600000Y-25750000D01*
X55600000Y-28250000D02*
X57000000Y-28250000D01*
X57000000Y-25750000D02*
X55600000Y-25750000D01*
X57000000Y-25750000D02*
X57000000Y-28250000D01*
X59600000Y-28250000D02*
X59600000Y-25750000D01*
X59600000Y-28250000D02*
X61000000Y-28250000D01*
X61000000Y-25750000D02*
X59600000Y-25750000D01*
X61000000Y-25750000D02*
X61000000Y-28250000D01*
X61600000Y-28250000D02*
X61600000Y-25750000D01*
X61600000Y-28250000D02*
X63000000Y-28250000D01*
X63000000Y-25750000D02*
X61600000Y-25750000D01*
X63000000Y-25750000D02*
X63000000Y-28250000D01*
X57600000Y-28250000D02*
X57600000Y-25750000D01*
X57600000Y-28250000D02*
X59000000Y-28250000D01*
X59000000Y-25750000D02*
X57600000Y-25750000D01*
X59000000Y-25750000D02*
X59000000Y-28250000D01*
X57000000Y-38650000D02*
X57000000Y-41150000D01*
X57000000Y-38650000D02*
X55600000Y-38650000D01*
X55600000Y-41150000D02*
X57000000Y-41150000D01*
X55600000Y-41150000D02*
X55600000Y-38650000D01*
X25700000Y-38750000D02*
X25700000Y-36250000D01*
X25700000Y-38750000D02*
X27100000Y-38750000D01*
X27100000Y-36250000D02*
X25700000Y-36250000D01*
X27100000Y-36250000D02*
X27100000Y-38750000D01*
X65200000Y-33850000D02*
X65200000Y-36350000D01*
X65200000Y-33850000D02*
X63800000Y-33850000D01*
X63800000Y-36350000D02*
X65200000Y-36350000D01*
X63800000Y-36350000D02*
X63800000Y-33850000D01*
X25750000Y-39100000D02*
X28250000Y-39100000D01*
X25750000Y-39100000D02*
X25750000Y-40500000D01*
X28250000Y-40500000D02*
X28250000Y-39100000D01*
X28250000Y-40500000D02*
X25750000Y-40500000D01*
X35550000Y-3800000D02*
X33050000Y-3800000D01*
X35550000Y-3800000D02*
X35550000Y-2400000D01*
X33050000Y-2400000D02*
X33050000Y-3800000D01*
X33050000Y-2400000D02*
X35550000Y-2400000D01*
X49900000Y-6550000D02*
X49900000Y-9050000D01*
X49900000Y-6550000D02*
X48500000Y-6550000D01*
X48500000Y-9050000D02*
X49900000Y-9050000D01*
X48500000Y-9050000D02*
X48500000Y-6550000D01*
X46950000Y-700000D02*
X49450000Y-700000D01*
X46950000Y-700000D02*
X46950000Y-2100000D01*
X49450000Y-2100000D02*
X49450000Y-700000D01*
X49450000Y-2100000D02*
X46950000Y-2100000D01*
X51900000Y-13150000D02*
X51900000Y-15650000D01*
X51900000Y-13150000D02*
X50500000Y-13150000D01*
X50500000Y-15650000D02*
X51900000Y-15650000D01*
X50500000Y-15650000D02*
X50500000Y-13150000D01*
X59700000Y-15700000D02*
X59700000Y-13200000D01*
X59700000Y-15700000D02*
X61100000Y-15700000D01*
X61100000Y-13200000D02*
X59700000Y-13200000D01*
X61100000Y-13200000D02*
X61100000Y-15700000D01*
X22250000Y-14900000D02*
X19750000Y-14900000D01*
X22250000Y-14900000D02*
X22250000Y-13500000D01*
X19750000Y-13500000D02*
X19750000Y-14900000D01*
X19750000Y-13500000D02*
X22250000Y-13500000D01*
X26150000Y-17700000D02*
X28650000Y-17700000D01*
X26150000Y-17700000D02*
X26150000Y-19100000D01*
X28650000Y-19100000D02*
X28650000Y-17700000D01*
X28650000Y-19100000D02*
X26150000Y-19100000D01*
X25450000Y-19100000D02*
X22950000Y-19100000D01*
X25450000Y-19100000D02*
X25450000Y-17700000D01*
X22950000Y-17700000D02*
X22950000Y-19100000D01*
X22950000Y-17700000D02*
X25450000Y-17700000D01*
X30150000Y-14500000D02*
X32650000Y-14500000D01*
X30150000Y-14500000D02*
X30150000Y-15900000D01*
X32650000Y-15900000D02*
X32650000Y-14500000D01*
X32650000Y-15900000D02*
X30150000Y-15900000D01*
X32650000Y-18500000D02*
X30150000Y-18500000D01*
X32650000Y-18500000D02*
X32650000Y-17100000D01*
X30150000Y-17100000D02*
X30150000Y-18500000D01*
X30150000Y-17100000D02*
X32650000Y-17100000D01*
X18750000Y-300000D02*
X18750000Y-3700000D01*
X18750000Y-3700000D02*
X15250000Y-3700000D01*
X15250000Y-3700000D02*
X15250000Y-300000D01*
X15250000Y-300000D02*
X18750000Y-300000D01*
X50900000Y-2450000D02*
X54300000Y-2450000D01*
X54300000Y-2450000D02*
X54300000Y-5950000D01*
X54300000Y-5950000D02*
X50900000Y-5950000D01*
X50900000Y-5950000D02*
X50900000Y-2450000D01*
X55100000Y-2450000D02*
X58500000Y-2450000D01*
X58500000Y-2450000D02*
X58500000Y-5950000D01*
X58500000Y-5950000D02*
X55100000Y-5950000D01*
X55100000Y-5950000D02*
X55100000Y-2450000D01*
X61500000Y-13850000D02*
X64900000Y-13850000D01*
X64900000Y-13850000D02*
X64900000Y-17350000D01*
X64900000Y-17350000D02*
X61500000Y-17350000D01*
X61500000Y-17350000D02*
X61500000Y-13850000D01*
X42900000Y-5750000D02*
X39500000Y-5750000D01*
X39500000Y-5750000D02*
X39500000Y-2250000D01*
X39500000Y-2250000D02*
X42900000Y-2250000D01*
X42900000Y-2250000D02*
X42900000Y-5750000D01*
X42900000Y-9900000D02*
X39500000Y-9900000D01*
X39500000Y-9900000D02*
X39500000Y-6400000D01*
X39500000Y-6400000D02*
X42900000Y-6400000D01*
X42900000Y-6400000D02*
X42900000Y-9900000D01*
X33500000Y-16800000D02*
X36900000Y-16800000D01*
X36900000Y-16800000D02*
X36900000Y-20300000D01*
X36900000Y-20300000D02*
X33500000Y-20300000D01*
X33500000Y-20300000D02*
X33500000Y-16800000D01*
X33500000Y-12650000D02*
X36900000Y-12650000D01*
X36900000Y-12650000D02*
X36900000Y-16150000D01*
X36900000Y-16150000D02*
X33500000Y-16150000D01*
X33500000Y-16150000D02*
X33500000Y-12650000D01*
M02*
