G04 #@! TF.FileFunction,Other,User*
%FSLAX46Y46*%
G04 Gerber Fmt 4.6, Leading zero omitted, Abs format (unit mm)*
G04 Created by KiCad (PCBNEW 4.0.6) date 12/03/17 23:21:02*
%MOMM*%
%LPD*%
G01*
G04 APERTURE LIST*
%ADD10C,1.000000*%
%ADD11C,0.050000*%
%ADD12C,0.200000*%
%ADD13C,0.100000*%
%ADD14C,0.150000*%
G04 APERTURE END LIST*
D10*
D11*
X57200000Y-53500000D02*
X57200000Y-50300000D01*
X57200000Y-53500000D02*
X59200000Y-53500000D01*
X59200000Y-50300000D02*
X57200000Y-50300000D01*
X59200000Y-50300000D02*
X59200000Y-53500000D01*
D12*
X65500000Y-55000000D02*
G75*
G03X65500000Y-55000000I-3000000J0D01*
G01*
D13*
X110800000Y-87000000D02*
X113400000Y-87000000D01*
X110800000Y-90750000D02*
X110800000Y-87000000D01*
X113400000Y-90750000D02*
X110800000Y-90750000D01*
X113400000Y-87000000D02*
X113400000Y-90750000D01*
D11*
X101400000Y-78650000D02*
X101400000Y-81150000D01*
X101400000Y-78650000D02*
X100000000Y-78650000D01*
X100000000Y-81150000D02*
X101400000Y-81150000D01*
X100000000Y-81150000D02*
X100000000Y-78650000D01*
D12*
X115500000Y-95000000D02*
G75*
G03X115500000Y-95000000I-3000000J0D01*
G01*
D11*
X66850000Y-98400000D02*
X69350000Y-98400000D01*
X66850000Y-98400000D02*
X66850000Y-99800000D01*
X69350000Y-99800000D02*
X69350000Y-98400000D01*
X69350000Y-99800000D02*
X66850000Y-99800000D01*
X66500000Y-94850000D02*
X69900000Y-94850000D01*
X69900000Y-94850000D02*
X69900000Y-98350000D01*
X69900000Y-98350000D02*
X66500000Y-98350000D01*
X66500000Y-98350000D02*
X66500000Y-94850000D01*
D12*
X65500000Y-95000000D02*
G75*
G03X65500000Y-95000000I-3000000J0D01*
G01*
X79900000Y-56300000D02*
X85300000Y-56300000D01*
X85300000Y-56300000D02*
X85300000Y-59300000D01*
X85300000Y-59300000D02*
X79900000Y-59300000D01*
X79900000Y-59300000D02*
X79900000Y-56300000D01*
X85300000Y-62500000D02*
X79900000Y-62500000D01*
X79900000Y-62500000D02*
X79900000Y-59500000D01*
X79900000Y-59500000D02*
X85300000Y-59500000D01*
X85300000Y-59500000D02*
X85300000Y-62500000D01*
D13*
X71100000Y-55800000D02*
X81000000Y-55800000D01*
X71100000Y-50150000D02*
X71100000Y-55800000D01*
X81000000Y-50150000D02*
X71100000Y-50150000D01*
X81000000Y-55800000D02*
X81000000Y-50150000D01*
D12*
X78700000Y-61900000D02*
X78700000Y-67300000D01*
X78700000Y-67300000D02*
X73300000Y-67300000D01*
X73300000Y-67300000D02*
X73300000Y-61900000D01*
X73300000Y-61900000D02*
X78700000Y-61900000D01*
D11*
X99750000Y-65950000D02*
X95050000Y-65950000D01*
X95050000Y-65950000D02*
X95050000Y-63650000D01*
X95050000Y-63650000D02*
X99750000Y-63650000D01*
X99750000Y-65950000D02*
X99750000Y-63650000D01*
X106650000Y-61350000D02*
X106650000Y-56650000D01*
X106650000Y-56650000D02*
X108950000Y-56650000D01*
X108950000Y-56650000D02*
X108950000Y-61350000D01*
X106650000Y-61350000D02*
X108950000Y-61350000D01*
X92400000Y-59910000D02*
X92400000Y-66890000D01*
X92400000Y-59910000D02*
X88400000Y-59910000D01*
X88400000Y-66890000D02*
X92400000Y-66890000D01*
X88400000Y-66890000D02*
X88400000Y-59910000D01*
X90800000Y-51700000D02*
G75*
G03X90800000Y-51700000I-900000J0D01*
G01*
X91100000Y-68200000D02*
G75*
G03X91100000Y-68200000I-900000J0D01*
G01*
D14*
X96000000Y-55550000D02*
X96000000Y-52350000D01*
X100000000Y-55550000D02*
X96000000Y-55550000D01*
X100000000Y-52350000D02*
X100000000Y-55550000D01*
X96000000Y-52350000D02*
X100000000Y-52350000D01*
D11*
X121000000Y-59150000D02*
X121000000Y-64250000D01*
X121000000Y-59150000D02*
X115300000Y-59150000D01*
X115300000Y-64250000D02*
X121000000Y-64250000D01*
X115300000Y-64250000D02*
X115300000Y-59150000D01*
D12*
X105700000Y-62300000D02*
X100300000Y-62300000D01*
X100300000Y-62300000D02*
X100300000Y-59300000D01*
X100300000Y-59300000D02*
X105700000Y-59300000D01*
X105700000Y-59300000D02*
X105700000Y-62300000D01*
D11*
X100650000Y-56450000D02*
X105350000Y-56450000D01*
X105350000Y-56450000D02*
X105350000Y-58750000D01*
X105350000Y-58750000D02*
X100650000Y-58750000D01*
X100650000Y-56450000D02*
X100650000Y-58750000D01*
D12*
X115500000Y-55000000D02*
G75*
G03X115500000Y-55000000I-3000000J0D01*
G01*
D11*
X104950000Y-62450000D02*
X104950000Y-67150000D01*
X104950000Y-67150000D02*
X102650000Y-67150000D01*
X102650000Y-67150000D02*
X102650000Y-62450000D01*
X104950000Y-62450000D02*
X102650000Y-62450000D01*
X68500000Y-91500000D02*
X68500000Y-94700000D01*
X68500000Y-91500000D02*
X66500000Y-91500000D01*
X66500000Y-94700000D02*
X68500000Y-94700000D01*
X66500000Y-94700000D02*
X66500000Y-91500000D01*
X97800000Y-56200000D02*
X97800000Y-59400000D01*
X97800000Y-56200000D02*
X95800000Y-56200000D01*
X95800000Y-59400000D02*
X97800000Y-59400000D01*
X95800000Y-59400000D02*
X95800000Y-56200000D01*
X96200000Y-63400000D02*
X96200000Y-60200000D01*
X96200000Y-63400000D02*
X98200000Y-63400000D01*
X98200000Y-60200000D02*
X96200000Y-60200000D01*
X98200000Y-60200000D02*
X98200000Y-63400000D01*
X95400000Y-59200000D02*
X95400000Y-62400000D01*
X95400000Y-59200000D02*
X93400000Y-59200000D01*
X93400000Y-62400000D02*
X95400000Y-62400000D01*
X93400000Y-62400000D02*
X93400000Y-59200000D01*
X102200000Y-90700000D02*
X102200000Y-93900000D01*
X102200000Y-90700000D02*
X100200000Y-90700000D01*
X100200000Y-93900000D02*
X102200000Y-93900000D01*
X100200000Y-93900000D02*
X100200000Y-90700000D01*
X70800000Y-91500000D02*
X70800000Y-94700000D01*
X70800000Y-91500000D02*
X68800000Y-91500000D01*
X68800000Y-94700000D02*
X70800000Y-94700000D01*
X68800000Y-94700000D02*
X68800000Y-91500000D01*
X55600000Y-54700000D02*
X58800000Y-54700000D01*
X55600000Y-54700000D02*
X55600000Y-56700000D01*
X58800000Y-56700000D02*
X58800000Y-54700000D01*
X58800000Y-56700000D02*
X55600000Y-56700000D01*
X69000000Y-85000000D02*
X72200000Y-85000000D01*
X69000000Y-85000000D02*
X69000000Y-87000000D01*
X72200000Y-87000000D02*
X72200000Y-85000000D01*
X72200000Y-87000000D02*
X69000000Y-87000000D01*
X68800000Y-91100000D02*
X68800000Y-87900000D01*
X68800000Y-91100000D02*
X70800000Y-91100000D01*
X70800000Y-87900000D02*
X68800000Y-87900000D01*
X70800000Y-87900000D02*
X70800000Y-91100000D01*
X116100000Y-87300000D02*
X116100000Y-90500000D01*
X116100000Y-87300000D02*
X114100000Y-87300000D01*
X114100000Y-90500000D02*
X116100000Y-90500000D01*
X114100000Y-90500000D02*
X114100000Y-87300000D01*
X104400000Y-90700000D02*
X104400000Y-93900000D01*
X104400000Y-90700000D02*
X102400000Y-90700000D01*
X102400000Y-93900000D02*
X104400000Y-93900000D01*
X102400000Y-93900000D02*
X102400000Y-90700000D01*
X82500000Y-54000000D02*
X85700000Y-54000000D01*
X82500000Y-54000000D02*
X82500000Y-56000000D01*
X85700000Y-56000000D02*
X85700000Y-54000000D01*
X85700000Y-56000000D02*
X82500000Y-56000000D01*
X123600000Y-59050000D02*
X123600000Y-62250000D01*
X123600000Y-59050000D02*
X121600000Y-59050000D01*
X121600000Y-62250000D02*
X123600000Y-62250000D01*
X121600000Y-62250000D02*
X121600000Y-59050000D01*
X113200000Y-63800000D02*
X113200000Y-60600000D01*
X113200000Y-63800000D02*
X115200000Y-63800000D01*
X115200000Y-60600000D02*
X113200000Y-60600000D01*
X115200000Y-60600000D02*
X115200000Y-63800000D01*
X73200000Y-62600000D02*
X70000000Y-62600000D01*
X73200000Y-62600000D02*
X73200000Y-60600000D01*
X70000000Y-60600000D02*
X70000000Y-62600000D01*
X70000000Y-60600000D02*
X73200000Y-60600000D01*
X73200000Y-60400000D02*
X70000000Y-60400000D01*
X73200000Y-60400000D02*
X73200000Y-58400000D01*
X70000000Y-58400000D02*
X70000000Y-60400000D01*
X70000000Y-58400000D02*
X73200000Y-58400000D01*
X105300000Y-95000000D02*
X105300000Y-91800000D01*
X105300000Y-95000000D02*
X107300000Y-95000000D01*
X107300000Y-91800000D02*
X105300000Y-91800000D01*
X107300000Y-91800000D02*
X107300000Y-95000000D01*
X109300000Y-72100000D02*
X109300000Y-75300000D01*
X109300000Y-72100000D02*
X107300000Y-72100000D01*
X107300000Y-75300000D02*
X109300000Y-75300000D01*
X107300000Y-75300000D02*
X107300000Y-72100000D01*
X113300000Y-72100000D02*
X113300000Y-75300000D01*
X113300000Y-72100000D02*
X111300000Y-72100000D01*
X111300000Y-75300000D02*
X113300000Y-75300000D01*
X111300000Y-75300000D02*
X111300000Y-72100000D01*
X111300000Y-72100000D02*
X111300000Y-75300000D01*
X111300000Y-72100000D02*
X109300000Y-72100000D01*
X109300000Y-75300000D02*
X111300000Y-75300000D01*
X109300000Y-75300000D02*
X109300000Y-72100000D01*
X107300000Y-72100000D02*
X107300000Y-75300000D01*
X107300000Y-72100000D02*
X105300000Y-72100000D01*
X105300000Y-75300000D02*
X107300000Y-75300000D01*
X105300000Y-75300000D02*
X105300000Y-72100000D01*
X77300000Y-82800000D02*
X77300000Y-86000000D01*
X77300000Y-82800000D02*
X75300000Y-82800000D01*
X75300000Y-86000000D02*
X77300000Y-86000000D01*
X75300000Y-86000000D02*
X75300000Y-82800000D01*
X95400000Y-52200000D02*
X95400000Y-55400000D01*
X95400000Y-52200000D02*
X93400000Y-52200000D01*
X93400000Y-55400000D02*
X95400000Y-55400000D01*
X93400000Y-55400000D02*
X93400000Y-52200000D01*
X69000000Y-81400000D02*
X72200000Y-81400000D01*
X69000000Y-81400000D02*
X69000000Y-83400000D01*
X72200000Y-83400000D02*
X72200000Y-81400000D01*
X72200000Y-83400000D02*
X69000000Y-83400000D01*
X69200000Y-65400000D02*
X72400000Y-65400000D01*
X69200000Y-65400000D02*
X69200000Y-67400000D01*
X72400000Y-67400000D02*
X72400000Y-65400000D01*
X72400000Y-67400000D02*
X69200000Y-67400000D01*
X69200000Y-67600000D02*
X72400000Y-67600000D01*
X69200000Y-67600000D02*
X69200000Y-69600000D01*
X72400000Y-69600000D02*
X72400000Y-67600000D01*
X72400000Y-69600000D02*
X69200000Y-69600000D01*
X110300000Y-60350000D02*
X110300000Y-62850000D01*
X110300000Y-60350000D02*
X108900000Y-60350000D01*
X108900000Y-62850000D02*
X110300000Y-62850000D01*
X108900000Y-62850000D02*
X108900000Y-60350000D01*
X68500000Y-53150000D02*
X68500000Y-50650000D01*
X68500000Y-53150000D02*
X69900000Y-53150000D01*
X69900000Y-50650000D02*
X68500000Y-50650000D01*
X69900000Y-50650000D02*
X69900000Y-53150000D01*
X71650000Y-84900000D02*
X69150000Y-84900000D01*
X71650000Y-84900000D02*
X71650000Y-83500000D01*
X69150000Y-83500000D02*
X69150000Y-84900000D01*
X69150000Y-83500000D02*
X71650000Y-83500000D01*
X71450000Y-77700000D02*
X68950000Y-77700000D01*
X71450000Y-77700000D02*
X71450000Y-76300000D01*
X68950000Y-76300000D02*
X68950000Y-77700000D01*
X68950000Y-76300000D02*
X71450000Y-76300000D01*
X71450000Y-79200000D02*
X68950000Y-79200000D01*
X71450000Y-79200000D02*
X71450000Y-77800000D01*
X68950000Y-77800000D02*
X68950000Y-79200000D01*
X68950000Y-77800000D02*
X71450000Y-77800000D01*
X105700000Y-52300000D02*
X103200000Y-52300000D01*
X105700000Y-52300000D02*
X105700000Y-50900000D01*
X103200000Y-50900000D02*
X103200000Y-52300000D01*
X103200000Y-50900000D02*
X105700000Y-50900000D01*
X99900000Y-60350000D02*
X99900000Y-62850000D01*
X99900000Y-60350000D02*
X98500000Y-60350000D01*
X98500000Y-62850000D02*
X99900000Y-62850000D01*
X98500000Y-62850000D02*
X98500000Y-60350000D01*
X93700000Y-58650000D02*
X93700000Y-56150000D01*
X93700000Y-58650000D02*
X95100000Y-58650000D01*
X95100000Y-56150000D02*
X93700000Y-56150000D01*
X95100000Y-56150000D02*
X95100000Y-58650000D01*
X88900000Y-52950000D02*
X88900000Y-55450000D01*
X88900000Y-52950000D02*
X87500000Y-52950000D01*
X87500000Y-55450000D02*
X88900000Y-55450000D01*
X87500000Y-55450000D02*
X87500000Y-52950000D01*
X87500000Y-58650000D02*
X87500000Y-56150000D01*
X87500000Y-58650000D02*
X88900000Y-58650000D01*
X88900000Y-56150000D02*
X87500000Y-56150000D01*
X88900000Y-56150000D02*
X88900000Y-58650000D01*
X105600000Y-78250000D02*
X105600000Y-75750000D01*
X105600000Y-78250000D02*
X107000000Y-78250000D01*
X107000000Y-75750000D02*
X105600000Y-75750000D01*
X107000000Y-75750000D02*
X107000000Y-78250000D01*
X109600000Y-78250000D02*
X109600000Y-75750000D01*
X109600000Y-78250000D02*
X111000000Y-78250000D01*
X111000000Y-75750000D02*
X109600000Y-75750000D01*
X111000000Y-75750000D02*
X111000000Y-78250000D01*
X111600000Y-78250000D02*
X111600000Y-75750000D01*
X111600000Y-78250000D02*
X113000000Y-78250000D01*
X113000000Y-75750000D02*
X111600000Y-75750000D01*
X113000000Y-75750000D02*
X113000000Y-78250000D01*
X107600000Y-78250000D02*
X107600000Y-75750000D01*
X107600000Y-78250000D02*
X109000000Y-78250000D01*
X109000000Y-75750000D02*
X107600000Y-75750000D01*
X109000000Y-75750000D02*
X109000000Y-78250000D01*
X107000000Y-88650000D02*
X107000000Y-91150000D01*
X107000000Y-88650000D02*
X105600000Y-88650000D01*
X105600000Y-91150000D02*
X107000000Y-91150000D01*
X105600000Y-91150000D02*
X105600000Y-88650000D01*
X75700000Y-88750000D02*
X75700000Y-86250000D01*
X75700000Y-88750000D02*
X77100000Y-88750000D01*
X77100000Y-86250000D02*
X75700000Y-86250000D01*
X77100000Y-86250000D02*
X77100000Y-88750000D01*
X115200000Y-83850000D02*
X115200000Y-86350000D01*
X115200000Y-83850000D02*
X113800000Y-83850000D01*
X113800000Y-86350000D02*
X115200000Y-86350000D01*
X113800000Y-86350000D02*
X113800000Y-83850000D01*
X75750000Y-89100000D02*
X78250000Y-89100000D01*
X75750000Y-89100000D02*
X75750000Y-90500000D01*
X78250000Y-90500000D02*
X78250000Y-89100000D01*
X78250000Y-90500000D02*
X75750000Y-90500000D01*
X85550000Y-53800000D02*
X83050000Y-53800000D01*
X85550000Y-53800000D02*
X85550000Y-52400000D01*
X83050000Y-52400000D02*
X83050000Y-53800000D01*
X83050000Y-52400000D02*
X85550000Y-52400000D01*
X99900000Y-56550000D02*
X99900000Y-59050000D01*
X99900000Y-56550000D02*
X98500000Y-56550000D01*
X98500000Y-59050000D02*
X99900000Y-59050000D01*
X98500000Y-59050000D02*
X98500000Y-56550000D01*
X96950000Y-50700000D02*
X99450000Y-50700000D01*
X96950000Y-50700000D02*
X96950000Y-52100000D01*
X99450000Y-52100000D02*
X99450000Y-50700000D01*
X99450000Y-52100000D02*
X96950000Y-52100000D01*
X101900000Y-63150000D02*
X101900000Y-65650000D01*
X101900000Y-63150000D02*
X100500000Y-63150000D01*
X100500000Y-65650000D02*
X101900000Y-65650000D01*
X100500000Y-65650000D02*
X100500000Y-63150000D01*
X109700000Y-65700000D02*
X109700000Y-63200000D01*
X109700000Y-65700000D02*
X111100000Y-65700000D01*
X111100000Y-63200000D02*
X109700000Y-63200000D01*
X111100000Y-63200000D02*
X111100000Y-65700000D01*
X72250000Y-64900000D02*
X69750000Y-64900000D01*
X72250000Y-64900000D02*
X72250000Y-63500000D01*
X69750000Y-63500000D02*
X69750000Y-64900000D01*
X69750000Y-63500000D02*
X72250000Y-63500000D01*
X76150000Y-67700000D02*
X78650000Y-67700000D01*
X76150000Y-67700000D02*
X76150000Y-69100000D01*
X78650000Y-69100000D02*
X78650000Y-67700000D01*
X78650000Y-69100000D02*
X76150000Y-69100000D01*
X75450000Y-69100000D02*
X72950000Y-69100000D01*
X75450000Y-69100000D02*
X75450000Y-67700000D01*
X72950000Y-67700000D02*
X72950000Y-69100000D01*
X72950000Y-67700000D02*
X75450000Y-67700000D01*
X80150000Y-64500000D02*
X82650000Y-64500000D01*
X80150000Y-64500000D02*
X80150000Y-65900000D01*
X82650000Y-65900000D02*
X82650000Y-64500000D01*
X82650000Y-65900000D02*
X80150000Y-65900000D01*
X82650000Y-68500000D02*
X80150000Y-68500000D01*
X82650000Y-68500000D02*
X82650000Y-67100000D01*
X80150000Y-67100000D02*
X80150000Y-68500000D01*
X80150000Y-67100000D02*
X82650000Y-67100000D01*
X68250000Y-50300000D02*
X68250000Y-53700000D01*
X68250000Y-53700000D02*
X64750000Y-53700000D01*
X64750000Y-53700000D02*
X64750000Y-50300000D01*
X64750000Y-50300000D02*
X68250000Y-50300000D01*
X100900000Y-52450000D02*
X104300000Y-52450000D01*
X104300000Y-52450000D02*
X104300000Y-55950000D01*
X104300000Y-55950000D02*
X100900000Y-55950000D01*
X100900000Y-55950000D02*
X100900000Y-52450000D01*
X105100000Y-52450000D02*
X108500000Y-52450000D01*
X108500000Y-52450000D02*
X108500000Y-55950000D01*
X108500000Y-55950000D02*
X105100000Y-55950000D01*
X105100000Y-55950000D02*
X105100000Y-52450000D01*
X111500000Y-63850000D02*
X114900000Y-63850000D01*
X114900000Y-63850000D02*
X114900000Y-67350000D01*
X114900000Y-67350000D02*
X111500000Y-67350000D01*
X111500000Y-67350000D02*
X111500000Y-63850000D01*
X92900000Y-55750000D02*
X89500000Y-55750000D01*
X89500000Y-55750000D02*
X89500000Y-52250000D01*
X89500000Y-52250000D02*
X92900000Y-52250000D01*
X92900000Y-52250000D02*
X92900000Y-55750000D01*
X92900000Y-59900000D02*
X89500000Y-59900000D01*
X89500000Y-59900000D02*
X89500000Y-56400000D01*
X89500000Y-56400000D02*
X92900000Y-56400000D01*
X92900000Y-56400000D02*
X92900000Y-59900000D01*
X83500000Y-66800000D02*
X86900000Y-66800000D01*
X86900000Y-66800000D02*
X86900000Y-70300000D01*
X86900000Y-70300000D02*
X83500000Y-70300000D01*
X83500000Y-70300000D02*
X83500000Y-66800000D01*
X83500000Y-62650000D02*
X86900000Y-62650000D01*
X86900000Y-62650000D02*
X86900000Y-66150000D01*
X86900000Y-66150000D02*
X83500000Y-66150000D01*
X83500000Y-66150000D02*
X83500000Y-62650000D01*
M02*
