G04 #@! TF.FileFunction,Legend,Top*
%FSLAX46Y46*%
G04 Gerber Fmt 4.6, Leading zero omitted, Abs format (unit mm)*
G04 Created by KiCad (PCBNEW 4.0.6) date 12/03/17 23:21:02*
%MOMM*%
%LPD*%
G01*
G04 APERTURE LIST*
%ADD10C,1.000000*%
%ADD11C,0.127000*%
%ADD12C,0.120000*%
%ADD13C,0.150000*%
%ADD14C,0.100000*%
%ADD15C,0.500000*%
%ADD16C,0.200000*%
%ADD17C,0.350000*%
%ADD18C,0.101600*%
G04 APERTURE END LIST*
D10*
D11*
X52100000Y-72200000D02*
X52100000Y-73200000D01*
X52100000Y-73200000D02*
X67200000Y-73200000D01*
X67200000Y-73200000D02*
X67200000Y-59200000D01*
X67200000Y-59200000D02*
X52800000Y-59200000D01*
X52800000Y-59200000D02*
X52800000Y-60200000D01*
X53700000Y-60900000D02*
G75*
G03X52800000Y-60200000I-800000J-100000D01*
G01*
X53700000Y-60900000D02*
X53700000Y-70600000D01*
X52100000Y-72200000D02*
G75*
G03X53700000Y-70600000I0J1600000D01*
G01*
X51340000Y-60800000D02*
G75*
G02X52540000Y-59600000I1200000J0D01*
G01*
X51340000Y-60800000D02*
X51340000Y-70000000D01*
X52440000Y-71300000D02*
G75*
G02X51340000Y-70000000I100000J1200000D01*
G01*
X50440000Y-60800000D02*
G75*
G02X51640000Y-59600000I1200000J0D01*
G01*
X50440000Y-60800000D02*
X50440000Y-70000000D01*
X51540000Y-71300000D02*
G75*
G02X50440000Y-70000000I100000J1200000D01*
G01*
X46640000Y-60800000D02*
G75*
G02X47840000Y-59600000I1200000J0D01*
G01*
X46640000Y-60800000D02*
X46640000Y-70000000D01*
X47740000Y-71300000D02*
G75*
G02X46640000Y-70000000I100000J1200000D01*
G01*
D12*
X59080000Y-51300000D02*
X59080000Y-52500000D01*
X57320000Y-52500000D02*
X57320000Y-51300000D01*
D13*
X111050000Y-84100000D02*
X112050000Y-83100000D01*
X112050000Y-83100000D02*
X112050000Y-80700000D01*
X112050000Y-80700000D02*
X106550000Y-80700000D01*
X106550000Y-80700000D02*
X106550000Y-84100000D01*
X106550000Y-84100000D02*
X111050000Y-84100000D01*
D14*
X111200000Y-88900000D02*
G75*
G03X111200000Y-88900000I-100000J0D01*
G01*
X113000000Y-89400000D02*
G75*
G03X113000000Y-89400000I-50000J0D01*
G01*
X112650000Y-87650000D02*
X112850000Y-87650000D01*
X112000000Y-87650000D02*
X112200000Y-87650000D01*
X111350000Y-87650000D02*
X111550000Y-87650000D01*
X110900000Y-90250000D02*
X110900000Y-87650000D01*
X111550000Y-90250000D02*
X111350000Y-90250000D01*
X112200000Y-90250000D02*
X112000000Y-90250000D01*
X112850000Y-90250000D02*
X112650000Y-90250000D01*
X113300000Y-87600000D02*
X113300000Y-90250000D01*
D15*
X99689981Y-93754000D02*
G75*
G03X99689981Y-93754000I-283981J0D01*
G01*
D13*
X80500000Y-93900000D02*
X98500000Y-93900000D01*
X98500000Y-99900000D02*
X98500000Y-74400000D01*
X80500000Y-99900000D02*
X80500000Y-74400000D01*
X80500000Y-74400000D02*
X98500000Y-74400000D01*
X80500000Y-99900000D02*
X98500000Y-99900000D01*
D12*
X100020000Y-80400000D02*
X100020000Y-79400000D01*
X101380000Y-79400000D02*
X101380000Y-80400000D01*
X68600000Y-99780000D02*
X67600000Y-99780000D01*
X67600000Y-98420000D02*
X68600000Y-98420000D01*
X68960000Y-98180000D02*
X68960000Y-97250000D01*
X68960000Y-95020000D02*
X68960000Y-95950000D01*
X68960000Y-95020000D02*
X66800000Y-95020000D01*
X68960000Y-98180000D02*
X67500000Y-98180000D01*
D16*
X83200000Y-57800000D02*
G75*
G03X83200000Y-57800000I-600000J0D01*
G01*
X81200000Y-56500000D02*
X84000000Y-56500000D01*
X84000000Y-56500000D02*
X84000000Y-59100000D01*
X84000000Y-59100000D02*
X81200000Y-59100000D01*
X81200000Y-59100000D02*
X81200000Y-56500000D01*
X83200000Y-61000000D02*
G75*
G03X83200000Y-61000000I-600000J0D01*
G01*
X84000000Y-62300000D02*
X81200000Y-62300000D01*
X81200000Y-62300000D02*
X81200000Y-59700000D01*
X81200000Y-59700000D02*
X84000000Y-59700000D01*
X84000000Y-59700000D02*
X84000000Y-62300000D01*
X77600000Y-60000000D02*
X74400000Y-60000000D01*
X74400000Y-60000000D02*
X74400000Y-57200000D01*
X74400000Y-57200000D02*
X77600000Y-57200000D01*
X77600000Y-57200000D02*
X77600000Y-60000000D01*
D13*
X77400000Y-59700000D02*
X76500000Y-59700000D01*
D17*
X76000000Y-59600000D02*
X76000000Y-57600000D01*
D16*
X72300000Y-54300000D02*
X72300000Y-52650000D01*
X74450000Y-54300000D02*
X72300000Y-54300000D01*
X79750000Y-54300000D02*
X77700000Y-54300000D01*
X79750000Y-52650000D02*
X79750000Y-54300000D01*
X77841421Y-62700000D02*
G75*
G03X77841421Y-62700000I-141421J0D01*
G01*
X77400000Y-63600000D02*
X77400000Y-66000000D01*
X77400000Y-66000000D02*
X74600000Y-66000000D01*
X74600000Y-66000000D02*
X74600000Y-63200000D01*
X74600000Y-63200000D02*
X77000000Y-63200000D01*
X77000000Y-63200000D02*
X77400000Y-63600000D01*
D12*
X99650000Y-65800000D02*
X99650000Y-63800000D01*
X99650000Y-63800000D02*
X95750000Y-63800000D01*
X99650000Y-65800000D02*
X95750000Y-65800000D01*
X106800000Y-61250000D02*
X108800000Y-61250000D01*
X108800000Y-61250000D02*
X108800000Y-57350000D01*
X106800000Y-61250000D02*
X106800000Y-57350000D01*
X88520000Y-61670000D02*
X88520000Y-65130000D01*
X92280000Y-61670000D02*
X92280000Y-65130000D01*
X90600000Y-51700000D02*
G75*
G03X90600000Y-51700000I-700000J0D01*
G01*
X90900000Y-68200000D02*
G75*
G03X90900000Y-68200000I-700000J0D01*
G01*
X97120000Y-55510000D02*
X98880000Y-55510000D01*
X119450000Y-64100000D02*
X116850000Y-64100000D01*
X115550000Y-59300000D02*
X119450000Y-59300000D01*
D16*
X103600000Y-60800000D02*
G75*
G03X103600000Y-60800000I-600000J0D01*
G01*
X104400000Y-62100000D02*
X101600000Y-62100000D01*
X101600000Y-62100000D02*
X101600000Y-59500000D01*
X101600000Y-59500000D02*
X104400000Y-59500000D01*
X104400000Y-59500000D02*
X104400000Y-62100000D01*
D13*
X66000000Y-90250000D02*
G75*
G03X66000000Y-90250000I-500000J0D01*
G01*
X67500000Y-90500000D02*
X67500000Y-91250000D01*
X67500000Y-91250000D02*
X51500000Y-91250000D01*
X51500000Y-91250000D02*
X51500000Y-76250000D01*
X51500000Y-76250000D02*
X67500000Y-76250000D01*
X67500000Y-76250000D02*
X67500000Y-90500000D01*
D12*
X100750000Y-56600000D02*
X100750000Y-58600000D01*
X100750000Y-58600000D02*
X104650000Y-58600000D01*
X100750000Y-56600000D02*
X104650000Y-56600000D01*
X104800000Y-62550000D02*
X102800000Y-62550000D01*
X102800000Y-62550000D02*
X102800000Y-66450000D01*
X104800000Y-62550000D02*
X104800000Y-66450000D01*
X66620000Y-93700000D02*
X66620000Y-92500000D01*
X68380000Y-92500000D02*
X68380000Y-93700000D01*
X95920000Y-58400000D02*
X95920000Y-57200000D01*
X97680000Y-57200000D02*
X97680000Y-58400000D01*
X98080000Y-61200000D02*
X98080000Y-62400000D01*
X96320000Y-62400000D02*
X96320000Y-61200000D01*
X93520000Y-61400000D02*
X93520000Y-60200000D01*
X95280000Y-60200000D02*
X95280000Y-61400000D01*
X100320000Y-92900000D02*
X100320000Y-91700000D01*
X102080000Y-91700000D02*
X102080000Y-92900000D01*
X68920000Y-93700000D02*
X68920000Y-92500000D01*
X70680000Y-92500000D02*
X70680000Y-93700000D01*
X57800000Y-56580000D02*
X56600000Y-56580000D01*
X56600000Y-54820000D02*
X57800000Y-54820000D01*
X71200000Y-86880000D02*
X70000000Y-86880000D01*
X70000000Y-85120000D02*
X71200000Y-85120000D01*
X70680000Y-88900000D02*
X70680000Y-90100000D01*
X68920000Y-90100000D02*
X68920000Y-88900000D01*
X114220000Y-89500000D02*
X114220000Y-88300000D01*
X115980000Y-88300000D02*
X115980000Y-89500000D01*
X102520000Y-92900000D02*
X102520000Y-91700000D01*
X104280000Y-91700000D02*
X104280000Y-92900000D01*
X84700000Y-55880000D02*
X83500000Y-55880000D01*
X83500000Y-54120000D02*
X84700000Y-54120000D01*
X121720000Y-61250000D02*
X121720000Y-60050000D01*
X123480000Y-60050000D02*
X123480000Y-61250000D01*
X115080000Y-61600000D02*
X115080000Y-62800000D01*
X113320000Y-62800000D02*
X113320000Y-61600000D01*
X71000000Y-60720000D02*
X72200000Y-60720000D01*
X72200000Y-62480000D02*
X71000000Y-62480000D01*
X71000000Y-58520000D02*
X72200000Y-58520000D01*
X72200000Y-60280000D02*
X71000000Y-60280000D01*
X107200000Y-92800000D02*
X107200000Y-94900000D01*
X105400000Y-94900000D02*
X105400000Y-92800000D01*
X107200000Y-94900000D02*
X105400000Y-94900000D01*
X107400000Y-74300000D02*
X107400000Y-72200000D01*
X109200000Y-72200000D02*
X109200000Y-74300000D01*
X107400000Y-72200000D02*
X109200000Y-72200000D01*
X111400000Y-74300000D02*
X111400000Y-72200000D01*
X113200000Y-72200000D02*
X113200000Y-74300000D01*
X111400000Y-72200000D02*
X113200000Y-72200000D01*
X109400000Y-74300000D02*
X109400000Y-72200000D01*
X111200000Y-72200000D02*
X111200000Y-74300000D01*
X109400000Y-72200000D02*
X111200000Y-72200000D01*
X105400000Y-74300000D02*
X105400000Y-72200000D01*
X107200000Y-72200000D02*
X107200000Y-74300000D01*
X105400000Y-72200000D02*
X107200000Y-72200000D01*
X75400000Y-85000000D02*
X75400000Y-82900000D01*
X77200000Y-82900000D02*
X77200000Y-85000000D01*
X75400000Y-82900000D02*
X77200000Y-82900000D01*
X93500000Y-54400000D02*
X93500000Y-52300000D01*
X95300000Y-52300000D02*
X95300000Y-54400000D01*
X93500000Y-52300000D02*
X95300000Y-52300000D01*
X71200000Y-83300000D02*
X69100000Y-83300000D01*
X69100000Y-81500000D02*
X71200000Y-81500000D01*
X69100000Y-83300000D02*
X69100000Y-81500000D01*
X71400000Y-67300000D02*
X69300000Y-67300000D01*
X69300000Y-65500000D02*
X71400000Y-65500000D01*
X69300000Y-67300000D02*
X69300000Y-65500000D01*
X71400000Y-69500000D02*
X69300000Y-69500000D01*
X69300000Y-67700000D02*
X71400000Y-67700000D01*
X69300000Y-69500000D02*
X69300000Y-67700000D01*
X108920000Y-62100000D02*
X108920000Y-61100000D01*
X110280000Y-61100000D02*
X110280000Y-62100000D01*
X69880000Y-51400000D02*
X69880000Y-52400000D01*
X68520000Y-52400000D02*
X68520000Y-51400000D01*
X69900000Y-83520000D02*
X70900000Y-83520000D01*
X70900000Y-84880000D02*
X69900000Y-84880000D01*
X69700000Y-76320000D02*
X70700000Y-76320000D01*
X70700000Y-77680000D02*
X69700000Y-77680000D01*
X69700000Y-77820000D02*
X70700000Y-77820000D01*
X70700000Y-79180000D02*
X69700000Y-79180000D01*
X103950000Y-50920000D02*
X104950000Y-50920000D01*
X104950000Y-52280000D02*
X103950000Y-52280000D01*
X98520000Y-62100000D02*
X98520000Y-61100000D01*
X99880000Y-61100000D02*
X99880000Y-62100000D01*
X95080000Y-56900000D02*
X95080000Y-57900000D01*
X93720000Y-57900000D02*
X93720000Y-56900000D01*
X87520000Y-54700000D02*
X87520000Y-53700000D01*
X88880000Y-53700000D02*
X88880000Y-54700000D01*
X88880000Y-56900000D02*
X88880000Y-57900000D01*
X87520000Y-57900000D02*
X87520000Y-56900000D01*
X106980000Y-76500000D02*
X106980000Y-77500000D01*
X105620000Y-77500000D02*
X105620000Y-76500000D01*
X110980000Y-76500000D02*
X110980000Y-77500000D01*
X109620000Y-77500000D02*
X109620000Y-76500000D01*
X112980000Y-76500000D02*
X112980000Y-77500000D01*
X111620000Y-77500000D02*
X111620000Y-76500000D01*
X108980000Y-76500000D02*
X108980000Y-77500000D01*
X107620000Y-77500000D02*
X107620000Y-76500000D01*
X105620000Y-90400000D02*
X105620000Y-89400000D01*
X106980000Y-89400000D02*
X106980000Y-90400000D01*
X77080000Y-87000000D02*
X77080000Y-88000000D01*
X75720000Y-88000000D02*
X75720000Y-87000000D01*
X113820000Y-85600000D02*
X113820000Y-84600000D01*
X115180000Y-84600000D02*
X115180000Y-85600000D01*
X77500000Y-90480000D02*
X76500000Y-90480000D01*
X76500000Y-89120000D02*
X77500000Y-89120000D01*
X83800000Y-52420000D02*
X84800000Y-52420000D01*
X84800000Y-53780000D02*
X83800000Y-53780000D01*
X98520000Y-58300000D02*
X98520000Y-57300000D01*
X99880000Y-57300000D02*
X99880000Y-58300000D01*
X98700000Y-52080000D02*
X97700000Y-52080000D01*
X97700000Y-50720000D02*
X98700000Y-50720000D01*
X100520000Y-64900000D02*
X100520000Y-63900000D01*
X101880000Y-63900000D02*
X101880000Y-64900000D01*
X111080000Y-63950000D02*
X111080000Y-64950000D01*
X109720000Y-64950000D02*
X109720000Y-63950000D01*
X70500000Y-63520000D02*
X71500000Y-63520000D01*
X71500000Y-64880000D02*
X70500000Y-64880000D01*
X77900000Y-69080000D02*
X76900000Y-69080000D01*
X76900000Y-67720000D02*
X77900000Y-67720000D01*
X73700000Y-67720000D02*
X74700000Y-67720000D01*
X74700000Y-69080000D02*
X73700000Y-69080000D01*
X81900000Y-65880000D02*
X80900000Y-65880000D01*
X80900000Y-64520000D02*
X81900000Y-64520000D01*
X80900000Y-67120000D02*
X81900000Y-67120000D01*
X81900000Y-68480000D02*
X80900000Y-68480000D01*
X64920000Y-52760000D02*
X65850000Y-52760000D01*
X68080000Y-52760000D02*
X67150000Y-52760000D01*
X68080000Y-52760000D02*
X68080000Y-50600000D01*
X64920000Y-52760000D02*
X64920000Y-51300000D01*
X103360000Y-55780000D02*
X103360000Y-54850000D01*
X103360000Y-52620000D02*
X103360000Y-53550000D01*
X103360000Y-52620000D02*
X101200000Y-52620000D01*
X103360000Y-55780000D02*
X101900000Y-55780000D01*
X107560000Y-55780000D02*
X107560000Y-54850000D01*
X107560000Y-52620000D02*
X107560000Y-53550000D01*
X107560000Y-52620000D02*
X105400000Y-52620000D01*
X107560000Y-55780000D02*
X106100000Y-55780000D01*
X113960000Y-67180000D02*
X113960000Y-66250000D01*
X113960000Y-64020000D02*
X113960000Y-64950000D01*
X113960000Y-64020000D02*
X111800000Y-64020000D01*
X113960000Y-67180000D02*
X112500000Y-67180000D01*
X90440000Y-52420000D02*
X90440000Y-53350000D01*
X90440000Y-55580000D02*
X90440000Y-54650000D01*
X90440000Y-55580000D02*
X92600000Y-55580000D01*
X90440000Y-52420000D02*
X91900000Y-52420000D01*
X90440000Y-56570000D02*
X90440000Y-57500000D01*
X90440000Y-59730000D02*
X90440000Y-58800000D01*
X90440000Y-59730000D02*
X92600000Y-59730000D01*
X90440000Y-56570000D02*
X91900000Y-56570000D01*
X85960000Y-70130000D02*
X85960000Y-69200000D01*
X85960000Y-66970000D02*
X85960000Y-67900000D01*
X85960000Y-66970000D02*
X83800000Y-66970000D01*
X85960000Y-70130000D02*
X84500000Y-70130000D01*
X85960000Y-65980000D02*
X85960000Y-65050000D01*
X85960000Y-62820000D02*
X85960000Y-63750000D01*
X85960000Y-62820000D02*
X83800000Y-62820000D01*
X85960000Y-65980000D02*
X84500000Y-65980000D01*
D18*
X63242548Y-62612738D02*
X62036048Y-62612738D01*
X62897833Y-62210571D01*
X62036048Y-61808405D01*
X63242548Y-61808405D01*
X62438214Y-60716810D02*
X63242548Y-60716810D01*
X61978595Y-61004072D02*
X62840381Y-61291333D01*
X62840381Y-60544453D01*
X62036048Y-59855024D02*
X62036048Y-59740119D01*
X62093500Y-59625214D01*
X62150952Y-59567762D01*
X62265857Y-59510309D01*
X62495667Y-59452857D01*
X62782929Y-59452857D01*
X63012738Y-59510309D01*
X63127643Y-59567762D01*
X63185095Y-59625214D01*
X63242548Y-59740119D01*
X63242548Y-59855024D01*
X63185095Y-59969928D01*
X63127643Y-60027381D01*
X63012738Y-60084833D01*
X62782929Y-60142285D01*
X62495667Y-60142285D01*
X62265857Y-60084833D01*
X62150952Y-60027381D01*
X62093500Y-59969928D01*
X62036048Y-59855024D01*
X63242548Y-58303809D02*
X63242548Y-58993237D01*
X63242548Y-58648523D02*
X62036048Y-58648523D01*
X62208405Y-58763428D01*
X62323310Y-58878333D01*
X62380762Y-58993237D01*
D13*
X67929429Y-63880857D02*
X66405429Y-63880857D01*
X67494000Y-63372857D01*
X66405429Y-62864857D01*
X67929429Y-62864857D01*
X67929429Y-62139143D02*
X66405429Y-62139143D01*
X67784286Y-60542572D02*
X67856857Y-60615143D01*
X67929429Y-60832857D01*
X67929429Y-60978000D01*
X67856857Y-61195715D01*
X67711714Y-61340857D01*
X67566571Y-61413429D01*
X67276286Y-61486000D01*
X67058571Y-61486000D01*
X66768286Y-61413429D01*
X66623143Y-61340857D01*
X66478000Y-61195715D01*
X66405429Y-60978000D01*
X66405429Y-60832857D01*
X66478000Y-60615143D01*
X66550571Y-60542572D01*
X67929429Y-59018572D02*
X67203714Y-59526572D01*
X67929429Y-59889429D02*
X66405429Y-59889429D01*
X66405429Y-59308857D01*
X66478000Y-59163715D01*
X66550571Y-59091143D01*
X66695714Y-59018572D01*
X66913429Y-59018572D01*
X67058571Y-59091143D01*
X67131143Y-59163715D01*
X67203714Y-59308857D01*
X67203714Y-59889429D01*
X66405429Y-58075143D02*
X66405429Y-57784857D01*
X66478000Y-57639715D01*
X66623143Y-57494572D01*
X66913429Y-57422000D01*
X67421429Y-57422000D01*
X67711714Y-57494572D01*
X67856857Y-57639715D01*
X67929429Y-57784857D01*
X67929429Y-58075143D01*
X67856857Y-58220286D01*
X67711714Y-58365429D01*
X67421429Y-58438000D01*
X66913429Y-58438000D01*
X66623143Y-58365429D01*
X66478000Y-58220286D01*
X66405429Y-58075143D01*
X67856857Y-56841429D02*
X67929429Y-56623715D01*
X67929429Y-56260858D01*
X67856857Y-56115715D01*
X67784286Y-56043144D01*
X67639143Y-55970572D01*
X67494000Y-55970572D01*
X67348857Y-56043144D01*
X67276286Y-56115715D01*
X67203714Y-56260858D01*
X67131143Y-56551144D01*
X67058571Y-56696286D01*
X66986000Y-56768858D01*
X66840857Y-56841429D01*
X66695714Y-56841429D01*
X66550571Y-56768858D01*
X66478000Y-56696286D01*
X66405429Y-56551144D01*
X66405429Y-56188286D01*
X66478000Y-55970572D01*
X67929429Y-55317429D02*
X66405429Y-55317429D01*
X66405429Y-54954572D01*
X66478000Y-54736857D01*
X66623143Y-54591715D01*
X66768286Y-54519143D01*
X67058571Y-54446572D01*
X67276286Y-54446572D01*
X67566571Y-54519143D01*
X67711714Y-54591715D01*
X67856857Y-54736857D01*
X67929429Y-54954572D01*
X67929429Y-55317429D01*
X54657143Y-57819047D02*
X54704762Y-57866666D01*
X54752381Y-58009523D01*
X54752381Y-58104761D01*
X54704762Y-58247619D01*
X54609524Y-58342857D01*
X54514286Y-58390476D01*
X54323810Y-58438095D01*
X54180952Y-58438095D01*
X53990476Y-58390476D01*
X53895238Y-58342857D01*
X53800000Y-58247619D01*
X53752381Y-58104761D01*
X53752381Y-58009523D01*
X53800000Y-57866666D01*
X53847619Y-57819047D01*
X54085714Y-56961904D02*
X54752381Y-56961904D01*
X53704762Y-57200000D02*
X54419048Y-57438095D01*
X54419048Y-56819047D01*
X53752381Y-56247619D02*
X53752381Y-56152380D01*
X53800000Y-56057142D01*
X53847619Y-56009523D01*
X53942857Y-55961904D01*
X54133333Y-55914285D01*
X54371429Y-55914285D01*
X54561905Y-55961904D01*
X54657143Y-56009523D01*
X54704762Y-56057142D01*
X54752381Y-56152380D01*
X54752381Y-56247619D01*
X54704762Y-56342857D01*
X54657143Y-56390476D01*
X54561905Y-56438095D01*
X54371429Y-56485714D01*
X54133333Y-56485714D01*
X53942857Y-56438095D01*
X53847619Y-56390476D01*
X53800000Y-56342857D01*
X53752381Y-56247619D01*
X54752381Y-54961904D02*
X54752381Y-55533333D01*
X54752381Y-55247619D02*
X53752381Y-55247619D01*
X53895238Y-55342857D01*
X53990476Y-55438095D01*
X54038095Y-55533333D01*
X112592857Y-84457143D02*
X113564286Y-84457143D01*
X113678571Y-84400000D01*
X113735714Y-84342857D01*
X113792857Y-84228571D01*
X113792857Y-84000000D01*
X113735714Y-83885714D01*
X113678571Y-83828571D01*
X113564286Y-83771428D01*
X112592857Y-83771428D01*
X113792857Y-82571428D02*
X113792857Y-83257143D01*
X113792857Y-82914285D02*
X112592857Y-82914285D01*
X112764286Y-83028571D01*
X112878571Y-83142857D01*
X112935714Y-83257143D01*
X112592857Y-81828571D02*
X112592857Y-81714286D01*
X112650000Y-81600000D01*
X112707143Y-81542857D01*
X112821429Y-81485714D01*
X113050000Y-81428571D01*
X113335714Y-81428571D01*
X113564286Y-81485714D01*
X113678571Y-81542857D01*
X113735714Y-81600000D01*
X113792857Y-81714286D01*
X113792857Y-81828571D01*
X113735714Y-81942857D01*
X113678571Y-82000000D01*
X113564286Y-82057143D01*
X113335714Y-82114286D01*
X113050000Y-82114286D01*
X112821429Y-82057143D01*
X112707143Y-82000000D01*
X112650000Y-81942857D01*
X112592857Y-81828571D01*
X112592857Y-81028571D02*
X112592857Y-80285714D01*
X113050000Y-80685714D01*
X113050000Y-80514286D01*
X113107143Y-80400000D01*
X113164286Y-80342857D01*
X113278571Y-80285714D01*
X113564286Y-80285714D01*
X113678571Y-80342857D01*
X113735714Y-80400000D01*
X113792857Y-80514286D01*
X113792857Y-80857143D01*
X113735714Y-80971429D01*
X113678571Y-81028571D01*
X109452381Y-90614286D02*
X110261905Y-90614286D01*
X110357143Y-90566667D01*
X110404762Y-90519048D01*
X110452381Y-90423810D01*
X110452381Y-90233333D01*
X110404762Y-90138095D01*
X110357143Y-90090476D01*
X110261905Y-90042857D01*
X109452381Y-90042857D01*
X110452381Y-89042857D02*
X110452381Y-89614286D01*
X110452381Y-89328572D02*
X109452381Y-89328572D01*
X109595238Y-89423810D01*
X109690476Y-89519048D01*
X109738095Y-89614286D01*
X109452381Y-88423810D02*
X109452381Y-88328571D01*
X109500000Y-88233333D01*
X109547619Y-88185714D01*
X109642857Y-88138095D01*
X109833333Y-88090476D01*
X110071429Y-88090476D01*
X110261905Y-88138095D01*
X110357143Y-88185714D01*
X110404762Y-88233333D01*
X110452381Y-88328571D01*
X110452381Y-88423810D01*
X110404762Y-88519048D01*
X110357143Y-88566667D01*
X110261905Y-88614286D01*
X110071429Y-88661905D01*
X109833333Y-88661905D01*
X109642857Y-88614286D01*
X109547619Y-88566667D01*
X109500000Y-88519048D01*
X109452381Y-88423810D01*
X109547619Y-87709524D02*
X109500000Y-87661905D01*
X109452381Y-87566667D01*
X109452381Y-87328571D01*
X109500000Y-87233333D01*
X109547619Y-87185714D01*
X109642857Y-87138095D01*
X109738095Y-87138095D01*
X109880952Y-87185714D01*
X110452381Y-87757143D01*
X110452381Y-87138095D01*
X78185714Y-72352381D02*
X78757143Y-72352381D01*
X78471428Y-73352381D02*
X78471428Y-72352381D01*
X79090476Y-73352381D02*
X79090476Y-72352381D01*
X79471429Y-72352381D01*
X79566667Y-72400000D01*
X79614286Y-72447619D01*
X79661905Y-72542857D01*
X79661905Y-72685714D01*
X79614286Y-72780952D01*
X79566667Y-72828571D01*
X79471429Y-72876190D01*
X79090476Y-72876190D01*
X80566667Y-72352381D02*
X80090476Y-72352381D01*
X80042857Y-72828571D01*
X80090476Y-72780952D01*
X80185714Y-72733333D01*
X80423810Y-72733333D01*
X80519048Y-72780952D01*
X80566667Y-72828571D01*
X80614286Y-72923810D01*
X80614286Y-73161905D01*
X80566667Y-73257143D01*
X80519048Y-73304762D01*
X80423810Y-73352381D01*
X80185714Y-73352381D01*
X80090476Y-73304762D01*
X80042857Y-73257143D01*
X81233333Y-72352381D02*
X81328572Y-72352381D01*
X81423810Y-72400000D01*
X81471429Y-72447619D01*
X81519048Y-72542857D01*
X81566667Y-72733333D01*
X81566667Y-72971429D01*
X81519048Y-73161905D01*
X81471429Y-73257143D01*
X81423810Y-73304762D01*
X81328572Y-73352381D01*
X81233333Y-73352381D01*
X81138095Y-73304762D01*
X81090476Y-73257143D01*
X81042857Y-73161905D01*
X80995238Y-72971429D01*
X80995238Y-72733333D01*
X81042857Y-72542857D01*
X81090476Y-72447619D01*
X81138095Y-72400000D01*
X81233333Y-72352381D01*
X81947619Y-72447619D02*
X81995238Y-72400000D01*
X82090476Y-72352381D01*
X82328572Y-72352381D01*
X82423810Y-72400000D01*
X82471429Y-72447619D01*
X82519048Y-72542857D01*
X82519048Y-72638095D01*
X82471429Y-72780952D01*
X81900000Y-73352381D01*
X82519048Y-73352381D01*
X76228714Y-95619381D02*
X76228714Y-96428905D01*
X76276333Y-96524143D01*
X76323952Y-96571762D01*
X76419190Y-96619381D01*
X76609667Y-96619381D01*
X76704905Y-96571762D01*
X76752524Y-96524143D01*
X76800143Y-96428905D01*
X76800143Y-95619381D01*
X77800143Y-96619381D02*
X77228714Y-96619381D01*
X77514428Y-96619381D02*
X77514428Y-95619381D01*
X77419190Y-95762238D01*
X77323952Y-95857476D01*
X77228714Y-95905095D01*
X78419190Y-95619381D02*
X78514429Y-95619381D01*
X78609667Y-95667000D01*
X78657286Y-95714619D01*
X78704905Y-95809857D01*
X78752524Y-96000333D01*
X78752524Y-96238429D01*
X78704905Y-96428905D01*
X78657286Y-96524143D01*
X78609667Y-96571762D01*
X78514429Y-96619381D01*
X78419190Y-96619381D01*
X78323952Y-96571762D01*
X78276333Y-96524143D01*
X78228714Y-96428905D01*
X78181095Y-96238429D01*
X78181095Y-96000333D01*
X78228714Y-95809857D01*
X78276333Y-95714619D01*
X78323952Y-95667000D01*
X78419190Y-95619381D01*
X79704905Y-96619381D02*
X79133476Y-96619381D01*
X79419190Y-96619381D02*
X79419190Y-95619381D01*
X79323952Y-95762238D01*
X79228714Y-95857476D01*
X79133476Y-95905095D01*
X82570571Y-92832430D02*
X82570571Y-92499096D01*
X83094381Y-92356239D02*
X83094381Y-92832430D01*
X82094381Y-92832430D01*
X82094381Y-92356239D01*
X83046762Y-91975287D02*
X83094381Y-91880049D01*
X83094381Y-91689573D01*
X83046762Y-91594334D01*
X82951524Y-91546715D01*
X82903905Y-91546715D01*
X82808667Y-91594334D01*
X82761048Y-91689573D01*
X82761048Y-91832430D01*
X82713429Y-91927668D01*
X82618190Y-91975287D01*
X82570571Y-91975287D01*
X82475333Y-91927668D01*
X82427714Y-91832430D01*
X82427714Y-91689573D01*
X82475333Y-91594334D01*
X82427714Y-91118144D02*
X83427714Y-91118144D01*
X82475333Y-91118144D02*
X82427714Y-91022906D01*
X82427714Y-90832429D01*
X82475333Y-90737191D01*
X82522952Y-90689572D01*
X82618190Y-90641953D01*
X82903905Y-90641953D01*
X82999143Y-90689572D01*
X83046762Y-90737191D01*
X83094381Y-90832429D01*
X83094381Y-91022906D01*
X83046762Y-91118144D01*
X83094381Y-90213382D02*
X82427714Y-90213382D01*
X82618190Y-90213382D02*
X82522952Y-90165763D01*
X82475333Y-90118144D01*
X82427714Y-90022906D01*
X82427714Y-89927667D01*
X83046762Y-89213381D02*
X83094381Y-89308619D01*
X83094381Y-89499096D01*
X83046762Y-89594334D01*
X82951524Y-89641953D01*
X82570571Y-89641953D01*
X82475333Y-89594334D01*
X82427714Y-89499096D01*
X82427714Y-89308619D01*
X82475333Y-89213381D01*
X82570571Y-89165762D01*
X82665810Y-89165762D01*
X82761048Y-89641953D01*
X83046762Y-88784810D02*
X83094381Y-88689572D01*
X83094381Y-88499096D01*
X83046762Y-88403857D01*
X82951524Y-88356238D01*
X82903905Y-88356238D01*
X82808667Y-88403857D01*
X82761048Y-88499096D01*
X82761048Y-88641953D01*
X82713429Y-88737191D01*
X82618190Y-88784810D01*
X82570571Y-88784810D01*
X82475333Y-88737191D01*
X82427714Y-88641953D01*
X82427714Y-88499096D01*
X82475333Y-88403857D01*
X83046762Y-87975286D02*
X83094381Y-87880048D01*
X83094381Y-87689572D01*
X83046762Y-87594333D01*
X82951524Y-87546714D01*
X82903905Y-87546714D01*
X82808667Y-87594333D01*
X82761048Y-87689572D01*
X82761048Y-87832429D01*
X82713429Y-87927667D01*
X82618190Y-87975286D01*
X82570571Y-87975286D01*
X82475333Y-87927667D01*
X82427714Y-87832429D01*
X82427714Y-87689572D01*
X82475333Y-87594333D01*
X83094381Y-87118143D02*
X82427714Y-87118143D01*
X82094381Y-87118143D02*
X82142000Y-87165762D01*
X82189619Y-87118143D01*
X82142000Y-87070524D01*
X82094381Y-87118143D01*
X82189619Y-87118143D01*
X82427714Y-86784810D02*
X82427714Y-86403858D01*
X83094381Y-86641953D02*
X82237238Y-86641953D01*
X82142000Y-86594334D01*
X82094381Y-86499096D01*
X82094381Y-86403858D01*
X83046762Y-85356238D02*
X83094381Y-85213381D01*
X83094381Y-84975285D01*
X83046762Y-84880047D01*
X82999143Y-84832428D01*
X82903905Y-84784809D01*
X82808667Y-84784809D01*
X82713429Y-84832428D01*
X82665810Y-84880047D01*
X82618190Y-84975285D01*
X82570571Y-85165762D01*
X82522952Y-85261000D01*
X82475333Y-85308619D01*
X82380095Y-85356238D01*
X82284857Y-85356238D01*
X82189619Y-85308619D01*
X82142000Y-85261000D01*
X82094381Y-85165762D01*
X82094381Y-84927666D01*
X82142000Y-84784809D01*
X82427714Y-84451476D02*
X83094381Y-84213381D01*
X82427714Y-83975285D02*
X83094381Y-84213381D01*
X83332476Y-84308619D01*
X83380095Y-84356238D01*
X83427714Y-84451476D01*
X83046762Y-83641952D02*
X83094381Y-83546714D01*
X83094381Y-83356238D01*
X83046762Y-83260999D01*
X82951524Y-83213380D01*
X82903905Y-83213380D01*
X82808667Y-83260999D01*
X82761048Y-83356238D01*
X82761048Y-83499095D01*
X82713429Y-83594333D01*
X82618190Y-83641952D01*
X82570571Y-83641952D01*
X82475333Y-83594333D01*
X82427714Y-83499095D01*
X82427714Y-83356238D01*
X82475333Y-83260999D01*
X82427714Y-82927666D02*
X82427714Y-82546714D01*
X82094381Y-82784809D02*
X82951524Y-82784809D01*
X83046762Y-82737190D01*
X83094381Y-82641952D01*
X83094381Y-82546714D01*
X83046762Y-81832427D02*
X83094381Y-81927665D01*
X83094381Y-82118142D01*
X83046762Y-82213380D01*
X82951524Y-82260999D01*
X82570571Y-82260999D01*
X82475333Y-82213380D01*
X82427714Y-82118142D01*
X82427714Y-81927665D01*
X82475333Y-81832427D01*
X82570571Y-81784808D01*
X82665810Y-81784808D01*
X82761048Y-82260999D01*
X83094381Y-81356237D02*
X82427714Y-81356237D01*
X82522952Y-81356237D02*
X82475333Y-81308618D01*
X82427714Y-81213380D01*
X82427714Y-81070522D01*
X82475333Y-80975284D01*
X82570571Y-80927665D01*
X83094381Y-80927665D01*
X82570571Y-80927665D02*
X82475333Y-80880046D01*
X82427714Y-80784808D01*
X82427714Y-80641951D01*
X82475333Y-80546713D01*
X82570571Y-80499094D01*
X83094381Y-80499094D01*
X83046762Y-80070523D02*
X83094381Y-79975285D01*
X83094381Y-79784809D01*
X83046762Y-79689570D01*
X82951524Y-79641951D01*
X82903905Y-79641951D01*
X82808667Y-79689570D01*
X82761048Y-79784809D01*
X82761048Y-79927666D01*
X82713429Y-80022904D01*
X82618190Y-80070523D01*
X82570571Y-80070523D01*
X82475333Y-80022904D01*
X82427714Y-79927666D01*
X82427714Y-79784809D01*
X82475333Y-79689570D01*
X84221571Y-92856381D02*
X84221571Y-92523047D01*
X84745381Y-92380190D02*
X84745381Y-92856381D01*
X83745381Y-92856381D01*
X83745381Y-92380190D01*
X84697762Y-91999238D02*
X84745381Y-91856381D01*
X84745381Y-91618285D01*
X84697762Y-91523047D01*
X84650143Y-91475428D01*
X84554905Y-91427809D01*
X84459667Y-91427809D01*
X84364429Y-91475428D01*
X84316810Y-91523047D01*
X84269190Y-91618285D01*
X84221571Y-91808762D01*
X84173952Y-91904000D01*
X84126333Y-91951619D01*
X84031095Y-91999238D01*
X83935857Y-91999238D01*
X83840619Y-91951619D01*
X83793000Y-91904000D01*
X83745381Y-91808762D01*
X83745381Y-91570666D01*
X83793000Y-91427809D01*
X84745381Y-90999238D02*
X83745381Y-90999238D01*
X83745381Y-90618285D01*
X83793000Y-90523047D01*
X83840619Y-90475428D01*
X83935857Y-90427809D01*
X84078714Y-90427809D01*
X84173952Y-90475428D01*
X84221571Y-90523047D01*
X84269190Y-90618285D01*
X84269190Y-90999238D01*
X83745381Y-90094476D02*
X83745381Y-89475428D01*
X84126333Y-89808762D01*
X84126333Y-89665904D01*
X84173952Y-89570666D01*
X84221571Y-89523047D01*
X84316810Y-89475428D01*
X84554905Y-89475428D01*
X84650143Y-89523047D01*
X84697762Y-89570666D01*
X84745381Y-89665904D01*
X84745381Y-89951619D01*
X84697762Y-90046857D01*
X84650143Y-90094476D01*
X83840619Y-89094476D02*
X83793000Y-89046857D01*
X83745381Y-88951619D01*
X83745381Y-88713523D01*
X83793000Y-88618285D01*
X83840619Y-88570666D01*
X83935857Y-88523047D01*
X84031095Y-88523047D01*
X84173952Y-88570666D01*
X84745381Y-89142095D01*
X84745381Y-88523047D01*
X84364429Y-88094476D02*
X84364429Y-87332571D01*
X83745381Y-86951619D02*
X84745381Y-86713524D01*
X84031095Y-86523047D01*
X84745381Y-86332571D01*
X83745381Y-86094476D01*
X84745381Y-85142095D02*
X84269190Y-85475429D01*
X84745381Y-85713524D02*
X83745381Y-85713524D01*
X83745381Y-85332571D01*
X83793000Y-85237333D01*
X83840619Y-85189714D01*
X83935857Y-85142095D01*
X84078714Y-85142095D01*
X84173952Y-85189714D01*
X84221571Y-85237333D01*
X84269190Y-85332571D01*
X84269190Y-85713524D01*
X83745381Y-84523048D02*
X83745381Y-84332571D01*
X83793000Y-84237333D01*
X83888238Y-84142095D01*
X84078714Y-84094476D01*
X84412048Y-84094476D01*
X84602524Y-84142095D01*
X84697762Y-84237333D01*
X84745381Y-84332571D01*
X84745381Y-84523048D01*
X84697762Y-84618286D01*
X84602524Y-84713524D01*
X84412048Y-84761143D01*
X84078714Y-84761143D01*
X83888238Y-84713524D01*
X83793000Y-84618286D01*
X83745381Y-84523048D01*
X83745381Y-83475429D02*
X83745381Y-83284952D01*
X83793000Y-83189714D01*
X83888238Y-83094476D01*
X84078714Y-83046857D01*
X84412048Y-83046857D01*
X84602524Y-83094476D01*
X84697762Y-83189714D01*
X84745381Y-83284952D01*
X84745381Y-83475429D01*
X84697762Y-83570667D01*
X84602524Y-83665905D01*
X84412048Y-83713524D01*
X84078714Y-83713524D01*
X83888238Y-83665905D01*
X83793000Y-83570667D01*
X83745381Y-83475429D01*
X84745381Y-82618286D02*
X83745381Y-82618286D01*
X84459667Y-82284952D01*
X83745381Y-81951619D01*
X84745381Y-81951619D01*
X102752381Y-83119047D02*
X102276190Y-83452381D01*
X102752381Y-83690476D02*
X101752381Y-83690476D01*
X101752381Y-83309523D01*
X101800000Y-83214285D01*
X101847619Y-83166666D01*
X101942857Y-83119047D01*
X102085714Y-83119047D01*
X102180952Y-83166666D01*
X102228571Y-83214285D01*
X102276190Y-83309523D01*
X102276190Y-83690476D01*
X102752381Y-82166666D02*
X102752381Y-82738095D01*
X102752381Y-82452381D02*
X101752381Y-82452381D01*
X101895238Y-82547619D01*
X101990476Y-82642857D01*
X102038095Y-82738095D01*
X101752381Y-81547619D02*
X101752381Y-81452380D01*
X101800000Y-81357142D01*
X101847619Y-81309523D01*
X101942857Y-81261904D01*
X102133333Y-81214285D01*
X102371429Y-81214285D01*
X102561905Y-81261904D01*
X102657143Y-81309523D01*
X102704762Y-81357142D01*
X102752381Y-81452380D01*
X102752381Y-81547619D01*
X102704762Y-81642857D01*
X102657143Y-81690476D01*
X102561905Y-81738095D01*
X102371429Y-81785714D01*
X102133333Y-81785714D01*
X101942857Y-81738095D01*
X101847619Y-81690476D01*
X101800000Y-81642857D01*
X101752381Y-81547619D01*
X102085714Y-80357142D02*
X102752381Y-80357142D01*
X101704762Y-80595238D02*
X102419048Y-80833333D01*
X102419048Y-80214285D01*
X72852381Y-99019047D02*
X72376190Y-99352381D01*
X72852381Y-99590476D02*
X71852381Y-99590476D01*
X71852381Y-99209523D01*
X71900000Y-99114285D01*
X71947619Y-99066666D01*
X72042857Y-99019047D01*
X72185714Y-99019047D01*
X72280952Y-99066666D01*
X72328571Y-99114285D01*
X72376190Y-99209523D01*
X72376190Y-99590476D01*
X71852381Y-98685714D02*
X71852381Y-98066666D01*
X72233333Y-98400000D01*
X72233333Y-98257142D01*
X72280952Y-98161904D01*
X72328571Y-98114285D01*
X72423810Y-98066666D01*
X72661905Y-98066666D01*
X72757143Y-98114285D01*
X72804762Y-98161904D01*
X72852381Y-98257142D01*
X72852381Y-98542857D01*
X72804762Y-98638095D01*
X72757143Y-98685714D01*
X71852381Y-97447619D02*
X71852381Y-97352380D01*
X71900000Y-97257142D01*
X71947619Y-97209523D01*
X72042857Y-97161904D01*
X72233333Y-97114285D01*
X72471429Y-97114285D01*
X72661905Y-97161904D01*
X72757143Y-97209523D01*
X72804762Y-97257142D01*
X72852381Y-97352380D01*
X72852381Y-97447619D01*
X72804762Y-97542857D01*
X72757143Y-97590476D01*
X72661905Y-97638095D01*
X72471429Y-97685714D01*
X72233333Y-97685714D01*
X72042857Y-97638095D01*
X71947619Y-97590476D01*
X71900000Y-97542857D01*
X71852381Y-97447619D01*
X72852381Y-96161904D02*
X72852381Y-96733333D01*
X72852381Y-96447619D02*
X71852381Y-96447619D01*
X71995238Y-96542857D01*
X72090476Y-96638095D01*
X72138095Y-96733333D01*
X71347619Y-97847619D02*
X71300000Y-97942857D01*
X71204762Y-98038095D01*
X71061905Y-98180952D01*
X71014286Y-98276191D01*
X71014286Y-98371429D01*
X71252381Y-98323810D02*
X71204762Y-98419048D01*
X71109524Y-98514286D01*
X70919048Y-98561905D01*
X70585714Y-98561905D01*
X70395238Y-98514286D01*
X70300000Y-98419048D01*
X70252381Y-98323810D01*
X70252381Y-98133333D01*
X70300000Y-98038095D01*
X70395238Y-97942857D01*
X70585714Y-97895238D01*
X70919048Y-97895238D01*
X71109524Y-97942857D01*
X71204762Y-98038095D01*
X71252381Y-98133333D01*
X71252381Y-98323810D01*
X70252381Y-97561905D02*
X70252381Y-96942857D01*
X70633333Y-97276191D01*
X70633333Y-97133333D01*
X70680952Y-97038095D01*
X70728571Y-96990476D01*
X70823810Y-96942857D01*
X71061905Y-96942857D01*
X71157143Y-96990476D01*
X71204762Y-97038095D01*
X71252381Y-97133333D01*
X71252381Y-97419048D01*
X71204762Y-97514286D01*
X71157143Y-97561905D01*
X70252381Y-96323810D02*
X70252381Y-96228571D01*
X70300000Y-96133333D01*
X70347619Y-96085714D01*
X70442857Y-96038095D01*
X70633333Y-95990476D01*
X70871429Y-95990476D01*
X71061905Y-96038095D01*
X71157143Y-96085714D01*
X71204762Y-96133333D01*
X71252381Y-96228571D01*
X71252381Y-96323810D01*
X71204762Y-96419048D01*
X71157143Y-96466667D01*
X71061905Y-96514286D01*
X70871429Y-96561905D01*
X70633333Y-96561905D01*
X70442857Y-96514286D01*
X70347619Y-96466667D01*
X70300000Y-96419048D01*
X70252381Y-96323810D01*
X71252381Y-95038095D02*
X71252381Y-95609524D01*
X71252381Y-95323810D02*
X70252381Y-95323810D01*
X70395238Y-95419048D01*
X70490476Y-95514286D01*
X70538095Y-95609524D01*
X81214286Y-52304762D02*
X81357143Y-52352381D01*
X81595239Y-52352381D01*
X81690477Y-52304762D01*
X81738096Y-52257143D01*
X81785715Y-52161905D01*
X81785715Y-52066667D01*
X81738096Y-51971429D01*
X81690477Y-51923810D01*
X81595239Y-51876190D01*
X81404762Y-51828571D01*
X81309524Y-51780952D01*
X81261905Y-51733333D01*
X81214286Y-51638095D01*
X81214286Y-51542857D01*
X81261905Y-51447619D01*
X81309524Y-51400000D01*
X81404762Y-51352381D01*
X81642858Y-51352381D01*
X81785715Y-51400000D01*
X82119048Y-51352381D02*
X82357143Y-52352381D01*
X82547620Y-51638095D01*
X82738096Y-52352381D01*
X82976191Y-51352381D01*
X83833334Y-51352381D02*
X83357143Y-51352381D01*
X83309524Y-51828571D01*
X83357143Y-51780952D01*
X83452381Y-51733333D01*
X83690477Y-51733333D01*
X83785715Y-51780952D01*
X83833334Y-51828571D01*
X83880953Y-51923810D01*
X83880953Y-52161905D01*
X83833334Y-52257143D01*
X83785715Y-52304762D01*
X83690477Y-52352381D01*
X83452381Y-52352381D01*
X83357143Y-52304762D01*
X83309524Y-52257143D01*
X84500000Y-51352381D02*
X84595239Y-51352381D01*
X84690477Y-51400000D01*
X84738096Y-51447619D01*
X84785715Y-51542857D01*
X84833334Y-51733333D01*
X84833334Y-51971429D01*
X84785715Y-52161905D01*
X84738096Y-52257143D01*
X84690477Y-52304762D01*
X84595239Y-52352381D01*
X84500000Y-52352381D01*
X84404762Y-52304762D01*
X84357143Y-52257143D01*
X84309524Y-52161905D01*
X84261905Y-51971429D01*
X84261905Y-51733333D01*
X84309524Y-51542857D01*
X84357143Y-51447619D01*
X84404762Y-51400000D01*
X84500000Y-51352381D01*
X85785715Y-52352381D02*
X85214286Y-52352381D01*
X85500000Y-52352381D02*
X85500000Y-51352381D01*
X85404762Y-51495238D01*
X85309524Y-51590476D01*
X85214286Y-51638095D01*
X78814286Y-63804762D02*
X78957143Y-63852381D01*
X79195239Y-63852381D01*
X79290477Y-63804762D01*
X79338096Y-63757143D01*
X79385715Y-63661905D01*
X79385715Y-63566667D01*
X79338096Y-63471429D01*
X79290477Y-63423810D01*
X79195239Y-63376190D01*
X79004762Y-63328571D01*
X78909524Y-63280952D01*
X78861905Y-63233333D01*
X78814286Y-63138095D01*
X78814286Y-63042857D01*
X78861905Y-62947619D01*
X78909524Y-62900000D01*
X79004762Y-62852381D01*
X79242858Y-62852381D01*
X79385715Y-62900000D01*
X79719048Y-62852381D02*
X79957143Y-63852381D01*
X80147620Y-63138095D01*
X80338096Y-63852381D01*
X80576191Y-62852381D01*
X81433334Y-62852381D02*
X80957143Y-62852381D01*
X80909524Y-63328571D01*
X80957143Y-63280952D01*
X81052381Y-63233333D01*
X81290477Y-63233333D01*
X81385715Y-63280952D01*
X81433334Y-63328571D01*
X81480953Y-63423810D01*
X81480953Y-63661905D01*
X81433334Y-63757143D01*
X81385715Y-63804762D01*
X81290477Y-63852381D01*
X81052381Y-63852381D01*
X80957143Y-63804762D01*
X80909524Y-63757143D01*
X82100000Y-62852381D02*
X82195239Y-62852381D01*
X82290477Y-62900000D01*
X82338096Y-62947619D01*
X82385715Y-63042857D01*
X82433334Y-63233333D01*
X82433334Y-63471429D01*
X82385715Y-63661905D01*
X82338096Y-63757143D01*
X82290477Y-63804762D01*
X82195239Y-63852381D01*
X82100000Y-63852381D01*
X82004762Y-63804762D01*
X81957143Y-63757143D01*
X81909524Y-63661905D01*
X81861905Y-63471429D01*
X81861905Y-63233333D01*
X81909524Y-63042857D01*
X81957143Y-62947619D01*
X82004762Y-62900000D01*
X82100000Y-62852381D01*
X82814286Y-62947619D02*
X82861905Y-62900000D01*
X82957143Y-62852381D01*
X83195239Y-62852381D01*
X83290477Y-62900000D01*
X83338096Y-62947619D01*
X83385715Y-63042857D01*
X83385715Y-63138095D01*
X83338096Y-63280952D01*
X82766667Y-63852381D01*
X83385715Y-63852381D01*
X74185714Y-71152381D02*
X74757143Y-71152381D01*
X74471428Y-72152381D02*
X74471428Y-71152381D01*
X75090476Y-72152381D02*
X75090476Y-71152381D01*
X75471429Y-71152381D01*
X75566667Y-71200000D01*
X75614286Y-71247619D01*
X75661905Y-71342857D01*
X75661905Y-71485714D01*
X75614286Y-71580952D01*
X75566667Y-71628571D01*
X75471429Y-71676190D01*
X75090476Y-71676190D01*
X76566667Y-71152381D02*
X76090476Y-71152381D01*
X76042857Y-71628571D01*
X76090476Y-71580952D01*
X76185714Y-71533333D01*
X76423810Y-71533333D01*
X76519048Y-71580952D01*
X76566667Y-71628571D01*
X76614286Y-71723810D01*
X76614286Y-71961905D01*
X76566667Y-72057143D01*
X76519048Y-72104762D01*
X76423810Y-72152381D01*
X76185714Y-72152381D01*
X76090476Y-72104762D01*
X76042857Y-72057143D01*
X77233333Y-71152381D02*
X77328572Y-71152381D01*
X77423810Y-71200000D01*
X77471429Y-71247619D01*
X77519048Y-71342857D01*
X77566667Y-71533333D01*
X77566667Y-71771429D01*
X77519048Y-71961905D01*
X77471429Y-72057143D01*
X77423810Y-72104762D01*
X77328572Y-72152381D01*
X77233333Y-72152381D01*
X77138095Y-72104762D01*
X77090476Y-72057143D01*
X77042857Y-71961905D01*
X76995238Y-71771429D01*
X76995238Y-71533333D01*
X77042857Y-71342857D01*
X77090476Y-71247619D01*
X77138095Y-71200000D01*
X77233333Y-71152381D01*
X78519048Y-72152381D02*
X77947619Y-72152381D01*
X78233333Y-72152381D02*
X78233333Y-71152381D01*
X78138095Y-71295238D01*
X78042857Y-71390476D01*
X77947619Y-71438095D01*
X72128571Y-56161905D02*
X72128571Y-56809524D01*
X72166666Y-56885714D01*
X72204762Y-56923810D01*
X72280952Y-56961905D01*
X72433333Y-56961905D01*
X72509524Y-56923810D01*
X72547619Y-56885714D01*
X72585714Y-56809524D01*
X72585714Y-56161905D01*
X73347619Y-56161905D02*
X72966666Y-56161905D01*
X72928571Y-56542857D01*
X72966666Y-56504762D01*
X73042857Y-56466667D01*
X73233333Y-56466667D01*
X73309523Y-56504762D01*
X73347619Y-56542857D01*
X73385714Y-56619048D01*
X73385714Y-56809524D01*
X73347619Y-56885714D01*
X73309523Y-56923810D01*
X73233333Y-56961905D01*
X73042857Y-56961905D01*
X72966666Y-56923810D01*
X72928571Y-56885714D01*
X73880952Y-56161905D02*
X73957143Y-56161905D01*
X74033333Y-56200000D01*
X74071428Y-56238095D01*
X74109524Y-56314286D01*
X74147619Y-56466667D01*
X74147619Y-56657143D01*
X74109524Y-56809524D01*
X74071428Y-56885714D01*
X74033333Y-56923810D01*
X73957143Y-56961905D01*
X73880952Y-56961905D01*
X73804762Y-56923810D01*
X73766666Y-56885714D01*
X73728571Y-56809524D01*
X73690476Y-56657143D01*
X73690476Y-56466667D01*
X73728571Y-56314286D01*
X73766666Y-56238095D01*
X73804762Y-56200000D01*
X73880952Y-56161905D01*
X74452381Y-56238095D02*
X74490476Y-56200000D01*
X74566667Y-56161905D01*
X74757143Y-56161905D01*
X74833333Y-56200000D01*
X74871429Y-56238095D01*
X74909524Y-56314286D01*
X74909524Y-56390476D01*
X74871429Y-56504762D01*
X74414286Y-56961905D01*
X74909524Y-56961905D01*
X74185714Y-47852381D02*
X74185714Y-48661905D01*
X74233333Y-48757143D01*
X74280952Y-48804762D01*
X74376190Y-48852381D01*
X74566667Y-48852381D01*
X74661905Y-48804762D01*
X74709524Y-48757143D01*
X74757143Y-48661905D01*
X74757143Y-47852381D01*
X75709524Y-47852381D02*
X75233333Y-47852381D01*
X75185714Y-48328571D01*
X75233333Y-48280952D01*
X75328571Y-48233333D01*
X75566667Y-48233333D01*
X75661905Y-48280952D01*
X75709524Y-48328571D01*
X75757143Y-48423810D01*
X75757143Y-48661905D01*
X75709524Y-48757143D01*
X75661905Y-48804762D01*
X75566667Y-48852381D01*
X75328571Y-48852381D01*
X75233333Y-48804762D01*
X75185714Y-48757143D01*
X76376190Y-47852381D02*
X76471429Y-47852381D01*
X76566667Y-47900000D01*
X76614286Y-47947619D01*
X76661905Y-48042857D01*
X76709524Y-48233333D01*
X76709524Y-48471429D01*
X76661905Y-48661905D01*
X76614286Y-48757143D01*
X76566667Y-48804762D01*
X76471429Y-48852381D01*
X76376190Y-48852381D01*
X76280952Y-48804762D01*
X76233333Y-48757143D01*
X76185714Y-48661905D01*
X76138095Y-48471429D01*
X76138095Y-48233333D01*
X76185714Y-48042857D01*
X76233333Y-47947619D01*
X76280952Y-47900000D01*
X76376190Y-47852381D01*
X77661905Y-48852381D02*
X77090476Y-48852381D01*
X77376190Y-48852381D02*
X77376190Y-47852381D01*
X77280952Y-47995238D01*
X77185714Y-48090476D01*
X77090476Y-48138095D01*
X75342857Y-60242857D02*
X75342857Y-61214286D01*
X75400000Y-61328571D01*
X75457143Y-61385714D01*
X75571429Y-61442857D01*
X75800000Y-61442857D01*
X75914286Y-61385714D01*
X75971429Y-61328571D01*
X76028572Y-61214286D01*
X76028572Y-60242857D01*
X77171429Y-60242857D02*
X76600000Y-60242857D01*
X76542857Y-60814286D01*
X76600000Y-60757143D01*
X76714286Y-60700000D01*
X77000000Y-60700000D01*
X77114286Y-60757143D01*
X77171429Y-60814286D01*
X77228572Y-60928571D01*
X77228572Y-61214286D01*
X77171429Y-61328571D01*
X77114286Y-61385714D01*
X77000000Y-61442857D01*
X76714286Y-61442857D01*
X76600000Y-61385714D01*
X76542857Y-61328571D01*
X77971429Y-60242857D02*
X78085714Y-60242857D01*
X78200000Y-60300000D01*
X78257143Y-60357143D01*
X78314286Y-60471429D01*
X78371429Y-60700000D01*
X78371429Y-60985714D01*
X78314286Y-61214286D01*
X78257143Y-61328571D01*
X78200000Y-61385714D01*
X78085714Y-61442857D01*
X77971429Y-61442857D01*
X77857143Y-61385714D01*
X77800000Y-61328571D01*
X77742857Y-61214286D01*
X77685714Y-60985714D01*
X77685714Y-60700000D01*
X77742857Y-60471429D01*
X77800000Y-60357143D01*
X77857143Y-60300000D01*
X77971429Y-60242857D01*
X78771429Y-60242857D02*
X79514286Y-60242857D01*
X79114286Y-60700000D01*
X79285714Y-60700000D01*
X79400000Y-60757143D01*
X79457143Y-60814286D01*
X79514286Y-60928571D01*
X79514286Y-61214286D01*
X79457143Y-61328571D01*
X79400000Y-61385714D01*
X79285714Y-61442857D01*
X78942857Y-61442857D01*
X78828571Y-61385714D01*
X78771429Y-61328571D01*
X95709524Y-67252381D02*
X95709524Y-66252381D01*
X95947619Y-66252381D01*
X96090477Y-66300000D01*
X96185715Y-66395238D01*
X96233334Y-66490476D01*
X96280953Y-66680952D01*
X96280953Y-66823810D01*
X96233334Y-67014286D01*
X96185715Y-67109524D01*
X96090477Y-67204762D01*
X95947619Y-67252381D01*
X95709524Y-67252381D01*
X96661905Y-66347619D02*
X96709524Y-66300000D01*
X96804762Y-66252381D01*
X97042858Y-66252381D01*
X97138096Y-66300000D01*
X97185715Y-66347619D01*
X97233334Y-66442857D01*
X97233334Y-66538095D01*
X97185715Y-66680952D01*
X96614286Y-67252381D01*
X97233334Y-67252381D01*
X97852381Y-66252381D02*
X97947620Y-66252381D01*
X98042858Y-66300000D01*
X98090477Y-66347619D01*
X98138096Y-66442857D01*
X98185715Y-66633333D01*
X98185715Y-66871429D01*
X98138096Y-67061905D01*
X98090477Y-67157143D01*
X98042858Y-67204762D01*
X97947620Y-67252381D01*
X97852381Y-67252381D01*
X97757143Y-67204762D01*
X97709524Y-67157143D01*
X97661905Y-67061905D01*
X97614286Y-66871429D01*
X97614286Y-66633333D01*
X97661905Y-66442857D01*
X97709524Y-66347619D01*
X97757143Y-66300000D01*
X97852381Y-66252381D01*
X99138096Y-67252381D02*
X98566667Y-67252381D01*
X98852381Y-67252381D02*
X98852381Y-66252381D01*
X98757143Y-66395238D01*
X98661905Y-66490476D01*
X98566667Y-66538095D01*
X106552381Y-59690476D02*
X105552381Y-59690476D01*
X105552381Y-59452381D01*
X105600000Y-59309523D01*
X105695238Y-59214285D01*
X105790476Y-59166666D01*
X105980952Y-59119047D01*
X106123810Y-59119047D01*
X106314286Y-59166666D01*
X106409524Y-59214285D01*
X106504762Y-59309523D01*
X106552381Y-59452381D01*
X106552381Y-59690476D01*
X105647619Y-58738095D02*
X105600000Y-58690476D01*
X105552381Y-58595238D01*
X105552381Y-58357142D01*
X105600000Y-58261904D01*
X105647619Y-58214285D01*
X105742857Y-58166666D01*
X105838095Y-58166666D01*
X105980952Y-58214285D01*
X106552381Y-58785714D01*
X106552381Y-58166666D01*
X105552381Y-57547619D02*
X105552381Y-57452380D01*
X105600000Y-57357142D01*
X105647619Y-57309523D01*
X105742857Y-57261904D01*
X105933333Y-57214285D01*
X106171429Y-57214285D01*
X106361905Y-57261904D01*
X106457143Y-57309523D01*
X106504762Y-57357142D01*
X106552381Y-57452380D01*
X106552381Y-57547619D01*
X106504762Y-57642857D01*
X106457143Y-57690476D01*
X106361905Y-57738095D01*
X106171429Y-57785714D01*
X105933333Y-57785714D01*
X105742857Y-57738095D01*
X105647619Y-57690476D01*
X105600000Y-57642857D01*
X105552381Y-57547619D01*
X105885714Y-56357142D02*
X106552381Y-56357142D01*
X105504762Y-56595238D02*
X106219048Y-56833333D01*
X106219048Y-56214285D01*
X93028571Y-66485714D02*
X93028571Y-66819048D01*
X93552381Y-66819048D02*
X92552381Y-66819048D01*
X92552381Y-66342857D01*
X92647619Y-66009524D02*
X92600000Y-65961905D01*
X92552381Y-65866667D01*
X92552381Y-65628571D01*
X92600000Y-65533333D01*
X92647619Y-65485714D01*
X92742857Y-65438095D01*
X92838095Y-65438095D01*
X92980952Y-65485714D01*
X93552381Y-66057143D01*
X93552381Y-65438095D01*
X92552381Y-64819048D02*
X92552381Y-64723809D01*
X92600000Y-64628571D01*
X92647619Y-64580952D01*
X92742857Y-64533333D01*
X92933333Y-64485714D01*
X93171429Y-64485714D01*
X93361905Y-64533333D01*
X93457143Y-64580952D01*
X93504762Y-64628571D01*
X93552381Y-64723809D01*
X93552381Y-64819048D01*
X93504762Y-64914286D01*
X93457143Y-64961905D01*
X93361905Y-65009524D01*
X93171429Y-65057143D01*
X92933333Y-65057143D01*
X92742857Y-65009524D01*
X92647619Y-64961905D01*
X92600000Y-64914286D01*
X92552381Y-64819048D01*
X93552381Y-63533333D02*
X93552381Y-64104762D01*
X93552381Y-63819048D02*
X92552381Y-63819048D01*
X92695238Y-63914286D01*
X92790476Y-64009524D01*
X92838095Y-64104762D01*
X86014286Y-51152381D02*
X86014286Y-51866667D01*
X85966666Y-52009524D01*
X85871428Y-52104762D01*
X85728571Y-52152381D01*
X85633333Y-52152381D01*
X86442857Y-51247619D02*
X86490476Y-51200000D01*
X86585714Y-51152381D01*
X86823810Y-51152381D01*
X86919048Y-51200000D01*
X86966667Y-51247619D01*
X87014286Y-51342857D01*
X87014286Y-51438095D01*
X86966667Y-51580952D01*
X86395238Y-52152381D01*
X87014286Y-52152381D01*
X87633333Y-51152381D02*
X87728572Y-51152381D01*
X87823810Y-51200000D01*
X87871429Y-51247619D01*
X87919048Y-51342857D01*
X87966667Y-51533333D01*
X87966667Y-51771429D01*
X87919048Y-51961905D01*
X87871429Y-52057143D01*
X87823810Y-52104762D01*
X87728572Y-52152381D01*
X87633333Y-52152381D01*
X87538095Y-52104762D01*
X87490476Y-52057143D01*
X87442857Y-51961905D01*
X87395238Y-51771429D01*
X87395238Y-51533333D01*
X87442857Y-51342857D01*
X87490476Y-51247619D01*
X87538095Y-51200000D01*
X87633333Y-51152381D01*
X88919048Y-52152381D02*
X88347619Y-52152381D01*
X88633333Y-52152381D02*
X88633333Y-51152381D01*
X88538095Y-51295238D01*
X88442857Y-51390476D01*
X88347619Y-51438095D01*
X88152381Y-70185714D02*
X88866667Y-70185714D01*
X89009524Y-70233334D01*
X89104762Y-70328572D01*
X89152381Y-70471429D01*
X89152381Y-70566667D01*
X88247619Y-69757143D02*
X88200000Y-69709524D01*
X88152381Y-69614286D01*
X88152381Y-69376190D01*
X88200000Y-69280952D01*
X88247619Y-69233333D01*
X88342857Y-69185714D01*
X88438095Y-69185714D01*
X88580952Y-69233333D01*
X89152381Y-69804762D01*
X89152381Y-69185714D01*
X88152381Y-68566667D02*
X88152381Y-68471428D01*
X88200000Y-68376190D01*
X88247619Y-68328571D01*
X88342857Y-68280952D01*
X88533333Y-68233333D01*
X88771429Y-68233333D01*
X88961905Y-68280952D01*
X89057143Y-68328571D01*
X89104762Y-68376190D01*
X89152381Y-68471428D01*
X89152381Y-68566667D01*
X89104762Y-68661905D01*
X89057143Y-68709524D01*
X88961905Y-68757143D01*
X88771429Y-68804762D01*
X88533333Y-68804762D01*
X88342857Y-68757143D01*
X88247619Y-68709524D01*
X88200000Y-68661905D01*
X88152381Y-68566667D01*
X88247619Y-67852381D02*
X88200000Y-67804762D01*
X88152381Y-67709524D01*
X88152381Y-67471428D01*
X88200000Y-67376190D01*
X88247619Y-67328571D01*
X88342857Y-67280952D01*
X88438095Y-67280952D01*
X88580952Y-67328571D01*
X89152381Y-67900000D01*
X89152381Y-67280952D01*
X94585714Y-55252381D02*
X94585714Y-56061905D01*
X94633333Y-56157143D01*
X94680952Y-56204762D01*
X94776190Y-56252381D01*
X94966667Y-56252381D01*
X95061905Y-56204762D01*
X95109524Y-56157143D01*
X95157143Y-56061905D01*
X95157143Y-55252381D01*
X95585714Y-55347619D02*
X95633333Y-55300000D01*
X95728571Y-55252381D01*
X95966667Y-55252381D01*
X96061905Y-55300000D01*
X96109524Y-55347619D01*
X96157143Y-55442857D01*
X96157143Y-55538095D01*
X96109524Y-55680952D01*
X95538095Y-56252381D01*
X96157143Y-56252381D01*
X96776190Y-55252381D02*
X96871429Y-55252381D01*
X96966667Y-55300000D01*
X97014286Y-55347619D01*
X97061905Y-55442857D01*
X97109524Y-55633333D01*
X97109524Y-55871429D01*
X97061905Y-56061905D01*
X97014286Y-56157143D01*
X96966667Y-56204762D01*
X96871429Y-56252381D01*
X96776190Y-56252381D01*
X96680952Y-56204762D01*
X96633333Y-56157143D01*
X96585714Y-56061905D01*
X96538095Y-55871429D01*
X96538095Y-55633333D01*
X96585714Y-55442857D01*
X96633333Y-55347619D01*
X96680952Y-55300000D01*
X96776190Y-55252381D01*
X98061905Y-56252381D02*
X97490476Y-56252381D01*
X97776190Y-56252381D02*
X97776190Y-55252381D01*
X97680952Y-55395238D01*
X97585714Y-55490476D01*
X97490476Y-55538095D01*
X115885714Y-58052381D02*
X115885714Y-58861905D01*
X115933333Y-58957143D01*
X115980952Y-59004762D01*
X116076190Y-59052381D01*
X116266667Y-59052381D01*
X116361905Y-59004762D01*
X116409524Y-58957143D01*
X116457143Y-58861905D01*
X116457143Y-58052381D01*
X116885714Y-58147619D02*
X116933333Y-58100000D01*
X117028571Y-58052381D01*
X117266667Y-58052381D01*
X117361905Y-58100000D01*
X117409524Y-58147619D01*
X117457143Y-58242857D01*
X117457143Y-58338095D01*
X117409524Y-58480952D01*
X116838095Y-59052381D01*
X117457143Y-59052381D01*
X118076190Y-58052381D02*
X118171429Y-58052381D01*
X118266667Y-58100000D01*
X118314286Y-58147619D01*
X118361905Y-58242857D01*
X118409524Y-58433333D01*
X118409524Y-58671429D01*
X118361905Y-58861905D01*
X118314286Y-58957143D01*
X118266667Y-59004762D01*
X118171429Y-59052381D01*
X118076190Y-59052381D01*
X117980952Y-59004762D01*
X117933333Y-58957143D01*
X117885714Y-58861905D01*
X117838095Y-58671429D01*
X117838095Y-58433333D01*
X117885714Y-58242857D01*
X117933333Y-58147619D01*
X117980952Y-58100000D01*
X118076190Y-58052381D01*
X118790476Y-58147619D02*
X118838095Y-58100000D01*
X118933333Y-58052381D01*
X119171429Y-58052381D01*
X119266667Y-58100000D01*
X119314286Y-58147619D01*
X119361905Y-58242857D01*
X119361905Y-58338095D01*
X119314286Y-58480952D01*
X118742857Y-59052381D01*
X119361905Y-59052381D01*
X102214286Y-69404762D02*
X102357143Y-69452381D01*
X102595239Y-69452381D01*
X102690477Y-69404762D01*
X102738096Y-69357143D01*
X102785715Y-69261905D01*
X102785715Y-69166667D01*
X102738096Y-69071429D01*
X102690477Y-69023810D01*
X102595239Y-68976190D01*
X102404762Y-68928571D01*
X102309524Y-68880952D01*
X102261905Y-68833333D01*
X102214286Y-68738095D01*
X102214286Y-68642857D01*
X102261905Y-68547619D01*
X102309524Y-68500000D01*
X102404762Y-68452381D01*
X102642858Y-68452381D01*
X102785715Y-68500000D01*
X103119048Y-68452381D02*
X103357143Y-69452381D01*
X103547620Y-68738095D01*
X103738096Y-69452381D01*
X103976191Y-68452381D01*
X104309524Y-68547619D02*
X104357143Y-68500000D01*
X104452381Y-68452381D01*
X104690477Y-68452381D01*
X104785715Y-68500000D01*
X104833334Y-68547619D01*
X104880953Y-68642857D01*
X104880953Y-68738095D01*
X104833334Y-68880952D01*
X104261905Y-69452381D01*
X104880953Y-69452381D01*
X105500000Y-68452381D02*
X105595239Y-68452381D01*
X105690477Y-68500000D01*
X105738096Y-68547619D01*
X105785715Y-68642857D01*
X105833334Y-68833333D01*
X105833334Y-69071429D01*
X105785715Y-69261905D01*
X105738096Y-69357143D01*
X105690477Y-69404762D01*
X105595239Y-69452381D01*
X105500000Y-69452381D01*
X105404762Y-69404762D01*
X105357143Y-69357143D01*
X105309524Y-69261905D01*
X105261905Y-69071429D01*
X105261905Y-68833333D01*
X105309524Y-68642857D01*
X105357143Y-68547619D01*
X105404762Y-68500000D01*
X105500000Y-68452381D01*
X106785715Y-69452381D02*
X106214286Y-69452381D01*
X106500000Y-69452381D02*
X106500000Y-68452381D01*
X106404762Y-68595238D01*
X106309524Y-68690476D01*
X106214286Y-68738095D01*
X57785714Y-82552381D02*
X57785714Y-83361905D01*
X57833333Y-83457143D01*
X57880952Y-83504762D01*
X57976190Y-83552381D01*
X58166667Y-83552381D01*
X58261905Y-83504762D01*
X58309524Y-83457143D01*
X58357143Y-83361905D01*
X58357143Y-82552381D01*
X58738095Y-82552381D02*
X59357143Y-82552381D01*
X59023809Y-82933333D01*
X59166667Y-82933333D01*
X59261905Y-82980952D01*
X59309524Y-83028571D01*
X59357143Y-83123810D01*
X59357143Y-83361905D01*
X59309524Y-83457143D01*
X59261905Y-83504762D01*
X59166667Y-83552381D01*
X58880952Y-83552381D01*
X58785714Y-83504762D01*
X58738095Y-83457143D01*
X59976190Y-82552381D02*
X60071429Y-82552381D01*
X60166667Y-82600000D01*
X60214286Y-82647619D01*
X60261905Y-82742857D01*
X60309524Y-82933333D01*
X60309524Y-83171429D01*
X60261905Y-83361905D01*
X60214286Y-83457143D01*
X60166667Y-83504762D01*
X60071429Y-83552381D01*
X59976190Y-83552381D01*
X59880952Y-83504762D01*
X59833333Y-83457143D01*
X59785714Y-83361905D01*
X59738095Y-83171429D01*
X59738095Y-82933333D01*
X59785714Y-82742857D01*
X59833333Y-82647619D01*
X59880952Y-82600000D01*
X59976190Y-82552381D01*
X61261905Y-83552381D02*
X60690476Y-83552381D01*
X60976190Y-83552381D02*
X60976190Y-82552381D01*
X60880952Y-82695238D01*
X60785714Y-82790476D01*
X60690476Y-82838095D01*
X101309524Y-68252381D02*
X101309524Y-67252381D01*
X101547619Y-67252381D01*
X101690477Y-67300000D01*
X101785715Y-67395238D01*
X101833334Y-67490476D01*
X101880953Y-67680952D01*
X101880953Y-67823810D01*
X101833334Y-68014286D01*
X101785715Y-68109524D01*
X101690477Y-68204762D01*
X101547619Y-68252381D01*
X101309524Y-68252381D01*
X102261905Y-67347619D02*
X102309524Y-67300000D01*
X102404762Y-67252381D01*
X102642858Y-67252381D01*
X102738096Y-67300000D01*
X102785715Y-67347619D01*
X102833334Y-67442857D01*
X102833334Y-67538095D01*
X102785715Y-67680952D01*
X102214286Y-68252381D01*
X102833334Y-68252381D01*
X103452381Y-67252381D02*
X103547620Y-67252381D01*
X103642858Y-67300000D01*
X103690477Y-67347619D01*
X103738096Y-67442857D01*
X103785715Y-67633333D01*
X103785715Y-67871429D01*
X103738096Y-68061905D01*
X103690477Y-68157143D01*
X103642858Y-68204762D01*
X103547620Y-68252381D01*
X103452381Y-68252381D01*
X103357143Y-68204762D01*
X103309524Y-68157143D01*
X103261905Y-68061905D01*
X103214286Y-67871429D01*
X103214286Y-67633333D01*
X103261905Y-67442857D01*
X103309524Y-67347619D01*
X103357143Y-67300000D01*
X103452381Y-67252381D01*
X104119048Y-67252381D02*
X104738096Y-67252381D01*
X104404762Y-67633333D01*
X104547620Y-67633333D01*
X104642858Y-67680952D01*
X104690477Y-67728571D01*
X104738096Y-67823810D01*
X104738096Y-68061905D01*
X104690477Y-68157143D01*
X104642858Y-68204762D01*
X104547620Y-68252381D01*
X104261905Y-68252381D01*
X104166667Y-68204762D01*
X104119048Y-68157143D01*
X106052381Y-66490476D02*
X105052381Y-66490476D01*
X105052381Y-66252381D01*
X105100000Y-66109523D01*
X105195238Y-66014285D01*
X105290476Y-65966666D01*
X105480952Y-65919047D01*
X105623810Y-65919047D01*
X105814286Y-65966666D01*
X105909524Y-66014285D01*
X106004762Y-66109523D01*
X106052381Y-66252381D01*
X106052381Y-66490476D01*
X105147619Y-65538095D02*
X105100000Y-65490476D01*
X105052381Y-65395238D01*
X105052381Y-65157142D01*
X105100000Y-65061904D01*
X105147619Y-65014285D01*
X105242857Y-64966666D01*
X105338095Y-64966666D01*
X105480952Y-65014285D01*
X106052381Y-65585714D01*
X106052381Y-64966666D01*
X105052381Y-64347619D02*
X105052381Y-64252380D01*
X105100000Y-64157142D01*
X105147619Y-64109523D01*
X105242857Y-64061904D01*
X105433333Y-64014285D01*
X105671429Y-64014285D01*
X105861905Y-64061904D01*
X105957143Y-64109523D01*
X106004762Y-64157142D01*
X106052381Y-64252380D01*
X106052381Y-64347619D01*
X106004762Y-64442857D01*
X105957143Y-64490476D01*
X105861905Y-64538095D01*
X105671429Y-64585714D01*
X105433333Y-64585714D01*
X105242857Y-64538095D01*
X105147619Y-64490476D01*
X105100000Y-64442857D01*
X105052381Y-64347619D01*
X105147619Y-63633333D02*
X105100000Y-63585714D01*
X105052381Y-63490476D01*
X105052381Y-63252380D01*
X105100000Y-63157142D01*
X105147619Y-63109523D01*
X105242857Y-63061904D01*
X105338095Y-63061904D01*
X105480952Y-63109523D01*
X106052381Y-63680952D01*
X106052381Y-63061904D01*
X71957143Y-94219047D02*
X72004762Y-94266666D01*
X72052381Y-94409523D01*
X72052381Y-94504761D01*
X72004762Y-94647619D01*
X71909524Y-94742857D01*
X71814286Y-94790476D01*
X71623810Y-94838095D01*
X71480952Y-94838095D01*
X71290476Y-94790476D01*
X71195238Y-94742857D01*
X71100000Y-94647619D01*
X71052381Y-94504761D01*
X71052381Y-94409523D01*
X71100000Y-94266666D01*
X71147619Y-94219047D01*
X71052381Y-93885714D02*
X71052381Y-93266666D01*
X71433333Y-93600000D01*
X71433333Y-93457142D01*
X71480952Y-93361904D01*
X71528571Y-93314285D01*
X71623810Y-93266666D01*
X71861905Y-93266666D01*
X71957143Y-93314285D01*
X72004762Y-93361904D01*
X72052381Y-93457142D01*
X72052381Y-93742857D01*
X72004762Y-93838095D01*
X71957143Y-93885714D01*
X71052381Y-92647619D02*
X71052381Y-92552380D01*
X71100000Y-92457142D01*
X71147619Y-92409523D01*
X71242857Y-92361904D01*
X71433333Y-92314285D01*
X71671429Y-92314285D01*
X71861905Y-92361904D01*
X71957143Y-92409523D01*
X72004762Y-92457142D01*
X72052381Y-92552380D01*
X72052381Y-92647619D01*
X72004762Y-92742857D01*
X71957143Y-92790476D01*
X71861905Y-92838095D01*
X71671429Y-92885714D01*
X71433333Y-92885714D01*
X71242857Y-92838095D01*
X71147619Y-92790476D01*
X71100000Y-92742857D01*
X71052381Y-92647619D01*
X72052381Y-91361904D02*
X72052381Y-91933333D01*
X72052381Y-91647619D02*
X71052381Y-91647619D01*
X71195238Y-91742857D01*
X71290476Y-91838095D01*
X71338095Y-91933333D01*
X96680953Y-59857143D02*
X96633334Y-59904762D01*
X96490477Y-59952381D01*
X96395239Y-59952381D01*
X96252381Y-59904762D01*
X96157143Y-59809524D01*
X96109524Y-59714286D01*
X96061905Y-59523810D01*
X96061905Y-59380952D01*
X96109524Y-59190476D01*
X96157143Y-59095238D01*
X96252381Y-59000000D01*
X96395239Y-58952381D01*
X96490477Y-58952381D01*
X96633334Y-59000000D01*
X96680953Y-59047619D01*
X97061905Y-59047619D02*
X97109524Y-59000000D01*
X97204762Y-58952381D01*
X97442858Y-58952381D01*
X97538096Y-59000000D01*
X97585715Y-59047619D01*
X97633334Y-59142857D01*
X97633334Y-59238095D01*
X97585715Y-59380952D01*
X97014286Y-59952381D01*
X97633334Y-59952381D01*
X98252381Y-58952381D02*
X98347620Y-58952381D01*
X98442858Y-59000000D01*
X98490477Y-59047619D01*
X98538096Y-59142857D01*
X98585715Y-59333333D01*
X98585715Y-59571429D01*
X98538096Y-59761905D01*
X98490477Y-59857143D01*
X98442858Y-59904762D01*
X98347620Y-59952381D01*
X98252381Y-59952381D01*
X98157143Y-59904762D01*
X98109524Y-59857143D01*
X98061905Y-59761905D01*
X98014286Y-59571429D01*
X98014286Y-59333333D01*
X98061905Y-59142857D01*
X98109524Y-59047619D01*
X98157143Y-59000000D01*
X98252381Y-58952381D01*
X98919048Y-58952381D02*
X99538096Y-58952381D01*
X99204762Y-59333333D01*
X99347620Y-59333333D01*
X99442858Y-59380952D01*
X99490477Y-59428571D01*
X99538096Y-59523810D01*
X99538096Y-59761905D01*
X99490477Y-59857143D01*
X99442858Y-59904762D01*
X99347620Y-59952381D01*
X99061905Y-59952381D01*
X98966667Y-59904762D01*
X98919048Y-59857143D01*
X96257143Y-62319047D02*
X96304762Y-62366666D01*
X96352381Y-62509523D01*
X96352381Y-62604761D01*
X96304762Y-62747619D01*
X96209524Y-62842857D01*
X96114286Y-62890476D01*
X95923810Y-62938095D01*
X95780952Y-62938095D01*
X95590476Y-62890476D01*
X95495238Y-62842857D01*
X95400000Y-62747619D01*
X95352381Y-62604761D01*
X95352381Y-62509523D01*
X95400000Y-62366666D01*
X95447619Y-62319047D01*
X95447619Y-61938095D02*
X95400000Y-61890476D01*
X95352381Y-61795238D01*
X95352381Y-61557142D01*
X95400000Y-61461904D01*
X95447619Y-61414285D01*
X95542857Y-61366666D01*
X95638095Y-61366666D01*
X95780952Y-61414285D01*
X96352381Y-61985714D01*
X96352381Y-61366666D01*
X95352381Y-60747619D02*
X95352381Y-60652380D01*
X95400000Y-60557142D01*
X95447619Y-60509523D01*
X95542857Y-60461904D01*
X95733333Y-60414285D01*
X95971429Y-60414285D01*
X96161905Y-60461904D01*
X96257143Y-60509523D01*
X96304762Y-60557142D01*
X96352381Y-60652380D01*
X96352381Y-60747619D01*
X96304762Y-60842857D01*
X96257143Y-60890476D01*
X96161905Y-60938095D01*
X95971429Y-60985714D01*
X95733333Y-60985714D01*
X95542857Y-60938095D01*
X95447619Y-60890476D01*
X95400000Y-60842857D01*
X95352381Y-60747619D01*
X95447619Y-60033333D02*
X95400000Y-59985714D01*
X95352381Y-59890476D01*
X95352381Y-59652380D01*
X95400000Y-59557142D01*
X95447619Y-59509523D01*
X95542857Y-59461904D01*
X95638095Y-59461904D01*
X95780952Y-59509523D01*
X96352381Y-60080952D01*
X96352381Y-59461904D01*
X94657143Y-65319047D02*
X94704762Y-65366666D01*
X94752381Y-65509523D01*
X94752381Y-65604761D01*
X94704762Y-65747619D01*
X94609524Y-65842857D01*
X94514286Y-65890476D01*
X94323810Y-65938095D01*
X94180952Y-65938095D01*
X93990476Y-65890476D01*
X93895238Y-65842857D01*
X93800000Y-65747619D01*
X93752381Y-65604761D01*
X93752381Y-65509523D01*
X93800000Y-65366666D01*
X93847619Y-65319047D01*
X93847619Y-64938095D02*
X93800000Y-64890476D01*
X93752381Y-64795238D01*
X93752381Y-64557142D01*
X93800000Y-64461904D01*
X93847619Y-64414285D01*
X93942857Y-64366666D01*
X94038095Y-64366666D01*
X94180952Y-64414285D01*
X94752381Y-64985714D01*
X94752381Y-64366666D01*
X93752381Y-63747619D02*
X93752381Y-63652380D01*
X93800000Y-63557142D01*
X93847619Y-63509523D01*
X93942857Y-63461904D01*
X94133333Y-63414285D01*
X94371429Y-63414285D01*
X94561905Y-63461904D01*
X94657143Y-63509523D01*
X94704762Y-63557142D01*
X94752381Y-63652380D01*
X94752381Y-63747619D01*
X94704762Y-63842857D01*
X94657143Y-63890476D01*
X94561905Y-63938095D01*
X94371429Y-63985714D01*
X94133333Y-63985714D01*
X93942857Y-63938095D01*
X93847619Y-63890476D01*
X93800000Y-63842857D01*
X93752381Y-63747619D01*
X94752381Y-62461904D02*
X94752381Y-63033333D01*
X94752381Y-62747619D02*
X93752381Y-62747619D01*
X93895238Y-62842857D01*
X93990476Y-62938095D01*
X94038095Y-63033333D01*
X101957143Y-97519047D02*
X102004762Y-97566666D01*
X102052381Y-97709523D01*
X102052381Y-97804761D01*
X102004762Y-97947619D01*
X101909524Y-98042857D01*
X101814286Y-98090476D01*
X101623810Y-98138095D01*
X101480952Y-98138095D01*
X101290476Y-98090476D01*
X101195238Y-98042857D01*
X101100000Y-97947619D01*
X101052381Y-97804761D01*
X101052381Y-97709523D01*
X101100000Y-97566666D01*
X101147619Y-97519047D01*
X102052381Y-96566666D02*
X102052381Y-97138095D01*
X102052381Y-96852381D02*
X101052381Y-96852381D01*
X101195238Y-96947619D01*
X101290476Y-97042857D01*
X101338095Y-97138095D01*
X101052381Y-95947619D02*
X101052381Y-95852380D01*
X101100000Y-95757142D01*
X101147619Y-95709523D01*
X101242857Y-95661904D01*
X101433333Y-95614285D01*
X101671429Y-95614285D01*
X101861905Y-95661904D01*
X101957143Y-95709523D01*
X102004762Y-95757142D01*
X102052381Y-95852380D01*
X102052381Y-95947619D01*
X102004762Y-96042857D01*
X101957143Y-96090476D01*
X101861905Y-96138095D01*
X101671429Y-96185714D01*
X101433333Y-96185714D01*
X101242857Y-96138095D01*
X101147619Y-96090476D01*
X101100000Y-96042857D01*
X101052381Y-95947619D01*
X101147619Y-95233333D02*
X101100000Y-95185714D01*
X101052381Y-95090476D01*
X101052381Y-94852380D01*
X101100000Y-94757142D01*
X101147619Y-94709523D01*
X101242857Y-94661904D01*
X101338095Y-94661904D01*
X101480952Y-94709523D01*
X102052381Y-95280952D01*
X102052381Y-94661904D01*
X73252381Y-94119047D02*
X73252381Y-94595238D01*
X72252381Y-94595238D01*
X72252381Y-93880952D02*
X72252381Y-93261904D01*
X72633333Y-93595238D01*
X72633333Y-93452380D01*
X72680952Y-93357142D01*
X72728571Y-93309523D01*
X72823810Y-93261904D01*
X73061905Y-93261904D01*
X73157143Y-93309523D01*
X73204762Y-93357142D01*
X73252381Y-93452380D01*
X73252381Y-93738095D01*
X73204762Y-93833333D01*
X73157143Y-93880952D01*
X72252381Y-92642857D02*
X72252381Y-92547618D01*
X72300000Y-92452380D01*
X72347619Y-92404761D01*
X72442857Y-92357142D01*
X72633333Y-92309523D01*
X72871429Y-92309523D01*
X73061905Y-92357142D01*
X73157143Y-92404761D01*
X73204762Y-92452380D01*
X73252381Y-92547618D01*
X73252381Y-92642857D01*
X73204762Y-92738095D01*
X73157143Y-92785714D01*
X73061905Y-92833333D01*
X72871429Y-92880952D01*
X72633333Y-92880952D01*
X72442857Y-92833333D01*
X72347619Y-92785714D01*
X72300000Y-92738095D01*
X72252381Y-92642857D01*
X73252381Y-91357142D02*
X73252381Y-91928571D01*
X73252381Y-91642857D02*
X72252381Y-91642857D01*
X72395238Y-91738095D01*
X72490476Y-91833333D01*
X72538095Y-91928571D01*
X55980953Y-58357143D02*
X55933334Y-58404762D01*
X55790477Y-58452381D01*
X55695239Y-58452381D01*
X55552381Y-58404762D01*
X55457143Y-58309524D01*
X55409524Y-58214286D01*
X55361905Y-58023810D01*
X55361905Y-57880952D01*
X55409524Y-57690476D01*
X55457143Y-57595238D01*
X55552381Y-57500000D01*
X55695239Y-57452381D01*
X55790477Y-57452381D01*
X55933334Y-57500000D01*
X55980953Y-57547619D01*
X56838096Y-57785714D02*
X56838096Y-58452381D01*
X56600000Y-57404762D02*
X56361905Y-58119048D01*
X56980953Y-58119048D01*
X57552381Y-57452381D02*
X57647620Y-57452381D01*
X57742858Y-57500000D01*
X57790477Y-57547619D01*
X57838096Y-57642857D01*
X57885715Y-57833333D01*
X57885715Y-58071429D01*
X57838096Y-58261905D01*
X57790477Y-58357143D01*
X57742858Y-58404762D01*
X57647620Y-58452381D01*
X57552381Y-58452381D01*
X57457143Y-58404762D01*
X57409524Y-58357143D01*
X57361905Y-58261905D01*
X57314286Y-58071429D01*
X57314286Y-57833333D01*
X57361905Y-57642857D01*
X57409524Y-57547619D01*
X57457143Y-57500000D01*
X57552381Y-57452381D01*
X58266667Y-57547619D02*
X58314286Y-57500000D01*
X58409524Y-57452381D01*
X58647620Y-57452381D01*
X58742858Y-57500000D01*
X58790477Y-57547619D01*
X58838096Y-57642857D01*
X58838096Y-57738095D01*
X58790477Y-57880952D01*
X58219048Y-58452381D01*
X58838096Y-58452381D01*
X73257143Y-87719047D02*
X73304762Y-87766666D01*
X73352381Y-87909523D01*
X73352381Y-88004761D01*
X73304762Y-88147619D01*
X73209524Y-88242857D01*
X73114286Y-88290476D01*
X72923810Y-88338095D01*
X72780952Y-88338095D01*
X72590476Y-88290476D01*
X72495238Y-88242857D01*
X72400000Y-88147619D01*
X72352381Y-88004761D01*
X72352381Y-87909523D01*
X72400000Y-87766666D01*
X72447619Y-87719047D01*
X72352381Y-87385714D02*
X72352381Y-86766666D01*
X72733333Y-87100000D01*
X72733333Y-86957142D01*
X72780952Y-86861904D01*
X72828571Y-86814285D01*
X72923810Y-86766666D01*
X73161905Y-86766666D01*
X73257143Y-86814285D01*
X73304762Y-86861904D01*
X73352381Y-86957142D01*
X73352381Y-87242857D01*
X73304762Y-87338095D01*
X73257143Y-87385714D01*
X72352381Y-86147619D02*
X72352381Y-86052380D01*
X72400000Y-85957142D01*
X72447619Y-85909523D01*
X72542857Y-85861904D01*
X72733333Y-85814285D01*
X72971429Y-85814285D01*
X73161905Y-85861904D01*
X73257143Y-85909523D01*
X73304762Y-85957142D01*
X73352381Y-86052380D01*
X73352381Y-86147619D01*
X73304762Y-86242857D01*
X73257143Y-86290476D01*
X73161905Y-86338095D01*
X72971429Y-86385714D01*
X72733333Y-86385714D01*
X72542857Y-86338095D01*
X72447619Y-86290476D01*
X72400000Y-86242857D01*
X72352381Y-86147619D01*
X72352381Y-85480952D02*
X72352381Y-84861904D01*
X72733333Y-85195238D01*
X72733333Y-85052380D01*
X72780952Y-84957142D01*
X72828571Y-84909523D01*
X72923810Y-84861904D01*
X73161905Y-84861904D01*
X73257143Y-84909523D01*
X73304762Y-84957142D01*
X73352381Y-85052380D01*
X73352381Y-85338095D01*
X73304762Y-85433333D01*
X73257143Y-85480952D01*
X71857143Y-90619047D02*
X71904762Y-90666666D01*
X71952381Y-90809523D01*
X71952381Y-90904761D01*
X71904762Y-91047619D01*
X71809524Y-91142857D01*
X71714286Y-91190476D01*
X71523810Y-91238095D01*
X71380952Y-91238095D01*
X71190476Y-91190476D01*
X71095238Y-91142857D01*
X71000000Y-91047619D01*
X70952381Y-90904761D01*
X70952381Y-90809523D01*
X71000000Y-90666666D01*
X71047619Y-90619047D01*
X70952381Y-90285714D02*
X70952381Y-89666666D01*
X71333333Y-90000000D01*
X71333333Y-89857142D01*
X71380952Y-89761904D01*
X71428571Y-89714285D01*
X71523810Y-89666666D01*
X71761905Y-89666666D01*
X71857143Y-89714285D01*
X71904762Y-89761904D01*
X71952381Y-89857142D01*
X71952381Y-90142857D01*
X71904762Y-90238095D01*
X71857143Y-90285714D01*
X70952381Y-89047619D02*
X70952381Y-88952380D01*
X71000000Y-88857142D01*
X71047619Y-88809523D01*
X71142857Y-88761904D01*
X71333333Y-88714285D01*
X71571429Y-88714285D01*
X71761905Y-88761904D01*
X71857143Y-88809523D01*
X71904762Y-88857142D01*
X71952381Y-88952380D01*
X71952381Y-89047619D01*
X71904762Y-89142857D01*
X71857143Y-89190476D01*
X71761905Y-89238095D01*
X71571429Y-89285714D01*
X71333333Y-89285714D01*
X71142857Y-89238095D01*
X71047619Y-89190476D01*
X71000000Y-89142857D01*
X70952381Y-89047619D01*
X71047619Y-88333333D02*
X71000000Y-88285714D01*
X70952381Y-88190476D01*
X70952381Y-87952380D01*
X71000000Y-87857142D01*
X71047619Y-87809523D01*
X71142857Y-87761904D01*
X71238095Y-87761904D01*
X71380952Y-87809523D01*
X71952381Y-88380952D01*
X71952381Y-87761904D01*
X117857143Y-90119047D02*
X117904762Y-90166666D01*
X117952381Y-90309523D01*
X117952381Y-90404761D01*
X117904762Y-90547619D01*
X117809524Y-90642857D01*
X117714286Y-90690476D01*
X117523810Y-90738095D01*
X117380952Y-90738095D01*
X117190476Y-90690476D01*
X117095238Y-90642857D01*
X117000000Y-90547619D01*
X116952381Y-90404761D01*
X116952381Y-90309523D01*
X117000000Y-90166666D01*
X117047619Y-90119047D01*
X117952381Y-89166666D02*
X117952381Y-89738095D01*
X117952381Y-89452381D02*
X116952381Y-89452381D01*
X117095238Y-89547619D01*
X117190476Y-89642857D01*
X117238095Y-89738095D01*
X116952381Y-88547619D02*
X116952381Y-88452380D01*
X117000000Y-88357142D01*
X117047619Y-88309523D01*
X117142857Y-88261904D01*
X117333333Y-88214285D01*
X117571429Y-88214285D01*
X117761905Y-88261904D01*
X117857143Y-88309523D01*
X117904762Y-88357142D01*
X117952381Y-88452380D01*
X117952381Y-88547619D01*
X117904762Y-88642857D01*
X117857143Y-88690476D01*
X117761905Y-88738095D01*
X117571429Y-88785714D01*
X117333333Y-88785714D01*
X117142857Y-88738095D01*
X117047619Y-88690476D01*
X117000000Y-88642857D01*
X116952381Y-88547619D01*
X117285714Y-87357142D02*
X117952381Y-87357142D01*
X116904762Y-87595238D02*
X117619048Y-87833333D01*
X117619048Y-87214285D01*
X103757143Y-97419047D02*
X103804762Y-97466666D01*
X103852381Y-97609523D01*
X103852381Y-97704761D01*
X103804762Y-97847619D01*
X103709524Y-97942857D01*
X103614286Y-97990476D01*
X103423810Y-98038095D01*
X103280952Y-98038095D01*
X103090476Y-97990476D01*
X102995238Y-97942857D01*
X102900000Y-97847619D01*
X102852381Y-97704761D01*
X102852381Y-97609523D01*
X102900000Y-97466666D01*
X102947619Y-97419047D01*
X103852381Y-96466666D02*
X103852381Y-97038095D01*
X103852381Y-96752381D02*
X102852381Y-96752381D01*
X102995238Y-96847619D01*
X103090476Y-96942857D01*
X103138095Y-97038095D01*
X102852381Y-95847619D02*
X102852381Y-95752380D01*
X102900000Y-95657142D01*
X102947619Y-95609523D01*
X103042857Y-95561904D01*
X103233333Y-95514285D01*
X103471429Y-95514285D01*
X103661905Y-95561904D01*
X103757143Y-95609523D01*
X103804762Y-95657142D01*
X103852381Y-95752380D01*
X103852381Y-95847619D01*
X103804762Y-95942857D01*
X103757143Y-95990476D01*
X103661905Y-96038095D01*
X103471429Y-96085714D01*
X103233333Y-96085714D01*
X103042857Y-96038095D01*
X102947619Y-95990476D01*
X102900000Y-95942857D01*
X102852381Y-95847619D01*
X102852381Y-95180952D02*
X102852381Y-94561904D01*
X103233333Y-94895238D01*
X103233333Y-94752380D01*
X103280952Y-94657142D01*
X103328571Y-94609523D01*
X103423810Y-94561904D01*
X103661905Y-94561904D01*
X103757143Y-94609523D01*
X103804762Y-94657142D01*
X103852381Y-94752380D01*
X103852381Y-95038095D01*
X103804762Y-95133333D01*
X103757143Y-95180952D01*
X79580953Y-56557143D02*
X79533334Y-56604762D01*
X79390477Y-56652381D01*
X79295239Y-56652381D01*
X79152381Y-56604762D01*
X79057143Y-56509524D01*
X79009524Y-56414286D01*
X78961905Y-56223810D01*
X78961905Y-56080952D01*
X79009524Y-55890476D01*
X79057143Y-55795238D01*
X79152381Y-55700000D01*
X79295239Y-55652381D01*
X79390477Y-55652381D01*
X79533334Y-55700000D01*
X79580953Y-55747619D01*
X80533334Y-56652381D02*
X79961905Y-56652381D01*
X80247619Y-56652381D02*
X80247619Y-55652381D01*
X80152381Y-55795238D01*
X80057143Y-55890476D01*
X79961905Y-55938095D01*
X81152381Y-55652381D02*
X81247620Y-55652381D01*
X81342858Y-55700000D01*
X81390477Y-55747619D01*
X81438096Y-55842857D01*
X81485715Y-56033333D01*
X81485715Y-56271429D01*
X81438096Y-56461905D01*
X81390477Y-56557143D01*
X81342858Y-56604762D01*
X81247620Y-56652381D01*
X81152381Y-56652381D01*
X81057143Y-56604762D01*
X81009524Y-56557143D01*
X80961905Y-56461905D01*
X80914286Y-56271429D01*
X80914286Y-56033333D01*
X80961905Y-55842857D01*
X81009524Y-55747619D01*
X81057143Y-55700000D01*
X81152381Y-55652381D01*
X82438096Y-56652381D02*
X81866667Y-56652381D01*
X82152381Y-56652381D02*
X82152381Y-55652381D01*
X82057143Y-55795238D01*
X81961905Y-55890476D01*
X81866667Y-55938095D01*
X124757143Y-61619047D02*
X124804762Y-61666666D01*
X124852381Y-61809523D01*
X124852381Y-61904761D01*
X124804762Y-62047619D01*
X124709524Y-62142857D01*
X124614286Y-62190476D01*
X124423810Y-62238095D01*
X124280952Y-62238095D01*
X124090476Y-62190476D01*
X123995238Y-62142857D01*
X123900000Y-62047619D01*
X123852381Y-61904761D01*
X123852381Y-61809523D01*
X123900000Y-61666666D01*
X123947619Y-61619047D01*
X123947619Y-61238095D02*
X123900000Y-61190476D01*
X123852381Y-61095238D01*
X123852381Y-60857142D01*
X123900000Y-60761904D01*
X123947619Y-60714285D01*
X124042857Y-60666666D01*
X124138095Y-60666666D01*
X124280952Y-60714285D01*
X124852381Y-61285714D01*
X124852381Y-60666666D01*
X123852381Y-60047619D02*
X123852381Y-59952380D01*
X123900000Y-59857142D01*
X123947619Y-59809523D01*
X124042857Y-59761904D01*
X124233333Y-59714285D01*
X124471429Y-59714285D01*
X124661905Y-59761904D01*
X124757143Y-59809523D01*
X124804762Y-59857142D01*
X124852381Y-59952380D01*
X124852381Y-60047619D01*
X124804762Y-60142857D01*
X124757143Y-60190476D01*
X124661905Y-60238095D01*
X124471429Y-60285714D01*
X124233333Y-60285714D01*
X124042857Y-60238095D01*
X123947619Y-60190476D01*
X123900000Y-60142857D01*
X123852381Y-60047619D01*
X123852381Y-58809523D02*
X123852381Y-59285714D01*
X124328571Y-59333333D01*
X124280952Y-59285714D01*
X124233333Y-59190476D01*
X124233333Y-58952380D01*
X124280952Y-58857142D01*
X124328571Y-58809523D01*
X124423810Y-58761904D01*
X124661905Y-58761904D01*
X124757143Y-58809523D01*
X124804762Y-58857142D01*
X124852381Y-58952380D01*
X124852381Y-59190476D01*
X124804762Y-59285714D01*
X124757143Y-59333333D01*
X113157143Y-61619047D02*
X113204762Y-61666666D01*
X113252381Y-61809523D01*
X113252381Y-61904761D01*
X113204762Y-62047619D01*
X113109524Y-62142857D01*
X113014286Y-62190476D01*
X112823810Y-62238095D01*
X112680952Y-62238095D01*
X112490476Y-62190476D01*
X112395238Y-62142857D01*
X112300000Y-62047619D01*
X112252381Y-61904761D01*
X112252381Y-61809523D01*
X112300000Y-61666666D01*
X112347619Y-61619047D01*
X112347619Y-61238095D02*
X112300000Y-61190476D01*
X112252381Y-61095238D01*
X112252381Y-60857142D01*
X112300000Y-60761904D01*
X112347619Y-60714285D01*
X112442857Y-60666666D01*
X112538095Y-60666666D01*
X112680952Y-60714285D01*
X113252381Y-61285714D01*
X113252381Y-60666666D01*
X112252381Y-60047619D02*
X112252381Y-59952380D01*
X112300000Y-59857142D01*
X112347619Y-59809523D01*
X112442857Y-59761904D01*
X112633333Y-59714285D01*
X112871429Y-59714285D01*
X113061905Y-59761904D01*
X113157143Y-59809523D01*
X113204762Y-59857142D01*
X113252381Y-59952380D01*
X113252381Y-60047619D01*
X113204762Y-60142857D01*
X113157143Y-60190476D01*
X113061905Y-60238095D01*
X112871429Y-60285714D01*
X112633333Y-60285714D01*
X112442857Y-60238095D01*
X112347619Y-60190476D01*
X112300000Y-60142857D01*
X112252381Y-60047619D01*
X112585714Y-58857142D02*
X113252381Y-58857142D01*
X112204762Y-59095238D02*
X112919048Y-59333333D01*
X112919048Y-58714285D01*
X69357143Y-63319047D02*
X69404762Y-63366666D01*
X69452381Y-63509523D01*
X69452381Y-63604761D01*
X69404762Y-63747619D01*
X69309524Y-63842857D01*
X69214286Y-63890476D01*
X69023810Y-63938095D01*
X68880952Y-63938095D01*
X68690476Y-63890476D01*
X68595238Y-63842857D01*
X68500000Y-63747619D01*
X68452381Y-63604761D01*
X68452381Y-63509523D01*
X68500000Y-63366666D01*
X68547619Y-63319047D01*
X68452381Y-62414285D02*
X68452381Y-62890476D01*
X68928571Y-62938095D01*
X68880952Y-62890476D01*
X68833333Y-62795238D01*
X68833333Y-62557142D01*
X68880952Y-62461904D01*
X68928571Y-62414285D01*
X69023810Y-62366666D01*
X69261905Y-62366666D01*
X69357143Y-62414285D01*
X69404762Y-62461904D01*
X69452381Y-62557142D01*
X69452381Y-62795238D01*
X69404762Y-62890476D01*
X69357143Y-62938095D01*
X68452381Y-61747619D02*
X68452381Y-61652380D01*
X68500000Y-61557142D01*
X68547619Y-61509523D01*
X68642857Y-61461904D01*
X68833333Y-61414285D01*
X69071429Y-61414285D01*
X69261905Y-61461904D01*
X69357143Y-61509523D01*
X69404762Y-61557142D01*
X69452381Y-61652380D01*
X69452381Y-61747619D01*
X69404762Y-61842857D01*
X69357143Y-61890476D01*
X69261905Y-61938095D01*
X69071429Y-61985714D01*
X68833333Y-61985714D01*
X68642857Y-61938095D01*
X68547619Y-61890476D01*
X68500000Y-61842857D01*
X68452381Y-61747619D01*
X68547619Y-61033333D02*
X68500000Y-60985714D01*
X68452381Y-60890476D01*
X68452381Y-60652380D01*
X68500000Y-60557142D01*
X68547619Y-60509523D01*
X68642857Y-60461904D01*
X68738095Y-60461904D01*
X68880952Y-60509523D01*
X69452381Y-61080952D01*
X69452381Y-60461904D01*
X69280953Y-58057143D02*
X69233334Y-58104762D01*
X69090477Y-58152381D01*
X68995239Y-58152381D01*
X68852381Y-58104762D01*
X68757143Y-58009524D01*
X68709524Y-57914286D01*
X68661905Y-57723810D01*
X68661905Y-57580952D01*
X68709524Y-57390476D01*
X68757143Y-57295238D01*
X68852381Y-57200000D01*
X68995239Y-57152381D01*
X69090477Y-57152381D01*
X69233334Y-57200000D01*
X69280953Y-57247619D01*
X70185715Y-57152381D02*
X69709524Y-57152381D01*
X69661905Y-57628571D01*
X69709524Y-57580952D01*
X69804762Y-57533333D01*
X70042858Y-57533333D01*
X70138096Y-57580952D01*
X70185715Y-57628571D01*
X70233334Y-57723810D01*
X70233334Y-57961905D01*
X70185715Y-58057143D01*
X70138096Y-58104762D01*
X70042858Y-58152381D01*
X69804762Y-58152381D01*
X69709524Y-58104762D01*
X69661905Y-58057143D01*
X70852381Y-57152381D02*
X70947620Y-57152381D01*
X71042858Y-57200000D01*
X71090477Y-57247619D01*
X71138096Y-57342857D01*
X71185715Y-57533333D01*
X71185715Y-57771429D01*
X71138096Y-57961905D01*
X71090477Y-58057143D01*
X71042858Y-58104762D01*
X70947620Y-58152381D01*
X70852381Y-58152381D01*
X70757143Y-58104762D01*
X70709524Y-58057143D01*
X70661905Y-57961905D01*
X70614286Y-57771429D01*
X70614286Y-57533333D01*
X70661905Y-57342857D01*
X70709524Y-57247619D01*
X70757143Y-57200000D01*
X70852381Y-57152381D01*
X72138096Y-58152381D02*
X71566667Y-58152381D01*
X71852381Y-58152381D02*
X71852381Y-57152381D01*
X71757143Y-57295238D01*
X71661905Y-57390476D01*
X71566667Y-57438095D01*
X108452381Y-95771428D02*
X108452381Y-96247619D01*
X107452381Y-96247619D01*
X107928571Y-95438095D02*
X107928571Y-95104761D01*
X108452381Y-94961904D02*
X108452381Y-95438095D01*
X107452381Y-95438095D01*
X107452381Y-94961904D01*
X108452381Y-94533333D02*
X107452381Y-94533333D01*
X107452381Y-94295238D01*
X107500000Y-94152380D01*
X107595238Y-94057142D01*
X107690476Y-94009523D01*
X107880952Y-93961904D01*
X108023810Y-93961904D01*
X108214286Y-94009523D01*
X108309524Y-94057142D01*
X108404762Y-94152380D01*
X108452381Y-94295238D01*
X108452381Y-94533333D01*
X108452381Y-93009523D02*
X108452381Y-93580952D01*
X108452381Y-93295238D02*
X107452381Y-93295238D01*
X107595238Y-93390476D01*
X107690476Y-93485714D01*
X107738095Y-93580952D01*
X107452381Y-92390476D02*
X107452381Y-92295237D01*
X107500000Y-92199999D01*
X107547619Y-92152380D01*
X107642857Y-92104761D01*
X107833333Y-92057142D01*
X108071429Y-92057142D01*
X108261905Y-92104761D01*
X108357143Y-92152380D01*
X108404762Y-92199999D01*
X108452381Y-92295237D01*
X108452381Y-92390476D01*
X108404762Y-92485714D01*
X108357143Y-92533333D01*
X108261905Y-92580952D01*
X108071429Y-92628571D01*
X107833333Y-92628571D01*
X107642857Y-92580952D01*
X107547619Y-92533333D01*
X107500000Y-92485714D01*
X107452381Y-92390476D01*
X107547619Y-91676190D02*
X107500000Y-91628571D01*
X107452381Y-91533333D01*
X107452381Y-91295237D01*
X107500000Y-91199999D01*
X107547619Y-91152380D01*
X107642857Y-91104761D01*
X107738095Y-91104761D01*
X107880952Y-91152380D01*
X108452381Y-91723809D01*
X108452381Y-91104761D01*
X102952381Y-74371428D02*
X102952381Y-74847619D01*
X101952381Y-74847619D01*
X102428571Y-74038095D02*
X102428571Y-73704761D01*
X102952381Y-73561904D02*
X102952381Y-74038095D01*
X101952381Y-74038095D01*
X101952381Y-73561904D01*
X102952381Y-73133333D02*
X101952381Y-73133333D01*
X101952381Y-72895238D01*
X102000000Y-72752380D01*
X102095238Y-72657142D01*
X102190476Y-72609523D01*
X102380952Y-72561904D01*
X102523810Y-72561904D01*
X102714286Y-72609523D01*
X102809524Y-72657142D01*
X102904762Y-72752380D01*
X102952381Y-72895238D01*
X102952381Y-73133333D01*
X102952381Y-71609523D02*
X102952381Y-72180952D01*
X102952381Y-71895238D02*
X101952381Y-71895238D01*
X102095238Y-71990476D01*
X102190476Y-72085714D01*
X102238095Y-72180952D01*
X101952381Y-70990476D02*
X101952381Y-70895237D01*
X102000000Y-70799999D01*
X102047619Y-70752380D01*
X102142857Y-70704761D01*
X102333333Y-70657142D01*
X102571429Y-70657142D01*
X102761905Y-70704761D01*
X102857143Y-70752380D01*
X102904762Y-70799999D01*
X102952381Y-70895237D01*
X102952381Y-70990476D01*
X102904762Y-71085714D01*
X102857143Y-71133333D01*
X102761905Y-71180952D01*
X102571429Y-71228571D01*
X102333333Y-71228571D01*
X102142857Y-71180952D01*
X102047619Y-71133333D01*
X102000000Y-71085714D01*
X101952381Y-70990476D01*
X101952381Y-70323809D02*
X101952381Y-69704761D01*
X102333333Y-70038095D01*
X102333333Y-69895237D01*
X102380952Y-69799999D01*
X102428571Y-69752380D01*
X102523810Y-69704761D01*
X102761905Y-69704761D01*
X102857143Y-69752380D01*
X102904762Y-69799999D01*
X102952381Y-69895237D01*
X102952381Y-70180952D01*
X102904762Y-70276190D01*
X102857143Y-70323809D01*
X114552381Y-74171428D02*
X114552381Y-74647619D01*
X113552381Y-74647619D01*
X114028571Y-73838095D02*
X114028571Y-73504761D01*
X114552381Y-73361904D02*
X114552381Y-73838095D01*
X113552381Y-73838095D01*
X113552381Y-73361904D01*
X114552381Y-72933333D02*
X113552381Y-72933333D01*
X113552381Y-72695238D01*
X113600000Y-72552380D01*
X113695238Y-72457142D01*
X113790476Y-72409523D01*
X113980952Y-72361904D01*
X114123810Y-72361904D01*
X114314286Y-72409523D01*
X114409524Y-72457142D01*
X114504762Y-72552380D01*
X114552381Y-72695238D01*
X114552381Y-72933333D01*
X114552381Y-71409523D02*
X114552381Y-71980952D01*
X114552381Y-71695238D02*
X113552381Y-71695238D01*
X113695238Y-71790476D01*
X113790476Y-71885714D01*
X113838095Y-71980952D01*
X113552381Y-70790476D02*
X113552381Y-70695237D01*
X113600000Y-70599999D01*
X113647619Y-70552380D01*
X113742857Y-70504761D01*
X113933333Y-70457142D01*
X114171429Y-70457142D01*
X114361905Y-70504761D01*
X114457143Y-70552380D01*
X114504762Y-70599999D01*
X114552381Y-70695237D01*
X114552381Y-70790476D01*
X114504762Y-70885714D01*
X114457143Y-70933333D01*
X114361905Y-70980952D01*
X114171429Y-71028571D01*
X113933333Y-71028571D01*
X113742857Y-70980952D01*
X113647619Y-70933333D01*
X113600000Y-70885714D01*
X113552381Y-70790476D01*
X113885714Y-69599999D02*
X114552381Y-69599999D01*
X113504762Y-69838095D02*
X114219048Y-70076190D01*
X114219048Y-69457142D01*
X104652381Y-74271428D02*
X104652381Y-74747619D01*
X103652381Y-74747619D01*
X104128571Y-73938095D02*
X104128571Y-73604761D01*
X104652381Y-73461904D02*
X104652381Y-73938095D01*
X103652381Y-73938095D01*
X103652381Y-73461904D01*
X104652381Y-73033333D02*
X103652381Y-73033333D01*
X103652381Y-72795238D01*
X103700000Y-72652380D01*
X103795238Y-72557142D01*
X103890476Y-72509523D01*
X104080952Y-72461904D01*
X104223810Y-72461904D01*
X104414286Y-72509523D01*
X104509524Y-72557142D01*
X104604762Y-72652380D01*
X104652381Y-72795238D01*
X104652381Y-73033333D01*
X104652381Y-71509523D02*
X104652381Y-72080952D01*
X104652381Y-71795238D02*
X103652381Y-71795238D01*
X103795238Y-71890476D01*
X103890476Y-71985714D01*
X103938095Y-72080952D01*
X103652381Y-70890476D02*
X103652381Y-70795237D01*
X103700000Y-70699999D01*
X103747619Y-70652380D01*
X103842857Y-70604761D01*
X104033333Y-70557142D01*
X104271429Y-70557142D01*
X104461905Y-70604761D01*
X104557143Y-70652380D01*
X104604762Y-70699999D01*
X104652381Y-70795237D01*
X104652381Y-70890476D01*
X104604762Y-70985714D01*
X104557143Y-71033333D01*
X104461905Y-71080952D01*
X104271429Y-71128571D01*
X104033333Y-71128571D01*
X103842857Y-71080952D01*
X103747619Y-71033333D01*
X103700000Y-70985714D01*
X103652381Y-70890476D01*
X103652381Y-69652380D02*
X103652381Y-70128571D01*
X104128571Y-70176190D01*
X104080952Y-70128571D01*
X104033333Y-70033333D01*
X104033333Y-69795237D01*
X104080952Y-69699999D01*
X104128571Y-69652380D01*
X104223810Y-69604761D01*
X104461905Y-69604761D01*
X104557143Y-69652380D01*
X104604762Y-69699999D01*
X104652381Y-69795237D01*
X104652381Y-70033333D01*
X104604762Y-70128571D01*
X104557143Y-70176190D01*
X101252381Y-74471428D02*
X101252381Y-74947619D01*
X100252381Y-74947619D01*
X100728571Y-74138095D02*
X100728571Y-73804761D01*
X101252381Y-73661904D02*
X101252381Y-74138095D01*
X100252381Y-74138095D01*
X100252381Y-73661904D01*
X101252381Y-73233333D02*
X100252381Y-73233333D01*
X100252381Y-72995238D01*
X100300000Y-72852380D01*
X100395238Y-72757142D01*
X100490476Y-72709523D01*
X100680952Y-72661904D01*
X100823810Y-72661904D01*
X101014286Y-72709523D01*
X101109524Y-72757142D01*
X101204762Y-72852380D01*
X101252381Y-72995238D01*
X101252381Y-73233333D01*
X101252381Y-71709523D02*
X101252381Y-72280952D01*
X101252381Y-71995238D02*
X100252381Y-71995238D01*
X100395238Y-72090476D01*
X100490476Y-72185714D01*
X100538095Y-72280952D01*
X100252381Y-71090476D02*
X100252381Y-70995237D01*
X100300000Y-70899999D01*
X100347619Y-70852380D01*
X100442857Y-70804761D01*
X100633333Y-70757142D01*
X100871429Y-70757142D01*
X101061905Y-70804761D01*
X101157143Y-70852380D01*
X101204762Y-70899999D01*
X101252381Y-70995237D01*
X101252381Y-71090476D01*
X101204762Y-71185714D01*
X101157143Y-71233333D01*
X101061905Y-71280952D01*
X100871429Y-71328571D01*
X100633333Y-71328571D01*
X100442857Y-71280952D01*
X100347619Y-71233333D01*
X100300000Y-71185714D01*
X100252381Y-71090476D01*
X100252381Y-69899999D02*
X100252381Y-70090476D01*
X100300000Y-70185714D01*
X100347619Y-70233333D01*
X100490476Y-70328571D01*
X100680952Y-70376190D01*
X101061905Y-70376190D01*
X101157143Y-70328571D01*
X101204762Y-70280952D01*
X101252381Y-70185714D01*
X101252381Y-69995237D01*
X101204762Y-69899999D01*
X101157143Y-69852380D01*
X101061905Y-69804761D01*
X100823810Y-69804761D01*
X100728571Y-69852380D01*
X100680952Y-69899999D01*
X100633333Y-69995237D01*
X100633333Y-70185714D01*
X100680952Y-70280952D01*
X100728571Y-70328571D01*
X100823810Y-70376190D01*
X78652381Y-86471428D02*
X78652381Y-86947619D01*
X77652381Y-86947619D01*
X78128571Y-86138095D02*
X78128571Y-85804761D01*
X78652381Y-85661904D02*
X78652381Y-86138095D01*
X77652381Y-86138095D01*
X77652381Y-85661904D01*
X78652381Y-85233333D02*
X77652381Y-85233333D01*
X77652381Y-84995238D01*
X77700000Y-84852380D01*
X77795238Y-84757142D01*
X77890476Y-84709523D01*
X78080952Y-84661904D01*
X78223810Y-84661904D01*
X78414286Y-84709523D01*
X78509524Y-84757142D01*
X78604762Y-84852380D01*
X78652381Y-84995238D01*
X78652381Y-85233333D01*
X78652381Y-83709523D02*
X78652381Y-84280952D01*
X78652381Y-83995238D02*
X77652381Y-83995238D01*
X77795238Y-84090476D01*
X77890476Y-84185714D01*
X77938095Y-84280952D01*
X77652381Y-83090476D02*
X77652381Y-82995237D01*
X77700000Y-82899999D01*
X77747619Y-82852380D01*
X77842857Y-82804761D01*
X78033333Y-82757142D01*
X78271429Y-82757142D01*
X78461905Y-82804761D01*
X78557143Y-82852380D01*
X78604762Y-82899999D01*
X78652381Y-82995237D01*
X78652381Y-83090476D01*
X78604762Y-83185714D01*
X78557143Y-83233333D01*
X78461905Y-83280952D01*
X78271429Y-83328571D01*
X78033333Y-83328571D01*
X77842857Y-83280952D01*
X77747619Y-83233333D01*
X77700000Y-83185714D01*
X77652381Y-83090476D01*
X78652381Y-81804761D02*
X78652381Y-82376190D01*
X78652381Y-82090476D02*
X77652381Y-82090476D01*
X77795238Y-82185714D01*
X77890476Y-82280952D01*
X77938095Y-82376190D01*
X92428572Y-51652381D02*
X91952381Y-51652381D01*
X91952381Y-50652381D01*
X92761905Y-51128571D02*
X93095239Y-51128571D01*
X93238096Y-51652381D02*
X92761905Y-51652381D01*
X92761905Y-50652381D01*
X93238096Y-50652381D01*
X93666667Y-51652381D02*
X93666667Y-50652381D01*
X93904762Y-50652381D01*
X94047620Y-50700000D01*
X94142858Y-50795238D01*
X94190477Y-50890476D01*
X94238096Y-51080952D01*
X94238096Y-51223810D01*
X94190477Y-51414286D01*
X94142858Y-51509524D01*
X94047620Y-51604762D01*
X93904762Y-51652381D01*
X93666667Y-51652381D01*
X94619048Y-50747619D02*
X94666667Y-50700000D01*
X94761905Y-50652381D01*
X95000001Y-50652381D01*
X95095239Y-50700000D01*
X95142858Y-50747619D01*
X95190477Y-50842857D01*
X95190477Y-50938095D01*
X95142858Y-51080952D01*
X94571429Y-51652381D01*
X95190477Y-51652381D01*
X95809524Y-50652381D02*
X95904763Y-50652381D01*
X96000001Y-50700000D01*
X96047620Y-50747619D01*
X96095239Y-50842857D01*
X96142858Y-51033333D01*
X96142858Y-51271429D01*
X96095239Y-51461905D01*
X96047620Y-51557143D01*
X96000001Y-51604762D01*
X95904763Y-51652381D01*
X95809524Y-51652381D01*
X95714286Y-51604762D01*
X95666667Y-51557143D01*
X95619048Y-51461905D01*
X95571429Y-51271429D01*
X95571429Y-51033333D01*
X95619048Y-50842857D01*
X95666667Y-50747619D01*
X95714286Y-50700000D01*
X95809524Y-50652381D01*
X97095239Y-51652381D02*
X96523810Y-51652381D01*
X96809524Y-51652381D02*
X96809524Y-50652381D01*
X96714286Y-50795238D01*
X96619048Y-50890476D01*
X96523810Y-50938095D01*
X73252381Y-83971428D02*
X73252381Y-84447619D01*
X72252381Y-84447619D01*
X72728571Y-83638095D02*
X72728571Y-83304761D01*
X73252381Y-83161904D02*
X73252381Y-83638095D01*
X72252381Y-83638095D01*
X72252381Y-83161904D01*
X73252381Y-82733333D02*
X72252381Y-82733333D01*
X72252381Y-82495238D01*
X72300000Y-82352380D01*
X72395238Y-82257142D01*
X72490476Y-82209523D01*
X72680952Y-82161904D01*
X72823810Y-82161904D01*
X73014286Y-82209523D01*
X73109524Y-82257142D01*
X73204762Y-82352380D01*
X73252381Y-82495238D01*
X73252381Y-82733333D01*
X72252381Y-81828571D02*
X72252381Y-81209523D01*
X72633333Y-81542857D01*
X72633333Y-81399999D01*
X72680952Y-81304761D01*
X72728571Y-81257142D01*
X72823810Y-81209523D01*
X73061905Y-81209523D01*
X73157143Y-81257142D01*
X73204762Y-81304761D01*
X73252381Y-81399999D01*
X73252381Y-81685714D01*
X73204762Y-81780952D01*
X73157143Y-81828571D01*
X72252381Y-80590476D02*
X72252381Y-80495237D01*
X72300000Y-80399999D01*
X72347619Y-80352380D01*
X72442857Y-80304761D01*
X72633333Y-80257142D01*
X72871429Y-80257142D01*
X73061905Y-80304761D01*
X73157143Y-80352380D01*
X73204762Y-80399999D01*
X73252381Y-80495237D01*
X73252381Y-80590476D01*
X73204762Y-80685714D01*
X73157143Y-80733333D01*
X73061905Y-80780952D01*
X72871429Y-80828571D01*
X72633333Y-80828571D01*
X72442857Y-80780952D01*
X72347619Y-80733333D01*
X72300000Y-80685714D01*
X72252381Y-80590476D01*
X73252381Y-79304761D02*
X73252381Y-79876190D01*
X73252381Y-79590476D02*
X72252381Y-79590476D01*
X72395238Y-79685714D01*
X72490476Y-79780952D01*
X72538095Y-79876190D01*
X68952381Y-68471428D02*
X68952381Y-68947619D01*
X67952381Y-68947619D01*
X68428571Y-68138095D02*
X68428571Y-67804761D01*
X68952381Y-67661904D02*
X68952381Y-68138095D01*
X67952381Y-68138095D01*
X67952381Y-67661904D01*
X68952381Y-67233333D02*
X67952381Y-67233333D01*
X67952381Y-66995238D01*
X68000000Y-66852380D01*
X68095238Y-66757142D01*
X68190476Y-66709523D01*
X68380952Y-66661904D01*
X68523810Y-66661904D01*
X68714286Y-66709523D01*
X68809524Y-66757142D01*
X68904762Y-66852380D01*
X68952381Y-66995238D01*
X68952381Y-67233333D01*
X67952381Y-65757142D02*
X67952381Y-66233333D01*
X68428571Y-66280952D01*
X68380952Y-66233333D01*
X68333333Y-66138095D01*
X68333333Y-65899999D01*
X68380952Y-65804761D01*
X68428571Y-65757142D01*
X68523810Y-65709523D01*
X68761905Y-65709523D01*
X68857143Y-65757142D01*
X68904762Y-65804761D01*
X68952381Y-65899999D01*
X68952381Y-66138095D01*
X68904762Y-66233333D01*
X68857143Y-66280952D01*
X67952381Y-65090476D02*
X67952381Y-64995237D01*
X68000000Y-64899999D01*
X68047619Y-64852380D01*
X68142857Y-64804761D01*
X68333333Y-64757142D01*
X68571429Y-64757142D01*
X68761905Y-64804761D01*
X68857143Y-64852380D01*
X68904762Y-64899999D01*
X68952381Y-64995237D01*
X68952381Y-65090476D01*
X68904762Y-65185714D01*
X68857143Y-65233333D01*
X68761905Y-65280952D01*
X68571429Y-65328571D01*
X68333333Y-65328571D01*
X68142857Y-65280952D01*
X68047619Y-65233333D01*
X68000000Y-65185714D01*
X67952381Y-65090476D01*
X68047619Y-64376190D02*
X68000000Y-64328571D01*
X67952381Y-64233333D01*
X67952381Y-63995237D01*
X68000000Y-63899999D01*
X68047619Y-63852380D01*
X68142857Y-63804761D01*
X68238095Y-63804761D01*
X68380952Y-63852380D01*
X68952381Y-64423809D01*
X68952381Y-63804761D01*
X68028572Y-71852381D02*
X67552381Y-71852381D01*
X67552381Y-70852381D01*
X68361905Y-71328571D02*
X68695239Y-71328571D01*
X68838096Y-71852381D02*
X68361905Y-71852381D01*
X68361905Y-70852381D01*
X68838096Y-70852381D01*
X69266667Y-71852381D02*
X69266667Y-70852381D01*
X69504762Y-70852381D01*
X69647620Y-70900000D01*
X69742858Y-70995238D01*
X69790477Y-71090476D01*
X69838096Y-71280952D01*
X69838096Y-71423810D01*
X69790477Y-71614286D01*
X69742858Y-71709524D01*
X69647620Y-71804762D01*
X69504762Y-71852381D01*
X69266667Y-71852381D01*
X70742858Y-70852381D02*
X70266667Y-70852381D01*
X70219048Y-71328571D01*
X70266667Y-71280952D01*
X70361905Y-71233333D01*
X70600001Y-71233333D01*
X70695239Y-71280952D01*
X70742858Y-71328571D01*
X70790477Y-71423810D01*
X70790477Y-71661905D01*
X70742858Y-71757143D01*
X70695239Y-71804762D01*
X70600001Y-71852381D01*
X70361905Y-71852381D01*
X70266667Y-71804762D01*
X70219048Y-71757143D01*
X71409524Y-70852381D02*
X71504763Y-70852381D01*
X71600001Y-70900000D01*
X71647620Y-70947619D01*
X71695239Y-71042857D01*
X71742858Y-71233333D01*
X71742858Y-71471429D01*
X71695239Y-71661905D01*
X71647620Y-71757143D01*
X71600001Y-71804762D01*
X71504763Y-71852381D01*
X71409524Y-71852381D01*
X71314286Y-71804762D01*
X71266667Y-71757143D01*
X71219048Y-71661905D01*
X71171429Y-71471429D01*
X71171429Y-71233333D01*
X71219048Y-71042857D01*
X71266667Y-70947619D01*
X71314286Y-70900000D01*
X71409524Y-70852381D01*
X72695239Y-71852381D02*
X72123810Y-71852381D01*
X72409524Y-71852381D02*
X72409524Y-70852381D01*
X72314286Y-70995238D01*
X72219048Y-71090476D01*
X72123810Y-71138095D01*
X111502381Y-61619047D02*
X111026190Y-61952381D01*
X111502381Y-62190476D02*
X110502381Y-62190476D01*
X110502381Y-61809523D01*
X110550000Y-61714285D01*
X110597619Y-61666666D01*
X110692857Y-61619047D01*
X110835714Y-61619047D01*
X110930952Y-61666666D01*
X110978571Y-61714285D01*
X111026190Y-61809523D01*
X111026190Y-62190476D01*
X110597619Y-61238095D02*
X110550000Y-61190476D01*
X110502381Y-61095238D01*
X110502381Y-60857142D01*
X110550000Y-60761904D01*
X110597619Y-60714285D01*
X110692857Y-60666666D01*
X110788095Y-60666666D01*
X110930952Y-60714285D01*
X111502381Y-61285714D01*
X111502381Y-60666666D01*
X110502381Y-60047619D02*
X110502381Y-59952380D01*
X110550000Y-59857142D01*
X110597619Y-59809523D01*
X110692857Y-59761904D01*
X110883333Y-59714285D01*
X111121429Y-59714285D01*
X111311905Y-59761904D01*
X111407143Y-59809523D01*
X111454762Y-59857142D01*
X111502381Y-59952380D01*
X111502381Y-60047619D01*
X111454762Y-60142857D01*
X111407143Y-60190476D01*
X111311905Y-60238095D01*
X111121429Y-60285714D01*
X110883333Y-60285714D01*
X110692857Y-60238095D01*
X110597619Y-60190476D01*
X110550000Y-60142857D01*
X110502381Y-60047619D01*
X110502381Y-58809523D02*
X110502381Y-59285714D01*
X110978571Y-59333333D01*
X110930952Y-59285714D01*
X110883333Y-59190476D01*
X110883333Y-58952380D01*
X110930952Y-58857142D01*
X110978571Y-58809523D01*
X111073810Y-58761904D01*
X111311905Y-58761904D01*
X111407143Y-58809523D01*
X111454762Y-58857142D01*
X111502381Y-58952380D01*
X111502381Y-59190476D01*
X111454762Y-59285714D01*
X111407143Y-59333333D01*
X70952381Y-53319047D02*
X70476190Y-53652381D01*
X70952381Y-53890476D02*
X69952381Y-53890476D01*
X69952381Y-53509523D01*
X70000000Y-53414285D01*
X70047619Y-53366666D01*
X70142857Y-53319047D01*
X70285714Y-53319047D01*
X70380952Y-53366666D01*
X70428571Y-53414285D01*
X70476190Y-53509523D01*
X70476190Y-53890476D01*
X70285714Y-52461904D02*
X70952381Y-52461904D01*
X69904762Y-52700000D02*
X70619048Y-52938095D01*
X70619048Y-52319047D01*
X69952381Y-51747619D02*
X69952381Y-51652380D01*
X70000000Y-51557142D01*
X70047619Y-51509523D01*
X70142857Y-51461904D01*
X70333333Y-51414285D01*
X70571429Y-51414285D01*
X70761905Y-51461904D01*
X70857143Y-51509523D01*
X70904762Y-51557142D01*
X70952381Y-51652380D01*
X70952381Y-51747619D01*
X70904762Y-51842857D01*
X70857143Y-51890476D01*
X70761905Y-51938095D01*
X70571429Y-51985714D01*
X70333333Y-51985714D01*
X70142857Y-51938095D01*
X70047619Y-51890476D01*
X70000000Y-51842857D01*
X69952381Y-51747619D01*
X70952381Y-50461904D02*
X70952381Y-51033333D01*
X70952381Y-50747619D02*
X69952381Y-50747619D01*
X70095238Y-50842857D01*
X70190476Y-50938095D01*
X70238095Y-51033333D01*
X74452381Y-85419047D02*
X73976190Y-85752381D01*
X74452381Y-85990476D02*
X73452381Y-85990476D01*
X73452381Y-85609523D01*
X73500000Y-85514285D01*
X73547619Y-85466666D01*
X73642857Y-85419047D01*
X73785714Y-85419047D01*
X73880952Y-85466666D01*
X73928571Y-85514285D01*
X73976190Y-85609523D01*
X73976190Y-85990476D01*
X73452381Y-85085714D02*
X73452381Y-84466666D01*
X73833333Y-84800000D01*
X73833333Y-84657142D01*
X73880952Y-84561904D01*
X73928571Y-84514285D01*
X74023810Y-84466666D01*
X74261905Y-84466666D01*
X74357143Y-84514285D01*
X74404762Y-84561904D01*
X74452381Y-84657142D01*
X74452381Y-84942857D01*
X74404762Y-85038095D01*
X74357143Y-85085714D01*
X73452381Y-83847619D02*
X73452381Y-83752380D01*
X73500000Y-83657142D01*
X73547619Y-83609523D01*
X73642857Y-83561904D01*
X73833333Y-83514285D01*
X74071429Y-83514285D01*
X74261905Y-83561904D01*
X74357143Y-83609523D01*
X74404762Y-83657142D01*
X74452381Y-83752380D01*
X74452381Y-83847619D01*
X74404762Y-83942857D01*
X74357143Y-83990476D01*
X74261905Y-84038095D01*
X74071429Y-84085714D01*
X73833333Y-84085714D01*
X73642857Y-84038095D01*
X73547619Y-83990476D01*
X73500000Y-83942857D01*
X73452381Y-83847619D01*
X73785714Y-82657142D02*
X74452381Y-82657142D01*
X73404762Y-82895238D02*
X74119048Y-83133333D01*
X74119048Y-82514285D01*
X72580953Y-77152381D02*
X72247619Y-76676190D01*
X72009524Y-77152381D02*
X72009524Y-76152381D01*
X72390477Y-76152381D01*
X72485715Y-76200000D01*
X72533334Y-76247619D01*
X72580953Y-76342857D01*
X72580953Y-76485714D01*
X72533334Y-76580952D01*
X72485715Y-76628571D01*
X72390477Y-76676190D01*
X72009524Y-76676190D01*
X72914286Y-76152381D02*
X73533334Y-76152381D01*
X73200000Y-76533333D01*
X73342858Y-76533333D01*
X73438096Y-76580952D01*
X73485715Y-76628571D01*
X73533334Y-76723810D01*
X73533334Y-76961905D01*
X73485715Y-77057143D01*
X73438096Y-77104762D01*
X73342858Y-77152381D01*
X73057143Y-77152381D01*
X72961905Y-77104762D01*
X72914286Y-77057143D01*
X74152381Y-76152381D02*
X74247620Y-76152381D01*
X74342858Y-76200000D01*
X74390477Y-76247619D01*
X74438096Y-76342857D01*
X74485715Y-76533333D01*
X74485715Y-76771429D01*
X74438096Y-76961905D01*
X74390477Y-77057143D01*
X74342858Y-77104762D01*
X74247620Y-77152381D01*
X74152381Y-77152381D01*
X74057143Y-77104762D01*
X74009524Y-77057143D01*
X73961905Y-76961905D01*
X73914286Y-76771429D01*
X73914286Y-76533333D01*
X73961905Y-76342857D01*
X74009524Y-76247619D01*
X74057143Y-76200000D01*
X74152381Y-76152381D01*
X74819048Y-76152381D02*
X75438096Y-76152381D01*
X75104762Y-76533333D01*
X75247620Y-76533333D01*
X75342858Y-76580952D01*
X75390477Y-76628571D01*
X75438096Y-76723810D01*
X75438096Y-76961905D01*
X75390477Y-77057143D01*
X75342858Y-77104762D01*
X75247620Y-77152381D01*
X74961905Y-77152381D01*
X74866667Y-77104762D01*
X74819048Y-77057143D01*
X72580953Y-78952381D02*
X72247619Y-78476190D01*
X72009524Y-78952381D02*
X72009524Y-77952381D01*
X72390477Y-77952381D01*
X72485715Y-78000000D01*
X72533334Y-78047619D01*
X72580953Y-78142857D01*
X72580953Y-78285714D01*
X72533334Y-78380952D01*
X72485715Y-78428571D01*
X72390477Y-78476190D01*
X72009524Y-78476190D01*
X72914286Y-77952381D02*
X73533334Y-77952381D01*
X73200000Y-78333333D01*
X73342858Y-78333333D01*
X73438096Y-78380952D01*
X73485715Y-78428571D01*
X73533334Y-78523810D01*
X73533334Y-78761905D01*
X73485715Y-78857143D01*
X73438096Y-78904762D01*
X73342858Y-78952381D01*
X73057143Y-78952381D01*
X72961905Y-78904762D01*
X72914286Y-78857143D01*
X74152381Y-77952381D02*
X74247620Y-77952381D01*
X74342858Y-78000000D01*
X74390477Y-78047619D01*
X74438096Y-78142857D01*
X74485715Y-78333333D01*
X74485715Y-78571429D01*
X74438096Y-78761905D01*
X74390477Y-78857143D01*
X74342858Y-78904762D01*
X74247620Y-78952381D01*
X74152381Y-78952381D01*
X74057143Y-78904762D01*
X74009524Y-78857143D01*
X73961905Y-78761905D01*
X73914286Y-78571429D01*
X73914286Y-78333333D01*
X73961905Y-78142857D01*
X74009524Y-78047619D01*
X74057143Y-78000000D01*
X74152381Y-77952381D01*
X74866667Y-78047619D02*
X74914286Y-78000000D01*
X75009524Y-77952381D01*
X75247620Y-77952381D01*
X75342858Y-78000000D01*
X75390477Y-78047619D01*
X75438096Y-78142857D01*
X75438096Y-78238095D01*
X75390477Y-78380952D01*
X74819048Y-78952381D01*
X75438096Y-78952381D01*
X106480953Y-51252381D02*
X106147619Y-50776190D01*
X105909524Y-51252381D02*
X105909524Y-50252381D01*
X106290477Y-50252381D01*
X106385715Y-50300000D01*
X106433334Y-50347619D01*
X106480953Y-50442857D01*
X106480953Y-50585714D01*
X106433334Y-50680952D01*
X106385715Y-50728571D01*
X106290477Y-50776190D01*
X105909524Y-50776190D01*
X106861905Y-50347619D02*
X106909524Y-50300000D01*
X107004762Y-50252381D01*
X107242858Y-50252381D01*
X107338096Y-50300000D01*
X107385715Y-50347619D01*
X107433334Y-50442857D01*
X107433334Y-50538095D01*
X107385715Y-50680952D01*
X106814286Y-51252381D01*
X107433334Y-51252381D01*
X108052381Y-50252381D02*
X108147620Y-50252381D01*
X108242858Y-50300000D01*
X108290477Y-50347619D01*
X108338096Y-50442857D01*
X108385715Y-50633333D01*
X108385715Y-50871429D01*
X108338096Y-51061905D01*
X108290477Y-51157143D01*
X108242858Y-51204762D01*
X108147620Y-51252381D01*
X108052381Y-51252381D01*
X107957143Y-51204762D01*
X107909524Y-51157143D01*
X107861905Y-51061905D01*
X107814286Y-50871429D01*
X107814286Y-50633333D01*
X107861905Y-50442857D01*
X107909524Y-50347619D01*
X107957143Y-50300000D01*
X108052381Y-50252381D01*
X108957143Y-50680952D02*
X108861905Y-50633333D01*
X108814286Y-50585714D01*
X108766667Y-50490476D01*
X108766667Y-50442857D01*
X108814286Y-50347619D01*
X108861905Y-50300000D01*
X108957143Y-50252381D01*
X109147620Y-50252381D01*
X109242858Y-50300000D01*
X109290477Y-50347619D01*
X109338096Y-50442857D01*
X109338096Y-50490476D01*
X109290477Y-50585714D01*
X109242858Y-50633333D01*
X109147620Y-50680952D01*
X108957143Y-50680952D01*
X108861905Y-50728571D01*
X108814286Y-50776190D01*
X108766667Y-50871429D01*
X108766667Y-51061905D01*
X108814286Y-51157143D01*
X108861905Y-51204762D01*
X108957143Y-51252381D01*
X109147620Y-51252381D01*
X109242858Y-51204762D01*
X109290477Y-51157143D01*
X109338096Y-51061905D01*
X109338096Y-50871429D01*
X109290477Y-50776190D01*
X109242858Y-50728571D01*
X109147620Y-50680952D01*
X100752381Y-65119047D02*
X100276190Y-65452381D01*
X100752381Y-65690476D02*
X99752381Y-65690476D01*
X99752381Y-65309523D01*
X99800000Y-65214285D01*
X99847619Y-65166666D01*
X99942857Y-65119047D01*
X100085714Y-65119047D01*
X100180952Y-65166666D01*
X100228571Y-65214285D01*
X100276190Y-65309523D01*
X100276190Y-65690476D01*
X99847619Y-64738095D02*
X99800000Y-64690476D01*
X99752381Y-64595238D01*
X99752381Y-64357142D01*
X99800000Y-64261904D01*
X99847619Y-64214285D01*
X99942857Y-64166666D01*
X100038095Y-64166666D01*
X100180952Y-64214285D01*
X100752381Y-64785714D01*
X100752381Y-64166666D01*
X99752381Y-63547619D02*
X99752381Y-63452380D01*
X99800000Y-63357142D01*
X99847619Y-63309523D01*
X99942857Y-63261904D01*
X100133333Y-63214285D01*
X100371429Y-63214285D01*
X100561905Y-63261904D01*
X100657143Y-63309523D01*
X100704762Y-63357142D01*
X100752381Y-63452380D01*
X100752381Y-63547619D01*
X100704762Y-63642857D01*
X100657143Y-63690476D01*
X100561905Y-63738095D01*
X100371429Y-63785714D01*
X100133333Y-63785714D01*
X99942857Y-63738095D01*
X99847619Y-63690476D01*
X99800000Y-63642857D01*
X99752381Y-63547619D01*
X99752381Y-62880952D02*
X99752381Y-62214285D01*
X100752381Y-62642857D01*
X93852381Y-58619047D02*
X93376190Y-58952381D01*
X93852381Y-59190476D02*
X92852381Y-59190476D01*
X92852381Y-58809523D01*
X92900000Y-58714285D01*
X92947619Y-58666666D01*
X93042857Y-58619047D01*
X93185714Y-58619047D01*
X93280952Y-58666666D01*
X93328571Y-58714285D01*
X93376190Y-58809523D01*
X93376190Y-59190476D01*
X92947619Y-58238095D02*
X92900000Y-58190476D01*
X92852381Y-58095238D01*
X92852381Y-57857142D01*
X92900000Y-57761904D01*
X92947619Y-57714285D01*
X93042857Y-57666666D01*
X93138095Y-57666666D01*
X93280952Y-57714285D01*
X93852381Y-58285714D01*
X93852381Y-57666666D01*
X92852381Y-57047619D02*
X92852381Y-56952380D01*
X92900000Y-56857142D01*
X92947619Y-56809523D01*
X93042857Y-56761904D01*
X93233333Y-56714285D01*
X93471429Y-56714285D01*
X93661905Y-56761904D01*
X93757143Y-56809523D01*
X93804762Y-56857142D01*
X93852381Y-56952380D01*
X93852381Y-57047619D01*
X93804762Y-57142857D01*
X93757143Y-57190476D01*
X93661905Y-57238095D01*
X93471429Y-57285714D01*
X93233333Y-57285714D01*
X93042857Y-57238095D01*
X92947619Y-57190476D01*
X92900000Y-57142857D01*
X92852381Y-57047619D01*
X92852381Y-56380952D02*
X92852381Y-55761904D01*
X93233333Y-56095238D01*
X93233333Y-55952380D01*
X93280952Y-55857142D01*
X93328571Y-55809523D01*
X93423810Y-55761904D01*
X93661905Y-55761904D01*
X93757143Y-55809523D01*
X93804762Y-55857142D01*
X93852381Y-55952380D01*
X93852381Y-56238095D01*
X93804762Y-56333333D01*
X93757143Y-56380952D01*
X87152381Y-55319047D02*
X86676190Y-55652381D01*
X87152381Y-55890476D02*
X86152381Y-55890476D01*
X86152381Y-55509523D01*
X86200000Y-55414285D01*
X86247619Y-55366666D01*
X86342857Y-55319047D01*
X86485714Y-55319047D01*
X86580952Y-55366666D01*
X86628571Y-55414285D01*
X86676190Y-55509523D01*
X86676190Y-55890476D01*
X86247619Y-54938095D02*
X86200000Y-54890476D01*
X86152381Y-54795238D01*
X86152381Y-54557142D01*
X86200000Y-54461904D01*
X86247619Y-54414285D01*
X86342857Y-54366666D01*
X86438095Y-54366666D01*
X86580952Y-54414285D01*
X87152381Y-54985714D01*
X87152381Y-54366666D01*
X86152381Y-53747619D02*
X86152381Y-53652380D01*
X86200000Y-53557142D01*
X86247619Y-53509523D01*
X86342857Y-53461904D01*
X86533333Y-53414285D01*
X86771429Y-53414285D01*
X86961905Y-53461904D01*
X87057143Y-53509523D01*
X87104762Y-53557142D01*
X87152381Y-53652380D01*
X87152381Y-53747619D01*
X87104762Y-53842857D01*
X87057143Y-53890476D01*
X86961905Y-53938095D01*
X86771429Y-53985714D01*
X86533333Y-53985714D01*
X86342857Y-53938095D01*
X86247619Y-53890476D01*
X86200000Y-53842857D01*
X86152381Y-53747619D01*
X86247619Y-53033333D02*
X86200000Y-52985714D01*
X86152381Y-52890476D01*
X86152381Y-52652380D01*
X86200000Y-52557142D01*
X86247619Y-52509523D01*
X86342857Y-52461904D01*
X86438095Y-52461904D01*
X86580952Y-52509523D01*
X87152381Y-53080952D01*
X87152381Y-52461904D01*
X87052381Y-59019047D02*
X86576190Y-59352381D01*
X87052381Y-59590476D02*
X86052381Y-59590476D01*
X86052381Y-59209523D01*
X86100000Y-59114285D01*
X86147619Y-59066666D01*
X86242857Y-59019047D01*
X86385714Y-59019047D01*
X86480952Y-59066666D01*
X86528571Y-59114285D01*
X86576190Y-59209523D01*
X86576190Y-59590476D01*
X86147619Y-58638095D02*
X86100000Y-58590476D01*
X86052381Y-58495238D01*
X86052381Y-58257142D01*
X86100000Y-58161904D01*
X86147619Y-58114285D01*
X86242857Y-58066666D01*
X86338095Y-58066666D01*
X86480952Y-58114285D01*
X87052381Y-58685714D01*
X87052381Y-58066666D01*
X86052381Y-57447619D02*
X86052381Y-57352380D01*
X86100000Y-57257142D01*
X86147619Y-57209523D01*
X86242857Y-57161904D01*
X86433333Y-57114285D01*
X86671429Y-57114285D01*
X86861905Y-57161904D01*
X86957143Y-57209523D01*
X87004762Y-57257142D01*
X87052381Y-57352380D01*
X87052381Y-57447619D01*
X87004762Y-57542857D01*
X86957143Y-57590476D01*
X86861905Y-57638095D01*
X86671429Y-57685714D01*
X86433333Y-57685714D01*
X86242857Y-57638095D01*
X86147619Y-57590476D01*
X86100000Y-57542857D01*
X86052381Y-57447619D01*
X87052381Y-56161904D02*
X87052381Y-56733333D01*
X87052381Y-56447619D02*
X86052381Y-56447619D01*
X86195238Y-56542857D01*
X86290476Y-56638095D01*
X86338095Y-56733333D01*
X101352381Y-78219047D02*
X100876190Y-78552381D01*
X101352381Y-78790476D02*
X100352381Y-78790476D01*
X100352381Y-78409523D01*
X100400000Y-78314285D01*
X100447619Y-78266666D01*
X100542857Y-78219047D01*
X100685714Y-78219047D01*
X100780952Y-78266666D01*
X100828571Y-78314285D01*
X100876190Y-78409523D01*
X100876190Y-78790476D01*
X101352381Y-77266666D02*
X101352381Y-77838095D01*
X101352381Y-77552381D02*
X100352381Y-77552381D01*
X100495238Y-77647619D01*
X100590476Y-77742857D01*
X100638095Y-77838095D01*
X101352381Y-76314285D02*
X101352381Y-76885714D01*
X101352381Y-76600000D02*
X100352381Y-76600000D01*
X100495238Y-76695238D01*
X100590476Y-76790476D01*
X100638095Y-76885714D01*
X100352381Y-75695238D02*
X100352381Y-75599999D01*
X100400000Y-75504761D01*
X100447619Y-75457142D01*
X100542857Y-75409523D01*
X100733333Y-75361904D01*
X100971429Y-75361904D01*
X101161905Y-75409523D01*
X101257143Y-75457142D01*
X101304762Y-75504761D01*
X101352381Y-75599999D01*
X101352381Y-75695238D01*
X101304762Y-75790476D01*
X101257143Y-75838095D01*
X101161905Y-75885714D01*
X100971429Y-75933333D01*
X100733333Y-75933333D01*
X100542857Y-75885714D01*
X100447619Y-75838095D01*
X100400000Y-75790476D01*
X100352381Y-75695238D01*
X104752381Y-78119047D02*
X104276190Y-78452381D01*
X104752381Y-78690476D02*
X103752381Y-78690476D01*
X103752381Y-78309523D01*
X103800000Y-78214285D01*
X103847619Y-78166666D01*
X103942857Y-78119047D01*
X104085714Y-78119047D01*
X104180952Y-78166666D01*
X104228571Y-78214285D01*
X104276190Y-78309523D01*
X104276190Y-78690476D01*
X104752381Y-77166666D02*
X104752381Y-77738095D01*
X104752381Y-77452381D02*
X103752381Y-77452381D01*
X103895238Y-77547619D01*
X103990476Y-77642857D01*
X104038095Y-77738095D01*
X103752381Y-76547619D02*
X103752381Y-76452380D01*
X103800000Y-76357142D01*
X103847619Y-76309523D01*
X103942857Y-76261904D01*
X104133333Y-76214285D01*
X104371429Y-76214285D01*
X104561905Y-76261904D01*
X104657143Y-76309523D01*
X104704762Y-76357142D01*
X104752381Y-76452380D01*
X104752381Y-76547619D01*
X104704762Y-76642857D01*
X104657143Y-76690476D01*
X104561905Y-76738095D01*
X104371429Y-76785714D01*
X104133333Y-76785714D01*
X103942857Y-76738095D01*
X103847619Y-76690476D01*
X103800000Y-76642857D01*
X103752381Y-76547619D01*
X104752381Y-75738095D02*
X104752381Y-75547619D01*
X104704762Y-75452380D01*
X104657143Y-75404761D01*
X104514286Y-75309523D01*
X104323810Y-75261904D01*
X103942857Y-75261904D01*
X103847619Y-75309523D01*
X103800000Y-75357142D01*
X103752381Y-75452380D01*
X103752381Y-75642857D01*
X103800000Y-75738095D01*
X103847619Y-75785714D01*
X103942857Y-75833333D01*
X104180952Y-75833333D01*
X104276190Y-75785714D01*
X104323810Y-75738095D01*
X104371429Y-75642857D01*
X104371429Y-75452380D01*
X104323810Y-75357142D01*
X104276190Y-75309523D01*
X104180952Y-75261904D01*
X114452381Y-78119047D02*
X113976190Y-78452381D01*
X114452381Y-78690476D02*
X113452381Y-78690476D01*
X113452381Y-78309523D01*
X113500000Y-78214285D01*
X113547619Y-78166666D01*
X113642857Y-78119047D01*
X113785714Y-78119047D01*
X113880952Y-78166666D01*
X113928571Y-78214285D01*
X113976190Y-78309523D01*
X113976190Y-78690476D01*
X114452381Y-77166666D02*
X114452381Y-77738095D01*
X114452381Y-77452381D02*
X113452381Y-77452381D01*
X113595238Y-77547619D01*
X113690476Y-77642857D01*
X113738095Y-77738095D01*
X113452381Y-76547619D02*
X113452381Y-76452380D01*
X113500000Y-76357142D01*
X113547619Y-76309523D01*
X113642857Y-76261904D01*
X113833333Y-76214285D01*
X114071429Y-76214285D01*
X114261905Y-76261904D01*
X114357143Y-76309523D01*
X114404762Y-76357142D01*
X114452381Y-76452380D01*
X114452381Y-76547619D01*
X114404762Y-76642857D01*
X114357143Y-76690476D01*
X114261905Y-76738095D01*
X114071429Y-76785714D01*
X113833333Y-76785714D01*
X113642857Y-76738095D01*
X113547619Y-76690476D01*
X113500000Y-76642857D01*
X113452381Y-76547619D01*
X113880952Y-75642857D02*
X113833333Y-75738095D01*
X113785714Y-75785714D01*
X113690476Y-75833333D01*
X113642857Y-75833333D01*
X113547619Y-75785714D01*
X113500000Y-75738095D01*
X113452381Y-75642857D01*
X113452381Y-75452380D01*
X113500000Y-75357142D01*
X113547619Y-75309523D01*
X113642857Y-75261904D01*
X113690476Y-75261904D01*
X113785714Y-75309523D01*
X113833333Y-75357142D01*
X113880952Y-75452380D01*
X113880952Y-75642857D01*
X113928571Y-75738095D01*
X113976190Y-75785714D01*
X114071429Y-75833333D01*
X114261905Y-75833333D01*
X114357143Y-75785714D01*
X114404762Y-75738095D01*
X114452381Y-75642857D01*
X114452381Y-75452380D01*
X114404762Y-75357142D01*
X114357143Y-75309523D01*
X114261905Y-75261904D01*
X114071429Y-75261904D01*
X113976190Y-75309523D01*
X113928571Y-75357142D01*
X113880952Y-75452380D01*
X103252381Y-78219047D02*
X102776190Y-78552381D01*
X103252381Y-78790476D02*
X102252381Y-78790476D01*
X102252381Y-78409523D01*
X102300000Y-78314285D01*
X102347619Y-78266666D01*
X102442857Y-78219047D01*
X102585714Y-78219047D01*
X102680952Y-78266666D01*
X102728571Y-78314285D01*
X102776190Y-78409523D01*
X102776190Y-78790476D01*
X103252381Y-77266666D02*
X103252381Y-77838095D01*
X103252381Y-77552381D02*
X102252381Y-77552381D01*
X102395238Y-77647619D01*
X102490476Y-77742857D01*
X102538095Y-77838095D01*
X102252381Y-76647619D02*
X102252381Y-76552380D01*
X102300000Y-76457142D01*
X102347619Y-76409523D01*
X102442857Y-76361904D01*
X102633333Y-76314285D01*
X102871429Y-76314285D01*
X103061905Y-76361904D01*
X103157143Y-76409523D01*
X103204762Y-76457142D01*
X103252381Y-76552380D01*
X103252381Y-76647619D01*
X103204762Y-76742857D01*
X103157143Y-76790476D01*
X103061905Y-76838095D01*
X102871429Y-76885714D01*
X102633333Y-76885714D01*
X102442857Y-76838095D01*
X102347619Y-76790476D01*
X102300000Y-76742857D01*
X102252381Y-76647619D01*
X102252381Y-75980952D02*
X102252381Y-75314285D01*
X103252381Y-75742857D01*
X105152381Y-89719047D02*
X104676190Y-90052381D01*
X105152381Y-90290476D02*
X104152381Y-90290476D01*
X104152381Y-89909523D01*
X104200000Y-89814285D01*
X104247619Y-89766666D01*
X104342857Y-89719047D01*
X104485714Y-89719047D01*
X104580952Y-89766666D01*
X104628571Y-89814285D01*
X104676190Y-89909523D01*
X104676190Y-90290476D01*
X105152381Y-88766666D02*
X105152381Y-89338095D01*
X105152381Y-89052381D02*
X104152381Y-89052381D01*
X104295238Y-89147619D01*
X104390476Y-89242857D01*
X104438095Y-89338095D01*
X104152381Y-88147619D02*
X104152381Y-88052380D01*
X104200000Y-87957142D01*
X104247619Y-87909523D01*
X104342857Y-87861904D01*
X104533333Y-87814285D01*
X104771429Y-87814285D01*
X104961905Y-87861904D01*
X105057143Y-87909523D01*
X105104762Y-87957142D01*
X105152381Y-88052380D01*
X105152381Y-88147619D01*
X105104762Y-88242857D01*
X105057143Y-88290476D01*
X104961905Y-88338095D01*
X104771429Y-88385714D01*
X104533333Y-88385714D01*
X104342857Y-88338095D01*
X104247619Y-88290476D01*
X104200000Y-88242857D01*
X104152381Y-88147619D01*
X104152381Y-86957142D02*
X104152381Y-87147619D01*
X104200000Y-87242857D01*
X104247619Y-87290476D01*
X104390476Y-87385714D01*
X104580952Y-87433333D01*
X104961905Y-87433333D01*
X105057143Y-87385714D01*
X105104762Y-87338095D01*
X105152381Y-87242857D01*
X105152381Y-87052380D01*
X105104762Y-86957142D01*
X105057143Y-86909523D01*
X104961905Y-86861904D01*
X104723810Y-86861904D01*
X104628571Y-86909523D01*
X104580952Y-86957142D01*
X104533333Y-87052380D01*
X104533333Y-87242857D01*
X104580952Y-87338095D01*
X104628571Y-87385714D01*
X104723810Y-87433333D01*
X75402381Y-88619047D02*
X74926190Y-88952381D01*
X75402381Y-89190476D02*
X74402381Y-89190476D01*
X74402381Y-88809523D01*
X74450000Y-88714285D01*
X74497619Y-88666666D01*
X74592857Y-88619047D01*
X74735714Y-88619047D01*
X74830952Y-88666666D01*
X74878571Y-88714285D01*
X74926190Y-88809523D01*
X74926190Y-89190476D01*
X75402381Y-87666666D02*
X75402381Y-88238095D01*
X75402381Y-87952381D02*
X74402381Y-87952381D01*
X74545238Y-88047619D01*
X74640476Y-88142857D01*
X74688095Y-88238095D01*
X74402381Y-87047619D02*
X74402381Y-86952380D01*
X74450000Y-86857142D01*
X74497619Y-86809523D01*
X74592857Y-86761904D01*
X74783333Y-86714285D01*
X75021429Y-86714285D01*
X75211905Y-86761904D01*
X75307143Y-86809523D01*
X75354762Y-86857142D01*
X75402381Y-86952380D01*
X75402381Y-87047619D01*
X75354762Y-87142857D01*
X75307143Y-87190476D01*
X75211905Y-87238095D01*
X75021429Y-87285714D01*
X74783333Y-87285714D01*
X74592857Y-87238095D01*
X74497619Y-87190476D01*
X74450000Y-87142857D01*
X74402381Y-87047619D01*
X74402381Y-85809523D02*
X74402381Y-86285714D01*
X74878571Y-86333333D01*
X74830952Y-86285714D01*
X74783333Y-86190476D01*
X74783333Y-85952380D01*
X74830952Y-85857142D01*
X74878571Y-85809523D01*
X74973810Y-85761904D01*
X75211905Y-85761904D01*
X75307143Y-85809523D01*
X75354762Y-85857142D01*
X75402381Y-85952380D01*
X75402381Y-86190476D01*
X75354762Y-86285714D01*
X75307143Y-86333333D01*
X116402381Y-86219047D02*
X115926190Y-86552381D01*
X116402381Y-86790476D02*
X115402381Y-86790476D01*
X115402381Y-86409523D01*
X115450000Y-86314285D01*
X115497619Y-86266666D01*
X115592857Y-86219047D01*
X115735714Y-86219047D01*
X115830952Y-86266666D01*
X115878571Y-86314285D01*
X115926190Y-86409523D01*
X115926190Y-86790476D01*
X116402381Y-85266666D02*
X116402381Y-85838095D01*
X116402381Y-85552381D02*
X115402381Y-85552381D01*
X115545238Y-85647619D01*
X115640476Y-85742857D01*
X115688095Y-85838095D01*
X115402381Y-84647619D02*
X115402381Y-84552380D01*
X115450000Y-84457142D01*
X115497619Y-84409523D01*
X115592857Y-84361904D01*
X115783333Y-84314285D01*
X116021429Y-84314285D01*
X116211905Y-84361904D01*
X116307143Y-84409523D01*
X116354762Y-84457142D01*
X116402381Y-84552380D01*
X116402381Y-84647619D01*
X116354762Y-84742857D01*
X116307143Y-84790476D01*
X116211905Y-84838095D01*
X116021429Y-84885714D01*
X115783333Y-84885714D01*
X115592857Y-84838095D01*
X115497619Y-84790476D01*
X115450000Y-84742857D01*
X115402381Y-84647619D01*
X115402381Y-83980952D02*
X115402381Y-83361904D01*
X115783333Y-83695238D01*
X115783333Y-83552380D01*
X115830952Y-83457142D01*
X115878571Y-83409523D01*
X115973810Y-83361904D01*
X116211905Y-83361904D01*
X116307143Y-83409523D01*
X116354762Y-83457142D01*
X116402381Y-83552380D01*
X116402381Y-83838095D01*
X116354762Y-83933333D01*
X116307143Y-83980952D01*
X76280953Y-91852381D02*
X75947619Y-91376190D01*
X75709524Y-91852381D02*
X75709524Y-90852381D01*
X76090477Y-90852381D01*
X76185715Y-90900000D01*
X76233334Y-90947619D01*
X76280953Y-91042857D01*
X76280953Y-91185714D01*
X76233334Y-91280952D01*
X76185715Y-91328571D01*
X76090477Y-91376190D01*
X75709524Y-91376190D01*
X77233334Y-91852381D02*
X76661905Y-91852381D01*
X76947619Y-91852381D02*
X76947619Y-90852381D01*
X76852381Y-90995238D01*
X76757143Y-91090476D01*
X76661905Y-91138095D01*
X77852381Y-90852381D02*
X77947620Y-90852381D01*
X78042858Y-90900000D01*
X78090477Y-90947619D01*
X78138096Y-91042857D01*
X78185715Y-91233333D01*
X78185715Y-91471429D01*
X78138096Y-91661905D01*
X78090477Y-91757143D01*
X78042858Y-91804762D01*
X77947620Y-91852381D01*
X77852381Y-91852381D01*
X77757143Y-91804762D01*
X77709524Y-91757143D01*
X77661905Y-91661905D01*
X77614286Y-91471429D01*
X77614286Y-91233333D01*
X77661905Y-91042857D01*
X77709524Y-90947619D01*
X77757143Y-90900000D01*
X77852381Y-90852381D01*
X78566667Y-90947619D02*
X78614286Y-90900000D01*
X78709524Y-90852381D01*
X78947620Y-90852381D01*
X79042858Y-90900000D01*
X79090477Y-90947619D01*
X79138096Y-91042857D01*
X79138096Y-91138095D01*
X79090477Y-91280952D01*
X78519048Y-91852381D01*
X79138096Y-91852381D01*
X83280953Y-51252381D02*
X82947619Y-50776190D01*
X82709524Y-51252381D02*
X82709524Y-50252381D01*
X83090477Y-50252381D01*
X83185715Y-50300000D01*
X83233334Y-50347619D01*
X83280953Y-50442857D01*
X83280953Y-50585714D01*
X83233334Y-50680952D01*
X83185715Y-50728571D01*
X83090477Y-50776190D01*
X82709524Y-50776190D01*
X84233334Y-51252381D02*
X83661905Y-51252381D01*
X83947619Y-51252381D02*
X83947619Y-50252381D01*
X83852381Y-50395238D01*
X83757143Y-50490476D01*
X83661905Y-50538095D01*
X84852381Y-50252381D02*
X84947620Y-50252381D01*
X85042858Y-50300000D01*
X85090477Y-50347619D01*
X85138096Y-50442857D01*
X85185715Y-50633333D01*
X85185715Y-50871429D01*
X85138096Y-51061905D01*
X85090477Y-51157143D01*
X85042858Y-51204762D01*
X84947620Y-51252381D01*
X84852381Y-51252381D01*
X84757143Y-51204762D01*
X84709524Y-51157143D01*
X84661905Y-51061905D01*
X84614286Y-50871429D01*
X84614286Y-50633333D01*
X84661905Y-50442857D01*
X84709524Y-50347619D01*
X84757143Y-50300000D01*
X84852381Y-50252381D01*
X86138096Y-51252381D02*
X85566667Y-51252381D01*
X85852381Y-51252381D02*
X85852381Y-50252381D01*
X85757143Y-50395238D01*
X85661905Y-50490476D01*
X85566667Y-50538095D01*
X100752381Y-59419047D02*
X100276190Y-59752381D01*
X100752381Y-59990476D02*
X99752381Y-59990476D01*
X99752381Y-59609523D01*
X99800000Y-59514285D01*
X99847619Y-59466666D01*
X99942857Y-59419047D01*
X100085714Y-59419047D01*
X100180952Y-59466666D01*
X100228571Y-59514285D01*
X100276190Y-59609523D01*
X100276190Y-59990476D01*
X99847619Y-59038095D02*
X99800000Y-58990476D01*
X99752381Y-58895238D01*
X99752381Y-58657142D01*
X99800000Y-58561904D01*
X99847619Y-58514285D01*
X99942857Y-58466666D01*
X100038095Y-58466666D01*
X100180952Y-58514285D01*
X100752381Y-59085714D01*
X100752381Y-58466666D01*
X100752381Y-57514285D02*
X100752381Y-58085714D01*
X100752381Y-57800000D02*
X99752381Y-57800000D01*
X99895238Y-57895238D01*
X99990476Y-57990476D01*
X100038095Y-58085714D01*
X99752381Y-56895238D02*
X99752381Y-56799999D01*
X99800000Y-56704761D01*
X99847619Y-56657142D01*
X99942857Y-56609523D01*
X100133333Y-56561904D01*
X100371429Y-56561904D01*
X100561905Y-56609523D01*
X100657143Y-56657142D01*
X100704762Y-56704761D01*
X100752381Y-56799999D01*
X100752381Y-56895238D01*
X100704762Y-56990476D01*
X100657143Y-57038095D01*
X100561905Y-57085714D01*
X100371429Y-57133333D01*
X100133333Y-57133333D01*
X99942857Y-57085714D01*
X99847619Y-57038095D01*
X99800000Y-56990476D01*
X99752381Y-56895238D01*
X100180953Y-51152381D02*
X99847619Y-50676190D01*
X99609524Y-51152381D02*
X99609524Y-50152381D01*
X99990477Y-50152381D01*
X100085715Y-50200000D01*
X100133334Y-50247619D01*
X100180953Y-50342857D01*
X100180953Y-50485714D01*
X100133334Y-50580952D01*
X100085715Y-50628571D01*
X99990477Y-50676190D01*
X99609524Y-50676190D01*
X100561905Y-50247619D02*
X100609524Y-50200000D01*
X100704762Y-50152381D01*
X100942858Y-50152381D01*
X101038096Y-50200000D01*
X101085715Y-50247619D01*
X101133334Y-50342857D01*
X101133334Y-50438095D01*
X101085715Y-50580952D01*
X100514286Y-51152381D01*
X101133334Y-51152381D01*
X101752381Y-50152381D02*
X101847620Y-50152381D01*
X101942858Y-50200000D01*
X101990477Y-50247619D01*
X102038096Y-50342857D01*
X102085715Y-50533333D01*
X102085715Y-50771429D01*
X102038096Y-50961905D01*
X101990477Y-51057143D01*
X101942858Y-51104762D01*
X101847620Y-51152381D01*
X101752381Y-51152381D01*
X101657143Y-51104762D01*
X101609524Y-51057143D01*
X101561905Y-50961905D01*
X101514286Y-50771429D01*
X101514286Y-50533333D01*
X101561905Y-50342857D01*
X101609524Y-50247619D01*
X101657143Y-50200000D01*
X101752381Y-50152381D01*
X102561905Y-51152381D02*
X102752381Y-51152381D01*
X102847620Y-51104762D01*
X102895239Y-51057143D01*
X102990477Y-50914286D01*
X103038096Y-50723810D01*
X103038096Y-50342857D01*
X102990477Y-50247619D01*
X102942858Y-50200000D01*
X102847620Y-50152381D01*
X102657143Y-50152381D01*
X102561905Y-50200000D01*
X102514286Y-50247619D01*
X102466667Y-50342857D01*
X102466667Y-50580952D01*
X102514286Y-50676190D01*
X102561905Y-50723810D01*
X102657143Y-50771429D01*
X102847620Y-50771429D01*
X102942858Y-50723810D01*
X102990477Y-50676190D01*
X103038096Y-50580952D01*
X101252381Y-69019047D02*
X100776190Y-69352381D01*
X101252381Y-69590476D02*
X100252381Y-69590476D01*
X100252381Y-69209523D01*
X100300000Y-69114285D01*
X100347619Y-69066666D01*
X100442857Y-69019047D01*
X100585714Y-69019047D01*
X100680952Y-69066666D01*
X100728571Y-69114285D01*
X100776190Y-69209523D01*
X100776190Y-69590476D01*
X100347619Y-68638095D02*
X100300000Y-68590476D01*
X100252381Y-68495238D01*
X100252381Y-68257142D01*
X100300000Y-68161904D01*
X100347619Y-68114285D01*
X100442857Y-68066666D01*
X100538095Y-68066666D01*
X100680952Y-68114285D01*
X101252381Y-68685714D01*
X101252381Y-68066666D01*
X100252381Y-67447619D02*
X100252381Y-67352380D01*
X100300000Y-67257142D01*
X100347619Y-67209523D01*
X100442857Y-67161904D01*
X100633333Y-67114285D01*
X100871429Y-67114285D01*
X101061905Y-67161904D01*
X101157143Y-67209523D01*
X101204762Y-67257142D01*
X101252381Y-67352380D01*
X101252381Y-67447619D01*
X101204762Y-67542857D01*
X101157143Y-67590476D01*
X101061905Y-67638095D01*
X100871429Y-67685714D01*
X100633333Y-67685714D01*
X100442857Y-67638095D01*
X100347619Y-67590476D01*
X100300000Y-67542857D01*
X100252381Y-67447619D01*
X100252381Y-66257142D02*
X100252381Y-66447619D01*
X100300000Y-66542857D01*
X100347619Y-66590476D01*
X100490476Y-66685714D01*
X100680952Y-66733333D01*
X101061905Y-66733333D01*
X101157143Y-66685714D01*
X101204762Y-66638095D01*
X101252381Y-66542857D01*
X101252381Y-66352380D01*
X101204762Y-66257142D01*
X101157143Y-66209523D01*
X101061905Y-66161904D01*
X100823810Y-66161904D01*
X100728571Y-66209523D01*
X100680952Y-66257142D01*
X100633333Y-66352380D01*
X100633333Y-66542857D01*
X100680952Y-66638095D01*
X100728571Y-66685714D01*
X100823810Y-66733333D01*
X109402381Y-65569047D02*
X108926190Y-65902381D01*
X109402381Y-66140476D02*
X108402381Y-66140476D01*
X108402381Y-65759523D01*
X108450000Y-65664285D01*
X108497619Y-65616666D01*
X108592857Y-65569047D01*
X108735714Y-65569047D01*
X108830952Y-65616666D01*
X108878571Y-65664285D01*
X108926190Y-65759523D01*
X108926190Y-66140476D01*
X108497619Y-65188095D02*
X108450000Y-65140476D01*
X108402381Y-65045238D01*
X108402381Y-64807142D01*
X108450000Y-64711904D01*
X108497619Y-64664285D01*
X108592857Y-64616666D01*
X108688095Y-64616666D01*
X108830952Y-64664285D01*
X109402381Y-65235714D01*
X109402381Y-64616666D01*
X108402381Y-63997619D02*
X108402381Y-63902380D01*
X108450000Y-63807142D01*
X108497619Y-63759523D01*
X108592857Y-63711904D01*
X108783333Y-63664285D01*
X109021429Y-63664285D01*
X109211905Y-63711904D01*
X109307143Y-63759523D01*
X109354762Y-63807142D01*
X109402381Y-63902380D01*
X109402381Y-63997619D01*
X109354762Y-64092857D01*
X109307143Y-64140476D01*
X109211905Y-64188095D01*
X109021429Y-64235714D01*
X108783333Y-64235714D01*
X108592857Y-64188095D01*
X108497619Y-64140476D01*
X108450000Y-64092857D01*
X108402381Y-63997619D01*
X108735714Y-62807142D02*
X109402381Y-62807142D01*
X108354762Y-63045238D02*
X109069048Y-63283333D01*
X109069048Y-62664285D01*
X69880953Y-66102381D02*
X69547619Y-65626190D01*
X69309524Y-66102381D02*
X69309524Y-65102381D01*
X69690477Y-65102381D01*
X69785715Y-65150000D01*
X69833334Y-65197619D01*
X69880953Y-65292857D01*
X69880953Y-65435714D01*
X69833334Y-65530952D01*
X69785715Y-65578571D01*
X69690477Y-65626190D01*
X69309524Y-65626190D01*
X70785715Y-65102381D02*
X70309524Y-65102381D01*
X70261905Y-65578571D01*
X70309524Y-65530952D01*
X70404762Y-65483333D01*
X70642858Y-65483333D01*
X70738096Y-65530952D01*
X70785715Y-65578571D01*
X70833334Y-65673810D01*
X70833334Y-65911905D01*
X70785715Y-66007143D01*
X70738096Y-66054762D01*
X70642858Y-66102381D01*
X70404762Y-66102381D01*
X70309524Y-66054762D01*
X70261905Y-66007143D01*
X71452381Y-65102381D02*
X71547620Y-65102381D01*
X71642858Y-65150000D01*
X71690477Y-65197619D01*
X71738096Y-65292857D01*
X71785715Y-65483333D01*
X71785715Y-65721429D01*
X71738096Y-65911905D01*
X71690477Y-66007143D01*
X71642858Y-66054762D01*
X71547620Y-66102381D01*
X71452381Y-66102381D01*
X71357143Y-66054762D01*
X71309524Y-66007143D01*
X71261905Y-65911905D01*
X71214286Y-65721429D01*
X71214286Y-65483333D01*
X71261905Y-65292857D01*
X71309524Y-65197619D01*
X71357143Y-65150000D01*
X71452381Y-65102381D01*
X72738096Y-66102381D02*
X72166667Y-66102381D01*
X72452381Y-66102381D02*
X72452381Y-65102381D01*
X72357143Y-65245238D01*
X72261905Y-65340476D01*
X72166667Y-65388095D01*
X76180953Y-70452381D02*
X75847619Y-69976190D01*
X75609524Y-70452381D02*
X75609524Y-69452381D01*
X75990477Y-69452381D01*
X76085715Y-69500000D01*
X76133334Y-69547619D01*
X76180953Y-69642857D01*
X76180953Y-69785714D01*
X76133334Y-69880952D01*
X76085715Y-69928571D01*
X75990477Y-69976190D01*
X75609524Y-69976190D01*
X77085715Y-69452381D02*
X76609524Y-69452381D01*
X76561905Y-69928571D01*
X76609524Y-69880952D01*
X76704762Y-69833333D01*
X76942858Y-69833333D01*
X77038096Y-69880952D01*
X77085715Y-69928571D01*
X77133334Y-70023810D01*
X77133334Y-70261905D01*
X77085715Y-70357143D01*
X77038096Y-70404762D01*
X76942858Y-70452381D01*
X76704762Y-70452381D01*
X76609524Y-70404762D01*
X76561905Y-70357143D01*
X77752381Y-69452381D02*
X77847620Y-69452381D01*
X77942858Y-69500000D01*
X77990477Y-69547619D01*
X78038096Y-69642857D01*
X78085715Y-69833333D01*
X78085715Y-70071429D01*
X78038096Y-70261905D01*
X77990477Y-70357143D01*
X77942858Y-70404762D01*
X77847620Y-70452381D01*
X77752381Y-70452381D01*
X77657143Y-70404762D01*
X77609524Y-70357143D01*
X77561905Y-70261905D01*
X77514286Y-70071429D01*
X77514286Y-69833333D01*
X77561905Y-69642857D01*
X77609524Y-69547619D01*
X77657143Y-69500000D01*
X77752381Y-69452381D01*
X78466667Y-69547619D02*
X78514286Y-69500000D01*
X78609524Y-69452381D01*
X78847620Y-69452381D01*
X78942858Y-69500000D01*
X78990477Y-69547619D01*
X79038096Y-69642857D01*
X79038096Y-69738095D01*
X78990477Y-69880952D01*
X78419048Y-70452381D01*
X79038096Y-70452381D01*
X72180953Y-70552381D02*
X71847619Y-70076190D01*
X71609524Y-70552381D02*
X71609524Y-69552381D01*
X71990477Y-69552381D01*
X72085715Y-69600000D01*
X72133334Y-69647619D01*
X72180953Y-69742857D01*
X72180953Y-69885714D01*
X72133334Y-69980952D01*
X72085715Y-70028571D01*
X71990477Y-70076190D01*
X71609524Y-70076190D01*
X73085715Y-69552381D02*
X72609524Y-69552381D01*
X72561905Y-70028571D01*
X72609524Y-69980952D01*
X72704762Y-69933333D01*
X72942858Y-69933333D01*
X73038096Y-69980952D01*
X73085715Y-70028571D01*
X73133334Y-70123810D01*
X73133334Y-70361905D01*
X73085715Y-70457143D01*
X73038096Y-70504762D01*
X72942858Y-70552381D01*
X72704762Y-70552381D01*
X72609524Y-70504762D01*
X72561905Y-70457143D01*
X73752381Y-69552381D02*
X73847620Y-69552381D01*
X73942858Y-69600000D01*
X73990477Y-69647619D01*
X74038096Y-69742857D01*
X74085715Y-69933333D01*
X74085715Y-70171429D01*
X74038096Y-70361905D01*
X73990477Y-70457143D01*
X73942858Y-70504762D01*
X73847620Y-70552381D01*
X73752381Y-70552381D01*
X73657143Y-70504762D01*
X73609524Y-70457143D01*
X73561905Y-70361905D01*
X73514286Y-70171429D01*
X73514286Y-69933333D01*
X73561905Y-69742857D01*
X73609524Y-69647619D01*
X73657143Y-69600000D01*
X73752381Y-69552381D01*
X74419048Y-69552381D02*
X75038096Y-69552381D01*
X74704762Y-69933333D01*
X74847620Y-69933333D01*
X74942858Y-69980952D01*
X74990477Y-70028571D01*
X75038096Y-70123810D01*
X75038096Y-70361905D01*
X74990477Y-70457143D01*
X74942858Y-70504762D01*
X74847620Y-70552381D01*
X74561905Y-70552381D01*
X74466667Y-70504762D01*
X74419048Y-70457143D01*
X80580953Y-66952381D02*
X80247619Y-66476190D01*
X80009524Y-66952381D02*
X80009524Y-65952381D01*
X80390477Y-65952381D01*
X80485715Y-66000000D01*
X80533334Y-66047619D01*
X80580953Y-66142857D01*
X80580953Y-66285714D01*
X80533334Y-66380952D01*
X80485715Y-66428571D01*
X80390477Y-66476190D01*
X80009524Y-66476190D01*
X81485715Y-65952381D02*
X81009524Y-65952381D01*
X80961905Y-66428571D01*
X81009524Y-66380952D01*
X81104762Y-66333333D01*
X81342858Y-66333333D01*
X81438096Y-66380952D01*
X81485715Y-66428571D01*
X81533334Y-66523810D01*
X81533334Y-66761905D01*
X81485715Y-66857143D01*
X81438096Y-66904762D01*
X81342858Y-66952381D01*
X81104762Y-66952381D01*
X81009524Y-66904762D01*
X80961905Y-66857143D01*
X82152381Y-65952381D02*
X82247620Y-65952381D01*
X82342858Y-66000000D01*
X82390477Y-66047619D01*
X82438096Y-66142857D01*
X82485715Y-66333333D01*
X82485715Y-66571429D01*
X82438096Y-66761905D01*
X82390477Y-66857143D01*
X82342858Y-66904762D01*
X82247620Y-66952381D01*
X82152381Y-66952381D01*
X82057143Y-66904762D01*
X82009524Y-66857143D01*
X81961905Y-66761905D01*
X81914286Y-66571429D01*
X81914286Y-66333333D01*
X81961905Y-66142857D01*
X82009524Y-66047619D01*
X82057143Y-66000000D01*
X82152381Y-65952381D01*
X83390477Y-65952381D02*
X82914286Y-65952381D01*
X82866667Y-66428571D01*
X82914286Y-66380952D01*
X83009524Y-66333333D01*
X83247620Y-66333333D01*
X83342858Y-66380952D01*
X83390477Y-66428571D01*
X83438096Y-66523810D01*
X83438096Y-66761905D01*
X83390477Y-66857143D01*
X83342858Y-66904762D01*
X83247620Y-66952381D01*
X83009524Y-66952381D01*
X82914286Y-66904762D01*
X82866667Y-66857143D01*
X80280953Y-69702381D02*
X79947619Y-69226190D01*
X79709524Y-69702381D02*
X79709524Y-68702381D01*
X80090477Y-68702381D01*
X80185715Y-68750000D01*
X80233334Y-68797619D01*
X80280953Y-68892857D01*
X80280953Y-69035714D01*
X80233334Y-69130952D01*
X80185715Y-69178571D01*
X80090477Y-69226190D01*
X79709524Y-69226190D01*
X81185715Y-68702381D02*
X80709524Y-68702381D01*
X80661905Y-69178571D01*
X80709524Y-69130952D01*
X80804762Y-69083333D01*
X81042858Y-69083333D01*
X81138096Y-69130952D01*
X81185715Y-69178571D01*
X81233334Y-69273810D01*
X81233334Y-69511905D01*
X81185715Y-69607143D01*
X81138096Y-69654762D01*
X81042858Y-69702381D01*
X80804762Y-69702381D01*
X80709524Y-69654762D01*
X80661905Y-69607143D01*
X81852381Y-68702381D02*
X81947620Y-68702381D01*
X82042858Y-68750000D01*
X82090477Y-68797619D01*
X82138096Y-68892857D01*
X82185715Y-69083333D01*
X82185715Y-69321429D01*
X82138096Y-69511905D01*
X82090477Y-69607143D01*
X82042858Y-69654762D01*
X81947620Y-69702381D01*
X81852381Y-69702381D01*
X81757143Y-69654762D01*
X81709524Y-69607143D01*
X81661905Y-69511905D01*
X81614286Y-69321429D01*
X81614286Y-69083333D01*
X81661905Y-68892857D01*
X81709524Y-68797619D01*
X81757143Y-68750000D01*
X81852381Y-68702381D01*
X83042858Y-69035714D02*
X83042858Y-69702381D01*
X82804762Y-68654762D02*
X82566667Y-69369048D01*
X83185715Y-69369048D01*
X69247619Y-56447619D02*
X69200000Y-56542857D01*
X69104762Y-56638095D01*
X68961905Y-56780952D01*
X68914286Y-56876191D01*
X68914286Y-56971429D01*
X69152381Y-56923810D02*
X69104762Y-57019048D01*
X69009524Y-57114286D01*
X68819048Y-57161905D01*
X68485714Y-57161905D01*
X68295238Y-57114286D01*
X68200000Y-57019048D01*
X68152381Y-56923810D01*
X68152381Y-56733333D01*
X68200000Y-56638095D01*
X68295238Y-56542857D01*
X68485714Y-56495238D01*
X68819048Y-56495238D01*
X69009524Y-56542857D01*
X69104762Y-56638095D01*
X69152381Y-56733333D01*
X69152381Y-56923810D01*
X68485714Y-55638095D02*
X69152381Y-55638095D01*
X68104762Y-55876191D02*
X68819048Y-56114286D01*
X68819048Y-55495238D01*
X68152381Y-54923810D02*
X68152381Y-54828571D01*
X68200000Y-54733333D01*
X68247619Y-54685714D01*
X68342857Y-54638095D01*
X68533333Y-54590476D01*
X68771429Y-54590476D01*
X68961905Y-54638095D01*
X69057143Y-54685714D01*
X69104762Y-54733333D01*
X69152381Y-54828571D01*
X69152381Y-54923810D01*
X69104762Y-55019048D01*
X69057143Y-55066667D01*
X68961905Y-55114286D01*
X68771429Y-55161905D01*
X68533333Y-55161905D01*
X68342857Y-55114286D01*
X68247619Y-55066667D01*
X68200000Y-55019048D01*
X68152381Y-54923810D01*
X69152381Y-53638095D02*
X69152381Y-54209524D01*
X69152381Y-53923810D02*
X68152381Y-53923810D01*
X68295238Y-54019048D01*
X68390476Y-54114286D01*
X68438095Y-54209524D01*
X100252381Y-52547619D02*
X100157143Y-52500000D01*
X100061905Y-52404762D01*
X99919048Y-52261905D01*
X99823809Y-52214286D01*
X99728571Y-52214286D01*
X99776190Y-52452381D02*
X99680952Y-52404762D01*
X99585714Y-52309524D01*
X99538095Y-52119048D01*
X99538095Y-51785714D01*
X99585714Y-51595238D01*
X99680952Y-51500000D01*
X99776190Y-51452381D01*
X99966667Y-51452381D01*
X100061905Y-51500000D01*
X100157143Y-51595238D01*
X100204762Y-51785714D01*
X100204762Y-52119048D01*
X100157143Y-52309524D01*
X100061905Y-52404762D01*
X99966667Y-52452381D01*
X99776190Y-52452381D01*
X100585714Y-51547619D02*
X100633333Y-51500000D01*
X100728571Y-51452381D01*
X100966667Y-51452381D01*
X101061905Y-51500000D01*
X101109524Y-51547619D01*
X101157143Y-51642857D01*
X101157143Y-51738095D01*
X101109524Y-51880952D01*
X100538095Y-52452381D01*
X101157143Y-52452381D01*
X101776190Y-51452381D02*
X101871429Y-51452381D01*
X101966667Y-51500000D01*
X102014286Y-51547619D01*
X102061905Y-51642857D01*
X102109524Y-51833333D01*
X102109524Y-52071429D01*
X102061905Y-52261905D01*
X102014286Y-52357143D01*
X101966667Y-52404762D01*
X101871429Y-52452381D01*
X101776190Y-52452381D01*
X101680952Y-52404762D01*
X101633333Y-52357143D01*
X101585714Y-52261905D01*
X101538095Y-52071429D01*
X101538095Y-51833333D01*
X101585714Y-51642857D01*
X101633333Y-51547619D01*
X101680952Y-51500000D01*
X101776190Y-51452381D01*
X103014286Y-51452381D02*
X102538095Y-51452381D01*
X102490476Y-51928571D01*
X102538095Y-51880952D01*
X102633333Y-51833333D01*
X102871429Y-51833333D01*
X102966667Y-51880952D01*
X103014286Y-51928571D01*
X103061905Y-52023810D01*
X103061905Y-52261905D01*
X103014286Y-52357143D01*
X102966667Y-52404762D01*
X102871429Y-52452381D01*
X102633333Y-52452381D01*
X102538095Y-52404762D01*
X102490476Y-52357143D01*
X107052381Y-52547619D02*
X106957143Y-52500000D01*
X106861905Y-52404762D01*
X106719048Y-52261905D01*
X106623809Y-52214286D01*
X106528571Y-52214286D01*
X106576190Y-52452381D02*
X106480952Y-52404762D01*
X106385714Y-52309524D01*
X106338095Y-52119048D01*
X106338095Y-51785714D01*
X106385714Y-51595238D01*
X106480952Y-51500000D01*
X106576190Y-51452381D01*
X106766667Y-51452381D01*
X106861905Y-51500000D01*
X106957143Y-51595238D01*
X107004762Y-51785714D01*
X107004762Y-52119048D01*
X106957143Y-52309524D01*
X106861905Y-52404762D01*
X106766667Y-52452381D01*
X106576190Y-52452381D01*
X107385714Y-51547619D02*
X107433333Y-51500000D01*
X107528571Y-51452381D01*
X107766667Y-51452381D01*
X107861905Y-51500000D01*
X107909524Y-51547619D01*
X107957143Y-51642857D01*
X107957143Y-51738095D01*
X107909524Y-51880952D01*
X107338095Y-52452381D01*
X107957143Y-52452381D01*
X108576190Y-51452381D02*
X108671429Y-51452381D01*
X108766667Y-51500000D01*
X108814286Y-51547619D01*
X108861905Y-51642857D01*
X108909524Y-51833333D01*
X108909524Y-52071429D01*
X108861905Y-52261905D01*
X108814286Y-52357143D01*
X108766667Y-52404762D01*
X108671429Y-52452381D01*
X108576190Y-52452381D01*
X108480952Y-52404762D01*
X108433333Y-52357143D01*
X108385714Y-52261905D01*
X108338095Y-52071429D01*
X108338095Y-51833333D01*
X108385714Y-51642857D01*
X108433333Y-51547619D01*
X108480952Y-51500000D01*
X108576190Y-51452381D01*
X109766667Y-51785714D02*
X109766667Y-52452381D01*
X109528571Y-51404762D02*
X109290476Y-52119048D01*
X109909524Y-52119048D01*
X115852381Y-66347619D02*
X115757143Y-66300000D01*
X115661905Y-66204762D01*
X115519048Y-66061905D01*
X115423809Y-66014286D01*
X115328571Y-66014286D01*
X115376190Y-66252381D02*
X115280952Y-66204762D01*
X115185714Y-66109524D01*
X115138095Y-65919048D01*
X115138095Y-65585714D01*
X115185714Y-65395238D01*
X115280952Y-65300000D01*
X115376190Y-65252381D01*
X115566667Y-65252381D01*
X115661905Y-65300000D01*
X115757143Y-65395238D01*
X115804762Y-65585714D01*
X115804762Y-65919048D01*
X115757143Y-66109524D01*
X115661905Y-66204762D01*
X115566667Y-66252381D01*
X115376190Y-66252381D01*
X116185714Y-65347619D02*
X116233333Y-65300000D01*
X116328571Y-65252381D01*
X116566667Y-65252381D01*
X116661905Y-65300000D01*
X116709524Y-65347619D01*
X116757143Y-65442857D01*
X116757143Y-65538095D01*
X116709524Y-65680952D01*
X116138095Y-66252381D01*
X116757143Y-66252381D01*
X117376190Y-65252381D02*
X117471429Y-65252381D01*
X117566667Y-65300000D01*
X117614286Y-65347619D01*
X117661905Y-65442857D01*
X117709524Y-65633333D01*
X117709524Y-65871429D01*
X117661905Y-66061905D01*
X117614286Y-66157143D01*
X117566667Y-66204762D01*
X117471429Y-66252381D01*
X117376190Y-66252381D01*
X117280952Y-66204762D01*
X117233333Y-66157143D01*
X117185714Y-66061905D01*
X117138095Y-65871429D01*
X117138095Y-65633333D01*
X117185714Y-65442857D01*
X117233333Y-65347619D01*
X117280952Y-65300000D01*
X117376190Y-65252381D01*
X118042857Y-65252381D02*
X118661905Y-65252381D01*
X118328571Y-65633333D01*
X118471429Y-65633333D01*
X118566667Y-65680952D01*
X118614286Y-65728571D01*
X118661905Y-65823810D01*
X118661905Y-66061905D01*
X118614286Y-66157143D01*
X118566667Y-66204762D01*
X118471429Y-66252381D01*
X118185714Y-66252381D01*
X118090476Y-66204762D01*
X118042857Y-66157143D01*
X89352381Y-51247619D02*
X89257143Y-51200000D01*
X89161905Y-51104762D01*
X89019048Y-50961905D01*
X88923809Y-50914286D01*
X88828571Y-50914286D01*
X88876190Y-51152381D02*
X88780952Y-51104762D01*
X88685714Y-51009524D01*
X88638095Y-50819048D01*
X88638095Y-50485714D01*
X88685714Y-50295238D01*
X88780952Y-50200000D01*
X88876190Y-50152381D01*
X89066667Y-50152381D01*
X89161905Y-50200000D01*
X89257143Y-50295238D01*
X89304762Y-50485714D01*
X89304762Y-50819048D01*
X89257143Y-51009524D01*
X89161905Y-51104762D01*
X89066667Y-51152381D01*
X88876190Y-51152381D01*
X89685714Y-50247619D02*
X89733333Y-50200000D01*
X89828571Y-50152381D01*
X90066667Y-50152381D01*
X90161905Y-50200000D01*
X90209524Y-50247619D01*
X90257143Y-50342857D01*
X90257143Y-50438095D01*
X90209524Y-50580952D01*
X89638095Y-51152381D01*
X90257143Y-51152381D01*
X90876190Y-50152381D02*
X90971429Y-50152381D01*
X91066667Y-50200000D01*
X91114286Y-50247619D01*
X91161905Y-50342857D01*
X91209524Y-50533333D01*
X91209524Y-50771429D01*
X91161905Y-50961905D01*
X91114286Y-51057143D01*
X91066667Y-51104762D01*
X90971429Y-51152381D01*
X90876190Y-51152381D01*
X90780952Y-51104762D01*
X90733333Y-51057143D01*
X90685714Y-50961905D01*
X90638095Y-50771429D01*
X90638095Y-50533333D01*
X90685714Y-50342857D01*
X90733333Y-50247619D01*
X90780952Y-50200000D01*
X90876190Y-50152381D01*
X91590476Y-50247619D02*
X91638095Y-50200000D01*
X91733333Y-50152381D01*
X91971429Y-50152381D01*
X92066667Y-50200000D01*
X92114286Y-50247619D01*
X92161905Y-50342857D01*
X92161905Y-50438095D01*
X92114286Y-50580952D01*
X91542857Y-51152381D01*
X92161905Y-51152381D01*
X88952381Y-59847619D02*
X88857143Y-59800000D01*
X88761905Y-59704762D01*
X88619048Y-59561905D01*
X88523809Y-59514286D01*
X88428571Y-59514286D01*
X88476190Y-59752381D02*
X88380952Y-59704762D01*
X88285714Y-59609524D01*
X88238095Y-59419048D01*
X88238095Y-59085714D01*
X88285714Y-58895238D01*
X88380952Y-58800000D01*
X88476190Y-58752381D01*
X88666667Y-58752381D01*
X88761905Y-58800000D01*
X88857143Y-58895238D01*
X88904762Y-59085714D01*
X88904762Y-59419048D01*
X88857143Y-59609524D01*
X88761905Y-59704762D01*
X88666667Y-59752381D01*
X88476190Y-59752381D01*
X89285714Y-58847619D02*
X89333333Y-58800000D01*
X89428571Y-58752381D01*
X89666667Y-58752381D01*
X89761905Y-58800000D01*
X89809524Y-58847619D01*
X89857143Y-58942857D01*
X89857143Y-59038095D01*
X89809524Y-59180952D01*
X89238095Y-59752381D01*
X89857143Y-59752381D01*
X90476190Y-58752381D02*
X90571429Y-58752381D01*
X90666667Y-58800000D01*
X90714286Y-58847619D01*
X90761905Y-58942857D01*
X90809524Y-59133333D01*
X90809524Y-59371429D01*
X90761905Y-59561905D01*
X90714286Y-59657143D01*
X90666667Y-59704762D01*
X90571429Y-59752381D01*
X90476190Y-59752381D01*
X90380952Y-59704762D01*
X90333333Y-59657143D01*
X90285714Y-59561905D01*
X90238095Y-59371429D01*
X90238095Y-59133333D01*
X90285714Y-58942857D01*
X90333333Y-58847619D01*
X90380952Y-58800000D01*
X90476190Y-58752381D01*
X91761905Y-59752381D02*
X91190476Y-59752381D01*
X91476190Y-59752381D02*
X91476190Y-58752381D01*
X91380952Y-58895238D01*
X91285714Y-58990476D01*
X91190476Y-59038095D01*
X84252381Y-71747619D02*
X84157143Y-71700000D01*
X84061905Y-71604762D01*
X83919048Y-71461905D01*
X83823809Y-71414286D01*
X83728571Y-71414286D01*
X83776190Y-71652381D02*
X83680952Y-71604762D01*
X83585714Y-71509524D01*
X83538095Y-71319048D01*
X83538095Y-70985714D01*
X83585714Y-70795238D01*
X83680952Y-70700000D01*
X83776190Y-70652381D01*
X83966667Y-70652381D01*
X84061905Y-70700000D01*
X84157143Y-70795238D01*
X84204762Y-70985714D01*
X84204762Y-71319048D01*
X84157143Y-71509524D01*
X84061905Y-71604762D01*
X83966667Y-71652381D01*
X83776190Y-71652381D01*
X85109524Y-70652381D02*
X84633333Y-70652381D01*
X84585714Y-71128571D01*
X84633333Y-71080952D01*
X84728571Y-71033333D01*
X84966667Y-71033333D01*
X85061905Y-71080952D01*
X85109524Y-71128571D01*
X85157143Y-71223810D01*
X85157143Y-71461905D01*
X85109524Y-71557143D01*
X85061905Y-71604762D01*
X84966667Y-71652381D01*
X84728571Y-71652381D01*
X84633333Y-71604762D01*
X84585714Y-71557143D01*
X85776190Y-70652381D02*
X85871429Y-70652381D01*
X85966667Y-70700000D01*
X86014286Y-70747619D01*
X86061905Y-70842857D01*
X86109524Y-71033333D01*
X86109524Y-71271429D01*
X86061905Y-71461905D01*
X86014286Y-71557143D01*
X85966667Y-71604762D01*
X85871429Y-71652381D01*
X85776190Y-71652381D01*
X85680952Y-71604762D01*
X85633333Y-71557143D01*
X85585714Y-71461905D01*
X85538095Y-71271429D01*
X85538095Y-71033333D01*
X85585714Y-70842857D01*
X85633333Y-70747619D01*
X85680952Y-70700000D01*
X85776190Y-70652381D01*
X86490476Y-70747619D02*
X86538095Y-70700000D01*
X86633333Y-70652381D01*
X86871429Y-70652381D01*
X86966667Y-70700000D01*
X87014286Y-70747619D01*
X87061905Y-70842857D01*
X87061905Y-70938095D01*
X87014286Y-71080952D01*
X86442857Y-71652381D01*
X87061905Y-71652381D01*
X88147619Y-63947619D02*
X88100000Y-64042857D01*
X88004762Y-64138095D01*
X87861905Y-64280952D01*
X87814286Y-64376191D01*
X87814286Y-64471429D01*
X88052381Y-64423810D02*
X88004762Y-64519048D01*
X87909524Y-64614286D01*
X87719048Y-64661905D01*
X87385714Y-64661905D01*
X87195238Y-64614286D01*
X87100000Y-64519048D01*
X87052381Y-64423810D01*
X87052381Y-64233333D01*
X87100000Y-64138095D01*
X87195238Y-64042857D01*
X87385714Y-63995238D01*
X87719048Y-63995238D01*
X87909524Y-64042857D01*
X88004762Y-64138095D01*
X88052381Y-64233333D01*
X88052381Y-64423810D01*
X87052381Y-63090476D02*
X87052381Y-63566667D01*
X87528571Y-63614286D01*
X87480952Y-63566667D01*
X87433333Y-63471429D01*
X87433333Y-63233333D01*
X87480952Y-63138095D01*
X87528571Y-63090476D01*
X87623810Y-63042857D01*
X87861905Y-63042857D01*
X87957143Y-63090476D01*
X88004762Y-63138095D01*
X88052381Y-63233333D01*
X88052381Y-63471429D01*
X88004762Y-63566667D01*
X87957143Y-63614286D01*
X87052381Y-62423810D02*
X87052381Y-62328571D01*
X87100000Y-62233333D01*
X87147619Y-62185714D01*
X87242857Y-62138095D01*
X87433333Y-62090476D01*
X87671429Y-62090476D01*
X87861905Y-62138095D01*
X87957143Y-62185714D01*
X88004762Y-62233333D01*
X88052381Y-62328571D01*
X88052381Y-62423810D01*
X88004762Y-62519048D01*
X87957143Y-62566667D01*
X87861905Y-62614286D01*
X87671429Y-62661905D01*
X87433333Y-62661905D01*
X87242857Y-62614286D01*
X87147619Y-62566667D01*
X87100000Y-62519048D01*
X87052381Y-62423810D01*
X88052381Y-61138095D02*
X88052381Y-61709524D01*
X88052381Y-61423810D02*
X87052381Y-61423810D01*
X87195238Y-61519048D01*
X87290476Y-61614286D01*
X87338095Y-61709524D01*
M02*
