G04 #@! TF.FileFunction,Copper,L1,Top,Signal*
%FSLAX46Y46*%
G04 Gerber Fmt 4.6, Leading zero omitted, Abs format (unit mm)*
G04 Created by KiCad (PCBNEW 4.0.6) date 12/09/17 14:59:19*
%MOMM*%
%LPD*%
G01*
G04 APERTURE LIST*
%ADD10C,1.000000*%
%ADD11O,0.250000X1.000000*%
%ADD12O,1.000000X0.250000*%
%ADD13R,2.450000X2.450000*%
%ADD14R,1.900000X1.400000*%
%ADD15R,1.400000X1.800000*%
%ADD16R,1.500000X0.700000*%
%ADD17R,1.000000X1.500000*%
%ADD18R,0.350000X1.600000*%
%ADD19R,0.350000X1.000000*%
%ADD20C,1.000000*%
%ADD21O,2.500000X0.900000*%
%ADD22O,0.900000X2.500000*%
%ADD23R,6.000000X6.000000*%
%ADD24R,0.900000X0.700000*%
%ADD25R,0.700000X0.900000*%
%ADD26R,0.900000X0.800000*%
%ADD27R,0.900000X1.000000*%
%ADD28R,1.000000X0.400000*%
%ADD29R,0.400000X2.000000*%
%ADD30R,1.800000X1.900000*%
%ADD31R,2.300000X1.900000*%
%ADD32R,0.900000X1.200000*%
%ADD33R,1.200000X0.900000*%
%ADD34R,3.500000X1.600000*%
%ADD35C,1.300000*%
%ADD36C,1.700000*%
%ADD37R,1.100000X0.600000*%
%ADD38R,1.500000X1.000000*%
%ADD39R,0.800000X2.000000*%
%ADD40R,2.000000X1.000000*%
%ADD41R,0.800000X0.900000*%
%ADD42C,0.800000*%
%ADD43C,0.600000*%
%ADD44C,0.450000*%
%ADD45C,0.600000*%
%ADD46C,0.400000*%
%ADD47C,0.300000*%
%ADD48C,0.800000*%
%ADD49C,0.250000*%
%ADD50C,0.500000*%
G04 APERTURE END LIST*
D10*
D11*
X27250000Y-12600000D03*
X26750000Y-12600000D03*
X26250000Y-12600000D03*
X25750000Y-12600000D03*
X25250000Y-12600000D03*
X24750000Y-12600000D03*
D12*
X24000000Y-13350000D03*
X24000000Y-13850000D03*
X24000000Y-14350000D03*
X24000000Y-14850000D03*
X24000000Y-15350000D03*
X24000000Y-15850000D03*
D11*
X24750000Y-16600000D03*
X25250000Y-16600000D03*
X25750000Y-16600000D03*
X26250000Y-16600000D03*
X26750000Y-16600000D03*
X27250000Y-16600000D03*
D12*
X28000000Y-15850000D03*
X28000000Y-15350000D03*
X28000000Y-14850000D03*
X28000000Y-14350000D03*
X28000000Y-13850000D03*
X28000000Y-13350000D03*
D13*
X26000000Y-14600000D03*
D14*
X3700000Y-9600000D03*
X2800000Y-22800000D03*
D15*
X16800000Y-11200000D03*
X16800000Y-17200000D03*
D16*
X6600000Y-10500000D03*
X6600000Y-11600000D03*
X6200000Y-12700000D03*
X6600000Y-13800000D03*
X6200000Y-14900000D03*
X6600000Y-16000000D03*
X7000000Y-17100000D03*
X6600000Y-18200000D03*
D17*
X6000000Y-5700000D03*
X8000000Y-5700000D03*
D18*
X61575000Y-35200000D03*
X61575000Y-29600000D03*
X60925000Y-35200000D03*
X60925000Y-29600000D03*
X60275000Y-35200000D03*
X60275000Y-29600000D03*
X59625000Y-35200000D03*
X59625000Y-29600000D03*
X58975000Y-35200000D03*
X58975000Y-29600000D03*
X58325000Y-35200000D03*
X58325000Y-29600000D03*
X57675000Y-35200000D03*
X57675000Y-29600000D03*
X57025000Y-35200000D03*
X57025000Y-29600000D03*
D19*
X63075000Y-40150000D03*
X62425000Y-40150000D03*
X61775000Y-40150000D03*
X61125000Y-40150000D03*
X61125000Y-37650000D03*
X61775000Y-37650000D03*
X62425000Y-37650000D03*
X63075000Y-37650000D03*
D20*
X30400000Y-20500000D03*
D21*
X30500000Y-42400000D03*
X30500000Y-41130000D03*
X30500000Y-39860000D03*
X30500000Y-38590000D03*
X30500000Y-37320000D03*
X30500000Y-36050000D03*
X30500000Y-34780000D03*
X30500000Y-33510000D03*
X30500000Y-32240000D03*
X30500000Y-30970000D03*
X30500000Y-29700000D03*
X30500000Y-28430000D03*
X30500000Y-27160000D03*
X30500000Y-25890000D03*
D22*
X33785000Y-24400000D03*
X35055000Y-24400000D03*
X36325000Y-24400000D03*
X37595000Y-24400000D03*
X38865000Y-24400000D03*
X40135000Y-24400000D03*
X41405000Y-24400000D03*
X42675000Y-24400000D03*
X43945000Y-24400000D03*
X45215000Y-24400000D03*
D21*
X48500000Y-25890000D03*
X48500000Y-27160000D03*
X48500000Y-28430000D03*
X48500000Y-29700000D03*
X48500000Y-30970000D03*
X48500000Y-32240000D03*
X48500000Y-33510000D03*
X48500000Y-34780000D03*
X48500000Y-36050000D03*
X48500000Y-37320000D03*
X48500000Y-38590000D03*
X48500000Y-39860000D03*
X48500000Y-41130000D03*
X48500000Y-42400000D03*
D23*
X39800000Y-34700000D03*
D24*
X50700000Y-29000000D03*
X50700000Y-30800000D03*
D25*
X17200000Y-49100000D03*
X19000000Y-49100000D03*
D26*
X17200000Y-45600000D03*
X17200000Y-47600000D03*
X19200000Y-46600000D03*
D27*
X30550000Y-7000000D03*
X34649999Y-7000000D03*
X34649999Y-8600000D03*
X30550000Y-8600000D03*
X34650000Y-11800000D03*
X30550001Y-11800000D03*
X30550001Y-10200000D03*
X34650000Y-10200000D03*
D20*
X27900000Y-20600000D03*
D28*
X25050000Y-8600000D03*
X26950000Y-9250000D03*
X26950000Y-7950000D03*
X26950000Y-8600000D03*
X25050000Y-7950000D03*
X25050000Y-9250000D03*
D29*
X27350000Y-4750000D03*
X26700000Y-4750000D03*
X26050000Y-4750000D03*
X25400000Y-4750000D03*
X24750000Y-4750000D03*
D30*
X27200000Y-1600000D03*
D31*
X29800000Y-1600000D03*
X22300000Y-1600000D03*
D30*
X24900000Y-1600000D03*
D32*
X49050000Y-14800000D03*
X45750000Y-14800000D03*
D33*
X57800000Y-10650000D03*
X57800000Y-7350000D03*
D34*
X40400000Y-10960000D03*
X40400000Y-15840000D03*
D35*
X40000000Y-20300000D03*
X40000000Y-18400000D03*
D36*
X57400000Y-17400000D03*
X57400000Y-15400000D03*
D37*
X46600000Y-3000000D03*
X46600000Y-3950000D03*
X46600000Y-4900000D03*
X49400000Y-4900000D03*
X49400000Y-3000000D03*
D10*
G36*
X68550000Y-10700000D02*
X69300000Y-11200000D01*
X69300000Y-12200000D01*
X68550000Y-12700000D01*
X68550000Y-10700000D01*
X68550000Y-10700000D01*
G37*
D16*
X70000000Y-10200000D03*
X70000000Y-13200000D03*
X66300000Y-10200000D03*
D38*
X66300000Y-11700000D03*
D16*
X66300000Y-13200000D03*
D38*
X70000000Y-11700000D03*
D10*
G36*
X67750000Y-12700000D02*
X67000000Y-12200000D01*
X67000000Y-11200000D01*
X67750000Y-10700000D01*
X67750000Y-12700000D01*
X67750000Y-12700000D01*
G37*
D39*
X68150000Y-11700000D03*
D27*
X55050000Y-11600000D03*
X50950001Y-11600000D03*
X50950001Y-10000000D03*
X55050000Y-10000000D03*
D40*
X17500000Y-27000000D03*
X17500000Y-28500000D03*
X17500000Y-30000000D03*
X17500000Y-31500000D03*
X17500000Y-33000000D03*
X17500000Y-34500000D03*
X17500000Y-36000000D03*
X17500000Y-37500000D03*
X17500000Y-39000000D03*
X17500000Y-40500000D03*
X17500000Y-40500000D03*
X17500000Y-39000000D03*
X17500000Y-37500000D03*
X17500000Y-36000000D03*
X17500000Y-34500000D03*
X17500000Y-33000000D03*
X17500000Y-31500000D03*
X17500000Y-30000000D03*
X17500000Y-28500000D03*
X17500000Y-27000000D03*
X1500000Y-27000000D03*
X1500000Y-28500000D03*
X1500000Y-30000000D03*
X1500000Y-31500000D03*
X1500000Y-33000000D03*
X1500000Y-34500000D03*
X1500000Y-36000000D03*
X1500000Y-37500000D03*
X1500000Y-39000000D03*
X1500000Y-40500000D03*
D32*
X51350000Y-7600000D03*
X54650000Y-7600000D03*
D33*
X53800000Y-13150000D03*
X53800000Y-16450000D03*
D38*
X17500000Y-42100000D03*
X17500000Y-44100000D03*
X46800000Y-6800000D03*
X46800000Y-8800000D03*
X47200000Y-12800000D03*
X47200000Y-10800000D03*
X44400000Y-9800000D03*
X44400000Y-11800000D03*
X51200000Y-41300000D03*
X51200000Y-43300000D03*
X19800000Y-42100000D03*
X19800000Y-44100000D03*
D17*
X6000000Y-7800000D03*
X8000000Y-7800000D03*
X19600000Y-36000000D03*
X21600000Y-36000000D03*
D38*
X19800000Y-40500000D03*
X19800000Y-38500000D03*
X65100000Y-37900000D03*
X65100000Y-39900000D03*
X53400000Y-41300000D03*
X53400000Y-43300000D03*
D17*
X33100000Y-5000000D03*
X35100000Y-5000000D03*
D38*
X72600000Y-9650000D03*
X72600000Y-11650000D03*
X64200000Y-13200000D03*
X64200000Y-11200000D03*
D17*
X22600000Y-11600000D03*
X20600000Y-11600000D03*
X22600000Y-9400000D03*
X20600000Y-9400000D03*
D38*
X56300000Y-44400000D03*
X56300000Y-42400000D03*
X58300000Y-22700000D03*
X58300000Y-24700000D03*
X62300000Y-22700000D03*
X62300000Y-24700000D03*
X60300000Y-22700000D03*
X60300000Y-24700000D03*
X56300000Y-22700000D03*
X56300000Y-24700000D03*
X26300000Y-33400000D03*
X26300000Y-35400000D03*
X44400000Y-2800000D03*
X44400000Y-4800000D03*
D17*
X19600000Y-32400000D03*
X21600000Y-32400000D03*
X19800000Y-16400000D03*
X21800000Y-16400000D03*
X19800000Y-18600000D03*
X21800000Y-18600000D03*
D24*
X59600000Y-10700000D03*
X59600000Y-12500000D03*
X19500000Y-2800000D03*
X19500000Y-1000000D03*
D25*
X21300000Y-34200000D03*
X19500000Y-34200000D03*
X21100000Y-27000000D03*
X19300000Y-27000000D03*
X21100000Y-28500000D03*
X19300000Y-28500000D03*
X55350000Y-1600000D03*
X53550000Y-1600000D03*
D24*
X49200000Y-10700000D03*
X49200000Y-12500000D03*
X44400000Y-8300000D03*
X44400000Y-6500000D03*
X38200000Y-3300000D03*
X38200000Y-5100000D03*
X38200000Y-8300000D03*
X38200000Y-6500000D03*
X56300000Y-27900000D03*
X56300000Y-26100000D03*
X60300000Y-27900000D03*
X60300000Y-26100000D03*
X62300000Y-27900000D03*
X62300000Y-26100000D03*
X58300000Y-27900000D03*
X58300000Y-26100000D03*
X56300000Y-39000000D03*
X56300000Y-40800000D03*
X26400000Y-38400000D03*
X26400000Y-36600000D03*
X64500000Y-34200000D03*
X64500000Y-36000000D03*
D25*
X26100000Y-39800000D03*
X27900000Y-39800000D03*
X35200000Y-3100000D03*
X33400000Y-3100000D03*
D24*
X49200000Y-6900000D03*
X49200000Y-8700000D03*
D25*
X47300000Y-1400000D03*
X49100000Y-1400000D03*
D24*
X51200000Y-13500000D03*
X51200000Y-15300000D03*
X60400000Y-15350000D03*
X60400000Y-13550000D03*
D25*
X21900000Y-14200000D03*
X20100000Y-14200000D03*
X26500000Y-18400000D03*
X28300000Y-18400000D03*
X25100000Y-18400000D03*
X23300000Y-18400000D03*
X30500000Y-15200000D03*
X32300000Y-15200000D03*
X32300000Y-17800000D03*
X30500000Y-17800000D03*
D41*
X18000000Y-1000000D03*
X16000000Y-1000000D03*
X17000000Y-3000000D03*
D26*
X51600000Y-3200000D03*
X51600000Y-5200000D03*
X53600000Y-4200000D03*
X55800000Y-3200000D03*
X55800000Y-5200000D03*
X57800000Y-4200000D03*
X62200000Y-14600000D03*
X62200000Y-16600000D03*
X64200000Y-15600000D03*
X42200000Y-5000000D03*
X42200000Y-3000000D03*
X40200000Y-4000000D03*
X42200000Y-9150000D03*
X42200000Y-7150000D03*
X40200000Y-8150000D03*
X34200000Y-17550000D03*
X34200000Y-19550000D03*
X36200000Y-18550000D03*
X34200000Y-13400000D03*
X34200000Y-15400000D03*
X36200000Y-14400000D03*
D42*
X62400000Y-35200000D03*
X61023542Y-38923542D03*
X64500000Y-33400000D03*
X19200000Y-4000000D03*
X25200000Y-39800000D03*
X36440492Y-3106882D03*
X50700000Y-28200000D03*
X51538744Y-40531256D03*
X63809741Y-37882922D03*
X16300000Y-47600000D03*
X16400000Y-49100000D03*
X23546112Y-9408845D03*
X19200000Y-14200000D03*
X23841551Y-12466137D03*
X57800000Y-11600000D03*
X68827389Y-9793914D03*
X71200000Y-10200000D03*
X70000000Y-9400000D03*
X21605916Y-37392445D03*
X15912418Y-37514122D03*
X15933149Y-30078779D03*
X60280626Y-37460314D03*
X9122182Y-8164543D03*
X18472369Y-18639729D03*
X39263103Y-6029842D03*
X39346116Y-5216308D03*
X38504392Y-18124462D03*
X2400000Y-24100000D03*
X7800000Y-12500000D03*
X5800000Y-9600000D03*
X28164020Y-7567133D03*
X27759599Y-11369260D03*
X49200000Y-6000000D03*
X49300000Y-9800000D03*
X62300000Y-29600000D03*
X56200000Y-29600000D03*
X36200000Y-5000000D03*
X19800000Y-37400000D03*
X19600000Y-31100000D03*
X62300000Y-21750000D03*
X29431213Y-9023098D03*
X20600000Y-1424990D03*
X53400000Y-44100000D03*
X56300000Y-45350000D03*
X40036138Y-38224990D03*
X26100000Y-32300000D03*
X63720617Y-40036753D03*
X46695000Y-42400000D03*
X32095000Y-42400000D03*
X45110000Y-26090000D03*
X43235000Y-26965000D03*
X51200000Y-44200000D03*
X18584356Y-43120569D03*
X3200000Y-28500000D03*
X3164876Y-39007222D03*
X19700000Y-9400000D03*
X31600000Y-1600000D03*
X24050000Y-4750000D03*
X59236959Y-10098691D03*
X64600000Y-10200000D03*
X19600000Y-11600000D03*
X61310447Y-16555996D03*
X43188549Y-11494405D03*
X47579479Y-3643584D03*
X48000000Y-8400000D03*
X71100000Y-11700000D03*
X67900000Y-10000000D03*
D43*
X51595828Y-36022221D03*
X51615929Y-34151638D03*
X38595891Y-21513564D03*
X40242218Y-21495702D03*
D42*
X37700000Y-574999D03*
D43*
X26945162Y-25251638D03*
X26943265Y-32193118D03*
X32200000Y-33400000D03*
X26136721Y-26090588D03*
X26150914Y-30162748D03*
X32200000Y-32300000D03*
X24885923Y-26792255D03*
X32012446Y-40505125D03*
X24883513Y-30343534D03*
X50653424Y-40196419D03*
X39284562Y-41717258D03*
X46532623Y-41265565D03*
X21700000Y-42300000D03*
X19427304Y-1772694D03*
X41206592Y-22070708D03*
X38976722Y-7430461D03*
X35954422Y-9068420D03*
X53300000Y-21800000D03*
X54800000Y-24300000D03*
X59672756Y-39589052D03*
X46226001Y-39613953D03*
X31922404Y-39499408D03*
X45987657Y-38902820D03*
X58600000Y-38900000D03*
X32200000Y-36000000D03*
X46500000Y-31000000D03*
X28879250Y-15274990D03*
X28500000Y-21300000D03*
X28908506Y-38360318D03*
X55455013Y-34624990D03*
X48200000Y-24600000D03*
X53300000Y-24600000D03*
X56100000Y-37000000D03*
X29521218Y-14887182D03*
X29500000Y-21400000D03*
X28603481Y-37362053D03*
X27518275Y-30324409D03*
X27526775Y-28774387D03*
X15617244Y-41121668D03*
X38386402Y-41080135D03*
X15600000Y-35900000D03*
X4964302Y-7874573D03*
X4900000Y-14800000D03*
X26125509Y-10616518D03*
X25204263Y-11359462D03*
X50316357Y-35324307D03*
X46931496Y-27819936D03*
X58965483Y-36538431D03*
X33700000Y-26500000D03*
X46600000Y-33500000D03*
X46500000Y-32200000D03*
D42*
X45786989Y-10826234D03*
X45600000Y-7800000D03*
X42900000Y-16300000D03*
X22958854Y-13641146D03*
X40346321Y-5963711D03*
X27345824Y-10119165D03*
X41387821Y-8013918D03*
D44*
X19500000Y-2800000D02*
X19500000Y-3700000D01*
X19500000Y-3700000D02*
X19200000Y-4000000D01*
X18500000Y-1900000D02*
X19400000Y-2800000D01*
X19400000Y-2800000D02*
X19500000Y-2800000D01*
X16000000Y-1000000D02*
X16000000Y-1050000D01*
X16000000Y-1050000D02*
X16850000Y-1900000D01*
X16850000Y-1900000D02*
X18500000Y-1900000D01*
X61589227Y-38923542D02*
X61023542Y-38923542D01*
X62425000Y-39485353D02*
X61863189Y-38923542D01*
X62425000Y-40150000D02*
X62425000Y-39485353D01*
X61863189Y-38923542D02*
X61589227Y-38923542D01*
X61775000Y-37650000D02*
X61775000Y-38600000D01*
X61775000Y-38600000D02*
X61451458Y-38923542D01*
X61451458Y-38923542D02*
X61023542Y-38923542D01*
D45*
X61575000Y-35200000D02*
X62400000Y-35200000D01*
X64600000Y-33300000D02*
X64500000Y-33400000D01*
X64500000Y-34200000D02*
X64500000Y-33400000D01*
X26100000Y-39800000D02*
X25200000Y-39800000D01*
X36433610Y-3100000D02*
X36440492Y-3106882D01*
X36000000Y-3100000D02*
X36433610Y-3100000D01*
X35200000Y-3100000D02*
X36000000Y-3100000D01*
X50700000Y-29000000D02*
X50700000Y-28200000D01*
X51138745Y-40931255D02*
X51538744Y-40531256D01*
X51200000Y-41300000D02*
X51138745Y-41238745D01*
X51138745Y-41238745D02*
X51138745Y-40931255D01*
X65100000Y-37900000D02*
X63826819Y-37900000D01*
X63826819Y-37900000D02*
X63809741Y-37882922D01*
X63700000Y-37650000D02*
X63809741Y-37759741D01*
X63075000Y-37650000D02*
X63700000Y-37650000D01*
X63809741Y-37759741D02*
X63809741Y-37882922D01*
X51200000Y-41300000D02*
X53400000Y-41300000D01*
X48500000Y-41330000D02*
X51170000Y-41330000D01*
X51170000Y-41330000D02*
X51200000Y-41300000D01*
X17200000Y-47600000D02*
X16300000Y-47600000D01*
X17200000Y-49100000D02*
X16400000Y-49100000D01*
X17200000Y-47600000D02*
X17200000Y-49100000D01*
X22550000Y-11600000D02*
X23450000Y-11600000D01*
X23546112Y-9408845D02*
X22558845Y-9408845D01*
X22558845Y-9408845D02*
X22550000Y-9400000D01*
X22550000Y-9400000D02*
X22550000Y-11600000D01*
X20150000Y-14200000D02*
X19200000Y-14200000D01*
X23841551Y-11991551D02*
X23841551Y-12466137D01*
X24000000Y-12600000D02*
X23866137Y-12466137D01*
X23866137Y-12466137D02*
X23841551Y-12466137D01*
X23450000Y-11600000D02*
X23841551Y-11991551D01*
D46*
X24750000Y-12600000D02*
X25250000Y-12600000D01*
X24000000Y-13350000D02*
X24000000Y-12600000D01*
D45*
X24750000Y-12600000D02*
X24000000Y-12600000D01*
X57800000Y-10650000D02*
X57800000Y-11600000D01*
X71200000Y-10200000D02*
X72100000Y-10200000D01*
X72100000Y-10200000D02*
X72600000Y-9700000D01*
X69227388Y-10193913D02*
X68827389Y-9793914D01*
X69233475Y-10200000D02*
X69227388Y-10193913D01*
X70000000Y-10200000D02*
X69233475Y-10200000D01*
X70000000Y-10200000D02*
X71200000Y-10200000D01*
X70000000Y-10200000D02*
X70000000Y-9400000D01*
D44*
X21600000Y-37386529D02*
X21605916Y-37392445D01*
X21600000Y-36000000D02*
X21600000Y-37386529D01*
X15926540Y-37500000D02*
X15912418Y-37514122D01*
X17500000Y-37500000D02*
X15926540Y-37500000D01*
X16011928Y-30000000D02*
X15933149Y-30078779D01*
X17500000Y-30000000D02*
X16011928Y-30000000D01*
X61125000Y-37650000D02*
X60470312Y-37650000D01*
X60470312Y-37650000D02*
X60280626Y-37460314D01*
X62425000Y-37954608D02*
X62399990Y-37929598D01*
X62425000Y-38636810D02*
X62425000Y-37954608D01*
X62399990Y-37929598D02*
X62399990Y-37650000D01*
D46*
X62425000Y-38636810D02*
X63025010Y-39236820D01*
X63025010Y-39236820D02*
X63025010Y-40100010D01*
D44*
X8000000Y-7800000D02*
X8757639Y-7800000D01*
X8757639Y-7800000D02*
X9122182Y-8164543D01*
X8000000Y-5700000D02*
X8000000Y-7800000D01*
X18512098Y-18600000D02*
X18472369Y-18639729D01*
X19800000Y-18600000D02*
X18512098Y-18600000D01*
X38863104Y-6429841D02*
X39263103Y-6029842D01*
X38742945Y-6550000D02*
X38863104Y-6429841D01*
X38863104Y-5629843D02*
X39263103Y-6029842D01*
X38200000Y-5050000D02*
X38283261Y-5050000D01*
X38283261Y-5050000D02*
X38863104Y-5629843D01*
X38200000Y-6550000D02*
X38742945Y-6550000D01*
X39229808Y-5100000D02*
X39346116Y-5216308D01*
X38200000Y-5100000D02*
X39229808Y-5100000D01*
X38504392Y-18124462D02*
X39724462Y-18124462D01*
X39724462Y-18124462D02*
X40000000Y-18400000D01*
X2650000Y-24100000D02*
X2400000Y-24100000D01*
X2800000Y-22800000D02*
X2800000Y-23950000D01*
X2800000Y-23950000D02*
X2650000Y-24100000D01*
X7600000Y-12700000D02*
X7800000Y-12500000D01*
X6200000Y-12700000D02*
X7600000Y-12700000D01*
X6200000Y-12700000D02*
X5800000Y-12700000D01*
X5800000Y-12700000D02*
X5400001Y-12300001D01*
X5400001Y-12300001D02*
X5400001Y-9999999D01*
X5400001Y-9999999D02*
X5800000Y-9600000D01*
X3700000Y-9600000D02*
X5800000Y-9600000D01*
X47200000Y-10800000D02*
X49100000Y-10800000D01*
X49100000Y-10800000D02*
X49200000Y-10700000D01*
X28164020Y-8064013D02*
X28164020Y-7567133D01*
X26950000Y-8600000D02*
X27628033Y-8600000D01*
X27628033Y-8600000D02*
X28164020Y-8064013D01*
D47*
X27193914Y-11369260D02*
X27759599Y-11369260D01*
X26750000Y-11813174D02*
X27193914Y-11369260D01*
X26750000Y-13401142D02*
X26750000Y-11813174D01*
D44*
X66300000Y-11700000D02*
X67375000Y-11700000D01*
X70000000Y-11700000D02*
X68925000Y-11700000D01*
X68150000Y-11700000D02*
X68925000Y-11700000D01*
X67375000Y-11700000D02*
X68150000Y-11700000D01*
X49200000Y-6900000D02*
X49200000Y-6000000D01*
X49200000Y-10700000D02*
X49200000Y-9900000D01*
X49200000Y-9900000D02*
X49300000Y-9800000D01*
X19800000Y-16400000D02*
X19800000Y-18600000D01*
X61575000Y-29600000D02*
X62300000Y-29600000D01*
X60925000Y-29600000D02*
X61575000Y-29600000D01*
X60275000Y-29600000D02*
X60925000Y-29600000D01*
X57025000Y-29600000D02*
X56200000Y-29600000D01*
X35100000Y-5000000D02*
X36200000Y-5000000D01*
D47*
X26750000Y-13850000D02*
X26750000Y-13401142D01*
X26750000Y-13428460D02*
X26750000Y-13401142D01*
X26750000Y-12600000D02*
X26750000Y-13428460D01*
D44*
X19800000Y-38500000D02*
X19800000Y-37400000D01*
X19600000Y-32400000D02*
X19600000Y-31100000D01*
X62400000Y-21650000D02*
X62300000Y-21750000D01*
X62300000Y-22700000D02*
X62300000Y-21750000D01*
X58300000Y-22700000D02*
X56300000Y-22700000D01*
X60300000Y-22700000D02*
X58300000Y-22700000D01*
X62300000Y-22700000D02*
X60300000Y-22700000D01*
X29650000Y-8600000D02*
X29431213Y-8818787D01*
X30550000Y-8600000D02*
X29650000Y-8600000D01*
X29431213Y-8818787D02*
X29431213Y-9023098D01*
X20700000Y-1600000D02*
X20600000Y-1500000D01*
X22300000Y-1600000D02*
X20700000Y-1600000D01*
X20600000Y-1500000D02*
X20600000Y-1424990D01*
X53400000Y-43300000D02*
X53400000Y-44100000D01*
X56350000Y-45400000D02*
X56300000Y-45350000D01*
X56300000Y-44400000D02*
X56300000Y-45350000D01*
X40036138Y-37659305D02*
X40036138Y-38224990D01*
X40036138Y-35136138D02*
X40036138Y-37659305D01*
X39800000Y-34900000D02*
X40036138Y-35136138D01*
X26300000Y-32500000D02*
X26100000Y-32300000D01*
X26300000Y-33400000D02*
X26300000Y-32500000D01*
X65100000Y-39900000D02*
X63857370Y-39900000D01*
X63857370Y-39900000D02*
X63720617Y-40036753D01*
X63075000Y-40150000D02*
X63607370Y-40150000D01*
X63607370Y-40150000D02*
X63720617Y-40036753D01*
X63025010Y-40100010D02*
X63075000Y-40150000D01*
X63600000Y-39900000D02*
X63720617Y-40020617D01*
X63720617Y-40020617D02*
X63720617Y-40036753D01*
X48395000Y-42400000D02*
X46695000Y-42400000D01*
X32135111Y-42400000D02*
X32095000Y-42400000D01*
X32095000Y-42400000D02*
X30395000Y-42400000D01*
X45110000Y-24400000D02*
X45110000Y-26090000D01*
X51200000Y-43300000D02*
X51200000Y-44200000D01*
X51200000Y-43300000D02*
X53400000Y-43300000D01*
X48500000Y-42600000D02*
X50500000Y-42600000D01*
X50500000Y-42600000D02*
X51200000Y-43300000D01*
X30550001Y-10200000D02*
X34650000Y-10200000D01*
X30550000Y-8600000D02*
X30550000Y-10199999D01*
X30550000Y-10199999D02*
X30550001Y-10200000D01*
X34650000Y-10200000D02*
X34650000Y-8600001D01*
X34650000Y-8600001D02*
X34649999Y-8600000D01*
X18584356Y-43120569D02*
X18479431Y-43120569D01*
X18479431Y-43120569D02*
X17500000Y-44100000D01*
X1500000Y-28500000D02*
X3200000Y-28500000D01*
X2950000Y-39000000D02*
X3157654Y-39000000D01*
X3157654Y-39000000D02*
X3164876Y-39007222D01*
X1500000Y-39000000D02*
X2950000Y-39000000D01*
D48*
X20650000Y-9400000D02*
X19700000Y-9400000D01*
D44*
X20650000Y-9400000D02*
X20650000Y-11600000D01*
D48*
X20650000Y-11600000D02*
X19600000Y-11600000D01*
D44*
X24750000Y-4750000D02*
X24050000Y-4750000D01*
X27200000Y-1600000D02*
X24900000Y-1600000D01*
X22300000Y-1600000D02*
X24900000Y-1600000D01*
X24900000Y-1600000D02*
X24750000Y-1750000D01*
X24750000Y-1750000D02*
X24750000Y-4750000D01*
X29800000Y-1600000D02*
X27200000Y-1600000D01*
X29800000Y-1600000D02*
X31600000Y-1600000D01*
X72600000Y-11600000D02*
X71200000Y-11600000D01*
X71200000Y-11600000D02*
X71100000Y-11700000D01*
X59636958Y-10713042D02*
X59636958Y-10498690D01*
X59600000Y-10750000D02*
X59636958Y-10713042D01*
X59636958Y-10498690D02*
X59236959Y-10098691D01*
D48*
X64200000Y-10600000D02*
X64600000Y-10200000D01*
X64200000Y-11250000D02*
X64200000Y-10600000D01*
X64200000Y-11250000D02*
X65850000Y-11250000D01*
X65850000Y-11250000D02*
X66300000Y-11700000D01*
D44*
X62200000Y-16550000D02*
X62194004Y-16555996D01*
X61200000Y-16650000D02*
X61294004Y-16555996D01*
X61294004Y-16555996D02*
X61310447Y-16555996D01*
X61876132Y-16555996D02*
X61310447Y-16555996D01*
X62194004Y-16555996D02*
X61876132Y-16555996D01*
X47350000Y-1400000D02*
X47579479Y-1629479D01*
X47579479Y-1629479D02*
X47579479Y-3643584D01*
X43200000Y-11750000D02*
X43188549Y-11738549D01*
X44400000Y-11750000D02*
X43200000Y-11750000D01*
X43188549Y-11738549D02*
X43188549Y-11494405D01*
X47525001Y-3600001D02*
X47535896Y-3600001D01*
X47579479Y-3643584D02*
X47175002Y-3950000D01*
X47535896Y-3600001D02*
X47579479Y-3643584D01*
X49150000Y-6950000D02*
X49200000Y-6900000D01*
X49200000Y-6950000D02*
X49150000Y-6950000D01*
X47650000Y-8750000D02*
X48000000Y-8400000D01*
X46800000Y-8750000D02*
X47650000Y-8750000D01*
X70000000Y-11700000D02*
X71100000Y-11700000D01*
X68150000Y-11700000D02*
X68150000Y-10250000D01*
X68150000Y-10250000D02*
X67900000Y-10000000D01*
X47175002Y-3950000D02*
X46600000Y-3950000D01*
D49*
X40541224Y-22645710D02*
X41482594Y-22645710D01*
X46905114Y-22469796D02*
X51615929Y-27180611D01*
X36200000Y-18550000D02*
X36445514Y-18550000D01*
X36445514Y-18550000D02*
X40541224Y-22645710D01*
X41482594Y-22645710D02*
X41658508Y-22469796D01*
X41658508Y-22469796D02*
X46905114Y-22469796D01*
X51615929Y-27180611D02*
X51615929Y-33727374D01*
X51615929Y-33727374D02*
X51615929Y-34151638D01*
X36200000Y-17900000D02*
X36200000Y-18550000D01*
X34649999Y-7050000D02*
X35379420Y-7779421D01*
X34649999Y-7000000D02*
X34649999Y-7050000D01*
X35379420Y-7779421D02*
X35379420Y-9344422D01*
X36925001Y-10890003D02*
X36925001Y-17174999D01*
X36925001Y-17174999D02*
X36200000Y-17900000D01*
X35379420Y-9344422D02*
X36925001Y-10890003D01*
X48395000Y-39860000D02*
X49195000Y-39860000D01*
X51595828Y-37459172D02*
X51595828Y-36446485D01*
X49195000Y-39860000D02*
X51595828Y-37459172D01*
X51595828Y-36446485D02*
X51595828Y-36022221D01*
X34649999Y-7000000D02*
X34649999Y-6950000D01*
X34649999Y-6950000D02*
X33100000Y-5400001D01*
X33100000Y-5400001D02*
X33100000Y-5000000D01*
X30550000Y-7000000D02*
X30550000Y-6950000D01*
X30550000Y-6950000D02*
X32500000Y-5000000D01*
X32500000Y-5000000D02*
X33100000Y-5000000D01*
X33100000Y-5000000D02*
X33100000Y-3400000D01*
X33100000Y-3400000D02*
X33400000Y-3100000D01*
X34637134Y-21513564D02*
X38171627Y-21513564D01*
X32189433Y-26165567D02*
X32189433Y-23961265D01*
X31195000Y-27160000D02*
X32189433Y-26165567D01*
X30395000Y-27160000D02*
X31195000Y-27160000D01*
X32189433Y-23961265D02*
X34637134Y-21513564D01*
X38171627Y-21513564D02*
X38595891Y-21513564D01*
X40242218Y-21495702D02*
X41654298Y-21495702D01*
X41654298Y-21495702D02*
X48350000Y-14800000D01*
X48350000Y-14800000D02*
X49050000Y-14800000D01*
D44*
X37700000Y-574999D02*
X37745682Y-529317D01*
X37745682Y-529317D02*
X55704319Y-529317D01*
X55704319Y-529317D02*
X57800000Y-2624998D01*
X57800000Y-2624998D02*
X57800000Y-4200000D01*
X59050000Y-8250000D02*
X59050000Y-7350000D01*
X64200000Y-13150000D02*
X63950000Y-13150000D01*
X63950000Y-13150000D02*
X59050000Y-8250000D01*
D48*
X66300000Y-13200000D02*
X64250000Y-13200000D01*
X64250000Y-13200000D02*
X64200000Y-13150000D01*
D44*
X57800000Y-7350000D02*
X59050000Y-7350000D01*
X66250000Y-13150000D02*
X66300000Y-13200000D01*
X66300000Y-13200000D02*
X70000000Y-13200000D01*
X57800000Y-4200000D02*
X57800000Y-7350000D01*
D49*
X48425695Y-34749305D02*
X48395000Y-34780000D01*
X52654283Y-34500725D02*
X52405703Y-34749305D01*
X52654283Y-24394713D02*
X52654283Y-34500725D01*
X60400000Y-15350000D02*
X60400000Y-16648996D01*
X60400000Y-16648996D02*
X52654283Y-24394713D01*
X52405703Y-34749305D02*
X48425695Y-34749305D01*
X26520898Y-25251638D02*
X26945162Y-25251638D01*
X22756636Y-25251638D02*
X26520898Y-25251638D01*
X9104998Y-11600000D02*
X22756636Y-25251638D01*
X6600000Y-11600000D02*
X9104998Y-11600000D01*
X6600000Y-11600000D02*
X7000000Y-11600000D01*
X27243264Y-32493117D02*
X26943265Y-32193118D01*
X30395000Y-33510000D02*
X28260147Y-33510000D01*
X28260147Y-33510000D02*
X27243264Y-32493117D01*
X30395000Y-33510000D02*
X32090000Y-33510000D01*
X32090000Y-33510000D02*
X32200000Y-33400000D01*
X25712457Y-26090588D02*
X26136721Y-26090588D01*
X22696688Y-26090588D02*
X25712457Y-26090588D01*
X10406100Y-13800000D02*
X22696688Y-26090588D01*
X6600000Y-13800000D02*
X10406100Y-13800000D01*
X26150914Y-30587012D02*
X26150914Y-30162748D01*
X27803902Y-32240000D02*
X26150914Y-30587012D01*
X30395000Y-32240000D02*
X27803902Y-32240000D01*
X30395000Y-32240000D02*
X32140000Y-32240000D01*
X32140000Y-32240000D02*
X32200000Y-32300000D01*
X24461659Y-26792255D02*
X24885923Y-26792255D01*
X6600000Y-16000000D02*
X11960702Y-16000000D01*
X22752957Y-26792255D02*
X24461659Y-26792255D01*
X11960702Y-16000000D02*
X22752957Y-26792255D01*
X32000000Y-41130000D02*
X32012446Y-41117554D01*
X30500000Y-41130000D02*
X32000000Y-41130000D01*
X32012446Y-41117554D02*
X32012446Y-40929389D01*
X32012446Y-40929389D02*
X32012446Y-40505125D01*
X24883513Y-30343534D02*
X24524999Y-30702048D01*
X24524999Y-30702048D02*
X24524999Y-40124001D01*
X24524999Y-40124001D02*
X25530998Y-41130000D01*
X25530998Y-41130000D02*
X30500000Y-41130000D01*
X50953423Y-39896420D02*
X50653424Y-40196419D01*
X57500002Y-36424998D02*
X54424845Y-36424998D01*
X57675000Y-36250000D02*
X57500002Y-36424998D01*
X57675000Y-35200000D02*
X57675000Y-36250000D01*
X54424845Y-36424998D02*
X50953423Y-39896420D01*
X39708826Y-41717258D02*
X39284562Y-41717258D01*
X46532623Y-41265565D02*
X46080930Y-41717258D01*
X46080930Y-41717258D02*
X39708826Y-41717258D01*
X21700000Y-42300000D02*
X21700000Y-45354998D01*
X21700000Y-45354998D02*
X19000000Y-48054998D01*
X19000000Y-49100000D02*
X19000000Y-48054998D01*
X19000000Y-48054998D02*
X17200000Y-46254998D01*
X17200000Y-46254998D02*
X17200000Y-46250000D01*
X17200000Y-46250000D02*
X17200000Y-45600000D01*
X19427304Y-1348430D02*
X19427304Y-1772694D01*
X19427304Y-1227304D02*
X19427304Y-1348430D01*
X19200000Y-1000000D02*
X19427304Y-1227304D01*
X18000000Y-1000000D02*
X19500000Y-1000000D01*
X41805851Y-21895713D02*
X41630856Y-22070708D01*
X52780023Y-21895713D02*
X41805851Y-21895713D01*
X41630856Y-22070708D02*
X41206592Y-22070708D01*
X52875736Y-21800000D02*
X52780023Y-21895713D01*
X53300000Y-21800000D02*
X52875736Y-21800000D01*
X35954422Y-9068420D02*
X37592381Y-7430461D01*
X38552458Y-7430461D02*
X38976722Y-7430461D01*
X37592381Y-7430461D02*
X38552458Y-7430461D01*
X58325000Y-35200000D02*
X58325000Y-34150000D01*
X58325000Y-34150000D02*
X55507502Y-31332502D01*
X55507502Y-31332502D02*
X54700000Y-31332502D01*
X54700000Y-31332502D02*
X54700000Y-24400000D01*
X54700000Y-24400000D02*
X54800000Y-24300000D01*
X30500000Y-25890000D02*
X30500000Y-25295000D01*
X30500000Y-25295000D02*
X30395000Y-25190000D01*
X35400000Y-15850000D02*
X35400000Y-20185000D01*
X35400000Y-20185000D02*
X30395000Y-25190000D01*
X36200000Y-14400000D02*
X36200000Y-15050000D01*
X30550001Y-11800000D02*
X34650000Y-11800000D01*
X34650000Y-11800000D02*
X35350000Y-11800000D01*
X36200000Y-12650000D02*
X36200000Y-13750000D01*
X35350000Y-11800000D02*
X36200000Y-12650000D01*
X36200000Y-13750000D02*
X36200000Y-14400000D01*
X36200000Y-15050000D02*
X35400000Y-15850000D01*
X59605624Y-39055624D02*
X60400000Y-39850000D01*
X59605624Y-37095666D02*
X59605624Y-39055624D01*
X60275000Y-36426290D02*
X59605624Y-37095666D01*
X60275000Y-35200000D02*
X60275000Y-36426290D01*
X60097020Y-39589052D02*
X59672756Y-39589052D01*
X60139052Y-39589052D02*
X60097020Y-39589052D01*
X60400000Y-39850000D02*
X60139052Y-39589052D01*
X46111456Y-39499408D02*
X46226001Y-39613953D01*
X31922404Y-39499408D02*
X46111456Y-39499408D01*
X27900000Y-39800000D02*
X30440000Y-39800000D01*
X30440000Y-39800000D02*
X30500000Y-39860000D01*
X60700000Y-40150000D02*
X60400000Y-39850000D01*
X61125000Y-40150000D02*
X60700000Y-40150000D01*
X30395000Y-39860000D02*
X29595000Y-39860000D01*
X31922404Y-39832596D02*
X31922404Y-39499408D01*
X31895000Y-39860000D02*
X31922404Y-39832596D01*
X30395000Y-39860000D02*
X31895000Y-39860000D01*
X45563393Y-38902820D02*
X45987657Y-38902820D01*
X35102820Y-38902820D02*
X45563393Y-38902820D01*
X32200000Y-36000000D02*
X35102820Y-38902820D01*
X60925000Y-35200000D02*
X60925000Y-36250000D01*
X60925000Y-36250000D02*
X61475000Y-36800000D01*
X61475000Y-36800000D02*
X61997500Y-36800000D01*
X60925000Y-35200000D02*
X60925000Y-35727500D01*
X66621010Y-36800000D02*
X64500000Y-36800000D01*
X64500000Y-36800000D02*
X61997500Y-36800000D01*
X64500000Y-36000000D02*
X64500000Y-36600000D01*
X64500000Y-36600000D02*
X64500000Y-36800000D01*
X58600000Y-40700000D02*
X58825001Y-40925001D01*
X58825001Y-40925001D02*
X61749999Y-40925001D01*
X61749999Y-40925001D02*
X61775000Y-40900000D01*
X61775000Y-40900000D02*
X61775000Y-40150000D01*
X58600000Y-38900000D02*
X58600000Y-40700000D01*
X61775000Y-40900000D02*
X61800001Y-40925001D01*
X61800001Y-40925001D02*
X66621010Y-40925001D01*
X66621010Y-40925001D02*
X66621010Y-36800000D01*
X31945000Y-36000000D02*
X32200000Y-36000000D01*
X30395000Y-36050000D02*
X31895000Y-36050000D01*
X31895000Y-36050000D02*
X31945000Y-36000000D01*
X50700000Y-30800000D02*
X48670000Y-30800000D01*
X48670000Y-30800000D02*
X48500000Y-30970000D01*
X46500000Y-31000000D02*
X48365000Y-31000000D01*
X48365000Y-31000000D02*
X48395000Y-30970000D01*
X28804240Y-15350000D02*
X28879250Y-15274990D01*
X28000000Y-15350000D02*
X28804240Y-15350000D01*
X27900000Y-20600000D02*
X27900000Y-20700000D01*
X27900000Y-20700000D02*
X28500000Y-21300000D01*
X26400000Y-38400000D02*
X28868824Y-38400000D01*
X28868824Y-38400000D02*
X28908506Y-38360318D01*
X30395000Y-38590000D02*
X30165318Y-38360318D01*
X30165318Y-38360318D02*
X29332770Y-38360318D01*
X29332770Y-38360318D02*
X28908506Y-38360318D01*
X53300000Y-32469977D02*
X55155014Y-34324991D01*
X53300000Y-24600000D02*
X53300000Y-32469977D01*
X55155014Y-34324991D02*
X55455013Y-34624990D01*
X48200000Y-24600000D02*
X46474990Y-22874990D01*
X46474990Y-22874990D02*
X44670010Y-22874990D01*
X44670010Y-22874990D02*
X43945000Y-23600000D01*
X43945000Y-23600000D02*
X43945000Y-24400000D01*
X56300000Y-38000000D02*
X56300000Y-37200000D01*
X56300000Y-37200000D02*
X56100000Y-37000000D01*
X56300000Y-39000000D02*
X56300000Y-38000000D01*
X58300000Y-27900000D02*
X58300000Y-29575000D01*
X58300000Y-29575000D02*
X58325000Y-29600000D01*
X59650001Y-30675001D02*
X59625000Y-30650000D01*
X62224001Y-30675001D02*
X59650001Y-30675001D01*
X63000000Y-29899002D02*
X62224001Y-30675001D01*
X63000000Y-29200000D02*
X63000000Y-29899002D01*
X59625000Y-30650000D02*
X59625000Y-29600000D01*
X62300000Y-28500000D02*
X63000000Y-29200000D01*
X62300000Y-27900000D02*
X62300000Y-28500000D01*
X60300000Y-27900000D02*
X59600000Y-27900000D01*
X59600000Y-27900000D02*
X58975000Y-28525000D01*
X58975000Y-28525000D02*
X58975000Y-28550000D01*
X58975000Y-28550000D02*
X58975000Y-29600000D01*
X56300000Y-27900000D02*
X57025000Y-27900000D01*
X57025000Y-27900000D02*
X57675000Y-28550000D01*
X57675000Y-28550000D02*
X57675000Y-29600000D01*
X21700000Y-28500000D02*
X21100000Y-28500000D01*
X22374398Y-29174398D02*
X21700000Y-28500000D01*
X27802776Y-29349388D02*
X27250774Y-29349388D01*
X28372164Y-28780000D02*
X27802776Y-29349388D01*
X30500000Y-28780000D02*
X28372164Y-28780000D01*
X27250774Y-29349388D02*
X27075784Y-29174398D01*
X27075784Y-29174398D02*
X22374398Y-29174398D01*
X20474999Y-27725001D02*
X20474999Y-29170001D01*
X20474999Y-29170001D02*
X20879407Y-29574409D01*
X21100000Y-27000000D02*
X21100000Y-27100000D01*
X21100000Y-27100000D02*
X20474999Y-27725001D01*
X26910095Y-29574409D02*
X27085085Y-29749399D01*
X27085085Y-29749399D02*
X30199399Y-29749399D01*
X20879407Y-29574409D02*
X26910095Y-29574409D01*
X30199399Y-29749399D02*
X30500000Y-30050000D01*
X28716053Y-14587183D02*
X29221219Y-14587183D01*
X28453236Y-14850000D02*
X28716053Y-14587183D01*
X28000000Y-14850000D02*
X28453236Y-14850000D01*
X29221219Y-14587183D02*
X29521218Y-14887182D01*
X30207106Y-21400000D02*
X29500000Y-21400000D01*
X30400000Y-20500000D02*
X30400000Y-21207106D01*
X30400000Y-21207106D02*
X30207106Y-21400000D01*
X28645534Y-37320000D02*
X28603481Y-37362053D01*
X30395000Y-37320000D02*
X28645534Y-37320000D01*
X21670001Y-26274999D02*
X20391753Y-26274999D01*
X27526775Y-28774387D02*
X24169389Y-28774387D01*
X8000000Y-17100000D02*
X7000000Y-17100000D01*
X24169389Y-28774387D02*
X21670001Y-26274999D01*
X11216754Y-17100000D02*
X8000000Y-17100000D01*
X20391753Y-26274999D02*
X11216754Y-17100000D01*
X27818274Y-30624408D02*
X27518275Y-30324409D01*
X30395000Y-30970000D02*
X28163866Y-30970000D01*
X28163866Y-30970000D02*
X27818274Y-30624408D01*
X27426973Y-28674585D02*
X27526775Y-28774387D01*
X4495576Y-30000000D02*
X15317245Y-40821669D01*
X1500000Y-30000000D02*
X4495576Y-30000000D01*
X15317245Y-40821669D02*
X15617244Y-41121668D01*
X38386402Y-41080135D02*
X38387772Y-41081505D01*
X38387772Y-41081505D02*
X45903495Y-41081505D01*
X46805832Y-39458296D02*
X47674128Y-38590000D01*
X45903495Y-41081505D02*
X46805832Y-40179168D01*
X47674128Y-38590000D02*
X48395000Y-38590000D01*
X46805832Y-40179168D02*
X46805832Y-39458296D01*
X15600000Y-35900000D02*
X17400000Y-35900000D01*
X17400000Y-35900000D02*
X17500000Y-36000000D01*
X17500000Y-36000000D02*
X19600000Y-36000000D01*
X51200000Y-13550000D02*
X51651265Y-14001265D01*
X51651265Y-14001265D02*
X59086953Y-14001265D01*
X59086953Y-14001265D02*
X59735688Y-14650000D01*
X59735688Y-14650000D02*
X62200000Y-14650000D01*
X62150000Y-14650000D02*
X62200000Y-14650000D01*
X51200000Y-13550000D02*
X49700000Y-13550000D01*
X49700000Y-13550000D02*
X49200000Y-13050000D01*
X49200000Y-13050000D02*
X49200000Y-12450000D01*
X49200000Y-12450000D02*
X47500000Y-12450000D01*
X47500000Y-12450000D02*
X47200000Y-12750000D01*
X47200000Y-12750000D02*
X47200000Y-13500000D01*
X47200000Y-13500000D02*
X45900000Y-14800000D01*
X45900000Y-14800000D02*
X45750000Y-14800000D01*
D48*
X17500000Y-40500000D02*
X19800000Y-40500000D01*
X19800000Y-40500000D02*
X19800000Y-42100000D01*
X17500000Y-42100000D02*
X19800000Y-42100000D01*
X17500000Y-40500000D02*
X17500000Y-42100000D01*
D44*
X17000000Y-3000000D02*
X16350000Y-3000000D01*
X10350000Y-1000000D02*
X14100000Y-1000000D01*
X8450000Y-2900000D02*
X10350000Y-1000000D01*
X7061673Y-2900000D02*
X8450000Y-2900000D01*
X4998322Y-4963351D02*
X7061673Y-2900000D01*
X4998322Y-5600000D02*
X4998322Y-4963351D01*
X14350000Y-1000000D02*
X14100000Y-1000000D01*
X16350000Y-3000000D02*
X14350000Y-1000000D01*
D45*
X6200000Y-14900000D02*
X5000000Y-14900000D01*
X5000000Y-14900000D02*
X4900000Y-14800000D01*
X4998322Y-5600000D02*
X4998322Y-7840553D01*
X5250000Y-5700000D02*
X5150000Y-5600000D01*
X5150000Y-5600000D02*
X4998322Y-5600000D01*
X6000000Y-5700000D02*
X5250000Y-5700000D01*
X4998322Y-7840553D02*
X4964302Y-7874573D01*
X4964302Y-7874573D02*
X6025427Y-7874573D01*
X6025427Y-7874573D02*
X6100000Y-7800000D01*
X6100000Y-14800000D02*
X6200000Y-14900000D01*
D49*
X51200000Y-15250000D02*
X53300000Y-15250000D01*
X53300000Y-15250000D02*
X53800000Y-15750000D01*
X53800000Y-15750000D02*
X53800000Y-16450000D01*
X55050000Y-11600000D02*
X55750000Y-11600000D01*
X56600000Y-12450000D02*
X58900000Y-12450000D01*
X55750000Y-11600000D02*
X56600000Y-12450000D01*
X58900000Y-12450000D02*
X59600000Y-12450000D01*
X59600000Y-12450000D02*
X59500000Y-12450000D01*
X59600000Y-12450000D02*
X59600000Y-12800000D01*
X59600000Y-12800000D02*
X60400000Y-13600000D01*
X55050000Y-11600000D02*
X55050000Y-12300000D01*
X55050000Y-12300000D02*
X53800000Y-13550000D01*
X55050000Y-11600000D02*
X54350000Y-11600000D01*
X54350000Y-11600000D02*
X50950001Y-11600000D01*
D45*
X40000000Y-20300000D02*
X41576963Y-18723037D01*
X38421812Y-17221814D02*
X38017364Y-16817366D01*
X41576963Y-18723037D02*
X41576963Y-17472704D01*
X41576963Y-17472704D02*
X41326073Y-17221814D01*
X41326073Y-17221814D02*
X38421812Y-17221814D01*
X38017364Y-16817366D02*
X38017364Y-9432636D01*
X38017364Y-9432636D02*
X38200000Y-9250000D01*
X38200000Y-9250000D02*
X38200000Y-8300000D01*
D49*
X40050000Y-8300000D02*
X40200000Y-8150000D01*
D45*
X38200000Y-8300000D02*
X40050000Y-8300000D01*
X42200000Y-4950000D02*
X42200000Y-5600000D01*
X40200000Y-7600000D02*
X40200000Y-8150000D01*
X42200000Y-5600000D02*
X40200000Y-7600000D01*
D49*
X19200000Y-46600000D02*
X19200000Y-44700000D01*
X19200000Y-44700000D02*
X19800000Y-44100000D01*
X26400000Y-36600000D02*
X26400000Y-35500000D01*
X26400000Y-35500000D02*
X26300000Y-35400000D01*
X56300000Y-40800000D02*
X56300000Y-42400000D01*
X58300000Y-24700000D02*
X58300000Y-26100000D01*
X62300000Y-24700000D02*
X62300000Y-26100000D01*
X60300000Y-26100000D02*
X60300000Y-24700000D01*
X56300000Y-26100000D02*
X56300000Y-24700000D01*
X55800000Y-3900000D02*
X56525001Y-4625001D01*
X60499989Y-11249989D02*
X64200000Y-14950000D01*
X60499989Y-10407111D02*
X60499989Y-11249989D01*
X58549989Y-8457111D02*
X60499989Y-10407111D01*
X56525001Y-7810740D02*
X57171372Y-8457111D01*
X56525001Y-4625001D02*
X56525001Y-7810740D01*
X64200000Y-14950000D02*
X64200000Y-15600000D01*
X55800000Y-3250000D02*
X55800000Y-3900000D01*
X57171372Y-8457111D02*
X58549989Y-8457111D01*
X55300000Y-1600000D02*
X55300000Y-2750000D01*
X55300000Y-2750000D02*
X55800000Y-3250000D01*
X55750000Y-3250000D02*
X55800000Y-3250000D01*
X33100000Y-15200000D02*
X32850000Y-15200000D01*
X34200000Y-13450000D02*
X34200000Y-14100000D01*
X34200000Y-14100000D02*
X33100000Y-15200000D01*
X32850000Y-15200000D02*
X32250000Y-15200000D01*
X32425001Y-17074999D02*
X31175001Y-17074999D01*
X34150000Y-15350000D02*
X32425001Y-17074999D01*
X31175001Y-16474999D02*
X31175001Y-14529999D01*
X30550000Y-17700000D02*
X30550000Y-17800000D01*
X30400000Y-17650000D02*
X30550000Y-17800000D01*
X31175001Y-17074999D02*
X30550000Y-17700000D01*
X30550000Y-17100000D02*
X31175001Y-16474999D01*
X30550000Y-17800000D02*
X30550000Y-17100000D01*
X31175001Y-14529999D02*
X30495002Y-13850000D01*
X30495002Y-13850000D02*
X28750000Y-13850000D01*
X28750000Y-13850000D02*
X28000000Y-13850000D01*
X34200000Y-15350000D02*
X34150000Y-15350000D01*
X32250000Y-17800000D02*
X34000000Y-17800000D01*
X34000000Y-17800000D02*
X34200000Y-17600000D01*
X28750000Y-15850000D02*
X28750000Y-17295002D01*
X28750000Y-17295002D02*
X30954998Y-19500000D01*
X30954998Y-19500000D02*
X34200000Y-19500000D01*
X30500000Y-15300000D02*
X29950000Y-15850000D01*
X30500000Y-15200000D02*
X30500000Y-15300000D01*
X29950000Y-15850000D02*
X28750000Y-15850000D01*
X28750000Y-15850000D02*
X28000000Y-15850000D01*
X44400000Y-4750000D02*
X44400000Y-6550000D01*
X49050000Y-1400000D02*
X49050000Y-2650000D01*
X49050000Y-2650000D02*
X49400000Y-3000000D01*
X17500000Y-28500000D02*
X19350000Y-28500000D01*
X17500000Y-27000000D02*
X19350000Y-27000000D01*
X21600000Y-32400000D02*
X21600000Y-33900000D01*
X21600000Y-33900000D02*
X21300000Y-34200000D01*
X19500000Y-34200000D02*
X17800000Y-34200000D01*
X17800000Y-34200000D02*
X17500000Y-34500000D01*
X22538430Y-14200000D02*
X22654577Y-14316147D01*
X22654577Y-14316147D02*
X23966147Y-14316147D01*
X23966147Y-14316147D02*
X24000000Y-14350000D01*
X21850000Y-14200000D02*
X22538430Y-14200000D01*
X25250000Y-16600000D02*
X25250000Y-17100000D01*
X25250000Y-17100000D02*
X26550000Y-18400000D01*
X21750000Y-18600000D02*
X21750000Y-18850000D01*
X21750000Y-18850000D02*
X22025001Y-19125001D01*
X22025001Y-19125001D02*
X27624999Y-19125001D01*
X27624999Y-19125001D02*
X28250000Y-18500000D01*
X28250000Y-18500000D02*
X28250000Y-18400000D01*
X24750000Y-16600000D02*
X24750000Y-18100000D01*
X24750000Y-18100000D02*
X25050000Y-18400000D01*
X23350000Y-18400000D02*
X23350000Y-18300000D01*
X23350000Y-18300000D02*
X21750000Y-16700000D01*
X21750000Y-16700000D02*
X21750000Y-16400000D01*
X46600000Y-3000000D02*
X44550000Y-3000000D01*
X44550000Y-3000000D02*
X44400000Y-2850000D01*
X26950000Y-7950000D02*
X26950000Y-7500000D01*
X26700000Y-6000000D02*
X26700000Y-4750000D01*
X26950000Y-7500000D02*
X26700000Y-7250000D01*
X26700000Y-7250000D02*
X26700000Y-6000000D01*
X26950000Y-7950000D02*
X26200000Y-7950000D01*
X26125509Y-10192254D02*
X26125509Y-10616518D01*
X25259462Y-11359462D02*
X25204263Y-11359462D01*
X25750000Y-11850000D02*
X25259462Y-11359462D01*
X25750000Y-12600000D02*
X25750000Y-11850000D01*
X26125509Y-8024491D02*
X26125509Y-10192254D01*
X26200000Y-7950000D02*
X26125509Y-8024491D01*
X24274999Y-7975001D02*
X24300000Y-7950000D01*
X26250000Y-11592011D02*
X24274999Y-9617010D01*
X24300000Y-7950000D02*
X25050000Y-7950000D01*
X26250000Y-12600000D02*
X26250000Y-11592011D01*
X24274999Y-9617010D02*
X24274999Y-7975001D01*
X26050000Y-7250000D02*
X25350000Y-7950000D01*
X26050000Y-4750000D02*
X26050000Y-7250000D01*
X25350000Y-7950000D02*
X25050000Y-7950000D01*
X50871516Y-35193412D02*
X50740621Y-35324307D01*
X57025000Y-35200000D02*
X51878418Y-35200000D01*
X50740621Y-35324307D02*
X50316357Y-35324307D01*
X51878418Y-35200000D02*
X51871830Y-35193412D01*
X51871830Y-35193412D02*
X50871516Y-35193412D01*
X47541560Y-28430000D02*
X47231495Y-28119935D01*
X48395000Y-28430000D02*
X47541560Y-28430000D01*
X47231495Y-28119935D02*
X46931496Y-27819936D01*
X58975000Y-36528914D02*
X58965483Y-36538431D01*
X58975000Y-35200000D02*
X58975000Y-36528914D01*
X33700000Y-26500000D02*
X33700000Y-24420000D01*
X33700000Y-24420000D02*
X33680000Y-24400000D01*
X48395000Y-33510000D02*
X46610000Y-33510000D01*
X46610000Y-33510000D02*
X46600000Y-33500000D01*
X48395000Y-32240000D02*
X46540000Y-32240000D01*
X46540000Y-32240000D02*
X46500000Y-32200000D01*
D45*
X44400000Y-8250000D02*
X44400000Y-9781011D01*
X44400000Y-9781011D02*
X47968989Y-9781011D01*
X47968989Y-9781011D02*
X49100000Y-8650000D01*
X49100000Y-8650000D02*
X49200000Y-8650000D01*
X49200000Y-8650000D02*
X50250000Y-7600000D01*
X50250000Y-7600000D02*
X51350000Y-7600000D01*
D44*
X42200000Y-7150000D02*
X42960001Y-7150000D01*
X42960001Y-7150000D02*
X43010001Y-7200000D01*
D45*
X42200000Y-3050000D02*
X42250000Y-3050000D01*
X43159883Y-3959883D02*
X43159883Y-5390117D01*
X43100001Y-5449999D02*
X43100001Y-5760001D01*
X43010001Y-5850001D02*
X43010001Y-7200000D01*
X42250000Y-3050000D02*
X43159883Y-3959883D01*
X43159883Y-5390117D02*
X43100001Y-5449999D01*
X43350000Y-7200000D02*
X44400000Y-8250000D01*
X43100001Y-5760001D02*
X43010001Y-5850001D01*
X43010001Y-7200000D02*
X43350000Y-7200000D01*
X49650000Y-4900000D02*
X51350000Y-6600000D01*
X49400000Y-4900000D02*
X49650000Y-4900000D01*
X51350000Y-6600000D02*
X51350000Y-7600000D01*
X49900000Y-4900000D02*
X49400000Y-4900000D01*
D50*
X51550000Y-3250000D02*
X49900000Y-4900000D01*
D45*
X51600000Y-3250000D02*
X51550000Y-3250000D01*
X44400000Y-8250000D02*
X44500000Y-8250000D01*
D44*
X40400000Y-11360000D02*
X41350000Y-11360000D01*
X42765920Y-12775920D02*
X45299082Y-12775920D01*
X41350000Y-11360000D02*
X42765920Y-12775920D01*
X45299082Y-12775920D02*
X45786989Y-12288013D01*
X45786989Y-12288013D02*
X45786989Y-11391919D01*
X45786989Y-11391919D02*
X45786989Y-10826234D01*
X52400001Y-2474999D02*
X52350001Y-2424999D01*
X52350001Y-2424999D02*
X50849999Y-2424999D01*
X50849999Y-2424999D02*
X50386590Y-2888408D01*
X50386590Y-2888408D02*
X50386590Y-3529514D01*
X46600000Y-4900000D02*
X47600000Y-4900000D01*
X47600000Y-4900000D02*
X48824999Y-3675001D01*
X48824999Y-3675001D02*
X50241103Y-3675001D01*
X50241103Y-3675001D02*
X50386590Y-3529514D01*
X52724999Y-2474999D02*
X53600000Y-3350000D01*
X52400001Y-2474999D02*
X52724999Y-2474999D01*
X53600000Y-3350000D02*
X53600000Y-4200000D01*
X45600000Y-7800000D02*
X45850000Y-7800000D01*
X45850000Y-7800000D02*
X46800000Y-6850000D01*
X46600000Y-4900000D02*
X46600000Y-6650000D01*
X46600000Y-6650000D02*
X46800000Y-6850000D01*
X53600000Y-1600000D02*
X53600000Y-2500000D01*
X53600000Y-2500000D02*
X54650000Y-3550000D01*
X54650000Y-3550000D02*
X54650000Y-6300000D01*
X50950001Y-10000000D02*
X55050000Y-10000000D01*
X54650000Y-7600000D02*
X54650000Y-9600000D01*
X54650000Y-9600000D02*
X55050000Y-10000000D01*
X53600000Y-1700000D02*
X53600000Y-1600000D01*
X55800000Y-5150000D02*
X55750000Y-5150000D01*
X54650000Y-7600000D02*
X54650000Y-6300000D01*
X54650000Y-6300000D02*
X55800000Y-5150000D01*
X51600000Y-5150000D02*
X52200000Y-5150000D01*
X52200000Y-5150000D02*
X54650000Y-7600000D01*
X42900000Y-16300000D02*
X40860000Y-16300000D01*
X40860000Y-16300000D02*
X40400000Y-15840000D01*
D47*
X22958854Y-13641146D02*
X23167708Y-13850000D01*
X23167708Y-13850000D02*
X24000000Y-13850000D01*
D48*
X40346321Y-5398026D02*
X40346321Y-5963711D01*
X40346321Y-4146321D02*
X40346321Y-5398026D01*
X40200000Y-4000000D02*
X40346321Y-4146321D01*
D45*
X37978961Y-1828961D02*
X38200000Y-2050000D01*
X38200000Y-2050000D02*
X38200000Y-3300000D01*
X29014022Y-8168620D02*
X27745823Y-9436819D01*
X29014022Y-5063655D02*
X29014022Y-8168620D01*
X28668720Y-4718353D02*
X29014022Y-5063655D01*
X27745823Y-9719166D02*
X27345824Y-10119165D01*
X27745823Y-9436819D02*
X27745823Y-9719166D01*
D44*
X26950000Y-9250000D02*
X27559004Y-9250000D01*
X27559004Y-9250000D02*
X27745823Y-9436819D01*
D48*
X40150000Y-4000000D02*
X38100000Y-1950000D01*
X38100000Y-1950000D02*
X37978961Y-1828961D01*
X40200000Y-4000000D02*
X40150000Y-4000000D01*
X29991645Y-4718353D02*
X28668720Y-4718353D01*
X37978961Y-1828961D02*
X32881037Y-1828961D01*
X32881037Y-1828961D02*
X29991645Y-4718353D01*
D44*
X27350000Y-4750000D02*
X28668720Y-4750000D01*
D48*
X41387821Y-8013918D02*
X41387821Y-8287821D01*
X41387821Y-8287821D02*
X42200000Y-9100000D01*
M02*
