G04 #@! TF.GenerationSoftware,KiCad,Pcbnew,(2017-11-24 revision a01d81e4b)-makepkg*
G04 #@! TF.CreationDate,2017-12-10T21:58:48-05:00*
G04 #@! TF.ProjectId,processor,70726F636573736F722E6B696361645F,rev?*
G04 #@! TF.SameCoordinates,Original*
G04 #@! TF.FileFunction,Copper,L4,Bot,Signal*
G04 #@! TF.FilePolarity,Positive*
%FSLAX46Y46*%
G04 Gerber Fmt 4.6, Leading zero omitted, Abs format (unit mm)*
G04 Created by KiCad (PCBNEW (2017-11-24 revision a01d81e4b)-makepkg) date 12/10/17 21:58:48*
%MOMM*%
%LPD*%
G01*
G04 APERTURE LIST*
%ADD10C,8.130000*%
%ADD11R,3.200000X3.200000*%
%ADD12C,1.300000*%
%ADD13C,1.700000*%
%ADD14R,2.400000X0.760000*%
%ADD15C,0.800000*%
%ADD16C,0.600000*%
%ADD17C,0.450000*%
%ADD18C,0.250000*%
%ADD19C,0.600000*%
%ADD20C,0.800000*%
G04 APERTURE END LIST*
D10*
X9600000Y-31300000D03*
D11*
X9600000Y-39000000D03*
X9600000Y-23600000D03*
D12*
X40000000Y-20300000D03*
X40000000Y-18400000D03*
D13*
X57400000Y-17400000D03*
X57400000Y-15400000D03*
D14*
X41550000Y-34610000D03*
X37650000Y-34610000D03*
X41550000Y-33340000D03*
X37650000Y-33340000D03*
X41550000Y-32070000D03*
X37650000Y-32070000D03*
X41550000Y-30800000D03*
X37650000Y-30800000D03*
X41550000Y-29530000D03*
X37650000Y-29530000D03*
X41550000Y-28260000D03*
X37650000Y-28260000D03*
X41550000Y-26990000D03*
X37650000Y-26990000D03*
D15*
X15913622Y-48673497D03*
X62400000Y-35200000D03*
X61023542Y-38923542D03*
X64500000Y-33400000D03*
X19200000Y-4000000D03*
X25200000Y-39800000D03*
X36440492Y-3106882D03*
X50700000Y-28200000D03*
X51538744Y-40531256D03*
X63809741Y-37882922D03*
X16300000Y-47600000D03*
X23546112Y-9408845D03*
X19200000Y-14200000D03*
X23841551Y-12466137D03*
X57800000Y-11600000D03*
X68827389Y-9793914D03*
X71200000Y-10200000D03*
X70000000Y-9400000D03*
X21605916Y-37392445D03*
X15912418Y-37514122D03*
X15933149Y-30078779D03*
X60280626Y-37460314D03*
X9122182Y-8164543D03*
X18472369Y-18639729D03*
X39263103Y-6029842D03*
X39346116Y-5216308D03*
X38504392Y-18124462D03*
X2400000Y-24100000D03*
X7800000Y-12500000D03*
X5800000Y-9600000D03*
X28164020Y-7567133D03*
X27759599Y-11369260D03*
X49200000Y-6000000D03*
X49300000Y-9800000D03*
X62300000Y-29600000D03*
X56200000Y-29600000D03*
X36200000Y-5000000D03*
X19800000Y-37400000D03*
X19600000Y-31100000D03*
X62300000Y-21750000D03*
X29431213Y-9023098D03*
X20600000Y-1424990D03*
X53400000Y-44100000D03*
X56300000Y-45350000D03*
X40036138Y-38224990D03*
X26100000Y-32300000D03*
X63720617Y-40036753D03*
X46695000Y-42400000D03*
X32095000Y-42400000D03*
X45110000Y-26090000D03*
X43235000Y-26965000D03*
X51200000Y-44200000D03*
X18584356Y-43120569D03*
X3200000Y-28500000D03*
X3164876Y-39007222D03*
X19700000Y-9400000D03*
X31600000Y-1600000D03*
X24050000Y-4750000D03*
X59236959Y-10098691D03*
X64600000Y-10200000D03*
X19600000Y-11600000D03*
X61310447Y-16555996D03*
X43188549Y-11494405D03*
X47579479Y-3643584D03*
X48000000Y-8400000D03*
X71100000Y-11700000D03*
X67900000Y-10000000D03*
D16*
X51595828Y-36022221D03*
X51615929Y-34151638D03*
X38595891Y-21513564D03*
X40242218Y-21495702D03*
D15*
X39227153Y-1598476D03*
D16*
X26945162Y-25251638D03*
X26943265Y-32193118D03*
X32200000Y-33400000D03*
X26136721Y-26090588D03*
X26150914Y-30162748D03*
X32200000Y-32300000D03*
X24885923Y-26792255D03*
X32012446Y-40505125D03*
X24883513Y-30343534D03*
X50653424Y-40196419D03*
X39284562Y-41717258D03*
X46532623Y-41265565D03*
X21700000Y-42300000D03*
X19427304Y-1772694D03*
X41206592Y-22070708D03*
X38976722Y-7430461D03*
X35954422Y-9068420D03*
X53300000Y-21800000D03*
X54800000Y-24300000D03*
X59672756Y-39589052D03*
X46226001Y-39613953D03*
X31922404Y-39499408D03*
X45987657Y-38902820D03*
X58600000Y-38900000D03*
X32200000Y-36000000D03*
X46500000Y-31000000D03*
X28879250Y-15274990D03*
X28500000Y-21300000D03*
X28908506Y-38360318D03*
X55455013Y-34624990D03*
X48200000Y-24600000D03*
X53300000Y-24600000D03*
X56100000Y-37000000D03*
X29521218Y-14887182D03*
X29500000Y-21400000D03*
X28603481Y-37362053D03*
X27518275Y-30324409D03*
X27526775Y-28774387D03*
X15617244Y-41121668D03*
X38386402Y-41080135D03*
X15600000Y-35900000D03*
X4964302Y-7874573D03*
X4900000Y-14800000D03*
X26125509Y-10616518D03*
X25204263Y-11359462D03*
X50316357Y-35324307D03*
X46931496Y-27819936D03*
X58965483Y-36538431D03*
X33700000Y-26500000D03*
X46600000Y-33500000D03*
X46500000Y-32200000D03*
D15*
X45786989Y-10826234D03*
X45600000Y-7800000D03*
X42900000Y-16300000D03*
X22958854Y-13641146D03*
X40346321Y-5963711D03*
X27345824Y-10119165D03*
X41387821Y-8013918D03*
D17*
X41550000Y-26990000D02*
X43210000Y-26990000D01*
X43210000Y-26990000D02*
X43235000Y-26965000D01*
X9600000Y-31300000D02*
X6582762Y-28282762D01*
X6582762Y-28282762D02*
X3417238Y-28282762D01*
X3417238Y-28282762D02*
X3200000Y-28500000D01*
D18*
X51615929Y-36002120D02*
X51595828Y-36022221D01*
X51615929Y-34151638D02*
X51615929Y-36002120D01*
X38613753Y-21495702D02*
X38595891Y-21513564D01*
X40242218Y-21495702D02*
X38613753Y-21495702D01*
D17*
X38827154Y-1998475D02*
X39227153Y-1598476D01*
X37650000Y-3175629D02*
X38827154Y-1998475D01*
X37650000Y-26965000D02*
X37650000Y-3175629D01*
D18*
X26943265Y-25253535D02*
X26945162Y-25251638D01*
X26943265Y-32193118D02*
X26943265Y-25253535D01*
X32200000Y-33400000D02*
X34825000Y-30775000D01*
X34825000Y-30775000D02*
X37650000Y-30775000D01*
X26150914Y-30162748D02*
X26150914Y-26104781D01*
X26150914Y-26104781D02*
X26136721Y-26090588D01*
X32200000Y-32300000D02*
X34995000Y-29505000D01*
X34995000Y-29505000D02*
X37650000Y-29505000D01*
X24883513Y-30343534D02*
X24883513Y-26794665D01*
X24883513Y-26794665D02*
X24885923Y-26792255D01*
X32359875Y-40505125D02*
X32012446Y-40505125D01*
X37650000Y-35215000D02*
X32359875Y-40505125D01*
X37650000Y-34585000D02*
X37650000Y-35215000D01*
X50229160Y-40196419D02*
X50653424Y-40196419D01*
X46532623Y-41265565D02*
X47601769Y-40196419D01*
X47601769Y-40196419D02*
X50229160Y-40196419D01*
X38860298Y-41717258D02*
X39284562Y-41717258D01*
X22282742Y-41717258D02*
X38860298Y-41717258D01*
X21700000Y-42300000D02*
X22282742Y-41717258D01*
X19727303Y-2072693D02*
X19427304Y-1772694D01*
X19877303Y-2222693D02*
X19727303Y-2072693D01*
X35954422Y-9068420D02*
X29108695Y-2222693D01*
X29108695Y-2222693D02*
X19877303Y-2222693D01*
X38976722Y-7430461D02*
X41206592Y-9660331D01*
X41206592Y-21646444D02*
X41206592Y-22070708D01*
X41206592Y-9660331D02*
X41206592Y-21646444D01*
X53300000Y-22375736D02*
X53300000Y-21800000D01*
X54800000Y-24300000D02*
X54800000Y-23875736D01*
X54800000Y-23875736D02*
X53300000Y-22375736D01*
X50918995Y-39589052D02*
X59248492Y-39589052D01*
X50643897Y-39313954D02*
X50918995Y-39589052D01*
X59248492Y-39589052D02*
X59672756Y-39589052D01*
X46526000Y-39313954D02*
X50643897Y-39313954D01*
X46226001Y-39613953D02*
X46526000Y-39313954D01*
X31922404Y-38222596D02*
X31922404Y-39075144D01*
X36830000Y-33315000D02*
X31922404Y-38222596D01*
X31922404Y-39075144D02*
X31922404Y-39499408D01*
X37650000Y-33315000D02*
X36830000Y-33315000D01*
X58600000Y-38900000D02*
X45990477Y-38900000D01*
X45990477Y-38900000D02*
X45987657Y-38902820D01*
X32200000Y-36000000D02*
X36155000Y-32045000D01*
X36155000Y-32045000D02*
X37650000Y-32045000D01*
X45105000Y-29505000D02*
X46500000Y-30900000D01*
X46500000Y-30900000D02*
X46500000Y-31000000D01*
X41550000Y-29505000D02*
X45105000Y-29505000D01*
X28879250Y-21300000D02*
X28879250Y-15274990D01*
X28500000Y-21300000D02*
X28879250Y-21300000D01*
X28879250Y-21300000D02*
X28879250Y-36235279D01*
X28879250Y-36235279D02*
X28028479Y-37086051D01*
X28028479Y-37086051D02*
X28028479Y-37904555D01*
X28484242Y-38360318D02*
X28908506Y-38360318D01*
X28028479Y-37904555D02*
X28484242Y-38360318D01*
X55455013Y-36355013D02*
X55455013Y-35049254D01*
X55455013Y-35049254D02*
X55455013Y-34624990D01*
X56100000Y-37000000D02*
X55455013Y-36355013D01*
X53300000Y-24600000D02*
X48200000Y-24600000D01*
X29500000Y-14908400D02*
X29521218Y-14887182D01*
X29500000Y-21400000D02*
X29500000Y-14908400D01*
X29500000Y-21400000D02*
X29500000Y-36465534D01*
X28903480Y-37062054D02*
X28603481Y-37362053D01*
X29500000Y-36465534D02*
X28903480Y-37062054D01*
X27526775Y-30315909D02*
X27518275Y-30324409D01*
X27526775Y-28774387D02*
X27526775Y-30315909D01*
X15658777Y-41080135D02*
X15617244Y-41121668D01*
X38386402Y-41080135D02*
X15658777Y-41080135D01*
X15600000Y-35475736D02*
X15600000Y-35900000D01*
X9600000Y-25082601D02*
X15600000Y-31082601D01*
X15600000Y-31082601D02*
X15600000Y-35475736D01*
X9600000Y-23600000D02*
X9600000Y-25082601D01*
X9600000Y-39000000D02*
X12500000Y-39000000D01*
X12500000Y-39000000D02*
X15600000Y-35900000D01*
D19*
X4900000Y-7938875D02*
X4964302Y-7874573D01*
X4900000Y-14800000D02*
X4900000Y-7938875D01*
D18*
X26125509Y-10616518D02*
X25382565Y-11359462D01*
X25382565Y-11359462D02*
X25204263Y-11359462D01*
X50016358Y-35024308D02*
X50316357Y-35324307D01*
X49577050Y-34585000D02*
X50016358Y-35024308D01*
X41550000Y-34585000D02*
X49577050Y-34585000D01*
X46631497Y-28119935D02*
X46931496Y-27819936D01*
X46516432Y-28235000D02*
X46631497Y-28119935D01*
X41550000Y-28235000D02*
X46516432Y-28235000D01*
X58665484Y-36238432D02*
X58965483Y-36538431D01*
X45075000Y-30775000D02*
X45900000Y-31600000D01*
X54027052Y-31600000D02*
X58665484Y-36238432D01*
X45900000Y-31600000D02*
X54027052Y-31600000D01*
X41550000Y-30775000D02*
X45075000Y-30775000D01*
X37650000Y-28235000D02*
X35435000Y-28235000D01*
X35435000Y-28235000D02*
X33700000Y-26500000D01*
X46600000Y-33500000D02*
X41735000Y-33500000D01*
X41735000Y-33500000D02*
X41550000Y-33315000D01*
X46500000Y-32200000D02*
X41705000Y-32200000D01*
X41705000Y-32200000D02*
X41550000Y-32045000D01*
D17*
X45600000Y-10639245D02*
X45786989Y-10826234D01*
X45600000Y-7800000D02*
X45600000Y-10639245D01*
X57400000Y-17400000D02*
X44000000Y-17400000D01*
X44000000Y-17400000D02*
X42900000Y-16300000D01*
D19*
X24249643Y-13641146D02*
X22958854Y-13641146D01*
D20*
X40346321Y-6529396D02*
X40346321Y-5963711D01*
X40346321Y-6972418D02*
X40346321Y-6529396D01*
X41387821Y-8013918D02*
X40346321Y-6972418D01*
D17*
X26754367Y-10861829D02*
X26945825Y-10670371D01*
X24249643Y-13641146D02*
X26754367Y-11136422D01*
X26754367Y-11136422D02*
X26754367Y-10861829D01*
X26945825Y-10519164D02*
X27345824Y-10119165D01*
X26945825Y-10670371D02*
X26945825Y-10519164D01*
M02*
