G04 #@! TF.FileFunction,Legend,Bot*
%FSLAX46Y46*%
G04 Gerber Fmt 4.6, Leading zero omitted, Abs format (unit mm)*
G04 Created by KiCad (PCBNEW 4.0.6) date 12/03/17 23:21:02*
%MOMM*%
%LPD*%
G01*
G04 APERTURE LIST*
%ADD10C,1.000000*%
%ADD11C,0.150000*%
%ADD12C,0.200000*%
G04 APERTURE END LIST*
D10*
D11*
X92900000Y-85175000D02*
X86300000Y-85175000D01*
X86300000Y-85175000D02*
X86300000Y-76375000D01*
X86300000Y-76375000D02*
X92900000Y-76375000D01*
X92900000Y-76375000D02*
X92900000Y-85175000D01*
D12*
X65100000Y-83900000D02*
X62200000Y-86800000D01*
X65100000Y-78700000D02*
X62200000Y-75800000D01*
X54300000Y-86800000D02*
X62200000Y-86800000D01*
X54300000Y-75800000D02*
X62200000Y-75800000D01*
X54300000Y-75900000D02*
X54300000Y-86700000D01*
X65100000Y-78700000D02*
X65100000Y-83900000D01*
D11*
X109100000Y-69350000D02*
X102850000Y-69350000D01*
X102850000Y-69350000D02*
X102850000Y-63450000D01*
X102850000Y-63450000D02*
X109100000Y-63450000D01*
X109100000Y-63450000D02*
X109100000Y-69350000D01*
X91142857Y-86007857D02*
X91142857Y-86865000D01*
X91199999Y-87036429D01*
X91314285Y-87150714D01*
X91485714Y-87207857D01*
X91599999Y-87207857D01*
X89942856Y-87207857D02*
X90628571Y-87207857D01*
X90285713Y-87207857D02*
X90285713Y-86007857D01*
X90399999Y-86179286D01*
X90514285Y-86293571D01*
X90628571Y-86350714D01*
X89199999Y-86007857D02*
X89085714Y-86007857D01*
X88971428Y-86065000D01*
X88914285Y-86122143D01*
X88857142Y-86236429D01*
X88799999Y-86465000D01*
X88799999Y-86750714D01*
X88857142Y-86979286D01*
X88914285Y-87093571D01*
X88971428Y-87150714D01*
X89085714Y-87207857D01*
X89199999Y-87207857D01*
X89314285Y-87150714D01*
X89371428Y-87093571D01*
X89428571Y-86979286D01*
X89485714Y-86750714D01*
X89485714Y-86465000D01*
X89428571Y-86236429D01*
X89371428Y-86122143D01*
X89314285Y-86065000D01*
X89199999Y-86007857D01*
X87657142Y-87207857D02*
X88342857Y-87207857D01*
X87999999Y-87207857D02*
X87999999Y-86007857D01*
X88114285Y-86179286D01*
X88228571Y-86293571D01*
X88342857Y-86350714D01*
X66978571Y-79561905D02*
X67026190Y-79704762D01*
X67073810Y-79752381D01*
X67169048Y-79800000D01*
X67311905Y-79800000D01*
X67407143Y-79752381D01*
X67454762Y-79704762D01*
X67502381Y-79609524D01*
X67502381Y-79228571D01*
X66502381Y-79228571D01*
X66502381Y-79561905D01*
X66550000Y-79657143D01*
X66597619Y-79704762D01*
X66692857Y-79752381D01*
X66788095Y-79752381D01*
X66883333Y-79704762D01*
X66930952Y-79657143D01*
X66978571Y-79561905D01*
X66978571Y-79228571D01*
X66502381Y-80085714D02*
X66502381Y-80657143D01*
X67502381Y-80371428D02*
X66502381Y-80371428D01*
X66502381Y-80895238D02*
X66502381Y-81514286D01*
X66883333Y-81180952D01*
X66883333Y-81323810D01*
X66930952Y-81419048D01*
X66978571Y-81466667D01*
X67073810Y-81514286D01*
X67311905Y-81514286D01*
X67407143Y-81466667D01*
X67454762Y-81419048D01*
X67502381Y-81323810D01*
X67502381Y-81038095D01*
X67454762Y-80942857D01*
X67407143Y-80895238D01*
X66502381Y-82133333D02*
X66502381Y-82228572D01*
X66550000Y-82323810D01*
X66597619Y-82371429D01*
X66692857Y-82419048D01*
X66883333Y-82466667D01*
X67121429Y-82466667D01*
X67311905Y-82419048D01*
X67407143Y-82371429D01*
X67454762Y-82323810D01*
X67502381Y-82228572D01*
X67502381Y-82133333D01*
X67454762Y-82038095D01*
X67407143Y-81990476D01*
X67311905Y-81942857D01*
X67121429Y-81895238D01*
X66883333Y-81895238D01*
X66692857Y-81942857D01*
X66597619Y-81990476D01*
X66550000Y-82038095D01*
X66502381Y-82133333D01*
X67502381Y-83419048D02*
X67502381Y-82847619D01*
X67502381Y-83133333D02*
X66502381Y-83133333D01*
X66645238Y-83038095D01*
X66740476Y-82942857D01*
X66788095Y-82847619D01*
X101252381Y-64814286D02*
X101966667Y-64814286D01*
X102109524Y-64766666D01*
X102204762Y-64671428D01*
X102252381Y-64528571D01*
X102252381Y-64433333D01*
X101347619Y-65242857D02*
X101300000Y-65290476D01*
X101252381Y-65385714D01*
X101252381Y-65623810D01*
X101300000Y-65719048D01*
X101347619Y-65766667D01*
X101442857Y-65814286D01*
X101538095Y-65814286D01*
X101680952Y-65766667D01*
X102252381Y-65195238D01*
X102252381Y-65814286D01*
X101252381Y-66433333D02*
X101252381Y-66528572D01*
X101300000Y-66623810D01*
X101347619Y-66671429D01*
X101442857Y-66719048D01*
X101633333Y-66766667D01*
X101871429Y-66766667D01*
X102061905Y-66719048D01*
X102157143Y-66671429D01*
X102204762Y-66623810D01*
X102252381Y-66528572D01*
X102252381Y-66433333D01*
X102204762Y-66338095D01*
X102157143Y-66290476D01*
X102061905Y-66242857D01*
X101871429Y-66195238D01*
X101633333Y-66195238D01*
X101442857Y-66242857D01*
X101347619Y-66290476D01*
X101300000Y-66338095D01*
X101252381Y-66433333D01*
X101252381Y-67100000D02*
X101252381Y-67719048D01*
X101633333Y-67385714D01*
X101633333Y-67528572D01*
X101680952Y-67623810D01*
X101728571Y-67671429D01*
X101823810Y-67719048D01*
X102061905Y-67719048D01*
X102157143Y-67671429D01*
X102204762Y-67623810D01*
X102252381Y-67528572D01*
X102252381Y-67242857D01*
X102204762Y-67147619D01*
X102157143Y-67100000D01*
X110071429Y-65019048D02*
X110071429Y-65780953D01*
X110071429Y-67219048D02*
X110071429Y-67980953D01*
X110452381Y-67600001D02*
X109690476Y-67600001D01*
M02*
