G04 #@! TF.FileFunction,Soldermask,Top*
%FSLAX46Y46*%
G04 Gerber Fmt 4.6, Leading zero omitted, Abs format (unit mm)*
G04 Created by KiCad (PCBNEW 4.0.6) date 12/09/17 15:33:27*
%MOMM*%
%LPD*%
G01*
G04 APERTURE LIST*
%ADD10C,1.000000*%
%ADD11O,0.650000X1.400000*%
%ADD12O,1.400000X0.650000*%
%ADD13R,2.850000X2.850000*%
%ADD14R,2.300000X1.800000*%
%ADD15R,1.800000X2.200000*%
%ADD16R,1.900000X1.100000*%
%ADD17R,1.400000X1.900000*%
%ADD18C,3.400000*%
%ADD19R,0.750000X2.000000*%
%ADD20R,0.750000X1.400000*%
%ADD21C,1.400000*%
%ADD22O,2.900000X1.300000*%
%ADD23O,1.300000X2.900000*%
%ADD24R,6.400000X6.400000*%
%ADD25R,1.300000X1.100000*%
%ADD26R,1.100000X1.300000*%
%ADD27R,1.300000X1.200000*%
%ADD28R,1.300000X1.400000*%
%ADD29R,1.400000X0.800000*%
%ADD30R,0.800000X2.400000*%
%ADD31R,2.200000X2.300000*%
%ADD32R,2.700000X2.300000*%
%ADD33R,1.300000X1.600000*%
%ADD34R,1.600000X1.300000*%
%ADD35R,3.900000X2.000000*%
%ADD36C,1.700000*%
%ADD37C,2.100000*%
%ADD38R,1.500000X1.000000*%
%ADD39R,1.900000X1.400000*%
%ADD40R,1.200000X2.400000*%
%ADD41R,2.400000X1.400000*%
%ADD42R,1.200000X1.300000*%
G04 APERTURE END LIST*
D10*
D11*
X27250000Y-12600000D03*
X26750000Y-12600000D03*
X26250000Y-12600000D03*
X25750000Y-12600000D03*
X25250000Y-12600000D03*
X24750000Y-12600000D03*
D12*
X24000000Y-13350000D03*
X24000000Y-13850000D03*
X24000000Y-14350000D03*
X24000000Y-14850000D03*
X24000000Y-15350000D03*
X24000000Y-15850000D03*
D11*
X24750000Y-16600000D03*
X25250000Y-16600000D03*
X25750000Y-16600000D03*
X26250000Y-16600000D03*
X26750000Y-16600000D03*
X27250000Y-16600000D03*
D12*
X28000000Y-15850000D03*
X28000000Y-15350000D03*
X28000000Y-14850000D03*
X28000000Y-14350000D03*
X28000000Y-13850000D03*
X28000000Y-13350000D03*
D13*
X26000000Y-14600000D03*
D14*
X3700000Y-9600000D03*
X2800000Y-22800000D03*
D15*
X16800000Y-11200000D03*
X16800000Y-17200000D03*
D16*
X6600000Y-10500000D03*
X6600000Y-11600000D03*
X6200000Y-12700000D03*
X6600000Y-13800000D03*
X6200000Y-14900000D03*
X6600000Y-16000000D03*
X7000000Y-17100000D03*
X6600000Y-18200000D03*
D17*
X6000000Y-5700000D03*
X8000000Y-5700000D03*
D18*
X12500000Y-5000000D03*
D19*
X61575000Y-35200000D03*
X61575000Y-29600000D03*
X60925000Y-35200000D03*
X60925000Y-29600000D03*
X60275000Y-35200000D03*
X60275000Y-29600000D03*
X59625000Y-35200000D03*
X59625000Y-29600000D03*
X58975000Y-35200000D03*
X58975000Y-29600000D03*
X58325000Y-35200000D03*
X58325000Y-29600000D03*
X57675000Y-35200000D03*
X57675000Y-29600000D03*
X57025000Y-35200000D03*
X57025000Y-29600000D03*
D20*
X63075000Y-40150000D03*
X62425000Y-40150000D03*
X61775000Y-40150000D03*
X61125000Y-40150000D03*
X61125000Y-37650000D03*
X61775000Y-37650000D03*
X62425000Y-37650000D03*
X63075000Y-37650000D03*
D21*
X30400000Y-20500000D03*
D22*
X30500000Y-42400000D03*
X30500000Y-41130000D03*
X30500000Y-39860000D03*
X30500000Y-38590000D03*
X30500000Y-37320000D03*
X30500000Y-36050000D03*
X30500000Y-34780000D03*
X30500000Y-33510000D03*
X30500000Y-32240000D03*
X30500000Y-30970000D03*
X30500000Y-29700000D03*
X30500000Y-28430000D03*
X30500000Y-27160000D03*
X30500000Y-25890000D03*
D23*
X33785000Y-24400000D03*
X35055000Y-24400000D03*
X36325000Y-24400000D03*
X37595000Y-24400000D03*
X38865000Y-24400000D03*
X40135000Y-24400000D03*
X41405000Y-24400000D03*
X42675000Y-24400000D03*
X43945000Y-24400000D03*
X45215000Y-24400000D03*
D22*
X48500000Y-25890000D03*
X48500000Y-27160000D03*
X48500000Y-28430000D03*
X48500000Y-29700000D03*
X48500000Y-30970000D03*
X48500000Y-32240000D03*
X48500000Y-33510000D03*
X48500000Y-34780000D03*
X48500000Y-36050000D03*
X48500000Y-37320000D03*
X48500000Y-38590000D03*
X48500000Y-39860000D03*
X48500000Y-41130000D03*
X48500000Y-42400000D03*
D24*
X39800000Y-34700000D03*
D25*
X50700000Y-29000000D03*
X50700000Y-30800000D03*
D18*
X62500000Y-45000000D03*
D26*
X17200000Y-49100000D03*
X19000000Y-49100000D03*
D27*
X17200000Y-45600000D03*
X17200000Y-47600000D03*
X19200000Y-46600000D03*
D18*
X12500000Y-45000000D03*
D28*
X30550000Y-7000000D03*
X34649999Y-7000000D03*
X34649999Y-8600000D03*
X30550000Y-8600000D03*
X34650000Y-11800000D03*
X30550001Y-11800000D03*
X30550001Y-10200000D03*
X34650000Y-10200000D03*
D21*
X27900000Y-20600000D03*
D29*
X25050000Y-8600000D03*
X26950000Y-9250000D03*
X26950000Y-7950000D03*
X26950000Y-8600000D03*
X25050000Y-7950000D03*
X25050000Y-9250000D03*
D30*
X27350000Y-4750000D03*
X26700000Y-4750000D03*
X26050000Y-4750000D03*
X25400000Y-4750000D03*
X24750000Y-4750000D03*
D31*
X27200000Y-1600000D03*
D32*
X29800000Y-1600000D03*
X22300000Y-1600000D03*
D31*
X24900000Y-1600000D03*
D33*
X49050000Y-14800000D03*
X45750000Y-14800000D03*
D34*
X57800000Y-10650000D03*
X57800000Y-7350000D03*
D35*
X40400000Y-10960000D03*
X40400000Y-15840000D03*
D36*
X40000000Y-20300000D03*
X40000000Y-18400000D03*
D37*
X57400000Y-17400000D03*
X57400000Y-15400000D03*
D38*
X46600000Y-3000000D03*
X46600000Y-3950000D03*
X46600000Y-4900000D03*
X49400000Y-4900000D03*
X49400000Y-3000000D03*
D10*
G36*
X68350000Y-10500000D02*
X69500000Y-11000000D01*
X69500000Y-12400000D01*
X68350000Y-12900000D01*
X68350000Y-10500000D01*
X68350000Y-10500000D01*
G37*
D16*
X70000000Y-10200000D03*
X70000000Y-13200000D03*
X66300000Y-10200000D03*
D39*
X66300000Y-11700000D03*
D16*
X66300000Y-13200000D03*
D39*
X70000000Y-11700000D03*
D10*
G36*
X67950000Y-12900000D02*
X66800000Y-12400000D01*
X66800000Y-11000000D01*
X67950000Y-10500000D01*
X67950000Y-12900000D01*
X67950000Y-12900000D01*
G37*
D40*
X68150000Y-11700000D03*
D28*
X55050000Y-11600000D03*
X50950001Y-11600000D03*
X50950001Y-10000000D03*
X55050000Y-10000000D03*
D41*
X17500000Y-27000000D03*
X17500000Y-28500000D03*
X17500000Y-30000000D03*
X17500000Y-31500000D03*
X17500000Y-33000000D03*
X17500000Y-34500000D03*
X17500000Y-36000000D03*
X17500000Y-37500000D03*
X17500000Y-39000000D03*
X17500000Y-40500000D03*
X17500000Y-40500000D03*
X17500000Y-39000000D03*
X17500000Y-37500000D03*
X17500000Y-36000000D03*
X17500000Y-34500000D03*
X17500000Y-33000000D03*
X17500000Y-31500000D03*
X17500000Y-30000000D03*
X17500000Y-28500000D03*
X17500000Y-27000000D03*
X1500000Y-27000000D03*
X1500000Y-28500000D03*
X1500000Y-30000000D03*
X1500000Y-31500000D03*
X1500000Y-33000000D03*
X1500000Y-34500000D03*
X1500000Y-36000000D03*
X1500000Y-37500000D03*
X1500000Y-39000000D03*
X1500000Y-40500000D03*
D33*
X51350000Y-7600000D03*
X54650000Y-7600000D03*
D18*
X62500000Y-5000000D03*
D34*
X53800000Y-13150000D03*
X53800000Y-16450000D03*
D39*
X17500000Y-42100000D03*
X17500000Y-44100000D03*
X46800000Y-6800000D03*
X46800000Y-8800000D03*
X47200000Y-12800000D03*
X47200000Y-10800000D03*
X44400000Y-9800000D03*
X44400000Y-11800000D03*
X51200000Y-41300000D03*
X51200000Y-43300000D03*
X19800000Y-42100000D03*
X19800000Y-44100000D03*
D17*
X6000000Y-7800000D03*
X8000000Y-7800000D03*
X19600000Y-36000000D03*
X21600000Y-36000000D03*
D39*
X19800000Y-40500000D03*
X19800000Y-38500000D03*
X65100000Y-37900000D03*
X65100000Y-39900000D03*
X53400000Y-41300000D03*
X53400000Y-43300000D03*
D17*
X33100000Y-5000000D03*
X35100000Y-5000000D03*
D39*
X72600000Y-9650000D03*
X72600000Y-11650000D03*
X64200000Y-13200000D03*
X64200000Y-11200000D03*
D17*
X22600000Y-11600000D03*
X20600000Y-11600000D03*
X22600000Y-9400000D03*
X20600000Y-9400000D03*
D39*
X56300000Y-44400000D03*
X56300000Y-42400000D03*
X58300000Y-22700000D03*
X58300000Y-24700000D03*
X62300000Y-22700000D03*
X62300000Y-24700000D03*
X60300000Y-22700000D03*
X60300000Y-24700000D03*
X56300000Y-22700000D03*
X56300000Y-24700000D03*
X26300000Y-33400000D03*
X26300000Y-35400000D03*
X44400000Y-2800000D03*
X44400000Y-4800000D03*
D17*
X19600000Y-32400000D03*
X21600000Y-32400000D03*
X19800000Y-16400000D03*
X21800000Y-16400000D03*
X19800000Y-18600000D03*
X21800000Y-18600000D03*
D25*
X59600000Y-10700000D03*
X59600000Y-12500000D03*
X19500000Y-2800000D03*
X19500000Y-1000000D03*
D26*
X21300000Y-34200000D03*
X19500000Y-34200000D03*
X21100000Y-27000000D03*
X19300000Y-27000000D03*
X21100000Y-28500000D03*
X19300000Y-28500000D03*
X55350000Y-1600000D03*
X53550000Y-1600000D03*
D25*
X49200000Y-10700000D03*
X49200000Y-12500000D03*
X44400000Y-8300000D03*
X44400000Y-6500000D03*
X38200000Y-3300000D03*
X38200000Y-5100000D03*
X38200000Y-8300000D03*
X38200000Y-6500000D03*
X56300000Y-27900000D03*
X56300000Y-26100000D03*
X60300000Y-27900000D03*
X60300000Y-26100000D03*
X62300000Y-27900000D03*
X62300000Y-26100000D03*
X58300000Y-27900000D03*
X58300000Y-26100000D03*
X56300000Y-39000000D03*
X56300000Y-40800000D03*
X26400000Y-38400000D03*
X26400000Y-36600000D03*
X64500000Y-34200000D03*
X64500000Y-36000000D03*
D26*
X26100000Y-39800000D03*
X27900000Y-39800000D03*
X35200000Y-3100000D03*
X33400000Y-3100000D03*
D25*
X49200000Y-6900000D03*
X49200000Y-8700000D03*
D26*
X47300000Y-1400000D03*
X49100000Y-1400000D03*
D25*
X51200000Y-13500000D03*
X51200000Y-15300000D03*
X60400000Y-15350000D03*
X60400000Y-13550000D03*
D26*
X21900000Y-14200000D03*
X20100000Y-14200000D03*
X26500000Y-18400000D03*
X28300000Y-18400000D03*
X25100000Y-18400000D03*
X23300000Y-18400000D03*
X30500000Y-15200000D03*
X32300000Y-15200000D03*
X32300000Y-17800000D03*
X30500000Y-17800000D03*
D42*
X18000000Y-1000000D03*
X16000000Y-1000000D03*
X17000000Y-3000000D03*
D27*
X51600000Y-3200000D03*
X51600000Y-5200000D03*
X53600000Y-4200000D03*
X55800000Y-3200000D03*
X55800000Y-5200000D03*
X57800000Y-4200000D03*
X62200000Y-14600000D03*
X62200000Y-16600000D03*
X64200000Y-15600000D03*
X42200000Y-5000000D03*
X42200000Y-3000000D03*
X40200000Y-4000000D03*
X42200000Y-9150000D03*
X42200000Y-7150000D03*
X40200000Y-8150000D03*
X34200000Y-17550000D03*
X34200000Y-19550000D03*
X36200000Y-18550000D03*
X34200000Y-13400000D03*
X34200000Y-15400000D03*
X36200000Y-14400000D03*
M02*
