G04 #@! TF.GenerationSoftware,KiCad,Pcbnew,(2017-11-24 revision a01d81e4b)-makepkg*
G04 #@! TF.CreationDate,2017-12-10T21:58:48-05:00*
G04 #@! TF.ProjectId,processor,70726F636573736F722E6B696361645F,rev?*
G04 #@! TF.SameCoordinates,Original*
G04 #@! TF.FileFunction,Copper,L3,Inr,Signal*
G04 #@! TF.FilePolarity,Positive*
%FSLAX46Y46*%
G04 Gerber Fmt 4.6, Leading zero omitted, Abs format (unit mm)*
G04 Created by KiCad (PCBNEW (2017-11-24 revision a01d81e4b)-makepkg) date 12/10/17 21:58:48*
%MOMM*%
%LPD*%
G01*
G04 APERTURE LIST*
%ADD10C,1.300000*%
%ADD11C,1.700000*%
%ADD12C,0.800000*%
%ADD13C,0.600000*%
%ADD14C,0.200000*%
G04 APERTURE END LIST*
D10*
X40000000Y-20300000D03*
X40000000Y-18400000D03*
D11*
X57400000Y-17400000D03*
X57400000Y-15400000D03*
D12*
X15913622Y-48673497D03*
X62400000Y-35200000D03*
X61023542Y-38923542D03*
X64500000Y-33400000D03*
X19200000Y-4000000D03*
X25200000Y-39800000D03*
X36440492Y-3106882D03*
X50700000Y-28200000D03*
X51538744Y-40531256D03*
X63809741Y-37882922D03*
X16300000Y-47600000D03*
X23546112Y-9408845D03*
X19200000Y-14200000D03*
X23841551Y-12466137D03*
X57800000Y-11600000D03*
X68827389Y-9793914D03*
X71200000Y-10200000D03*
X70000000Y-9400000D03*
X21605916Y-37392445D03*
X15912418Y-37514122D03*
X15933149Y-30078779D03*
X60280626Y-37460314D03*
X9122182Y-8164543D03*
X18472369Y-18639729D03*
X39263103Y-6029842D03*
X39346116Y-5216308D03*
X38504392Y-18124462D03*
X2400000Y-24100000D03*
X7800000Y-12500000D03*
X5800000Y-9600000D03*
X28164020Y-7567133D03*
X27759599Y-11369260D03*
X49200000Y-6000000D03*
X49300000Y-9800000D03*
X62300000Y-29600000D03*
X56200000Y-29600000D03*
X36200000Y-5000000D03*
X19800000Y-37400000D03*
X19600000Y-31100000D03*
X62300000Y-21750000D03*
X29431213Y-9023098D03*
X20600000Y-1424990D03*
X53400000Y-44100000D03*
X56300000Y-45350000D03*
X40036138Y-38224990D03*
X26100000Y-32300000D03*
X63720617Y-40036753D03*
X46695000Y-42400000D03*
X32095000Y-42400000D03*
X45110000Y-26090000D03*
X43235000Y-26965000D03*
X51200000Y-44200000D03*
X18584356Y-43120569D03*
X3200000Y-28500000D03*
X3164876Y-39007222D03*
X19700000Y-9400000D03*
X31600000Y-1600000D03*
X24050000Y-4750000D03*
X59236959Y-10098691D03*
X64600000Y-10200000D03*
X19600000Y-11600000D03*
X61310447Y-16555996D03*
X43188549Y-11494405D03*
X47579479Y-3643584D03*
X48000000Y-8400000D03*
X71100000Y-11700000D03*
X67900000Y-10000000D03*
D13*
X51595828Y-36022221D03*
X51615929Y-34151638D03*
X38595891Y-21513564D03*
X40242218Y-21495702D03*
D12*
X39227153Y-1598476D03*
D13*
X26945162Y-25251638D03*
X26943265Y-32193118D03*
X32200000Y-33400000D03*
X26136721Y-26090588D03*
X26150914Y-30162748D03*
X32200000Y-32300000D03*
X24885923Y-26792255D03*
X32012446Y-40505125D03*
X24883513Y-30343534D03*
X50653424Y-40196419D03*
X39284562Y-41717258D03*
X46532623Y-41265565D03*
X21700000Y-42300000D03*
X19427304Y-1772694D03*
X41206592Y-22070708D03*
X38976722Y-7430461D03*
X35954422Y-9068420D03*
X53300000Y-21800000D03*
X54800000Y-24300000D03*
X59672756Y-39589052D03*
X46226001Y-39613953D03*
X31922404Y-39499408D03*
X45987657Y-38902820D03*
X58600000Y-38900000D03*
X32200000Y-36000000D03*
X46500000Y-31000000D03*
X28879250Y-15274990D03*
X28500000Y-21300000D03*
X28908506Y-38360318D03*
X55455013Y-34624990D03*
X48200000Y-24600000D03*
X53300000Y-24600000D03*
X56100000Y-37000000D03*
X29521218Y-14887182D03*
X29500000Y-21400000D03*
X28603481Y-37362053D03*
X27518275Y-30324409D03*
X27526775Y-28774387D03*
X15617244Y-41121668D03*
X38386402Y-41080135D03*
X15600000Y-35900000D03*
X4964302Y-7874573D03*
X4900000Y-14800000D03*
X26125509Y-10616518D03*
X25204263Y-11359462D03*
X50316357Y-35324307D03*
X46931496Y-27819936D03*
X58965483Y-36538431D03*
X33700000Y-26500000D03*
X46600000Y-33500000D03*
X46500000Y-32200000D03*
D12*
X45786989Y-10826234D03*
X45600000Y-7800000D03*
X42900000Y-16300000D03*
X22958854Y-13641146D03*
X40346321Y-5963711D03*
X27345824Y-10119165D03*
X41387821Y-8013918D03*
D14*
G36*
X67575000Y-2000000D02*
X67597303Y-2112123D01*
X67607351Y-2162641D01*
X67699480Y-2300520D01*
X71699479Y-6300520D01*
X71788065Y-6359711D01*
X71837360Y-6392649D01*
X72000000Y-6425000D01*
X74575000Y-6425000D01*
X74575000Y-12575000D01*
X72000000Y-12575000D01*
X71837360Y-12607351D01*
X71699480Y-12699480D01*
X71607351Y-12837360D01*
X71575000Y-13000000D01*
X71575000Y-18075000D01*
X65000000Y-18075000D01*
X64837360Y-18107351D01*
X64699480Y-18199480D01*
X64607351Y-18337360D01*
X64575000Y-18500000D01*
X64575000Y-31500000D01*
X64607351Y-31662640D01*
X64699480Y-31800520D01*
X64837360Y-31892649D01*
X65000000Y-31925000D01*
X71575000Y-31925000D01*
X71575000Y-37000000D01*
X71607351Y-37162640D01*
X71699480Y-37300520D01*
X71837360Y-37392649D01*
X72000000Y-37425000D01*
X74575000Y-37425000D01*
X74575000Y-43575000D01*
X72000000Y-43575000D01*
X71837360Y-43607351D01*
X71837358Y-43607352D01*
X71837359Y-43607352D01*
X71699479Y-43699480D01*
X67699480Y-47699480D01*
X67607351Y-47837359D01*
X67607351Y-47837360D01*
X67575000Y-48000000D01*
X67575000Y-49575000D01*
X49175000Y-49575000D01*
X49175000Y-45488628D01*
X55599879Y-45488628D01*
X55706223Y-45746000D01*
X55902964Y-45943085D01*
X56160150Y-46049878D01*
X56438628Y-46050121D01*
X56696000Y-45943777D01*
X56893085Y-45747036D01*
X56999878Y-45489850D01*
X56999994Y-45356471D01*
X60699688Y-45356471D01*
X60973145Y-46018286D01*
X61479051Y-46525076D01*
X62140387Y-46799687D01*
X62856471Y-46800312D01*
X63518286Y-46526855D01*
X64025076Y-46020949D01*
X64299687Y-45359613D01*
X64300312Y-44643529D01*
X64026855Y-43981714D01*
X63520949Y-43474924D01*
X62859613Y-43200313D01*
X62143529Y-43199688D01*
X61481714Y-43473145D01*
X60974924Y-43979051D01*
X60700313Y-44640387D01*
X60699688Y-45356471D01*
X56999994Y-45356471D01*
X57000121Y-45211372D01*
X56893777Y-44954000D01*
X56697036Y-44756915D01*
X56439850Y-44650122D01*
X56161372Y-44649879D01*
X55904000Y-44756223D01*
X55706915Y-44952964D01*
X55600122Y-45210150D01*
X55599879Y-45488628D01*
X49175000Y-45488628D01*
X49175000Y-44338628D01*
X50499879Y-44338628D01*
X50606223Y-44596000D01*
X50802964Y-44793085D01*
X51060150Y-44899878D01*
X51338628Y-44900121D01*
X51596000Y-44793777D01*
X51793085Y-44597036D01*
X51899878Y-44339850D01*
X51899966Y-44238628D01*
X52699879Y-44238628D01*
X52806223Y-44496000D01*
X53002964Y-44693085D01*
X53260150Y-44799878D01*
X53538628Y-44800121D01*
X53796000Y-44693777D01*
X53993085Y-44497036D01*
X54099878Y-44239850D01*
X54100121Y-43961372D01*
X53993777Y-43704000D01*
X53797036Y-43506915D01*
X53539850Y-43400122D01*
X53261372Y-43399879D01*
X53004000Y-43506223D01*
X52806915Y-43702964D01*
X52700122Y-43960150D01*
X52699879Y-44238628D01*
X51899966Y-44238628D01*
X51900121Y-44061372D01*
X51793777Y-43804000D01*
X51597036Y-43606915D01*
X51339850Y-43500122D01*
X51061372Y-43499879D01*
X50804000Y-43606223D01*
X50606915Y-43802964D01*
X50500122Y-44060150D01*
X50499879Y-44338628D01*
X49175000Y-44338628D01*
X49175000Y-44000000D01*
X49142649Y-43837360D01*
X49050520Y-43699480D01*
X48912640Y-43607351D01*
X48750000Y-43575000D01*
X30250000Y-43575000D01*
X30087360Y-43607351D01*
X29949480Y-43699480D01*
X29857351Y-43837360D01*
X29825000Y-44000000D01*
X29825000Y-49575000D01*
X7427000Y-49575000D01*
X7427000Y-48000000D01*
X7394497Y-47836594D01*
X7301935Y-47698065D01*
X7293409Y-47692368D01*
X4957512Y-45356471D01*
X10699688Y-45356471D01*
X10973145Y-46018286D01*
X11479051Y-46525076D01*
X12140387Y-46799687D01*
X12856471Y-46800312D01*
X13518286Y-46526855D01*
X14025076Y-46020949D01*
X14299687Y-45359613D01*
X14300312Y-44643529D01*
X14026855Y-43981714D01*
X13520949Y-43474924D01*
X13001422Y-43259197D01*
X17884235Y-43259197D01*
X17990579Y-43516569D01*
X18187320Y-43713654D01*
X18444506Y-43820447D01*
X18722984Y-43820690D01*
X18980356Y-43714346D01*
X19177441Y-43517605D01*
X19284234Y-43260419D01*
X19284477Y-42981941D01*
X19178133Y-42724569D01*
X18981392Y-42527484D01*
X18724206Y-42420691D01*
X18445728Y-42420448D01*
X18188356Y-42526792D01*
X17991271Y-42723533D01*
X17884478Y-42980719D01*
X17884235Y-43259197D01*
X13001422Y-43259197D01*
X12859613Y-43200313D01*
X12143529Y-43199688D01*
X11481714Y-43473145D01*
X10974924Y-43979051D01*
X10700313Y-44640387D01*
X10699688Y-45356471D01*
X4957512Y-45356471D01*
X3307634Y-43706594D01*
X3301935Y-43698065D01*
X3163406Y-43605503D01*
X3000000Y-43573000D01*
X427000Y-43573000D01*
X427000Y-42418824D01*
X21099896Y-42418824D01*
X21191048Y-42639429D01*
X21359683Y-42808359D01*
X21580129Y-42899896D01*
X21818824Y-42900104D01*
X22039429Y-42808952D01*
X22208359Y-42640317D01*
X22250583Y-42538628D01*
X31394879Y-42538628D01*
X31501223Y-42796000D01*
X31697964Y-42993085D01*
X31955150Y-43099878D01*
X32233628Y-43100121D01*
X32491000Y-42993777D01*
X32688085Y-42797036D01*
X32794878Y-42539850D01*
X32795121Y-42261372D01*
X32688777Y-42004000D01*
X32492036Y-41806915D01*
X32234850Y-41700122D01*
X31956372Y-41699879D01*
X31699000Y-41806223D01*
X31501915Y-42002964D01*
X31395122Y-42260150D01*
X31394879Y-42538628D01*
X22250583Y-42538628D01*
X22299896Y-42419871D01*
X22300104Y-42181176D01*
X22208952Y-41960571D01*
X22040317Y-41791641D01*
X21819871Y-41700104D01*
X21581176Y-41699896D01*
X21360571Y-41791048D01*
X21191641Y-41959683D01*
X21100104Y-42180129D01*
X21099896Y-42418824D01*
X427000Y-42418824D01*
X427000Y-41240492D01*
X15017140Y-41240492D01*
X15108292Y-41461097D01*
X15276927Y-41630027D01*
X15497373Y-41721564D01*
X15736068Y-41721772D01*
X15956673Y-41630620D01*
X16125603Y-41461985D01*
X16217140Y-41241539D01*
X16217177Y-41198959D01*
X37786298Y-41198959D01*
X37877450Y-41419564D01*
X38046085Y-41588494D01*
X38266531Y-41680031D01*
X38505226Y-41680239D01*
X38684658Y-41606099D01*
X38684458Y-41836082D01*
X38775610Y-42056687D01*
X38944245Y-42225617D01*
X39164691Y-42317154D01*
X39403386Y-42317362D01*
X39623991Y-42226210D01*
X39792921Y-42057575D01*
X39884458Y-41837129D01*
X39884666Y-41598434D01*
X39796225Y-41384389D01*
X45932519Y-41384389D01*
X46023671Y-41604994D01*
X46192306Y-41773924D01*
X46290507Y-41814701D01*
X46101915Y-42002964D01*
X45995122Y-42260150D01*
X45994879Y-42538628D01*
X46101223Y-42796000D01*
X46297964Y-42993085D01*
X46555150Y-43099878D01*
X46833628Y-43100121D01*
X47091000Y-42993777D01*
X47288085Y-42797036D01*
X47394878Y-42539850D01*
X47395121Y-42261372D01*
X47288777Y-42004000D01*
X47092036Y-41806915D01*
X46913755Y-41732886D01*
X47040982Y-41605882D01*
X47132519Y-41385436D01*
X47132727Y-41146741D01*
X47041575Y-40926136D01*
X46872940Y-40757206D01*
X46652494Y-40665669D01*
X46413799Y-40665461D01*
X46193194Y-40756613D01*
X46024264Y-40925248D01*
X45932727Y-41145694D01*
X45932519Y-41384389D01*
X39796225Y-41384389D01*
X39793514Y-41377829D01*
X39624879Y-41208899D01*
X39404433Y-41117362D01*
X39165738Y-41117154D01*
X38986306Y-41191294D01*
X38986506Y-40961311D01*
X38895354Y-40740706D01*
X38726719Y-40571776D01*
X38506273Y-40480239D01*
X38267578Y-40480031D01*
X38046973Y-40571183D01*
X37878043Y-40739818D01*
X37786506Y-40960264D01*
X37786298Y-41198959D01*
X16217177Y-41198959D01*
X16217348Y-41002844D01*
X16126196Y-40782239D01*
X15957561Y-40613309D01*
X15737115Y-40521772D01*
X15498420Y-40521564D01*
X15277815Y-40612716D01*
X15108885Y-40781351D01*
X15017348Y-41001797D01*
X15017140Y-41240492D01*
X427000Y-41240492D01*
X427000Y-39145850D01*
X2464755Y-39145850D01*
X2571099Y-39403222D01*
X2767840Y-39600307D01*
X3025026Y-39707100D01*
X3303504Y-39707343D01*
X3519168Y-39618232D01*
X31322300Y-39618232D01*
X31413452Y-39838837D01*
X31582087Y-40007767D01*
X31638102Y-40031027D01*
X31504087Y-40164808D01*
X31412550Y-40385254D01*
X31412342Y-40623949D01*
X31503494Y-40844554D01*
X31672129Y-41013484D01*
X31892575Y-41105021D01*
X32131270Y-41105229D01*
X32351875Y-41014077D01*
X32520805Y-40845442D01*
X32612342Y-40624996D01*
X32612550Y-40386301D01*
X32583190Y-40315243D01*
X50053320Y-40315243D01*
X50144472Y-40535848D01*
X50313107Y-40704778D01*
X50533553Y-40796315D01*
X50772248Y-40796523D01*
X50992853Y-40705371D01*
X51161783Y-40536736D01*
X51253320Y-40316290D01*
X51253528Y-40077595D01*
X51162376Y-39856990D01*
X51013523Y-39707876D01*
X59072652Y-39707876D01*
X59163804Y-39928481D01*
X59332439Y-40097411D01*
X59552885Y-40188948D01*
X59791580Y-40189156D01*
X59824918Y-40175381D01*
X63020496Y-40175381D01*
X63126840Y-40432753D01*
X63323581Y-40629838D01*
X63580767Y-40736631D01*
X63859245Y-40736874D01*
X64116617Y-40630530D01*
X64313702Y-40433789D01*
X64420495Y-40176603D01*
X64420738Y-39898125D01*
X64314394Y-39640753D01*
X64117653Y-39443668D01*
X63860467Y-39336875D01*
X63581989Y-39336632D01*
X63324617Y-39442976D01*
X63127532Y-39639717D01*
X63020739Y-39896903D01*
X63020496Y-40175381D01*
X59824918Y-40175381D01*
X60012185Y-40098004D01*
X60181115Y-39929369D01*
X60272652Y-39708923D01*
X60272860Y-39470228D01*
X60181708Y-39249623D01*
X60013073Y-39080693D01*
X59792627Y-38989156D01*
X59553932Y-38988948D01*
X59333327Y-39080100D01*
X59164397Y-39248735D01*
X59072860Y-39469181D01*
X59072652Y-39707876D01*
X51013523Y-39707876D01*
X50993741Y-39688060D01*
X50773295Y-39596523D01*
X50534600Y-39596315D01*
X50313995Y-39687467D01*
X50145065Y-39856102D01*
X50053528Y-40076548D01*
X50053320Y-40315243D01*
X32583190Y-40315243D01*
X32521398Y-40165696D01*
X32352763Y-39996766D01*
X32296748Y-39973506D01*
X32430763Y-39839725D01*
X32522300Y-39619279D01*
X32522508Y-39380584D01*
X32431356Y-39159979D01*
X32293263Y-39021644D01*
X45387553Y-39021644D01*
X45478705Y-39242249D01*
X45647340Y-39411179D01*
X45658590Y-39415850D01*
X45626105Y-39494082D01*
X45625897Y-39732777D01*
X45717049Y-39953382D01*
X45885684Y-40122312D01*
X46106130Y-40213849D01*
X46344825Y-40214057D01*
X46565430Y-40122905D01*
X46734360Y-39954270D01*
X46825897Y-39733824D01*
X46826105Y-39495129D01*
X46734953Y-39274524D01*
X46566318Y-39105594D01*
X46555068Y-39100923D01*
X46587553Y-39022691D01*
X46587556Y-39018824D01*
X57999896Y-39018824D01*
X58091048Y-39239429D01*
X58259683Y-39408359D01*
X58480129Y-39499896D01*
X58718824Y-39500104D01*
X58939429Y-39408952D01*
X59108359Y-39240317D01*
X59199896Y-39019871D01*
X59200104Y-38781176D01*
X59108952Y-38560571D01*
X58940317Y-38391641D01*
X58719871Y-38300104D01*
X58481176Y-38299896D01*
X58260571Y-38391048D01*
X58091641Y-38559683D01*
X58000104Y-38780129D01*
X57999896Y-39018824D01*
X46587556Y-39018824D01*
X46587761Y-38783996D01*
X46496609Y-38563391D01*
X46327974Y-38394461D01*
X46107528Y-38302924D01*
X45868833Y-38302716D01*
X45648228Y-38393868D01*
X45479298Y-38562503D01*
X45387761Y-38782949D01*
X45387553Y-39021644D01*
X32293263Y-39021644D01*
X32262721Y-38991049D01*
X32042275Y-38899512D01*
X31803580Y-38899304D01*
X31582975Y-38990456D01*
X31414045Y-39159091D01*
X31322508Y-39379537D01*
X31322300Y-39618232D01*
X3519168Y-39618232D01*
X3560876Y-39600999D01*
X3757961Y-39404258D01*
X3864754Y-39147072D01*
X3864997Y-38868594D01*
X3758653Y-38611222D01*
X3561912Y-38414137D01*
X3304726Y-38307344D01*
X3026248Y-38307101D01*
X2768876Y-38413445D01*
X2571791Y-38610186D01*
X2464998Y-38867372D01*
X2464755Y-39145850D01*
X427000Y-39145850D01*
X427000Y-37652750D01*
X15212297Y-37652750D01*
X15318641Y-37910122D01*
X15515382Y-38107207D01*
X15772568Y-38214000D01*
X16051046Y-38214243D01*
X16308418Y-38107899D01*
X16505503Y-37911158D01*
X16612296Y-37653972D01*
X16612396Y-37538628D01*
X19099879Y-37538628D01*
X19206223Y-37796000D01*
X19402964Y-37993085D01*
X19660150Y-38099878D01*
X19938628Y-38100121D01*
X20196000Y-37993777D01*
X20393085Y-37797036D01*
X20499878Y-37539850D01*
X20499885Y-37531073D01*
X20905795Y-37531073D01*
X21012139Y-37788445D01*
X21208880Y-37985530D01*
X21466066Y-38092323D01*
X21744544Y-38092566D01*
X22001916Y-37986222D01*
X22199001Y-37789481D01*
X22305794Y-37532295D01*
X22305838Y-37480877D01*
X28003377Y-37480877D01*
X28094529Y-37701482D01*
X28263164Y-37870412D01*
X28465736Y-37954527D01*
X28400147Y-38020001D01*
X28308610Y-38240447D01*
X28308402Y-38479142D01*
X28399554Y-38699747D01*
X28568189Y-38868677D01*
X28788635Y-38960214D01*
X29027330Y-38960422D01*
X29247935Y-38869270D01*
X29416865Y-38700635D01*
X29508402Y-38480189D01*
X29508503Y-38363618D01*
X39336017Y-38363618D01*
X39442361Y-38620990D01*
X39639102Y-38818075D01*
X39896288Y-38924868D01*
X40174766Y-38925111D01*
X40432138Y-38818767D01*
X40629223Y-38622026D01*
X40736016Y-38364840D01*
X40736259Y-38086362D01*
X40629915Y-37828990D01*
X40433174Y-37631905D01*
X40175988Y-37525112D01*
X39897510Y-37524869D01*
X39640138Y-37631213D01*
X39443053Y-37827954D01*
X39336260Y-38085140D01*
X39336017Y-38363618D01*
X29508503Y-38363618D01*
X29508610Y-38241494D01*
X29417458Y-38020889D01*
X29248823Y-37851959D01*
X29046251Y-37767844D01*
X29111840Y-37702370D01*
X29203377Y-37481924D01*
X29203585Y-37243229D01*
X29152182Y-37118824D01*
X55499896Y-37118824D01*
X55591048Y-37339429D01*
X55759683Y-37508359D01*
X55980129Y-37599896D01*
X56218824Y-37600104D01*
X56221636Y-37598942D01*
X59580505Y-37598942D01*
X59686849Y-37856314D01*
X59883590Y-38053399D01*
X60140776Y-38160192D01*
X60419254Y-38160435D01*
X60676626Y-38054091D01*
X60873711Y-37857350D01*
X60980504Y-37600164D01*
X60980747Y-37321686D01*
X60874403Y-37064314D01*
X60677662Y-36867229D01*
X60420476Y-36760436D01*
X60141998Y-36760193D01*
X59884626Y-36866537D01*
X59687541Y-37063278D01*
X59580748Y-37320464D01*
X59580505Y-37598942D01*
X56221636Y-37598942D01*
X56439429Y-37508952D01*
X56608359Y-37340317D01*
X56699896Y-37119871D01*
X56700104Y-36881176D01*
X56608952Y-36660571D01*
X56605642Y-36657255D01*
X58365379Y-36657255D01*
X58456531Y-36877860D01*
X58625166Y-37046790D01*
X58845612Y-37138327D01*
X59084307Y-37138535D01*
X59304912Y-37047383D01*
X59473842Y-36878748D01*
X59565379Y-36658302D01*
X59565587Y-36419607D01*
X59474435Y-36199002D01*
X59305800Y-36030072D01*
X59085354Y-35938535D01*
X58846659Y-35938327D01*
X58626054Y-36029479D01*
X58457124Y-36198114D01*
X58365587Y-36418560D01*
X58365379Y-36657255D01*
X56605642Y-36657255D01*
X56440317Y-36491641D01*
X56219871Y-36400104D01*
X55981176Y-36399896D01*
X55760571Y-36491048D01*
X55591641Y-36659683D01*
X55500104Y-36880129D01*
X55499896Y-37118824D01*
X29152182Y-37118824D01*
X29112433Y-37022624D01*
X28943798Y-36853694D01*
X28723352Y-36762157D01*
X28484657Y-36761949D01*
X28264052Y-36853101D01*
X28095122Y-37021736D01*
X28003585Y-37242182D01*
X28003377Y-37480877D01*
X22305838Y-37480877D01*
X22306037Y-37253817D01*
X22199693Y-36996445D01*
X22002952Y-36799360D01*
X21745766Y-36692567D01*
X21467288Y-36692324D01*
X21209916Y-36798668D01*
X21012831Y-36995409D01*
X20906038Y-37252595D01*
X20905795Y-37531073D01*
X20499885Y-37531073D01*
X20500121Y-37261372D01*
X20393777Y-37004000D01*
X20197036Y-36806915D01*
X19939850Y-36700122D01*
X19661372Y-36699879D01*
X19404000Y-36806223D01*
X19206915Y-37002964D01*
X19100122Y-37260150D01*
X19099879Y-37538628D01*
X16612396Y-37538628D01*
X16612539Y-37375494D01*
X16506195Y-37118122D01*
X16309454Y-36921037D01*
X16052268Y-36814244D01*
X15773790Y-36814001D01*
X15516418Y-36920345D01*
X15319333Y-37117086D01*
X15212540Y-37374272D01*
X15212297Y-37652750D01*
X427000Y-37652750D01*
X427000Y-36018824D01*
X14999896Y-36018824D01*
X15091048Y-36239429D01*
X15259683Y-36408359D01*
X15480129Y-36499896D01*
X15718824Y-36500104D01*
X15939429Y-36408952D01*
X16108359Y-36240317D01*
X16158807Y-36118824D01*
X31599896Y-36118824D01*
X31691048Y-36339429D01*
X31859683Y-36508359D01*
X32080129Y-36599896D01*
X32318824Y-36600104D01*
X32539429Y-36508952D01*
X32708359Y-36340317D01*
X32791103Y-36141045D01*
X50995724Y-36141045D01*
X51086876Y-36361650D01*
X51255511Y-36530580D01*
X51475957Y-36622117D01*
X51714652Y-36622325D01*
X51935257Y-36531173D01*
X52104187Y-36362538D01*
X52195724Y-36142092D01*
X52195932Y-35903397D01*
X52104780Y-35682792D01*
X51936145Y-35513862D01*
X51715699Y-35422325D01*
X51477004Y-35422117D01*
X51256399Y-35513269D01*
X51087469Y-35681904D01*
X50995932Y-35902350D01*
X50995724Y-36141045D01*
X32791103Y-36141045D01*
X32799896Y-36119871D01*
X32800104Y-35881176D01*
X32708952Y-35660571D01*
X32540317Y-35491641D01*
X32423492Y-35443131D01*
X49716253Y-35443131D01*
X49807405Y-35663736D01*
X49976040Y-35832666D01*
X50196486Y-35924203D01*
X50435181Y-35924411D01*
X50655786Y-35833259D01*
X50824716Y-35664624D01*
X50916253Y-35444178D01*
X50916461Y-35205483D01*
X50825309Y-34984878D01*
X50656674Y-34815948D01*
X50436228Y-34724411D01*
X50197533Y-34724203D01*
X49976928Y-34815355D01*
X49807998Y-34983990D01*
X49716461Y-35204436D01*
X49716253Y-35443131D01*
X32423492Y-35443131D01*
X32319871Y-35400104D01*
X32081176Y-35399896D01*
X31860571Y-35491048D01*
X31691641Y-35659683D01*
X31600104Y-35880129D01*
X31599896Y-36118824D01*
X16158807Y-36118824D01*
X16199896Y-36019871D01*
X16200104Y-35781176D01*
X16108952Y-35560571D01*
X15940317Y-35391641D01*
X15719871Y-35300104D01*
X15481176Y-35299896D01*
X15260571Y-35391048D01*
X15091641Y-35559683D01*
X15000104Y-35780129D01*
X14999896Y-36018824D01*
X427000Y-36018824D01*
X427000Y-34270462D01*
X51015825Y-34270462D01*
X51106977Y-34491067D01*
X51275612Y-34659997D01*
X51496058Y-34751534D01*
X51734753Y-34751742D01*
X51753940Y-34743814D01*
X54854909Y-34743814D01*
X54946061Y-34964419D01*
X55114696Y-35133349D01*
X55335142Y-35224886D01*
X55573837Y-35225094D01*
X55794442Y-35133942D01*
X55963372Y-34965307D01*
X56054909Y-34744861D01*
X56055117Y-34506166D01*
X55963965Y-34285561D01*
X55795330Y-34116631D01*
X55574884Y-34025094D01*
X55336189Y-34024886D01*
X55115584Y-34116038D01*
X54946654Y-34284673D01*
X54855117Y-34505119D01*
X54854909Y-34743814D01*
X51753940Y-34743814D01*
X51955358Y-34660590D01*
X52124288Y-34491955D01*
X52215825Y-34271509D01*
X52216033Y-34032814D01*
X52124881Y-33812209D01*
X51956246Y-33643279D01*
X51735800Y-33551742D01*
X51497105Y-33551534D01*
X51276500Y-33642686D01*
X51107570Y-33811321D01*
X51016033Y-34031767D01*
X51015825Y-34270462D01*
X427000Y-34270462D01*
X427000Y-32438628D01*
X25399879Y-32438628D01*
X25506223Y-32696000D01*
X25702964Y-32893085D01*
X25960150Y-32999878D01*
X26238628Y-33000121D01*
X26496000Y-32893777D01*
X26663464Y-32726605D01*
X26823394Y-32793014D01*
X27062089Y-32793222D01*
X27282694Y-32702070D01*
X27451624Y-32533435D01*
X27499214Y-32418824D01*
X31599896Y-32418824D01*
X31691048Y-32639429D01*
X31859683Y-32808359D01*
X31959940Y-32849989D01*
X31860571Y-32891048D01*
X31691641Y-33059683D01*
X31600104Y-33280129D01*
X31599896Y-33518824D01*
X31691048Y-33739429D01*
X31859683Y-33908359D01*
X32080129Y-33999896D01*
X32318824Y-34000104D01*
X32539429Y-33908952D01*
X32708359Y-33740317D01*
X32758807Y-33618824D01*
X45999896Y-33618824D01*
X46091048Y-33839429D01*
X46259683Y-34008359D01*
X46480129Y-34099896D01*
X46718824Y-34100104D01*
X46939429Y-34008952D01*
X47108359Y-33840317D01*
X47199896Y-33619871D01*
X47200104Y-33381176D01*
X47108952Y-33160571D01*
X46940317Y-32991641D01*
X46719871Y-32900104D01*
X46481176Y-32899896D01*
X46260571Y-32991048D01*
X46091641Y-33159683D01*
X46000104Y-33380129D01*
X45999896Y-33618824D01*
X32758807Y-33618824D01*
X32799896Y-33519871D01*
X32800104Y-33281176D01*
X32708952Y-33060571D01*
X32540317Y-32891641D01*
X32440060Y-32850011D01*
X32539429Y-32808952D01*
X32708359Y-32640317D01*
X32799896Y-32419871D01*
X32800104Y-32181176D01*
X32708952Y-31960571D01*
X32540317Y-31791641D01*
X32319871Y-31700104D01*
X32081176Y-31699896D01*
X31860571Y-31791048D01*
X31691641Y-31959683D01*
X31600104Y-32180129D01*
X31599896Y-32418824D01*
X27499214Y-32418824D01*
X27543161Y-32312989D01*
X27543369Y-32074294D01*
X27452217Y-31853689D01*
X27283582Y-31684759D01*
X27063136Y-31593222D01*
X26824441Y-31593014D01*
X26603836Y-31684166D01*
X26538968Y-31748921D01*
X26497036Y-31706915D01*
X26239850Y-31600122D01*
X25961372Y-31599879D01*
X25704000Y-31706223D01*
X25506915Y-31902964D01*
X25400122Y-32160150D01*
X25399879Y-32438628D01*
X427000Y-32438628D01*
X427000Y-31238628D01*
X18899879Y-31238628D01*
X19006223Y-31496000D01*
X19202964Y-31693085D01*
X19460150Y-31799878D01*
X19738628Y-31800121D01*
X19996000Y-31693777D01*
X20193085Y-31497036D01*
X20299878Y-31239850D01*
X20299983Y-31118824D01*
X45899896Y-31118824D01*
X45991048Y-31339429D01*
X46159683Y-31508359D01*
X46380129Y-31599896D01*
X46381174Y-31599897D01*
X46160571Y-31691048D01*
X45991641Y-31859683D01*
X45900104Y-32080129D01*
X45899896Y-32318824D01*
X45991048Y-32539429D01*
X46159683Y-32708359D01*
X46380129Y-32799896D01*
X46618824Y-32800104D01*
X46839429Y-32708952D01*
X47008359Y-32540317D01*
X47099896Y-32319871D01*
X47100104Y-32081176D01*
X47008952Y-31860571D01*
X46840317Y-31691641D01*
X46619871Y-31600104D01*
X46618826Y-31600103D01*
X46839429Y-31508952D01*
X47008359Y-31340317D01*
X47099896Y-31119871D01*
X47100104Y-30881176D01*
X47008952Y-30660571D01*
X46840317Y-30491641D01*
X46619871Y-30400104D01*
X46381176Y-30399896D01*
X46160571Y-30491048D01*
X45991641Y-30659683D01*
X45900104Y-30880129D01*
X45899896Y-31118824D01*
X20299983Y-31118824D01*
X20300121Y-30961372D01*
X20193777Y-30704000D01*
X19997036Y-30506915D01*
X19889731Y-30462358D01*
X24283409Y-30462358D01*
X24374561Y-30682963D01*
X24543196Y-30851893D01*
X24763642Y-30943430D01*
X25002337Y-30943638D01*
X25222942Y-30852486D01*
X25391872Y-30683851D01*
X25483409Y-30463405D01*
X25483567Y-30281572D01*
X25550810Y-30281572D01*
X25641962Y-30502177D01*
X25810597Y-30671107D01*
X26031043Y-30762644D01*
X26269738Y-30762852D01*
X26490343Y-30671700D01*
X26659273Y-30503065D01*
X26684117Y-30443233D01*
X26918171Y-30443233D01*
X27009323Y-30663838D01*
X27177958Y-30832768D01*
X27398404Y-30924305D01*
X27637099Y-30924513D01*
X27857704Y-30833361D01*
X28026634Y-30664726D01*
X28118171Y-30444280D01*
X28118379Y-30205585D01*
X28027227Y-29984980D01*
X27858592Y-29816050D01*
X27672139Y-29738628D01*
X55499879Y-29738628D01*
X55606223Y-29996000D01*
X55802964Y-30193085D01*
X56060150Y-30299878D01*
X56338628Y-30300121D01*
X56596000Y-30193777D01*
X56793085Y-29997036D01*
X56899878Y-29739850D01*
X56899879Y-29738628D01*
X61599879Y-29738628D01*
X61706223Y-29996000D01*
X61902964Y-30193085D01*
X62160150Y-30299878D01*
X62438628Y-30300121D01*
X62696000Y-30193777D01*
X62893085Y-29997036D01*
X62999878Y-29739850D01*
X63000121Y-29461372D01*
X62893777Y-29204000D01*
X62697036Y-29006915D01*
X62439850Y-28900122D01*
X62161372Y-28899879D01*
X61904000Y-29006223D01*
X61706915Y-29202964D01*
X61600122Y-29460150D01*
X61599879Y-29738628D01*
X56899879Y-29738628D01*
X56900121Y-29461372D01*
X56793777Y-29204000D01*
X56597036Y-29006915D01*
X56339850Y-28900122D01*
X56061372Y-28899879D01*
X55804000Y-29006223D01*
X55606915Y-29202964D01*
X55500122Y-29460150D01*
X55499879Y-29738628D01*
X27672139Y-29738628D01*
X27638146Y-29724513D01*
X27399451Y-29724305D01*
X27178846Y-29815457D01*
X27009916Y-29984092D01*
X26918379Y-30204538D01*
X26918171Y-30443233D01*
X26684117Y-30443233D01*
X26750810Y-30282619D01*
X26751018Y-30043924D01*
X26659866Y-29823319D01*
X26491231Y-29654389D01*
X26270785Y-29562852D01*
X26032090Y-29562644D01*
X25811485Y-29653796D01*
X25642555Y-29822431D01*
X25551018Y-30042877D01*
X25550810Y-30281572D01*
X25483567Y-30281572D01*
X25483617Y-30224710D01*
X25392465Y-30004105D01*
X25223830Y-29835175D01*
X25003384Y-29743638D01*
X24764689Y-29743430D01*
X24544084Y-29834582D01*
X24375154Y-30003217D01*
X24283617Y-30223663D01*
X24283409Y-30462358D01*
X19889731Y-30462358D01*
X19739850Y-30400122D01*
X19461372Y-30399879D01*
X19204000Y-30506223D01*
X19006915Y-30702964D01*
X18900122Y-30960150D01*
X18899879Y-31238628D01*
X427000Y-31238628D01*
X427000Y-30217407D01*
X15233028Y-30217407D01*
X15339372Y-30474779D01*
X15536113Y-30671864D01*
X15793299Y-30778657D01*
X16071777Y-30778900D01*
X16329149Y-30672556D01*
X16526234Y-30475815D01*
X16633027Y-30218629D01*
X16633270Y-29940151D01*
X16526926Y-29682779D01*
X16330185Y-29485694D01*
X16072999Y-29378901D01*
X15794521Y-29378658D01*
X15537149Y-29485002D01*
X15340064Y-29681743D01*
X15233271Y-29938929D01*
X15233028Y-30217407D01*
X427000Y-30217407D01*
X427000Y-28638628D01*
X2499879Y-28638628D01*
X2606223Y-28896000D01*
X2802964Y-29093085D01*
X3060150Y-29199878D01*
X3338628Y-29200121D01*
X3596000Y-29093777D01*
X3793085Y-28897036D01*
X3794673Y-28893211D01*
X26926671Y-28893211D01*
X27017823Y-29113816D01*
X27186458Y-29282746D01*
X27406904Y-29374283D01*
X27645599Y-29374491D01*
X27866204Y-29283339D01*
X28035134Y-29114704D01*
X28126671Y-28894258D01*
X28126879Y-28655563D01*
X28035727Y-28434958D01*
X27867092Y-28266028D01*
X27646646Y-28174491D01*
X27407951Y-28174283D01*
X27187346Y-28265435D01*
X27018416Y-28434070D01*
X26926879Y-28654516D01*
X26926671Y-28893211D01*
X3794673Y-28893211D01*
X3899878Y-28639850D01*
X3900121Y-28361372D01*
X3793777Y-28104000D01*
X3628826Y-27938760D01*
X46331392Y-27938760D01*
X46422544Y-28159365D01*
X46591179Y-28328295D01*
X46811625Y-28419832D01*
X47050320Y-28420040D01*
X47270925Y-28328888D01*
X47439855Y-28160253D01*
X47531392Y-27939807D01*
X47531600Y-27701112D01*
X47440448Y-27480507D01*
X47271813Y-27311577D01*
X47051367Y-27220040D01*
X46812672Y-27219832D01*
X46592067Y-27310984D01*
X46423137Y-27479619D01*
X46331600Y-27700065D01*
X46331392Y-27938760D01*
X3628826Y-27938760D01*
X3597036Y-27906915D01*
X3339850Y-27800122D01*
X3061372Y-27799879D01*
X2804000Y-27906223D01*
X2606915Y-28102964D01*
X2500122Y-28360150D01*
X2499879Y-28638628D01*
X427000Y-28638628D01*
X427000Y-26911079D01*
X24285819Y-26911079D01*
X24376971Y-27131684D01*
X24545606Y-27300614D01*
X24766052Y-27392151D01*
X25004747Y-27392359D01*
X25225352Y-27301207D01*
X25394282Y-27132572D01*
X25406300Y-27103628D01*
X42534879Y-27103628D01*
X42641223Y-27361000D01*
X42837964Y-27558085D01*
X43095150Y-27664878D01*
X43373628Y-27665121D01*
X43631000Y-27558777D01*
X43828085Y-27362036D01*
X43934878Y-27104850D01*
X43935121Y-26826372D01*
X43828777Y-26569000D01*
X43632036Y-26371915D01*
X43374850Y-26265122D01*
X43096372Y-26264879D01*
X42839000Y-26371223D01*
X42641915Y-26567964D01*
X42535122Y-26825150D01*
X42534879Y-27103628D01*
X25406300Y-27103628D01*
X25485819Y-26912126D01*
X25486027Y-26673431D01*
X25394875Y-26452826D01*
X25226240Y-26283896D01*
X25046863Y-26209412D01*
X25536617Y-26209412D01*
X25627769Y-26430017D01*
X25796404Y-26598947D01*
X26016850Y-26690484D01*
X26255545Y-26690692D01*
X26429479Y-26618824D01*
X33099896Y-26618824D01*
X33191048Y-26839429D01*
X33359683Y-27008359D01*
X33580129Y-27099896D01*
X33818824Y-27100104D01*
X34039429Y-27008952D01*
X34208359Y-26840317D01*
X34299896Y-26619871D01*
X34300104Y-26381176D01*
X34237073Y-26228628D01*
X44409879Y-26228628D01*
X44516223Y-26486000D01*
X44712964Y-26683085D01*
X44970150Y-26789878D01*
X45248628Y-26790121D01*
X45506000Y-26683777D01*
X45703085Y-26487036D01*
X45809878Y-26229850D01*
X45810121Y-25951372D01*
X45703777Y-25694000D01*
X45507036Y-25496915D01*
X45249850Y-25390122D01*
X44971372Y-25389879D01*
X44714000Y-25496223D01*
X44516915Y-25692964D01*
X44410122Y-25950150D01*
X44409879Y-26228628D01*
X34237073Y-26228628D01*
X34208952Y-26160571D01*
X34040317Y-25991641D01*
X33819871Y-25900104D01*
X33581176Y-25899896D01*
X33360571Y-25991048D01*
X33191641Y-26159683D01*
X33100104Y-26380129D01*
X33099896Y-26618824D01*
X26429479Y-26618824D01*
X26476150Y-26599540D01*
X26645080Y-26430905D01*
X26736617Y-26210459D01*
X26736825Y-25971764D01*
X26658537Y-25782292D01*
X26825291Y-25851534D01*
X27063986Y-25851742D01*
X27284591Y-25760590D01*
X27453521Y-25591955D01*
X27545058Y-25371509D01*
X27545266Y-25132814D01*
X27454114Y-24912209D01*
X27285479Y-24743279D01*
X27226585Y-24718824D01*
X47599896Y-24718824D01*
X47691048Y-24939429D01*
X47859683Y-25108359D01*
X48080129Y-25199896D01*
X48318824Y-25200104D01*
X48539429Y-25108952D01*
X48708359Y-24940317D01*
X48799896Y-24719871D01*
X48799896Y-24718824D01*
X52699896Y-24718824D01*
X52791048Y-24939429D01*
X52959683Y-25108359D01*
X53180129Y-25199896D01*
X53418824Y-25200104D01*
X53639429Y-25108952D01*
X53808359Y-24940317D01*
X53899896Y-24719871D01*
X53900104Y-24481176D01*
X53874341Y-24418824D01*
X54199896Y-24418824D01*
X54291048Y-24639429D01*
X54459683Y-24808359D01*
X54680129Y-24899896D01*
X54918824Y-24900104D01*
X55139429Y-24808952D01*
X55308359Y-24640317D01*
X55399896Y-24419871D01*
X55400104Y-24181176D01*
X55308952Y-23960571D01*
X55140317Y-23791641D01*
X54919871Y-23700104D01*
X54681176Y-23699896D01*
X54460571Y-23791048D01*
X54291641Y-23959683D01*
X54200104Y-24180129D01*
X54199896Y-24418824D01*
X53874341Y-24418824D01*
X53808952Y-24260571D01*
X53640317Y-24091641D01*
X53419871Y-24000104D01*
X53181176Y-23999896D01*
X52960571Y-24091048D01*
X52791641Y-24259683D01*
X52700104Y-24480129D01*
X52699896Y-24718824D01*
X48799896Y-24718824D01*
X48800104Y-24481176D01*
X48708952Y-24260571D01*
X48540317Y-24091641D01*
X48319871Y-24000104D01*
X48081176Y-23999896D01*
X47860571Y-24091048D01*
X47691641Y-24259683D01*
X47600104Y-24480129D01*
X47599896Y-24718824D01*
X27226585Y-24718824D01*
X27065033Y-24651742D01*
X26826338Y-24651534D01*
X26605733Y-24742686D01*
X26436803Y-24911321D01*
X26345266Y-25131767D01*
X26345058Y-25370462D01*
X26423346Y-25559934D01*
X26256592Y-25490692D01*
X26017897Y-25490484D01*
X25797292Y-25581636D01*
X25628362Y-25750271D01*
X25536825Y-25970717D01*
X25536617Y-26209412D01*
X25046863Y-26209412D01*
X25005794Y-26192359D01*
X24767099Y-26192151D01*
X24546494Y-26283303D01*
X24377564Y-26451938D01*
X24286027Y-26672384D01*
X24285819Y-26911079D01*
X427000Y-26911079D01*
X427000Y-24238628D01*
X1699879Y-24238628D01*
X1806223Y-24496000D01*
X2002964Y-24693085D01*
X2260150Y-24799878D01*
X2538628Y-24800121D01*
X2796000Y-24693777D01*
X2993085Y-24497036D01*
X3099878Y-24239850D01*
X3100121Y-23961372D01*
X2993777Y-23704000D01*
X2797036Y-23506915D01*
X2539850Y-23400122D01*
X2261372Y-23399879D01*
X2004000Y-23506223D01*
X1806915Y-23702964D01*
X1700122Y-23960150D01*
X1699879Y-24238628D01*
X427000Y-24238628D01*
X427000Y-21418824D01*
X27899896Y-21418824D01*
X27991048Y-21639429D01*
X28159683Y-21808359D01*
X28380129Y-21899896D01*
X28618824Y-21900104D01*
X28839429Y-21808952D01*
X28967110Y-21681494D01*
X28991048Y-21739429D01*
X29159683Y-21908359D01*
X29380129Y-21999896D01*
X29618824Y-22000104D01*
X29839429Y-21908952D01*
X30008359Y-21740317D01*
X30053174Y-21632388D01*
X37995787Y-21632388D01*
X38086939Y-21852993D01*
X38255574Y-22021923D01*
X38476020Y-22113460D01*
X38714715Y-22113668D01*
X38935320Y-22022516D01*
X39104250Y-21853881D01*
X39195787Y-21633435D01*
X39195995Y-21394740D01*
X39104843Y-21174135D01*
X38936208Y-21005205D01*
X38715762Y-20913668D01*
X38477067Y-20913460D01*
X38256462Y-21004612D01*
X38087532Y-21173247D01*
X37995995Y-21393693D01*
X37995787Y-21632388D01*
X30053174Y-21632388D01*
X30099896Y-21519871D01*
X30100104Y-21281176D01*
X30008952Y-21060571D01*
X29840317Y-20891641D01*
X29619871Y-20800104D01*
X29381176Y-20799896D01*
X29160571Y-20891048D01*
X29032890Y-21018506D01*
X29008952Y-20960571D01*
X28840317Y-20791641D01*
X28619871Y-20700104D01*
X28381176Y-20699896D01*
X28160571Y-20791048D01*
X27991641Y-20959683D01*
X27900104Y-21180129D01*
X27899896Y-21418824D01*
X427000Y-21418824D01*
X427000Y-18778357D01*
X17772248Y-18778357D01*
X17878592Y-19035729D01*
X18075333Y-19232814D01*
X18332519Y-19339607D01*
X18610997Y-19339850D01*
X18868369Y-19233506D01*
X19065454Y-19036765D01*
X19172247Y-18779579D01*
X19172490Y-18501101D01*
X19074146Y-18263090D01*
X37804271Y-18263090D01*
X37910615Y-18520462D01*
X38107356Y-18717547D01*
X38364542Y-18824340D01*
X38643020Y-18824583D01*
X38900392Y-18718239D01*
X39049852Y-18569040D01*
X39049835Y-18588138D01*
X39194159Y-18937429D01*
X39461165Y-19204902D01*
X39810204Y-19349835D01*
X39811859Y-19349836D01*
X39462571Y-19494159D01*
X39195098Y-19761165D01*
X39050165Y-20110204D01*
X39049835Y-20488138D01*
X39194159Y-20837429D01*
X39461165Y-21104902D01*
X39711635Y-21208906D01*
X39642322Y-21375831D01*
X39642114Y-21614526D01*
X39733266Y-21835131D01*
X39901901Y-22004061D01*
X40122347Y-22095598D01*
X40361042Y-22095806D01*
X40581647Y-22004654D01*
X40606671Y-21979674D01*
X40606488Y-22189532D01*
X40697640Y-22410137D01*
X40866275Y-22579067D01*
X41086721Y-22670604D01*
X41325416Y-22670812D01*
X41546021Y-22579660D01*
X41714951Y-22411025D01*
X41806488Y-22190579D01*
X41806696Y-21951884D01*
X41793036Y-21918824D01*
X52699896Y-21918824D01*
X52791048Y-22139429D01*
X52959683Y-22308359D01*
X53180129Y-22399896D01*
X53418824Y-22400104D01*
X53639429Y-22308952D01*
X53808359Y-22140317D01*
X53899896Y-21919871D01*
X53899923Y-21888628D01*
X61599879Y-21888628D01*
X61706223Y-22146000D01*
X61902964Y-22343085D01*
X62160150Y-22449878D01*
X62438628Y-22450121D01*
X62696000Y-22343777D01*
X62893085Y-22147036D01*
X62999878Y-21889850D01*
X63000121Y-21611372D01*
X62893777Y-21354000D01*
X62697036Y-21156915D01*
X62439850Y-21050122D01*
X62161372Y-21049879D01*
X61904000Y-21156223D01*
X61706915Y-21352964D01*
X61600122Y-21610150D01*
X61599879Y-21888628D01*
X53899923Y-21888628D01*
X53900104Y-21681176D01*
X53808952Y-21460571D01*
X53640317Y-21291641D01*
X53419871Y-21200104D01*
X53181176Y-21199896D01*
X52960571Y-21291048D01*
X52791641Y-21459683D01*
X52700104Y-21680129D01*
X52699896Y-21918824D01*
X41793036Y-21918824D01*
X41715544Y-21731279D01*
X41546909Y-21562349D01*
X41326463Y-21470812D01*
X41087768Y-21470604D01*
X40867163Y-21561756D01*
X40842139Y-21586736D01*
X40842322Y-21376878D01*
X40751170Y-21156273D01*
X40619270Y-21024143D01*
X40804902Y-20838835D01*
X40949835Y-20489796D01*
X40950165Y-20111862D01*
X40805841Y-19762571D01*
X40538835Y-19495098D01*
X40189796Y-19350165D01*
X40188141Y-19350164D01*
X40537429Y-19205841D01*
X40804902Y-18938835D01*
X40949835Y-18589796D01*
X40950165Y-18211862D01*
X40805841Y-17862571D01*
X40538835Y-17595098D01*
X40189796Y-17450165D01*
X39811862Y-17449835D01*
X39462571Y-17594159D01*
X39195098Y-17861165D01*
X39173997Y-17911981D01*
X39098169Y-17728462D01*
X38901428Y-17531377D01*
X38644242Y-17424584D01*
X38365764Y-17424341D01*
X38108392Y-17530685D01*
X37911307Y-17727426D01*
X37804514Y-17984612D01*
X37804271Y-18263090D01*
X19074146Y-18263090D01*
X19066146Y-18243729D01*
X18869405Y-18046644D01*
X18612219Y-17939851D01*
X18333741Y-17939608D01*
X18076369Y-18045952D01*
X17879284Y-18242693D01*
X17772491Y-18499879D01*
X17772248Y-18778357D01*
X427000Y-18778357D01*
X427000Y-16438628D01*
X42199879Y-16438628D01*
X42306223Y-16696000D01*
X42502964Y-16893085D01*
X42760150Y-16999878D01*
X43038628Y-17000121D01*
X43296000Y-16893777D01*
X43493085Y-16697036D01*
X43599878Y-16439850D01*
X43600121Y-16161372D01*
X43493777Y-15904000D01*
X43297036Y-15706915D01*
X43106376Y-15627746D01*
X56249801Y-15627746D01*
X56424509Y-16050572D01*
X56747727Y-16374354D01*
X56809118Y-16399846D01*
X56749428Y-16424509D01*
X56425646Y-16747727D01*
X56250200Y-17170247D01*
X56249801Y-17627746D01*
X56424509Y-18050572D01*
X56747727Y-18374354D01*
X57170247Y-18549800D01*
X57627746Y-18550199D01*
X58050572Y-18375491D01*
X58374354Y-18052273D01*
X58549800Y-17629753D01*
X58550199Y-17172254D01*
X58375491Y-16749428D01*
X58320783Y-16694624D01*
X60610326Y-16694624D01*
X60716670Y-16951996D01*
X60913411Y-17149081D01*
X61170597Y-17255874D01*
X61449075Y-17256117D01*
X61706447Y-17149773D01*
X61903532Y-16953032D01*
X62010325Y-16695846D01*
X62010568Y-16417368D01*
X61904224Y-16159996D01*
X61707483Y-15962911D01*
X61450297Y-15856118D01*
X61171819Y-15855875D01*
X60914447Y-15962219D01*
X60717362Y-16158960D01*
X60610569Y-16416146D01*
X60610326Y-16694624D01*
X58320783Y-16694624D01*
X58052273Y-16425646D01*
X57990882Y-16400154D01*
X58050572Y-16375491D01*
X58374354Y-16052273D01*
X58549800Y-15629753D01*
X58550199Y-15172254D01*
X58375491Y-14749428D01*
X58052273Y-14425646D01*
X57629753Y-14250200D01*
X57172254Y-14249801D01*
X56749428Y-14424509D01*
X56425646Y-14747727D01*
X56250200Y-15170247D01*
X56249801Y-15627746D01*
X43106376Y-15627746D01*
X43039850Y-15600122D01*
X42761372Y-15599879D01*
X42504000Y-15706223D01*
X42306915Y-15902964D01*
X42200122Y-16160150D01*
X42199879Y-16438628D01*
X427000Y-16438628D01*
X427000Y-14918824D01*
X4299896Y-14918824D01*
X4391048Y-15139429D01*
X4559683Y-15308359D01*
X4780129Y-15399896D01*
X5018824Y-15400104D01*
X5034046Y-15393814D01*
X28279146Y-15393814D01*
X28370298Y-15614419D01*
X28538933Y-15783349D01*
X28759379Y-15874886D01*
X28998074Y-15875094D01*
X29218679Y-15783942D01*
X29387609Y-15615307D01*
X29440840Y-15487112D01*
X29640042Y-15487286D01*
X29860647Y-15396134D01*
X30029577Y-15227499D01*
X30121114Y-15007053D01*
X30121322Y-14768358D01*
X30030170Y-14547753D01*
X29861535Y-14378823D01*
X29641089Y-14287286D01*
X29402394Y-14287078D01*
X29181789Y-14378230D01*
X29012859Y-14546865D01*
X28959628Y-14675060D01*
X28760426Y-14674886D01*
X28539821Y-14766038D01*
X28370891Y-14934673D01*
X28279354Y-15155119D01*
X28279146Y-15393814D01*
X5034046Y-15393814D01*
X5239429Y-15308952D01*
X5408359Y-15140317D01*
X5499896Y-14919871D01*
X5500104Y-14681176D01*
X5408952Y-14460571D01*
X5240317Y-14291641D01*
X5019871Y-14200104D01*
X4781176Y-14199896D01*
X4560571Y-14291048D01*
X4391641Y-14459683D01*
X4300104Y-14680129D01*
X4299896Y-14918824D01*
X427000Y-14918824D01*
X427000Y-13779774D01*
X22258733Y-13779774D01*
X22365077Y-14037146D01*
X22561818Y-14234231D01*
X22819004Y-14341024D01*
X23097482Y-14341267D01*
X23354854Y-14234923D01*
X23551939Y-14038182D01*
X23658732Y-13780996D01*
X23658975Y-13502518D01*
X23552631Y-13245146D01*
X23355890Y-13048061D01*
X23098704Y-12941268D01*
X22820226Y-12941025D01*
X22562854Y-13047369D01*
X22365769Y-13244110D01*
X22258976Y-13501296D01*
X22258733Y-13779774D01*
X427000Y-13779774D01*
X427000Y-12638628D01*
X7099879Y-12638628D01*
X7206223Y-12896000D01*
X7402964Y-13093085D01*
X7660150Y-13199878D01*
X7938628Y-13200121D01*
X8196000Y-13093777D01*
X8393085Y-12897036D01*
X8499878Y-12639850D01*
X8500121Y-12361372D01*
X8393777Y-12104000D01*
X8197036Y-11906915D01*
X7939850Y-11800122D01*
X7661372Y-11799879D01*
X7404000Y-11906223D01*
X7206915Y-12102964D01*
X7100122Y-12360150D01*
X7099879Y-12638628D01*
X427000Y-12638628D01*
X427000Y-11738628D01*
X18899879Y-11738628D01*
X19006223Y-11996000D01*
X19202964Y-12193085D01*
X19460150Y-12299878D01*
X19738628Y-12300121D01*
X19996000Y-12193777D01*
X20193085Y-11997036D01*
X20299878Y-11739850D01*
X20300106Y-11478286D01*
X24604159Y-11478286D01*
X24695311Y-11698891D01*
X24863946Y-11867821D01*
X25084392Y-11959358D01*
X25323087Y-11959566D01*
X25543692Y-11868414D01*
X25712622Y-11699779D01*
X25804159Y-11479333D01*
X25804367Y-11240638D01*
X25736297Y-11075897D01*
X25785192Y-11124877D01*
X26005638Y-11216414D01*
X26244333Y-11216622D01*
X26464938Y-11125470D01*
X26633868Y-10956835D01*
X26725405Y-10736389D01*
X26725613Y-10497694D01*
X26634461Y-10277089D01*
X26615199Y-10257793D01*
X26645703Y-10257793D01*
X26752047Y-10515165D01*
X26948788Y-10712250D01*
X27205974Y-10819043D01*
X27319863Y-10819142D01*
X27166514Y-10972224D01*
X27059721Y-11229410D01*
X27059478Y-11507888D01*
X27165822Y-11765260D01*
X27362563Y-11962345D01*
X27619749Y-12069138D01*
X27898227Y-12069381D01*
X28155599Y-11963037D01*
X28352684Y-11766296D01*
X28408019Y-11633033D01*
X42488428Y-11633033D01*
X42594772Y-11890405D01*
X42791513Y-12087490D01*
X43048699Y-12194283D01*
X43327177Y-12194526D01*
X43584549Y-12088182D01*
X43781634Y-11891441D01*
X43803563Y-11838628D01*
X70399879Y-11838628D01*
X70506223Y-12096000D01*
X70702964Y-12293085D01*
X70960150Y-12399878D01*
X71238628Y-12400121D01*
X71496000Y-12293777D01*
X71693085Y-12097036D01*
X71799878Y-11839850D01*
X71800121Y-11561372D01*
X71693777Y-11304000D01*
X71497036Y-11106915D01*
X71239850Y-11000122D01*
X70961372Y-10999879D01*
X70704000Y-11106223D01*
X70506915Y-11302964D01*
X70400122Y-11560150D01*
X70399879Y-11838628D01*
X43803563Y-11838628D01*
X43888427Y-11634255D01*
X43888670Y-11355777D01*
X43782326Y-11098405D01*
X43649017Y-10964862D01*
X45086868Y-10964862D01*
X45193212Y-11222234D01*
X45389953Y-11419319D01*
X45647139Y-11526112D01*
X45925617Y-11526355D01*
X46182989Y-11420011D01*
X46380074Y-11223270D01*
X46486867Y-10966084D01*
X46487110Y-10687606D01*
X46380766Y-10430234D01*
X46184025Y-10233149D01*
X45926839Y-10126356D01*
X45648361Y-10126113D01*
X45390989Y-10232457D01*
X45193904Y-10429198D01*
X45087111Y-10686384D01*
X45086868Y-10964862D01*
X43649017Y-10964862D01*
X43585585Y-10901320D01*
X43328399Y-10794527D01*
X43049921Y-10794284D01*
X42792549Y-10900628D01*
X42595464Y-11097369D01*
X42488671Y-11354555D01*
X42488428Y-11633033D01*
X28408019Y-11633033D01*
X28459477Y-11509110D01*
X28459720Y-11230632D01*
X28353376Y-10973260D01*
X28156635Y-10776175D01*
X27899449Y-10669382D01*
X27785560Y-10669283D01*
X27938909Y-10516201D01*
X28045702Y-10259015D01*
X28045945Y-9980537D01*
X28028629Y-9938628D01*
X48599879Y-9938628D01*
X48706223Y-10196000D01*
X48902964Y-10393085D01*
X49160150Y-10499878D01*
X49438628Y-10500121D01*
X49696000Y-10393777D01*
X49852731Y-10237319D01*
X58536838Y-10237319D01*
X58643182Y-10494691D01*
X58839923Y-10691776D01*
X59097109Y-10798569D01*
X59375587Y-10798812D01*
X59632959Y-10692468D01*
X59830044Y-10495727D01*
X59895277Y-10338628D01*
X63899879Y-10338628D01*
X64006223Y-10596000D01*
X64202964Y-10793085D01*
X64460150Y-10899878D01*
X64738628Y-10900121D01*
X64996000Y-10793777D01*
X65193085Y-10597036D01*
X65299878Y-10339850D01*
X65300053Y-10138628D01*
X67199879Y-10138628D01*
X67306223Y-10396000D01*
X67502964Y-10593085D01*
X67760150Y-10699878D01*
X68038628Y-10700121D01*
X68296000Y-10593777D01*
X68493085Y-10397036D01*
X68599878Y-10139850D01*
X68600121Y-9861372D01*
X68493777Y-9604000D01*
X68297036Y-9406915D01*
X68039850Y-9300122D01*
X67761372Y-9299879D01*
X67504000Y-9406223D01*
X67306915Y-9602964D01*
X67200122Y-9860150D01*
X67199879Y-10138628D01*
X65300053Y-10138628D01*
X65300121Y-10061372D01*
X65193777Y-9804000D01*
X64997036Y-9606915D01*
X64739850Y-9500122D01*
X64461372Y-9499879D01*
X64204000Y-9606223D01*
X64006915Y-9802964D01*
X63900122Y-10060150D01*
X63899879Y-10338628D01*
X59895277Y-10338628D01*
X59936837Y-10238541D01*
X59937080Y-9960063D01*
X59830736Y-9702691D01*
X59633995Y-9505606D01*
X59376809Y-9398813D01*
X59098331Y-9398570D01*
X58840959Y-9504914D01*
X58643874Y-9701655D01*
X58537081Y-9958841D01*
X58536838Y-10237319D01*
X49852731Y-10237319D01*
X49893085Y-10197036D01*
X49999878Y-9939850D01*
X50000121Y-9661372D01*
X49893777Y-9404000D01*
X49697036Y-9206915D01*
X49439850Y-9100122D01*
X49161372Y-9099879D01*
X48904000Y-9206223D01*
X48706915Y-9402964D01*
X48600122Y-9660150D01*
X48599879Y-9938628D01*
X28028629Y-9938628D01*
X27939601Y-9723165D01*
X27742860Y-9526080D01*
X27485674Y-9419287D01*
X27207196Y-9419044D01*
X26949824Y-9525388D01*
X26752739Y-9722129D01*
X26645946Y-9979315D01*
X26645703Y-10257793D01*
X26615199Y-10257793D01*
X26465826Y-10108159D01*
X26245380Y-10016622D01*
X26006685Y-10016414D01*
X25786080Y-10107566D01*
X25617150Y-10276201D01*
X25525613Y-10496647D01*
X25525405Y-10735342D01*
X25593475Y-10900083D01*
X25544580Y-10851103D01*
X25324134Y-10759566D01*
X25085439Y-10759358D01*
X24864834Y-10850510D01*
X24695904Y-11019145D01*
X24604367Y-11239591D01*
X24604159Y-11478286D01*
X20300106Y-11478286D01*
X20300121Y-11461372D01*
X20193777Y-11204000D01*
X19997036Y-11006915D01*
X19739850Y-10900122D01*
X19461372Y-10899879D01*
X19204000Y-11006223D01*
X19006915Y-11202964D01*
X18900122Y-11460150D01*
X18899879Y-11738628D01*
X427000Y-11738628D01*
X427000Y-9738628D01*
X5099879Y-9738628D01*
X5206223Y-9996000D01*
X5402964Y-10193085D01*
X5660150Y-10299878D01*
X5938628Y-10300121D01*
X6196000Y-10193777D01*
X6393085Y-9997036D01*
X6499878Y-9739850D01*
X6500053Y-9538628D01*
X18999879Y-9538628D01*
X19106223Y-9796000D01*
X19302964Y-9993085D01*
X19560150Y-10099878D01*
X19838628Y-10100121D01*
X20096000Y-9993777D01*
X20293085Y-9797036D01*
X20399878Y-9539850D01*
X20400121Y-9261372D01*
X20358949Y-9161726D01*
X28731092Y-9161726D01*
X28837436Y-9419098D01*
X29034177Y-9616183D01*
X29291363Y-9722976D01*
X29569841Y-9723219D01*
X29827213Y-9616875D01*
X30024298Y-9420134D01*
X30121002Y-9187244D01*
X35354318Y-9187244D01*
X35445470Y-9407849D01*
X35614105Y-9576779D01*
X35834551Y-9668316D01*
X36073246Y-9668524D01*
X36293851Y-9577372D01*
X36462781Y-9408737D01*
X36554318Y-9188291D01*
X36554526Y-8949596D01*
X36463374Y-8728991D01*
X36294739Y-8560061D01*
X36074293Y-8468524D01*
X35835598Y-8468316D01*
X35614993Y-8559468D01*
X35446063Y-8728103D01*
X35354526Y-8948549D01*
X35354318Y-9187244D01*
X30121002Y-9187244D01*
X30131091Y-9162948D01*
X30131334Y-8884470D01*
X30024990Y-8627098D01*
X29828249Y-8430013D01*
X29571063Y-8323220D01*
X29292585Y-8322977D01*
X29035213Y-8429321D01*
X28838128Y-8626062D01*
X28731335Y-8883248D01*
X28731092Y-9161726D01*
X20358949Y-9161726D01*
X20293777Y-9004000D01*
X20097036Y-8806915D01*
X19839850Y-8700122D01*
X19561372Y-8699879D01*
X19304000Y-8806223D01*
X19106915Y-9002964D01*
X19000122Y-9260150D01*
X18999879Y-9538628D01*
X6500053Y-9538628D01*
X6500121Y-9461372D01*
X6393777Y-9204000D01*
X6197036Y-9006915D01*
X5939850Y-8900122D01*
X5661372Y-8899879D01*
X5404000Y-9006223D01*
X5206915Y-9202964D01*
X5100122Y-9460150D01*
X5099879Y-9738628D01*
X427000Y-9738628D01*
X427000Y-7993397D01*
X4364198Y-7993397D01*
X4455350Y-8214002D01*
X4623985Y-8382932D01*
X4844431Y-8474469D01*
X5083126Y-8474677D01*
X5303731Y-8383525D01*
X5384225Y-8303171D01*
X8422061Y-8303171D01*
X8528405Y-8560543D01*
X8725146Y-8757628D01*
X8982332Y-8864421D01*
X9260810Y-8864664D01*
X9518182Y-8758320D01*
X9715267Y-8561579D01*
X9822060Y-8304393D01*
X9822303Y-8025915D01*
X9715959Y-7768543D01*
X9653287Y-7705761D01*
X27463899Y-7705761D01*
X27570243Y-7963133D01*
X27766984Y-8160218D01*
X28024170Y-8267011D01*
X28302648Y-8267254D01*
X28560020Y-8160910D01*
X28568398Y-8152546D01*
X40687700Y-8152546D01*
X40794044Y-8409918D01*
X40990785Y-8607003D01*
X41247971Y-8713796D01*
X41526449Y-8714039D01*
X41783821Y-8607695D01*
X41853008Y-8538628D01*
X47299879Y-8538628D01*
X47406223Y-8796000D01*
X47602964Y-8993085D01*
X47860150Y-9099878D01*
X48138628Y-9100121D01*
X48396000Y-8993777D01*
X48593085Y-8797036D01*
X48699878Y-8539850D01*
X48700121Y-8261372D01*
X48593777Y-8004000D01*
X48397036Y-7806915D01*
X48139850Y-7700122D01*
X47861372Y-7699879D01*
X47604000Y-7806223D01*
X47406915Y-8002964D01*
X47300122Y-8260150D01*
X47299879Y-8538628D01*
X41853008Y-8538628D01*
X41980906Y-8410954D01*
X42087699Y-8153768D01*
X42087886Y-7938628D01*
X44899879Y-7938628D01*
X45006223Y-8196000D01*
X45202964Y-8393085D01*
X45460150Y-8499878D01*
X45738628Y-8500121D01*
X45996000Y-8393777D01*
X46193085Y-8197036D01*
X46299878Y-7939850D01*
X46300121Y-7661372D01*
X46193777Y-7404000D01*
X45997036Y-7206915D01*
X45739850Y-7100122D01*
X45461372Y-7099879D01*
X45204000Y-7206223D01*
X45006915Y-7402964D01*
X44900122Y-7660150D01*
X44899879Y-7938628D01*
X42087886Y-7938628D01*
X42087942Y-7875290D01*
X41981598Y-7617918D01*
X41784857Y-7420833D01*
X41527671Y-7314040D01*
X41249193Y-7313797D01*
X40991821Y-7420141D01*
X40794736Y-7616882D01*
X40687943Y-7874068D01*
X40687700Y-8152546D01*
X28568398Y-8152546D01*
X28757105Y-7964169D01*
X28863898Y-7706983D01*
X28864035Y-7549285D01*
X38376618Y-7549285D01*
X38467770Y-7769890D01*
X38636405Y-7938820D01*
X38856851Y-8030357D01*
X39095546Y-8030565D01*
X39316151Y-7939413D01*
X39485081Y-7770778D01*
X39576618Y-7550332D01*
X39576826Y-7311637D01*
X39485674Y-7091032D01*
X39317039Y-6922102D01*
X39096593Y-6830565D01*
X38857898Y-6830357D01*
X38637293Y-6921509D01*
X38468363Y-7090144D01*
X38376826Y-7310590D01*
X38376618Y-7549285D01*
X28864035Y-7549285D01*
X28864141Y-7428505D01*
X28757797Y-7171133D01*
X28561056Y-6974048D01*
X28303870Y-6867255D01*
X28025392Y-6867012D01*
X27768020Y-6973356D01*
X27570935Y-7170097D01*
X27464142Y-7427283D01*
X27463899Y-7705761D01*
X9653287Y-7705761D01*
X9519218Y-7571458D01*
X9262032Y-7464665D01*
X8983554Y-7464422D01*
X8726182Y-7570766D01*
X8529097Y-7767507D01*
X8422304Y-8024693D01*
X8422061Y-8303171D01*
X5384225Y-8303171D01*
X5472661Y-8214890D01*
X5564198Y-7994444D01*
X5564406Y-7755749D01*
X5473254Y-7535144D01*
X5304619Y-7366214D01*
X5084173Y-7274677D01*
X4845478Y-7274469D01*
X4624873Y-7365621D01*
X4455943Y-7534256D01*
X4364406Y-7754702D01*
X4364198Y-7993397D01*
X427000Y-7993397D01*
X427000Y-6427000D01*
X3000000Y-6427000D01*
X3163406Y-6394497D01*
X3301935Y-6301935D01*
X3307634Y-6293406D01*
X4244569Y-5356471D01*
X10699688Y-5356471D01*
X10973145Y-6018286D01*
X11479051Y-6525076D01*
X12140387Y-6799687D01*
X12856471Y-6800312D01*
X13518286Y-6526855D01*
X13877297Y-6168470D01*
X38562982Y-6168470D01*
X38669326Y-6425842D01*
X38866067Y-6622927D01*
X39123253Y-6729720D01*
X39401731Y-6729963D01*
X39659103Y-6623619D01*
X39837859Y-6445175D01*
X39949285Y-6556796D01*
X40206471Y-6663589D01*
X40484949Y-6663832D01*
X40742321Y-6557488D01*
X40939406Y-6360747D01*
X41031637Y-6138628D01*
X48499879Y-6138628D01*
X48606223Y-6396000D01*
X48802964Y-6593085D01*
X49060150Y-6699878D01*
X49338628Y-6700121D01*
X49596000Y-6593777D01*
X49793085Y-6397036D01*
X49899878Y-6139850D01*
X49900121Y-5861372D01*
X49793777Y-5604000D01*
X49597036Y-5406915D01*
X49475554Y-5356471D01*
X60699688Y-5356471D01*
X60973145Y-6018286D01*
X61479051Y-6525076D01*
X62140387Y-6799687D01*
X62856471Y-6800312D01*
X63518286Y-6526855D01*
X64025076Y-6020949D01*
X64299687Y-5359613D01*
X64300312Y-4643529D01*
X64026855Y-3981714D01*
X63520949Y-3474924D01*
X62859613Y-3200313D01*
X62143529Y-3199688D01*
X61481714Y-3473145D01*
X60974924Y-3979051D01*
X60700313Y-4640387D01*
X60699688Y-5356471D01*
X49475554Y-5356471D01*
X49339850Y-5300122D01*
X49061372Y-5299879D01*
X48804000Y-5406223D01*
X48606915Y-5602964D01*
X48500122Y-5860150D01*
X48499879Y-6138628D01*
X41031637Y-6138628D01*
X41046199Y-6103561D01*
X41046442Y-5825083D01*
X40940098Y-5567711D01*
X40743357Y-5370626D01*
X40486171Y-5263833D01*
X40207693Y-5263590D01*
X40046016Y-5330393D01*
X40046237Y-5077680D01*
X39939893Y-4820308D01*
X39743152Y-4623223D01*
X39485966Y-4516430D01*
X39207488Y-4516187D01*
X38950116Y-4622531D01*
X38753031Y-4819272D01*
X38646238Y-5076458D01*
X38645995Y-5354936D01*
X38734296Y-5568640D01*
X38670018Y-5632806D01*
X38563225Y-5889992D01*
X38562982Y-6168470D01*
X13877297Y-6168470D01*
X14025076Y-6020949D01*
X14299687Y-5359613D01*
X14300098Y-4888628D01*
X23349879Y-4888628D01*
X23456223Y-5146000D01*
X23652964Y-5343085D01*
X23910150Y-5449878D01*
X24188628Y-5450121D01*
X24446000Y-5343777D01*
X24643085Y-5147036D01*
X24646576Y-5138628D01*
X35499879Y-5138628D01*
X35606223Y-5396000D01*
X35802964Y-5593085D01*
X36060150Y-5699878D01*
X36338628Y-5700121D01*
X36596000Y-5593777D01*
X36793085Y-5397036D01*
X36899878Y-5139850D01*
X36900121Y-4861372D01*
X36793777Y-4604000D01*
X36597036Y-4406915D01*
X36339850Y-4300122D01*
X36061372Y-4299879D01*
X35804000Y-4406223D01*
X35606915Y-4602964D01*
X35500122Y-4860150D01*
X35499879Y-5138628D01*
X24646576Y-5138628D01*
X24749878Y-4889850D01*
X24750121Y-4611372D01*
X24643777Y-4354000D01*
X24447036Y-4156915D01*
X24189850Y-4050122D01*
X23911372Y-4049879D01*
X23654000Y-4156223D01*
X23456915Y-4352964D01*
X23350122Y-4610150D01*
X23349879Y-4888628D01*
X14300098Y-4888628D01*
X14300312Y-4643529D01*
X14026855Y-3981714D01*
X13827701Y-3782212D01*
X46879358Y-3782212D01*
X46985702Y-4039584D01*
X47182443Y-4236669D01*
X47439629Y-4343462D01*
X47718107Y-4343705D01*
X47975479Y-4237361D01*
X48172564Y-4040620D01*
X48279357Y-3783434D01*
X48279600Y-3504956D01*
X48173256Y-3247584D01*
X47976515Y-3050499D01*
X47719329Y-2943706D01*
X47440851Y-2943463D01*
X47183479Y-3049807D01*
X46986394Y-3246548D01*
X46879601Y-3503734D01*
X46879358Y-3782212D01*
X13827701Y-3782212D01*
X13520949Y-3474924D01*
X12859613Y-3200313D01*
X12143529Y-3199688D01*
X11481714Y-3473145D01*
X10974924Y-3979051D01*
X10700313Y-4640387D01*
X10699688Y-5356471D01*
X4244569Y-5356471D01*
X7293409Y-2307632D01*
X7301935Y-2301935D01*
X7394497Y-2163406D01*
X7427000Y-2000000D01*
X7427000Y-1891518D01*
X18827200Y-1891518D01*
X18918352Y-2112123D01*
X19086987Y-2281053D01*
X19307433Y-2372590D01*
X19546128Y-2372798D01*
X19766733Y-2281646D01*
X19935663Y-2113011D01*
X20027200Y-1892565D01*
X20027244Y-1842048D01*
X20202964Y-2018075D01*
X20460150Y-2124868D01*
X20738628Y-2125111D01*
X20996000Y-2018767D01*
X21193085Y-1822026D01*
X21227714Y-1738628D01*
X30899879Y-1738628D01*
X31006223Y-1996000D01*
X31202964Y-2193085D01*
X31460150Y-2299878D01*
X31738628Y-2300121D01*
X31996000Y-2193777D01*
X32193085Y-1997036D01*
X32299878Y-1739850D01*
X32299880Y-1737104D01*
X38527032Y-1737104D01*
X38633376Y-1994476D01*
X38830117Y-2191561D01*
X39087303Y-2298354D01*
X39365781Y-2298597D01*
X39623153Y-2192253D01*
X39820238Y-1995512D01*
X39927031Y-1738326D01*
X39927274Y-1459848D01*
X39820930Y-1202476D01*
X39624189Y-1005391D01*
X39367003Y-898598D01*
X39088525Y-898355D01*
X38831153Y-1004699D01*
X38634068Y-1201440D01*
X38527275Y-1458626D01*
X38527032Y-1737104D01*
X32299880Y-1737104D01*
X32300121Y-1461372D01*
X32193777Y-1204000D01*
X31997036Y-1006915D01*
X31739850Y-900122D01*
X31461372Y-899879D01*
X31204000Y-1006223D01*
X31006915Y-1202964D01*
X30900122Y-1460150D01*
X30899879Y-1738628D01*
X21227714Y-1738628D01*
X21299878Y-1564840D01*
X21300121Y-1286362D01*
X21193777Y-1028990D01*
X20997036Y-831905D01*
X20739850Y-725112D01*
X20461372Y-724869D01*
X20204000Y-831213D01*
X20006915Y-1027954D01*
X19900122Y-1285140D01*
X19900024Y-1396970D01*
X19767621Y-1264335D01*
X19547175Y-1172798D01*
X19308480Y-1172590D01*
X19087875Y-1263742D01*
X18918945Y-1432377D01*
X18827408Y-1652823D01*
X18827200Y-1891518D01*
X7427000Y-1891518D01*
X7427000Y-427000D01*
X67575000Y-427000D01*
X67575000Y-2000000D01*
X67575000Y-2000000D01*
G37*
X67575000Y-2000000D02*
X67597303Y-2112123D01*
X67607351Y-2162641D01*
X67699480Y-2300520D01*
X71699479Y-6300520D01*
X71788065Y-6359711D01*
X71837360Y-6392649D01*
X72000000Y-6425000D01*
X74575000Y-6425000D01*
X74575000Y-12575000D01*
X72000000Y-12575000D01*
X71837360Y-12607351D01*
X71699480Y-12699480D01*
X71607351Y-12837360D01*
X71575000Y-13000000D01*
X71575000Y-18075000D01*
X65000000Y-18075000D01*
X64837360Y-18107351D01*
X64699480Y-18199480D01*
X64607351Y-18337360D01*
X64575000Y-18500000D01*
X64575000Y-31500000D01*
X64607351Y-31662640D01*
X64699480Y-31800520D01*
X64837360Y-31892649D01*
X65000000Y-31925000D01*
X71575000Y-31925000D01*
X71575000Y-37000000D01*
X71607351Y-37162640D01*
X71699480Y-37300520D01*
X71837360Y-37392649D01*
X72000000Y-37425000D01*
X74575000Y-37425000D01*
X74575000Y-43575000D01*
X72000000Y-43575000D01*
X71837360Y-43607351D01*
X71837358Y-43607352D01*
X71837359Y-43607352D01*
X71699479Y-43699480D01*
X67699480Y-47699480D01*
X67607351Y-47837359D01*
X67607351Y-47837360D01*
X67575000Y-48000000D01*
X67575000Y-49575000D01*
X49175000Y-49575000D01*
X49175000Y-45488628D01*
X55599879Y-45488628D01*
X55706223Y-45746000D01*
X55902964Y-45943085D01*
X56160150Y-46049878D01*
X56438628Y-46050121D01*
X56696000Y-45943777D01*
X56893085Y-45747036D01*
X56999878Y-45489850D01*
X56999994Y-45356471D01*
X60699688Y-45356471D01*
X60973145Y-46018286D01*
X61479051Y-46525076D01*
X62140387Y-46799687D01*
X62856471Y-46800312D01*
X63518286Y-46526855D01*
X64025076Y-46020949D01*
X64299687Y-45359613D01*
X64300312Y-44643529D01*
X64026855Y-43981714D01*
X63520949Y-43474924D01*
X62859613Y-43200313D01*
X62143529Y-43199688D01*
X61481714Y-43473145D01*
X60974924Y-43979051D01*
X60700313Y-44640387D01*
X60699688Y-45356471D01*
X56999994Y-45356471D01*
X57000121Y-45211372D01*
X56893777Y-44954000D01*
X56697036Y-44756915D01*
X56439850Y-44650122D01*
X56161372Y-44649879D01*
X55904000Y-44756223D01*
X55706915Y-44952964D01*
X55600122Y-45210150D01*
X55599879Y-45488628D01*
X49175000Y-45488628D01*
X49175000Y-44338628D01*
X50499879Y-44338628D01*
X50606223Y-44596000D01*
X50802964Y-44793085D01*
X51060150Y-44899878D01*
X51338628Y-44900121D01*
X51596000Y-44793777D01*
X51793085Y-44597036D01*
X51899878Y-44339850D01*
X51899966Y-44238628D01*
X52699879Y-44238628D01*
X52806223Y-44496000D01*
X53002964Y-44693085D01*
X53260150Y-44799878D01*
X53538628Y-44800121D01*
X53796000Y-44693777D01*
X53993085Y-44497036D01*
X54099878Y-44239850D01*
X54100121Y-43961372D01*
X53993777Y-43704000D01*
X53797036Y-43506915D01*
X53539850Y-43400122D01*
X53261372Y-43399879D01*
X53004000Y-43506223D01*
X52806915Y-43702964D01*
X52700122Y-43960150D01*
X52699879Y-44238628D01*
X51899966Y-44238628D01*
X51900121Y-44061372D01*
X51793777Y-43804000D01*
X51597036Y-43606915D01*
X51339850Y-43500122D01*
X51061372Y-43499879D01*
X50804000Y-43606223D01*
X50606915Y-43802964D01*
X50500122Y-44060150D01*
X50499879Y-44338628D01*
X49175000Y-44338628D01*
X49175000Y-44000000D01*
X49142649Y-43837360D01*
X49050520Y-43699480D01*
X48912640Y-43607351D01*
X48750000Y-43575000D01*
X30250000Y-43575000D01*
X30087360Y-43607351D01*
X29949480Y-43699480D01*
X29857351Y-43837360D01*
X29825000Y-44000000D01*
X29825000Y-49575000D01*
X7427000Y-49575000D01*
X7427000Y-48000000D01*
X7394497Y-47836594D01*
X7301935Y-47698065D01*
X7293409Y-47692368D01*
X4957512Y-45356471D01*
X10699688Y-45356471D01*
X10973145Y-46018286D01*
X11479051Y-46525076D01*
X12140387Y-46799687D01*
X12856471Y-46800312D01*
X13518286Y-46526855D01*
X14025076Y-46020949D01*
X14299687Y-45359613D01*
X14300312Y-44643529D01*
X14026855Y-43981714D01*
X13520949Y-43474924D01*
X13001422Y-43259197D01*
X17884235Y-43259197D01*
X17990579Y-43516569D01*
X18187320Y-43713654D01*
X18444506Y-43820447D01*
X18722984Y-43820690D01*
X18980356Y-43714346D01*
X19177441Y-43517605D01*
X19284234Y-43260419D01*
X19284477Y-42981941D01*
X19178133Y-42724569D01*
X18981392Y-42527484D01*
X18724206Y-42420691D01*
X18445728Y-42420448D01*
X18188356Y-42526792D01*
X17991271Y-42723533D01*
X17884478Y-42980719D01*
X17884235Y-43259197D01*
X13001422Y-43259197D01*
X12859613Y-43200313D01*
X12143529Y-43199688D01*
X11481714Y-43473145D01*
X10974924Y-43979051D01*
X10700313Y-44640387D01*
X10699688Y-45356471D01*
X4957512Y-45356471D01*
X3307634Y-43706594D01*
X3301935Y-43698065D01*
X3163406Y-43605503D01*
X3000000Y-43573000D01*
X427000Y-43573000D01*
X427000Y-42418824D01*
X21099896Y-42418824D01*
X21191048Y-42639429D01*
X21359683Y-42808359D01*
X21580129Y-42899896D01*
X21818824Y-42900104D01*
X22039429Y-42808952D01*
X22208359Y-42640317D01*
X22250583Y-42538628D01*
X31394879Y-42538628D01*
X31501223Y-42796000D01*
X31697964Y-42993085D01*
X31955150Y-43099878D01*
X32233628Y-43100121D01*
X32491000Y-42993777D01*
X32688085Y-42797036D01*
X32794878Y-42539850D01*
X32795121Y-42261372D01*
X32688777Y-42004000D01*
X32492036Y-41806915D01*
X32234850Y-41700122D01*
X31956372Y-41699879D01*
X31699000Y-41806223D01*
X31501915Y-42002964D01*
X31395122Y-42260150D01*
X31394879Y-42538628D01*
X22250583Y-42538628D01*
X22299896Y-42419871D01*
X22300104Y-42181176D01*
X22208952Y-41960571D01*
X22040317Y-41791641D01*
X21819871Y-41700104D01*
X21581176Y-41699896D01*
X21360571Y-41791048D01*
X21191641Y-41959683D01*
X21100104Y-42180129D01*
X21099896Y-42418824D01*
X427000Y-42418824D01*
X427000Y-41240492D01*
X15017140Y-41240492D01*
X15108292Y-41461097D01*
X15276927Y-41630027D01*
X15497373Y-41721564D01*
X15736068Y-41721772D01*
X15956673Y-41630620D01*
X16125603Y-41461985D01*
X16217140Y-41241539D01*
X16217177Y-41198959D01*
X37786298Y-41198959D01*
X37877450Y-41419564D01*
X38046085Y-41588494D01*
X38266531Y-41680031D01*
X38505226Y-41680239D01*
X38684658Y-41606099D01*
X38684458Y-41836082D01*
X38775610Y-42056687D01*
X38944245Y-42225617D01*
X39164691Y-42317154D01*
X39403386Y-42317362D01*
X39623991Y-42226210D01*
X39792921Y-42057575D01*
X39884458Y-41837129D01*
X39884666Y-41598434D01*
X39796225Y-41384389D01*
X45932519Y-41384389D01*
X46023671Y-41604994D01*
X46192306Y-41773924D01*
X46290507Y-41814701D01*
X46101915Y-42002964D01*
X45995122Y-42260150D01*
X45994879Y-42538628D01*
X46101223Y-42796000D01*
X46297964Y-42993085D01*
X46555150Y-43099878D01*
X46833628Y-43100121D01*
X47091000Y-42993777D01*
X47288085Y-42797036D01*
X47394878Y-42539850D01*
X47395121Y-42261372D01*
X47288777Y-42004000D01*
X47092036Y-41806915D01*
X46913755Y-41732886D01*
X47040982Y-41605882D01*
X47132519Y-41385436D01*
X47132727Y-41146741D01*
X47041575Y-40926136D01*
X46872940Y-40757206D01*
X46652494Y-40665669D01*
X46413799Y-40665461D01*
X46193194Y-40756613D01*
X46024264Y-40925248D01*
X45932727Y-41145694D01*
X45932519Y-41384389D01*
X39796225Y-41384389D01*
X39793514Y-41377829D01*
X39624879Y-41208899D01*
X39404433Y-41117362D01*
X39165738Y-41117154D01*
X38986306Y-41191294D01*
X38986506Y-40961311D01*
X38895354Y-40740706D01*
X38726719Y-40571776D01*
X38506273Y-40480239D01*
X38267578Y-40480031D01*
X38046973Y-40571183D01*
X37878043Y-40739818D01*
X37786506Y-40960264D01*
X37786298Y-41198959D01*
X16217177Y-41198959D01*
X16217348Y-41002844D01*
X16126196Y-40782239D01*
X15957561Y-40613309D01*
X15737115Y-40521772D01*
X15498420Y-40521564D01*
X15277815Y-40612716D01*
X15108885Y-40781351D01*
X15017348Y-41001797D01*
X15017140Y-41240492D01*
X427000Y-41240492D01*
X427000Y-39145850D01*
X2464755Y-39145850D01*
X2571099Y-39403222D01*
X2767840Y-39600307D01*
X3025026Y-39707100D01*
X3303504Y-39707343D01*
X3519168Y-39618232D01*
X31322300Y-39618232D01*
X31413452Y-39838837D01*
X31582087Y-40007767D01*
X31638102Y-40031027D01*
X31504087Y-40164808D01*
X31412550Y-40385254D01*
X31412342Y-40623949D01*
X31503494Y-40844554D01*
X31672129Y-41013484D01*
X31892575Y-41105021D01*
X32131270Y-41105229D01*
X32351875Y-41014077D01*
X32520805Y-40845442D01*
X32612342Y-40624996D01*
X32612550Y-40386301D01*
X32583190Y-40315243D01*
X50053320Y-40315243D01*
X50144472Y-40535848D01*
X50313107Y-40704778D01*
X50533553Y-40796315D01*
X50772248Y-40796523D01*
X50992853Y-40705371D01*
X51161783Y-40536736D01*
X51253320Y-40316290D01*
X51253528Y-40077595D01*
X51162376Y-39856990D01*
X51013523Y-39707876D01*
X59072652Y-39707876D01*
X59163804Y-39928481D01*
X59332439Y-40097411D01*
X59552885Y-40188948D01*
X59791580Y-40189156D01*
X59824918Y-40175381D01*
X63020496Y-40175381D01*
X63126840Y-40432753D01*
X63323581Y-40629838D01*
X63580767Y-40736631D01*
X63859245Y-40736874D01*
X64116617Y-40630530D01*
X64313702Y-40433789D01*
X64420495Y-40176603D01*
X64420738Y-39898125D01*
X64314394Y-39640753D01*
X64117653Y-39443668D01*
X63860467Y-39336875D01*
X63581989Y-39336632D01*
X63324617Y-39442976D01*
X63127532Y-39639717D01*
X63020739Y-39896903D01*
X63020496Y-40175381D01*
X59824918Y-40175381D01*
X60012185Y-40098004D01*
X60181115Y-39929369D01*
X60272652Y-39708923D01*
X60272860Y-39470228D01*
X60181708Y-39249623D01*
X60013073Y-39080693D01*
X59792627Y-38989156D01*
X59553932Y-38988948D01*
X59333327Y-39080100D01*
X59164397Y-39248735D01*
X59072860Y-39469181D01*
X59072652Y-39707876D01*
X51013523Y-39707876D01*
X50993741Y-39688060D01*
X50773295Y-39596523D01*
X50534600Y-39596315D01*
X50313995Y-39687467D01*
X50145065Y-39856102D01*
X50053528Y-40076548D01*
X50053320Y-40315243D01*
X32583190Y-40315243D01*
X32521398Y-40165696D01*
X32352763Y-39996766D01*
X32296748Y-39973506D01*
X32430763Y-39839725D01*
X32522300Y-39619279D01*
X32522508Y-39380584D01*
X32431356Y-39159979D01*
X32293263Y-39021644D01*
X45387553Y-39021644D01*
X45478705Y-39242249D01*
X45647340Y-39411179D01*
X45658590Y-39415850D01*
X45626105Y-39494082D01*
X45625897Y-39732777D01*
X45717049Y-39953382D01*
X45885684Y-40122312D01*
X46106130Y-40213849D01*
X46344825Y-40214057D01*
X46565430Y-40122905D01*
X46734360Y-39954270D01*
X46825897Y-39733824D01*
X46826105Y-39495129D01*
X46734953Y-39274524D01*
X46566318Y-39105594D01*
X46555068Y-39100923D01*
X46587553Y-39022691D01*
X46587556Y-39018824D01*
X57999896Y-39018824D01*
X58091048Y-39239429D01*
X58259683Y-39408359D01*
X58480129Y-39499896D01*
X58718824Y-39500104D01*
X58939429Y-39408952D01*
X59108359Y-39240317D01*
X59199896Y-39019871D01*
X59200104Y-38781176D01*
X59108952Y-38560571D01*
X58940317Y-38391641D01*
X58719871Y-38300104D01*
X58481176Y-38299896D01*
X58260571Y-38391048D01*
X58091641Y-38559683D01*
X58000104Y-38780129D01*
X57999896Y-39018824D01*
X46587556Y-39018824D01*
X46587761Y-38783996D01*
X46496609Y-38563391D01*
X46327974Y-38394461D01*
X46107528Y-38302924D01*
X45868833Y-38302716D01*
X45648228Y-38393868D01*
X45479298Y-38562503D01*
X45387761Y-38782949D01*
X45387553Y-39021644D01*
X32293263Y-39021644D01*
X32262721Y-38991049D01*
X32042275Y-38899512D01*
X31803580Y-38899304D01*
X31582975Y-38990456D01*
X31414045Y-39159091D01*
X31322508Y-39379537D01*
X31322300Y-39618232D01*
X3519168Y-39618232D01*
X3560876Y-39600999D01*
X3757961Y-39404258D01*
X3864754Y-39147072D01*
X3864997Y-38868594D01*
X3758653Y-38611222D01*
X3561912Y-38414137D01*
X3304726Y-38307344D01*
X3026248Y-38307101D01*
X2768876Y-38413445D01*
X2571791Y-38610186D01*
X2464998Y-38867372D01*
X2464755Y-39145850D01*
X427000Y-39145850D01*
X427000Y-37652750D01*
X15212297Y-37652750D01*
X15318641Y-37910122D01*
X15515382Y-38107207D01*
X15772568Y-38214000D01*
X16051046Y-38214243D01*
X16308418Y-38107899D01*
X16505503Y-37911158D01*
X16612296Y-37653972D01*
X16612396Y-37538628D01*
X19099879Y-37538628D01*
X19206223Y-37796000D01*
X19402964Y-37993085D01*
X19660150Y-38099878D01*
X19938628Y-38100121D01*
X20196000Y-37993777D01*
X20393085Y-37797036D01*
X20499878Y-37539850D01*
X20499885Y-37531073D01*
X20905795Y-37531073D01*
X21012139Y-37788445D01*
X21208880Y-37985530D01*
X21466066Y-38092323D01*
X21744544Y-38092566D01*
X22001916Y-37986222D01*
X22199001Y-37789481D01*
X22305794Y-37532295D01*
X22305838Y-37480877D01*
X28003377Y-37480877D01*
X28094529Y-37701482D01*
X28263164Y-37870412D01*
X28465736Y-37954527D01*
X28400147Y-38020001D01*
X28308610Y-38240447D01*
X28308402Y-38479142D01*
X28399554Y-38699747D01*
X28568189Y-38868677D01*
X28788635Y-38960214D01*
X29027330Y-38960422D01*
X29247935Y-38869270D01*
X29416865Y-38700635D01*
X29508402Y-38480189D01*
X29508503Y-38363618D01*
X39336017Y-38363618D01*
X39442361Y-38620990D01*
X39639102Y-38818075D01*
X39896288Y-38924868D01*
X40174766Y-38925111D01*
X40432138Y-38818767D01*
X40629223Y-38622026D01*
X40736016Y-38364840D01*
X40736259Y-38086362D01*
X40629915Y-37828990D01*
X40433174Y-37631905D01*
X40175988Y-37525112D01*
X39897510Y-37524869D01*
X39640138Y-37631213D01*
X39443053Y-37827954D01*
X39336260Y-38085140D01*
X39336017Y-38363618D01*
X29508503Y-38363618D01*
X29508610Y-38241494D01*
X29417458Y-38020889D01*
X29248823Y-37851959D01*
X29046251Y-37767844D01*
X29111840Y-37702370D01*
X29203377Y-37481924D01*
X29203585Y-37243229D01*
X29152182Y-37118824D01*
X55499896Y-37118824D01*
X55591048Y-37339429D01*
X55759683Y-37508359D01*
X55980129Y-37599896D01*
X56218824Y-37600104D01*
X56221636Y-37598942D01*
X59580505Y-37598942D01*
X59686849Y-37856314D01*
X59883590Y-38053399D01*
X60140776Y-38160192D01*
X60419254Y-38160435D01*
X60676626Y-38054091D01*
X60873711Y-37857350D01*
X60980504Y-37600164D01*
X60980747Y-37321686D01*
X60874403Y-37064314D01*
X60677662Y-36867229D01*
X60420476Y-36760436D01*
X60141998Y-36760193D01*
X59884626Y-36866537D01*
X59687541Y-37063278D01*
X59580748Y-37320464D01*
X59580505Y-37598942D01*
X56221636Y-37598942D01*
X56439429Y-37508952D01*
X56608359Y-37340317D01*
X56699896Y-37119871D01*
X56700104Y-36881176D01*
X56608952Y-36660571D01*
X56605642Y-36657255D01*
X58365379Y-36657255D01*
X58456531Y-36877860D01*
X58625166Y-37046790D01*
X58845612Y-37138327D01*
X59084307Y-37138535D01*
X59304912Y-37047383D01*
X59473842Y-36878748D01*
X59565379Y-36658302D01*
X59565587Y-36419607D01*
X59474435Y-36199002D01*
X59305800Y-36030072D01*
X59085354Y-35938535D01*
X58846659Y-35938327D01*
X58626054Y-36029479D01*
X58457124Y-36198114D01*
X58365587Y-36418560D01*
X58365379Y-36657255D01*
X56605642Y-36657255D01*
X56440317Y-36491641D01*
X56219871Y-36400104D01*
X55981176Y-36399896D01*
X55760571Y-36491048D01*
X55591641Y-36659683D01*
X55500104Y-36880129D01*
X55499896Y-37118824D01*
X29152182Y-37118824D01*
X29112433Y-37022624D01*
X28943798Y-36853694D01*
X28723352Y-36762157D01*
X28484657Y-36761949D01*
X28264052Y-36853101D01*
X28095122Y-37021736D01*
X28003585Y-37242182D01*
X28003377Y-37480877D01*
X22305838Y-37480877D01*
X22306037Y-37253817D01*
X22199693Y-36996445D01*
X22002952Y-36799360D01*
X21745766Y-36692567D01*
X21467288Y-36692324D01*
X21209916Y-36798668D01*
X21012831Y-36995409D01*
X20906038Y-37252595D01*
X20905795Y-37531073D01*
X20499885Y-37531073D01*
X20500121Y-37261372D01*
X20393777Y-37004000D01*
X20197036Y-36806915D01*
X19939850Y-36700122D01*
X19661372Y-36699879D01*
X19404000Y-36806223D01*
X19206915Y-37002964D01*
X19100122Y-37260150D01*
X19099879Y-37538628D01*
X16612396Y-37538628D01*
X16612539Y-37375494D01*
X16506195Y-37118122D01*
X16309454Y-36921037D01*
X16052268Y-36814244D01*
X15773790Y-36814001D01*
X15516418Y-36920345D01*
X15319333Y-37117086D01*
X15212540Y-37374272D01*
X15212297Y-37652750D01*
X427000Y-37652750D01*
X427000Y-36018824D01*
X14999896Y-36018824D01*
X15091048Y-36239429D01*
X15259683Y-36408359D01*
X15480129Y-36499896D01*
X15718824Y-36500104D01*
X15939429Y-36408952D01*
X16108359Y-36240317D01*
X16158807Y-36118824D01*
X31599896Y-36118824D01*
X31691048Y-36339429D01*
X31859683Y-36508359D01*
X32080129Y-36599896D01*
X32318824Y-36600104D01*
X32539429Y-36508952D01*
X32708359Y-36340317D01*
X32791103Y-36141045D01*
X50995724Y-36141045D01*
X51086876Y-36361650D01*
X51255511Y-36530580D01*
X51475957Y-36622117D01*
X51714652Y-36622325D01*
X51935257Y-36531173D01*
X52104187Y-36362538D01*
X52195724Y-36142092D01*
X52195932Y-35903397D01*
X52104780Y-35682792D01*
X51936145Y-35513862D01*
X51715699Y-35422325D01*
X51477004Y-35422117D01*
X51256399Y-35513269D01*
X51087469Y-35681904D01*
X50995932Y-35902350D01*
X50995724Y-36141045D01*
X32791103Y-36141045D01*
X32799896Y-36119871D01*
X32800104Y-35881176D01*
X32708952Y-35660571D01*
X32540317Y-35491641D01*
X32423492Y-35443131D01*
X49716253Y-35443131D01*
X49807405Y-35663736D01*
X49976040Y-35832666D01*
X50196486Y-35924203D01*
X50435181Y-35924411D01*
X50655786Y-35833259D01*
X50824716Y-35664624D01*
X50916253Y-35444178D01*
X50916461Y-35205483D01*
X50825309Y-34984878D01*
X50656674Y-34815948D01*
X50436228Y-34724411D01*
X50197533Y-34724203D01*
X49976928Y-34815355D01*
X49807998Y-34983990D01*
X49716461Y-35204436D01*
X49716253Y-35443131D01*
X32423492Y-35443131D01*
X32319871Y-35400104D01*
X32081176Y-35399896D01*
X31860571Y-35491048D01*
X31691641Y-35659683D01*
X31600104Y-35880129D01*
X31599896Y-36118824D01*
X16158807Y-36118824D01*
X16199896Y-36019871D01*
X16200104Y-35781176D01*
X16108952Y-35560571D01*
X15940317Y-35391641D01*
X15719871Y-35300104D01*
X15481176Y-35299896D01*
X15260571Y-35391048D01*
X15091641Y-35559683D01*
X15000104Y-35780129D01*
X14999896Y-36018824D01*
X427000Y-36018824D01*
X427000Y-34270462D01*
X51015825Y-34270462D01*
X51106977Y-34491067D01*
X51275612Y-34659997D01*
X51496058Y-34751534D01*
X51734753Y-34751742D01*
X51753940Y-34743814D01*
X54854909Y-34743814D01*
X54946061Y-34964419D01*
X55114696Y-35133349D01*
X55335142Y-35224886D01*
X55573837Y-35225094D01*
X55794442Y-35133942D01*
X55963372Y-34965307D01*
X56054909Y-34744861D01*
X56055117Y-34506166D01*
X55963965Y-34285561D01*
X55795330Y-34116631D01*
X55574884Y-34025094D01*
X55336189Y-34024886D01*
X55115584Y-34116038D01*
X54946654Y-34284673D01*
X54855117Y-34505119D01*
X54854909Y-34743814D01*
X51753940Y-34743814D01*
X51955358Y-34660590D01*
X52124288Y-34491955D01*
X52215825Y-34271509D01*
X52216033Y-34032814D01*
X52124881Y-33812209D01*
X51956246Y-33643279D01*
X51735800Y-33551742D01*
X51497105Y-33551534D01*
X51276500Y-33642686D01*
X51107570Y-33811321D01*
X51016033Y-34031767D01*
X51015825Y-34270462D01*
X427000Y-34270462D01*
X427000Y-32438628D01*
X25399879Y-32438628D01*
X25506223Y-32696000D01*
X25702964Y-32893085D01*
X25960150Y-32999878D01*
X26238628Y-33000121D01*
X26496000Y-32893777D01*
X26663464Y-32726605D01*
X26823394Y-32793014D01*
X27062089Y-32793222D01*
X27282694Y-32702070D01*
X27451624Y-32533435D01*
X27499214Y-32418824D01*
X31599896Y-32418824D01*
X31691048Y-32639429D01*
X31859683Y-32808359D01*
X31959940Y-32849989D01*
X31860571Y-32891048D01*
X31691641Y-33059683D01*
X31600104Y-33280129D01*
X31599896Y-33518824D01*
X31691048Y-33739429D01*
X31859683Y-33908359D01*
X32080129Y-33999896D01*
X32318824Y-34000104D01*
X32539429Y-33908952D01*
X32708359Y-33740317D01*
X32758807Y-33618824D01*
X45999896Y-33618824D01*
X46091048Y-33839429D01*
X46259683Y-34008359D01*
X46480129Y-34099896D01*
X46718824Y-34100104D01*
X46939429Y-34008952D01*
X47108359Y-33840317D01*
X47199896Y-33619871D01*
X47200104Y-33381176D01*
X47108952Y-33160571D01*
X46940317Y-32991641D01*
X46719871Y-32900104D01*
X46481176Y-32899896D01*
X46260571Y-32991048D01*
X46091641Y-33159683D01*
X46000104Y-33380129D01*
X45999896Y-33618824D01*
X32758807Y-33618824D01*
X32799896Y-33519871D01*
X32800104Y-33281176D01*
X32708952Y-33060571D01*
X32540317Y-32891641D01*
X32440060Y-32850011D01*
X32539429Y-32808952D01*
X32708359Y-32640317D01*
X32799896Y-32419871D01*
X32800104Y-32181176D01*
X32708952Y-31960571D01*
X32540317Y-31791641D01*
X32319871Y-31700104D01*
X32081176Y-31699896D01*
X31860571Y-31791048D01*
X31691641Y-31959683D01*
X31600104Y-32180129D01*
X31599896Y-32418824D01*
X27499214Y-32418824D01*
X27543161Y-32312989D01*
X27543369Y-32074294D01*
X27452217Y-31853689D01*
X27283582Y-31684759D01*
X27063136Y-31593222D01*
X26824441Y-31593014D01*
X26603836Y-31684166D01*
X26538968Y-31748921D01*
X26497036Y-31706915D01*
X26239850Y-31600122D01*
X25961372Y-31599879D01*
X25704000Y-31706223D01*
X25506915Y-31902964D01*
X25400122Y-32160150D01*
X25399879Y-32438628D01*
X427000Y-32438628D01*
X427000Y-31238628D01*
X18899879Y-31238628D01*
X19006223Y-31496000D01*
X19202964Y-31693085D01*
X19460150Y-31799878D01*
X19738628Y-31800121D01*
X19996000Y-31693777D01*
X20193085Y-31497036D01*
X20299878Y-31239850D01*
X20299983Y-31118824D01*
X45899896Y-31118824D01*
X45991048Y-31339429D01*
X46159683Y-31508359D01*
X46380129Y-31599896D01*
X46381174Y-31599897D01*
X46160571Y-31691048D01*
X45991641Y-31859683D01*
X45900104Y-32080129D01*
X45899896Y-32318824D01*
X45991048Y-32539429D01*
X46159683Y-32708359D01*
X46380129Y-32799896D01*
X46618824Y-32800104D01*
X46839429Y-32708952D01*
X47008359Y-32540317D01*
X47099896Y-32319871D01*
X47100104Y-32081176D01*
X47008952Y-31860571D01*
X46840317Y-31691641D01*
X46619871Y-31600104D01*
X46618826Y-31600103D01*
X46839429Y-31508952D01*
X47008359Y-31340317D01*
X47099896Y-31119871D01*
X47100104Y-30881176D01*
X47008952Y-30660571D01*
X46840317Y-30491641D01*
X46619871Y-30400104D01*
X46381176Y-30399896D01*
X46160571Y-30491048D01*
X45991641Y-30659683D01*
X45900104Y-30880129D01*
X45899896Y-31118824D01*
X20299983Y-31118824D01*
X20300121Y-30961372D01*
X20193777Y-30704000D01*
X19997036Y-30506915D01*
X19889731Y-30462358D01*
X24283409Y-30462358D01*
X24374561Y-30682963D01*
X24543196Y-30851893D01*
X24763642Y-30943430D01*
X25002337Y-30943638D01*
X25222942Y-30852486D01*
X25391872Y-30683851D01*
X25483409Y-30463405D01*
X25483567Y-30281572D01*
X25550810Y-30281572D01*
X25641962Y-30502177D01*
X25810597Y-30671107D01*
X26031043Y-30762644D01*
X26269738Y-30762852D01*
X26490343Y-30671700D01*
X26659273Y-30503065D01*
X26684117Y-30443233D01*
X26918171Y-30443233D01*
X27009323Y-30663838D01*
X27177958Y-30832768D01*
X27398404Y-30924305D01*
X27637099Y-30924513D01*
X27857704Y-30833361D01*
X28026634Y-30664726D01*
X28118171Y-30444280D01*
X28118379Y-30205585D01*
X28027227Y-29984980D01*
X27858592Y-29816050D01*
X27672139Y-29738628D01*
X55499879Y-29738628D01*
X55606223Y-29996000D01*
X55802964Y-30193085D01*
X56060150Y-30299878D01*
X56338628Y-30300121D01*
X56596000Y-30193777D01*
X56793085Y-29997036D01*
X56899878Y-29739850D01*
X56899879Y-29738628D01*
X61599879Y-29738628D01*
X61706223Y-29996000D01*
X61902964Y-30193085D01*
X62160150Y-30299878D01*
X62438628Y-30300121D01*
X62696000Y-30193777D01*
X62893085Y-29997036D01*
X62999878Y-29739850D01*
X63000121Y-29461372D01*
X62893777Y-29204000D01*
X62697036Y-29006915D01*
X62439850Y-28900122D01*
X62161372Y-28899879D01*
X61904000Y-29006223D01*
X61706915Y-29202964D01*
X61600122Y-29460150D01*
X61599879Y-29738628D01*
X56899879Y-29738628D01*
X56900121Y-29461372D01*
X56793777Y-29204000D01*
X56597036Y-29006915D01*
X56339850Y-28900122D01*
X56061372Y-28899879D01*
X55804000Y-29006223D01*
X55606915Y-29202964D01*
X55500122Y-29460150D01*
X55499879Y-29738628D01*
X27672139Y-29738628D01*
X27638146Y-29724513D01*
X27399451Y-29724305D01*
X27178846Y-29815457D01*
X27009916Y-29984092D01*
X26918379Y-30204538D01*
X26918171Y-30443233D01*
X26684117Y-30443233D01*
X26750810Y-30282619D01*
X26751018Y-30043924D01*
X26659866Y-29823319D01*
X26491231Y-29654389D01*
X26270785Y-29562852D01*
X26032090Y-29562644D01*
X25811485Y-29653796D01*
X25642555Y-29822431D01*
X25551018Y-30042877D01*
X25550810Y-30281572D01*
X25483567Y-30281572D01*
X25483617Y-30224710D01*
X25392465Y-30004105D01*
X25223830Y-29835175D01*
X25003384Y-29743638D01*
X24764689Y-29743430D01*
X24544084Y-29834582D01*
X24375154Y-30003217D01*
X24283617Y-30223663D01*
X24283409Y-30462358D01*
X19889731Y-30462358D01*
X19739850Y-30400122D01*
X19461372Y-30399879D01*
X19204000Y-30506223D01*
X19006915Y-30702964D01*
X18900122Y-30960150D01*
X18899879Y-31238628D01*
X427000Y-31238628D01*
X427000Y-30217407D01*
X15233028Y-30217407D01*
X15339372Y-30474779D01*
X15536113Y-30671864D01*
X15793299Y-30778657D01*
X16071777Y-30778900D01*
X16329149Y-30672556D01*
X16526234Y-30475815D01*
X16633027Y-30218629D01*
X16633270Y-29940151D01*
X16526926Y-29682779D01*
X16330185Y-29485694D01*
X16072999Y-29378901D01*
X15794521Y-29378658D01*
X15537149Y-29485002D01*
X15340064Y-29681743D01*
X15233271Y-29938929D01*
X15233028Y-30217407D01*
X427000Y-30217407D01*
X427000Y-28638628D01*
X2499879Y-28638628D01*
X2606223Y-28896000D01*
X2802964Y-29093085D01*
X3060150Y-29199878D01*
X3338628Y-29200121D01*
X3596000Y-29093777D01*
X3793085Y-28897036D01*
X3794673Y-28893211D01*
X26926671Y-28893211D01*
X27017823Y-29113816D01*
X27186458Y-29282746D01*
X27406904Y-29374283D01*
X27645599Y-29374491D01*
X27866204Y-29283339D01*
X28035134Y-29114704D01*
X28126671Y-28894258D01*
X28126879Y-28655563D01*
X28035727Y-28434958D01*
X27867092Y-28266028D01*
X27646646Y-28174491D01*
X27407951Y-28174283D01*
X27187346Y-28265435D01*
X27018416Y-28434070D01*
X26926879Y-28654516D01*
X26926671Y-28893211D01*
X3794673Y-28893211D01*
X3899878Y-28639850D01*
X3900121Y-28361372D01*
X3793777Y-28104000D01*
X3628826Y-27938760D01*
X46331392Y-27938760D01*
X46422544Y-28159365D01*
X46591179Y-28328295D01*
X46811625Y-28419832D01*
X47050320Y-28420040D01*
X47270925Y-28328888D01*
X47439855Y-28160253D01*
X47531392Y-27939807D01*
X47531600Y-27701112D01*
X47440448Y-27480507D01*
X47271813Y-27311577D01*
X47051367Y-27220040D01*
X46812672Y-27219832D01*
X46592067Y-27310984D01*
X46423137Y-27479619D01*
X46331600Y-27700065D01*
X46331392Y-27938760D01*
X3628826Y-27938760D01*
X3597036Y-27906915D01*
X3339850Y-27800122D01*
X3061372Y-27799879D01*
X2804000Y-27906223D01*
X2606915Y-28102964D01*
X2500122Y-28360150D01*
X2499879Y-28638628D01*
X427000Y-28638628D01*
X427000Y-26911079D01*
X24285819Y-26911079D01*
X24376971Y-27131684D01*
X24545606Y-27300614D01*
X24766052Y-27392151D01*
X25004747Y-27392359D01*
X25225352Y-27301207D01*
X25394282Y-27132572D01*
X25406300Y-27103628D01*
X42534879Y-27103628D01*
X42641223Y-27361000D01*
X42837964Y-27558085D01*
X43095150Y-27664878D01*
X43373628Y-27665121D01*
X43631000Y-27558777D01*
X43828085Y-27362036D01*
X43934878Y-27104850D01*
X43935121Y-26826372D01*
X43828777Y-26569000D01*
X43632036Y-26371915D01*
X43374850Y-26265122D01*
X43096372Y-26264879D01*
X42839000Y-26371223D01*
X42641915Y-26567964D01*
X42535122Y-26825150D01*
X42534879Y-27103628D01*
X25406300Y-27103628D01*
X25485819Y-26912126D01*
X25486027Y-26673431D01*
X25394875Y-26452826D01*
X25226240Y-26283896D01*
X25046863Y-26209412D01*
X25536617Y-26209412D01*
X25627769Y-26430017D01*
X25796404Y-26598947D01*
X26016850Y-26690484D01*
X26255545Y-26690692D01*
X26429479Y-26618824D01*
X33099896Y-26618824D01*
X33191048Y-26839429D01*
X33359683Y-27008359D01*
X33580129Y-27099896D01*
X33818824Y-27100104D01*
X34039429Y-27008952D01*
X34208359Y-26840317D01*
X34299896Y-26619871D01*
X34300104Y-26381176D01*
X34237073Y-26228628D01*
X44409879Y-26228628D01*
X44516223Y-26486000D01*
X44712964Y-26683085D01*
X44970150Y-26789878D01*
X45248628Y-26790121D01*
X45506000Y-26683777D01*
X45703085Y-26487036D01*
X45809878Y-26229850D01*
X45810121Y-25951372D01*
X45703777Y-25694000D01*
X45507036Y-25496915D01*
X45249850Y-25390122D01*
X44971372Y-25389879D01*
X44714000Y-25496223D01*
X44516915Y-25692964D01*
X44410122Y-25950150D01*
X44409879Y-26228628D01*
X34237073Y-26228628D01*
X34208952Y-26160571D01*
X34040317Y-25991641D01*
X33819871Y-25900104D01*
X33581176Y-25899896D01*
X33360571Y-25991048D01*
X33191641Y-26159683D01*
X33100104Y-26380129D01*
X33099896Y-26618824D01*
X26429479Y-26618824D01*
X26476150Y-26599540D01*
X26645080Y-26430905D01*
X26736617Y-26210459D01*
X26736825Y-25971764D01*
X26658537Y-25782292D01*
X26825291Y-25851534D01*
X27063986Y-25851742D01*
X27284591Y-25760590D01*
X27453521Y-25591955D01*
X27545058Y-25371509D01*
X27545266Y-25132814D01*
X27454114Y-24912209D01*
X27285479Y-24743279D01*
X27226585Y-24718824D01*
X47599896Y-24718824D01*
X47691048Y-24939429D01*
X47859683Y-25108359D01*
X48080129Y-25199896D01*
X48318824Y-25200104D01*
X48539429Y-25108952D01*
X48708359Y-24940317D01*
X48799896Y-24719871D01*
X48799896Y-24718824D01*
X52699896Y-24718824D01*
X52791048Y-24939429D01*
X52959683Y-25108359D01*
X53180129Y-25199896D01*
X53418824Y-25200104D01*
X53639429Y-25108952D01*
X53808359Y-24940317D01*
X53899896Y-24719871D01*
X53900104Y-24481176D01*
X53874341Y-24418824D01*
X54199896Y-24418824D01*
X54291048Y-24639429D01*
X54459683Y-24808359D01*
X54680129Y-24899896D01*
X54918824Y-24900104D01*
X55139429Y-24808952D01*
X55308359Y-24640317D01*
X55399896Y-24419871D01*
X55400104Y-24181176D01*
X55308952Y-23960571D01*
X55140317Y-23791641D01*
X54919871Y-23700104D01*
X54681176Y-23699896D01*
X54460571Y-23791048D01*
X54291641Y-23959683D01*
X54200104Y-24180129D01*
X54199896Y-24418824D01*
X53874341Y-24418824D01*
X53808952Y-24260571D01*
X53640317Y-24091641D01*
X53419871Y-24000104D01*
X53181176Y-23999896D01*
X52960571Y-24091048D01*
X52791641Y-24259683D01*
X52700104Y-24480129D01*
X52699896Y-24718824D01*
X48799896Y-24718824D01*
X48800104Y-24481176D01*
X48708952Y-24260571D01*
X48540317Y-24091641D01*
X48319871Y-24000104D01*
X48081176Y-23999896D01*
X47860571Y-24091048D01*
X47691641Y-24259683D01*
X47600104Y-24480129D01*
X47599896Y-24718824D01*
X27226585Y-24718824D01*
X27065033Y-24651742D01*
X26826338Y-24651534D01*
X26605733Y-24742686D01*
X26436803Y-24911321D01*
X26345266Y-25131767D01*
X26345058Y-25370462D01*
X26423346Y-25559934D01*
X26256592Y-25490692D01*
X26017897Y-25490484D01*
X25797292Y-25581636D01*
X25628362Y-25750271D01*
X25536825Y-25970717D01*
X25536617Y-26209412D01*
X25046863Y-26209412D01*
X25005794Y-26192359D01*
X24767099Y-26192151D01*
X24546494Y-26283303D01*
X24377564Y-26451938D01*
X24286027Y-26672384D01*
X24285819Y-26911079D01*
X427000Y-26911079D01*
X427000Y-24238628D01*
X1699879Y-24238628D01*
X1806223Y-24496000D01*
X2002964Y-24693085D01*
X2260150Y-24799878D01*
X2538628Y-24800121D01*
X2796000Y-24693777D01*
X2993085Y-24497036D01*
X3099878Y-24239850D01*
X3100121Y-23961372D01*
X2993777Y-23704000D01*
X2797036Y-23506915D01*
X2539850Y-23400122D01*
X2261372Y-23399879D01*
X2004000Y-23506223D01*
X1806915Y-23702964D01*
X1700122Y-23960150D01*
X1699879Y-24238628D01*
X427000Y-24238628D01*
X427000Y-21418824D01*
X27899896Y-21418824D01*
X27991048Y-21639429D01*
X28159683Y-21808359D01*
X28380129Y-21899896D01*
X28618824Y-21900104D01*
X28839429Y-21808952D01*
X28967110Y-21681494D01*
X28991048Y-21739429D01*
X29159683Y-21908359D01*
X29380129Y-21999896D01*
X29618824Y-22000104D01*
X29839429Y-21908952D01*
X30008359Y-21740317D01*
X30053174Y-21632388D01*
X37995787Y-21632388D01*
X38086939Y-21852993D01*
X38255574Y-22021923D01*
X38476020Y-22113460D01*
X38714715Y-22113668D01*
X38935320Y-22022516D01*
X39104250Y-21853881D01*
X39195787Y-21633435D01*
X39195995Y-21394740D01*
X39104843Y-21174135D01*
X38936208Y-21005205D01*
X38715762Y-20913668D01*
X38477067Y-20913460D01*
X38256462Y-21004612D01*
X38087532Y-21173247D01*
X37995995Y-21393693D01*
X37995787Y-21632388D01*
X30053174Y-21632388D01*
X30099896Y-21519871D01*
X30100104Y-21281176D01*
X30008952Y-21060571D01*
X29840317Y-20891641D01*
X29619871Y-20800104D01*
X29381176Y-20799896D01*
X29160571Y-20891048D01*
X29032890Y-21018506D01*
X29008952Y-20960571D01*
X28840317Y-20791641D01*
X28619871Y-20700104D01*
X28381176Y-20699896D01*
X28160571Y-20791048D01*
X27991641Y-20959683D01*
X27900104Y-21180129D01*
X27899896Y-21418824D01*
X427000Y-21418824D01*
X427000Y-18778357D01*
X17772248Y-18778357D01*
X17878592Y-19035729D01*
X18075333Y-19232814D01*
X18332519Y-19339607D01*
X18610997Y-19339850D01*
X18868369Y-19233506D01*
X19065454Y-19036765D01*
X19172247Y-18779579D01*
X19172490Y-18501101D01*
X19074146Y-18263090D01*
X37804271Y-18263090D01*
X37910615Y-18520462D01*
X38107356Y-18717547D01*
X38364542Y-18824340D01*
X38643020Y-18824583D01*
X38900392Y-18718239D01*
X39049852Y-18569040D01*
X39049835Y-18588138D01*
X39194159Y-18937429D01*
X39461165Y-19204902D01*
X39810204Y-19349835D01*
X39811859Y-19349836D01*
X39462571Y-19494159D01*
X39195098Y-19761165D01*
X39050165Y-20110204D01*
X39049835Y-20488138D01*
X39194159Y-20837429D01*
X39461165Y-21104902D01*
X39711635Y-21208906D01*
X39642322Y-21375831D01*
X39642114Y-21614526D01*
X39733266Y-21835131D01*
X39901901Y-22004061D01*
X40122347Y-22095598D01*
X40361042Y-22095806D01*
X40581647Y-22004654D01*
X40606671Y-21979674D01*
X40606488Y-22189532D01*
X40697640Y-22410137D01*
X40866275Y-22579067D01*
X41086721Y-22670604D01*
X41325416Y-22670812D01*
X41546021Y-22579660D01*
X41714951Y-22411025D01*
X41806488Y-22190579D01*
X41806696Y-21951884D01*
X41793036Y-21918824D01*
X52699896Y-21918824D01*
X52791048Y-22139429D01*
X52959683Y-22308359D01*
X53180129Y-22399896D01*
X53418824Y-22400104D01*
X53639429Y-22308952D01*
X53808359Y-22140317D01*
X53899896Y-21919871D01*
X53899923Y-21888628D01*
X61599879Y-21888628D01*
X61706223Y-22146000D01*
X61902964Y-22343085D01*
X62160150Y-22449878D01*
X62438628Y-22450121D01*
X62696000Y-22343777D01*
X62893085Y-22147036D01*
X62999878Y-21889850D01*
X63000121Y-21611372D01*
X62893777Y-21354000D01*
X62697036Y-21156915D01*
X62439850Y-21050122D01*
X62161372Y-21049879D01*
X61904000Y-21156223D01*
X61706915Y-21352964D01*
X61600122Y-21610150D01*
X61599879Y-21888628D01*
X53899923Y-21888628D01*
X53900104Y-21681176D01*
X53808952Y-21460571D01*
X53640317Y-21291641D01*
X53419871Y-21200104D01*
X53181176Y-21199896D01*
X52960571Y-21291048D01*
X52791641Y-21459683D01*
X52700104Y-21680129D01*
X52699896Y-21918824D01*
X41793036Y-21918824D01*
X41715544Y-21731279D01*
X41546909Y-21562349D01*
X41326463Y-21470812D01*
X41087768Y-21470604D01*
X40867163Y-21561756D01*
X40842139Y-21586736D01*
X40842322Y-21376878D01*
X40751170Y-21156273D01*
X40619270Y-21024143D01*
X40804902Y-20838835D01*
X40949835Y-20489796D01*
X40950165Y-20111862D01*
X40805841Y-19762571D01*
X40538835Y-19495098D01*
X40189796Y-19350165D01*
X40188141Y-19350164D01*
X40537429Y-19205841D01*
X40804902Y-18938835D01*
X40949835Y-18589796D01*
X40950165Y-18211862D01*
X40805841Y-17862571D01*
X40538835Y-17595098D01*
X40189796Y-17450165D01*
X39811862Y-17449835D01*
X39462571Y-17594159D01*
X39195098Y-17861165D01*
X39173997Y-17911981D01*
X39098169Y-17728462D01*
X38901428Y-17531377D01*
X38644242Y-17424584D01*
X38365764Y-17424341D01*
X38108392Y-17530685D01*
X37911307Y-17727426D01*
X37804514Y-17984612D01*
X37804271Y-18263090D01*
X19074146Y-18263090D01*
X19066146Y-18243729D01*
X18869405Y-18046644D01*
X18612219Y-17939851D01*
X18333741Y-17939608D01*
X18076369Y-18045952D01*
X17879284Y-18242693D01*
X17772491Y-18499879D01*
X17772248Y-18778357D01*
X427000Y-18778357D01*
X427000Y-16438628D01*
X42199879Y-16438628D01*
X42306223Y-16696000D01*
X42502964Y-16893085D01*
X42760150Y-16999878D01*
X43038628Y-17000121D01*
X43296000Y-16893777D01*
X43493085Y-16697036D01*
X43599878Y-16439850D01*
X43600121Y-16161372D01*
X43493777Y-15904000D01*
X43297036Y-15706915D01*
X43106376Y-15627746D01*
X56249801Y-15627746D01*
X56424509Y-16050572D01*
X56747727Y-16374354D01*
X56809118Y-16399846D01*
X56749428Y-16424509D01*
X56425646Y-16747727D01*
X56250200Y-17170247D01*
X56249801Y-17627746D01*
X56424509Y-18050572D01*
X56747727Y-18374354D01*
X57170247Y-18549800D01*
X57627746Y-18550199D01*
X58050572Y-18375491D01*
X58374354Y-18052273D01*
X58549800Y-17629753D01*
X58550199Y-17172254D01*
X58375491Y-16749428D01*
X58320783Y-16694624D01*
X60610326Y-16694624D01*
X60716670Y-16951996D01*
X60913411Y-17149081D01*
X61170597Y-17255874D01*
X61449075Y-17256117D01*
X61706447Y-17149773D01*
X61903532Y-16953032D01*
X62010325Y-16695846D01*
X62010568Y-16417368D01*
X61904224Y-16159996D01*
X61707483Y-15962911D01*
X61450297Y-15856118D01*
X61171819Y-15855875D01*
X60914447Y-15962219D01*
X60717362Y-16158960D01*
X60610569Y-16416146D01*
X60610326Y-16694624D01*
X58320783Y-16694624D01*
X58052273Y-16425646D01*
X57990882Y-16400154D01*
X58050572Y-16375491D01*
X58374354Y-16052273D01*
X58549800Y-15629753D01*
X58550199Y-15172254D01*
X58375491Y-14749428D01*
X58052273Y-14425646D01*
X57629753Y-14250200D01*
X57172254Y-14249801D01*
X56749428Y-14424509D01*
X56425646Y-14747727D01*
X56250200Y-15170247D01*
X56249801Y-15627746D01*
X43106376Y-15627746D01*
X43039850Y-15600122D01*
X42761372Y-15599879D01*
X42504000Y-15706223D01*
X42306915Y-15902964D01*
X42200122Y-16160150D01*
X42199879Y-16438628D01*
X427000Y-16438628D01*
X427000Y-14918824D01*
X4299896Y-14918824D01*
X4391048Y-15139429D01*
X4559683Y-15308359D01*
X4780129Y-15399896D01*
X5018824Y-15400104D01*
X5034046Y-15393814D01*
X28279146Y-15393814D01*
X28370298Y-15614419D01*
X28538933Y-15783349D01*
X28759379Y-15874886D01*
X28998074Y-15875094D01*
X29218679Y-15783942D01*
X29387609Y-15615307D01*
X29440840Y-15487112D01*
X29640042Y-15487286D01*
X29860647Y-15396134D01*
X30029577Y-15227499D01*
X30121114Y-15007053D01*
X30121322Y-14768358D01*
X30030170Y-14547753D01*
X29861535Y-14378823D01*
X29641089Y-14287286D01*
X29402394Y-14287078D01*
X29181789Y-14378230D01*
X29012859Y-14546865D01*
X28959628Y-14675060D01*
X28760426Y-14674886D01*
X28539821Y-14766038D01*
X28370891Y-14934673D01*
X28279354Y-15155119D01*
X28279146Y-15393814D01*
X5034046Y-15393814D01*
X5239429Y-15308952D01*
X5408359Y-15140317D01*
X5499896Y-14919871D01*
X5500104Y-14681176D01*
X5408952Y-14460571D01*
X5240317Y-14291641D01*
X5019871Y-14200104D01*
X4781176Y-14199896D01*
X4560571Y-14291048D01*
X4391641Y-14459683D01*
X4300104Y-14680129D01*
X4299896Y-14918824D01*
X427000Y-14918824D01*
X427000Y-13779774D01*
X22258733Y-13779774D01*
X22365077Y-14037146D01*
X22561818Y-14234231D01*
X22819004Y-14341024D01*
X23097482Y-14341267D01*
X23354854Y-14234923D01*
X23551939Y-14038182D01*
X23658732Y-13780996D01*
X23658975Y-13502518D01*
X23552631Y-13245146D01*
X23355890Y-13048061D01*
X23098704Y-12941268D01*
X22820226Y-12941025D01*
X22562854Y-13047369D01*
X22365769Y-13244110D01*
X22258976Y-13501296D01*
X22258733Y-13779774D01*
X427000Y-13779774D01*
X427000Y-12638628D01*
X7099879Y-12638628D01*
X7206223Y-12896000D01*
X7402964Y-13093085D01*
X7660150Y-13199878D01*
X7938628Y-13200121D01*
X8196000Y-13093777D01*
X8393085Y-12897036D01*
X8499878Y-12639850D01*
X8500121Y-12361372D01*
X8393777Y-12104000D01*
X8197036Y-11906915D01*
X7939850Y-11800122D01*
X7661372Y-11799879D01*
X7404000Y-11906223D01*
X7206915Y-12102964D01*
X7100122Y-12360150D01*
X7099879Y-12638628D01*
X427000Y-12638628D01*
X427000Y-11738628D01*
X18899879Y-11738628D01*
X19006223Y-11996000D01*
X19202964Y-12193085D01*
X19460150Y-12299878D01*
X19738628Y-12300121D01*
X19996000Y-12193777D01*
X20193085Y-11997036D01*
X20299878Y-11739850D01*
X20300106Y-11478286D01*
X24604159Y-11478286D01*
X24695311Y-11698891D01*
X24863946Y-11867821D01*
X25084392Y-11959358D01*
X25323087Y-11959566D01*
X25543692Y-11868414D01*
X25712622Y-11699779D01*
X25804159Y-11479333D01*
X25804367Y-11240638D01*
X25736297Y-11075897D01*
X25785192Y-11124877D01*
X26005638Y-11216414D01*
X26244333Y-11216622D01*
X26464938Y-11125470D01*
X26633868Y-10956835D01*
X26725405Y-10736389D01*
X26725613Y-10497694D01*
X26634461Y-10277089D01*
X26615199Y-10257793D01*
X26645703Y-10257793D01*
X26752047Y-10515165D01*
X26948788Y-10712250D01*
X27205974Y-10819043D01*
X27319863Y-10819142D01*
X27166514Y-10972224D01*
X27059721Y-11229410D01*
X27059478Y-11507888D01*
X27165822Y-11765260D01*
X27362563Y-11962345D01*
X27619749Y-12069138D01*
X27898227Y-12069381D01*
X28155599Y-11963037D01*
X28352684Y-11766296D01*
X28408019Y-11633033D01*
X42488428Y-11633033D01*
X42594772Y-11890405D01*
X42791513Y-12087490D01*
X43048699Y-12194283D01*
X43327177Y-12194526D01*
X43584549Y-12088182D01*
X43781634Y-11891441D01*
X43803563Y-11838628D01*
X70399879Y-11838628D01*
X70506223Y-12096000D01*
X70702964Y-12293085D01*
X70960150Y-12399878D01*
X71238628Y-12400121D01*
X71496000Y-12293777D01*
X71693085Y-12097036D01*
X71799878Y-11839850D01*
X71800121Y-11561372D01*
X71693777Y-11304000D01*
X71497036Y-11106915D01*
X71239850Y-11000122D01*
X70961372Y-10999879D01*
X70704000Y-11106223D01*
X70506915Y-11302964D01*
X70400122Y-11560150D01*
X70399879Y-11838628D01*
X43803563Y-11838628D01*
X43888427Y-11634255D01*
X43888670Y-11355777D01*
X43782326Y-11098405D01*
X43649017Y-10964862D01*
X45086868Y-10964862D01*
X45193212Y-11222234D01*
X45389953Y-11419319D01*
X45647139Y-11526112D01*
X45925617Y-11526355D01*
X46182989Y-11420011D01*
X46380074Y-11223270D01*
X46486867Y-10966084D01*
X46487110Y-10687606D01*
X46380766Y-10430234D01*
X46184025Y-10233149D01*
X45926839Y-10126356D01*
X45648361Y-10126113D01*
X45390989Y-10232457D01*
X45193904Y-10429198D01*
X45087111Y-10686384D01*
X45086868Y-10964862D01*
X43649017Y-10964862D01*
X43585585Y-10901320D01*
X43328399Y-10794527D01*
X43049921Y-10794284D01*
X42792549Y-10900628D01*
X42595464Y-11097369D01*
X42488671Y-11354555D01*
X42488428Y-11633033D01*
X28408019Y-11633033D01*
X28459477Y-11509110D01*
X28459720Y-11230632D01*
X28353376Y-10973260D01*
X28156635Y-10776175D01*
X27899449Y-10669382D01*
X27785560Y-10669283D01*
X27938909Y-10516201D01*
X28045702Y-10259015D01*
X28045945Y-9980537D01*
X28028629Y-9938628D01*
X48599879Y-9938628D01*
X48706223Y-10196000D01*
X48902964Y-10393085D01*
X49160150Y-10499878D01*
X49438628Y-10500121D01*
X49696000Y-10393777D01*
X49852731Y-10237319D01*
X58536838Y-10237319D01*
X58643182Y-10494691D01*
X58839923Y-10691776D01*
X59097109Y-10798569D01*
X59375587Y-10798812D01*
X59632959Y-10692468D01*
X59830044Y-10495727D01*
X59895277Y-10338628D01*
X63899879Y-10338628D01*
X64006223Y-10596000D01*
X64202964Y-10793085D01*
X64460150Y-10899878D01*
X64738628Y-10900121D01*
X64996000Y-10793777D01*
X65193085Y-10597036D01*
X65299878Y-10339850D01*
X65300053Y-10138628D01*
X67199879Y-10138628D01*
X67306223Y-10396000D01*
X67502964Y-10593085D01*
X67760150Y-10699878D01*
X68038628Y-10700121D01*
X68296000Y-10593777D01*
X68493085Y-10397036D01*
X68599878Y-10139850D01*
X68600121Y-9861372D01*
X68493777Y-9604000D01*
X68297036Y-9406915D01*
X68039850Y-9300122D01*
X67761372Y-9299879D01*
X67504000Y-9406223D01*
X67306915Y-9602964D01*
X67200122Y-9860150D01*
X67199879Y-10138628D01*
X65300053Y-10138628D01*
X65300121Y-10061372D01*
X65193777Y-9804000D01*
X64997036Y-9606915D01*
X64739850Y-9500122D01*
X64461372Y-9499879D01*
X64204000Y-9606223D01*
X64006915Y-9802964D01*
X63900122Y-10060150D01*
X63899879Y-10338628D01*
X59895277Y-10338628D01*
X59936837Y-10238541D01*
X59937080Y-9960063D01*
X59830736Y-9702691D01*
X59633995Y-9505606D01*
X59376809Y-9398813D01*
X59098331Y-9398570D01*
X58840959Y-9504914D01*
X58643874Y-9701655D01*
X58537081Y-9958841D01*
X58536838Y-10237319D01*
X49852731Y-10237319D01*
X49893085Y-10197036D01*
X49999878Y-9939850D01*
X50000121Y-9661372D01*
X49893777Y-9404000D01*
X49697036Y-9206915D01*
X49439850Y-9100122D01*
X49161372Y-9099879D01*
X48904000Y-9206223D01*
X48706915Y-9402964D01*
X48600122Y-9660150D01*
X48599879Y-9938628D01*
X28028629Y-9938628D01*
X27939601Y-9723165D01*
X27742860Y-9526080D01*
X27485674Y-9419287D01*
X27207196Y-9419044D01*
X26949824Y-9525388D01*
X26752739Y-9722129D01*
X26645946Y-9979315D01*
X26645703Y-10257793D01*
X26615199Y-10257793D01*
X26465826Y-10108159D01*
X26245380Y-10016622D01*
X26006685Y-10016414D01*
X25786080Y-10107566D01*
X25617150Y-10276201D01*
X25525613Y-10496647D01*
X25525405Y-10735342D01*
X25593475Y-10900083D01*
X25544580Y-10851103D01*
X25324134Y-10759566D01*
X25085439Y-10759358D01*
X24864834Y-10850510D01*
X24695904Y-11019145D01*
X24604367Y-11239591D01*
X24604159Y-11478286D01*
X20300106Y-11478286D01*
X20300121Y-11461372D01*
X20193777Y-11204000D01*
X19997036Y-11006915D01*
X19739850Y-10900122D01*
X19461372Y-10899879D01*
X19204000Y-11006223D01*
X19006915Y-11202964D01*
X18900122Y-11460150D01*
X18899879Y-11738628D01*
X427000Y-11738628D01*
X427000Y-9738628D01*
X5099879Y-9738628D01*
X5206223Y-9996000D01*
X5402964Y-10193085D01*
X5660150Y-10299878D01*
X5938628Y-10300121D01*
X6196000Y-10193777D01*
X6393085Y-9997036D01*
X6499878Y-9739850D01*
X6500053Y-9538628D01*
X18999879Y-9538628D01*
X19106223Y-9796000D01*
X19302964Y-9993085D01*
X19560150Y-10099878D01*
X19838628Y-10100121D01*
X20096000Y-9993777D01*
X20293085Y-9797036D01*
X20399878Y-9539850D01*
X20400121Y-9261372D01*
X20358949Y-9161726D01*
X28731092Y-9161726D01*
X28837436Y-9419098D01*
X29034177Y-9616183D01*
X29291363Y-9722976D01*
X29569841Y-9723219D01*
X29827213Y-9616875D01*
X30024298Y-9420134D01*
X30121002Y-9187244D01*
X35354318Y-9187244D01*
X35445470Y-9407849D01*
X35614105Y-9576779D01*
X35834551Y-9668316D01*
X36073246Y-9668524D01*
X36293851Y-9577372D01*
X36462781Y-9408737D01*
X36554318Y-9188291D01*
X36554526Y-8949596D01*
X36463374Y-8728991D01*
X36294739Y-8560061D01*
X36074293Y-8468524D01*
X35835598Y-8468316D01*
X35614993Y-8559468D01*
X35446063Y-8728103D01*
X35354526Y-8948549D01*
X35354318Y-9187244D01*
X30121002Y-9187244D01*
X30131091Y-9162948D01*
X30131334Y-8884470D01*
X30024990Y-8627098D01*
X29828249Y-8430013D01*
X29571063Y-8323220D01*
X29292585Y-8322977D01*
X29035213Y-8429321D01*
X28838128Y-8626062D01*
X28731335Y-8883248D01*
X28731092Y-9161726D01*
X20358949Y-9161726D01*
X20293777Y-9004000D01*
X20097036Y-8806915D01*
X19839850Y-8700122D01*
X19561372Y-8699879D01*
X19304000Y-8806223D01*
X19106915Y-9002964D01*
X19000122Y-9260150D01*
X18999879Y-9538628D01*
X6500053Y-9538628D01*
X6500121Y-9461372D01*
X6393777Y-9204000D01*
X6197036Y-9006915D01*
X5939850Y-8900122D01*
X5661372Y-8899879D01*
X5404000Y-9006223D01*
X5206915Y-9202964D01*
X5100122Y-9460150D01*
X5099879Y-9738628D01*
X427000Y-9738628D01*
X427000Y-7993397D01*
X4364198Y-7993397D01*
X4455350Y-8214002D01*
X4623985Y-8382932D01*
X4844431Y-8474469D01*
X5083126Y-8474677D01*
X5303731Y-8383525D01*
X5384225Y-8303171D01*
X8422061Y-8303171D01*
X8528405Y-8560543D01*
X8725146Y-8757628D01*
X8982332Y-8864421D01*
X9260810Y-8864664D01*
X9518182Y-8758320D01*
X9715267Y-8561579D01*
X9822060Y-8304393D01*
X9822303Y-8025915D01*
X9715959Y-7768543D01*
X9653287Y-7705761D01*
X27463899Y-7705761D01*
X27570243Y-7963133D01*
X27766984Y-8160218D01*
X28024170Y-8267011D01*
X28302648Y-8267254D01*
X28560020Y-8160910D01*
X28568398Y-8152546D01*
X40687700Y-8152546D01*
X40794044Y-8409918D01*
X40990785Y-8607003D01*
X41247971Y-8713796D01*
X41526449Y-8714039D01*
X41783821Y-8607695D01*
X41853008Y-8538628D01*
X47299879Y-8538628D01*
X47406223Y-8796000D01*
X47602964Y-8993085D01*
X47860150Y-9099878D01*
X48138628Y-9100121D01*
X48396000Y-8993777D01*
X48593085Y-8797036D01*
X48699878Y-8539850D01*
X48700121Y-8261372D01*
X48593777Y-8004000D01*
X48397036Y-7806915D01*
X48139850Y-7700122D01*
X47861372Y-7699879D01*
X47604000Y-7806223D01*
X47406915Y-8002964D01*
X47300122Y-8260150D01*
X47299879Y-8538628D01*
X41853008Y-8538628D01*
X41980906Y-8410954D01*
X42087699Y-8153768D01*
X42087886Y-7938628D01*
X44899879Y-7938628D01*
X45006223Y-8196000D01*
X45202964Y-8393085D01*
X45460150Y-8499878D01*
X45738628Y-8500121D01*
X45996000Y-8393777D01*
X46193085Y-8197036D01*
X46299878Y-7939850D01*
X46300121Y-7661372D01*
X46193777Y-7404000D01*
X45997036Y-7206915D01*
X45739850Y-7100122D01*
X45461372Y-7099879D01*
X45204000Y-7206223D01*
X45006915Y-7402964D01*
X44900122Y-7660150D01*
X44899879Y-7938628D01*
X42087886Y-7938628D01*
X42087942Y-7875290D01*
X41981598Y-7617918D01*
X41784857Y-7420833D01*
X41527671Y-7314040D01*
X41249193Y-7313797D01*
X40991821Y-7420141D01*
X40794736Y-7616882D01*
X40687943Y-7874068D01*
X40687700Y-8152546D01*
X28568398Y-8152546D01*
X28757105Y-7964169D01*
X28863898Y-7706983D01*
X28864035Y-7549285D01*
X38376618Y-7549285D01*
X38467770Y-7769890D01*
X38636405Y-7938820D01*
X38856851Y-8030357D01*
X39095546Y-8030565D01*
X39316151Y-7939413D01*
X39485081Y-7770778D01*
X39576618Y-7550332D01*
X39576826Y-7311637D01*
X39485674Y-7091032D01*
X39317039Y-6922102D01*
X39096593Y-6830565D01*
X38857898Y-6830357D01*
X38637293Y-6921509D01*
X38468363Y-7090144D01*
X38376826Y-7310590D01*
X38376618Y-7549285D01*
X28864035Y-7549285D01*
X28864141Y-7428505D01*
X28757797Y-7171133D01*
X28561056Y-6974048D01*
X28303870Y-6867255D01*
X28025392Y-6867012D01*
X27768020Y-6973356D01*
X27570935Y-7170097D01*
X27464142Y-7427283D01*
X27463899Y-7705761D01*
X9653287Y-7705761D01*
X9519218Y-7571458D01*
X9262032Y-7464665D01*
X8983554Y-7464422D01*
X8726182Y-7570766D01*
X8529097Y-7767507D01*
X8422304Y-8024693D01*
X8422061Y-8303171D01*
X5384225Y-8303171D01*
X5472661Y-8214890D01*
X5564198Y-7994444D01*
X5564406Y-7755749D01*
X5473254Y-7535144D01*
X5304619Y-7366214D01*
X5084173Y-7274677D01*
X4845478Y-7274469D01*
X4624873Y-7365621D01*
X4455943Y-7534256D01*
X4364406Y-7754702D01*
X4364198Y-7993397D01*
X427000Y-7993397D01*
X427000Y-6427000D01*
X3000000Y-6427000D01*
X3163406Y-6394497D01*
X3301935Y-6301935D01*
X3307634Y-6293406D01*
X4244569Y-5356471D01*
X10699688Y-5356471D01*
X10973145Y-6018286D01*
X11479051Y-6525076D01*
X12140387Y-6799687D01*
X12856471Y-6800312D01*
X13518286Y-6526855D01*
X13877297Y-6168470D01*
X38562982Y-6168470D01*
X38669326Y-6425842D01*
X38866067Y-6622927D01*
X39123253Y-6729720D01*
X39401731Y-6729963D01*
X39659103Y-6623619D01*
X39837859Y-6445175D01*
X39949285Y-6556796D01*
X40206471Y-6663589D01*
X40484949Y-6663832D01*
X40742321Y-6557488D01*
X40939406Y-6360747D01*
X41031637Y-6138628D01*
X48499879Y-6138628D01*
X48606223Y-6396000D01*
X48802964Y-6593085D01*
X49060150Y-6699878D01*
X49338628Y-6700121D01*
X49596000Y-6593777D01*
X49793085Y-6397036D01*
X49899878Y-6139850D01*
X49900121Y-5861372D01*
X49793777Y-5604000D01*
X49597036Y-5406915D01*
X49475554Y-5356471D01*
X60699688Y-5356471D01*
X60973145Y-6018286D01*
X61479051Y-6525076D01*
X62140387Y-6799687D01*
X62856471Y-6800312D01*
X63518286Y-6526855D01*
X64025076Y-6020949D01*
X64299687Y-5359613D01*
X64300312Y-4643529D01*
X64026855Y-3981714D01*
X63520949Y-3474924D01*
X62859613Y-3200313D01*
X62143529Y-3199688D01*
X61481714Y-3473145D01*
X60974924Y-3979051D01*
X60700313Y-4640387D01*
X60699688Y-5356471D01*
X49475554Y-5356471D01*
X49339850Y-5300122D01*
X49061372Y-5299879D01*
X48804000Y-5406223D01*
X48606915Y-5602964D01*
X48500122Y-5860150D01*
X48499879Y-6138628D01*
X41031637Y-6138628D01*
X41046199Y-6103561D01*
X41046442Y-5825083D01*
X40940098Y-5567711D01*
X40743357Y-5370626D01*
X40486171Y-5263833D01*
X40207693Y-5263590D01*
X40046016Y-5330393D01*
X40046237Y-5077680D01*
X39939893Y-4820308D01*
X39743152Y-4623223D01*
X39485966Y-4516430D01*
X39207488Y-4516187D01*
X38950116Y-4622531D01*
X38753031Y-4819272D01*
X38646238Y-5076458D01*
X38645995Y-5354936D01*
X38734296Y-5568640D01*
X38670018Y-5632806D01*
X38563225Y-5889992D01*
X38562982Y-6168470D01*
X13877297Y-6168470D01*
X14025076Y-6020949D01*
X14299687Y-5359613D01*
X14300098Y-4888628D01*
X23349879Y-4888628D01*
X23456223Y-5146000D01*
X23652964Y-5343085D01*
X23910150Y-5449878D01*
X24188628Y-5450121D01*
X24446000Y-5343777D01*
X24643085Y-5147036D01*
X24646576Y-5138628D01*
X35499879Y-5138628D01*
X35606223Y-5396000D01*
X35802964Y-5593085D01*
X36060150Y-5699878D01*
X36338628Y-5700121D01*
X36596000Y-5593777D01*
X36793085Y-5397036D01*
X36899878Y-5139850D01*
X36900121Y-4861372D01*
X36793777Y-4604000D01*
X36597036Y-4406915D01*
X36339850Y-4300122D01*
X36061372Y-4299879D01*
X35804000Y-4406223D01*
X35606915Y-4602964D01*
X35500122Y-4860150D01*
X35499879Y-5138628D01*
X24646576Y-5138628D01*
X24749878Y-4889850D01*
X24750121Y-4611372D01*
X24643777Y-4354000D01*
X24447036Y-4156915D01*
X24189850Y-4050122D01*
X23911372Y-4049879D01*
X23654000Y-4156223D01*
X23456915Y-4352964D01*
X23350122Y-4610150D01*
X23349879Y-4888628D01*
X14300098Y-4888628D01*
X14300312Y-4643529D01*
X14026855Y-3981714D01*
X13827701Y-3782212D01*
X46879358Y-3782212D01*
X46985702Y-4039584D01*
X47182443Y-4236669D01*
X47439629Y-4343462D01*
X47718107Y-4343705D01*
X47975479Y-4237361D01*
X48172564Y-4040620D01*
X48279357Y-3783434D01*
X48279600Y-3504956D01*
X48173256Y-3247584D01*
X47976515Y-3050499D01*
X47719329Y-2943706D01*
X47440851Y-2943463D01*
X47183479Y-3049807D01*
X46986394Y-3246548D01*
X46879601Y-3503734D01*
X46879358Y-3782212D01*
X13827701Y-3782212D01*
X13520949Y-3474924D01*
X12859613Y-3200313D01*
X12143529Y-3199688D01*
X11481714Y-3473145D01*
X10974924Y-3979051D01*
X10700313Y-4640387D01*
X10699688Y-5356471D01*
X4244569Y-5356471D01*
X7293409Y-2307632D01*
X7301935Y-2301935D01*
X7394497Y-2163406D01*
X7427000Y-2000000D01*
X7427000Y-1891518D01*
X18827200Y-1891518D01*
X18918352Y-2112123D01*
X19086987Y-2281053D01*
X19307433Y-2372590D01*
X19546128Y-2372798D01*
X19766733Y-2281646D01*
X19935663Y-2113011D01*
X20027200Y-1892565D01*
X20027244Y-1842048D01*
X20202964Y-2018075D01*
X20460150Y-2124868D01*
X20738628Y-2125111D01*
X20996000Y-2018767D01*
X21193085Y-1822026D01*
X21227714Y-1738628D01*
X30899879Y-1738628D01*
X31006223Y-1996000D01*
X31202964Y-2193085D01*
X31460150Y-2299878D01*
X31738628Y-2300121D01*
X31996000Y-2193777D01*
X32193085Y-1997036D01*
X32299878Y-1739850D01*
X32299880Y-1737104D01*
X38527032Y-1737104D01*
X38633376Y-1994476D01*
X38830117Y-2191561D01*
X39087303Y-2298354D01*
X39365781Y-2298597D01*
X39623153Y-2192253D01*
X39820238Y-1995512D01*
X39927031Y-1738326D01*
X39927274Y-1459848D01*
X39820930Y-1202476D01*
X39624189Y-1005391D01*
X39367003Y-898598D01*
X39088525Y-898355D01*
X38831153Y-1004699D01*
X38634068Y-1201440D01*
X38527275Y-1458626D01*
X38527032Y-1737104D01*
X32299880Y-1737104D01*
X32300121Y-1461372D01*
X32193777Y-1204000D01*
X31997036Y-1006915D01*
X31739850Y-900122D01*
X31461372Y-899879D01*
X31204000Y-1006223D01*
X31006915Y-1202964D01*
X30900122Y-1460150D01*
X30899879Y-1738628D01*
X21227714Y-1738628D01*
X21299878Y-1564840D01*
X21300121Y-1286362D01*
X21193777Y-1028990D01*
X20997036Y-831905D01*
X20739850Y-725112D01*
X20461372Y-724869D01*
X20204000Y-831213D01*
X20006915Y-1027954D01*
X19900122Y-1285140D01*
X19900024Y-1396970D01*
X19767621Y-1264335D01*
X19547175Y-1172798D01*
X19308480Y-1172590D01*
X19087875Y-1263742D01*
X18918945Y-1432377D01*
X18827408Y-1652823D01*
X18827200Y-1891518D01*
X7427000Y-1891518D01*
X7427000Y-427000D01*
X67575000Y-427000D01*
X67575000Y-2000000D01*
M02*
