G04 #@! TF.FileFunction,Copper,L4,Bot,Signal*
%FSLAX46Y46*%
G04 Gerber Fmt 4.6, Leading zero omitted, Abs format (unit mm)*
G04 Created by KiCad (PCBNEW 4.0.6) date 12/03/17 23:21:02*
%MOMM*%
%LPD*%
G01*
G04 APERTURE LIST*
%ADD10C,1.000000*%
%ADD11R,2.400000X0.760000*%
%ADD12C,8.130000*%
%ADD13R,3.200000X3.200000*%
%ADD14C,1.300000*%
%ADD15C,1.700000*%
%ADD16C,0.800000*%
%ADD17C,0.600000*%
%ADD18C,0.450000*%
%ADD19C,0.250000*%
%ADD20C,0.800000*%
G04 APERTURE END LIST*
D10*
D11*
X91550000Y-84585000D03*
X87650000Y-84585000D03*
X91550000Y-83315000D03*
X87650000Y-83315000D03*
X91550000Y-82045000D03*
X87650000Y-82045000D03*
X91550000Y-80775000D03*
X87650000Y-80775000D03*
X91550000Y-79505000D03*
X87650000Y-79505000D03*
X91550000Y-78235000D03*
X87650000Y-78235000D03*
X91550000Y-76965000D03*
X87650000Y-76965000D03*
D12*
X59600000Y-81300000D03*
D13*
X59600000Y-89000000D03*
X59600000Y-73600000D03*
D14*
X89900000Y-51700000D03*
X90200000Y-68200000D03*
D15*
X107400000Y-67400000D03*
X107400000Y-65400000D03*
D16*
X112400000Y-85200000D03*
X111023542Y-88923542D03*
X114500000Y-83400000D03*
X69200000Y-54000000D03*
X75200000Y-89800000D03*
X86440492Y-53106882D03*
X100700000Y-78200000D03*
X101538744Y-90531256D03*
X113809741Y-87882922D03*
X66300000Y-97600000D03*
X66400000Y-99100000D03*
X73546112Y-59408845D03*
X69200000Y-64200000D03*
X73841551Y-62466137D03*
X107800000Y-61600000D03*
X118827389Y-59793914D03*
X121200000Y-60200000D03*
X120000000Y-59400000D03*
X52400000Y-74100000D03*
X57800000Y-62500000D03*
X55800000Y-59600000D03*
X59424757Y-50970634D03*
X58364120Y-57351494D03*
X88749999Y-67550001D03*
X78164020Y-57567133D03*
X77759599Y-61369260D03*
X99200000Y-56000000D03*
X99300000Y-59800000D03*
X68750000Y-68500000D03*
X112300000Y-79600000D03*
X106200000Y-79600000D03*
X86200000Y-55000000D03*
X89200000Y-55100000D03*
X69800000Y-87400000D03*
X66375010Y-80000000D03*
X69600000Y-81100000D03*
X112300000Y-71750000D03*
X79431213Y-59023098D03*
X70600000Y-51424990D03*
X103400000Y-94100000D03*
X106300000Y-95350000D03*
X90036138Y-88224990D03*
X76100000Y-82300000D03*
X88425010Y-55800000D03*
X113720617Y-90036753D03*
X110975010Y-87650000D03*
X96695000Y-92400000D03*
X82095000Y-92400000D03*
X95110000Y-76090000D03*
X93235000Y-76965000D03*
X101200000Y-94200000D03*
X68584356Y-93120569D03*
X71600000Y-87200000D03*
X66050000Y-87500000D03*
X53200000Y-78500000D03*
X53164876Y-89007222D03*
X69700000Y-59400000D03*
X81600000Y-51600000D03*
X74050000Y-54750000D03*
X109236959Y-60098691D03*
X114600000Y-60200000D03*
X69600000Y-61600000D03*
X111310447Y-66555996D03*
X93188549Y-61494405D03*
X97579479Y-53643584D03*
X98000000Y-58400000D03*
X121100000Y-61700000D03*
X117900000Y-60000000D03*
D17*
X101595828Y-86022221D03*
X101615929Y-84151638D03*
X90148902Y-70952524D03*
X88400000Y-71300000D03*
D16*
X87700000Y-50574999D03*
D17*
X76824015Y-75250715D03*
X76943265Y-82193118D03*
X82200000Y-83400000D03*
X75981046Y-76537351D03*
X76150914Y-80162748D03*
X82200000Y-82300000D03*
X82012446Y-90505125D03*
X74767200Y-76812362D03*
X74883513Y-80343534D03*
X89284562Y-91717258D03*
X100711892Y-90334187D03*
X96532623Y-91265565D03*
X71700000Y-92300000D03*
X69277304Y-51922694D03*
X90882208Y-71152516D03*
X87100000Y-59100000D03*
X88600000Y-59200000D03*
X103300000Y-71800000D03*
X104800000Y-74300000D03*
X109672756Y-89589052D03*
X96226001Y-89613953D03*
X81922404Y-89499408D03*
X95987657Y-88902820D03*
X108600000Y-88900000D03*
X82200000Y-86000000D03*
X96500000Y-81000000D03*
X78500000Y-71300000D03*
X78908506Y-88360318D03*
X78879250Y-65425010D03*
X105455013Y-84624990D03*
X98200000Y-74600000D03*
X103300000Y-74600000D03*
X106100000Y-87000000D03*
X79500000Y-71400000D03*
X78603481Y-87362053D03*
X79500000Y-64900000D03*
X77518275Y-80324409D03*
X77526775Y-78774387D03*
X88386402Y-91080135D03*
X65500000Y-91900000D03*
X65600000Y-85900000D03*
X54900000Y-64800000D03*
X54619529Y-55740363D03*
X76125509Y-60616518D03*
X75204263Y-61359462D03*
X100316357Y-85324307D03*
X96931496Y-77819936D03*
X108965483Y-86538431D03*
X83700000Y-76500000D03*
X96600000Y-83500000D03*
X96500000Y-82200000D03*
D16*
X95786989Y-60826234D03*
X95600000Y-57800000D03*
X92900000Y-66300000D03*
X77345824Y-60119165D03*
X72978578Y-63641146D03*
X90800000Y-56000000D03*
X91387821Y-58013918D03*
D18*
X59600000Y-81300000D02*
X56582762Y-78282762D01*
X56582762Y-78282762D02*
X53417238Y-78282762D01*
X53417238Y-78282762D02*
X53200000Y-78500000D01*
X91550000Y-76965000D02*
X93235000Y-76965000D01*
D19*
X101615929Y-86002120D02*
X101595828Y-86022221D01*
X101615929Y-84151638D02*
X101615929Y-86002120D01*
X89724638Y-70952524D02*
X90148902Y-70952524D01*
X88400000Y-71300000D02*
X88747476Y-70952524D01*
X88747476Y-70952524D02*
X89724638Y-70952524D01*
D18*
X87300001Y-50974998D02*
X87700000Y-50574999D01*
X87300001Y-58300999D02*
X87300001Y-50974998D01*
X87650000Y-76965000D02*
X87650000Y-59549002D01*
X87650000Y-59549002D02*
X87775001Y-59424001D01*
X87775001Y-59424001D02*
X87775001Y-58775999D01*
X87775001Y-58775999D02*
X87300001Y-58300999D01*
D19*
X76943265Y-82193118D02*
X76943265Y-75369965D01*
X76943265Y-75369965D02*
X76824015Y-75250715D01*
X82200000Y-83400000D02*
X84825000Y-80775000D01*
X84825000Y-80775000D02*
X87650000Y-80775000D01*
X76150914Y-76707219D02*
X75981046Y-76537351D01*
X76150914Y-80162748D02*
X76150914Y-76707219D01*
X82200000Y-82300000D02*
X84995000Y-79505000D01*
X84995000Y-79505000D02*
X87650000Y-79505000D01*
X82359875Y-90505125D02*
X82012446Y-90505125D01*
X87650000Y-85215000D02*
X82359875Y-90505125D01*
X87650000Y-84585000D02*
X87650000Y-85215000D01*
X74883513Y-80343534D02*
X74883513Y-76928675D01*
X74883513Y-76928675D02*
X74767200Y-76812362D01*
X88860298Y-91717258D02*
X89284562Y-91717258D01*
X72282742Y-91717258D02*
X88860298Y-91717258D01*
X71700000Y-92300000D02*
X72282742Y-91717258D01*
X99780514Y-91265565D02*
X100411893Y-90634186D01*
X96532623Y-91265565D02*
X99780514Y-91265565D01*
X100411893Y-90634186D02*
X100711892Y-90334187D01*
X88600000Y-59200000D02*
X91539025Y-62139025D01*
X91539025Y-62139025D02*
X91539025Y-70495699D01*
X91539025Y-70495699D02*
X90882208Y-71152516D01*
X69701568Y-51922694D02*
X69277304Y-51922694D01*
X80100000Y-52100000D02*
X69878874Y-52100000D01*
X87100000Y-59100000D02*
X80100000Y-52100000D01*
X69878874Y-52100000D02*
X69701568Y-51922694D01*
X103300000Y-72375736D02*
X103300000Y-71800000D01*
X104800000Y-74300000D02*
X104800000Y-73875736D01*
X104800000Y-73875736D02*
X103300000Y-72375736D01*
X109647855Y-89613953D02*
X109672756Y-89589052D01*
X96226001Y-89613953D02*
X109647855Y-89613953D01*
X81922404Y-88222596D02*
X81922404Y-89075144D01*
X86830000Y-83315000D02*
X81922404Y-88222596D01*
X81922404Y-89075144D02*
X81922404Y-89499408D01*
X87650000Y-83315000D02*
X86830000Y-83315000D01*
X108600000Y-88900000D02*
X95990477Y-88900000D01*
X95990477Y-88900000D02*
X95987657Y-88902820D01*
X82200000Y-86000000D02*
X86155000Y-82045000D01*
X86155000Y-82045000D02*
X87650000Y-82045000D01*
X95105000Y-79505000D02*
X96500000Y-80900000D01*
X96500000Y-80900000D02*
X96500000Y-81000000D01*
X91550000Y-79505000D02*
X95105000Y-79505000D01*
X78879250Y-65425010D02*
X78879250Y-71300000D01*
X78500000Y-71300000D02*
X78879250Y-71300000D01*
X78879250Y-71300000D02*
X78879250Y-86235279D01*
X78879250Y-86235279D02*
X78028479Y-87086051D01*
X78028479Y-87086051D02*
X78028479Y-87904555D01*
X78484242Y-88360318D02*
X78908506Y-88360318D01*
X78028479Y-87904555D02*
X78484242Y-88360318D01*
X105455013Y-86355013D02*
X105455013Y-85049254D01*
X105455013Y-85049254D02*
X105455013Y-84624990D01*
X106100000Y-87000000D02*
X105455013Y-86355013D01*
X103300000Y-74600000D02*
X98200000Y-74600000D01*
X79500000Y-64900000D02*
X79500000Y-71400000D01*
X79500000Y-71400000D02*
X79500000Y-86465534D01*
X78903480Y-87062054D02*
X78603481Y-87362053D01*
X79500000Y-86465534D02*
X78903480Y-87062054D01*
X77526775Y-80315909D02*
X77518275Y-80324409D01*
X77526775Y-78774387D02*
X77526775Y-80315909D01*
X66319865Y-91080135D02*
X87962138Y-91080135D01*
X65500000Y-91900000D02*
X66319865Y-91080135D01*
X87962138Y-91080135D02*
X88386402Y-91080135D01*
X59600000Y-89000000D02*
X62500000Y-89000000D01*
X62500000Y-89000000D02*
X65600000Y-85900000D01*
X65700000Y-77850000D02*
X65700000Y-85800000D01*
X65700000Y-85800000D02*
X65600000Y-85900000D01*
X59600000Y-73600000D02*
X61450000Y-73600000D01*
X61450000Y-73600000D02*
X65700000Y-77850000D01*
X54919528Y-56040362D02*
X54919528Y-64780472D01*
X54919528Y-64780472D02*
X54900000Y-64800000D01*
X54919528Y-56040362D02*
X54619529Y-55740363D01*
X55000000Y-56120834D02*
X54919528Y-56040362D01*
X76125509Y-60616518D02*
X75382565Y-61359462D01*
X75382565Y-61359462D02*
X75204263Y-61359462D01*
X100016358Y-85024308D02*
X100316357Y-85324307D01*
X99577050Y-84585000D02*
X100016358Y-85024308D01*
X91550000Y-84585000D02*
X99577050Y-84585000D01*
X96631497Y-78119935D02*
X96931496Y-77819936D01*
X96516432Y-78235000D02*
X96631497Y-78119935D01*
X91550000Y-78235000D02*
X96516432Y-78235000D01*
X108665484Y-86238432D02*
X108965483Y-86538431D01*
X95075000Y-80775000D02*
X95900000Y-81600000D01*
X104027052Y-81600000D02*
X108665484Y-86238432D01*
X95900000Y-81600000D02*
X104027052Y-81600000D01*
X91550000Y-80775000D02*
X95075000Y-80775000D01*
X87650000Y-78235000D02*
X85435000Y-78235000D01*
X85435000Y-78235000D02*
X83700000Y-76500000D01*
X96600000Y-83500000D02*
X91735000Y-83500000D01*
X91735000Y-83500000D02*
X91550000Y-83315000D01*
X96500000Y-82200000D02*
X91705000Y-82200000D01*
X91705000Y-82200000D02*
X91550000Y-82045000D01*
D18*
X95600000Y-60639245D02*
X95786989Y-60826234D01*
X95600000Y-57800000D02*
X95600000Y-60639245D01*
X107400000Y-67400000D02*
X94000000Y-67400000D01*
X94000000Y-67400000D02*
X92900000Y-66300000D01*
X76754367Y-60861829D02*
X76945825Y-60670371D01*
X72978578Y-63641146D02*
X74249643Y-63641146D01*
X74249643Y-63641146D02*
X76754367Y-61136422D01*
X76754367Y-61136422D02*
X76754367Y-60861829D01*
X76945825Y-60519164D02*
X77345824Y-60119165D01*
X76945825Y-60670371D02*
X76945825Y-60519164D01*
D20*
X90800000Y-56565685D02*
X91200000Y-56965685D01*
X90800000Y-56000000D02*
X90800000Y-56565685D01*
X91200000Y-57826097D02*
X91387821Y-58013918D01*
X91200000Y-56965685D02*
X91200000Y-57826097D01*
M02*
