M48
;DRILL file {KiCad (2017-11-24 revision a01d81e4b)-makepkg} date 12/10/17 21:28:49
;FORMAT={-:-/ absolute / metric / decimal}
FMAT,2
METRIC,TZ
T1C0.400
T2C0.500
T3C1.000
%
G90
G05
M71
T1
X4.9Y-14.8
X4.964Y-7.875
X15.6Y-35.9
X15.617Y-41.122
X19.427Y-1.773
X21.7Y-42.3
X24.884Y-30.344
X24.886Y-26.792
X25.204Y-11.359
X26.126Y-10.617
X26.137Y-26.091
X26.151Y-30.163
X26.943Y-32.193
X26.945Y-25.252
X27.518Y-30.324
X27.527Y-28.774
X28.5Y-21.3
X28.603Y-37.362
X28.879Y-15.275
X28.909Y-38.36
X29.5Y-21.4
X29.521Y-14.887
X31.922Y-39.499
X32.012Y-40.505
X32.2Y-32.3
X32.2Y-33.4
X32.2Y-36.
X33.7Y-26.5
X35.954Y-9.068
X38.386Y-41.08
X38.596Y-21.514
X38.977Y-7.43
X39.285Y-41.717
X40.242Y-21.496
X41.207Y-22.071
X45.988Y-38.903
X46.226Y-39.614
X46.5Y-31.
X46.5Y-32.2
X46.533Y-41.266
X46.6Y-33.5
X46.931Y-27.82
X48.2Y-24.6
X50.316Y-35.324
X50.653Y-40.196
X51.596Y-36.022
X51.616Y-34.152
X53.3Y-21.8
X53.3Y-24.6
X54.8Y-24.3
X55.455Y-34.625
X56.1Y-37.
X58.6Y-38.9
X58.965Y-36.538
X59.673Y-39.589
T2
X2.4Y-24.1
X3.165Y-39.007
X3.2Y-28.5
X5.8Y-9.6
X7.8Y-12.5
X9.122Y-8.165
X15.912Y-37.514
X15.914Y-48.673
X15.933Y-30.079
X16.3Y-47.6
X18.472Y-18.64
X18.584Y-43.121
X19.2Y-4.
X19.2Y-14.2
X19.6Y-11.6
X19.6Y-31.1
X19.7Y-9.4
X19.8Y-37.4
X20.6Y-1.425
X21.606Y-37.392
X22.959Y-13.641
X23.546Y-9.409
X23.842Y-12.466
X24.05Y-4.75
X25.2Y-39.8
X26.1Y-32.3
X27.346Y-10.119
X27.76Y-11.369
X28.164Y-7.567
X29.431Y-9.023
X31.6Y-1.6
X32.095Y-42.4
X36.2Y-5.
X36.44Y-3.107
X38.504Y-18.124
X39.227Y-1.598
X39.263Y-6.03
X39.346Y-5.216
X40.036Y-38.225
X40.346Y-5.964
X41.388Y-8.014
X42.9Y-16.3
X43.189Y-11.494
X43.235Y-26.965
X45.11Y-26.09
X45.6Y-7.8
X45.787Y-10.826
X46.695Y-42.4
X47.579Y-3.644
X48.Y-8.4
X49.2Y-6.
X49.3Y-9.8
X50.7Y-28.2
X51.2Y-44.2
X51.539Y-40.531
X53.4Y-44.1
X56.2Y-29.6
X56.3Y-45.35
X57.8Y-11.6
X59.237Y-10.099
X60.281Y-37.46
X61.024Y-38.924
X61.31Y-16.556
X62.3Y-21.75
X62.3Y-29.6
X62.4Y-35.2
X63.721Y-40.037
X63.81Y-37.883
X64.5Y-33.4
X64.6Y-10.2
X67.9Y-10.
X68.827Y-9.794
X70.Y-9.4
X71.1Y-11.7
X71.2Y-10.2
T3
X40.Y-18.4
X40.Y-20.3
X57.4Y-15.4
X57.4Y-17.4
T0
M30
